<svg width="49" height="49" viewBox="0 0 49 49" fill="current" xmlns="http://www.w3.org/2000/svg">
<path fill-rule="evenodd" clip-rule="evenodd" d="M8.16602 22.458L8.16602 26.5413L32.666 26.5413L32.666 30.6247L36.7494 30.6247L36.7494 26.5413L40.8327 26.5413L40.8327 22.458L36.7494 22.458L36.7493 18.3747L32.666 18.3747L32.666 22.458L8.16602 22.458ZM28.5827 14.2913L32.666 14.2913L32.666 18.3747L28.5827 18.3747L28.5827 14.2913ZM28.5827 14.2913L24.4993 14.2913L24.4993 10.208L28.5827 10.208L28.5827 14.2913ZM28.5827 34.708L32.666 34.708L32.666 30.6247L28.5827 30.6247L28.5827 34.708ZM28.5827 34.708L24.4994 34.708L24.4994 38.7913L28.5827 38.7913L28.5827 34.708Z" fill="current"/>
</svg>
