<svg width="24" height="24" viewBox="0 0 24 24" fill="none" xmlns="http://www.w3.org/2000/svg">
<path d="M8.5 4.5H5.5V6.5H3.5V11.5H5.5V13.5H7.5V15.5H9.5V17.5L11.5 17V19.5H12.5V17.5H14.5V15.5H16.5V13.5H18.5V11.5H20.5V6.5H18.5V4.5H15.5V6.5H13.5V7V8.5H10.5V6.5H8.5V4.5Z" fill="#B53232" stroke="#BA2727"/>
<path fill-rule="evenodd" clip-rule="evenodd" d="M9 2H5V4H3V6H1V12H3V14H5V16H7V18H9V20H11V22H13V20H15V18H17V16H19V14H21V12H23V6H21V4H19V2H15V4H13V6H11V4H9V2ZM9 4V6H11V8H13V6H15V4H19V6H21V12H19V14H17V16H15V18H13V20H11V18H9V16H7V14H5V12H3V6H5V4H9Z" fill="#E5ECF5"/>
</svg>
