<svg width="24" height="20" viewBox="0 0 24 20" fill="none" xmlns="http://www.w3.org/2000/svg">
<path opacity="0.7" d="M7.53321 20C4.76035 20 2.17558 19.1818 0 17.7701C1.84714 17.8914 5.10692 17.601 7.1345 15.6389C4.08435 15.497 2.7088 13.1237 2.52938 12.1095C2.78854 12.211 4.02454 12.3327 4.72229 12.0487C1.21363 11.1562 0.675367 8.03245 0.79498 7.07911C1.45285 7.54564 2.56925 7.70791 3.00783 7.66734C-0.261606 5.29412 0.914594 1.72414 1.49273 0.953347C3.83899 4.25101 7.35532 6.1031 11.7055 6.20612C11.6234 5.84118 11.5801 5.46124 11.5801 5.07099C11.5801 2.27036 13.8115 0 16.564 0C18.0022 0 19.2981 0.619786 20.2077 1.61116C21.1688 1.3827 22.6151 0.847885 23.3222 0.385396C22.9658 1.68357 21.8562 2.76651 21.1851 3.16789C21.1906 3.18155 21.1796 3.15418 21.1851 3.16789C21.7746 3.07742 23.3698 2.76641 24 2.33266C23.6884 3.06196 22.512 4.27455 21.5466 4.95341C21.7262 12.9896 15.6656 20 7.53321 20Z" fill="white"/>
</svg>
