<svg width="24" height="24" viewBox="0 0 24 24" fill="none" xmlns="http://www.w3.org/2000/svg">
<path d="M8.99998 12.1972C8.99998 14.5183 10.1302 16 11.9806 16C13.831 16 15 14.4845 15 12.1972V11.7859C15 9.4648 13.8864 8.00001 12.0194 8.00001C10.1579 8.00001 8.99998 9.49296 8.99998 11.7859V12.1972ZM10.8393 11.7916C10.8393 10.3324 11.2659 9.48733 11.9972 9.48733C12.7285 9.48733 13.1662 10.338 13.1662 11.7916V12.1916C13.1662 13.6507 12.7285 14.5127 12.0027 14.5127C11.2714 14.5127 10.8393 13.6563 10.8393 12.1916V11.7916Z" fill="#3F8AE0"/>
<path fill-rule="evenodd" clip-rule="evenodd" d="M12 2.10001C17.4671 2.10001 21.9 6.53288 21.9 12C21.9 17.4671 17.4671 21.9 12 21.9C6.53285 21.9 2.09998 17.4671 2.09998 12C2.09998 6.53288 6.53285 2.10001 12 2.10001ZM12 3.90001C7.52597 3.90001 3.89998 7.526 3.89998 12C3.89998 16.474 7.52597 20.1 12 20.1C16.474 20.1 20.1 16.474 20.1 12C20.1 7.526 16.474 3.90001 12 3.90001Z" fill="#3F8AE0"/>
</svg>
