<svg width="24" height="24" viewBox="0 0 24 24" fill="none" xmlns="http://www.w3.org/2000/svg">
<path d="M8.1464 15.0071C8.1464 15.6389 8.48215 16 9.07967 16C9.6715 16 10.0072 15.6446 10.0072 15.0071V9.134C10.0072 8.4457 9.56337 8.00001 8.89757 8.00001C8.5163 8.00001 8.11226 8.12977 7.66839 8.41185L6.74082 9.0268C6.40507 9.23555 6.23435 9.48379 6.23435 9.76023C6.23435 10.1326 6.5075 10.4034 6.88308 10.4034C7.07087 10.4034 7.23021 10.347 7.52612 10.1608L8.12364 9.76023H8.1464V15.0071Z" fill="#3F8AE0"/>
<path d="M11.1681 12.0451C11.1681 13.2525 11.4356 14.2398 11.9478 14.9111C12.4884 15.6277 13.3078 16 14.3151 16C16.0564 16 17.2344 14.9055 17.2344 13.2638C17.2344 11.8025 16.2442 10.7814 14.8215 10.7814C13.985 10.7814 13.2452 11.2214 12.9721 11.8815H12.9208C12.9265 10.2962 13.4558 9.43301 14.4687 9.43301C14.8557 9.43301 15.163 9.55149 15.5442 9.83922C15.8515 10.0592 16.0393 10.1326 16.284 10.1326C16.6994 10.1326 16.9897 9.86178 16.9897 9.4725C16.9897 9.13964 16.7393 8.77293 16.3238 8.49648C15.8401 8.1749 15.18 8.00001 14.4573 8.00001C12.3575 8.00001 11.1681 9.46122 11.1681 12.0451ZM13.1314 13.3315C13.1314 12.6206 13.6208 12.1072 14.3037 12.1072C14.9922 12.1072 15.4646 12.6093 15.4646 13.3371C15.4646 14.0762 14.9922 14.5783 14.3207 14.5783C13.6322 14.5783 13.1314 14.0649 13.1314 13.3315Z" fill="#3F8AE0"/>
<path fill-rule="evenodd" clip-rule="evenodd" d="M12 2.10001C17.4671 2.10001 21.9 6.53288 21.9 12C21.9 17.4671 17.4671 21.9 12 21.9C6.53285 21.9 2.09998 17.4671 2.09998 12C2.09998 6.53288 6.53285 2.10001 12 2.10001ZM12 3.90001C7.52597 3.90001 3.89998 7.526 3.89998 12C3.89998 16.474 7.52597 20.1 12 20.1C16.474 20.1 20.1 16.474 20.1 12C20.1 7.526 16.474 3.90001 12 3.90001Z" fill="#3F8AE0"/>
</svg>
