<svg width="24" height="24" viewBox="0 0 24 24" fill="none" xmlns="http://www.w3.org/2000/svg">
<path fill-rule="evenodd" clip-rule="evenodd" d="M12.0001 2.09998C17.4672 2.09998 21.9001 6.53285 21.9001 12C21.9001 17.4671 17.4672 21.9 12.0001 21.9C6.53297 21.9 2.1001 17.4671 2.1001 12C2.1001 6.53285 6.53298 2.09998 12.0001 2.09998ZM12.0001 3.89998C7.52609 3.89998 3.9001 7.52597 3.9001 12C3.9001 16.474 7.52609 20.1 12.0001 20.1C16.4741 20.1 20.1001 16.474 20.1001 12C20.1001 7.52597 16.4741 3.89998 12.0001 3.89998Z" fill="#2688EB"/>
<path d="M9.13672 15.9976C9.72217 15.9976 10.1143 15.6162 10.1143 15.0254V9.10107C10.1143 8.42432 9.70068 8 8.9917 8C8.60498 8 8.27197 8.04297 7.8584 8.32227L6.39209 9.32129C6.11279 9.51465 6 9.73486 6 10.0195C6 10.417 6.28467 10.7017 6.66602 10.7017C6.854 10.7017 6.97217 10.6587 7.14941 10.5352L8.11621 9.86377H8.15381V15.0254C8.15381 15.6162 8.55127 15.9976 9.13672 15.9976Z" fill="#2688EB"/>
<path d="M14.2474 16C16.1684 16 17.5 15.0917 17.5 13.7505C17.5 12.7208 16.7263 11.9974 15.6579 11.8125V11.7756C16.5789 11.5696 17.2211 10.9096 17.2211 10.0805C17.2211 8.87129 16.0105 8 14.2474 8C12.4895 8 11.2737 8.87129 11.2737 10.0752C11.2737 10.9201 11.9211 11.5696 12.8474 11.7756V11.8125C11.7789 11.9974 11 12.7155 11 13.7452C11 15.0917 12.3211 16 14.2474 16ZM14.2474 11.2264C13.6263 11.2264 13.1842 10.8356 13.1842 10.2759C13.1842 9.71089 13.6316 9.32541 14.2474 9.32541C14.8684 9.32541 15.3211 9.71089 15.3211 10.2759C15.3211 10.8356 14.8737 11.2264 14.2474 11.2264ZM14.2474 14.6693C13.5263 14.6693 13.0263 14.2205 13.0263 13.6026C13.0263 12.9954 13.5263 12.5571 14.2474 12.5571C14.9737 12.5571 15.4737 12.9954 15.4737 13.6026C15.4737 14.2205 14.9737 14.6693 14.2474 14.6693Z" fill="#2688EB"/>
</svg>
