<svg width="24" height="24" viewBox="0 0 24 24" fill="none" xmlns="http://www.w3.org/2000/svg">
<path fill-rule="evenodd" clip-rule="evenodd" d="M7.59998 20.9L7.63331 20.9C8.02478 20.9 8.37133 20.9 8.65846 20.8766C8.96425 20.8516 9.2811 20.7956 9.58956 20.6384C10.0411 20.4083 10.4083 20.0412 10.6384 19.5896C10.7956 19.2811 10.8516 18.9643 10.8766 18.6585C10.9 18.3713 10.9 18.0249 10.9 17.6334L10.9 17.6V6.40001L10.9 6.36668C10.9 5.97517 10.9 5.62868 10.8766 5.34152C10.8516 5.03574 10.7956 4.71889 10.6384 4.41043C10.4083 3.95884 10.0411 3.59169 9.58956 3.36159C9.2811 3.20443 8.96425 3.14842 8.65846 3.12344C8.37133 3.09997 8.02486 3.09999 7.63339 3.10001L7.59998 3.10001H6.39998L6.36664 3.10001C5.97517 3.09999 5.62863 3.09997 5.34149 3.12344C5.03571 3.14842 4.71886 3.20443 4.4104 3.36159C3.95881 3.59169 3.59166 3.95884 3.36156 4.41043C3.2044 4.71889 3.14839 5.03574 3.1234 5.34152C3.09994 5.62866 3.09996 5.97513 3.09998 6.3666L3.09998 6.40001L3.09998 17.6L3.09998 17.6333C3.09996 18.0248 3.09994 18.3714 3.1234 18.6585C3.14839 18.9643 3.2044 19.2811 3.36156 19.5896C3.59166 20.0412 3.95881 20.4083 4.4104 20.6384C4.71886 20.7956 5.03571 20.8516 5.34149 20.8766C5.62862 20.9 5.97508 20.9 6.36654 20.9L6.39998 20.9H7.59998ZM8.77237 19.0346C8.75996 19.0409 8.70636 19.0667 8.51189 19.0826C8.30691 19.0993 8.03487 19.1 7.59998 19.1H6.39998C5.96509 19.1 5.69305 19.0993 5.48807 19.0826C5.2936 19.0667 5.24 19.0409 5.22758 19.0346C5.11469 18.9771 5.0229 18.8853 4.96537 18.7724C4.95905 18.76 4.93331 18.7064 4.91743 18.5119C4.90068 18.3069 4.89998 18.0349 4.89998 17.6L4.89998 6.40001C4.89998 5.96512 4.90068 5.69308 4.91743 5.4881C4.93331 5.29363 4.95905 5.24003 4.96537 5.22762C5.0229 5.11472 5.11469 5.02293 5.22758 4.96541C5.24 4.95908 5.2936 4.93335 5.48807 4.91746C5.69305 4.90071 5.96509 4.90001 6.39998 4.90001H7.59998C8.03487 4.90001 8.30691 4.90071 8.51189 4.91746C8.70636 4.93335 8.75996 4.95908 8.77237 4.96541C8.88527 5.02293 8.97706 5.11472 9.03458 5.22762C9.04091 5.24003 9.06664 5.29363 9.08253 5.4881C9.09928 5.69308 9.09998 5.96512 9.09998 6.40001L9.09998 17.6C9.09998 18.0349 9.09928 18.3069 9.08253 18.5119C9.06664 18.7064 9.04091 18.76 9.03458 18.7724C8.97706 18.8853 8.88527 18.9771 8.77237 19.0346ZM17.6333 10.9L17.6 10.9H16.4L16.3666 10.9C15.9751 10.9 15.6286 10.9 15.3415 10.8766C15.0357 10.8516 14.7189 10.7956 14.4104 10.6384C13.9588 10.4083 13.5917 10.0412 13.3616 9.58959C13.2044 9.28113 13.1484 8.96428 13.1234 8.65849C13.0999 8.37134 13.1 8.02485 13.1 7.63335L13.1 7.60001V6.40001L13.1 6.36667C13.1 5.97517 13.0999 5.62868 13.1234 5.34152C13.1484 5.03574 13.2044 4.71889 13.3616 4.41043C13.5917 3.95884 13.9588 3.59169 14.4104 3.36159C14.7189 3.20443 15.0357 3.14842 15.3415 3.12343C15.6286 3.09997 15.9751 3.09999 16.3666 3.10001L16.4 3.10001L17.6 3.10001L17.6333 3.10001C18.0248 3.09999 18.3713 3.09997 18.6585 3.12343C18.9642 3.14842 19.2811 3.20443 19.5896 3.36159C20.0411 3.59169 20.4083 3.95884 20.6384 4.41043C20.7956 4.71889 20.8516 5.03574 20.8766 5.34152C20.9 5.62868 20.9 5.97517 20.9 6.36668L20.9 6.40001V7.60001L20.9 7.63334C20.9 8.02485 20.9 8.37134 20.8766 8.6585C20.8516 8.96428 20.7956 9.28113 20.6384 9.58959C20.4083 10.0412 20.0411 10.4083 19.5896 10.6384C19.2811 10.7956 18.9642 10.8516 18.6585 10.8766C18.3713 10.9 18.0248 10.9 17.6333 10.9ZM18.5119 9.08256C18.7064 9.06667 18.76 9.04094 18.7724 9.03461C18.8853 8.97709 18.9771 8.8853 19.0346 8.7724C19.0409 8.75999 19.0666 8.70639 19.0825 8.51192C19.0993 8.30694 19.1 8.0349 19.1 7.60001V6.40001C19.1 5.96512 19.0993 5.69308 19.0825 5.4881C19.0666 5.29363 19.0409 5.24003 19.0346 5.22761C18.9771 5.11472 18.8853 5.02293 18.7724 4.96541C18.76 4.95908 18.7064 4.93335 18.5119 4.91746C18.3069 4.90071 18.0349 4.90001 17.6 4.90001L16.4 4.90001C15.9651 4.90001 15.693 4.90071 15.4881 4.91746C15.2936 4.93334 15.24 4.95908 15.2276 4.96541C15.1147 5.02293 15.0229 5.11472 14.9654 5.22761C14.959 5.24003 14.9333 5.29363 14.9174 5.4881C14.9007 5.69308 14.9 5.96512 14.9 6.40001V7.60001C14.9 8.0349 14.9007 8.30694 14.9174 8.51192C14.9333 8.70639 14.959 8.75999 14.9654 8.7724C15.0229 8.8853 15.1147 8.97709 15.2276 9.03461C15.24 9.04094 15.2936 9.06667 15.4881 9.08256C15.693 9.09931 15.9651 9.10001 16.4 9.10001L17.6 9.10001C18.0349 9.10001 18.3069 9.09931 18.5119 9.08256ZM17.6 20.9L17.6333 20.9C18.0248 20.9 18.3713 20.9 18.6585 20.8766C18.9642 20.8516 19.2811 20.7956 19.5896 20.6384C20.0411 20.4083 20.4083 20.0412 20.6384 19.5896C20.7956 19.2811 20.8516 18.9643 20.8766 18.6585C20.9 18.3713 20.9 18.0248 20.9 17.6333L20.9 17.6V16.4L20.9 16.3667C20.9 15.9752 20.9 15.6287 20.8766 15.3415C20.8516 15.0357 20.7956 14.7189 20.6384 14.4104C20.4083 13.9588 20.0411 13.5917 19.5896 13.3616C19.2811 13.2044 18.9642 13.1484 18.6585 13.1234C18.3713 13.1 18.0249 13.1 17.6334 13.1L17.6 13.1H16.4L16.3666 13.1C15.9752 13.1 15.6286 13.1 15.3415 13.1234C15.0357 13.1484 14.7189 13.2044 14.4104 13.3616C13.9588 13.5917 13.5917 13.9588 13.3616 14.4104C13.2044 14.7189 13.1484 15.0357 13.1234 15.3415C13.0999 15.6287 13.1 15.9752 13.1 16.3667L13.1 16.4V17.6L13.1 17.6333C13.1 18.0248 13.0999 18.3713 13.1234 18.6585C13.1484 18.9643 13.2044 19.2811 13.3616 19.5896C13.5917 20.0412 13.9588 20.4083 14.4104 20.6384C14.7189 20.7956 15.0357 20.8516 15.3415 20.8766C15.6286 20.9 15.9751 20.9 16.3665 20.9L16.4 20.9H17.6ZM18.7724 19.0346C18.76 19.0409 18.7064 19.0667 18.5119 19.0826C18.3069 19.0993 18.0349 19.1 17.6 19.1H16.4C15.9651 19.1 15.693 19.0993 15.4881 19.0826C15.2936 19.0667 15.24 19.0409 15.2276 19.0346C15.1147 18.9771 15.0229 18.8853 14.9654 18.7724C14.959 18.76 14.9333 18.7064 14.9174 18.5119C14.9007 18.3069 14.9 18.0349 14.9 17.6V16.4C14.9 15.9651 14.9007 15.6931 14.9174 15.4881C14.9333 15.2936 14.959 15.24 14.9654 15.2276C15.0229 15.1147 15.1147 15.0229 15.2276 14.9654C15.24 14.9591 15.2936 14.9333 15.4881 14.9175C15.693 14.9007 15.9651 14.9 16.4 14.9H17.6C18.0349 14.9 18.3069 14.9007 18.5119 14.9175C18.7064 14.9333 18.76 14.9591 18.7724 14.9654C18.8853 15.0229 18.9771 15.1147 19.0346 15.2276C19.0409 15.24 19.0666 15.2936 19.0825 15.4881C19.0993 15.6931 19.1 15.9651 19.1 16.4V17.6C19.1 18.0349 19.0993 18.3069 19.0825 18.5119C19.0666 18.7064 19.0409 18.76 19.0346 18.7724C18.9771 18.8853 18.8853 18.9771 18.7724 19.0346Z" fill="#2688EB"/>
</svg>
