<svg width="24" height="24" viewBox="0 0 24 24" fill="none" xmlns="http://www.w3.org/2000/svg">
<path fill-rule="evenodd" clip-rule="evenodd" d="M12 7.00001C12.497 7.00001 12.9 7.40295 12.9 7.90001V11.1H16.1C16.597 11.1 17 11.5029 17 12C17 12.4971 16.597 12.9 16.1 12.9H12.9V16.1C12.9 16.5971 12.497 17 12 17C11.5029 17 11.1 16.5971 11.1 16.1V12.9H7.89997C7.40292 12.9 6.99997 12.4971 6.99997 12C6.99997 11.5029 7.40292 11.1 7.89997 11.1H11.1V7.90001C11.1 7.40295 11.5029 7.00001 12 7.00001Z" fill="#2688EB"/>
<path fill-rule="evenodd" clip-rule="evenodd" d="M12 3.90001C7.52647 3.90001 3.89998 7.5265 3.89998 12C3.89998 16.4735 7.52647 20.1 12 20.1C16.4735 20.1 20.1 16.4735 20.1 12C20.1 7.5265 16.4735 3.90001 12 3.90001ZM2.09998 12C2.09998 6.53239 6.53236 2.10001 12 2.10001C17.4676 2.10001 21.9 6.53239 21.9 12C21.9 17.4676 17.4676 21.9 12 21.9C6.53236 21.9 2.09998 17.4676 2.09998 12Z" fill="#2688EB"/>
</svg>
