<svg width="24" height="24" viewBox="0 0 24 24" fill="none" xmlns="http://www.w3.org/2000/svg">
<path fill-rule="evenodd" clip-rule="evenodd" d="M12.7248 2.19484C12.2501 2.06664 11.7499 2.06664 11.2752 2.19484C10.7322 2.3415 10.2637 2.70574 9.71944 3.12893L9.71943 3.12894L9.60574 3.21724L9.51426 3.28815C9.20517 3.52775 9.13878 3.57468 9.07456 3.60757C9.00227 3.64458 8.92567 3.67246 8.8465 3.69057C8.77617 3.70666 8.69515 3.71339 8.30436 3.72852L8.1887 3.733L8.04484 3.73843C7.35589 3.7641 6.76289 3.78619 6.25262 4.02292C5.80658 4.22984 5.4234 4.55137 5.14216 4.95471C4.82043 5.41612 4.6957 5.99626 4.55078 6.6703L4.55078 6.6703L4.52045 6.81103L4.49596 6.92415C4.41319 7.30637 4.3925 7.385 4.36444 7.45147C4.33286 7.52629 4.2921 7.59689 4.24309 7.66165C4.19956 7.71919 4.14182 7.77642 3.85218 8.03921L3.76646 8.11698L3.65975 8.21361C3.14848 8.67612 2.70842 9.07422 2.46969 9.58355C2.26101 10.0288 2.17415 10.5214 2.21797 11.0111C2.2681 11.5714 2.54546 12.096 2.86771 12.7055L2.86772 12.7055L2.93494 12.8328L2.98889 12.9352C3.17118 13.2812 3.20586 13.3547 3.22709 13.4237C3.25099 13.5013 3.26515 13.5816 3.26924 13.6627C3.27287 13.7347 3.26542 13.8157 3.21247 14.2032L3.1968 14.3179L3.17717 14.4605C3.08281 15.1434 3.00159 15.7312 3.14611 16.2749C3.27244 16.7501 3.52254 17.1833 3.87091 17.5303C4.26945 17.9272 4.81913 18.1508 5.45776 18.4106L5.59107 18.4649L5.69822 18.5086C6.06027 18.6565 6.13411 18.6905 6.19469 18.7297C6.26289 18.7738 6.32534 18.8262 6.38061 18.8857C6.42971 18.9386 6.47605 19.0054 6.68455 19.3363L6.74626 19.4342L6.82289 19.556C7.1896 20.1399 7.50523 20.6424 7.96537 20.9659C8.36759 21.2487 8.83764 21.4198 9.32755 21.4617C9.88801 21.5096 10.4528 21.3276 11.109 21.1161L11.246 21.072L11.3562 21.0366C11.7286 20.9172 11.8071 20.8958 11.8787 20.8869C11.9593 20.8768 12.0408 20.8768 12.1214 20.8869C12.193 20.8958 12.2714 20.9172 12.6438 21.0366L12.754 21.072L12.8911 21.1161C13.5472 21.3276 14.112 21.5096 14.6725 21.4617C15.1624 21.4198 15.6324 21.2487 16.0347 20.9659C16.4948 20.6424 16.8104 20.1399 17.1772 19.556L17.2538 19.4342L17.3155 19.3363C17.524 19.0054 17.5703 18.9386 17.6194 18.8857C17.6747 18.8262 17.7371 18.7738 17.8053 18.7297C17.8659 18.6905 17.9398 18.6565 18.3018 18.5086L18.409 18.4649L18.5423 18.4106C19.1809 18.1508 19.7306 17.9272 20.1291 17.5303C20.4775 17.1833 20.7276 16.7501 20.8539 16.2749C20.9984 15.7312 20.9172 15.1434 20.8229 14.4605L20.8032 14.3179L20.7876 14.2032C20.7346 13.8157 20.7272 13.7347 20.7308 13.6627C20.7349 13.5816 20.749 13.5013 20.7729 13.4237C20.7942 13.3547 20.8289 13.2812 21.0112 12.9352L21.0651 12.8328L21.1323 12.7055C21.4546 12.096 21.7319 11.5714 21.7821 11.0111C21.8259 10.5214 21.739 10.0288 21.5303 9.58355C21.2916 9.07422 20.8516 8.67613 20.3403 8.21361L20.2336 8.11698L20.1479 8.03921C19.8582 7.77642 19.8005 7.71919 19.7569 7.66165C19.7079 7.59689 19.6672 7.52629 19.6356 7.45147C19.6075 7.385 19.5868 7.30637 19.5041 6.92415L19.4796 6.81102L19.4493 6.67031C19.3043 5.99627 19.1796 5.41612 18.8579 4.95471C18.5766 4.55137 18.1935 4.22984 17.7474 4.02292C17.2371 3.78619 16.6442 3.7641 15.9552 3.73843L15.8113 3.733L15.6957 3.72852C15.3049 3.71339 15.2239 3.70666 15.1535 3.69057C15.0744 3.67246 14.9978 3.64458 14.9255 3.60757C14.8613 3.57468 14.7949 3.52775 14.4858 3.28815L14.3943 3.21724L14.2806 3.12894C13.7363 2.70574 13.2679 2.3415 12.7248 2.19484ZM11.7445 3.93259C11.9119 3.8874 12.0882 3.8874 12.2555 3.93259C12.4027 3.97232 12.5667 4.07799 13.2915 4.63986L13.383 4.71078L13.43 4.74723C13.6669 4.93114 13.8721 5.09045 14.1051 5.20977C14.3102 5.31476 14.5275 5.39385 14.7521 5.44523C15.0073 5.50362 15.2669 5.5135 15.5666 5.5249L15.626 5.52718L15.7417 5.53166C16.6581 5.56715 16.8517 5.59163 16.9899 5.65577C17.1472 5.72871 17.2822 5.84205 17.3814 5.98424C17.4685 6.10925 17.5263 6.29563 17.7204 7.19196L17.7448 7.30508L17.7574 7.36319C17.8207 7.65637 17.8755 7.91033 17.9773 8.15152C18.0669 8.36376 18.1825 8.56403 18.3215 8.74774C18.4795 8.95652 18.672 9.13097 18.8943 9.33236L18.9383 9.37228L19.0241 9.45005C19.7033 10.0663 19.8358 10.2095 19.9005 10.3475C19.9741 10.5044 20.0047 10.6781 19.9892 10.8507C19.9756 11.0025 19.9001 11.1824 19.4726 11.9938L19.4186 12.0962L19.3909 12.1488C19.2509 12.414 19.1297 12.6438 19.0526 12.894C18.9848 13.1142 18.9447 13.3419 18.9331 13.572C18.9199 13.8335 18.9553 14.0909 18.9961 14.388L19.0041 14.4469L19.0198 14.5616C19.144 15.4702 19.1535 15.6651 19.1143 15.8124C19.0698 15.9799 18.9816 16.1326 18.8588 16.255C18.7509 16.3625 18.5773 16.4517 17.7283 16.7985L17.6212 16.8423L17.5661 16.8647C17.2884 16.978 17.0478 17.076 16.828 17.2182C16.6345 17.3433 16.4574 17.4919 16.3006 17.6607C16.1224 17.8525 15.9841 18.0724 15.8243 18.3263L15.8243 18.3263L15.7926 18.3766L15.7309 18.4745C15.242 19.2504 15.124 19.4058 14.9993 19.4935C14.8575 19.5932 14.6918 19.6535 14.5191 19.6683C14.3673 19.6812 14.177 19.638 13.3037 19.358L13.1935 19.3226L13.1369 19.3044C12.8514 19.2126 12.604 19.1331 12.3442 19.1007C12.1156 19.0722 11.8844 19.0722 11.6558 19.1007C11.396 19.1331 11.1487 19.2126 10.8631 19.3044L10.8065 19.3226L10.6963 19.358C9.82302 19.638 9.63275 19.6812 9.4809 19.6683C9.3082 19.6535 9.1425 19.5932 9.00071 19.4935C8.87604 19.4058 8.75805 19.2504 8.26911 18.4745L8.2074 18.3766L8.17572 18.3263C8.01599 18.0724 7.87763 17.8525 7.69946 17.6607C7.54268 17.4919 7.36552 17.3433 7.17207 17.2182C6.95223 17.076 6.71165 16.978 6.43392 16.8647L6.37886 16.8423L6.27171 16.7985C5.4227 16.4517 5.24917 16.3625 5.1412 16.255C5.01839 16.1326 4.93022 15.9799 4.88569 15.8124C4.84654 15.6651 4.85604 15.4702 4.98022 14.5616L4.99589 14.4469L5.00397 14.388C5.04478 14.0909 5.08014 13.8335 5.06695 13.572C5.05535 13.3419 5.01519 13.1142 4.9474 12.894C4.87037 12.6438 4.74911 12.414 4.60913 12.1488L4.5814 12.0962L4.52745 11.9938C4.09998 11.1824 4.02439 11.0025 4.01081 10.8507C3.99536 10.6781 4.02598 10.5044 4.09955 10.3475C4.16423 10.2095 4.29677 10.0663 4.97597 9.45005L5.0617 9.37228L5.10575 9.33234C5.32801 9.13096 5.52054 8.95652 5.6785 8.74774C5.81751 8.56403 5.93314 8.36376 6.02273 8.15152C6.12455 7.91033 6.17936 7.65638 6.24263 7.3632L6.25519 7.30508L6.27968 7.19196C6.47377 6.29563 6.5315 6.10925 6.61866 5.98424C6.7178 5.84205 6.85288 5.72871 7.01012 5.65577C7.14837 5.59163 7.34194 5.56715 8.25836 5.53166L8.37402 5.52718L8.43343 5.5249C8.73314 5.5135 8.99275 5.50362 9.24796 5.44523C9.47253 5.39385 9.68984 5.31476 9.8949 5.20977C10.1279 5.09045 10.3332 4.93114 10.5701 4.74723L10.6171 4.71078L10.7085 4.63987C11.4334 4.07799 11.5974 3.97232 11.7445 3.93259ZM12.9001 8.89999C12.9001 8.40293 12.4971 7.99999 12.0001 7.99999C11.503 7.99999 11.1001 8.40293 11.1001 8.89999V11.1L8.90005 11.1C8.40299 11.1 8.00005 11.503 8.00006 12C8.00006 12.4971 8.40301 12.9 8.90007 12.9L11.1001 12.9V15.1C11.1001 15.5971 11.503 16 12.0001 16C12.4971 16 12.9001 15.5971 12.9001 15.1V12.9H15.1001C15.5971 12.9 16.0001 12.497 16.0001 12C16.0001 11.5029 15.5971 11.1 15.1001 11.1H12.9001V8.89999Z" fill="#2688EB"/>
</svg>
