<svg width="24" height="24" viewBox="0 0 24 24" fill="none" xmlns="http://www.w3.org/2000/svg">
<path d="M13 13V16C13 16.5523 12.5523 17 12 17C11.4477 17 11 16.5523 11 16V13H7.99998C7.44769 13 6.99998 12.5523 6.99998 12C6.99998 11.4477 7.44769 11 7.99998 11H11V8.00001C11 7.44772 11.4477 7.00001 12 7.00001C12.5523 7.00001 13 7.44772 13 8.00001V11H16C16.5523 11 17 11.4477 17 12C17 12.5523 16.5523 13 16 13H13Z" fill="#2688EB"/>
<path fill-rule="evenodd" clip-rule="evenodd" d="M10.069 2.2884C10.6942 2.16471 11.34 2.10001 12 2.10001C12.66 2.10001 13.3057 2.16471 13.931 2.2884C14.4186 2.38485 14.7357 2.85833 14.6392 3.34594C14.5427 3.83355 14.0693 4.15064 13.5817 4.05418C13.0708 3.95313 12.5421 3.90001 12 3.90001C11.4579 3.90001 10.9291 3.95313 10.4183 4.05418C9.93068 4.15064 9.4572 3.83355 9.36075 3.34594C9.26429 2.85833 9.58138 2.38485 10.069 2.2884ZM7.74733 4.01522C8.02385 4.42826 7.91318 4.98725 7.50014 5.26378C7.05836 5.55954 6.64716 5.89769 6.27241 6.27244C5.89766 6.64719 5.55951 7.0584 5.26375 7.50017C4.98722 7.91321 4.42823 8.02388 4.01519 7.74736C3.60215 7.47084 3.49148 6.91184 3.768 6.4988C4.12932 5.9591 4.54222 5.45705 4.99962 4.99965C5.45702 4.54225 5.95907 4.12935 6.49877 3.76803C6.91181 3.49151 7.47081 3.60218 7.74733 4.01522ZM16.2526 4.01522C16.5291 3.60218 17.0881 3.49151 17.5012 3.76803C18.0409 4.12935 18.5429 4.54225 19.0003 4.99965C19.4577 5.45705 19.8706 5.9591 20.232 6.4988C20.5085 6.91184 20.3978 7.47084 19.9848 7.74736C19.5717 8.02388 19.0127 7.91321 18.7362 7.50017C18.4404 7.0584 18.1023 6.64719 17.7275 6.27244C17.3528 5.89769 16.9416 5.55954 16.4998 5.26378C16.0868 4.98725 15.9761 4.42826 16.2526 4.01522ZM20.654 9.36078C21.1417 9.26432 21.6151 9.58141 21.7116 10.069C21.8353 10.6943 21.9 11.34 21.9 12C21.9 12.66 21.8353 13.3057 21.7116 13.931C21.6151 14.4186 21.1417 14.7357 20.654 14.6392C20.1664 14.5428 19.8493 14.0693 19.9458 13.5817C20.0469 13.0709 20.1 12.5421 20.1 12C20.1 11.4579 20.0469 10.9292 19.9458 10.4183C19.8493 9.93071 20.1664 9.45723 20.654 9.36078ZM3.34591 9.36078C3.83352 9.45723 4.15061 9.93071 4.05415 10.4183C3.9531 10.9292 3.89998 11.4579 3.89998 12C3.89998 12.5421 3.9531 13.0709 4.05415 13.5817C4.15061 14.0693 3.83352 14.5428 3.34591 14.6392C2.8583 14.7357 2.38482 14.4186 2.28837 13.931C2.16468 13.3057 2.09998 12.66 2.09998 12C2.09998 11.34 2.16468 10.6943 2.28837 10.069C2.38482 9.58141 2.8583 9.26432 3.34591 9.36078ZM4.01519 16.2527C4.42823 15.9761 4.98722 16.0868 5.26374 16.4998C5.55951 16.9416 5.89766 17.3528 6.27241 17.7276C6.64716 18.1023 7.05836 18.4405 7.50014 18.7362C7.91318 19.0128 8.02385 19.5718 7.74733 19.9848C7.47081 20.3978 6.91181 20.5085 6.49877 20.232C5.95907 19.8707 5.45702 19.4578 4.99962 19.0004C4.54222 18.543 4.12932 18.0409 3.768 17.5012C3.49148 17.0882 3.60215 16.5292 4.01519 16.2527ZM19.9848 16.2527C20.3978 16.5292 20.5085 17.0882 20.232 17.5012C19.8706 18.0409 19.4577 18.543 19.0003 19.0004C18.5429 19.4578 18.0409 19.8707 17.5012 20.232C17.0881 20.5085 16.5291 20.3978 16.2526 19.9848C15.9761 19.5718 16.0868 19.0128 16.4998 18.7362C16.9416 18.4405 17.3528 18.1023 17.7275 17.7276C18.1023 17.3528 18.4404 16.9416 18.7362 16.4998C19.0127 16.0868 19.5717 15.9761 19.9848 16.2527ZM9.36075 20.6541C9.4572 20.1665 9.93068 19.8494 10.4183 19.9458C10.9291 20.0469 11.4579 20.1 12 20.1C12.5421 20.1 13.0708 20.0469 13.5817 19.9458C14.0693 19.8494 14.5427 20.1665 14.6392 20.6541C14.7357 21.1417 14.4186 21.6152 13.931 21.7116C13.3057 21.8353 12.66 21.9 12 21.9C11.34 21.9 10.6942 21.8353 10.069 21.7116C9.58138 21.6152 9.26429 21.1417 9.36075 20.6541Z" fill="#2688EB"/>
</svg>
