<svg width="24" height="24" viewBox="0 0 24 24" fill="none" xmlns="http://www.w3.org/2000/svg">
<path d="M18.6963 15.8912C18.9493 15.843 19.165 15.7734 19.362 15.673C19.9265 15.3854 20.3854 14.9265 20.673 14.362C21 13.7202 21 12.8802 21 11.2V9.8C21 8.11984 21 7.27976 20.673 6.63803C20.3854 6.07354 19.9265 5.6146 19.362 5.32698C18.7202 5 17.8802 5 16.2 5H7.8C6.11984 5 5.27976 5 4.63803 5.32698C4.07354 5.6146 3.6146 6.07354 3.32698 6.63803C3 7.27976 3 8.11984 3 9.8V11.2C3 12.8802 3 13.7202 3.32698 14.362C3.6146 14.9265 4.07354 15.3854 4.63803 15.673C4.83349 15.7726 5.04735 15.8419 5.29774 15.89" stroke="#2688EB" stroke-width="1.8" stroke-linecap="round"/>
<path d="M10.9393 14.0607C11.5251 13.4749 12.4749 13.4749 13.0607 14.0607L17.2929 18.2929C17.9229 18.9229 17.4767 20 16.5858 20H7.41421C6.52331 20 6.07714 18.9229 6.70711 18.2929L10.9393 14.0607Z" fill="#2688EB"/>
<path d="M16.2377 4.09998H7.76228C6.95423 4.09997 6.29337 4.09996 5.75629 4.14384C5.20038 4.18926 4.6983 4.28614 4.22941 4.52505C3.49558 4.89896 2.89896 5.49558 2.52505 6.22941C2.28614 6.6983 2.18926 7.20038 2.14384 7.75629C2.09996 8.29337 2.09997 8.95421 2.09998 9.76226V11.2377C2.09997 12.0457 2.09996 12.7066 2.14384 13.2437C2.18926 13.7996 2.28614 14.3017 2.52505 14.7705C2.89896 15.5044 3.49558 16.101 4.22941 16.4749C4.5145 16.6202 4.81178 16.713 5.12772 16.7738C5.61583 16.8677 6.08763 16.5481 6.18152 16.06C6.2754 15.5719 5.95583 15.1001 5.46772 15.0062C5.28287 14.9707 5.15243 14.925 5.0466 14.8711C4.65146 14.6698 4.3302 14.3485 4.12886 13.9534C4.04079 13.7805 3.97419 13.5417 3.93786 13.0971C3.90068 12.642 3.89998 12.0549 3.89998 11.2V9.79998C3.89998 8.94505 3.90068 8.35798 3.93786 7.90287C3.97419 7.45827 4.04079 7.21944 4.12886 7.0466C4.3302 6.65146 4.65146 6.3302 5.0466 6.12886C5.21944 6.04079 5.45827 5.97419 5.90287 5.93786C6.35798 5.90068 6.94505 5.89998 7.79998 5.89998H16.2C17.0549 5.89998 17.642 5.90068 18.0971 5.93786C18.5417 5.97419 18.7805 6.04079 18.9534 6.12886C19.3485 6.3302 19.6698 6.65146 19.8711 7.0466C19.9592 7.21944 20.0258 7.45827 20.0621 7.90287C20.0993 8.35798 20.1 8.94505 20.1 9.79998V11.2C20.1 12.0549 20.0993 12.642 20.0621 13.0971C20.0258 13.5417 19.9592 13.7805 19.8711 13.9534C19.6698 14.3485 19.3485 14.6698 18.9534 14.8711C18.8467 14.9254 18.7151 14.9714 18.5278 15.0071C18.0396 15.1001 17.7192 15.5714 17.8122 16.0596C17.9053 16.5479 18.3766 16.8683 18.8648 16.7752C19.1835 16.7145 19.4832 16.6213 19.7705 16.4749C20.5044 16.101 21.101 15.5044 21.4749 14.7705C21.7138 14.3017 21.8107 13.7996 21.8561 13.2437C21.9 12.7066 21.9 12.0457 21.9 11.2377V9.76227C21.9 8.95422 21.9 8.29337 21.8561 7.75629C21.8107 7.20038 21.7138 6.6983 21.4749 6.22941C21.101 5.49558 20.5044 4.89896 19.7705 4.52505C19.3017 4.28614 18.7996 4.18926 18.2437 4.14384C17.7066 4.09996 17.0457 4.09997 16.2377 4.09998Z" fill="#2688EB"/>
<path d="M13.0607 14.0606C12.4749 13.4748 11.5252 13.4748 10.9394 14.0606L6.70713 18.2929C6.07717 18.9228 6.52333 20 7.41424 20H16.5858C17.4767 20 17.9229 18.9228 17.2929 18.2929L13.0607 14.0606Z" fill="#2688EB"/>
</svg>
