<svg width="24" height="24" viewBox="0 0 24 24" fill="none" xmlns="http://www.w3.org/2000/svg">
<path d="M15.0001 8.5C14.503 8.5 14.1001 8.90294 14.1001 9.4C14.1001 9.89706 14.503 10.3 15.0001 10.3C15.5482 10.3 15.9624 10.4799 16.235 10.745C16.5037 11.0065 16.7001 11.4141 16.7001 12C16.7001 12.497 17.103 12.9 17.6001 12.9C18.0972 12.9 18.5001 12.497 18.5001 12C18.5001 10.9858 18.1465 10.0935 17.4902 9.45493C16.8378 8.82012 15.952 8.5 15.0001 8.5Z" fill="#2688EB"/>
<path fill-rule="evenodd" clip-rule="evenodd" d="M15.2508 1.78092L15.1213 2.67156C15.2508 1.78092 15.251 1.78096 15.2508 1.78092L15.2496 1.78076L15.2484 1.78057L15.2452 1.78013L15.237 1.77899L15.2124 1.77579C15.1925 1.7733 15.1657 1.77014 15.1327 1.76671C15.0668 1.75987 14.9754 1.75189 14.8642 1.74601C14.6432 1.73433 14.3359 1.73049 13.9894 1.76291C13.3294 1.82466 12.3662 2.03257 11.6565 2.74227C10.9468 3.45198 10.7389 4.41515 10.6771 5.07516C10.6699 5.15236 10.6645 5.2276 10.6605 5.30039C10.1309 5.16947 9.57589 5.1 9.0001 5.1C5.00304 5.1 2.1001 8.00292 2.1001 12C2.1001 13.9272 2.77693 16.3328 3.91117 18.2677C5.02116 20.1612 6.75598 21.9 9.0001 21.9C10.084 21.9 11.0941 21.6538 12.0002 21.2153C12.9066 21.6539 13.9162 21.9 15.0001 21.9C17.2442 21.9 18.979 20.1612 20.089 18.2677C21.2233 16.3328 21.9001 13.9272 21.9001 12C21.9001 8.24473 19.3378 5.45525 15.7131 5.13148C15.9113 4.65909 15.9946 4.18156 16.03 3.8035C16.0624 3.45698 16.0585 3.14964 16.0469 2.92871C16.041 2.81747 16.033 2.72608 16.0262 2.66014C16.0227 2.62712 16.0196 2.60033 16.0171 2.58047L16.0139 2.55589L16.0127 2.54762L16.0123 2.54452L16.0121 2.54322C16.0121 2.54295 16.0119 2.54211 15.1213 2.67156L16.0119 2.54211L15.9153 1.87752L15.2508 1.78092ZM12.9293 4.01506C13.1959 3.74846 13.6469 3.60281 14.157 3.55509C14.1867 3.55231 14.2161 3.54992 14.245 3.54787C14.243 3.5768 14.2406 3.60614 14.2378 3.63582C14.1901 4.14594 14.0444 4.59699 13.7778 4.86359C13.5112 5.1302 13.0602 5.27585 12.55 5.32357C12.5204 5.32635 12.491 5.32874 12.4621 5.33079C12.4641 5.30186 12.4665 5.27252 12.4693 5.24284C12.517 4.73271 12.6627 4.28167 12.9293 4.01506ZM3.9001 12C3.9001 8.99704 5.99715 6.9 9.0001 6.9C9.85244 6.9 10.6352 7.10348 11.3344 7.46415C11.7527 7.67994 12.2501 7.67968 12.6681 7.46377C13.3652 7.10367 14.1574 6.9 15.0001 6.9C18.003 6.9 20.1001 8.99704 20.1001 12C20.1001 13.5728 19.5269 15.6673 18.5362 17.3574C17.5212 19.0889 16.256 20.1 15.0001 20.1C14.1477 20.1 13.3655 19.8966 12.6664 19.5362C12.2485 19.3207 11.7516 19.3207 11.3338 19.5362C10.6353 19.8965 9.85249 20.1 9.0001 20.1C7.74422 20.1 6.47904 19.0889 5.46403 17.3574C4.47327 15.6673 3.9001 13.5728 3.9001 12Z" fill="#2688EB"/>
</svg>
