<svg width="24" height="24" viewBox="0 0 24 24" fill="none" xmlns="http://www.w3.org/2000/svg">
<path fill-rule="evenodd" clip-rule="evenodd" d="M9.09998 13.4C9.09998 12.9029 9.50292 12.5 9.99998 12.5H14C14.497 12.5 14.9 12.9029 14.9 13.4C14.9 13.897 14.497 14.3 14 14.3H9.99998C9.50292 14.3 9.09998 13.897 9.09998 13.4Z" fill="#2688EB"/>
<path fill-rule="evenodd" clip-rule="evenodd" d="M4.99998 3.1C3.39835 3.1 2.09998 4.39837 2.09998 6V8C2.09998 9.11349 3.02946 9.9 4.09998 9.9V18C4.09998 19.6016 5.39835 20.9 6.99998 20.9H17C18.6016 20.9 19.9 19.6016 19.9 18V9.9C20.9705 9.9 21.9 9.11349 21.9 8V6C21.9 4.39837 20.6016 3.1 19 3.1H4.99998ZM4.99998 4.9C4.39246 4.9 3.89998 5.39249 3.89998 6V8C3.89998 8.05523 3.94475 8.1 3.99998 8.1H20C20.0552 8.1 20.1 8.05523 20.1 8V6C20.1 5.39249 19.6075 4.9 19 4.9H4.99998ZM6.99998 19.1C6.39246 19.1 5.89998 18.6075 5.89998 18V9.9H18.1V18C18.1 18.6075 17.6075 19.1 17 19.1H6.99998Z" fill="#2688EB"/>
<path fill-rule="evenodd" clip-rule="evenodd" d="M9.99998 12.5C9.50292 12.5 9.09998 12.9029 9.09998 13.4C9.09998 13.897 9.50292 14.3 9.99998 14.3H14C14.497 14.3 14.9 13.897 14.9 13.4C14.9 12.9029 14.497 12.5 14 12.5H9.99998Z" fill="#2688EB"/>
</svg>
