<svg width="24" height="24" viewBox="0 0 24 24" fill="none" xmlns="http://www.w3.org/2000/svg">
<path fill-rule="evenodd" clip-rule="evenodd" d="M4.25 18.25C4.25 18.4822 4.25 18.5983 4.26283 18.6958C4.35145 19.3689 4.88111 19.8986 5.55421 19.9872C5.65169 20 5.76779 20 6 20C6.23221 20 6.34832 20 6.44579 19.9872C7.11889 19.8986 7.64855 19.3689 7.73717 18.6958C7.75 18.5983 7.75 18.4822 7.75 18.25V17.9H16.25V18.25C16.25 18.4822 16.25 18.5983 16.2628 18.6958C16.3514 19.3689 16.8811 19.8986 17.5542 19.9872C17.6517 20 17.7678 20 18 20C18.2322 20 18.3483 20 18.4458 19.9872C19.1189 19.8986 19.6486 19.3689 19.7372 18.6958C19.75 18.5983 19.75 18.4822 19.75 18.25V17.7869C19.9427 17.7423 20.1318 17.6781 20.3166 17.5839C20.8622 17.3059 21.3059 16.8622 21.5839 16.3166C21.7683 15.9546 21.838 15.576 21.8698 15.1869C21.9 14.8165 21.9 14.3653 21.9 13.8354L21.9 10.9576C21.9001 10.7678 21.9002 10.6028 21.8833 10.4533C21.7584 9.34413 20.9559 8.44604 19.8971 8.18007C19.8906 7.7245 19.8702 7.36739 19.8059 7.04406C19.4192 5.10028 17.8997 3.5808 15.956 3.19416C15.4811 3.09971 14.9334 3.09982 14.1081 3.09999H9.89196C9.06659 3.09982 8.51889 3.09971 8.04406 3.19416C6.10028 3.5808 4.5808 5.10028 4.19415 7.04406C4.12984 7.36739 4.10937 7.7245 4.10291 8.18006C3.04407 8.44603 2.24164 9.34412 2.11666 10.4533C2.09982 10.6028 2.0999 10.7679 2.09999 10.9576L2.1 11V13.8354C2.09999 14.3653 2.09997 14.8165 2.13024 15.1869C2.16203 15.576 2.23167 15.9546 2.41608 16.3166C2.69411 16.8622 3.13776 17.3059 3.68343 17.5839C3.86821 17.6781 4.05734 17.7423 4.25 17.7869V18.25ZM4.65483 9.90535C4.68961 9.90143 4.74332 9.9 5 9.9C5.25668 9.9 5.3104 9.90143 5.34517 9.90535C5.73925 9.94975 6.05026 10.2608 6.09466 10.6548C6.09858 10.6896 6.1 10.7433 6.1 11L6.09999 12.6137C6.09994 12.6701 6.09986 12.7575 6.1064 12.8375C6.11435 12.9348 6.1363 13.0973 6.22535 13.2721C6.3356 13.4885 6.51153 13.6644 6.72791 13.7747C6.90267 13.8637 7.06517 13.8857 7.16251 13.8936C7.24255 13.9001 7.32993 13.9001 7.38632 13.9H16.6137C16.6701 13.9001 16.7575 13.9001 16.8375 13.8936C16.9348 13.8857 17.0973 13.8637 17.2721 13.7747C17.4885 13.6644 17.6644 13.4885 17.7747 13.2721C17.8637 13.0973 17.8857 12.9348 17.8936 12.8375C17.9001 12.7575 17.9001 12.6701 17.9 12.6137L17.9 11C17.9 10.7433 17.9014 10.6896 17.9053 10.6548C17.9497 10.2608 18.2608 9.94975 18.6548 9.90535C18.6896 9.90143 18.7433 9.9 19 9.9C19.2567 9.9 19.3104 9.90143 19.3452 9.90535C19.7392 9.94975 20.0503 10.2608 20.0947 10.6548C20.0986 10.6896 20.1 10.7433 20.1 11V13.8C20.1 14.3749 20.0993 14.752 20.0757 15.0403C20.053 15.3182 20.0137 15.4335 19.9801 15.4994C19.8746 15.7064 19.7064 15.8747 19.4994 15.9801C19.4335 16.0137 19.3182 16.053 19.0403 16.0757C18.752 16.0993 18.3749 16.1 17.8 16.1H6.2C5.6251 16.1 5.24805 16.0993 4.95969 16.0757C4.68185 16.053 4.5665 16.0137 4.50061 15.9801C4.29363 15.8747 4.12536 15.7064 4.0199 15.4994C3.98632 15.4335 3.94696 15.3182 3.92426 15.0403C3.9007 14.752 3.9 14.3749 3.9 13.8V11C3.9 10.7433 3.90143 10.6896 3.90535 10.6548C3.94975 10.2608 4.26076 9.94975 4.65483 9.90535ZM18.0404 7.39522C17.7958 6.16548 16.8345 5.20418 15.6048 4.95957C15.3272 4.90436 14.9725 4.9 14 4.9H10C9.02755 4.9 8.67276 4.90436 8.39522 4.95957C7.16548 5.20418 6.20418 6.16548 5.95957 7.39522C5.92372 7.57547 5.90931 7.78829 5.90361 8.18171C6.95923 8.44972 7.75862 9.3464 7.88334 10.4533C7.90018 10.6028 7.9001 10.7679 7.90001 10.9576L7.9 12.1H16.1L16.1 10.9576C16.0999 10.7678 16.0998 10.6028 16.1167 10.4533C16.2414 9.3464 17.0408 8.44972 18.0964 8.18171C18.0907 7.78829 18.0763 7.57547 18.0404 7.39522Z" fill="#2688EB"/>
</svg>
