<svg width="24" height="24" viewBox="0 0 24 24" fill="none" xmlns="http://www.w3.org/2000/svg">
<path d="M11.0001 5.89995C11.0001 5.40289 11.403 4.99995 11.9001 4.99995L12.739 4.99996C13.826 4.99995 14.6968 4.99995 15.4006 5.05745C16.1232 5.1165 16.7488 5.24063 17.3246 5.53404C18.2466 6.00382 18.9962 6.75342 19.466 7.67542C19.7594 8.25126 19.8835 8.87682 19.9426 9.59948C20.0001 10.3033 20.0001 11.1739 20.0001 12.261V15.8241L21.4436 14.2844C21.7835 13.9218 22.3531 13.9034 22.7157 14.2434C23.0783 14.5833 23.0967 15.1529 22.7567 15.5155L19.7626 18.7093C19.7541 18.7184 19.7454 18.7275 19.7365 18.7364C19.6626 18.8104 19.5787 18.8689 19.4891 18.9118C19.2431 19.0298 18.9556 19.0289 18.7112 18.9118C18.6216 18.8689 18.5377 18.8104 18.4638 18.7365C18.4549 18.7275 18.4462 18.7185 18.4377 18.7093L15.4436 15.5155C15.1036 15.1529 15.122 14.5833 15.4846 14.2434C15.8472 13.9034 16.4168 13.9218 16.7567 14.2844L18.2001 15.824V12.3C18.2001 11.165 18.1994 10.3679 18.1486 9.74606C18.0986 9.13471 18.0047 8.7724 17.8622 8.4926C17.565 7.9093 17.0907 7.43506 16.5074 7.13785C16.2276 6.99528 15.8653 6.90142 15.254 6.85147C14.6321 6.80066 13.835 6.79996 12.7001 6.79996L11.9001 6.79995C11.403 6.79995 11.0001 6.39701 11.0001 5.89995Z" fill="#2688EB"/>
<path d="M1.24336 8.48441C0.903401 8.84703 0.921774 9.41658 1.28439 9.75654C1.64702 10.0965 2.21657 10.0781 2.55653 9.7155L4.00006 8.17573L4.00006 11.7389C4.00005 12.8259 4.00005 13.6966 4.05755 14.4004C4.11659 15.1231 4.24072 15.7486 4.53413 16.3245C5.00391 17.2465 5.75352 17.9961 6.67552 18.4658C7.25136 18.7592 7.87693 18.8834 8.59959 18.9424C9.30336 18.9999 10.174 18.9999 11.2611 18.9999L13.1001 18.9999C13.5971 18.9999 14.0001 18.5969 14.0001 18.0999C14.0001 17.6028 13.5971 17.1999 13.1001 17.1999L11.3001 17.1999C10.1651 17.1999 9.36803 17.1992 8.74617 17.1484C8.13481 17.0984 7.7725 17.0046 7.4927 16.862C6.90939 16.5648 6.43515 16.0906 6.13794 15.5073C5.99537 15.2275 5.90152 14.8652 5.85157 14.2538C5.80076 13.6319 5.80006 12.8349 5.80006 11.6999L5.80006 8.17599L7.24336 9.7155C7.58332 10.0781 8.15287 10.0965 8.51549 9.75654C8.87811 9.41658 8.89648 8.84703 8.55653 8.48441L5.56238 5.29066C5.55389 5.28145 5.54518 5.27238 5.53624 5.26345C5.46234 5.18949 5.37851 5.13098 5.28891 5.08808C4.95273 4.92691 4.5393 4.98765 4.26374 5.26335C4.25476 5.27231 4.24601 5.28142 4.23749 5.29067L1.24336 8.48441Z" fill="#2688EB"/>
</svg>
