<svg width="24" height="24" viewBox="0 0 24 24" fill="none" xmlns="http://www.w3.org/2000/svg">
<path d="M12.4681 4.25911C12.1437 4.579 12.1132 5.08447 12.3792 5.43913L12.4591 5.53187L17.95 11.1L3.9 11.1C3.40294 11.1 3 11.5029 3 12C3 12.4588 3.34334 12.8375 3.78711 12.893L3.9 12.9H17.95L12.4591 18.4681C12.1392 18.7926 12.116 19.2984 12.3869 19.6493L12.4681 19.7409C12.7926 20.0608 13.2985 20.084 13.6493 19.8131L13.7409 19.7319L20.7409 12.6319C21.0576 12.3107 21.084 11.8109 20.8201 11.4599L20.7409 11.3681L13.7409 4.26813C13.3919 3.91418 12.8221 3.91014 12.4681 4.25911Z" fill="#2688EB"/>
</svg>
