<svg width="24" height="24" viewBox="0 0 24 24" fill="none" xmlns="http://www.w3.org/2000/svg">
<path d="M12.3089 8.22133C12.6837 7.89488 13.2522 7.93408 13.5786 8.3089L16.2786 11.4089C16.5738 11.7477 16.5738 12.2523 16.2786 12.5911L13.5786 15.6911C13.2522 16.0659 12.6837 16.1051 12.3089 15.7787C11.9341 15.4522 11.8948 14.8837 12.2213 14.5089L13.622 12.9H8.39998C7.88647 12.9 7.53023 12.4871 7.49998 12C7.49998 11.5029 7.90292 11.1 8.39998 11.1H13.622L12.2213 9.49111C11.8828 9.10243 11.9633 8.56571 12.3089 8.22133Z" fill="#2688EB"/>
<path fill-rule="evenodd" clip-rule="evenodd" d="M4.99962 4.99965C6.79018 3.20909 9.26641 2.10001 12 2.10001C14.7335 2.10001 17.2098 3.20909 19.0003 4.99965C20.7909 6.79021 21.9 9.26644 21.9 12C21.9 14.7336 20.7909 17.2098 19.0003 19.0004C17.2098 20.7909 14.7335 21.9 12 21.9C9.26641 21.9 6.79018 20.7909 4.99962 19.0004C3.20906 17.2098 2.09998 14.7336 2.09998 12C2.09998 9.26645 3.20906 6.79021 4.99962 4.99965ZM12 3.90001C9.76297 3.90001 7.73921 4.80564 6.27241 6.27244C4.80561 7.73924 3.89998 9.763 3.89998 12C3.89998 14.237 4.80561 16.2608 6.27241 17.7276C7.73921 19.1944 9.76297 20.1 12 20.1C14.237 20.1 16.2607 19.1944 17.7275 17.7276C19.1943 16.2608 20.1 14.237 20.1 12C20.1 9.763 19.1943 7.73924 17.7275 6.27244C16.2607 4.80564 14.237 3.90001 12 3.90001Z" fill="#2688EB"/>
</svg>
