<svg width="24" height="24" viewBox="0 0 24 24" fill="none" xmlns="http://www.w3.org/2000/svg">
<path fill-rule="evenodd" clip-rule="evenodd" d="M4.99962 4.99962C6.79018 3.20906 9.26641 2.09998 12 2.09998C14.7335 2.09998 17.2098 3.20906 19.0003 4.99962C20.7909 6.79018 21.9 9.26641 21.9 12C21.9 14.7335 20.7909 17.2098 19.0003 19.0003C17.2098 20.7909 14.7335 21.9 12 21.9C9.26641 21.9 6.79018 20.7909 4.99962 19.0003C3.20906 17.2098 2.09998 14.7335 2.09998 12C2.09998 9.26641 3.20906 6.79018 4.99962 4.99962ZM12.8997 20C12.8997 17.8665 12.149 15.9083 10.8973 14.3752L12.4997 12.7728L17.5894 17.8624C16.339 19.055 14.7095 19.8508 12.8996 20.0506L12.8997 20ZM11.0997 20C11.0997 18.3638 10.5463 16.8568 9.61634 15.6562L6.94389 18.3286C8.10947 19.2612 9.5373 19.8779 11.0996 20.0505L11.0997 20ZM3.99974 12.9C5.63595 12.9 7.14288 13.4534 8.34354 14.3834L5.67112 17.0558C4.73856 15.8902 4.12196 14.4624 3.94938 12.9001L3.99974 12.9ZM12.4997 10.2272L14.1022 8.62476C13.0289 7.31028 12.324 5.6833 12.1448 3.90124C12.0966 3.9004 12.0484 3.89998 12 3.89998C10.3439 3.89998 8.80468 4.39632 7.5218 5.24925L12.4997 10.2272ZM17.0558 5.67112L15.3831 7.34378C14.6751 6.42956 14.1852 5.33776 13.9918 4.14653C15.1277 4.43361 16.1678 4.96068 17.0558 5.67112ZM19.8534 10.0079C18.6621 9.81452 17.5702 9.32469 16.6559 8.61657L18.3286 6.94389C19.0391 7.83186 19.5662 8.87204 19.8534 10.0079ZM13.7725 11.5L15.375 9.89756C16.6895 10.9708 18.3166 11.6758 20.0987 11.8549C20.0996 11.9032 20.1 11.9515 20.1 12C20.1 13.6561 19.6036 15.1953 18.7507 16.4781L13.7725 11.5ZM9.62453 13.1024L11.2269 11.5L6.13751 6.41054C4.94496 7.66089 4.1492 9.29031 3.94934 11.1001L3.99974 11.1C6.13326 11.1 8.09144 11.8507 9.62453 13.1024Z" fill="#2688EB"/>
</svg>
