<svg width="24" height="24" viewBox="0 0 24 24" fill="none" xmlns="http://www.w3.org/2000/svg">
<path fill-rule="evenodd" clip-rule="evenodd" d="M11.7282 4.83583C11.9111 4.78797 12.1032 4.78806 12.2861 4.83609C12.4521 4.87968 12.6322 4.99425 13.3822 5.55445L19.5552 10.1648C19.9534 10.4622 20.5174 10.3805 20.8148 9.98224C21.1122 9.58399 21.0305 9.02004 20.6323 8.7226L14.4593 4.11228L14.3445 4.0264C13.7737 3.59887 13.2942 3.23984 12.7434 3.09515C12.2613 2.96851 11.7547 2.96828 11.2725 3.09447C10.7215 3.23865 10.2417 3.59724 9.67045 4.02424L9.55559 4.11001L3.36834 8.7221C2.96982 9.01917 2.88758 9.58305 3.18464 9.98157C3.48171 10.3801 4.04559 10.4623 4.44411 10.1653L10.6314 5.55318C11.3819 4.99367 11.5622 4.87927 11.7282 4.83583ZM12.9 10.8906C12.9 10.3935 12.497 9.99059 12 9.99059C11.5029 9.99059 11.1 10.3935 11.1 10.8906V19.1004H8.89998V10.8929C8.89998 10.3959 8.49703 9.99291 7.99998 9.99291C7.50292 9.99291 7.09998 10.3959 7.09998 10.8929V19.1004H3.90232C3.40526 19.1004 3.00232 19.5033 3.00232 20.0004C3.00232 20.4974 3.40526 20.9004 3.90232 20.9004H20.0976C20.5947 20.9004 20.9976 20.4974 20.9976 20.0004C20.9976 19.5033 20.5947 19.1004 20.0976 19.1004H16.9V10.8929C16.9 10.3959 16.497 9.99291 16 9.99291C15.5029 9.99291 15.1 10.3959 15.1 10.8929V19.1004H12.9V10.8906Z" fill="#3F8AE0"/>
</svg>
