<svg width="24" height="24" viewBox="0 0 24 24" fill="none" xmlns="http://www.w3.org/2000/svg">
<path fill-rule="evenodd" clip-rule="evenodd" d="M16.9 15.933C19.7867 15.4987 22 13.0078 22 10C22 6.68629 19.3137 4 16 4C12.6863 4 9.99998 6.68629 9.99998 10C9.99998 13.0078 12.2132 15.4987 15.1 15.933V19.1H12.9C12.4029 19.1 12 19.5029 12 20C12 20.4971 12.4029 20.9 12.9 20.9H19.1C19.597 20.9 20 20.4971 20 20C20 19.5029 19.597 19.1 19.1 19.1H16.9V15.933ZM20.2 10C20.2 12.3196 18.3196 14.2 16 14.2C13.6804 14.2 11.8 12.3196 11.8 10C11.8 7.6804 13.6804 5.8 16 5.8C18.3196 5.8 20.2 7.6804 20.2 10Z" fill="#2688EB"/>
<path fill-rule="evenodd" clip-rule="evenodd" d="M7.52621 4.26988C7.76091 4.43904 7.89998 4.7107 7.89998 5V10.1H8.14998C8.56419 10.1 8.89998 10.4358 8.89998 10.85V17.5C8.89998 19.3778 7.37774 20.9 5.49998 20.9C3.62221 20.9 2.09998 19.3778 2.09998 17.5V10.85C2.09998 10.4358 2.43576 10.1 2.84998 10.1H3.09998V6C3.09998 5.61261 3.34786 5.26869 3.71537 5.14619L6.71537 4.14619C6.98982 4.0547 7.29152 4.10073 7.52621 4.26988ZM6.09998 6.24868V10.1H4.89998V6.64868L6.09998 6.24868ZM3.89998 11.9H7.09998V17.5C7.09998 18.3837 6.38363 19.1 5.49998 19.1C4.61632 19.1 3.89998 18.3837 3.89998 17.5V11.9Z" fill="#2688EB"/>
</svg>
