<svg width="24" height="24" viewBox="0 0 24 24" fill="none" xmlns="http://www.w3.org/2000/svg">
<path fill-rule="evenodd" clip-rule="evenodd" d="M8.30127 3.89999H8.29999C8.17527 3.89999 7.95131 3.95576 7.61994 4.14441C7.30075 4.32613 6.95097 4.59132 6.59375 4.90794C5.9485 5.47983 5.34786 6.1574 4.94656 6.64079L6.66402 8.41093C6.67514 8.42239 6.6865 8.43404 6.69804 8.44589C6.82837 8.57962 6.98261 8.73788 7.09763 8.92947C7.19764 9.09608 7.2715 9.27704 7.31663 9.46604C7.36854 9.68339 7.3691 9.90437 7.36957 10.0911C7.36961 10.1077 7.36965 10.1239 7.36973 10.1399L7.3925 14.9239C7.39546 15.5475 7.40195 15.6999 7.41875 15.7744C7.44457 15.8888 7.45119 15.9056 7.45201 15.9077C7.45252 15.909 7.4575 15.9238 7.51535 16.027C7.51542 16.027 7.5257 16.0436 7.55559 16.0828C7.58983 16.1278 7.63882 16.188 7.70844 16.2699C7.84892 16.435 8.04546 16.6554 8.32205 16.9655C9.0346 17.7642 9.73108 18.7338 10.2163 19.4474C10.5268 19.9041 10.5785 19.963 10.6096 19.9883C10.6668 20.0347 10.7101 20.0576 10.7806 20.0788C10.8201 20.0907 10.8878 20.1 11.4067 20.1H12.5933C13.1123 20.1 13.1799 20.0907 13.2194 20.0788C13.2899 20.0576 13.3332 20.0347 13.3904 19.9883C13.4215 19.963 13.4732 19.9041 13.7837 19.4474C14.2675 18.7359 14.9612 17.77 15.6715 16.9727C15.9491 16.661 16.1464 16.4395 16.2874 16.2735C16.3572 16.1912 16.4064 16.1306 16.4407 16.0854C16.4707 16.046 16.481 16.0293 16.4811 16.0293C16.539 15.9256 16.5439 15.9107 16.5445 15.9093C16.545 15.9078 16.5513 15.8932 16.5775 15.775C16.5942 15.7001 16.6 15.5466 16.6 14.9191V10.1543C16.6 10.1381 16.6 10.1216 16.5999 10.1048C16.5995 9.91522 16.599 9.69093 16.6513 9.47038C16.6968 9.27862 16.7718 9.09511 16.8737 8.92642C16.991 8.73241 17.1485 8.57275 17.2816 8.43782C17.2934 8.42587 17.305 8.4141 17.3164 8.40253L19.0503 6.63705C18.6486 6.15335 18.0485 5.47691 17.4042 4.90615C17.0473 4.58999 16.6979 4.32527 16.3791 4.1439C16.0482 3.95563 15.8246 3.89999 15.7 3.89999H15.6959C15.6957 3.90032 15.6954 3.90066 15.6951 3.90099C15.1958 4.4954 13.9282 5.74614 12 5.74614C10.0636 5.74614 8.80322 4.50184 8.30327 3.90238C8.3026 3.90158 8.30193 3.90078 8.30127 3.89999ZM8.37187 2.09982C8.47521 2.09902 8.67699 2.09746 8.86011 2.1467C9.02212 2.19026 9.15259 2.25134 9.28982 2.34786C9.40027 2.42555 9.48188 2.51336 9.52768 2.56423C9.57434 2.61606 9.62716 2.6794 9.6777 2.74002L9.68562 2.74951C10.0698 3.21011 10.8712 3.94614 12 3.94614C13.1184 3.94614 13.9273 3.207 14.3168 2.74326L14.3247 2.7339C14.3748 2.67418 14.4274 2.61153 14.474 2.56022C14.5199 2.50959 14.6012 2.42283 14.7111 2.34593C14.8479 2.25024 14.9782 2.1895 15.1394 2.14632C15.3218 2.09748 15.5224 2.09903 15.6251 2.09982C15.6364 2.09991 15.6465 2.09999 15.6553 2.09999H15.7C16.2717 2.09999 16.8153 2.32113 17.2692 2.57938C17.7353 2.84453 18.1883 3.19605 18.5978 3.55879C19.4174 4.2848 20.1472 5.13199 20.5679 5.64858C20.5751 5.65743 20.5837 5.66765 20.5933 5.67918C20.6877 5.79212 20.8871 6.03062 20.9637 6.3363C21.0274 6.59039 21.0146 6.86555 20.9276 7.11264C20.8623 7.29827 20.7638 7.435 20.6838 7.53088C20.6176 7.6102 20.5373 7.69194 20.4735 7.75684L18.6006 9.6638C18.5105 9.75551 18.4636 9.80355 18.4304 9.84055C18.4206 9.85154 18.4146 9.85867 18.4114 9.86263C18.4085 9.86814 18.4061 9.87391 18.4043 9.87986C18.4038 9.88495 18.4031 9.89423 18.4024 9.90897C18.4002 9.95863 18.4 10.0258 18.4 10.1543V14.9191C18.4 14.9556 18.4 14.9916 18.4 15.0271C18.4004 15.4883 18.4007 15.8677 18.3348 16.1649C18.3085 16.2836 18.2786 16.4133 18.2266 16.5499C18.1746 16.6864 18.1107 16.803 18.0513 16.9093C17.9536 17.0842 17.8053 17.2668 17.6594 17.4386C17.5029 17.6229 17.2912 17.8605 17.0239 18.1607L17.0155 18.17C16.3831 18.8799 15.741 19.7701 15.2723 20.4595C15.2541 20.4861 15.2361 20.5128 15.2181 20.5393C15.0009 20.8601 14.7911 21.1698 14.5244 21.3861C14.2852 21.5802 14.0327 21.7138 13.7377 21.8026C13.4092 21.9014 13.0497 21.9007 12.6821 21.9001C12.6526 21.9 12.6229 21.9 12.5933 21.9H11.4067C11.3771 21.9 11.3474 21.9 11.3179 21.9001C10.9503 21.9007 10.5908 21.9014 10.2623 21.8026C9.9673 21.7139 9.7148 21.5802 9.47558 21.3861C9.20894 21.1698 8.99914 20.8601 8.78191 20.5394C8.76392 20.5128 8.74587 20.4862 8.72774 20.4595C8.2576 19.768 7.613 18.8746 6.97885 18.1637L6.97042 18.1543C6.70412 17.8558 6.49332 17.6195 6.33739 17.4362C6.19209 17.2654 6.04431 17.0838 5.94681 16.91C5.88764 16.8046 5.82376 16.6887 5.77167 16.553C5.71958 16.4173 5.68948 16.2885 5.66287 16.1705C5.59626 15.8752 5.59477 15.4981 5.59297 15.0397C5.59283 15.0045 5.59269 14.9687 5.59252 14.9325L5.56975 10.1485C5.56915 10.0219 5.56863 9.95576 5.56621 9.90689C5.5655 9.89239 5.56475 9.88326 5.56427 9.87825C5.56248 9.87237 5.56015 9.86668 5.55732 9.86123C5.55416 9.85731 5.5483 9.85027 5.53867 9.8394C5.50619 9.8028 5.46032 9.75522 5.37215 9.66435L3.53042 7.76614C3.5262 7.76179 3.52188 7.75734 3.51748 7.75282C3.45444 7.6879 3.37497 7.60607 3.30954 7.52671C3.23042 7.43076 3.13326 7.29415 3.06902 7.10916C2.98347 6.86279 2.97154 6.58883 3.03536 6.33596C3.11213 6.03179 3.31045 5.79443 3.40437 5.68202C3.41396 5.67055 3.42246 5.66037 3.42963 5.65156C3.84964 5.13566 4.5797 4.28778 5.39983 3.56088C5.80958 3.19771 6.26296 2.84569 6.72939 2.58014C7.18365 2.32153 7.7278 2.09999 8.29999 2.09999H8.34134C8.35021 2.09999 8.36044 2.09991 8.37187 2.09982Z" fill="#2688EB"/>
</svg>
