<svg width="24" height="24" viewBox="0 0 24 24" fill="none" xmlns="http://www.w3.org/2000/svg">
<path fill-rule="evenodd" clip-rule="evenodd" d="M8.99997 4.89998H8.79998C7.94505 4.89998 7.35798 4.90068 6.90287 4.93786C6.45827 4.97418 6.21944 5.04079 6.0466 5.12886C5.65146 5.3302 5.3302 5.65146 5.12886 6.0466C5.04079 6.21944 4.97419 6.45827 4.93786 6.90287C4.90068 7.35798 4.89998 7.94505 4.89998 8.79998V15.2C4.89998 16.0549 4.90068 16.642 4.93786 17.0971C4.97419 17.5417 5.04079 17.7805 5.12886 17.9534C5.3302 18.3485 5.65146 18.6698 6.0466 18.8711C6.21944 18.9592 6.45827 19.0258 6.90287 19.0621C7.35798 19.0993 7.94505 19.1 8.79998 19.1H15.2C16.0549 19.1 16.642 19.0993 17.0971 19.0621C17.5417 19.0258 17.7805 18.9592 17.9534 18.8711C18.3485 18.6698 18.6698 18.3485 18.8711 17.9534C18.9592 17.7805 19.0258 17.5417 19.0621 17.0971C19.0993 16.642 19.1 16.0549 19.1 15.2V8.79998C19.1 7.94505 19.0993 7.35798 19.0621 6.90287C19.0258 6.45827 18.9592 6.21944 18.8711 6.0466C18.6698 5.65146 18.3485 5.3302 17.9534 5.12886C17.7805 5.04079 17.5417 4.97418 17.0971 4.93786C16.642 4.90068 16.0549 4.89998 15.2 4.89998H15H8.99997ZM14.9907 3.09998H15.2L15.2377 3.09998C16.0457 3.09997 16.7066 3.09996 17.2437 3.14384C17.7996 3.18926 18.3017 3.28614 18.7705 3.52505C19.5044 3.89896 20.101 4.49558 20.4749 5.22941C20.7138 5.6983 20.8107 6.20038 20.8561 6.75629C20.9 7.29337 20.9 7.95422 20.9 8.76227V8.79998V15.2V15.2377C20.9 16.0457 20.9 16.7066 20.8561 17.2437C20.8107 17.7996 20.7138 18.3017 20.4749 18.7705C20.101 19.5044 19.5044 20.101 18.7705 20.4749C18.3017 20.7138 17.7996 20.8107 17.2437 20.8561C16.7066 20.9 16.0457 20.9 15.2377 20.9H15.2H8.79998H8.76227C7.95422 20.9 7.29337 20.9 6.75629 20.8561C6.20038 20.8107 5.6983 20.7138 5.22941 20.4749C4.49558 20.101 3.89896 19.5044 3.52505 18.7705C3.28614 18.3017 3.18926 17.7996 3.14384 17.2437C3.09996 16.7066 3.09997 16.0458 3.09998 15.2377V15.2V8.79998V8.76227C3.09997 7.95425 3.09996 7.29336 3.14384 6.75629C3.18926 6.20038 3.28614 5.6983 3.52505 5.22941C3.89896 4.49558 4.49558 3.89896 5.22941 3.52505C5.6983 3.28614 6.20038 3.18926 6.75629 3.14384C7.29337 3.09996 7.95422 3.09997 8.76228 3.09998L8.79998 3.09998H9.00922C9.02407 2.752 9.06274 2.51669 9.16346 2.31901C9.30727 2.03677 9.53674 1.8073 9.81898 1.66349C10.1399 1.5 10.5599 1.5 11.4 1.5H12.6C13.44 1.5 13.8601 1.5 14.181 1.66349C14.4632 1.8073 14.6927 2.03677 14.8365 2.31901C14.9372 2.51669 14.9759 2.752 14.9907 3.09998ZM11 7.09998C10.5029 7.09998 10.1 7.50292 10.1 7.99998C10.1 8.49703 10.5029 8.89998 11 8.89998H16C16.497 8.89998 16.9 8.49703 16.9 7.99998C16.9 7.50292 16.497 7.09998 16 7.09998H11ZM10.1 12C10.1 11.5029 10.5029 11.1 11 11.1H16C16.497 11.1 16.9 11.5029 16.9 12C16.9 12.497 16.497 12.9 16 12.9H11C10.5029 12.9 10.1 12.497 10.1 12ZM11 15.1C10.5029 15.1 10.1 15.5029 10.1 16C10.1 16.497 10.5029 16.9 11 16.9H14C14.497 16.9 14.9 16.497 14.9 16C14.9 15.5029 14.497 15.1 14 15.1H11ZM6.99998 7.99995C6.99998 7.5029 7.40292 7.09995 7.89998 7.09995C8.39703 7.09995 8.79998 7.5029 8.79998 7.99995C8.79998 8.49701 8.39703 8.89995 7.89998 8.89995C7.40292 8.89995 6.99998 8.49701 6.99998 7.99995ZM7.89998 11.1C7.40292 11.1 6.99998 11.5029 6.99998 12C6.99998 12.497 7.40292 12.9 7.89998 12.9C8.39703 12.9 8.79998 12.497 8.79998 12C8.79998 11.5029 8.39703 11.1 7.89998 11.1ZM6.99998 16C6.99998 15.5029 7.40292 15.1 7.89998 15.1C8.39703 15.1 8.79998 15.5029 8.79998 16C8.79998 16.497 8.39703 16.9 7.89998 16.9C7.40292 16.9 6.99998 16.497 6.99998 16Z" fill="#2688EB"/>
</svg>
