<svg width="24" height="24" viewBox="0 0 24 24" fill="none" xmlns="http://www.w3.org/2000/svg">
<path fill-rule="evenodd" clip-rule="evenodd" d="M2.09998 12C2.09998 6.53239 6.53236 2.10001 12 2.10001C17.4676 2.10001 21.9 6.53239 21.9 12C21.9 17.4676 17.4676 21.9 12 21.9C6.53236 21.9 2.09998 17.4676 2.09998 12ZM12 3.90001C16.4735 3.90001 20.1 7.5265 20.1 12C20.1 13.9125 19.4372 15.6702 18.3287 17.0559L6.94406 5.6713C8.32976 4.56283 10.0875 3.90001 12 3.90001ZM3.89998 12C3.89998 16.4735 7.52647 20.1 12 20.1C13.9125 20.1 15.6702 19.4372 17.0559 18.3287L5.67127 6.94409C4.5628 8.32979 3.89998 10.0875 3.89998 12Z" fill="#2688EB"/>
</svg>
