<svg width="24" height="24" viewBox="0 0 24 24" fill="none" xmlns="http://www.w3.org/2000/svg">
<path d="M10.5 5C12.5136 5 14.3637 5.70017 15.82 6.87033L16.4184 6.27136C16.7802 5.90954 17.3668 5.90954 17.7286 6.27136C18.0626 6.60535 18.0883 7.13089 17.8057 7.49434L17.7286 7.58162L17.1297 8.17998C18.2998 9.63634 19 11.4864 19 13.5C19 18.1944 15.1944 22 10.5 22C5.80558 22 2 18.1944 2 13.5C2 8.80558 5.80558 5 10.5 5ZM10.5 6.8C6.79969 6.8 3.8 9.79969 3.8 13.5C3.8 17.2003 6.79969 20.2 10.5 20.2C14.2003 20.2 17.2 17.2003 17.2 13.5C17.2 9.79969 14.2003 6.8 10.5 6.8ZM20.6889 6.21744L20.7994 6.24634L22.3785 6.76384C22.8552 6.92007 23.1123 7.42499 22.9527 7.89162C22.8054 8.32236 22.3545 8.5699 21.9111 8.48256L21.8006 8.45366L20.2215 7.93616C19.7448 7.77993 19.4877 7.27501 19.6473 6.80838C19.7946 6.37764 20.2455 6.1301 20.6889 6.21744ZM17.2227 1.50239L17.2655 1.60571L17.7529 3.03122C17.9117 3.49576 17.6558 3.9984 17.1813 4.15389C16.7433 4.29742 16.2721 4.09498 16.0773 3.69761L16.0345 3.59429L15.5471 2.16878C15.3883 1.70424 15.6442 1.2016 16.1187 1.04611C16.5567 0.902579 17.0279 1.10502 17.2227 1.50239ZM21.7364 2.2636C22.0608 2.58804 22.0858 3.09855 21.8113 3.45161L21.7364 3.5364L20.5364 4.7364C20.1849 5.08787 19.6151 5.08787 19.2636 4.7364C18.9392 4.41196 18.9142 3.90145 19.1887 3.54839L19.2636 3.4636L20.4636 2.2636C20.8151 1.91213 21.3849 1.91213 21.7364 2.2636Z" fill="#2688EB"/>
</svg>
