<svg width="24" height="24" viewBox="0 0 24 24" fill="none" xmlns="http://www.w3.org/2000/svg">
<path fill-rule="evenodd" clip-rule="evenodd" d="M17.4 3.90001H9.79998C8.94505 3.90001 8.35798 3.90071 7.90287 3.93789C7.45827 3.97422 7.21944 4.04083 7.0466 4.1289C6.65146 4.33023 6.3302 4.65149 6.12886 5.04663C6.04079 5.21948 5.97418 5.45831 5.93786 5.9029C5.90068 6.35801 5.89998 6.94508 5.89998 7.80001V16.3159C6.23919 16.1767 6.61062 16.1 6.99998 16.1H18.1V4.60001C18.1 4.00003 18 3.90001 17.4 3.90001ZM4.09998 7.76231C4.09997 6.95426 4.09996 6.29341 4.14384 5.75633C4.18926 5.20041 4.28614 4.69834 4.52505 4.22945C4.89896 3.49562 5.49558 2.89899 6.22941 2.52508C6.6983 2.28617 7.20038 2.18929 7.75629 2.14387C8.29337 2.09999 8.95422 2.1 9.76227 2.10001L17.4297 2.10001C17.6841 2.09998 17.9261 2.09996 18.1301 2.11662C18.3525 2.13479 18.6076 2.17718 18.8626 2.3071C19.2201 2.48926 19.5107 2.77992 19.6929 3.13743C19.8228 3.3924 19.8652 3.64751 19.8834 3.86992C19.9 4.07388 19.9 4.31593 19.9 4.57025L19.9 16.46C19.9 16.9641 19.9 17.2161 19.8019 17.4086C19.7156 17.5779 19.5779 17.7156 19.4086 17.8019C19.216 17.9 18.964 17.9 18.46 17.9H18.155C18.0786 18.2215 18.042 18.4107 18.0235 18.5989C17.9973 18.8657 17.9973 19.1344 18.0235 19.4011C18.042 19.5893 18.0786 19.7785 18.155 20.1H19C19.497 20.1 19.9 20.503 19.9 21C19.9 21.4971 19.497 21.9 19 21.9H6.99998C5.39835 21.9 4.09998 20.6016 4.09998 19C4.09998 15.2543 4.09998 11.5082 4.09998 7.76231ZM16.3118 20.1C16.2756 19.9173 16.249 19.7481 16.2322 19.5772C16.1944 19.1933 16.1944 18.8067 16.2322 18.4228C16.249 18.2519 16.2756 18.0827 16.3118 17.9H6.99998C6.39246 17.9 5.89998 18.3925 5.89998 19C5.89998 19.6075 6.39246 20.1 6.99998 20.1H16.3118Z" fill="#2688EB"/>
</svg>
