<svg width="24" height="24" viewBox="0 0 24 24" fill="none" xmlns="http://www.w3.org/2000/svg">
<path fill-rule="evenodd" clip-rule="evenodd" d="M11.0834 3H12.9166C13.9727 2.99999 14.82 2.99999 15.5053 3.05597C16.2094 3.1135 16.8213 3.23461 17.3852 3.52196C18.2863 3.98109 19.0189 4.71369 19.478 5.61478C19.7654 6.17874 19.8865 6.79058 19.944 7.49472C20 8.17997 20 9.02733 20 10.0834V17.698C20 18.4706 20 19.1124 19.9546 19.6116C19.9096 20.1057 19.8096 20.6384 19.473 21.0655C19.0145 21.6472 18.3178 21.9909 17.5771 22.0008C17.0334 22.008 16.5498 21.7632 16.1303 21.4982C15.7065 21.2305 15.1972 20.84 14.5841 20.3698L12.9669 19.1297C12.3596 18.664 12.2533 18.6035 12.1696 18.5811C12.0585 18.5514 11.9415 18.5514 11.8304 18.5811C11.7467 18.6035 11.6405 18.664 11.0331 19.1297L9.4159 20.3698C8.80277 20.84 8.29349 21.2305 7.86966 21.4982C7.45017 21.7632 6.96656 22.008 6.42287 22.0008C5.6822 21.9909 4.98555 21.6472 4.52702 21.0655C4.19044 20.6384 4.09045 20.1057 4.04545 19.6116C3.99997 19.1124 3.99998 18.4706 4 17.698L4 10.0834C3.99999 9.02734 3.99999 8.17997 4.05597 7.49472C4.1135 6.79058 4.23461 6.17874 4.52196 5.61478C4.98109 4.71369 5.71369 3.98109 6.61478 3.52196C7.17874 3.23461 7.79058 3.1135 8.49472 3.05597C9.17997 2.99999 10.0273 2.99999 11.0834 3ZM8.6413 4.84999C8.04848 4.89843 7.69988 4.98926 7.43196 5.12577C6.86957 5.41232 6.41233 5.86957 6.12577 6.43196C5.98926 6.69988 5.89843 7.04847 5.85 7.6413C5.8007 8.24463 5.8 9.01838 5.8 10.1222V17.6536C5.8 18.4819 5.8009 19.0407 5.83802 19.4483C5.87573 19.8623 5.94078 19.9513 5.94078 19.9513C6.06319 20.1067 6.2491 20.1983 6.44683 20.2009C6.44683 20.2009 6.55697 20.1983 6.90843 19.9764C7.25443 19.7578 7.69842 19.4185 8.35575 18.9144L9.93783 17.7013C9.97162 17.6754 10.0052 17.6495 10.0386 17.6238C10.4771 17.2861 10.8874 16.9702 11.3648 16.8424C11.7809 16.7309 12.2191 16.7309 12.6352 16.8424C13.1126 16.9702 13.5229 17.2861 13.9614 17.6238C13.9948 17.6495 14.0284 17.6754 14.0622 17.7013L15.6443 18.9144C16.3016 19.4185 16.7456 19.7578 17.0916 19.9764C17.443 20.1983 17.5533 20.2009 17.5533 20.2009C17.751 20.1983 17.9369 20.1066 18.0593 19.9512C18.0593 19.9512 18.1243 19.8623 18.162 19.4483C18.1991 19.0407 18.2 18.4819 18.2 17.6536V10.1222C18.2 9.01838 18.1993 8.24463 18.15 7.6413C18.1016 7.04847 18.0107 6.69988 17.8742 6.43196C17.5877 5.86957 17.1304 5.41232 16.568 5.12577C16.3001 4.98926 15.9515 4.89843 15.3587 4.84999C14.7554 4.8007 13.9816 4.8 12.8778 4.8H11.1222C10.0184 4.8 9.24463 4.8007 8.6413 4.84999Z" fill="#2688EB"/>
</svg>
