<svg width="24" height="24" viewBox="0 0 24 24" fill="none" xmlns="http://www.w3.org/2000/svg">
<path fill-rule="evenodd" clip-rule="evenodd" d="M5.62596 2.7319C5.97744 2.38042 6.54728 2.38042 6.89876 2.7319L13.2162 9.04937C13.2327 9.06579 13.2483 9.08269 13.2632 9.10001H19.6666C19.6885 9.10001 19.7107 9.09996 19.7332 9.0999C19.9709 9.09928 20.2447 9.09856 20.4917 9.16475C21.1474 9.34044 21.6595 9.85258 21.8352 10.5083C21.9014 10.7553 21.9007 11.0291 21.9001 11.2668C21.9 11.2893 21.9 11.3115 21.9 11.3333C21.9 11.3855 21.9 11.4369 21.9 11.4876C21.9002 12.8896 21.9004 13.7751 21.6989 14.527C21.1872 16.437 19.756 17.9548 17.9 18.5858V19.02C17.9 19.0489 17.9 19.0777 17.9 19.1064C17.9005 19.4646 17.901 19.7992 17.8246 20.0969C17.6069 20.9448 16.9447 21.6069 16.0968 21.8246C15.7992 21.901 15.4645 21.9006 15.1063 21.9001C15.0777 21.9001 15.0489 21.9 15.02 21.9H8.97997C8.95104 21.9 8.92225 21.9001 8.89362 21.9001C8.53544 21.9006 8.20074 21.901 7.90311 21.8246C7.0552 21.6069 6.39308 20.9448 6.17537 20.0969C6.09895 19.7992 6.09941 19.4645 6.09989 19.1064C6.09993 19.0777 6.09997 19.0489 6.09997 19.02V18.5858C4.24394 17.9548 2.81278 16.437 2.30101 14.527C2.09953 13.7751 2.09969 12.8896 2.09995 11.4876C2.09996 11.4369 2.09997 11.3855 2.09997 11.3333C2.09997 11.3115 2.09991 11.2893 2.09985 11.2668C2.09923 11.0291 2.09852 10.7553 2.16471 10.5083C2.3404 9.85258 2.85254 9.34044 3.50821 9.16475C3.75525 9.09856 4.02908 9.09928 4.26672 9.0999C4.28926 9.09996 4.31147 9.10001 4.3333 9.10001H6.47865L3.50464 6.12601C3.15317 5.77454 3.15317 5.20469 3.50464 4.85322C3.85612 4.50174 4.42596 4.50174 4.77744 4.85322L9.02423 9.10001H10.7213L5.62596 4.00469C5.27449 3.65322 5.27449 3.08337 5.62596 2.7319ZM9.66664 17.1H14.3333C15.9412 17.1 16.5686 17.0923 17.0611 16.9603C18.476 16.5812 19.5811 15.476 19.9603 14.0612C20.0922 13.5686 20.1 12.9412 20.1 11.3333C20.1 11.1702 20.0998 11.0779 20.0966 11.0097C20.0956 10.9871 20.0944 10.9729 20.0937 10.965C20.0835 10.9379 20.0621 10.9165 20.0349 10.9063C20.0271 10.9055 20.0128 10.9044 19.9903 10.9033C19.9221 10.9002 19.8298 10.9 19.6666 10.9H4.3333C4.17015 10.9 4.07781 10.9002 4.00967 10.9033C3.9871 10.9044 3.97284 10.9055 3.965 10.9063C3.93785 10.9165 3.91641 10.9379 3.90628 10.965C3.9055 10.9729 3.90432 10.9871 3.9033 11.0097C3.90019 11.0779 3.89997 11.1702 3.89997 11.3333C3.89997 12.9412 3.9077 13.5686 4.03967 14.0612C4.41879 15.476 5.52393 16.5812 6.93881 16.9603C7.43134 17.0923 8.05874 17.1 9.66664 17.1ZM7.89997 18.9V19.02C7.89997 19.5219 7.9071 19.6036 7.91882 19.6492C7.97325 19.8612 8.13878 20.0267 8.35076 20.0812C8.39641 20.0929 8.47809 20.1 8.97997 20.1H15.02C15.5219 20.1 15.6035 20.0929 15.6492 20.0812C15.8612 20.0267 16.0267 19.8612 16.0811 19.6492C16.0928 19.6036 16.1 19.5219 16.1 19.02V18.9H14.7788C14.6843 18.9001 14.5872 18.9001 14.4876 18.9C14.4368 18.9 14.3854 18.9 14.3333 18.9H9.66664C9.61452 18.9 9.5631 18.9 9.51236 18.9C9.41271 18.9001 9.31568 18.9001 9.22112 18.9H7.89997Z" fill="#2688EB"/>
</svg>
