<svg width="24" height="24" viewBox="0 0 24 24" fill="none" xmlns="http://www.w3.org/2000/svg">
<path fill-rule="evenodd" clip-rule="evenodd" d="M13.6656 3.80001C15.124 3.80001 15.6466 3.81085 16.0845 3.95478C17.0508 4.27242 17.8942 5.18948 18.1306 6.17956C18.2381 6.63002 18.2091 7.10388 18.0982 8.44212C17.8862 10.9993 17.5305 13.7454 16.9587 15.4324C16.9074 15.5836 16.8551 15.6854 16.7512 15.8088C16.6286 15.9329 16.4682 16.0479 16.3114 16.1243C16.1359 16.1931 16.061 16.2 15.5913 16.2H9.61455C9.12841 16.2 9.01897 16.1952 8.92518 16.1747C8.82294 16.1523 8.72289 16.1148 8.63114 16.0645C8.54659 16.018 8.46445 15.9527 8.10827 15.6421C7.10329 14.7658 6.02257 13.7478 5.36979 12.6936C4.72823 11.6575 4.60883 10.7874 5.11988 9.98286C5.31814 9.67074 5.55732 9.56679 5.78993 9.54893C5.97825 9.53448 6.18157 9.57746 6.362 9.66231C6.52087 10.1287 6.67104 10.5736 6.80093 10.9604C6.93209 11.3509 7.04241 11.6816 7.11991 11.9147L7.24191 12.2824C7.39776 12.7544 7.90637 13.0105 8.37791 12.8545C8.84944 12.6985 9.10521 12.189 8.94935 11.7171L8.82631 11.3462C8.74835 11.1118 8.63746 10.7793 8.50564 10.3868C8.35487 9.93792 8.17651 9.40983 7.9886 8.8597C7.97544 8.80492 7.95716 8.75128 7.93384 8.69956C7.81044 8.33908 7.68374 7.97159 7.55869 7.61286C6.90968 5.75094 8.30054 3.80001 10.2879 3.80001H13.6656ZM5.72635 7.74954C5.02792 4.85077 7.23947 2.00001 10.2879 2.00001L13.8218 1.99997C15.0654 1.99956 15.8992 1.99929 16.6457 2.24466C18.2052 2.75729 19.4983 4.16334 19.8798 5.76124C20.1001 6.68428 19.968 7.65811 19.8904 8.59097C19.679 11.1416 19.3126 14.0905 18.6618 16.0107C18.6101 16.1635 18.5554 16.3149 18.4807 16.4582C18.3797 16.6516 18.2565 16.8269 18.0869 17.0139C18.0809 17.3871 18.051 17.7614 18.0328 18.1341C18.0082 18.6401 17.9871 19.072 17.9413 19.4264C17.8931 19.7997 17.8098 20.1608 17.6201 20.5039C17.3332 21.0229 16.8942 21.4414 16.3623 21.7029C16.0107 21.8758 15.6462 21.9415 15.2714 21.9715C14.9154 22 14.4834 22 13.9772 22H11.3665C10.8821 22 10.4675 22 10.1249 21.9732C9.76339 21.9448 9.4119 21.8828 9.07 21.7207C8.55129 21.4747 8.11726 21.0801 7.82297 20.5869C7.629 20.2617 7.53369 19.9175 7.47092 19.56C7.41142 19.2213 7.37176 18.8083 7.32541 18.3256L7.22255 17.2549C7.12285 17.1711 7.02505 17.085 6.9269 16.9993C5.9233 16.1242 4.65155 14.9507 3.8411 13.6418C3.01944 12.3148 2.56484 10.6502 3.60217 9.01715C4.13118 8.18433 4.9257 7.78929 5.72635 7.74954ZM9.10044 17.9955C9.14057 18.4133 9.16955 18.8347 9.24221 19.2484C9.28613 19.4985 9.33059 19.6029 9.36706 19.664C9.47868 19.8511 9.64331 20.0008 9.84006 20.0941C9.90433 20.1245 10.0124 20.1588 10.2653 20.1787C10.5293 20.1994 10.8729 20.2 11.3999 20.2H13.9429C14.4928 20.2 14.8523 20.1993 15.1279 20.1772C15.3927 20.156 15.5043 20.1193 15.5694 20.0873C15.7711 19.9881 15.9377 19.8294 16.0465 19.6325C16.0816 19.569 16.1237 19.4593 16.1577 19.1956C16.2098 18.7929 16.22 18.3843 16.2398 17.9791C16.0244 18.0016 15.8076 18.0001 15.5913 18H9.61455C9.44318 18.0001 9.27173 18.0013 9.10044 17.9955Z" fill="#2688EB"/>
</svg>
