<svg width="24" height="24" viewBox="0 0 24 24" fill="none" xmlns="http://www.w3.org/2000/svg">
<path d="M7.45063 13.323C7.02037 13.0741 6.46982 13.2211 6.22093 13.6514C5.97204 14.0816 6.11907 14.6322 6.54932 14.8811C7.40489 15.376 8.03677 16.2119 8.26078 17.1992C8.37077 17.6839 8.85289 17.9877 9.33763 17.8777C9.82236 17.7677 10.1261 17.2856 10.0162 16.8008C9.67879 15.3141 8.73008 14.0631 7.45063 13.323Z" fill="#2688EB"/>
<path d="M9.53964 6.02736C9.14185 5.72931 8.57777 5.81016 8.27972 6.20795C7.98636 6.59948 7.52156 6.85 6.998 6.85C6.50094 6.85 6.098 7.25294 6.098 7.75C6.098 8.24706 6.50094 8.65 6.998 8.65C8.1124 8.65 9.10161 8.11291 9.72023 7.28727C10.0183 6.88949 9.93742 6.3254 9.53964 6.02736Z" fill="#2688EB"/>
<path d="M15.9264 6.87256C15.856 6.38051 15.4 6.03869 14.908 6.10907C14.4159 6.17945 14.0741 6.63539 14.1445 7.12744C14.3897 8.84199 15.6202 10.2346 17.2432 10.7177C17.7197 10.8595 18.2208 10.5882 18.3626 10.1118C18.5044 9.63538 18.2331 9.13424 17.7567 8.99245C16.7979 8.70709 16.0707 7.88178 15.9264 6.87256Z" fill="#2688EB"/>
<path fill-rule="evenodd" clip-rule="evenodd" d="M2.09998 14C2.09998 13.1307 2.35208 12.3202 2.78718 11.6378C2.34962 10.8574 2.09998 9.95703 2.09998 9C2.09998 6.36576 3.98554 4.17298 6.4811 3.69613C7.36579 2.43033 8.83544 1.6 10.5 1.6C11.022 1.6 11.5264 1.68194 12 1.83411C12.4736 1.68194 12.9779 1.6 13.5 1.6C15.1645 1.6 16.6342 2.43033 17.5189 3.69613C20.0144 4.17298 21.9 6.36576 21.9 9C21.9 9.08541 21.898 9.17037 21.8941 9.25484C21.854 10.1176 21.6114 10.9275 21.2128 11.6381C21.6476 12.3205 21.9 13.1314 21.9 14C21.9 15.5523 21.0963 16.9154 19.8844 17.6983C19.8947 17.7976 19.9 17.8983 19.9 18C19.9 19.6016 18.6016 20.9 17 20.9C16.9406 20.9 16.8817 20.8982 16.8233 20.8947C16.2133 21.8019 15.1772 22.4 14 22.4C13.2522 22.4 12.5609 22.1582 12 21.7497C11.4391 22.1582 10.7477 22.4 9.99998 22.4C8.82271 22.4 7.78661 21.8019 7.17665 20.8947C7.11816 20.8982 7.05925 20.9 6.99998 20.9C5.39835 20.9 4.09998 19.6016 4.09998 18C4.09998 17.8983 4.10525 17.7976 4.11555 17.6983C2.90369 16.9154 2.09998 15.5523 2.09998 14ZM7.80294 4.9702C8.33744 4.03049 9.34564 3.4 10.5 3.4C10.7057 3.4 10.9063 3.41993 11.1 3.45785V20.162C10.8125 20.4344 10.4257 20.6 9.99998 20.6C9.31783 20.6 8.73324 20.1727 8.5035 19.5681C8.33017 19.1119 7.82481 18.877 7.36429 19.0385C7.25143 19.0781 7.12922 19.1 6.99998 19.1C6.39246 19.1 5.89998 18.6075 5.89998 18C5.89998 17.8486 5.93008 17.7064 5.98378 17.5775C6.17485 17.1189 5.95813 16.5922 5.49961 16.4008C4.55861 16.0081 3.89998 15.0799 3.89998 14C3.89998 12.5641 5.06404 11.4 6.49998 11.4C6.90038 11.4 7.27728 11.4899 7.61379 11.6498C8.06276 11.863 8.59963 11.672 8.81291 11.223C9.02619 10.774 8.83513 10.2372 8.38616 10.0239C7.81341 9.7518 7.17317 9.6 6.49998 9.6C5.63027 9.6 4.8195 9.85233 4.13688 10.2878C3.9838 9.88826 3.89998 9.45434 3.89998 9C3.89998 7.14189 5.30843 5.61156 7.1154 5.42023C7.40368 5.3897 7.65961 5.22218 7.80294 4.9702ZM12.9 20.162C13.1874 20.4344 13.5743 20.6 14 20.6C14.4176 20.6 14.7986 20.4399 15.084 20.177C14.4807 19.6456 14.1 18.8672 14.1 18C14.1 17.5029 14.5029 17.1 15 17.1C15.497 17.1 15.9 17.5029 15.9 18C15.9 18.5994 16.3795 19.0869 16.9758 19.0997L17 19.1C17.6075 19.1 18.1 18.6075 18.1 18C18.1 17.8486 18.0699 17.7064 18.0162 17.5775C17.8251 17.1189 18.0418 16.5922 18.5003 16.4008C19.4413 16.0081 20.1 15.0799 20.1 14C20.1 13.7014 20.0499 13.4149 19.9575 13.1482C19.0208 13.9297 17.8153 14.4 16.5 14.4C16.0029 14.4 15.6 13.9971 15.6 13.5C15.6 13.0029 16.0029 12.6 16.5 12.6C18.431 12.6 20.0069 11.0796 20.096 9.17064C20.0986 9.1141 20.1 9.05721 20.1 9C20.1 7.14189 18.6915 5.61156 16.8846 5.42023C16.5963 5.3897 16.3403 5.22218 16.197 4.9702C15.6625 4.03049 14.6543 3.4 13.5 3.4C13.2942 3.4 13.0937 3.41993 12.9 3.45785V20.162Z" fill="#2688EB"/>
</svg>
