<svg width="24" height="24" viewBox="0 0 24 24" fill="none" xmlns="http://www.w3.org/2000/svg">
<path fill-rule="evenodd" clip-rule="evenodd" d="M12 2.09998H11.9706H11.9706C11.5297 2.09997 11.1542 2.09996 10.8444 2.12109C10.5197 2.14325 10.2019 2.19161 9.89022 2.32073C9.17964 2.61506 8.61508 3.17961 8.32075 3.8902C8.19163 4.20191 8.14327 4.51966 8.12112 4.8444C8.09998 5.15419 8.09999 5.52968 8.1 5.97057V5.9706L8.1 5.99998V6.00002C6.05803 6.00088 5.00061 6.01989 4.18404 6.43595C3.43139 6.81944 2.81947 7.43136 2.43597 8.18401C2 9.03966 2 10.1598 2 12.4V13.6C2 15.8402 2 16.9603 2.43597 17.8159C2.81947 18.5686 3.43139 19.1805 4.18404 19.564C5.03969 20 6.15979 20 8.4 20H15.6C17.8402 20 18.9603 20 19.816 19.564C20.5686 19.1805 21.1805 18.5686 21.564 17.8159C22 16.9603 22 15.8402 22 13.6V12.4C22 10.1598 22 9.03966 21.564 8.18401C21.1805 7.43136 20.5686 6.81944 19.816 6.43595C18.9994 6.01989 17.942 6.00088 15.9 6.00002V5.99998V5.97061C15.9 5.5297 15.9 5.1542 15.8789 4.8444C15.8567 4.51966 15.8084 4.20191 15.6793 3.8902C15.3849 3.17961 14.8204 2.61506 14.1098 2.32073C13.7981 2.19161 13.4803 2.14325 13.1556 2.12109C12.8458 2.09996 12.4703 2.09997 12.0294 2.09998H12.0294H12ZM14.1 5.99998C14.1 5.52172 14.0995 5.2081 14.0831 4.96693C14.0672 4.73384 14.0394 4.63485 14.0163 4.57903C13.9046 4.30949 13.6905 4.09535 13.421 3.98371C13.3651 3.96058 13.2661 3.93282 13.033 3.91692C12.7919 3.90046 12.4783 3.89998 12 3.89998C11.5217 3.89998 11.2081 3.90046 10.967 3.91692C10.7339 3.93282 10.6349 3.96058 10.579 3.98371C10.3095 4.09535 10.0954 4.30949 9.98373 4.57903C9.96061 4.63485 9.93285 4.73384 9.91694 4.96693C9.90049 5.2081 9.9 5.52172 9.9 5.99998H14.1ZM16.1 7.80023C15.942 7.80001 15.7756 7.79997 15.6 7.79997H8.4C8.22436 7.79997 8.05795 7.80001 7.9 7.80023V18.1997C8.05795 18.1999 8.22436 18.2 8.4 18.2H15.6C15.7756 18.2 15.942 18.1999 16.1 18.1997V7.80023ZM5.91939 7.84849C5.9777 7.84373 6.03783 7.83943 6.1 7.83556V18.1644C6.03783 18.1605 5.9777 18.1562 5.91939 18.1515C5.36369 18.1061 5.133 18.0273 5.00122 17.9602C4.58726 17.7493 4.25071 17.4127 4.03979 16.9988C3.97264 16.867 3.89392 16.6363 3.84852 16.0806C3.8014 15.5039 3.8 14.7498 3.8 13.6V12.4C3.8 11.2502 3.8014 10.4961 3.84852 9.91936C3.89392 9.36367 3.97264 9.13298 4.03979 9.0012C4.25071 8.58724 4.58726 8.25068 5.00122 8.03976C5.133 7.97261 5.36369 7.8939 5.91939 7.84849ZM18.0806 18.1515C18.0223 18.1562 17.9622 18.1605 17.9 18.1644V7.83556C17.9622 7.83943 18.0223 7.84373 18.0806 7.84849C18.6363 7.8939 18.867 7.97261 18.9988 8.03976C19.4127 8.25068 19.7493 8.58724 19.9602 9.0012C20.0274 9.13298 20.1061 9.36367 20.1515 9.91936C20.1986 10.4961 20.2 11.2502 20.2 12.4V13.6C20.2 14.7498 20.1986 15.5039 20.1515 16.0806C20.1061 16.6363 20.0274 16.867 19.9602 16.9988C19.7493 17.4127 19.4127 17.7493 18.9988 17.9602C18.867 18.0273 18.6363 18.1061 18.0806 18.1515Z" fill="#2688EB"/>
</svg>
