<svg width="24" height="24" viewBox="0 0 24 24" fill="none" xmlns="http://www.w3.org/2000/svg">
<path fill-rule="evenodd" clip-rule="evenodd" d="M5.49697 4.26623C5.847 4.61913 5.84468 5.18897 5.49178 5.53901C3.82846 7.18883 2.8 9.47348 2.8 12C2.8 14.5266 3.82845 16.8112 5.49176 18.461C5.84466 18.8111 5.84698 19.3809 5.49694 19.7338C5.1469 20.0867 4.57706 20.089 4.22416 19.739C2.23408 17.765 1 15.0258 1 12C1 8.97422 2.23409 6.23498 4.22418 4.26104C4.57709 3.911 5.14693 3.91332 5.49697 4.26623Z" fill="#2688EB"/>
<path fill-rule="evenodd" clip-rule="evenodd" d="M18.501 4.26622C18.851 3.91332 19.4209 3.911 19.7738 4.26104C21.7639 6.23498 22.998 8.97422 22.998 12C22.998 15.0258 21.7639 17.765 19.7738 19.739C19.4209 20.089 18.8511 20.0867 18.501 19.7338C18.151 19.3809 18.1533 18.8111 18.5062 18.461C20.1695 16.8112 21.198 14.5266 21.198 12C21.198 9.47348 20.1695 7.18883 18.5062 5.53901C18.1533 5.18897 18.151 4.61913 18.501 4.26622Z" fill="#2688EB"/>
<path fill-rule="evenodd" clip-rule="evenodd" d="M8.13447 7.24305C8.4973 7.58278 8.51603 8.15232 8.1763 8.51516C7.32186 9.42772 6.8 10.6519 6.8 12C6.8 13.3224 7.30072 14.6085 8.09841 15.4998C8.4299 15.8702 8.39838 16.4391 8.02801 16.7706C7.65764 17.1021 7.08866 17.0706 6.75717 16.7002C5.6547 15.4684 5 13.7511 5 12C5 10.1772 5.70803 8.51773 6.86236 7.28489C7.20209 6.92206 7.77163 6.90332 8.13447 7.24305Z" fill="#2688EB"/>
<path fill-rule="evenodd" clip-rule="evenodd" d="M15.8649 7.24305C16.2278 6.90332 16.7973 6.92206 17.137 7.28489C18.2914 8.51773 18.9994 10.1772 18.9994 12C18.9994 13.7511 18.3447 15.4684 17.2422 16.7002C16.9108 17.0706 16.3418 17.1021 15.9714 16.7706C15.601 16.4391 15.5695 15.8702 15.901 15.4998C16.6987 14.6085 17.1994 13.3224 17.1994 12C17.1994 10.6519 16.6775 9.42772 15.8231 8.51516C15.4834 8.15232 15.5021 7.58278 15.8649 7.24305Z" fill="#2688EB"/>
<path d="M14.0001 12C14.0001 13.1046 13.1047 14 12.0001 14C10.8955 14 10.0001 13.1046 10.0001 12C10.0001 10.8954 10.8955 10 12.0001 10C13.1047 10 14.0001 10.8954 14.0001 12Z" fill="#2688EB"/>
</svg>
