<svg width="24" height="24" viewBox="0 0 24 24" fill="none" xmlns="http://www.w3.org/2000/svg">
<path d="M10.5 10.4C10.5 9.90294 10.9029 9.5 11.4 9.5H12.6C13.0971 9.5 13.5 9.90294 13.5 10.4C13.5 10.8971 13.0971 11.3 12.6 11.3H11.4C10.9029 11.3 10.5 10.8971 10.5 10.4Z" fill="#2688EB"/>
<path d="M10.5 15.4C10.5 14.9029 10.9029 14.5 11.4 14.5H12.6C13.0971 14.5 13.5 14.9029 13.5 15.4C13.5 15.8971 13.0971 16.3 12.6 16.3H11.4C10.9029 16.3 10.5 15.8971 10.5 15.4Z" fill="#2688EB"/>
<path fill-rule="evenodd" clip-rule="evenodd" d="M3 7.99998C3 7.50292 3.40294 7.09998 3.9 7.09998H6.17488C6.64164 6.36666 7.24307 5.72744 7.94434 5.21713L6.2636 3.5364C5.91213 3.18492 5.91213 2.61508 6.2636 2.2636C6.61508 1.91213 7.18492 1.91213 7.5364 2.2636L9.60118 4.32839C10.3483 4.05135 11.1565 3.89999 12 3.89999C12.8435 3.89999 13.6517 4.05135 14.3988 4.32839L16.4636 2.2636C16.8151 1.91213 17.3849 1.91213 17.7364 2.2636C18.0879 2.61508 18.0879 3.18492 17.7364 3.5364L16.0557 5.21713C16.7569 5.72744 17.3584 6.36666 17.8251 7.09998H20.1C20.5971 7.09998 21 7.50292 21 7.99998C21 8.49703 20.5971 8.89998 20.1 8.89998H18.6351C18.8076 9.50357 18.9 10.141 18.9 10.8V12.1H22.1C22.5971 12.1 23 12.5029 23 13C23 13.497 22.5971 13.9 22.1 13.9H18.9V15C18.9 15.7322 18.7859 16.4378 18.5746 17.1H20.1C20.5971 17.1 21 17.5029 21 18C21 18.497 20.5971 18.9 20.1 18.9H17.6929C16.4494 20.7117 14.3635 21.9 12 21.9C9.63654 21.9 7.55063 20.7117 6.3071 18.9H3.9C3.40294 18.9 3 18.497 3 18C3 17.5029 3.40294 17.1 3.9 17.1H5.42538C5.21406 16.4378 5.1 15.7322 5.1 15V13.9H1.9C1.40294 13.9 1 13.497 1 13C1 12.5029 1.40294 12.1 1.9 12.1H5.1V10.8C5.1 10.141 5.19238 9.50357 5.3649 8.89998H3.9C3.40294 8.89998 3 8.49703 3 7.99998ZM6.9 10.8C6.9 7.98333 9.18335 5.69999 12 5.69999C14.8167 5.69999 17.1 7.98334 17.1 10.8V15C17.1 17.8166 14.8167 20.1 12 20.1C9.18335 20.1 6.9 17.8166 6.9 15V10.8Z" fill="#2688EB"/>
<path fill-rule="evenodd" clip-rule="evenodd" d="M10.5 10.4C10.5 9.90294 10.9029 9.5 11.4 9.5H12.6C13.0971 9.5 13.5 9.90294 13.5 10.4C13.5 10.8971 13.0971 11.3 12.6 11.3H11.4C10.9029 11.3 10.5 10.8971 10.5 10.4ZM10.5 15.4C10.5 14.9029 10.9029 14.5 11.4 14.5H12.6C13.0971 14.5 13.5 14.9029 13.5 15.4C13.5 15.8971 13.0971 16.3 12.6 16.3H11.4C10.9029 16.3 10.5 15.8971 10.5 15.4Z" fill="#2688EB"/>
</svg>
