<svg width="24" height="24" viewBox="0 0 24 24" fill="none" xmlns="http://www.w3.org/2000/svg">
<path fill-rule="evenodd" clip-rule="evenodd" d="M11.9952 2.00006C14.3187 1.99917 15.7979 3.58494 16.0675 5.30014C16.2426 5.20897 16.6523 5.05208 16.9424 5C19.3909 4.56047 21.8773 6.69401 20.6983 10.2041C19.9349 12.4769 18.3428 14.0147 16.1236 14.2331C16.0306 16.0437 15.8656 17.9575 15.5952 19.8853L15.582 19.9813C15.5331 20.3404 15.4751 20.7671 15.2473 21.1234C15.0525 21.4281 14.7662 21.677 14.4375 21.8275C14.2057 21.9337 13.9801 21.9702 13.7792 21.9859C13.5985 22.0001 13.3874 22.0001 13.1704 22H10.82C10.6031 22.0001 10.3918 22.0001 10.2112 21.9859C10.0102 21.9702 9.78468 21.9337 9.55289 21.8275C9.22414 21.677 8.93788 21.4281 8.74312 21.1234C8.51529 20.7671 8.45726 20.3404 8.40841 19.9812L8.39521 19.8852C8.21168 18.577 8.07673 17.2751 7.97988 16.0075C6.00006 16 4.32991 14.4256 3.70064 13.1636C1.79427 9.34038 4.12115 6.99543 6.3843 6.93851H6.49887C6.96546 6.92946 7.41361 7.02812 7.81548 7.21343C7.83244 6.72387 7.85254 6.26675 7.87404 5.84666L7.8749 5.82975C7.8837 5.65752 7.89026 5.52905 7.91424 5.35816C8.15855 3.61698 9.6717 2.00095 11.9952 2.00006ZM16.1953 12.4083C17.5416 12.1755 19.2082 10.6648 19.2082 8.57009C19.2082 7.41272 18.4727 6.5 17.1031 6.80349C16.5181 6.93313 16.2108 7.46372 16.2108 8.03174V8.55195C16.2329 9.72055 16.2335 11.0214 16.1953 12.4083ZM14.4108 8.57009V10.6648C14.4108 10.7162 14.4151 10.7666 14.4234 10.8157C14.402 13.463 14.2475 16.5355 13.8126 19.6352C13.7782 19.8807 13.759 20.0129 13.7377 20.1084C13.7316 20.1358 13.7267 20.1532 13.7236 20.1631C13.7167 20.1709 13.7075 20.1789 13.6988 20.1848C13.6878 20.1865 13.6687 20.1891 13.6387 20.1914C13.537 20.1994 13.3976 20.2 13.1433 20.2H10.8471C10.5928 20.2 10.4534 20.1994 10.3516 20.1914C10.3217 20.1891 10.3025 20.1865 10.2915 20.1848C10.2828 20.1789 10.2737 20.1709 10.2668 20.1631C10.2637 20.1532 10.2588 20.1358 10.2527 20.1084C10.2314 20.0129 10.2122 19.8807 10.1778 19.6352C9.43228 14.3214 9.51057 9.08716 9.67169 5.93865C9.68141 5.74855 9.68471 5.69425 9.69678 5.60827C9.8247 4.69656 10.6147 3.80006 11.9952 3.80006C13.3757 3.80006 14.1657 4.69655 14.2936 5.60826C14.3057 5.69424 14.309 5.74854 14.3187 5.93863C14.3578 6.70255 14.392 7.58926 14.4108 8.57009ZM7.77504 11.49C7.78892 12.3517 7.81711 13.2528 7.86417 14.1814C6.7224 14.2331 4.93871 12.7321 4.77744 10.8157C4.69319 9.81452 5.1883 8.74274 6.3567 8.74274C7.14933 8.74274 7.69501 9.21044 7.7252 9.81452C7.75139 10.3386 7.7706 10.896 7.7706 11.4001C7.7706 11.4304 7.77211 11.4604 7.77504 11.49Z" fill="#2688EB"/>
</svg>
