<svg width="24" height="24" viewBox="0 0 24 24" fill="none" xmlns="http://www.w3.org/2000/svg">
<path fill-rule="evenodd" clip-rule="evenodd" d="M10.4578 3.00003H13.5422C13.8301 3.00003 14.067 2.9977 14.2953 3.03175C15.0054 3.13763 15.651 3.50314 16.1071 4.05756C16.3508 4.35373 16.5088 4.70494 16.7237 5.01998C16.9159 5.30167 17.2278 5.4783 17.5683 5.49817C17.8606 5.51523 18.1537 5.48936 18.4461 5.51543C20.3266 5.68299 21.817 7.17342 21.9846 9.05388C22.0001 9.22746 22 9.42287 22 9.69552L22 13.739C22 14.8261 22 15.6967 21.9425 16.4005C21.8835 17.1232 21.7593 17.7487 21.4659 18.3246C20.9961 19.2466 20.2465 19.9962 19.3245 20.466C18.7487 20.7594 18.1231 20.8835 17.4005 20.9425C16.6967 21 15.826 21 14.7389 21H9.26106C8.17398 21 7.3033 21 6.59953 20.9425C5.87686 20.8835 5.2513 20.7594 4.67546 20.466C3.75346 19.9962 3.00386 19.2466 2.53408 18.3246C2.24067 17.7487 2.11654 17.1232 2.0575 16.4005C2 15.6967 2 14.8261 2.00001 13.739C2.00001 12.3912 2.00021 11.0434 2 9.69556C1.99996 9.42289 1.99993 9.22748 2.0154 9.05389C2.18296 7.17342 3.67339 5.68299 5.55386 5.51543C5.84612 5.48938 6.13951 5.51522 6.4317 5.49817C6.77213 5.4783 7.08409 5.30167 7.27628 5.01998C7.49122 4.70493 7.64924 4.35371 7.89293 4.05753C8.34905 3.50314 8.99459 3.13764 9.70465 3.03175C9.93299 2.9977 10.1699 3.00003 10.4578 3.00003ZM10.4578 4.80003C10.1141 4.80003 10.0352 4.80237 9.97014 4.81206C9.70081 4.85223 9.45595 4.99087 9.28293 5.20115C9.07625 5.45236 8.9464 5.76589 8.76318 6.03444C8.2565 6.77707 7.43406 7.24273 6.53658 7.29511C6.26278 7.31109 5.98693 7.28397 5.71362 7.30832C4.70107 7.39855 3.89852 8.20109 3.8083 9.21365C3.8009 9.29661 3.80001 9.40488 3.80001 9.7395V13.7C3.80001 14.835 3.80071 15.6321 3.85152 16.2539C3.90147 16.8653 3.99532 17.2276 4.13789 17.5074C4.4351 18.0907 4.90934 18.5649 5.49264 18.8622C5.77244 19.0047 6.13475 19.0986 6.74611 19.1485C7.36796 19.1993 8.16505 19.2 9.30001 19.2H14.7C15.8349 19.2 16.632 19.1993 17.2539 19.1485C17.8652 19.0986 18.2276 19.0047 18.5074 18.8622C19.0907 18.5649 19.5649 18.0907 19.8621 17.5074C20.0047 17.2276 20.0985 16.8653 20.1485 16.2539C20.1993 15.6321 20.2 14.835 20.2 13.7V9.73951C20.2 9.40488 20.1991 9.29661 20.1917 9.21364C20.1015 8.20109 19.2989 7.39855 18.2864 7.30832C18.0131 7.28397 17.7372 7.31109 17.4634 7.29511C16.5659 7.24273 15.7435 6.77707 15.2368 6.03443C15.0536 5.76592 14.9237 5.45231 14.7171 5.20116C14.5441 4.99087 14.2992 4.85223 14.0298 4.81206C13.9648 4.80237 13.8859 4.80003 13.5422 4.80003H10.4578Z" fill="#2688EB"/>
<path fill-rule="evenodd" clip-rule="evenodd" d="M12 9.80003C10.5088 9.80003 9.30001 11.0089 9.30001 12.5C9.30001 13.9912 10.5088 15.2 12 15.2C13.4912 15.2 14.7 13.9912 14.7 12.5C14.7 11.0089 13.4912 9.80003 12 9.80003ZM7.50001 12.5C7.50001 10.0148 9.51473 8.00003 12 8.00003C14.4853 8.00003 16.5 10.0148 16.5 12.5C16.5 14.9853 14.4853 17 12 17C9.51473 17 7.50001 14.9853 7.50001 12.5Z" fill="#2688EB"/>
</svg>
