<svg width="24" height="24" viewBox="0 0 24 24" fill="none" xmlns="http://www.w3.org/2000/svg">
<path fill-rule="evenodd" clip-rule="evenodd" d="M5.10695 14.3884C5.1686 13.8952 5.61841 13.5453 6.11163 13.607L8.11163 13.857C8.60485 13.9186 8.9547 14.3684 8.89305 14.8616C8.8314 15.3549 8.38159 15.7047 7.88837 15.6431L5.88837 15.3931C5.39515 15.3314 5.0453 14.8816 5.10695 14.3884Z" fill="#2688EB"/>
<path fill-rule="evenodd" clip-rule="evenodd" d="M18.8931 14.3884C18.8314 13.8952 18.3816 13.5453 17.8884 13.607L15.8884 13.857C15.3952 13.9186 15.0453 14.3684 15.107 14.8616C15.1686 15.3549 15.6184 15.7047 16.1116 15.6431L18.1116 15.3931C18.6048 15.3314 18.9547 14.8816 18.8931 14.3884Z" fill="#2688EB"/>
<path fill-rule="evenodd" clip-rule="evenodd" d="M21.9 16.5V18.9V19.2L21.9 19.2221C21.9 19.3424 21.9001 19.4807 21.8902 19.6017C21.8788 19.7407 21.8501 19.9341 21.7474 20.1356C21.6132 20.399 21.399 20.6132 21.1356 20.7474C20.9341 20.8501 20.7407 20.8788 20.6017 20.8902C20.4806 20.9001 20.3423 20.9001 20.2221 20.9L20.2 20.9H19.8L19.7779 20.9C19.6577 20.9001 19.5194 20.9001 19.3983 20.8902C19.2593 20.8788 19.0659 20.8501 18.8644 20.7474C18.601 20.6132 18.3868 20.399 18.2526 20.1356C18.1499 19.9341 18.1212 19.7407 18.1098 19.6017C18.0999 19.4807 18.1 19.3423 18.1 19.2221L18.1 19.2V18.9H5.9V19.2L5.9 19.2221C5.90004 19.3423 5.90009 19.4807 5.8902 19.6017C5.87884 19.7407 5.85008 19.9341 5.74741 20.1356C5.61319 20.399 5.39901 20.6132 5.13559 20.7474C4.93409 20.8501 4.74072 20.8788 4.60169 20.8902C4.48065 20.9001 4.34234 20.9001 4.2221 20.9L4.2 20.9H3.8L3.7779 20.9C3.65766 20.9001 3.51935 20.9001 3.39831 20.8902C3.25928 20.8788 3.06591 20.8501 2.86441 20.7474C2.60099 20.6132 2.38681 20.399 2.25259 20.1356C2.14992 19.9341 2.12116 19.7407 2.1098 19.6017C2.09991 19.4807 2.09996 19.3424 2.1 19.2221L2.1 19.2L2.1 18.9L2.1 16.5L2.1 12.146C1.47721 11.9346 1 11.3492 1 10.6145V10.3852C1 9.89631 1.3963 9.50001 1.88516 9.50001H2.74377L3.55718 7.87319C3.94314 7.10122 4.26324 6.46099 4.58067 5.96211C4.91491 5.43682 5.28513 5.003 5.80375 4.68247C6.32237 4.36194 6.87596 4.22482 7.49527 4.16079C8.08344 4.09997 8.79923 4.09999 9.66232 4.10001H14.3377C15.2008 4.09999 15.9166 4.09997 16.5047 4.16079C17.124 4.22482 17.6776 4.36194 18.1962 4.68247C18.7149 5.003 19.0851 5.43682 19.4193 5.96211C19.7368 6.46099 20.0569 7.10122 20.4428 7.8732L21.2562 9.50001H22.1148C22.6037 9.50001 23 9.89631 23 10.3852V10.6145C23 11.3492 22.5228 11.9346 21.9 12.146V16.5ZM4.71968 10.2339C5.063 10.3011 5.57716 10.392 6.24659 10.4833C7.58562 10.6659 9.54481 10.85 12 10.85C14.4552 10.85 16.4144 10.6659 17.7534 10.4833C18.4228 10.392 18.937 10.3011 19.2803 10.2339C19.4019 10.2102 19.502 10.1893 19.58 10.1725L18.8534 8.71922C18.4417 7.89582 18.1623 7.33959 17.9007 6.9284C17.6502 6.53481 17.4563 6.34116 17.2499 6.21364C17.0436 6.08612 16.7836 5.99922 16.3196 5.95124C15.8348 5.90112 15.2124 5.90001 14.2918 5.90001H9.70821C8.78762 5.90001 8.16518 5.90112 7.68039 5.95124C7.21635 5.99922 6.9564 6.08612 6.75007 6.21364C6.54373 6.34116 6.34976 6.53481 6.09932 6.9284C5.83768 7.33959 5.55833 7.89582 5.14663 8.71922L4.41997 10.1725C4.49797 10.1893 4.59811 10.2102 4.71968 10.2339ZM20.0576 11.9106C19.9582 11.9328 19.8137 11.9637 19.6259 12.0004C19.2505 12.0739 18.7022 12.1705 17.9966 12.2668C16.5856 12.4592 14.5448 12.65 12 12.65C9.45516 12.65 7.41436 12.4592 6.00339 12.2668C5.29783 12.1705 4.74949 12.0739 4.37406 12.0004C4.18634 11.9637 4.04181 11.9328 3.94244 11.9106L3.9 11.901L3.9 16.5C3.9 16.8314 4.16863 17.1 4.5 17.1H5.9H18.1H19.5C19.8314 17.1 20.1 16.8314 20.1 16.5V11.901L20.0576 11.9106Z" fill="#2688EB"/>
</svg>
