<svg width="24" height="24" viewBox="0 0 24 24" fill="none" xmlns="http://www.w3.org/2000/svg">
<path fill-rule="evenodd" clip-rule="evenodd" d="M16.5617 2.39841L16.4926 2.38578C15.6395 2.2297 14.95 2.10355 14.3822 2.04305C13.7976 1.98075 13.2704 1.97869 12.7512 2.11166C11.7355 2.37182 10.8461 2.98615 10.2432 3.84397C9.93501 4.28242 9.7503 4.77616 9.60158 5.345C9.45714 5.89744 9.331 6.58694 9.17494 7.44005L8.38041 11.783C8.22433 12.6361 8.09818 13.3257 8.03768 13.8934C7.97538 14.4781 7.97332 15.0052 8.10629 15.5244C8.36645 16.5401 8.98078 17.4296 9.8386 18.0325C10.2771 18.3406 10.7708 18.5253 11.3396 18.6741C11.892 18.8185 12.5815 18.9446 13.4346 19.1007L13.5038 19.1133C14.3569 19.2694 15.0464 19.3956 15.6141 19.4561C16.1988 19.5184 16.7259 19.5204 17.2451 19.3875C18.2608 19.1273 19.1503 18.513 19.7532 17.6551C20.0613 17.2167 20.246 16.723 20.3948 16.1541C20.5392 15.6017 20.6653 14.9122 20.8214 14.0591L21.6159 9.71607C21.772 8.863 21.8982 8.17345 21.9587 7.60567C22.021 7.02103 22.023 6.49387 21.89 5.97472C21.6299 4.95899 21.0156 4.06956 20.1577 3.46665C19.7193 3.15848 19.2255 2.97378 18.6567 2.82505C18.1043 2.68061 17.4148 2.55448 16.5617 2.39841ZM13.1979 3.85537C13.4221 3.79793 13.7079 3.78138 14.1915 3.83292C14.6843 3.88543 15.3075 3.99883 16.2032 4.16271C17.099 4.32658 17.7219 4.44114 18.2014 4.56651C18.6719 4.68954 18.9333 4.80618 19.1227 4.93929C19.6296 5.29556 19.9926 5.82114 20.1463 6.42134C20.2038 6.64559 20.2203 6.93134 20.1688 7.41495C20.1163 7.90777 20.0029 8.53093 19.839 9.42668L19.0571 13.7006C18.8932 14.5964 18.7787 15.2193 18.6533 15.6988C18.5303 16.1693 18.4136 16.4307 18.2805 16.6201C17.9243 17.127 17.3987 17.49 16.7985 17.6437C16.5742 17.7012 16.2885 17.7177 15.8049 17.6662C15.312 17.6137 14.6889 17.5003 13.7931 17.3364C12.8974 17.1725 12.2744 17.058 11.7949 16.9326C11.3244 16.8096 11.063 16.6929 10.8736 16.5598C10.3667 16.2036 10.0037 15.678 9.85 15.0778C9.79256 14.8535 9.77601 14.5678 9.82754 14.0842C9.88006 13.5914 9.99346 12.9682 10.1573 12.0724L10.9392 7.7985C11.1031 6.90275 11.2177 6.2798 11.343 5.80032C11.4661 5.32979 11.5827 5.0684 11.7158 4.87901C12.0721 4.37211 12.5977 4.0091 13.1979 3.85537ZM7.16719 6.78813C7.6564 6.70012 7.98162 6.23219 7.89361 5.74299C7.8056 5.25379 7.33767 4.92856 6.84847 5.01657L6.70264 5.04277C5.6914 5.22431 4.99548 5.34925 4.43093 5.63007C3.1056 6.28932 2.20058 7.57078 2.0225 9.04026C1.94664 9.66621 2.06163 10.3638 2.22871 11.3776L2.25279 11.5238L3.07401 16.5179C3.21279 17.3619 3.32515 18.0453 3.45881 18.5948C3.59668 19.1616 3.77219 19.6548 4.07172 20.0977C4.615 20.901 5.40845 21.5023 6.32871 21.8081C6.83609 21.9767 7.35833 22.0124 7.94136 21.9918C8.50654 21.9719 9.19477 21.8954 10.0449 21.8008L10.08 21.7968C10.574 21.7419 10.9299 21.2968 10.875 20.8028C10.82 20.3088 10.375 19.9529 9.88096 20.0079C8.98748 20.1073 8.36702 20.1757 7.87801 20.193C7.39908 20.2098 7.11725 20.1734 6.89641 20.1C6.35262 19.9193 5.88376 19.5639 5.56273 19.0893C5.43236 18.8965 5.32108 18.635 5.20782 18.1694C5.09218 17.6939 4.9903 17.0781 4.84443 16.191L4.02894 11.2317C3.82877 10.0144 3.76866 9.59317 3.80943 9.25681C3.91465 8.38848 4.44944 7.63125 5.23259 7.2417C5.53595 7.0908 5.95305 7.00657 7.16719 6.78813Z" fill="#2688EB"/>
</svg>
