<svg width="24" height="24" viewBox="0 0 24 24" fill="none" xmlns="http://www.w3.org/2000/svg">
<path fill-rule="evenodd" clip-rule="evenodd" d="M13.4895 4.29306C15.2085 2.57403 17.9956 2.57403 19.7146 4.29306C21.4337 6.01209 21.4337 8.7992 19.7146 10.5182L18.6431 11.5898C18.2915 11.9414 17.7214 11.9414 17.3698 11.5898C17.0182 11.2381 17.0182 10.668 17.3698 10.3164L18.4413 9.2449C19.4571 8.22911 19.4571 6.58218 18.4413 5.56639C17.4255 4.5506 15.7786 4.5506 14.7628 5.56639L11.2258 9.10342C10.21 10.1192 10.21 11.7661 11.2258 12.7819C11.5774 13.1335 11.5774 13.7036 11.2258 14.0553C10.8741 14.4069 10.3041 14.4069 9.95243 14.0553C8.2334 12.3362 8.2334 9.54912 9.95243 7.83009L13.4895 4.29306ZM12.782 9.95231C13.1337 9.60069 13.7038 9.60069 14.0554 9.95231C15.7744 11.6713 15.7744 14.4584 14.0554 16.1775L10.5184 19.7145C8.79932 21.4335 6.01221 21.4335 4.29318 19.7145C2.57415 17.9955 2.57415 15.2084 4.29318 13.4893L5.41498 12.3675C5.7666 12.0159 6.33669 12.0159 6.68831 12.3675C7.03994 12.7192 7.03994 13.2892 6.68831 13.6409L5.56651 14.7627C4.55072 15.7785 4.55072 17.4254 5.56651 18.4412C6.5823 19.457 8.22923 19.457 9.24502 18.4412L12.782 14.9042C13.7978 13.8884 13.7978 12.2414 12.782 11.2256C12.4304 10.874 12.4304 10.3039 12.782 9.95231Z" fill="#2688EB"/>
</svg>
