<svg width="24" height="24" viewBox="0 0 24 24" fill="none" xmlns="http://www.w3.org/2000/svg">
<path d="M14.9636 9.2636C15.315 8.91213 15.8849 8.91213 16.2364 9.2636C16.5878 9.61508 16.5878 10.1849 16.2364 10.5364L11.6364 15.1364C11.2849 15.4879 10.715 15.4879 10.3636 15.1364L7.76357 12.5364C7.4121 12.1849 7.4121 11.6151 7.76357 11.2636C8.11505 10.9121 8.68489 10.9121 9.03637 11.2636L11 13.2272L14.9636 9.2636Z" fill="#2688EB"/>
<path fill-rule="evenodd" clip-rule="evenodd" d="M12 2.09998C17.4671 2.09998 21.9 6.53285 21.9 12C21.9 17.4671 17.4671 21.9 12 21.9C6.53285 21.9 2.09998 17.4671 2.09998 12C2.09998 6.53285 6.53285 2.09998 12 2.09998ZM12 3.89998C7.52597 3.89998 3.89998 7.52597 3.89998 12C3.89998 16.474 7.52597 20.1 12 20.1C16.474 20.1 20.1 16.474 20.1 12C20.1 7.52597 16.474 3.89998 12 3.89998Z" fill="#2688EB"/>
</svg>
