<svg width="24" height="24" viewBox="0 0 24 24" fill="none" xmlns="http://www.w3.org/2000/svg">
<path d="M14.5903 2.10001C16.7582 2.10001 17.7923 2.29971 18.8665 2.87421C19.8382 3.39385 20.6061 4.1618 21.1258 5.13345C21.7003 6.20767 21.9 7.24181 21.9 9.40972V14.5903C21.9 16.7582 21.7003 17.7923 21.1258 18.8666C20.6061 19.8382 19.8382 20.6062 18.8665 21.1258C17.7923 21.7003 16.7582 21.9 14.5903 21.9H9.40969C7.24178 21.9 6.20764 21.7003 5.13342 21.1258C4.16177 20.6062 3.39382 19.8382 2.87418 18.8666C2.29968 17.7923 2.09998 16.7582 2.09998 14.5903V9.40972C2.09998 7.24181 2.29968 6.20767 2.87418 5.13345C3.39382 4.1618 4.16177 3.39385 5.13342 2.87421C6.20764 2.29971 7.24178 2.10001 9.40969 2.10001H14.5903ZM14.5903 3.90001H9.40969C7.51351 3.90001 6.7601 4.0455 5.9823 4.46147C5.32433 4.81336 4.81333 5.32436 4.46144 5.98233C4.04547 6.76013 3.89998 7.51355 3.89998 9.40972V14.5903C3.89998 16.4865 4.04547 17.2399 4.46144 18.0177C4.81333 18.6757 5.32433 19.1867 5.9823 19.5385C6.7601 19.9545 7.51351 20.1 9.40969 20.1H14.5903C16.4864 20.1 17.2398 19.9545 18.0177 19.5385C18.6756 19.1867 19.1866 18.6757 19.5385 18.0177C19.9545 17.2399 20.1 16.4865 20.1 14.5903V9.40972C20.1 7.51355 19.9545 6.76013 19.5385 5.98233C19.1866 5.32436 18.6756 4.81336 18.0177 4.46147C17.2398 4.0455 16.4864 3.90001 14.5903 3.90001ZM14.9636 9.26361C15.3151 8.91214 15.8849 8.91214 16.2364 9.26361C16.5878 9.61508 16.5878 10.1849 16.2364 10.5364L11.6364 15.1364C11.2849 15.4879 10.7151 15.4879 10.3636 15.1364L7.76358 12.5364C7.41211 12.1849 7.41211 11.6151 7.76358 11.2636C8.11505 10.9121 8.6849 10.9121 9.03637 11.2636L11 13.2272L14.9636 9.26361Z" fill="#2688EB"/>
</svg>
