<svg width="24" height="24" viewBox="0 0 24 24" fill="none" xmlns="http://www.w3.org/2000/svg">
<path fill-rule="evenodd" clip-rule="evenodd" d="M8.79983 7.1C8.79983 5.32103 10.3093 3.8 11.9998 3.8C13.6904 3.8 15.1998 5.32103 15.1998 7.1C15.1998 7.59705 15.6028 8 16.0998 8C16.5969 8 16.9998 7.59705 16.9998 7.1C16.9998 6.82916 16.9775 6.56185 16.9345 6.30005C18.7195 6.30897 20.2 7.75396 20.2 9.4678C20.2 10.6022 19.5029 11.7703 18.547 12.3719C18.2254 12.5091 18 12.8282 18 13.2V15.2L6.00002 15.2V13.2C6.00002 12.8267 5.77284 12.5066 5.44921 12.3702C4.49548 11.7683 3.8 10.6013 3.8 9.4678C3.8 7.7545 5.28145 6.30938 7.06517 6.30005C7.0222 6.56185 6.99983 6.82916 6.99983 7.1C6.99983 7.59705 7.40277 8 7.89983 8C8.39689 8 8.79983 7.59705 8.79983 7.1ZM16.2944 4.5385C16.499 4.51307 16.7071 4.5 16.9179 4.5C19.6426 4.5 22 6.69379 22 9.4678C22 11.1454 21.0838 12.7515 19.8 13.6948V16.1V16.1368V16.1369C19.8 16.8056 19.8 17.3616 19.763 17.8153C19.7244 18.2878 19.6411 18.7282 19.4294 19.1436C19.1035 19.7833 18.5833 20.3035 17.9436 20.6294C17.5282 20.8411 17.0878 20.9244 16.6153 20.963C16.1616 21 15.6056 21 14.9368 21H14.9H9.10003H9.06327C8.39447 21 7.83849 21 7.38474 20.963C6.9122 20.9244 6.47187 20.8411 6.05646 20.6294C5.41671 20.3035 4.89657 19.7833 4.5706 19.1436C4.35894 18.7282 4.27568 18.2878 4.23707 17.8153C4.2 17.3616 4.20001 16.8056 4.20002 16.1368V16.1368L4.20002 16.1V13.6956C2.91613 12.7523 2 11.1458 2 9.4678C2 6.69349 4.35944 4.5 7.08256 4.5C7.29311 4.5 7.50096 4.51305 7.70526 4.53844C8.58403 3.04138 10.1919 2 11.9998 2C13.8078 2 15.4157 3.04141 16.2944 4.5385ZM6.0311 17.6687C6.01565 17.4797 6.00788 17.2622 6.00397 17L17.9961 17C17.9922 17.2622 17.9844 17.4797 17.969 17.6687C17.9394 18.03 17.8865 18.207 17.8256 18.3264C17.6722 18.6275 17.4275 18.8722 17.1264 19.0256C17.007 19.0865 16.83 19.1394 16.4687 19.169C16.097 19.1993 15.6149 19.2 14.9 19.2H9.10003C8.38511 19.2 7.90305 19.1993 7.53132 19.169C7.17009 19.1394 6.99301 19.0865 6.87364 19.0256C6.57258 18.8722 6.32781 18.6275 6.17441 18.3264C6.11359 18.207 6.06061 18.03 6.0311 17.6687Z" fill="#2688EB"/>
</svg>
