<svg width="24" height="24" viewBox="0 0 24 24" fill="none" xmlns="http://www.w3.org/2000/svg">
<path fill-rule="evenodd" clip-rule="evenodd" d="M10.2856 22.3286C6.23817 22.3286 2.95703 19.0475 2.95703 15H4.75703C4.75703 18.0534 7.23228 20.5286 10.2856 20.5286L10.7142 20.5286C11.2112 20.5286 11.6142 20.9315 11.6142 21.4286C11.6142 21.9257 11.2112 22.3286 10.7142 22.3286L10.2856 22.3286Z" fill="#3F8AE0"/>
<path fill-rule="evenodd" clip-rule="evenodd" d="M13.6713 9.42863C13.6713 8.93157 14.0743 8.52863 14.5713 8.52863C16.4592 8.52863 18.1164 9.52484 19.0233 11.0187C19.2813 11.4436 19.146 11.9972 18.7211 12.2551C18.2962 12.513 17.7426 12.3777 17.4847 11.9528C16.8957 10.9827 15.8142 10.3286 14.5713 10.3286C14.0743 10.3286 13.6713 9.92569 13.6713 9.42863Z" fill="#3F8AE0"/>
<path fill-rule="evenodd" clip-rule="evenodd" d="M7.39072 3.90005C6.70984 3.90005 6.17512 4.48328 6.2341 5.16161L6.77107 11.3367L4.9985 11.7303L4.44087 5.31754C4.29044 3.58754 5.65419 2.10005 7.39072 2.10005C8.74942 2.10005 9.93376 3.02476 10.2633 4.34289L11.1587 7.92462C11.2793 8.40684 10.9861 8.89548 10.5039 9.01603C10.0217 9.13659 9.53303 8.8434 9.41247 8.36119L8.51704 4.77945C8.38783 4.26262 7.92346 3.90005 7.39072 3.90005Z" fill="#3F8AE0"/>
<path fill-rule="evenodd" clip-rule="evenodd" d="M13.395 3.47012C12.7703 3.33129 12.1521 3.728 12.018 4.35377L11.1656 8.33148C11.0615 8.8175 10.583 9.12707 10.097 9.02292C9.611 8.91877 9.30143 8.44035 9.40558 7.95432L10.2579 3.97662C10.6015 2.37359 12.1851 1.35735 13.7855 1.71299C15.2813 2.04538 16.2742 3.4667 16.0717 4.9855L15.4634 9.54756C15.3977 10.0403 14.9451 10.3864 14.4524 10.3207C13.9597 10.255 13.6135 9.80236 13.6792 9.30967L14.2875 4.7476C14.3665 4.15472 13.9789 3.59988 13.395 3.47012Z" fill="#3F8AE0"/>
<path fill-rule="evenodd" clip-rule="evenodd" d="M9.79157 12.64C9.66678 12.0784 9.15078 11.692 8.57678 11.7303L7.7655 11.7843C6.07254 11.8972 4.75703 13.3033 4.75703 15H2.95703C2.95703 12.3557 5.00727 10.1642 7.64577 9.98833L8.45705 9.93424C9.91788 9.83685 11.2311 10.8203 11.5487 12.2495C11.9175 13.9089 10.8185 15.5379 9.14173 15.8174L8.71928 15.8878C8.22898 15.9695 7.76528 15.6383 7.68356 15.148C7.60185 14.6577 7.93306 14.194 8.42336 14.1123L8.84581 14.0419C9.50464 13.9321 9.93646 13.292 9.79157 12.64Z" fill="#3F8AE0"/>
<path fill-rule="evenodd" clip-rule="evenodd" d="M19.6908 17.5352L15.395 15.0367V20.0336L19.6908 17.5352ZM21.1128 19.0218C22.251 18.3598 22.251 16.7105 21.1128 16.0485L15.966 13.0551C14.8244 12.3912 13.395 13.2177 13.395 14.5418V20.5286C13.395 21.8526 14.8244 22.6792 15.966 22.0153L21.1128 19.0218Z" fill="#3F8AE0"/>
</svg>
