<svg width="24" height="24" viewBox="0 0 24 24" fill="none" xmlns="http://www.w3.org/2000/svg">
<path fill-rule="evenodd" clip-rule="evenodd" d="M20.0442 3.96097C18.7672 2.68399 16.6968 2.68399 15.4199 3.96097L11.3273 8.05351L9.53977 6.26595C9.18819 5.91438 8.61818 5.91438 8.26661 6.26595C7.91503 6.61752 7.91503 7.18754 8.26661 7.53911L10.0542 9.32667L5.68588 13.6949C5.36318 14.0176 5.1698 14.211 4.99134 14.4158C4.26701 15.2471 3.72466 16.2208 3.39917 17.2743C3.29724 17.6042 3.22292 17.9422 3.14393 18.2781L3.12564 18.3553C3.06449 18.6124 2.99711 18.8958 3.00223 19.1422C3.02337 20.161 3.84418 20.9818 4.86293 21.0029C5.10941 21.0081 5.39276 20.9407 5.64991 20.8795L5.72707 20.8612C6.06296 20.7823 6.40106 20.7079 6.73095 20.606C7.78439 20.2805 8.75805 19.7382 9.58934 19.0139C9.78137 18.8465 9.96334 18.6661 10.2513 18.3783C11.7272 16.9028 13.2028 15.4268 14.6785 13.951L16.4661 15.7386C16.8177 16.0902 17.3877 16.0902 17.7393 15.7386C18.0908 15.387 18.0908 14.817 17.7393 14.4654L15.9517 12.6779L20.0442 8.58532C21.3212 7.30834 21.3212 5.23795 20.0442 3.96097ZM11.3273 10.5998L6.98362 14.9435C6.62921 15.2979 6.48185 15.446 6.34884 15.5986C5.78955 16.2405 5.37077 16.9924 5.11945 17.8058C5.05968 17.9992 5.01138 18.2025 4.89662 18.6904C4.85478 18.8682 4.82942 18.9767 4.81373 19.0571C4.79259 19.1654 4.85233 19.2101 4.94804 19.1914C5.02845 19.1758 5.13695 19.1504 5.31482 19.1086C5.88263 18.975 6.07039 18.9287 6.29416 18.8556C7.07122 18.6016 7.78964 18.1938 8.40653 17.6564C8.55918 17.5233 8.70724 17.376 9.06166 17.0216L13.4054 12.6779L11.3273 10.5998Z" fill="#2688EB"/>
</svg>
