<svg width="24" height="24" viewBox="0 0 24 24" fill="none" xmlns="http://www.w3.org/2000/svg">
<path fill-rule="evenodd" clip-rule="evenodd" d="M3.10004 10.5C3.10004 8.25977 3.10004 7.13966 3.53601 6.28401C3.9195 5.53137 4.53143 4.91944 5.28408 4.53595C6.13972 4.09998 7.25983 4.09998 9.50003 4.09998H14.5C16.7402 4.09998 17.8604 4.09998 18.716 4.53595C19.4686 4.91944 20.0806 5.53137 20.4641 6.28401C20.9 7.13966 20.9 8.25977 20.9 10.5C20.9 12.7402 20.9 13.8603 20.4641 14.7159C20.0806 15.4686 19.4686 16.0805 18.716 16.464C17.88 16.89 16.7916 16.8997 14.6527 16.9L15.2027 19.1H17.1C17.5971 19.1 18 19.5029 18 20C18 20.4971 17.5971 20.9 17.1 20.9H6.90003C6.40297 20.9 6.00003 20.4971 6.00003 20C6.00003 19.5029 6.40297 19.1 6.90003 19.1H8.79733L9.34734 16.9C7.20848 16.8997 6.12006 16.89 5.28408 16.464C4.53143 16.0805 3.9195 15.4686 3.53601 14.7159C3.10004 13.8603 3.10004 12.7402 3.10004 10.5ZM14.5 5.89998H9.50003C8.35023 5.89998 7.59613 5.90138 7.01942 5.94849C6.46373 5.9939 6.23304 6.07262 6.10126 6.13976C5.6873 6.35068 5.35074 6.68724 5.13982 7.1012C5.07268 7.23298 4.99396 7.46367 4.94855 8.01936C4.90144 8.59607 4.90004 9.35017 4.90004 10.5C4.90004 11.6498 4.90144 12.4039 4.94855 12.9806C4.99396 13.5363 5.07268 13.767 5.13982 13.8988C5.35074 14.3127 5.6873 14.6493 6.10126 14.8602C6.23304 14.9273 6.46373 15.0061 7.01942 15.0515C7.59613 15.0986 8.35023 15.1 9.50004 15.1H14.5C15.6498 15.1 16.4039 15.0986 16.9807 15.0515C17.5363 15.0061 17.767 14.9273 17.8988 14.8602C18.3128 14.6493 18.6493 14.3127 18.8603 13.8988C18.9274 13.767 19.0061 13.5363 19.0515 12.9806C19.0986 12.4039 19.1 11.6498 19.1 10.5C19.1 9.35017 19.0986 8.59607 19.0515 8.01936C19.0061 7.46367 18.9274 7.23298 18.8603 7.1012C18.6493 6.68724 18.3128 6.35068 17.8988 6.13976C17.767 6.07262 17.5363 5.9939 16.9806 5.94849C16.4039 5.90138 15.6498 5.89998 14.5 5.89998ZM11.2027 16.9L10.6527 19.1H13.3473L12.7973 16.9H11.2027Z" fill="#2688EB"/>
</svg>
