<svg width="24" height="24" viewBox="0 0 24 24" fill="none" xmlns="http://www.w3.org/2000/svg">
<path fill-rule="evenodd" clip-rule="evenodd" d="M3.99996 12.3L3.99997 12.0761V12L3.99998 12C4.00033 10.53 4.00533 9.4531 4.07531 8.59665C4.1491 7.69349 4.29064 7.11508 4.52857 6.6481C4.99356 5.73551 5.73552 4.99356 6.6481 4.52857C7.11508 4.29064 7.69349 4.1491 8.59666 4.0753C9.51033 4.00065 10.675 3.99995 12.3 3.99995H13.6L13.7359 4H16.8124C16.7755 3.83635 16.7209 3.67221 16.6384 3.51038C16.4083 3.05879 16.0412 2.69163 15.5896 2.46154C15.2811 2.30437 14.9643 2.24836 14.6585 2.22338C14.3713 2.19992 14.0249 2.19993 13.6334 2.19995H13.6333L13.6 2.19995H12.3L12.2598 2.19995C10.6837 2.19995 9.44561 2.19994 8.45008 2.28128C7.4356 2.36417 6.59394 2.53598 5.83092 2.92476C4.57964 3.56232 3.56232 4.57964 2.92476 5.83092C2.53598 6.59393 2.36417 7.4356 2.28128 8.45008C2.19994 9.44561 2.19995 10.6837 2.19996 12.2598L2.19996 12.3V13.6L2.19995 13.6333V13.6333V13.6334C2.19994 14.0248 2.19992 14.3713 2.22338 14.6584C2.24836 14.9642 2.30437 15.2811 2.46154 15.5895C2.69164 16.0411 3.05879 16.4083 3.51038 16.6384C3.6722 16.7208 3.83633 16.7754 3.99997 16.8123V13.6795L3.99996 13.6V12.3ZM10.08 5.99998L10.0452 5.99998H10.0451C9.5242 5.99996 9.0806 5.99995 8.71621 6.02923C8.33348 6.05999 7.96091 6.12732 7.60372 6.3058C7.04195 6.5865 6.58648 7.04197 6.30578 7.60374C6.1273 7.96093 6.05997 8.3335 6.02921 8.71623C5.99993 9.08063 5.99994 9.52422 5.99996 10.0452V10.0452L5.99996 10.08V17.92L5.99996 17.9548V17.9548C5.99994 18.4757 5.99993 18.9193 6.02921 19.2837C6.05997 19.6664 6.1273 20.039 6.30578 20.3962C6.58648 20.958 7.04195 21.4134 7.60372 21.6941C7.96091 21.8726 8.33348 21.9399 8.71621 21.9707C9.08058 22 9.52414 22 10.045 22H10.0452H10.08H16.92H16.9548H16.9549C17.4758 22 17.9193 22 18.2837 21.9707C18.6664 21.9399 19.039 21.8726 19.3962 21.6941C19.958 21.4134 20.4134 20.958 20.6941 20.3962C20.8726 20.039 20.9399 19.6664 20.9707 19.2837C21 18.9193 21 18.4757 21 17.9548V17.92V10.08V10.0452C21 9.52422 21 9.08063 20.9707 8.71623C20.9399 8.3335 20.8726 7.96093 20.6941 7.60374C20.4134 7.04197 19.958 6.5865 19.3962 6.3058C19.039 6.12732 18.6664 6.05999 18.2837 6.02923C17.9193 5.99995 17.4757 5.99996 16.9548 5.99998H16.9548L16.92 5.99998H10.08ZM8.40828 7.91598C8.47319 7.88354 8.58698 7.84542 8.86039 7.82345C9.14405 7.80066 9.51474 7.79998 10.08 7.79998H16.92C17.4852 7.79998 17.8559 7.80066 18.1395 7.82345C18.4129 7.84542 18.5267 7.88354 18.5916 7.91598C18.8047 8.02245 18.9775 8.19522 19.084 8.4083C19.1164 8.47321 19.1545 8.587 19.1765 8.86041C19.1993 9.14407 19.2 9.51476 19.2 10.08V17.92C19.2 18.4852 19.1993 18.8559 19.1765 19.1395C19.1545 19.4129 19.1164 19.5267 19.084 19.5916C18.9775 19.8047 18.8047 19.9775 18.5916 20.084C18.5267 20.1164 18.4129 20.1545 18.1395 20.1765C17.8559 20.1993 17.4852 20.2 16.92 20.2H10.08C9.51474 20.2 9.14405 20.1993 8.86039 20.1765C8.58698 20.1545 8.47319 20.1164 8.40828 20.084C8.1952 19.9775 8.02243 19.8047 7.91596 19.5916C7.88352 19.5267 7.8454 19.4129 7.82343 19.1395C7.80063 18.8559 7.79996 18.4852 7.79996 17.92V10.08C7.79996 9.51476 7.80063 9.14407 7.82343 8.86041C7.8454 8.587 7.88352 8.47321 7.91596 8.4083C8.02243 8.19522 8.1952 8.02245 8.40828 7.91598Z" fill="#2688EB"/>
</svg>
