<svg width="24" height="24" viewBox="0 0 24 24" fill="none" xmlns="http://www.w3.org/2000/svg">
<path fill-rule="evenodd" clip-rule="evenodd" d="M11.6973 2.15244C11.893 2.08253 12.1069 2.08253 12.3027 2.15244L19.3027 4.65244C19.6609 4.78036 19.9 5.11965 19.9 5.50001V13C19.9 15.8507 18.3318 18.0768 16.657 19.5506C15.8144 20.2922 14.92 20.8669 14.1256 21.2598C13.3681 21.6345 12.5893 21.9 12 21.9C11.4107 21.9 10.6318 21.6345 9.87439 21.2598C9.07992 20.8669 8.18557 20.2922 7.34291 19.5506C5.66813 18.0768 4.09998 15.8507 4.09998 13V5.50001C4.09998 5.11965 4.33908 4.78036 4.69727 4.65244L11.6973 2.15244ZM5.89998 6.13425V13C5.89998 15.1493 7.08182 16.9232 8.53204 18.1994C9.25188 18.8328 10.0138 19.3206 10.6724 19.6464C11.3681 19.9905 11.8393 20.1 12 20.1C12.1607 20.1 12.6318 19.9905 13.3275 19.6464C13.9862 19.3206 14.7481 18.8328 15.4679 18.1994C16.9181 16.9232 18.1 15.1493 18.1 13V6.13425L12 3.95568L5.89998 6.13425Z" fill="#3F8AE0"/>
<path d="M10.1364 8.86361C9.7849 8.51214 9.21505 8.51214 8.86358 8.86361C8.51211 9.21508 8.51211 9.78493 8.86358 10.1364L10.7272 12L8.86358 13.8636C8.51211 14.2151 8.51211 14.7849 8.86358 15.1364C9.21505 15.4879 9.7849 15.4879 10.1364 15.1364L12 13.2728L13.8636 15.1364C14.2151 15.4879 14.7849 15.4879 15.1364 15.1364C15.4878 14.7849 15.4878 14.2151 15.1364 13.8636L13.2728 12L15.1364 10.1364C15.4878 9.78493 15.4878 9.21508 15.1364 8.86361C14.7849 8.51214 14.2151 8.51214 13.8636 8.86361L12 10.7272L10.1364 8.86361Z" fill="#3F8AE0"/>
</svg>
