<svg width="24" height="24" viewBox="0 0 24 24" fill="none" xmlns="http://www.w3.org/2000/svg">
<path fill-rule="evenodd" clip-rule="evenodd" d="M13.0121 2.22897C12.3964 1.92368 11.607 1.92368 10.9913 2.22897C10.5211 2.46206 10.2295 2.89637 10.0132 3.2832C9.79054 3.6816 9.55116 4.21756 9.26542 4.85735L8.10659 7.45179L6.95635 6.76517C6.27824 6.36035 5.7177 6.02572 5.26684 5.80741C4.83963 5.60055 4.30883 5.39059 3.75991 5.49078C3.05508 5.61942 2.45703 6.08323 2.15704 6.73388C1.92341 7.24059 1.99468 7.80695 2.08872 8.27219C2.18796 8.76319 2.37257 9.38937 2.5959 10.1469L3.83515 14.3506C3.90232 14.5785 3.93591 14.6924 3.96259 14.8076C4.01329 15.0266 4.04545 15.2494 4.05873 15.4738C4.06572 15.5918 4.06572 15.7106 4.06572 15.9481C4.0657 16.478 4.06569 16.9292 4.09595 17.2996C4.12775 17.6888 4.19738 18.0674 4.3818 18.4293C4.65983 18.975 5.10347 19.4186 5.64914 19.6966C6.01108 19.8811 6.38967 19.9507 6.77883 19.9825C7.14926 20.0128 7.60044 20 8.13031 20H15.872C16.4019 20 16.8531 20.0128 17.2235 19.9825C17.6127 19.9507 17.9913 19.8811 18.3532 19.6966C18.8989 19.4186 19.3425 18.975 19.6206 18.4293C19.805 18.0674 19.8746 17.6888 19.9064 17.2996C19.9367 16.9292 19.9367 16.478 19.9366 15.9482C19.9366 15.714 19.9366 15.597 19.9434 15.4806C19.9566 15.254 19.9891 15.0289 20.0405 14.8078C20.0669 14.6942 20.1 14.582 20.1662 14.3574L21.4075 10.1469C21.6308 9.38939 21.8154 8.7632 21.9147 8.27218C22.0087 7.80694 22.08 7.24058 21.8463 6.73387C21.5464 6.08322 20.9483 5.6194 20.2435 5.49076C19.6946 5.39058 19.1638 5.60054 18.7365 5.80739C18.2857 6.0257 17.7252 6.36032 17.0471 6.76513L15.8968 7.45179L14.738 4.85739C14.4522 4.2176 14.2128 3.68161 13.9901 3.28321C13.7739 2.89637 13.4822 2.46207 13.0121 2.22897ZM18.1366 15.9123H5.86572C5.86572 16.4873 5.86642 16.8647 5.88998 17.153C5.91268 17.4309 5.95204 17.5462 5.98561 17.6121C6.09107 17.8191 6.25935 17.9874 6.46633 18.0928C6.53222 18.1264 6.64756 18.1658 6.92541 18.1885C7.21376 18.212 7.59081 18.2127 8.16572 18.2127H15.8366C16.4115 18.2127 16.7886 18.212 17.077 18.1885C17.3548 18.1658 17.4701 18.1264 17.536 18.0928C17.743 17.9874 17.9113 17.8191 18.0168 17.6121C18.0503 17.5462 18.0897 17.4309 18.1124 17.153C18.1359 16.8647 18.1366 16.4873 18.1366 15.9123ZM11.6024 4.1301C11.7867 3.8163 12.2414 3.84382 12.4189 4.16149C12.5973 4.48053 12.804 4.94122 13.1123 5.63136L14.6664 9.1109C14.7713 9.3457 14.9716 9.52443 15.2168 9.60197C15.462 9.67951 15.7287 9.64846 15.9495 9.51664L17.9318 8.3333C18.6573 7.90021 18.8848 7.75231 19.521 7.42747C19.5283 7.42372 19.5358 7.41994 19.5433 7.41613C19.8693 7.25072 20.2228 7.55721 20.1503 7.91556C20.0686 8.31982 19.9074 8.86972 19.6685 9.68017L18.3619 14.1123H5.64149L4.3349 9.68019C4.09598 8.86973 3.95798 8.33332 3.85303 7.91557C3.76227 7.55428 4.14711 7.26514 4.48238 7.42748C4.85359 7.60723 5.34607 7.90023 6.07158 8.33332L8.05386 9.51664C8.27468 9.64845 8.54133 9.67951 8.78653 9.60197C9.03173 9.52443 9.23205 9.34571 9.33693 9.1109L10.8911 5.63136C11.1993 4.94122 11.4061 4.48053 11.5844 4.16149C11.5901 4.15132 11.5961 4.14085 11.6024 4.1301Z" fill="#3F8AE0"/>
</svg>
