<svg width="24" height="24" viewBox="0 0 24 24" fill="none" xmlns="http://www.w3.org/2000/svg">
<path fill-rule="evenodd" clip-rule="evenodd" d="M16.8895 2.25649C16.4287 2.09868 15.9225 2.09924 15.32 2.09991H8.68C8.07743 2.09924 7.5712 2.09868 7.1105 2.25649C6.21797 2.56222 5.47502 3.36654 5.24095 4.28048C5.16976 4.55841 5.15366 4.83507 5.16148 5.12774C4.69966 5.06109 4.22428 5.11595 3.79073 5.28937C2.79913 5.686 2.09998 6.65955 2.09998 7.99999C2.09998 10.3591 4.19359 12.5259 6.80933 12.8565C7.42278 14.1973 8.30456 15.4863 9.5966 16.248C9.57901 16.8764 9.51775 17.579 9.07952 18.0683C8.8814 18.2896 8.66051 18.4863 8.49164 18.7331C8.23946 19.1016 8.09997 19.5354 8.09997 20.1L8.09998 21C8.09999 21.4971 8.50293 21.9 8.99998 21.9H15C15.497 21.9 15.9 21.4971 15.9 21L15.9 20.1C15.9 19.5354 15.7605 19.1015 15.5083 18.7331C15.3394 18.4863 15.1186 18.2896 14.9204 18.0683C14.4822 17.579 14.4209 16.8764 14.4034 16.248C15.6954 15.4862 16.5772 14.1973 17.1906 12.8565C19.8064 12.5259 21.9 10.3591 21.9 7.99999C21.9 6.65955 21.2008 5.686 20.2092 5.28937C19.7757 5.11595 19.3003 5.06109 18.8385 5.12774C18.8463 4.83507 18.8302 4.55841 18.759 4.28048C18.5249 3.36654 17.782 2.56222 16.8895 2.25649ZM8.79998 3.9C8.01216 3.9 7.83299 3.91168 7.6938 3.95936C7.37501 4.06856 7.06827 4.40064 6.98466 4.72708C6.94752 4.8721 6.9487 5.02387 7.00457 5.72703C7.23131 8.58066 7.82105 10.9923 8.72039 12.66C9.61522 14.3193 10.7233 15.1 12 15.1C13.2766 15.1 14.3847 14.3193 15.2796 12.66C16.1789 10.9923 16.7686 8.58066 16.9954 5.72703C17.0513 5.02387 17.0524 4.8721 17.0153 4.72708C16.9317 4.40064 16.6249 4.06856 16.3061 3.95936C16.167 3.91168 15.9878 3.9 15.2 3.9H8.79998ZM4.45922 6.96063C4.20082 7.06399 3.89998 7.34043 3.89998 7.99999C3.89998 9.07728 4.7593 10.2823 6.06306 10.8175C5.75844 9.7675 5.52897 8.61984 5.37058 7.40658C5.35804 7.31059 5.35178 7.26259 5.31569 7.18887C5.16268 6.87631 4.75132 6.84379 4.45922 6.96063ZM19.5407 6.96063C19.7991 7.06399 20.1 7.34043 20.1 7.99999C20.1 9.07728 19.2407 10.2823 17.9369 10.8175C18.2415 9.7675 18.471 8.61984 18.6294 7.40658C18.6419 7.31059 18.6482 7.26259 18.6843 7.18887C18.8373 6.87633 19.2473 6.84324 19.5407 6.96063ZM10.4204 19.2692C10.2769 19.4294 10.0989 19.5717 9.97706 19.7497C9.94799 19.7922 9.89998 19.8646 9.89997 20.1L14.1 20.1C14.1 19.8646 14.052 19.7922 14.0229 19.7497C13.901 19.5717 13.723 19.4294 13.5795 19.2692C12.9775 18.5969 12.72 17.7426 12.6372 16.859C12.2239 16.9131 11.776 16.9131 11.3627 16.859C11.28 17.7426 11.0225 18.5969 10.4204 19.2692Z" fill="#3F8AE0"/>
</svg>
