<svg width="24" height="24" viewBox="0 0 24 24" fill="none" xmlns="http://www.w3.org/2000/svg">
<path fill-rule="evenodd" clip-rule="evenodd" d="M14.5561 8.10176C15.0522 8.13276 15.4292 8.56006 15.3982 9.05615L14.8982 17.0561C14.8672 17.5522 14.4399 17.9293 13.9438 17.8983C13.4477 17.8672 13.0707 17.44 13.1017 16.9439L13.6017 8.94387C13.6327 8.44778 14.06 8.07075 14.5561 8.10176Z" fill="#3F8AE0"/>
<path fill-rule="evenodd" clip-rule="evenodd" d="M9.44383 8.10176C8.94775 8.13276 8.57072 8.56006 8.60173 9.05615L9.10173 17.0561C9.13273 17.5522 9.56003 17.9293 10.0561 17.8983C10.5522 17.8672 10.9292 17.44 10.8982 16.9439L10.3982 8.94387C10.3672 8.44778 9.93992 8.07075 9.44383 8.10176Z" fill="#3F8AE0"/>
<path fill-rule="evenodd" clip-rule="evenodd" d="M2.99998 4.10001C2.50292 4.10001 2.09998 4.50295 2.09998 5.00001C2.09998 5.49706 2.50292 5.90001 2.99998 5.90001H4.1804L5.33503 18.216C5.38037 18.6998 5.41917 19.1138 5.47805 19.4533C5.54018 19.8116 5.63499 20.1567 5.82894 20.4827C6.12314 20.9772 6.55781 21.3731 7.07764 21.6198C7.42033 21.7825 7.77278 21.8447 8.13527 21.8731C8.47885 21.9 8.89467 21.9 9.38064 21.9H14.6193C15.1053 21.9 15.5211 21.9 15.8647 21.8731C16.2272 21.8447 16.5796 21.7825 16.9223 21.6198C17.4421 21.3731 17.8768 20.9772 18.171 20.4827C18.365 20.1567 18.4598 19.8116 18.5219 19.4533C18.5808 19.1138 18.6196 18.6998 18.6649 18.216L19.8195 5.90001H21C21.497 5.90001 21.9 5.49706 21.9 5.00001C21.9 4.50295 21.497 4.10001 21 4.10001H15.7956C15.3893 2.37999 13.8441 1.10001 12 1.10001C10.1558 1.10001 8.61063 2.37999 8.20434 4.10001H2.99998ZM7.12405 18.0147C7.17339 18.541 7.2062 18.8841 7.25158 19.1458C7.29507 19.3965 7.33946 19.5012 7.37589 19.5624C7.48748 19.75 7.65236 19.9001 7.84953 19.9937C7.91391 20.0243 8.02222 20.0587 8.27594 20.0786C8.54075 20.0994 8.88544 20.1 9.41401 20.1H14.5859C15.1145 20.1 15.4592 20.0994 15.724 20.0786C15.9777 20.0587 16.086 20.0243 16.1504 19.9937C16.3476 19.9001 16.5125 19.75 16.6241 19.5624C16.6605 19.5012 16.7049 19.3965 16.7484 19.1458C16.7938 18.8841 16.8266 18.541 16.8759 18.0147L18.0117 5.90001H5.9883L7.12405 18.0147ZM12 2.90001C11.1623 2.90001 10.4391 3.39052 10.1021 4.10001H13.8979C13.5608 3.39052 12.8377 2.90001 12 2.90001Z" fill="#3F8AE0"/>
</svg>
