<svg width="24" height="24" viewBox="0 0 24 24" fill="none" xmlns="http://www.w3.org/2000/svg">
<path fill-rule="evenodd" clip-rule="evenodd" d="M18.8561 18.2437C18.9 17.7066 18.9 17.0458 18.9 16.2377V8.40001H19.2683C19.5294 8.40008 19.7904 8.39505 20.0357 8.29344C20.3788 8.15135 20.6513 7.8788 20.7934 7.53576C20.895 7.29045 20.9001 7.02945 20.9 6.76838C20.9 6.4684 20.9041 6.16748 20.8836 5.86801C20.8662 5.613 20.8274 5.34734 20.7173 5.08157C20.4737 4.4935 20.0065 4.02628 19.4184 3.7827C18.9045 3.56983 18.3226 3.59998 17.7776 3.60001L17.1258 3.60001C16.6875 2.69184 15.7631 2.10001 14.7351 2.10001H9.26489C8.23681 2.10001 7.3125 2.69184 6.87419 3.60001L6.22232 3.60001C5.67739 3.59998 5.09543 3.56983 4.58154 3.7827C3.99347 4.02628 3.52625 4.4935 3.28267 5.08157C3.17258 5.34734 3.13374 5.613 3.11634 5.86801C3.09919 6.11937 3.10007 6.41826 3.09998 6.76836C3.09991 7.02944 3.10493 7.29044 3.20655 7.53576C3.34864 7.8788 3.62118 8.15135 3.96422 8.29344C4.20954 8.39505 4.47055 8.40008 4.73163 8.40001L5.09998 8.40001L5.09998 16.2377C5.09997 17.0458 5.09996 17.7066 5.14384 18.2437C5.18926 18.7996 5.28614 19.3017 5.52505 19.7706C5.89896 20.5044 6.49558 21.101 7.22942 21.4749C7.69831 21.7138 8.20038 21.8107 8.7563 21.8561C9.29337 21.9 9.95422 21.9 10.7623 21.9H13.2377C14.0457 21.9 14.7066 21.9 15.2437 21.8561C15.7996 21.8107 16.3017 21.7138 16.7705 21.4749C17.5044 21.101 18.101 20.5044 18.4749 19.7706C18.7138 19.3017 18.8107 18.7996 18.8561 18.2437ZM6.89998 16.2C6.89998 17.0549 6.90068 17.642 6.93786 18.0971C6.97419 18.5417 7.0408 18.7805 7.12887 18.9534C7.3302 19.3485 7.65146 19.6698 8.0466 19.8711C8.21945 19.9592 8.45827 20.0258 8.90287 20.0621C9.35798 20.0993 9.94505 20.1 10.8 20.1H13.2C14.0549 20.1 14.642 20.0993 15.0971 20.0621C15.5417 20.0258 15.7805 19.9592 15.9534 19.8711C16.3485 19.6698 16.6698 19.3485 16.8711 18.9534C16.9592 18.7805 17.0258 18.5417 17.0621 18.0971C17.0993 17.642 17.1 17.0549 17.1 16.2V8.40001L6.89998 8.40001V16.2ZM4.90004 6.60001C4.90036 6.32336 4.90217 6.13696 4.91216 5.99054C4.92331 5.82718 4.94156 5.78028 4.94565 5.7704C5.00655 5.62338 5.12335 5.50657 5.27037 5.44568C5.28026 5.44158 5.32715 5.42334 5.49051 5.41219C5.66196 5.40049 5.88821 5.40001 6.24998 5.40001H7.18375C7.75999 5.40001 8.27157 5.03128 8.45379 4.48461C8.57017 4.13549 8.89689 3.90001 9.26489 3.90001H14.7351C15.1031 3.90001 15.4298 4.13549 15.5462 4.48461C15.7284 5.03128 16.24 5.40001 16.8162 5.40001H17.75C18.1117 5.40001 18.338 5.40049 18.5094 5.41219C18.6728 5.42334 18.7197 5.44158 18.7296 5.44568C18.8766 5.50657 18.9934 5.62338 19.0543 5.7704C19.0584 5.78028 19.0766 5.82718 19.0878 5.99054C19.0978 6.13696 19.0996 6.32336 19.0999 6.60001H4.90004Z" fill="#3F8AE0"/>
</svg>
