<svg width="24" height="24" viewBox="0 0 24 24" fill="none" xmlns="http://www.w3.org/2000/svg">
<path fill-rule="evenodd" clip-rule="evenodd" d="M5.14641 3.63427C5.90856 3.22667 6.65822 3.10001 8.22787 3.10001H15.7723C17.342 3.10001 18.0916 3.22667 18.8538 3.63427C19.5033 3.98164 20.0185 4.49678 20.3658 5.14631C20.7734 5.90847 20.9001 6.65813 20.9001 8.22778V15.7722C20.9001 17.3419 20.7734 18.0915 20.3658 18.8537C20.0185 19.5032 19.5033 20.0184 18.8538 20.3657C18.0916 20.7733 17.342 20.9 15.7723 20.9H8.22787C6.65822 20.9 5.90856 20.7733 5.14641 20.3657C4.49687 20.0184 3.98174 19.5032 3.63436 18.8537C3.22676 18.0915 3.1001 17.3419 3.1001 15.7722V8.22778C3.1001 6.65813 3.22676 5.90846 3.63436 5.14631C3.98174 4.49678 4.49687 3.98165 5.14641 3.63427ZM8.22787 4.90001C6.7412 4.90001 6.35727 5.02795 5.99528 5.22154C5.65944 5.40115 5.40124 5.65934 5.22163 5.99519C5.02804 6.35717 4.9001 6.74111 4.9001 8.22778V15.7722C4.9001 17.2589 5.02804 17.6428 5.22163 18.0048C5.40124 18.3407 5.65944 18.5989 5.99528 18.7785C6.35727 18.9721 6.7412 19.1 8.22787 19.1H15.7723C17.259 19.1 17.6429 18.9721 18.0049 18.7785C18.3408 18.5989 18.599 18.3407 18.7786 18.0048C18.9722 17.6428 19.1001 17.2589 19.1001 15.7722V8.22778C19.1001 6.74111 18.9722 6.35717 18.7786 5.99519C18.599 5.65934 18.3408 5.40115 18.0049 5.22154C17.6429 5.02795 17.259 4.90001 15.7723 4.90001H8.22787Z" fill="#2688EB"/>
<path d="M9.80017 15.7C9.80017 16.5284 9.1286 17.2 8.30017 17.2C7.47174 17.2 6.80017 16.5284 6.80017 15.7C6.80017 14.8716 7.47174 14.2 8.30017 14.2C9.1286 14.2 9.80017 14.8716 9.80017 15.7Z" fill="#2688EB"/>
<path d="M9.80017 8.3C9.80017 9.12843 9.1286 9.8 8.30017 9.8C7.47174 9.8 6.80017 9.12843 6.80017 8.3C6.80017 7.47158 7.47174 6.8 8.30017 6.8C9.1286 6.8 9.80017 7.47158 9.80017 8.3Z" fill="#2688EB"/>
<path d="M17.2001 8.3C17.2001 9.12843 16.5285 9.8 15.7001 9.8C14.8716 9.8 14.2001 9.12843 14.2001 8.3C14.2001 7.47158 14.8716 6.8 15.7001 6.8C16.5285 6.8 17.2001 7.47158 17.2001 8.3Z" fill="#2688EB"/>
<path d="M17.2001 15.7C17.2001 16.5284 16.5285 17.2 15.7001 17.2C14.8716 17.2 14.2001 16.5284 14.2001 15.7C14.2001 14.8716 14.8716 14.2 15.7001 14.2C16.5285 14.2 17.2001 14.8716 17.2001 15.7Z" fill="#2688EB"/>
<path d="M13.5001 12C13.5001 12.8284 12.8285 13.5 12.0001 13.5C11.1717 13.5 10.5001 12.8284 10.5001 12C10.5001 11.1716 11.1717 10.5 12.0001 10.5C12.8285 10.5 13.5001 11.1716 13.5001 12Z" fill="#2688EB"/>
</svg>
