<svg width="24" height="24" viewBox="0 0 24 24" fill="none" xmlns="http://www.w3.org/2000/svg">
<path fill-rule="evenodd" clip-rule="evenodd" d="M9.71317 3.07154C10.9633 1.77777 13.0368 1.77777 14.2869 3.07154L14.5122 3.30466C14.8114 3.61438 15.2366 3.76912 15.6649 3.72423L15.9667 3.69259C17.7672 3.50387 19.3656 4.8451 19.4924 6.65102L19.5137 6.95375C19.5438 7.38336 19.7701 7.77518 20.127 8.01611L20.3786 8.18589C21.8792 9.19866 22.2415 11.2535 21.1778 12.7185L20.9995 12.964C20.7465 13.3125 20.6679 13.7581 20.7865 14.1721L20.87 14.4638C21.3685 16.2042 20.3253 18.0113 18.5688 18.4497L18.2744 18.5232C17.8565 18.6275 17.5099 18.9184 17.3346 19.3117L17.2111 19.5889C16.4743 21.2426 14.5136 21.9562 12.8862 21.1631L12.6134 21.0301C12.2263 20.8415 11.7738 20.8415 11.3867 21.0301L11.1139 21.1631C9.4865 21.9562 7.52577 21.2426 6.78895 19.5889L6.66543 19.3117C6.49015 18.9184 6.14356 18.6275 5.72572 18.5232L5.43128 18.4497C3.67481 18.0113 2.63152 16.2042 3.13003 14.4638L3.21359 14.1721C3.33218 13.7581 3.25362 13.3125 3.00058 12.964L2.82227 12.7185C1.75858 11.2535 2.12091 9.19866 3.62149 8.18589L3.87303 8.01611C4.23 7.77518 4.45622 7.38336 4.48639 6.95375L4.50764 6.65102C4.63445 4.8451 6.23285 3.50387 8.03336 3.69259L8.33518 3.72423C8.7635 3.76912 9.18866 3.61438 9.48791 3.30467L9.71317 3.07154ZM12.9924 4.3223C12.45 3.76085 11.5501 3.76085 11.0076 4.3223L10.7824 4.55542C10.0983 5.26334 9.12657 5.61704 8.14754 5.51442L7.84572 5.48279C7.058 5.40022 6.3587 5.98701 6.30322 6.7771L6.28196 7.07983C6.21301 8.0618 5.69594 8.95739 4.88 9.50809L4.62846 9.67787C3.97196 10.121 3.81344 11.02 4.27881 11.6609L4.45711 11.9064C5.03549 12.703 5.21507 13.7214 4.94401 14.6678L4.86044 14.9595C4.64235 15.7209 5.09878 16.5115 5.86724 16.7033L6.16168 16.7768C7.11676 17.0152 7.90896 17.68 8.30961 18.5791L8.43312 18.8563C8.75548 19.5798 9.6133 19.892 10.3253 19.545L10.5981 19.4121C11.483 18.9808 12.5171 18.9808 13.402 19.4121L13.6748 19.545C14.3868 19.892 15.2446 19.5798 15.567 18.8563L15.6905 18.5791C16.0911 17.68 16.8833 17.0152 17.8384 16.7768L18.1328 16.7033C18.9013 16.5115 19.3577 15.7209 19.1396 14.9595L19.0561 14.6678C18.785 13.7214 18.9646 12.703 19.543 11.9064L19.7213 11.6609C20.1866 11.02 20.0281 10.121 19.3716 9.67786L19.1201 9.50809C18.3041 8.95739 17.7871 8.0618 17.7181 7.07982L17.6968 6.7771C17.6414 5.98701 16.9421 5.40022 16.1543 5.48279L15.8525 5.51442C14.8735 5.61704 13.9017 5.26334 13.2177 4.55542L12.9924 4.3223Z" fill="#3F8AE0"/>
<path fill-rule="evenodd" clip-rule="evenodd" d="M9.44998 10.225V9.675C9.44998 9.46789 9.28209 9.3 9.07498 9.3C8.86787 9.3 8.69998 9.46789 8.69998 9.675V10.225C8.69998 10.4321 8.86787 10.6 9.07498 10.6C9.28209 10.6 9.44998 10.4321 9.44998 10.225ZM9.07498 8C8.1499 8 7.39998 8.74992 7.39998 9.675V10.225C7.39998 11.1501 8.1499 11.9 9.07498 11.9C10.0001 11.9 10.75 11.1501 10.75 10.225V9.675C10.75 8.74992 10.0001 8 9.07498 8Z" fill="#3F8AE0"/>
<path fill-rule="evenodd" clip-rule="evenodd" d="M15.3 14.3238V13.7738C15.3 13.5666 15.1321 13.3988 14.925 13.3988C14.7179 13.3988 14.55 13.5666 14.55 13.7738V14.3238C14.55 14.5309 14.7179 14.6988 14.925 14.6988C15.1321 14.6988 15.3 14.5309 15.3 14.3238ZM14.925 12.0988C13.9999 12.0988 13.25 12.8487 13.25 13.7738V14.3238C13.25 15.2488 13.9999 15.9988 14.925 15.9988C15.8501 15.9988 16.6 15.2488 16.6 14.3238V13.7738C16.6 12.8487 15.8501 12.0988 14.925 12.0988Z" fill="#3F8AE0"/>
<path fill-rule="evenodd" clip-rule="evenodd" d="M14.621 8.0858C14.9326 8.29045 15.0193 8.70895 14.8146 9.02055L10.4142 15.7205C10.2096 16.0321 9.79108 16.1188 9.47949 15.9142C9.16789 15.7095 9.08119 15.291 9.28584 14.9795L13.6862 8.27945C13.8909 7.96785 14.3094 7.88115 14.621 8.0858Z" fill="#3F8AE0"/>
</svg>
