<svg width="24" height="24" viewBox="0 0 24 24" fill="none" xmlns="http://www.w3.org/2000/svg">
<path fill-rule="evenodd" clip-rule="evenodd" d="M13 3.80011H10.5C9.50506 3.80011 8.81298 3.80081 8.2745 3.84481C7.74652 3.88795 7.44595 3.96818 7.21963 4.0835C6.7304 4.33277 6.33265 4.73052 6.08338 5.21974C5.96807 5.44606 5.88783 5.74663 5.8447 6.27461C5.8007 6.81309 5.8 7.50517 5.8 8.50011V15.3001C5.8 16.2951 5.8007 16.9871 5.8447 17.5256C5.88783 18.0536 5.96807 18.3542 6.08338 18.5805C6.33265 19.0697 6.7304 19.4675 7.21963 19.7167C7.44595 19.832 7.74652 19.9123 8.2745 19.9554C8.81298 19.9994 9.50506 20.0001 10.5 20.0001H14.3C15.2949 20.0001 15.987 19.9994 16.5255 19.9554C17.0535 19.9123 17.3541 19.832 17.5804 19.7167C18.0696 19.4675 18.4673 19.0697 18.7166 18.5805C18.8319 18.3542 18.9122 18.0536 18.9553 17.5256C18.9993 16.9871 19 16.2951 19 15.3001V9.80011H17.1L17.0646 9.80011C16.5347 9.80013 16.0835 9.80014 15.7131 9.76987C15.324 9.73808 14.9454 9.66845 14.5834 9.48403C14.0378 9.206 13.5941 8.76235 13.3161 8.21668C13.1317 7.85475 13.062 7.47616 13.0302 7.087C13 6.71656 13 6.26538 13 5.73552L13 5.70011V3.80011ZM18.2272 8.00011L14.8 4.5729V5.70011C14.8 6.27502 14.8007 6.65207 14.8243 6.94042C14.847 7.21827 14.8863 7.33361 14.9199 7.3995C15.0254 7.60648 15.1936 7.77476 15.4006 7.88022C15.4665 7.91379 15.5818 7.95315 15.8597 7.97585C16.148 7.99941 16.5251 8.00011 17.1 8.00011H18.2272ZM14.3389 2.06642C14.0595 1.99933 13.7727 1.99968 13.4731 2.00005L13.4059 2.00011H10.5H10.4616C9.51409 2.0001 8.74834 2.0001 8.12792 2.05079C7.48863 2.10302 6.92481 2.21352 6.40244 2.47968C5.57453 2.90153 4.90141 3.57464 4.47957 4.40255C4.21341 4.92492 4.10291 5.48874 4.05067 6.12803C3.99998 6.74845 3.99999 7.5142 4 8.4617V8.50011V15.3001V15.3385C3.99999 16.286 3.99998 17.0518 4.05067 17.6722C4.10291 18.3115 4.21341 18.8753 4.47957 19.3977C4.90141 20.2256 5.57453 20.8987 6.40244 21.3205C6.92481 21.5867 7.48863 21.6972 8.12792 21.7494C8.74834 21.8001 9.51409 21.8001 10.4616 21.8001H10.5H14.3H14.3384C15.2859 21.8001 16.0517 21.8001 16.6721 21.7494C17.3114 21.6972 17.8752 21.5867 18.3976 21.3205C19.2255 20.8987 19.8986 20.2256 20.3204 19.3977C20.5866 18.8753 20.6971 18.3115 20.7493 17.6722C20.8 17.0518 20.8 16.286 20.8 15.3385V15.3001V9.39422L20.8001 9.32702C20.8004 9.0274 20.8008 8.74064 20.7337 8.46116C20.6749 8.21628 20.5779 7.98217 20.4463 7.76743C20.2962 7.52238 20.0931 7.31986 19.881 7.10826L19.8335 7.06077L15.7393 2.96666L15.6919 2.9191C15.4803 2.70697 15.2777 2.50395 15.0327 2.35378C14.8179 2.22219 14.5838 2.12522 14.3389 2.06642Z" fill="#2688EB"/>
</svg>
