<svg width="24" height="24" viewBox="0 0 24 24" fill="none" xmlns="http://www.w3.org/2000/svg">
<path fill-rule="evenodd" clip-rule="evenodd" d="M4.99962 4.99965C6.79018 3.20909 9.26641 2.10001 12 2.10001C14.7335 2.10001 17.2098 3.20909 19.0003 4.99965C20.7909 6.79021 21.9 9.26644 21.9 12C21.9 14.7336 20.7909 17.2098 19.0003 19.0004C17.2098 20.7909 14.7335 21.9 12 21.9C9.26641 21.9 6.79018 20.7909 4.99962 19.0004C3.20906 17.2098 2.09998 14.7336 2.09998 12C2.09998 9.26645 3.20906 6.79021 4.99962 4.99965ZM12 3.90001C9.76297 3.90001 7.73921 4.80564 6.27241 6.27244C4.80561 7.73924 3.89998 9.763 3.89998 12C3.89998 14.237 4.80561 16.2608 6.27241 17.7276C7.73921 19.1944 9.76297 20.1 12 20.1C14.237 20.1 16.2607 19.1944 17.7275 17.7276C19.1943 16.2608 20.1 14.237 20.1 12C20.1 9.763 19.1943 7.73924 17.7275 6.27244C16.2607 4.80564 14.237 3.90001 12 3.90001Z" fill="#2688EB"/>
<path fill-rule="evenodd" clip-rule="evenodd" d="M9.74761 7.76821C10.3735 7.30505 11.1655 7.10001 11.9277 7.10001C13.18 7.10001 14.5376 7.64253 15.015 8.89954C15.1915 9.36421 14.9578 9.88397 14.4932 10.0605C14.0285 10.2369 13.5087 10.0033 13.3323 9.53863C13.2288 9.26619 12.7935 8.90001 11.9277 8.90001C11.4649 8.90001 11.0716 9.02771 10.8184 9.2151C10.5902 9.38398 10.457 9.60811 10.457 9.93672C10.457 10.1331 10.4997 10.2449 10.5422 10.3161C10.5876 10.3922 10.6655 10.4757 10.8085 10.5657C11.132 10.7691 11.601 10.901 12.2591 11.0754C12.2773 11.0803 12.2957 11.0851 12.3142 11.09C12.8874 11.2417 13.626 11.4372 14.2121 11.8115C14.533 12.0165 14.84 12.2925 15.0633 12.6721C15.2892 13.056 15.4 13.496 15.4 13.9809C15.4 15.0135 14.8793 15.7826 14.1676 16.2578C13.4872 16.7122 12.6423 16.9 11.8665 16.9C10.6026 16.9 9.43453 16.4513 8.75801 15.4659C8.47668 15.0562 8.5808 14.4959 8.99057 14.2146C9.40035 13.9332 9.9606 14.0374 10.2419 14.4471C10.4846 14.8006 10.9983 15.1 11.8665 15.1C12.3828 15.1 12.8546 14.9702 13.168 14.7609C13.45 14.5726 13.6 14.3321 13.6 13.9809C13.6 13.7779 13.5563 13.6604 13.5119 13.5848C13.4649 13.505 13.3857 13.4195 13.2432 13.3285C12.9215 13.1231 12.4534 12.9891 11.7979 12.8154C11.7745 12.8092 11.7508 12.8029 11.7267 12.7965C11.1583 12.6463 10.4291 12.4535 9.85019 12.0893C9.52984 11.8879 9.22157 11.6155 8.99667 11.2388C8.76886 10.8572 8.65703 10.4194 8.65703 9.93672C8.65703 8.99412 9.09674 8.24989 9.74761 7.76821Z" fill="#2688EB"/>
<path fill-rule="evenodd" clip-rule="evenodd" d="M12 5.60001C12.497 5.60001 12.9 6.00295 12.9 6.50001V7.50001C12.9 7.99706 12.497 8.40001 12 8.40001C11.5029 8.40001 11.1 7.99706 11.1 7.50001V6.50001C11.1 6.00295 11.5029 5.60001 12 5.60001Z" fill="#2688EB"/>
<path fill-rule="evenodd" clip-rule="evenodd" d="M12 15.6C12.497 15.6 12.9 16.003 12.9 16.5V17.5C12.9 17.9971 12.497 18.4 12 18.4C11.5029 18.4 11.1 17.9971 11.1 17.5V16.5C11.1 16.003 11.5029 15.6 12 15.6Z" fill="#2688EB"/>
</svg>
