<svg width="24" height="24" viewBox="0 0 24 24" fill="none" xmlns="http://www.w3.org/2000/svg">
<path fill-rule="evenodd" clip-rule="evenodd" d="M4.92893 4.92896C6.73759 3.1203 9.23882 2.00002 12 2.00002C14.7612 2.00002 17.2624 3.1203 19.0711 4.92896C20.8797 6.73761 22 9.23885 22 12C22 14.7612 20.8797 17.2624 19.0711 19.0711C17.2624 20.8797 14.7612 22 12 22C9.23882 22 6.73759 20.8797 4.92893 19.0711C3.12027 17.2624 2 14.7612 2 12C2 9.23885 3.12027 6.73761 4.92893 4.92896ZM12 3.80002C9.73538 3.80002 7.68662 4.71685 6.20172 6.20175C4.71683 7.68664 3.8 9.73541 3.8 12C3.8 14.2646 4.71683 16.3134 6.20172 17.7983C7.68662 19.2832 9.73538 20.2 12 20.2C14.2646 20.2 16.3134 19.2832 17.7983 17.7983C19.2832 16.3134 20.2 14.2646 20.2 12C20.2 9.73541 19.2832 7.68664 17.7983 6.20175C16.3134 4.71685 14.2646 3.80002 12 3.80002Z" fill="#2688EB"/>
<path fill-rule="evenodd" clip-rule="evenodd" d="M12 6.0047C12.6868 6.0047 13.3141 6.39398 13.6181 7.00885L14.402 8.59462L16.155 8.84891C16.8347 8.94751 17.3994 9.42279 17.6116 10.0749C17.8239 10.727 17.6468 11.4429 17.155 11.9215L15.8866 13.1559L16.186 14.8988C16.3021 15.5746 16.0238 16.2576 15.4682 16.6607C14.9125 17.0637 14.1758 17.1168 13.5679 16.7978L12 15.9749L10.4321 16.7978C9.82414 17.1168 9.08746 17.0637 8.5318 16.6607C7.97613 16.2576 7.69785 15.5746 7.81395 14.8988L8.11339 13.1559L6.84494 11.9215C6.35311 11.4429 6.1761 10.727 6.38834 10.0749C6.60059 9.42279 7.16528 8.94751 7.84498 8.84891L9.59794 8.59462L10.3819 7.00885C10.6859 6.39398 11.3131 6.0047 12 6.0047ZM12 7.80608L13.2038 10.2411L15.8955 10.6316L13.9477 12.527L14.4075 15.2033L12 13.9397L9.59241 15.2033L10.0522 12.527L8.10446 10.6316L10.7962 10.2411L12 7.80608Z" fill="#2688EB"/>
</svg>
