<svg width="24" height="24" viewBox="0 0 24 24" fill="none" xmlns="http://www.w3.org/2000/svg">
<path fill-rule="evenodd" clip-rule="evenodd" d="M5.06946 3.54034C5.83903 3.12902 6.59616 3.00076 8.18584 3.00076H11.1032C11.6005 3.00076 12.0036 3.40371 12.0036 3.90076C12.0036 4.39782 11.6005 4.80076 11.1032 4.80076H8.18584C6.67915 4.80076 6.28784 4.9303 5.91855 5.12768C5.5763 5.3106 5.31311 5.57365 5.1301 5.91565C4.93265 6.28463 4.80304 6.67562 4.80304 8.18138V15.8201C4.80304 17.3259 4.93265 17.7169 5.1301 18.0859C5.31311 18.4279 5.5763 18.6909 5.91855 18.8739C6.28784 19.0712 6.67915 19.2008 8.18584 19.2008H11.1032C11.6005 19.2008 12.0036 19.6037 12.0036 20.1008C12.0036 20.5978 11.6005 21.0008 11.1032 21.0008H8.18584C6.59616 21.0008 5.83903 20.8725 5.06946 20.4612C4.41342 20.1105 3.89315 19.5906 3.54227 18.9349C3.13065 18.1657 3.00232 17.4089 3.00232 15.8201V8.18138C3.00232 6.59261 3.13065 5.83584 3.54227 5.06664C3.89315 4.41094 4.41342 3.89099 5.06946 3.54034Z" fill="#2688EB"/>
<path fill-rule="evenodd" clip-rule="evenodd" d="M16.361 8.26059C16.7126 7.90911 17.2827 7.90911 17.6343 8.26058L20.7386 11.3636C20.9075 11.5324 21.0023 11.7613 21.0023 12C21.0023 12.2387 20.9075 12.4676 20.7386 12.6364L17.6343 15.7394C17.2827 16.0909 16.7126 16.0909 16.361 15.7394C16.0094 15.3879 16.0094 14.8181 16.361 14.4666L17.9283 12.9H10.9032C10.4059 12.9 10.0028 12.497 10.0028 12C10.0028 11.5029 10.4059 11.1 10.9032 11.1H17.9283L16.361 9.53338C16.0094 9.18191 16.0094 8.61206 16.361 8.26059Z" fill="#2688EB"/>
</svg>
