<svg width="24" height="24" viewBox="0 0 24 24" fill="none" xmlns="http://www.w3.org/2000/svg">
<path fill-rule="evenodd" clip-rule="evenodd" d="M14.2 4.89998C14.7049 4.89998 15.0294 4.90068 15.2761 4.92083C15.5122 4.94013 15.5967 4.97267 15.6359 4.99262C15.7958 5.07411 15.9258 5.20415 16.0073 5.36409C16.0273 5.40324 16.0598 5.48771 16.0791 5.72387C16.0993 5.97054 16.1 6.29508 16.1 6.79998V8.19998C16.1 8.70487 16.0993 9.02942 16.0791 9.27609C16.0598 9.51225 16.0273 9.59672 16.0073 9.63587C15.9258 9.79581 15.7958 9.92584 15.6359 10.0073C15.5967 10.0273 15.5122 10.0598 15.2761 10.0791C15.0294 10.0993 14.7049 10.1 14.2 10.1H7.49998C6.06404 10.1 4.89998 8.93592 4.89998 7.49998C4.89998 6.06404 6.06404 4.89998 7.49998 4.89998H14.2ZM16.4531 3.38881C16.1179 3.21802 15.7701 3.1552 15.4227 3.12681C15.0939 3.09995 14.6951 3.09996 14.2345 3.09998H14.2345H14.2H7.49998C5.06992 3.09998 3.09998 5.06993 3.09998 7.49998C3.09998 9.73191 4.7618 11.5757 6.9156 11.8615L5.50812 19.1H3.99998C3.50292 19.1 3.09998 19.5029 3.09998 20C3.09998 20.497 3.50292 20.9 3.99998 20.9H15C15.497 20.9 15.9 20.497 15.9 20C15.9 19.5029 15.497 19.1 15 19.1H11.3418L12.7418 11.9H14.2L14.2345 11.9H14.2345H14.2345H14.2345H14.2345H14.2345C14.6951 11.9 15.0939 11.9 15.4227 11.8731C15.7701 11.8448 16.1179 11.7819 16.4531 11.6111C16.9517 11.3571 17.3571 10.9517 17.6111 10.4531C17.6201 10.4354 17.6288 10.4177 17.6372 10.4H18C19.2874 10.4 20.3789 9.56102 20.7576 8.39998H22.1C22.597 8.39998 23 7.99703 23 7.49998C23 7.00292 22.597 6.59998 22.1 6.59998H20.7576C20.3789 5.43894 19.2874 4.59998 18 4.59998H17.6372C17.6288 4.58225 17.6201 4.56456 17.6111 4.5469C17.3571 4.04827 16.9517 3.64288 16.4531 3.38881ZM19.1 7.49998C19.1 6.89246 18.6075 6.39998 18 6.39998H17.8994C17.9 6.51697 17.9 6.6388 17.9 6.76529V6.7654V6.76542V6.76544V6.76546V6.76548V6.79998V8.19998V8.23447V8.23449V8.23451V8.23453V8.23455V8.23467C17.9 8.36116 17.9 8.48298 17.8994 8.59998H18C18.6075 8.59998 19.1 8.10749 19.1 7.49998ZM10.9081 11.9H8.74183L7.34183 19.1H9.50812L10.9081 11.9Z" fill="#2688EB"/>
</svg>
