<svg width="24" height="24" viewBox="0 0 24 24" fill="none" xmlns="http://www.w3.org/2000/svg">
<path fill-rule="evenodd" clip-rule="evenodd" d="M3.96221 8.89561L10.4171 5.22187C11.3984 4.66336 12.6015 4.66336 13.5828 5.22188L20.0377 8.89561C20.0704 8.91425 20.0795 8.9289 20.0838 8.93675C20.091 8.94955 20.0983 8.97132 20.0983 8.9999C20.0983 9.02848 20.091 9.05025 20.0838 9.06306C20.0795 9.07091 20.0704 9.08556 20.0377 9.1042L13.5828 12.7779C12.6015 13.3364 11.3984 13.3364 10.4171 12.7779L3.96221 9.1042C3.92946 9.08556 3.92043 9.07091 3.91605 9.06306C3.90891 9.05025 3.90156 9.02848 3.90156 8.9999C3.90156 8.97133 3.90891 8.94955 3.91605 8.93675C3.92043 8.9289 3.92946 8.91425 3.96221 8.89561ZM3.07186 10.6686C1.77813 9.93226 1.77813 8.06755 3.07186 7.33123L9.52675 3.6575C11.0601 2.78482 12.9398 2.78482 14.4731 3.6575L20.928 7.33124C21.5742 7.69902 21.8977 8.34832 21.8983 8.99792L21.9 8.99996V13.1C21.9 13.597 21.497 14 21 14C20.5029 14 20.1 13.597 20.1 13.1V11.1399L14.4731 14.3423C12.9398 15.215 11.0601 15.215 9.52675 14.3423L3.07186 10.6686Z" fill="#2688EB"/>
<path fill-rule="evenodd" clip-rule="evenodd" d="M17.2 11.0999V13.1083C17.2 14.5233 17.1993 15.5304 17.1349 16.319C17.0713 17.0971 16.9502 17.5829 16.7532 17.9697C16.3601 18.7412 15.7329 19.3684 14.9614 19.7615C14.5746 19.9585 14.0888 20.0796 13.3107 20.1432C12.9314 20.1742 12.5015 20.1904 12 20.199V21.9992C12.5434 21.9902 13.0261 21.9725 13.4573 21.9372C14.3467 21.8646 15.0958 21.7132 15.7786 21.3653C16.8887 20.7996 17.7913 19.897 18.357 18.7869C18.7049 18.1041 18.8563 17.355 18.9289 16.4656C19 15.5951 19 14.5146 19 13.1481V11.0999H17.2Z" fill="#2688EB"/>
<path fill-rule="evenodd" clip-rule="evenodd" d="M6.90008 11.0999V13.11C6.90008 14.5249 6.90078 15.532 6.96522 16.3207C7.02879 17.0988 7.14989 17.5846 7.34696 17.9713C7.74004 18.7428 8.36726 19.37 9.13872 19.7631C9.52548 19.9601 10.0113 20.0812 10.7894 20.1448C11.1432 20.1737 11.541 20.19 12 20.199V21.9992C11.4971 21.9897 11.0473 21.9719 10.6428 21.9388C9.75339 21.8662 9.00434 21.7148 8.32154 21.3669C7.21138 20.8012 6.3088 19.8987 5.74314 18.7885C5.39524 18.1057 5.24386 17.3567 5.17119 16.4672C5.10007 15.5967 5.10008 14.5162 5.10008 13.1497V11.0999H6.90008Z" fill="#2688EB"/>
</svg>
