<svg width="24" height="24" viewBox="0 0 24 24" fill="none" xmlns="http://www.w3.org/2000/svg">
<path fill-rule="evenodd" clip-rule="evenodd" d="M12.9 1.99998C12.9 1.50292 12.497 1.09998 12 1.09998C11.5029 1.09998 11.1 1.50292 11.1 1.99998V2.17464C8.8052 2.55963 7.0012 4.39194 6.65869 6.70083L6.58935 6.68971C6.45071 6.66722 6.34503 6.64867 6.27522 6.63598C6.24032 6.62963 6.2144 6.62475 6.19782 6.62158L6.18 6.61814L6.17647 6.61745C5.68922 6.52025 5.2149 6.83621 5.11745 7.32347C5.01997 7.81087 5.33606 8.28502 5.82346 8.3825L5.82485 8.38277L5.82716 8.38323L5.8345 8.38468L5.85998 8.3896C5.88173 8.39375 5.91294 8.39962 5.95323 8.40694C6.03382 8.42159 6.15079 8.4421 6.30122 8.4665C6.56027 8.5085 6.91878 8.56208 7.3617 8.61713C7.35393 8.72706 7.34998 8.83805 7.34998 8.94996C7.34998 11.5189 9.43104 13.6 12 13.6C14.5689 13.6 16.65 11.5189 16.65 8.94996C16.65 8.83805 16.646 8.72706 16.6383 8.61713C17.0812 8.56208 17.4397 8.5085 17.6987 8.4665C17.8491 8.4421 17.9661 8.42159 18.0467 8.40694C18.087 8.39962 18.1182 8.39375 18.14 8.3896L18.1654 8.38468L18.1728 8.38323L18.1751 8.38277L18.1762 8.38255C18.6636 8.28507 18.98 7.81087 18.8825 7.32347C18.785 6.83613 18.311 6.52006 17.8237 6.61741L17.8199 6.61814L17.8021 6.62158C17.7855 6.62475 17.7596 6.62963 17.7247 6.63598C17.6549 6.64867 17.5492 6.66722 17.4106 6.68971L17.3412 6.70083C16.9987 4.39194 15.1947 2.55963 12.9 2.17464V1.99998ZM11.1001 4.01337C11.1072 4.50425 11.5074 4.89998 12 4.89998C12.4926 4.89998 12.8927 4.50425 12.8999 4.01337C14.272 4.36648 15.3275 5.50815 15.5545 6.92647C14.5923 7.02085 13.3752 7.09998 12 7.09998C10.6248 7.09998 9.40768 7.02085 8.4454 6.92647C8.67246 5.50815 9.72798 4.36647 11.1001 4.01337ZM9.15416 8.79404C9.15138 8.84566 9.14998 8.89765 9.14998 8.94996C9.14998 10.5248 10.4252 11.8 12 11.8C13.5748 11.8 14.85 10.5248 14.85 8.94996C14.85 8.89764 14.8486 8.84566 14.8458 8.79404C14.0103 8.85613 13.049 8.89998 12 8.89998C10.9509 8.89998 9.98962 8.85613 9.15416 8.79404ZM5.92766 20.0808C5.88723 20.0459 5.88947 19.9615 5.89471 19.7647C5.89704 19.6769 5.89998 19.5667 5.89998 19.4285C5.89998 17.5359 8.67817 16.4 12 16.4C15.3218 16.4 18.1 17.5359 18.1 19.4285C18.1 19.5667 18.1029 19.6769 18.1052 19.7647C18.1105 19.9615 18.1127 20.0459 18.0723 20.0808C18.0419 20.107 17.9876 20.1053 17.8924 20.1024C17.8561 20.1013 17.8138 20.1 17.7647 20.1H6.23527C6.18614 20.1 6.14389 20.1013 6.10757 20.1024C6.01239 20.1053 5.95801 20.107 5.92766 20.0808ZM12 14.6C7.77276 14.6 4.09998 16.1017 4.09998 19.4285C4.09998 21.1641 4.78551 21.9 6.23527 21.9H17.7647C19.2144 21.9 19.9 21.1641 19.9 19.4285C19.9 16.1017 16.2272 14.6 12 14.6Z" fill="#2688EB"/>
</svg>
