<svg width="24" height="24" viewBox="0 0 24 24" fill="none" xmlns="http://www.w3.org/2000/svg">
<path fill-rule="evenodd" clip-rule="evenodd" d="M3.89998 12C3.89998 7.5265 7.52647 3.90001 12 3.90001C16.4735 3.90001 20.1 7.5265 20.1 12C20.1 16.4735 16.4735 20.1 12 20.1C7.52647 20.1 3.89998 16.4735 3.89998 12ZM12 2.10001C6.53236 2.10001 2.09998 6.53239 2.09998 12C2.09998 17.4676 6.53236 21.9 12 21.9C17.4676 21.9 21.9 17.4676 21.9 12C21.9 6.53239 17.4676 2.10001 12 2.10001ZM12.9 7.90001C12.9 7.40295 12.497 7.00001 12 7.00001C11.5029 7.00001 11.1 7.40295 11.1 7.90001V13.1C11.1 13.5971 11.5029 14 12 14C12.497 14 12.9 13.5971 12.9 13.1V7.90001ZM13 16C13 16.5523 12.5523 17 12 17C11.4477 17 11 16.5523 11 16C11 15.4477 11.4477 15 12 15C12.5523 15 13 15.4477 13 16Z" fill="#3F8AE0"/>
</svg>
