<svg width="24" height="24" viewBox="0 0 24 24" fill="none" xmlns="http://www.w3.org/2000/svg">
<path fill-rule="evenodd" clip-rule="evenodd" d="M5.14628 3.63427C5.90843 3.22667 6.6581 3.10001 8.22775 3.10001H10.1C10.597 3.10001 11 3.50295 11 4.00001C11 4.49706 10.597 4.90001 10.1 4.90001H8.22775C6.74108 4.90001 6.35714 5.02795 5.99516 5.22154C5.65931 5.40115 5.40112 5.65934 5.2215 5.99519C5.02791 6.35717 4.89998 6.74111 4.89998 8.22778V15.7722C4.89998 17.2589 5.02791 17.6428 5.2215 18.0048C5.40112 18.3407 5.65931 18.5989 5.99516 18.7785C6.35714 18.9721 6.74108 19.1 8.22775 19.1H15.7722C17.2589 19.1 17.6428 18.9721 18.0048 18.7785C18.3406 18.5989 18.5988 18.3407 18.7784 18.0048C18.972 17.6428 19.1 17.2589 19.1 15.7722V13.9C19.1 13.4029 19.5029 13 20 13C20.497 13 20.9 13.4029 20.9 13.9V15.7722C20.9 17.3419 20.7733 18.0915 20.3657 18.8537C20.0183 19.5032 19.5032 20.0184 18.8537 20.3657C18.0915 20.7733 17.3419 20.9 15.7722 20.9H8.22775C6.6581 20.9 5.90843 20.7733 5.14628 20.3657C4.49675 20.0184 3.98161 19.5032 3.63424 18.8537C3.22664 18.0915 3.09998 17.3419 3.09998 15.7722V8.22778C3.09998 6.65813 3.22664 5.90846 3.63424 5.14631C3.98161 4.49678 4.49675 3.98165 5.14628 3.63427Z" fill="#2688EB"/>
<path fill-rule="evenodd" clip-rule="evenodd" d="M14 4.00001C14 3.50295 14.4029 3.10001 14.9 3.10001H20C20.4971 3.10001 20.9 3.50295 20.9 4.00001V9.10001C20.9 9.59706 20.4971 10 20 10C19.5029 10 19.1 9.59706 19.1 9.10001V6.1728L12.5364 12.7364C12.1849 13.0879 11.6151 13.0879 11.2636 12.7364C10.9121 12.3849 10.9121 11.8151 11.2636 11.4636L17.8272 4.90001H14.9C14.4029 4.90001 14 4.49706 14 4.00001Z" fill="#2688EB"/>
</svg>
