<svg width="24" height="24" viewBox="0 0 24 24" fill="none" xmlns="http://www.w3.org/2000/svg">
<path fill-rule="evenodd" clip-rule="evenodd" d="M23 17C23 14.2386 20.7614 12 18 12C15.2386 12 13 14.2386 13 17C13 19.7614 15.2386 22 18 22C20.7614 22 23 19.7614 23 17ZM17.1723 14.2361C17.2204 13.8217 17.5726 13.5 18 13.5C18.4602 13.5 18.8333 13.8731 18.8333 14.3333V16.1667H20.6667L20.7639 16.1723C21.1783 16.2204 21.5 16.5726 21.5 17C21.5 17.4602 21.1269 17.8333 20.6667 17.8333H18.8333V19.6667L18.8277 19.7639C18.7796 20.1783 18.4274 20.5 18 20.5C17.5398 20.5 17.1667 20.1269 17.1667 19.6667V17.8333H15.3333L15.2361 17.8277C14.8217 17.7796 14.5 17.4274 14.5 17C14.5 16.5398 14.8731 16.1667 15.3333 16.1667H17.1667V14.3333L17.1723 14.2361Z" fill="#3F8AE0"/>
<path d="M14.5383 2.09985H9.46092C8.44365 2.09985 7.62542 2.09984 6.96333 2.15393C6.28235 2.20957 5.68766 2.32689 5.13855 2.60667C4.2636 3.05249 3.55224 3.76384 3.10643 4.6388C2.82665 5.1879 2.70933 5.7826 2.65369 6.46357C2.5996 7.12566 2.5996 7.94388 2.59961 8.96114V15.0385C2.5996 16.0558 2.5996 16.874 2.65369 17.5361C2.70933 18.2171 2.82665 18.8118 3.10643 19.3609C3.55224 20.2359 4.2636 20.9472 5.13855 21.393C5.68766 21.6728 6.28235 21.7901 6.96333 21.8458C7.62542 21.8999 8.44364 21.8999 9.46091 21.8999H11.418C11.9151 21.8999 12.318 21.4969 12.318 20.9999C12.318 20.5028 11.9151 20.0999 11.418 20.0999H9.49961C8.43466 20.0999 7.69008 20.0992 7.10991 20.0518C6.54024 20.0052 6.2088 19.9182 5.95574 19.7892C5.41948 19.516 4.98348 19.08 4.71024 18.5437C4.5813 18.2907 4.49426 17.9592 4.44771 17.3896C4.40031 16.8094 4.39961 16.0648 4.39961 14.9999V8.99985C4.39961 7.93491 4.40031 7.19032 4.44771 6.61015C4.49426 6.04049 4.5813 5.70904 4.71024 5.45598C4.98348 4.91972 5.41948 4.48373 5.95574 4.21049C6.2088 4.08154 6.54024 3.9945 7.10991 3.94796C7.69008 3.90055 8.43466 3.89985 9.49961 3.89985H14.4996C15.5646 3.89985 16.3091 3.90055 16.8893 3.94796C17.459 3.9945 17.7904 4.08154 18.0435 4.21049C18.5797 4.48373 19.0157 4.91972 19.289 5.45598C19.4179 5.70904 19.505 6.04049 19.5515 6.61015C19.5989 7.19032 19.5996 7.93491 19.5996 8.99985V9.71008C19.5996 10.2071 20.0026 10.6101 20.4996 10.6101C20.9967 10.6101 21.3996 10.2071 21.3996 9.71009V8.96116C21.3996 7.94388 21.3996 7.12567 21.3455 6.46357C21.2899 5.7826 21.1726 5.1879 20.8928 4.6388C20.447 3.76384 19.7356 3.05249 18.8607 2.60667C18.3116 2.32689 17.7169 2.20957 17.0359 2.15393C16.3738 2.09984 15.5556 2.09985 14.5383 2.09985Z" fill="#3F8AE0"/>
<path d="M8.2496 5.74988H7.2496C6.83539 5.74988 6.4996 6.08566 6.4996 6.49988V7.49988C6.4996 7.91409 6.83539 8.24988 7.2496 8.24988H8.2496C8.66382 8.24988 8.9996 7.91409 8.9996 7.49988V6.49988C8.9996 6.08566 8.66382 5.74988 8.2496 5.74988Z" fill="#3F8AE0"/>
<path d="M8.2496 10.7499H7.2496C6.83539 10.7499 6.4996 11.0857 6.4996 11.4999V12.4999C6.4996 12.9141 6.83539 13.2499 7.2496 13.2499H8.2496C8.66382 13.2499 8.9996 12.9141 8.9996 12.4999V11.4999C8.9996 11.0857 8.66382 10.7499 8.2496 10.7499Z" fill="#3F8AE0"/>
<path d="M7.2496 15.7499H8.2496C8.66382 15.7499 8.9996 16.0857 8.9996 16.4999V17.4999C8.9996 17.9141 8.66382 18.2499 8.2496 18.2499H7.2496C6.83539 18.2499 6.4996 17.9141 6.4996 17.4999V16.4999C6.4996 16.0857 6.83539 15.7499 7.2496 15.7499Z" fill="#3F8AE0"/>
<path d="M15.7496 5.74988H16.7496C17.1638 5.74988 17.4996 6.08566 17.4996 6.49988V7.49988C17.4996 7.91409 17.1638 8.24988 16.7496 8.24988H15.7496C15.3354 8.24988 14.9996 7.91409 14.9996 7.49988V6.49988C14.9996 6.08566 15.3354 5.74988 15.7496 5.74988Z" fill="#3F8AE0"/>
</svg>
