<svg width="24" height="24" viewBox="0 0 24 24" fill="none" xmlns="http://www.w3.org/2000/svg">
<path fill-rule="evenodd" clip-rule="evenodd" d="M6.24234 8.90001C6.62102 10.061 7.71252 10.9 8.99998 10.9C10.2874 10.9 11.3789 10.061 11.7576 8.90001C14.5051 8.90001 17.2525 8.90001 20 8.90001C20.497 8.90001 20.9 8.49706 20.9 8.00001C20.9 7.50295 20.497 7.10001 20 7.10001C17.2525 7.10001 14.5051 7.10001 11.7576 7.10001C11.7479 7.06964 11.7609 7.1101 11.7576 7.10001C11.3789 5.93897 10.2874 5.10001 8.99998 5.10001C7.71252 5.10001 6.62102 5.93897 6.24234 7.10001C5.49489 7.10001 4.74743 7.10001 3.99998 7.10001C3.50292 7.10001 3.09998 7.50295 3.09998 8.00001C3.09998 8.49706 3.50292 8.90001 3.99998 8.90001C4.74743 8.90001 5.49489 8.90001 6.24234 8.90001ZM8.99998 6.90001C8.39246 6.90001 7.89998 7.39249 7.89998 8.00001C7.89998 8.60752 8.39246 9.10001 8.99998 9.10001C9.60749 9.10001 10.1 8.60752 10.1 8.00001C10.1 7.39249 9.60749 6.90001 8.99998 6.90001Z" fill="#2688EB"/>
<path fill-rule="evenodd" clip-rule="evenodd" d="M3.09998 16C3.09998 15.5029 3.50292 15.1 3.99998 15.1C6.74743 15.1 9.49489 15.1 12.2423 15.1C12.621 13.939 13.7125 13.1 15 13.1C16.2874 13.1 17.3789 13.939 17.7576 15.1C17.7576 15.1 19.4786 15.1 20 15.1C20.497 15.1 20.9 15.5029 20.9 16C20.9 16.4971 20.497 16.9 20 16.9C19.7777 16.9 17.7576 16.9 17.7576 16.9C17.3789 18.061 16.2874 18.9 15 18.9C13.7125 18.9 12.621 18.061 12.2423 16.9C9.49489 16.9 6.74743 16.9 3.99998 16.9C3.50292 16.9 3.09998 16.4971 3.09998 16ZM13.9 16C13.9 15.3925 14.3925 14.9 15 14.9C15.6075 14.9 16.1 15.3925 16.1 16C16.1 16.6075 15.6075 17.1 15 17.1C14.3925 17.1 13.9 16.6075 13.9 16Z" fill="#2688EB"/>
</svg>
