<svg width="24" height="24" viewBox="0 0 24 24" fill="none" xmlns="http://www.w3.org/2000/svg">
<path fill-rule="evenodd" clip-rule="evenodd" d="M9.52935 3.05253C9.30636 2.999 9.07932 2.99952 8.88745 2.99996L6.0646 3.00004C5.53473 3.00002 5.08355 3.00001 4.71312 3.03027C4.32396 3.06207 3.94536 3.1317 3.58343 3.31612C3.03776 3.59415 2.59412 4.03779 2.31608 4.58346C2.13167 4.9454 2.06203 5.32399 2.03024 5.71315C1.99997 6.08358 1.99999 6.53475 2 7.06461V15.9354C1.99999 16.4653 1.99997 16.9165 2.03024 17.2869C2.06204 17.6761 2.13167 18.0547 2.31608 18.4166C2.59412 18.9623 3.03776 19.4059 3.58343 19.684C3.94536 19.8684 4.32396 19.938 4.71312 19.9698C5.08354 20.0001 5.53472 20.0001 6.06458 20H17.9354C18.4652 20.0001 18.9164 20.0001 19.2869 19.9698C19.676 19.938 20.0546 19.8684 20.4165 19.684C20.9622 19.4059 21.4059 18.9623 21.6839 18.4166C21.8683 18.0547 21.9379 17.6761 21.9697 17.2869C22 16.9165 22 16.4653 22 15.9355V9.06463C22 8.53477 22 8.08358 21.9697 7.71316C21.9379 7.324 21.8683 6.9454 21.6839 6.58347C21.4059 6.0378 20.9622 5.59416 20.4165 5.31612C20.0546 5.13172 19.6761 5.06208 19.287 5.03028C18.9167 5.00001 18.4656 5.00003 17.9359 5.00004L12.1608 5.00004C12.0313 5.00004 11.9639 4.99983 11.914 4.99754C11.8661 4.99534 11.8806 5.00119 11.8452 4.96891C11.808 4.93497 11.7598 4.88702 11.6678 4.795L10.6047 3.73189L10.5693 3.69643C10.4341 3.5606 10.2741 3.39984 10.0786 3.28002C9.90855 3.17585 9.72322 3.09908 9.52935 3.05253ZM8.83727 4.80004C8.9674 4.80004 9.03542 4.80025 9.08572 4.80255C9.13363 4.80474 9.11929 4.79876 9.15474 4.8311C9.19184 4.86496 9.23997 4.91279 9.33187 5.00468L10.395 6.06779C10.5586 6.23188 10.7226 6.3982 10.9215 6.52006C11.0915 6.62423 11.2768 6.701 11.4707 6.74755C11.6968 6.80184 11.9297 6.8004 12.1608 6.80004H17.9005C18.4753 6.80004 18.8521 6.80074 19.1404 6.8243C19.4181 6.847 19.5334 6.88635 19.5994 6.91994C19.8063 7.0254 19.9746 7.19367 20.0801 7.40065C20.1137 7.46654 20.153 7.58189 20.1757 7.85973C20.1993 8.14808 20.2 8.52511 20.2 9.09998H3.8V7.10004C3.8 6.52513 3.8007 6.14808 3.82426 5.85973C3.84696 5.58188 3.88632 5.46654 3.91989 5.40065C4.02536 5.19367 4.19363 5.02539 4.40061 4.91993C4.4665 4.88636 4.58185 4.847 4.85969 4.8243C5.14805 4.80074 5.5251 4.80004 6.1 4.80004H8.83727ZM3.8 10.9V15.9C3.8 16.4749 3.8007 16.852 3.82426 17.1404C3.84696 17.4182 3.88632 17.5335 3.91989 17.5994C4.02536 17.8064 4.19363 17.9747 4.40061 18.0802C4.4665 18.1137 4.58185 18.1531 4.85969 18.1758C5.14805 18.1993 5.5251 18.2 6.1 18.2H17.9C18.4749 18.2 18.8519 18.1993 19.1403 18.1758C19.4181 18.1531 19.5335 18.1137 19.5994 18.0802C19.8063 17.9747 19.9746 17.8064 20.0801 17.5994C20.1137 17.5335 20.153 17.4182 20.1757 17.1404C20.1993 16.852 20.2 16.4749 20.2 15.9V10.9H3.8Z" fill="#2688EB"/>
</svg>
