<svg width="24" height="24" viewBox="0 0 24 24" fill="none" xmlns="http://www.w3.org/2000/svg">
<path d="M12 2C14.4054 2 16.3914 2.84423 18.2208 4.57971C19.9972 6.26499 21 8.56821 21 10.9771L20.9846 18.09C20.8589 19.8325 19.6267 21.1253 17.9354 21.1253C17.291 21.1253 16.8456 20.9769 16.2512 20.6566L15.9422 20.4937C15.7597 20.4063 15.6626 20.3914 15.5145 20.4168C15.4181 20.4334 15.3061 20.4936 15.1151 20.6444L14.686 21.0001C13.87 21.667 13.1151 22 12 22C10.888 22 10.1228 21.6655 9.30573 21.0032L8.82484 20.6078C8.66027 20.4812 8.5621 20.43 8.48548 20.4168C8.31276 20.3872 8.2094 20.4123 7.95878 20.5436L7.74878 20.6566C7.1544 20.9769 6.70898 21.1253 6.06462 21.1253C4.37825 21.1253 3.09592 19.8364 3.013 18.0263L3 10.9754C3 8.56821 4.00279 6.26499 5.77923 4.57971C7.56641 2.88425 9.62353 2 12 2ZM12 3.81818C10.1084 3.81818 8.4933 4.51246 7.03273 5.89806C5.61594 7.24215 4.82022 9.06976 4.82022 10.9737L4.83225 17.9826C4.87021 18.8023 5.37246 19.3071 6.06462 19.3071C6.3499 19.3071 6.53192 19.2465 6.88466 19.0564L7.01733 18.9846L7.30128 18.8402C7.79457 18.6101 8.23441 18.5288 8.794 18.625C9.21351 18.697 9.55727 18.8763 9.93568 19.1675C10.0572 19.261 10.438 19.5794 10.4527 19.5914L10.6049 19.7102C11.0522 20.0446 11.4236 20.1818 12 20.1818C12.6399 20.1818 13.0155 20.0161 13.5333 19.593L13.9862 19.2182C14.3944 18.8958 14.754 18.7026 15.206 18.625C15.8355 18.5168 16.3135 18.6332 16.8866 18.9334L17.2569 19.1301C17.5222 19.2625 17.6909 19.3071 17.9354 19.3071C18.6209 19.3071 19.1088 18.7951 19.1668 18.0229L19.1798 10.9754C19.1798 9.06976 18.3841 7.24215 16.9673 5.89806C15.4662 4.474 13.9234 3.81818 12 3.81818ZM10.3462 14.1481L10.4305 14.2128C10.5026 14.2755 10.6676 14.3931 10.8993 14.5141C11.7995 14.9843 12.6833 14.9843 13.5695 14.2128C13.9213 13.9065 14.4633 13.9341 14.78 14.2745C15.0967 14.6148 15.0681 15.139 14.7163 15.4454C13.2215 16.7466 11.5656 16.7466 10.0848 15.9732C9.72133 15.7833 9.44983 15.5899 9.28375 15.4454C8.93189 15.139 8.90336 14.6148 9.22004 14.2745C9.51236 13.9603 9.99664 13.9126 10.3462 14.1481ZM8.5 9C9.32843 9 10 9.67157 10 10.5C10 11.3284 9.32843 12 8.5 12C7.67157 12 7 11.3284 7 10.5C7 9.67157 7.67157 9 8.5 9ZM14.2958 10.1025C15.2141 9.65784 16.2729 9.65784 17.2057 10.4106C17.5706 10.7051 17.6002 11.209 17.2718 11.5362C16.9434 11.8633 16.3814 11.8899 16.0165 11.5954L15.9272 11.5296C15.6626 11.3535 15.4251 11.3672 15.1405 11.505C15.0544 11.5467 14.9965 11.5849 14.9835 11.5954L14.896 11.6577C14.5335 11.884 14.0313 11.8382 13.7282 11.5362C13.3998 11.209 13.4294 10.7051 13.7943 10.4106C13.9048 10.3214 14.0731 10.2103 14.2958 10.1025Z" fill="#2688EB"/>
</svg>
