<svg width="24" height="24" viewBox="0 0 24 24" fill="none" xmlns="http://www.w3.org/2000/svg">
<path fill-rule="evenodd" clip-rule="evenodd" d="M3.89998 12C3.89998 11.2737 3.99557 10.5697 4.17485 9.89998H8.22553C8.14547 10.5712 8.09998 11.2727 8.09998 12C8.09998 12.7273 8.14547 13.4287 8.22553 14.1H4.17485C3.99557 13.4302 3.89998 12.7263 3.89998 12ZM8.53173 15.9H4.89896C5.94101 17.7933 7.71825 19.225 9.84605 19.8105C9.37021 18.7711 8.87323 17.4446 8.53173 15.9ZM14.1539 19.8105C16.2817 19.225 18.0589 17.7933 19.101 15.9H15.4682C15.1267 17.4446 14.6297 18.7711 14.1539 19.8105ZM13.62 15.9C13.1772 17.7029 12.5129 19.153 12 20.0982C11.4871 19.153 10.8227 17.7029 10.38 15.9H13.62ZM13.9602 14.1H10.0398C9.95114 13.4318 9.89998 12.73 9.89998 12C9.89998 11.27 9.95114 10.5681 10.0398 9.89998H13.9602C14.0488 10.5681 14.1 11.27 14.1 12C14.1 12.73 14.0488 13.4318 13.9602 14.1ZM15.7744 14.1H19.8251C20.0044 13.4302 20.1 12.7263 20.1 12C20.1 11.2737 20.0044 10.5697 19.8251 9.89998H15.7744C15.8545 10.5712 15.9 11.2727 15.9 12C15.9 12.7273 15.8545 13.4287 15.7744 14.1ZM15.4682 8.09998H19.101C18.0589 6.20665 16.2817 4.77495 14.1539 4.18948C14.6297 5.22885 15.1267 6.55532 15.4682 8.09998ZM9.84608 4.18948C7.71827 4.77495 5.94102 6.20665 4.89896 8.09998H8.53174C8.87325 6.55532 9.37024 5.22885 9.84608 4.18948ZM10.38 8.09998H13.6199C13.1772 6.2971 12.5129 4.84704 12 3.9018C11.4871 4.84704 10.8227 6.2971 10.38 8.09998ZM12 2.09998C6.53236 2.09998 2.09998 6.53236 2.09998 12C2.09998 17.4676 6.53236 21.9 12 21.9C17.4676 21.9 21.9 17.4676 21.9 12C21.9 6.53236 17.4676 2.09998 12 2.09998Z" fill="#2688EB"/>
</svg>
