<svg width="24" height="24" viewBox="0 0 24 24" fill="none" xmlns="http://www.w3.org/2000/svg">
<path d="M16.0001 4.00458C16.4972 4.00458 16.9001 4.40752 16.9001 4.90458V20.1046C16.9001 20.6016 16.4972 21.0046 16.0001 21.0046C15.503 21.0046 15.1001 20.6016 15.1001 20.1046V4.90458C15.1001 4.40752 15.503 4.00458 16.0001 4.00458Z" fill="#2688EB"/>
<path d="M4.0001 6.00232C4.49716 6.00232 4.9001 6.40526 4.9001 6.90232V20.1C4.9001 20.5971 4.49716 21 4.0001 21C3.50304 21 3.1001 20.5971 3.1001 20.1V6.90232C3.1001 6.40526 3.50304 6.00232 4.0001 6.00232Z" fill="#2688EB"/>
<path d="M8.0001 9.00403C8.49715 9.00403 8.9001 9.40697 8.9001 9.90403V20.104C8.9001 20.6011 8.49715 21.004 8.0001 21.004C7.50304 21.004 7.1001 20.6011 7.1001 20.104V9.90403C7.1001 9.40697 7.50304 9.00403 8.0001 9.00403Z" fill="#2688EB"/>
<path d="M12.9001 16.9023C12.9001 16.4053 12.4972 16.0023 12.0001 16.0023C11.503 16.0023 11.1001 16.4053 11.1001 16.9023V20.1023C11.1001 20.5994 11.503 21.0023 12.0001 21.0023C12.4972 21.0023 12.9001 20.5994 12.9001 20.1023V16.9023Z" fill="#2688EB"/>
<path d="M20.9001 13.9046C20.9001 13.4075 20.4972 13.0046 20.0001 13.0046C19.503 13.0046 19.1001 13.4075 19.1001 13.9046V20.1046C19.1001 20.6016 19.503 21.0046 20.0001 21.0046C20.4972 21.0046 20.9001 20.6016 20.9001 20.1046L20.9001 13.9046Z" fill="#2688EB"/>
</svg>
