<svg width="24" height="24" viewBox="0 0 24 24" fill="none" xmlns="http://www.w3.org/2000/svg">
<path fill-rule="evenodd" clip-rule="evenodd" d="M4.26751 4C3.21817 4 2.36751 4.85066 2.36751 5.9V8.99998C2.36751 9.94441 2.99083 10.7281 4.13021 10.8752C4.34263 10.9026 4.51032 11.0851 4.44605 11.2894C4.39004 11.4674 4.31803 11.621 4.25478 11.7222L3.81904 12.4194C2.88365 13.916 2.28567 15.6986 2.06676 17.4498L2.01495 17.8643C1.8732 18.9984 2.75743 20 3.90028 20H7.0037C7.86051 20 8.61131 19.4265 8.83675 18.5999L9.93483 14.4737C9.94669 14.4302 9.98621 14.4 10.0313 14.4H13.5132C14.3615 14.4 15.1071 13.8376 15.3401 13.0219L15.9464 10.9H21.1C22.1494 10.9 23 10.0493 23 8.99998V5.9C23 4.85066 22.1494 4 21.1 4H4.26751ZM4.16751 6.6C4.16751 6.31997 4.16751 6.17996 4.22201 6.073C4.26994 5.97892 4.34643 5.90243 4.44051 5.8545C4.54747 5.8 4.68748 5.8 4.96751 5.8H20.4C20.68 5.8 20.8201 5.8 20.927 5.8545C21.0211 5.90243 21.0976 5.97892 21.1455 6.073C21.2 6.17996 21.2 6.31997 21.2 6.6V8.29998C21.2 8.58 21.2 8.72002 21.1455 8.82697C21.0976 8.92105 21.0211 8.99754 20.927 9.04548C20.8201 9.09998 20.68 9.09998 20.4 9.09998H11.9858C11.1135 9.09998 10.6774 9.09998 10.3117 9.25045C9.98907 9.38321 9.70658 9.59824 9.49269 9.87388C9.25029 10.1863 9.1342 10.6065 8.90203 11.4469C8.60295 12.5295 8.29327 13.6517 8.19825 14.0001L7.10018 18.1263C7.08831 18.1698 7.0488 18.2 7.0037 18.2H3.90028C3.84013 18.2 3.79359 18.1473 3.80105 18.0876L3.85286 17.6731C4.03933 16.1814 4.54868 14.6482 5.34544 13.3734L5.78118 12.6762C6.07551 12.2053 6.32161 11.4977 6.33217 10.8511C6.33744 10.5288 6.28628 10.103 6.03053 9.73305C5.73732 9.30899 5.27507 9.09998 4.76751 9.09998C4.67461 9.09998 4.62816 9.09998 4.58929 9.09382C4.37535 9.05993 4.20755 8.89214 4.17367 8.67819C4.16751 8.63933 4.16751 8.59288 4.16751 8.49997V6.6ZM10.5706 12.6H12.9834C13.1994 12.6 13.3074 12.6 13.3982 12.5629C13.4784 12.5303 13.5486 12.4773 13.6022 12.4093C13.6628 12.3323 13.6927 12.2285 13.7523 12.0209L14.0744 10.9H12.5C12.4393 10.9 12.3666 10.9 12.2867 10.9C11.8695 10.9 11.6608 10.9 11.4837 10.97C11.3272 11.0319 11.1889 11.1322 11.0815 11.2617C10.9599 11.4083 10.8952 11.6066 10.7656 12.0031L10.5706 12.6Z" fill="#2688EB"/>
</svg>
