<svg width="24" height="24" viewBox="0 0 24 24" fill="none" xmlns="http://www.w3.org/2000/svg">
<path fill-rule="evenodd" clip-rule="evenodd" d="M10.1231 3.83924C9.83978 4.07977 9.52075 4.39882 9.14609 4.7735L8.65682 5.26277L7.72197 4.32791C7.50048 4.10629 7.27345 3.88908 6.96813 3.78988C6.68695 3.69852 6.38406 3.69852 6.10288 3.78988C5.8878 3.85976 5.73074 3.97616 5.62439 4.06644L4.06637 5.62446C3.97609 5.7308 3.8597 5.88787 3.78981 6.10295C3.69845 6.38413 3.69845 6.68702 3.78981 6.9682C3.88902 7.27351 4.10622 7.50055 4.32784 7.72203L5.26271 8.65688L4.77347 9.14612C4.39879 9.52078 4.07974 9.83981 3.83921 10.1231C3.58651 10.4208 3.36805 10.7378 3.24252 11.1241C3.05327 11.7065 3.05327 12.3339 3.24252 12.9164C3.36805 13.3027 3.58651 13.6196 3.83921 13.9173C4.07974 14.2006 4.39878 14.5197 4.77347 14.8943L6.1034 16.2243C6.47806 16.5989 6.79709 16.918 7.08042 17.1585C7.37809 17.4112 7.69503 17.6297 8.08136 17.7552C8.6638 17.9445 9.29121 17.9445 9.87365 17.7552C10.26 17.6297 10.5769 17.4112 10.8746 17.1585C11.1579 16.918 11.4769 16.5989 11.8516 16.2243L12.3409 15.735L17.888 21.2822L17.9036 21.2978C17.9886 21.3829 18.0864 21.4807 18.179 21.5593C18.2853 21.6496 18.4424 21.766 18.6575 21.8358C18.9387 21.9272 19.2415 21.9272 19.5227 21.8358C19.7378 21.766 19.8949 21.6496 20.0012 21.5593C20.0938 21.4807 20.1916 21.3829 20.2766 21.2978L21.2978 20.2766C21.3828 20.1916 21.4806 20.0938 21.5592 20.0013C21.6495 19.8949 21.7659 19.7379 21.8358 19.5228C21.9272 19.2416 21.9272 18.9387 21.8358 18.6575C21.7659 18.4424 21.6495 18.2854 21.5592 18.179C21.4806 18.0865 21.3828 17.9887 21.2978 17.9037L21.2821 17.8881L15.735 12.3409L16.2242 11.8516C16.5989 11.477 16.918 11.158 17.1585 10.8746C17.4112 10.577 17.6297 10.26 17.7552 9.87369C17.9444 9.29124 17.9444 8.66383 17.7552 8.08139C17.6297 7.69506 17.4112 7.37812 17.1585 7.08046C16.918 6.79712 16.5989 6.4781 16.2242 6.10344L14.8943 4.7735C14.5196 4.39882 14.2006 4.07977 13.9173 3.83924C13.6196 3.58654 13.3027 3.36808 12.9163 3.24255C12.3339 3.0533 11.7065 3.0533 11.124 3.24255C10.7377 3.36808 10.4208 3.58655 10.1231 3.83924ZM5.21142 11.2881C5.03101 11.5006 4.97728 11.61 4.95442 11.6803C4.88264 11.9012 4.88264 12.1392 4.95442 12.3601C4.97728 12.4305 5.03101 12.5399 5.21142 12.7524C5.39866 12.9729 5.66478 13.2401 6.0713 13.6466L7.35116 14.9264C7.75768 15.333 8.02479 15.5991 8.24534 15.7863C8.45786 15.9667 8.56726 16.0205 8.63759 16.0433C8.85851 16.1151 9.0965 16.1151 9.31742 16.0433C9.38776 16.0205 9.49715 15.9667 9.70967 15.7863C9.93022 15.5991 10.1973 15.333 10.6039 14.9264L14.9264 10.6039C15.3329 10.1974 15.599 9.93025 15.7863 9.7097C15.9667 9.49718 16.0204 9.38779 16.0433 9.31745C16.1151 9.09653 16.1151 8.85855 16.0433 8.63762C16.0204 8.56729 15.9667 8.45789 15.7863 8.24537C15.599 8.02482 15.3329 7.75771 14.9264 7.35119L13.6465 6.07133C13.24 5.66481 12.9729 5.39869 12.7524 5.21145C12.5398 5.03104 12.4304 4.97731 12.3601 4.95445C12.1392 4.88267 11.9012 4.88267 11.6803 4.95445C11.6099 4.97731 11.5006 5.03104 11.288 5.21145C11.0675 5.39869 10.8004 5.66481 10.3938 6.07133L6.0713 10.3939C5.66478 10.8004 5.39866 11.0675 5.21142 11.2881ZM19.0901 19.9387L19.9386 19.0902L14.4622 13.6137L13.6136 14.4622L19.0901 19.9387ZM6.53551 7.3841L5.68698 6.53557L6.53551 5.68704L7.38404 6.53557L6.53551 7.3841Z" fill="#2688EB"/>
</svg>
