<svg width="24" height="24" viewBox="0 0 24 24" fill="none" xmlns="http://www.w3.org/2000/svg">
<path fill-rule="evenodd" clip-rule="evenodd" d="M10.9 6.90443C10.9 6.29691 11.3925 5.80443 12 5.80443C12.6075 5.80443 13.1 6.29691 13.1 6.90443C13.1 7.56838 12.7973 8.00079 12.3164 8.5622C12.2785 8.60646 12.2375 8.65328 12.1941 8.70269C11.8479 9.09729 11.3564 9.65743 11.1728 10.4024L3.63399 13.9281C2.69801 14.3659 2.09998 15.3058 2.09998 16.339C2.09998 17.809 3.29158 19.0006 4.7615 19.0006H19.2384C20.7084 19.0006 21.9 17.809 21.9 16.339C21.9 15.3058 21.3019 14.3659 20.366 13.9281L13.0608 10.5117C13.1829 10.3197 13.382 10.0851 13.6835 9.73316C14.2026 9.12709 14.9 8.26171 14.9 6.90443C14.9 5.3028 13.6016 4.00443 12 4.00443C10.3983 4.00443 9.09998 5.3028 9.09998 6.90443C9.09998 7.40148 9.50292 7.80443 9.99998 7.80443C10.497 7.80443 10.9 7.40148 10.9 6.90443ZM4.39653 15.5586L12 12.0027L19.6034 15.5586C19.9064 15.7003 20.1 16.0046 20.1 16.339C20.1 16.8148 19.7143 17.2006 19.2384 17.2006H4.7615C4.28569 17.2006 3.89998 16.8148 3.89998 16.339C3.89998 16.0046 4.09356 15.7003 4.39653 15.5586Z" fill="#2688EB"/>
</svg>
