<svg width="24" height="24" viewBox="0 0 24 24" fill="none" xmlns="http://www.w3.org/2000/svg">
<path fill-rule="evenodd" clip-rule="evenodd" d="M11.5931 6.41048C11.0967 6.43589 10.6736 6.05409 10.6482 5.55768C10.6228 5.06127 11.0046 4.63825 11.501 4.61283C14.2596 4.47158 17.0748 5.56604 19.1499 7.11395C20.1249 7.84129 20.9374 8.66745 21.5062 9.50945C22.0751 10.3517 22.4 11.2095 22.4 12C22.4 12.9404 21.936 13.9809 21.1578 14.966C20.8497 15.3561 20.2837 15.4225 19.8937 15.1144C19.5037 14.8063 19.4372 14.2403 19.7454 13.8502C20.1553 13.3314 20.6 12.6825 20.6 12C20.6 11.6876 20.4615 11.1786 20.0146 10.517C19.5786 9.87153 18.9176 9.18634 18.0736 8.55674C16.2385 7.18785 13.9051 6.29209 11.5931 6.41048Z" fill="#2688EB"/>
<path fill-rule="evenodd" clip-rule="evenodd" d="M4.85008 16.886C6.80021 18.3407 9.40022 19.4 12 19.4C13.9672 19.4 15.9298 18.7932 17.6042 17.877L18.8636 19.1364C19.215 19.4879 19.7849 19.4879 20.1364 19.1364C20.4878 18.7849 20.4878 18.2151 20.1364 17.8636L6.63637 4.36361C6.2849 4.01214 5.71505 4.01214 5.36358 4.36361C5.01211 4.71508 5.01211 5.28493 5.36358 5.6364L6.0475 6.32033C5.62883 6.56602 5.22813 6.83194 4.85008 7.11395C3.87505 7.84129 3.06253 8.66745 2.49377 9.50945C1.9248 10.3517 1.59998 11.2095 1.59998 12C1.59998 12.7904 1.9248 13.6482 2.49377 14.4905C3.06253 15.3325 3.87505 16.1587 4.85008 16.886ZM10.4 12C10.4 12.8836 11.1163 13.6 12 13.6C12.3723 13.6 12.7145 13.4734 12.9868 13.2596L10.7403 11.0131C10.5266 11.2854 10.4 11.628 10.4 12ZM12 15.4C10.1222 15.4 8.59998 13.8778 8.59998 12C8.59998 11.1301 8.92706 10.3368 9.46333 9.73616L7.36977 7.64259C6.85684 7.91608 6.37195 8.22434 5.92635 8.55674C5.08235 9.18634 4.42137 9.87153 3.98535 10.517C3.53847 11.1786 3.39998 11.6876 3.39998 12C3.39998 12.3123 3.53847 12.8214 3.98535 13.4829C4.42137 14.1284 5.08235 14.8136 5.92635 15.4432C7.63079 16.7147 9.86224 17.6 12 17.6C13.4392 17.6 14.925 17.1989 16.269 16.5419L14.2638 14.5367C13.6633 15.0728 12.8695 15.4 12 15.4Z" fill="#2688EB"/>
</svg>
