<svg width="24" height="24" viewBox="0 0 24 24" fill="none" xmlns="http://www.w3.org/2000/svg">
<path fill-rule="evenodd" clip-rule="evenodd" d="M12 7.10001C12.497 7.10001 12.9 7.50295 12.9 8.00001V11.7272L15.1364 13.9636C15.4878 14.3151 15.4878 14.8849 15.1364 15.2364C14.7849 15.5879 14.2151 15.5879 13.8636 15.2364L11.3636 12.7364C11.1948 12.5676 11.1 12.3387 11.1 12.1V8.00001C11.1 7.50295 11.5029 7.10001 12 7.10001Z" fill="#2688EB"/>
<path d="M19.0003 4.99965C17.2097 3.20904 14.7335 2.10001 12 2.10001C9.21541 2.10001 6.69792 3.25078 4.89998 5.10072V3.00001C4.89998 2.50295 4.49703 2.10001 3.99998 2.10001C3.50292 2.10001 3.09998 2.50295 3.09998 3.00001V7.00003C3.09998 7.49709 3.50292 7.90003 3.99998 7.90003H7.99998C8.49703 7.90003 8.89998 7.49709 8.89998 7.00003C8.89998 6.50297 8.49703 6.10003 7.99998 6.10003H6.45013C7.90063 4.73497 9.85203 3.90001 12 3.90001C14.2369 3.90001 16.2607 4.80561 17.7275 6.27244C19.1944 7.73927 20.1 9.76305 20.1 12C20.1 14.237 19.1944 16.2607 17.7275 17.7276C16.2607 19.1944 14.2369 20.1 12 20.1C10.0185 20.1 8.20518 19.3896 6.79742 18.2086C6.41663 17.8892 5.84895 17.9389 5.52949 18.3197C5.21002 18.7005 5.25974 19.2681 5.64054 19.5876C7.36035 21.0304 9.57981 21.9 12 21.9C14.7335 21.9 17.2097 20.791 19.0003 19.0004C20.7909 17.2098 21.9 14.7335 21.9 12C21.9 9.2665 20.7909 6.79025 19.0003 4.99965Z" fill="#2688EB"/>
</svg>
