<svg width="24" height="24" viewBox="0 0 24 24" fill="none" xmlns="http://www.w3.org/2000/svg">
<path d="M14.6249 10.4704C14.6249 9.65831 13.9666 8.99999 13.1545 8.99999C12.7195 8.99999 12.3329 9.20481 11.9999 9.60109C11.667 9.20481 11.2804 8.99999 10.8453 8.99999C10.0333 8.99999 9.37494 9.65831 9.37494 10.4704C9.37494 11.2905 9.70351 11.7017 11.0972 12.7857L11.7313 13.2789C11.8893 13.4017 12.1105 13.4017 12.2685 13.2789L12.9027 12.7857C14.2964 11.7017 14.6249 11.2905 14.6249 10.4704Z" fill="#2688EB"/>
<path fill-rule="evenodd" clip-rule="evenodd" d="M12.7416 3.33878C12.2596 3.18216 11.7403 3.18216 11.2583 3.33878C10.9291 3.44576 10.6654 3.6302 10.4315 3.82876C10.2119 4.01521 9.96688 4.26023 9.69006 4.53708L4.2446 9.98247C3.95362 10.273 3.70804 10.5182 3.52728 10.8132C3.36828 11.0726 3.2511 11.3555 3.18006 11.6514C3.0993 11.9878 3.09957 12.3349 3.09989 12.7461L3.09993 17.6333C3.09992 18.0248 3.0999 18.3713 3.12336 18.6585C3.14834 18.9643 3.20435 19.2811 3.36152 19.5896C3.59162 20.0412 3.95877 20.4083 4.41036 20.6384C4.71881 20.7956 5.03566 20.8516 5.34145 20.8766C5.6286 20.9 5.97509 20.9 6.3666 20.9H9.87313C10.4402 20.9 10.8999 20.4403 10.8999 19.8732V17.9C10.8999 17.2925 11.3924 16.8 11.9999 16.8C12.6074 16.8 13.0999 17.2925 13.0999 17.9V19.8732C13.0999 20.4403 13.5596 20.9 14.1267 20.9H17.6333C18.0248 20.9 18.3713 20.9 18.6584 20.8766C18.9642 20.8516 19.2811 20.7956 19.5895 20.6384C20.0411 20.4083 20.4083 20.0412 20.6384 19.5896C20.7955 19.2811 20.8515 18.9643 20.8765 18.6585C20.9 18.3713 20.9 18.0248 20.8999 17.6333L20.9 12.746C20.9003 12.3348 20.9006 11.9878 20.8198 11.6514C20.7488 11.3555 20.6316 11.0726 20.4726 10.8132C20.2918 10.5182 20.0463 10.273 19.7553 9.98248L14.3098 4.53709C14.033 4.26024 13.788 4.01521 13.5684 3.82876C13.3345 3.6302 13.0708 3.44576 12.7416 3.33878ZM11.8145 5.05068C11.935 5.01152 12.0648 5.01152 12.1853 5.05068C12.1986 5.05498 12.2547 5.07469 12.4034 5.20097C12.5602 5.33407 12.7531 5.52593 13.0606 5.83345L18.4263 11.1991C18.8025 11.5753 18.8828 11.6638 18.9378 11.7537C18.9982 11.8521 19.0426 11.9594 19.0695 12.0716C19.0942 12.1741 19.0999 12.2935 19.0999 12.8255V17.6C19.0999 18.0349 19.0992 18.3069 19.0825 18.5119C19.0666 18.7064 19.0409 18.76 19.0345 18.7724C18.977 18.8853 18.8852 18.9771 18.7723 19.0346C18.7599 19.0409 18.7063 19.0667 18.5118 19.0825C18.3069 19.0993 18.0348 19.1 17.5999 19.1H14.8999V17.9C14.8999 16.2984 13.6016 15 11.9999 15C10.3983 15 9.09993 16.2984 9.09993 17.9V19.1H6.39994C5.96504 19.1 5.693 19.0993 5.48803 19.0825C5.29356 19.0667 5.23995 19.0409 5.22754 19.0346C5.11464 18.9771 5.02286 18.8853 4.96533 18.7724C4.95901 18.76 4.93327 18.7064 4.91738 18.5119C4.90063 18.3069 4.89993 18.0349 4.89993 17.6V12.8255C4.89993 12.2935 4.90572 12.1741 4.93033 12.0716C4.95727 11.9594 5.00172 11.8521 5.06203 11.7537C5.11711 11.6638 5.19739 11.5753 5.57359 11.1991L10.9393 5.83345C11.2468 5.52593 11.4396 5.33407 11.5964 5.20097C11.7452 5.07469 11.8013 5.05498 11.8145 5.05068Z" fill="#2688EB"/>
</svg>
