<svg width="24" height="24" viewBox="0 0 24 24" fill="none" xmlns="http://www.w3.org/2000/svg">
<path fill-rule="evenodd" clip-rule="evenodd" d="M12.1855 4.85067C12.065 4.81151 11.9352 4.81151 11.8146 4.85067C11.8014 4.85497 11.7453 4.87468 11.5965 5.00095C11.4398 5.13405 11.2469 5.32592 10.9394 5.63344L5.57371 10.9991C5.19752 11.3753 5.11723 11.4638 5.06215 11.5537C5.00184 11.6521 4.9574 11.7594 4.93045 11.8716C4.90584 11.9741 4.90006 12.0935 4.90006 12.6255V17.6C4.90006 18.0349 4.90076 18.3069 4.9175 18.5119C4.93339 18.7064 4.95913 18.76 4.96545 18.7724C5.02298 18.8853 5.11477 18.9771 5.22766 19.0346C5.24008 19.0409 5.29368 19.0666 5.48815 19.0825C5.69313 19.0993 5.96517 19.1 6.40006 19.1H9.10006V15.9C9.10006 14.2984 10.3984 13 12.0001 13C13.6017 13 14.9001 14.2984 14.9001 15.9V19.1H17.6001C18.0349 19.1 18.307 19.0993 18.512 19.0825C18.7064 19.0666 18.76 19.0409 18.7725 19.0346C18.8853 18.9771 18.9771 18.8853 19.0347 18.7724C19.041 18.76 19.0667 18.7064 19.0826 18.5119C19.0994 18.3069 19.1001 18.0349 19.1001 17.6V12.6255C19.1001 12.0935 19.0943 11.9741 19.0697 11.8716C19.0427 11.7594 18.9983 11.6521 18.938 11.5537C18.8829 11.4638 18.8026 11.3753 18.4264 10.9991L13.0607 5.63344C12.7532 5.32592 12.5603 5.13405 12.4036 5.00095C12.2548 4.87468 12.1987 4.85497 12.1855 4.85067ZM11.2584 3.13877C11.7404 2.98215 12.2597 2.98215 12.7417 3.13877C13.0709 3.24574 13.3346 3.43019 13.5685 3.62874C13.7881 3.81521 14.0331 4.06023 14.31 4.33708L19.6992 9.72634C19.7181 9.74525 19.7368 9.76395 19.7554 9.78246C20.0464 10.073 20.2919 10.3182 20.4727 10.6132C20.6317 10.8726 20.7489 11.1555 20.8199 11.4514C20.9007 11.7878 20.9004 12.1348 20.9001 12.546C20.9001 12.5723 20.9001 12.5987 20.9001 12.6255V17.6333C20.9001 18.0248 20.9001 18.3713 20.8766 18.6585C20.8516 18.9643 20.7956 19.2811 20.6385 19.5896C20.4084 20.0411 20.0412 20.4083 19.5896 20.6384C19.2812 20.7956 18.9643 20.8516 18.6585 20.8766C18.3714 20.9 18.0249 20.9 17.6334 20.9H14.1887C13.5875 20.9 13.1001 20.4126 13.1001 19.8113V15.9C13.1001 15.2925 12.6076 14.8 12.0001 14.8C11.3925 14.8 10.9001 15.2925 10.9001 15.9V19.8113C10.9001 20.4126 10.4126 20.9 9.8114 20.9H6.36672C5.97522 20.9 5.62873 20.9 5.34157 20.8766C5.03579 20.8516 4.71894 20.7956 4.41048 20.6384C3.95889 20.4083 3.59174 20.0411 3.36164 19.5896C3.20448 19.2811 3.14847 18.9642 3.12348 18.6585C3.10002 18.3713 3.10004 18.0248 3.10006 17.6333L3.10006 12.6255C3.10006 12.5987 3.10004 12.5723 3.10002 12.546C3.09969 12.1348 3.09942 11.7878 3.18018 11.4514C3.25122 11.1555 3.3684 10.8726 3.5274 10.6132C3.70816 10.3182 3.95374 10.073 4.24473 9.78247C4.26327 9.76395 4.28201 9.74525 4.30092 9.72634L9.69018 4.33707C9.967 4.06022 10.212 3.8152 10.4316 3.62874C10.6655 3.43019 10.9292 3.24574 11.2584 3.13877Z" fill="#2688EB"/>
</svg>
