<svg width="24" height="24" viewBox="0 0 24 24" fill="none" xmlns="http://www.w3.org/2000/svg">
<path fill-rule="evenodd" clip-rule="evenodd" d="M10.7068 8.20002H9.00002C6.36867 8.20002 4.92063 10.3059 4.58522 11.9829L3.88103 15.5039C3.00562 15.6507 2.22709 16.2406 1.8799 17.1272C1.35427 18.4696 2.01649 19.9838 3.3588 20.5094C5.78206 21.4581 8.54341 21.9043 11.6022 21.9043C14.6609 21.9043 17.4223 21.4581 19.8456 20.5094C21.1879 19.9838 21.8501 18.4696 21.3245 17.1272C20.9832 16.2557 20.2252 15.671 19.3682 15.5118L18.7648 12.1789C18.8509 12.1828 18.9191 12.1823 18.9632 12.1819C18.9735 12.1818 18.9825 12.1818 18.9901 12.1818H19.097C20.4267 12.1818 21.5047 11.1038 21.5047 9.77411V7.56835C21.8215 7.32372 22.1143 6.95968 22.2436 6.41881C22.3776 5.8582 22.2496 5.37373 22.1158 5.06128C21.983 4.75122 21.7996 4.5008 21.6435 4.31651C21.1338 3.7147 20.511 3.13797 19.693 2.72275C18.8658 2.30283 17.9417 2.10004 16.9 2.10004C13.4042 2.10004 10.8548 4.93723 10.7068 8.20002ZM16.4787 9.65457L16.4638 9.57155C16.4634 9.56923 16.463 9.56678 16.4626 9.56421C16.4604 9.54868 16.4594 9.52858 16.4593 9.50509C16.4593 9.3228 16.5235 8.93623 16.6259 8.89527C16.7255 8.8554 16.7639 8.88495 16.8725 8.96858C16.8886 8.981 16.9063 8.99462 16.926 9.00937L18.0843 9.97666C18.2127 10.1051 18.3199 10.1928 18.4162 10.2527C18.6236 10.3818 18.7805 10.3818 18.9901 10.3818H19.097C19.4326 10.3818 19.7047 10.1097 19.7047 9.77411V6.70721C19.7047 6.57891 19.7047 6.51477 19.725 6.46753C19.745 6.42092 19.7674 6.39301 19.8085 6.36335C19.8502 6.33329 19.9262 6.3164 20.0781 6.28261C20.5672 6.17383 20.6311 5.90626 20.27 5.4799C20.1147 5.29655 19.9546 5.12589 19.7861 4.96969C19.663 4.85552 19.5354 4.74908 19.402 4.65108C19.3838 4.6377 19.3654 4.62449 19.347 4.61143C18.712 4.16146 17.944 3.90004 16.9 3.90004C14.3955 3.90004 12.5 6.00001 12.5 8.50001L12.5 9.36002C12.5 9.58404 12.5 9.69605 12.4564 9.78162C12.4181 9.85688 12.3569 9.91808 12.2816 9.95642C12.1961 10 12.084 10 11.86 10H9.00002C7.50002 10 6.5775 11.1998 6.35027 12.3359L5.44429 16.8658C5.39541 17.1102 5.37097 17.2324 5.30022 17.3129C5.28306 17.3324 5.26352 17.3504 5.24227 17.3663C5.19134 17.4047 5.13055 17.4318 5.06903 17.4428C5.06608 17.4433 5.06313 17.4438 5.06018 17.4443C4.95422 17.4604 4.84309 17.4171 4.62083 17.3304L4.60581 17.3245C4.18916 17.1614 3.71913 17.3669 3.55599 17.7835C3.39285 18.2002 3.59837 18.6701 4.01503 18.8333C4.02063 18.8355 4.02628 18.8377 4.03188 18.8399C4.20658 18.908 4.38361 18.9734 4.56297 19.036C4.76852 19.1078 4.97713 19.1759 5.1888 19.2405C5.68339 19.3912 6.19469 19.5221 6.72267 19.6333C6.73353 19.6356 6.74439 19.6379 6.75526 19.6401C7.09653 19.7114 7.44475 19.7744 7.79992 19.8292C8.9895 20.0128 10.257 20.1043 11.6022 20.1043C12.9475 20.1043 14.2151 20.0128 15.4048 19.8291C15.76 19.7743 16.1082 19.7113 16.4495 19.6401C16.4604 19.6378 16.4712 19.6355 16.4821 19.6332C17.0173 19.5205 17.5354 19.3875 18.0363 19.2341C18.2409 19.1715 18.4426 19.1055 18.6414 19.036C18.8265 18.9714 19.0091 18.9038 19.1893 18.8333C19.6059 18.6702 19.8115 18.2002 19.6484 17.7835C19.4852 17.3669 19.0152 17.1614 18.5986 17.3245C18.3799 17.4101 18.2705 17.453 18.1665 17.4383C18.1585 17.4371 18.1506 17.4357 18.1427 17.4341C18.0849 17.422 18.0285 17.396 17.9805 17.36C17.956 17.3416 17.9337 17.3207 17.9146 17.2976C17.8475 17.2168 17.8257 17.096 17.7819 16.8544L16.4787 9.65457ZM15.6202 17.968C15.6534 17.8913 15.6534 17.8178 15.6534 17.6739C15.6534 15.4366 13.8397 13.6228 11.6024 13.6228C9.36501 13.6228 7.55128 15.4366 7.55128 17.6739C7.55128 17.8178 7.55128 17.8914 7.58457 17.9681L7.58691 17.9734C7.61515 18.0357 7.67529 18.1059 7.73259 18.1433C7.80491 18.1905 7.88563 18.2029 8.04707 18.2279C9.15195 18.3984 10.3369 18.484 11.6022 18.484C12.8676 18.484 14.0527 18.3984 15.1577 18.2278C15.3191 18.2029 15.3998 18.1904 15.4721 18.1432C15.5294 18.1058 15.5896 18.0357 15.6178 17.9733L15.6202 17.968ZM13.5829 16.6031C13.2021 15.9002 12.458 15.4228 11.6024 15.4228C10.7467 15.4228 10.0026 15.9002 9.62176 16.6031C10.2509 16.6567 10.9108 16.684 11.6022 16.684C12.2937 16.684 12.9537 16.6567 13.5829 16.6031Z" fill="#2688EB"/>
</svg>
