<svg width="24" height="24" viewBox="0 0 24 24" fill="none" xmlns="http://www.w3.org/2000/svg">
<path fill-rule="evenodd" clip-rule="evenodd" d="M3.90012 3.00003C4.39718 3.00003 4.80012 3.40297 4.80012 3.90003V4.60003H6.91622C7.18913 4.60003 7.25099 4.5985 7.30459 4.59198C7.50352 4.56777 7.69206 4.48967 7.84985 4.36612C7.89236 4.33283 7.93718 4.29018 8.13017 4.0972L8.14527 4.08209C8.35113 3.87623 8.52761 3.69974 8.67349 3.56678C8.81067 3.44175 8.99725 3.28182 9.22176 3.181C10.219 2.73315 11.3876 3.21718 11.7761 4.23904C11.8636 4.46907 11.8824 4.71405 11.891 4.89944C11.9001 5.0966 11.9001 5.34609 11.9001 5.63719V8.00003C11.9001 8.05922 11.9333 8.24041 12.2678 8.54588C12.5945 8.84434 13.1077 9.16503 13.8009 9.49206C15.1807 10.143 17.0779 10.7293 19.0771 11.2234L19.1121 11.232C19.2695 11.2709 19.3955 11.302 19.4949 11.3342C20.6359 11.7043 21.4073 12.6896 21.4928 13.886C21.5003 13.9905 21.5003 14.2031 21.5002 14.5103L21.5002 14.592L21.5002 14.601C21.5 14.61 21.4997 14.6233 21.4989 14.6393C21.4984 14.6481 21.4978 14.6559 21.4973 14.6627L21.4961 14.6763L21.4948 14.6887C21.4946 14.6904 21.4933 14.7038 21.4899 14.7445C21.4279 15.4776 21.0954 16.1319 20.5922 16.6076C20.6799 16.9495 20.7518 17.2546 20.7991 17.5248C20.8807 17.9899 20.9113 18.4574 20.7735 18.923C20.5701 19.6103 20.1193 20.1979 19.5082 20.5725C19.0942 20.8262 18.6348 20.9178 18.1645 20.9596C17.7095 21 17.1438 21 16.4689 21L2.89988 21C2.40282 21 1.99988 20.597 1.99988 20.1C1.99988 19.6029 2.40282 19.2 2.89988 19.2H3.99988V16.6907C3.71948 16.4475 3.4867 16.1512 3.3162 15.8166C3.13179 15.4547 3.06216 15.0761 3.03036 14.6869C3.0001 14.3165 3.00011 13.8653 3.00012 13.3354L3.00012 3.90003C3.00012 3.40297 3.40307 3.00003 3.90012 3.00003ZM6.40362 19.2C6.40238 19.2 6.40113 19.2 6.39988 19.2L5.79988 19.2V17.3762C6.15333 17.4001 6.57548 17.4 7.06472 17.4L18.4198 17.4C18.5852 17.4001 18.7215 17.4001 18.8446 17.3897C18.8732 17.3873 18.9016 17.3845 18.9298 17.3813C18.9705 17.5518 19.0026 17.7011 19.0262 17.8356C19.0885 18.1911 19.0698 18.3368 19.0475 18.4122C18.9703 18.6729 18.7993 18.8958 18.5675 19.0378C18.5005 19.0789 18.3647 19.1347 18.0052 19.1667C17.6395 19.1992 17.1544 19.2 16.4283 19.2H6.40362ZM9.97993 4.81628C9.96406 4.82881 9.93378 4.85357 9.88603 4.8971C9.77481 4.99847 9.62815 5.1448 9.40296 5.36999L9.37409 5.39887C9.22478 5.54831 9.09908 5.67411 8.95956 5.78336C8.54357 6.10908 8.04651 6.31497 7.52204 6.37879C7.34613 6.4002 7.1683 6.40013 6.95705 6.40004L4.80012 6.40003V13.3C4.80012 13.8749 4.80082 14.252 4.82438 14.5403C4.84708 14.8182 4.88644 14.9335 4.92002 14.9994C5.02548 15.2064 5.19376 15.3747 5.40073 15.4801C5.46662 15.5137 5.58197 15.5531 5.85982 15.5758C6.14817 15.5993 6.52522 15.6 7.10012 15.6H18.3853C18.6033 15.6 18.6562 15.5992 18.6929 15.5961C19.2272 15.5509 19.6511 15.1271 19.6963 14.5927L19.7002 14.5477C19.7002 14.3784 19.7002 14.2527 19.6996 14.16C19.6993 14.1101 19.6989 14.073 19.6983 14.046C19.6979 14.0264 19.6975 14.0166 19.6973 14.0137C19.6973 14.0131 19.6973 14.0137 19.6973 14.0137C19.6635 13.5493 19.3827 13.1902 18.9396 13.0464C18.9105 13.037 18.8555 13.0228 18.6453 12.9708C17.762 12.7526 16.8795 12.5123 16.0374 12.251L15.0281 13.3919C14.6988 13.7642 14.13 13.7991 13.7577 13.4697C13.3854 13.1404 13.3506 12.5716 13.6799 12.1993L14.1965 11.6154C13.8161 11.4681 13.4536 11.3156 13.114 11.1579C13.0854 11.1846 13.0546 11.2098 13.0218 11.2331L11.7546 12.1354C11.3497 12.4237 10.7878 12.3292 10.4995 11.9243C10.2112 11.5194 10.3057 10.9574 10.7106 10.6691L11.4105 10.1708C11.284 10.0749 11.1648 9.97629 11.0538 9.87492C10.929 9.76089 10.808 9.63709 10.6965 9.5036L9.21823 9.87316C8.73601 9.99372 8.24737 9.70053 8.12682 9.21832C8.00626 8.7361 8.29945 8.24746 8.78166 8.12691L10.1001 7.79729V5.65853C10.1001 5.34014 10.0999 5.13303 10.0929 4.98275C10.0899 4.91823 10.086 4.87933 10.0837 4.85925C10.0613 4.82512 10.0199 4.80799 9.97993 4.81628Z" fill="#2688EB"/>
</svg>
