<svg width="24" height="24" viewBox="0 0 24 24" fill="none" xmlns="http://www.w3.org/2000/svg">
<path d="M9.2501 11C10.2166 11 11.0001 10.2165 11.0001 9.24998C11.0001 8.28348 10.2166 7.49998 9.2501 7.49998C8.2836 7.49998 7.5001 8.28348 7.5001 9.24998C7.5001 10.2165 8.2836 11 9.2501 11Z" fill="#2688EB"/>
<path d="M9.2501 16.5C10.2166 16.5 11.0001 15.7165 11.0001 14.75C11.0001 13.7835 10.2166 13 9.2501 13C8.2836 13 7.5001 13.7835 7.5001 14.75C7.5001 15.7165 8.2836 16.5 9.2501 16.5Z" fill="#2688EB"/>
<path d="M14.7501 11C15.7166 11 16.5001 10.2165 16.5001 9.24998C16.5001 8.28348 15.7166 7.49998 14.7501 7.49998C13.7836 7.49998 13.0001 8.28348 13.0001 9.24998C13.0001 10.2165 13.7836 11 14.7501 11Z" fill="#2688EB"/>
<path d="M14.7501 16.5C15.7166 16.5 16.5001 15.7165 16.5001 14.75C16.5001 13.7835 15.7166 13 14.7501 13C13.7836 13 13.0001 13.7835 13.0001 14.75C13.0001 15.7165 13.7836 16.5 14.7501 16.5Z" fill="#2688EB"/>
<path fill-rule="evenodd" clip-rule="evenodd" d="M8.22787 3.09998C6.65822 3.09998 5.90856 3.22664 5.14641 3.63424C4.49687 3.98161 3.98174 4.49675 3.63436 5.14628C3.22676 5.90843 3.1001 6.6581 3.1001 8.22775V15.7722C3.1001 17.3419 3.22676 18.0915 3.63436 18.8537C3.98174 19.5032 4.49687 20.0183 5.14641 20.3657C5.90856 20.7733 6.65822 20.9 8.22787 20.9H15.7723C17.342 20.9 18.0916 20.7733 18.8538 20.3657C19.5033 20.0183 20.0185 19.5032 20.3658 18.8537C20.7734 18.0915 20.9001 17.3419 20.9001 15.7722V8.22775C20.9001 6.6581 20.7734 5.90843 20.3658 5.14628C20.0185 4.49675 19.5033 3.98161 18.8538 3.63424C18.0916 3.22664 17.342 3.09998 15.7723 3.09998H8.22787ZM5.99528 5.22151C6.35727 5.02791 6.7412 4.89998 8.22787 4.89998H15.7723C17.259 4.89998 17.6429 5.02791 18.0049 5.22151C18.3408 5.40112 18.599 5.65931 18.7786 5.99516C18.9722 6.35714 19.1001 6.74108 19.1001 8.22775V15.7722C19.1001 17.2589 18.9722 17.6428 18.7786 18.0048C18.599 18.3406 18.3408 18.5988 18.0049 18.7784C17.6429 18.972 17.259 19.1 15.7723 19.1H8.22787C6.7412 19.1 6.35727 18.972 5.99528 18.7784C5.65944 18.5988 5.40124 18.3406 5.22163 18.0048C5.02804 17.6428 4.9001 17.2589 4.9001 15.7722V8.22775C4.9001 6.74108 5.02804 6.35714 5.22163 5.99516C5.40124 5.65931 5.65944 5.40112 5.99528 5.22151Z" fill="#2688EB"/>
</svg>
