<svg width="24" height="24" viewBox="0 0 24 24" fill="none" xmlns="http://www.w3.org/2000/svg">
<path fill-rule="evenodd" clip-rule="evenodd" d="M7.19997 5.09998H7.16457C6.6347 5.09996 6.18352 5.09995 5.81309 5.13021C5.42393 5.16201 5.04533 5.23164 4.6834 5.41606C4.13773 5.69409 3.69409 6.13773 3.41606 6.6834C3.23164 7.04534 3.16201 7.42393 3.13021 7.81309C3.09995 8.18352 3.09996 8.6347 3.09997 9.16457L3.09997 9.19998V17.1H2.06284C0.932473 17.1 0.741047 18.7178 1.8402 18.9816L3.6548 19.4171C3.88411 19.4721 4.1191 19.5 4.35492 19.5H19.645C19.8808 19.5 20.1158 19.4721 20.3451 19.4171L22.1597 18.9816C23.2589 18.7178 23.0675 17.1 21.9371 17.1H20.9V9.19998V9.16457C20.9 8.6347 20.9 8.18352 20.8697 7.81309C20.8379 7.42393 20.7683 7.04534 20.5839 6.6834C20.3059 6.13773 19.8622 5.69409 19.3165 5.41606C18.9546 5.23164 18.576 5.16201 18.1869 5.13021C17.8164 5.09995 17.3652 5.09996 16.8354 5.09998H16.8H7.19997ZM19.1 17.1V9.19998C19.1 8.62507 19.0993 8.24802 19.0757 7.95967C19.053 7.68182 19.0137 7.56648 18.9801 7.50059C18.8746 7.29361 18.7063 7.12533 18.4994 7.01987C18.4335 6.9863 18.3181 6.94694 18.0403 6.92424C17.7519 6.90068 17.3749 6.89998 16.8 6.89998H7.19997C6.62507 6.89998 6.24802 6.90068 5.95967 6.92424C5.68182 6.94694 5.56648 6.9863 5.50058 7.01987C5.29361 7.12533 5.12533 7.29361 5.01987 7.50059C4.98629 7.56648 4.94693 7.68182 4.92423 7.95967C4.90067 8.24802 4.89997 8.62507 4.89997 9.19998V17.1H19.1Z" fill="#2688EB"/>
</svg>
