<svg width="24" height="24" viewBox="0 0 24 24" fill="none" xmlns="http://www.w3.org/2000/svg">
<path fill-rule="evenodd" clip-rule="evenodd" d="M12 2.09998C9.26641 2.09998 6.79018 3.20906 4.99962 4.99962C3.20906 6.79018 2.09998 9.26641 2.09998 12C2.09998 14.7335 3.20906 17.2098 4.99962 19.0003C6.79018 20.7909 9.26641 21.9 12 21.9C14.7335 21.9 17.2098 20.7909 19.0003 19.0003C20.7909 17.2098 21.9 14.7335 21.9 12C21.9 9.26641 20.7909 6.79018 19.0003 4.99962C17.2098 3.20906 14.7335 2.09998 12 2.09998ZM12 8.89998C11.1437 8.89998 10.3699 9.24597 9.80794 9.80794C9.24597 10.3699 8.89998 11.1437 8.89998 12C8.89998 12.8563 9.24597 13.63 9.80794 14.192C10.3699 14.754 11.1437 15.1 12 15.1C12.8563 15.1 13.63 14.754 14.192 14.192C14.754 13.63 15.1 12.8563 15.1 12C15.1 11.1437 14.754 10.3699 14.192 9.80794C13.63 9.24597 12.8563 8.89998 12 8.89998ZM20.1 12C20.1 10.0871 19.4378 8.33013 18.3287 6.94402L16.0425 9.23025C16.583 10.018 16.9 10.9725 16.9 12C16.9 13.0275 16.583 13.982 16.0425 14.7697L18.3287 17.0559C19.4378 15.6698 20.1 13.9129 20.1 12ZM12 20.1C10.0871 20.1 8.33013 19.4378 6.94402 18.3287L9.23025 16.0425C10.018 16.583 10.9725 16.9 12 16.9C13.0275 16.9 13.982 16.583 14.7697 16.0425L17.0559 18.3287C15.6698 19.4378 13.9129 20.1 12 20.1ZM3.89998 12C3.89998 10.0871 4.56219 8.33013 5.67123 6.94402L7.95746 9.23025C7.41693 10.018 7.09998 10.9725 7.09998 12C7.09998 13.0275 7.41693 13.982 7.95746 14.7697L5.67123 17.0559C4.56219 15.6698 3.89998 13.9129 3.89998 12ZM6.94402 5.67123C8.33013 4.56219 10.0871 3.89998 12 3.89998C13.9129 3.89998 15.6698 4.56219 17.0559 5.67123L14.7697 7.95746C13.982 7.41693 13.0275 7.09998 12 7.09998C10.9725 7.09998 10.018 7.41693 9.23025 7.95746L6.94402 5.67123Z" fill="#3F8AE0"/>
</svg>
