<svg width="24" height="24" viewBox="0 0 24 24" fill="none" xmlns="http://www.w3.org/2000/svg">
<path fill-rule="evenodd" clip-rule="evenodd" d="M5.39998 10.5C5.39998 6.8549 8.3549 3.89998 12 3.89998C12.6109 3.89998 13.2011 3.98274 13.7605 4.13715C14.2223 4.2646 14.6639 4.44106 15.0794 4.6607C15.5188 4.89299 16.0634 4.72506 16.2957 4.28562C16.5279 3.84618 16.36 3.30164 15.9206 3.06935C15.3913 2.78959 14.8284 2.56459 14.2394 2.40203C13.5254 2.20497 12.7743 2.09998 12 2.09998C7.36078 2.09998 3.59998 5.86078 3.59998 10.5C3.59998 12.8726 4.62045 14.4534 5.70706 15.6565C6.06146 16.0489 6.44963 16.4281 6.79583 16.7663C6.95349 16.9203 7.10244 17.0658 7.23553 17.2002C7.65968 17.6284 7.96264 17.9799 8.1497 18.3167L8.39726 19.3777C8.46895 19.685 8.53332 19.9609 8.60443 20.1891C8.68106 20.435 8.78194 20.6829 8.95341 20.9172C9.20845 21.2658 9.55282 21.539 9.95021 21.7082C10.2174 21.8219 10.4817 21.8639 10.7386 21.8826C10.9769 21.9 11.2603 21.9 11.5758 21.9H12.4241C12.7397 21.9 13.023 21.9 13.2614 21.8826C13.5182 21.8639 13.7826 21.8219 14.0497 21.7082C14.4471 21.539 14.7915 21.2658 15.0465 20.9172C15.218 20.6829 15.3189 20.435 15.3955 20.1891C15.4666 19.9609 15.531 19.685 15.6027 19.3777L15.8503 18.3163C16.123 17.8236 16.6112 17.3461 17.2959 16.6764C18.1454 15.8453 18.9716 14.9827 19.5451 13.9309C19.7831 13.4945 19.6222 12.9478 19.1858 12.7098C18.7495 12.4719 18.2028 12.6327 17.9648 13.0691C17.4582 13.9981 16.6988 14.7454 15.9477 15.4768C15.4491 15.9622 14.8979 16.4989 14.4892 17.1H12.9V14.9816L13.9992 14.2488C14.4128 13.9731 14.5245 13.4143 14.2488 13.0007C13.9731 12.5872 13.4143 12.4754 13.0007 12.7511L12 13.4183L10.9992 12.7511C10.5856 12.4754 10.0268 12.5872 9.75113 13.0007C9.47541 13.4143 9.58717 13.9731 10.0007 14.2488L11.1 14.9816L11.0994 17.1H9.5115C9.21995 16.6701 8.86247 16.2849 8.51442 15.9335C8.33854 15.7559 8.16702 15.5886 7.998 15.4237C7.67484 15.1084 7.36082 14.8021 7.04289 14.45C6.1295 13.4387 5.39998 12.2695 5.39998 10.5ZM10.1437 18.9408L10.1342 18.9H12.0001H13.8658L13.8563 18.9408C13.776 19.2846 13.7262 19.4957 13.677 19.6535C13.6312 19.8005 13.6031 19.8417 13.5939 19.8543C13.5301 19.9414 13.444 20.0097 13.3447 20.052C13.3303 20.0582 13.2839 20.0762 13.1303 20.0874C12.9654 20.0994 12.7486 20.1 12.3955 20.1H11.6044C11.2514 20.1 11.0346 20.0994 10.8697 20.0874C10.7161 20.0762 10.6696 20.0582 10.6553 20.052C10.5559 20.0097 10.4698 19.9414 10.4061 19.8543C10.3968 19.8417 10.3687 19.8005 10.3229 19.6535C10.2737 19.4957 10.2239 19.2846 10.1437 18.9408ZM18.0763 4.30534C18.212 3.89822 18.7879 3.89822 18.9236 4.30534L19.381 5.67753C19.5292 6.12202 19.878 6.4708 20.3224 6.61896L21.6946 7.07636C22.1018 7.21207 22.1018 7.78793 21.6946 7.92364L20.3224 8.38104C19.878 8.5292 19.5292 8.87798 19.381 9.32247L18.9236 10.6947C18.7879 11.1018 18.212 11.1018 18.0763 10.6947L17.6189 9.32247C17.4708 8.87799 17.122 8.5292 16.6775 8.38104L15.3053 7.92364C14.8982 7.78793 14.8982 7.21207 15.3053 7.07636L16.6775 6.61896C17.122 6.4708 17.4708 6.12202 17.6189 5.67753L18.0763 4.30534Z" fill="#3F8AE0"/>
</svg>
