<svg width="24" height="24" viewBox="0 0 24 24" fill="none" xmlns="http://www.w3.org/2000/svg">
<path d="M3.9 5.10001C3.40294 5.10001 3 5.50295 3 6.00001C3 6.49706 3.40294 6.90001 3.9 6.90001H18.1C18.5971 6.90001 19 6.49706 19 6.00001C19 5.50295 18.5971 5.10001 18.1 5.10001H3.9Z" fill="#2688EB"/>
<path d="M3.9 10.1C3.40294 10.1 3 10.5029 3 11C3 11.4971 3.40294 11.9 3.9 11.9H18.0976C18.5947 11.9 18.9976 11.4971 18.9976 11C18.9976 10.5029 18.5947 10.1 18.0976 10.1H3.9Z" fill="#2688EB"/>
<path d="M3 16C3 15.5029 3.40294 15.1 3.9 15.1H12.0976C12.5947 15.1 12.9976 15.5029 12.9976 16C12.9976 16.4971 12.5947 16.9 12.0976 16.9H3.9C3.40294 16.9 3 16.4971 3 16Z" fill="#2688EB"/>
<path d="M21.7365 15.5364C22.088 15.185 22.088 14.6151 21.7365 14.2636C21.3851 13.9121 20.8152 13.9121 20.4637 14.2636L16.8 17.927V15.9C16.8 15.403 16.3971 15 15.9 15C15.4029 15 15 15.403 15 15.9V20.0997C15 20.5967 15.4029 20.9997 15.9 20.9997H20.1001C20.5972 20.9997 21.0001 20.5967 21.0001 20.0997C21.0001 19.6026 20.5972 19.1997 20.1001 19.1997H18.0729L21.7365 15.5364Z" fill="#2688EB"/>
</svg>
