<svg width="24" height="24" viewBox="0 0 24 24" fill="none" xmlns="http://www.w3.org/2000/svg">
<path d="M3.9 6.89998L18.1 6.89998C18.5971 6.89998 19 6.49703 19 5.99998C19 5.50292 18.5971 5.09998 18.1 5.09998L3.9 5.09998C3.40294 5.09998 3 5.50292 3 5.99998C3 6.49704 3.40294 6.89998 3.9 6.89998Z" fill="#2688EB"/>
<path d="M3.9 10.1C3.40294 10.1 3 10.5029 3 11C3 11.497 3.40294 11.9 3.9 11.9L18.1 11.9C18.5971 11.9 19 11.497 19 11C19 10.5029 18.5971 10.1 18.1 10.1L3.9 10.1Z" fill="#2688EB"/>
<path d="M3 16C3 15.5029 3.40294 15.1 3.9 15.1H9.1C9.59706 15.1 10 15.5029 10 16C10 16.497 9.59706 16.9 9.1 16.9H3.9C3.40294 16.9 3 16.497 3 16Z" fill="#2688EB"/>
<path d="M22.7234 13.6905C23.1047 13.291 23.09 12.658 22.6905 12.2766C22.291 11.8953 21.658 11.91 21.2766 12.3095L16.2727 17.5517L13.7234 14.881C13.342 14.4815 12.709 14.4667 12.3095 14.8481C11.91 15.2294 11.8953 15.8624 12.2766 16.2619L15.5494 19.6905C15.7381 19.8882 15.9994 20 16.2727 20C16.546 20 16.8074 19.8882 16.9961 19.6905L22.7234 13.6905Z" fill="#2688EB"/>
</svg>
