<svg width="24" height="24" viewBox="0 0 24 24" fill="none" xmlns="http://www.w3.org/2000/svg">
<path d="M4.0001 6.90001L18.5001 6.90001C18.9972 6.90001 19.4001 6.49706 19.4001 6.00001C19.4001 5.50295 18.9972 5.10001 18.5001 5.10001L4.0001 5.10001C3.50304 5.10001 3.1001 5.50295 3.1001 6.00001C3.1001 6.49707 3.50304 6.90001 4.0001 6.90001Z" fill="#2688EB"/>
<path d="M4.0001 10.1C3.50304 10.1 3.1001 10.5029 3.1001 11C3.1001 11.4971 3.50304 11.9 4.0001 11.9L7.0001 11.9C7.49715 11.9 7.9001 11.4971 7.9001 11C7.9001 10.503 7.49715 10.1 7.0001 10.1L4.0001 10.1Z" fill="#2688EB"/>
<path d="M4.0001 15.1C3.50304 15.1 3.1001 15.5029 3.1001 16C3.1001 16.4971 3.50304 16.9 4.0001 16.9H6.5001C6.99715 16.9 7.4001 16.4971 7.4001 16C7.4001 15.5029 6.99715 15.1 6.5001 15.1H4.0001Z" fill="#2688EB"/>
<path fill-rule="evenodd" clip-rule="evenodd" d="M13.1168 10C10.9038 10 9.00012 11.6953 9.00012 13.9178C9.00012 15.0702 9.33648 15.9829 10.1168 16.8977C10.8414 17.7471 11.9631 18.6121 13.497 19.7297L14.6316 20.5564C15.4434 21.1479 16.5568 21.1479 17.3686 20.5564L18.5033 19.7297C20.0371 18.6121 21.1589 17.7471 21.8834 16.8977C22.6638 15.9829 23.0001 15.0702 23.0001 13.9178C23.0001 11.6953 21.0964 10 18.8834 10C17.8589 10 16.8469 10.3845 16.0001 11.1067C15.1534 10.3844 14.1413 10 13.1168 10ZM10.8262 13.9178C10.8262 12.8253 11.7912 11.8333 13.1168 11.8333C13.891 11.8333 14.6441 12.459 15.1088 12.8451C15.1743 12.8995 15.234 12.9491 15.2873 12.9916C15.4195 13.0969 15.5141 13.182 15.589 13.2493C15.7585 13.4016 15.8268 13.463 16.0001 13.463C16.1697 13.463 16.235 13.4043 16.3966 13.2593C16.4732 13.1905 16.5716 13.1023 16.7129 12.9916C16.7817 12.9378 16.8604 12.8725 16.9471 12.8006C17.4145 12.4129 18.1131 11.8333 18.7225 11.8333C20.0482 11.8333 21.174 12.8253 21.174 13.9178C21.174 14.6214 21.0009 15.1138 20.4965 15.7052C19.9363 16.3619 18.9979 17.104 17.4307 18.2459L16.2961 19.0726C16.1239 19.198 15.8763 19.198 15.7042 19.0726L14.5695 18.2459C13.0023 17.104 12.064 16.3619 11.5038 15.7052C10.9993 15.1138 10.8262 14.6214 10.8262 13.9178Z" fill="#2688EB"/>
</svg>
