<svg width="24" height="24" viewBox="0 0 24 24" fill="none" xmlns="http://www.w3.org/2000/svg">
<path fill-rule="evenodd" clip-rule="evenodd" d="M12.0001 3.90001C7.52659 3.90001 3.9001 7.5265 3.9001 12C3.9001 16.1325 6.9955 19.5433 10.9937 20.0382C11.487 20.0993 11.8374 20.5486 11.7764 21.0419C11.7153 21.5352 11.2659 21.8856 10.7726 21.8246C5.88384 21.2194 2.1001 17.0523 2.1001 12C2.1001 6.53239 6.53248 2.10001 12.0001 2.10001C17.052 2.10001 21.2189 5.8832 21.8245 10.7715C21.8856 11.2648 21.5353 11.7142 21.042 11.7753C20.5487 11.8364 20.0993 11.4861 20.0382 10.9928C19.5429 6.99497 16.1322 3.90001 12.0001 3.90001Z" fill="#3F8AE0"/>
<path fill-rule="evenodd" clip-rule="evenodd" d="M12.0001 7.90001C9.73573 7.90001 7.9001 9.73564 7.9001 12C7.9001 13.8087 9.07184 15.346 10.7001 15.8899C11.1716 16.0474 11.4261 16.5572 11.2687 17.0287C11.1112 17.5001 10.6013 17.7546 10.1299 17.5972C7.78922 16.8154 6.1001 14.6061 6.1001 12C6.1001 8.74153 8.74162 6.10001 12.0001 6.10001C14.599 6.10001 16.8033 7.77986 17.5908 10.1104C17.7499 10.5813 17.4971 11.0921 17.0262 11.2512C16.5553 11.4103 16.0446 11.1575 15.8855 10.6866C15.3376 9.06527 13.8038 7.90001 12.0001 7.90001Z" fill="#3F8AE0"/>
<path fill-rule="evenodd" clip-rule="evenodd" d="M23.0001 18C23.0001 15.2386 20.7615 13 18.0001 13C15.2387 13 13.0001 15.2386 13.0001 18C13.0001 20.7614 15.2387 23 18.0001 23C20.7615 23 23.0001 20.7614 23.0001 18ZM17.1724 15.2362C17.2205 14.8217 17.5727 14.5 18.0001 14.5C18.4603 14.5 18.8334 14.8731 18.8334 15.3333V17.1667H20.6668L20.764 17.1723C21.1784 17.2204 21.5001 17.5726 21.5001 18C21.5001 18.4602 21.127 18.8333 20.6668 18.8333H18.8334V20.6667L18.8278 20.7639C18.7797 21.1783 18.4275 21.5 18.0001 21.5C17.5398 21.5 17.1668 21.1269 17.1668 20.6667V18.8333H15.3334L15.2362 18.8277C14.8218 18.7796 14.5001 18.4274 14.5001 18C14.5001 17.5398 14.8732 17.1667 15.3334 17.1667H17.1668V15.3333L17.1724 15.2362Z" fill="#3F8AE0"/>
<path d="M14.0001 12C14.0001 13.1046 13.1047 14 12.0001 14C10.8955 14 10.0001 13.1046 10.0001 12C10.0001 10.8954 10.8955 10 12.0001 10C13.1047 10 14.0001 10.8954 14.0001 12Z" fill="#3F8AE0"/>
</svg>
