<svg width="24" height="24" viewBox="0 0 24 24" fill="none" xmlns="http://www.w3.org/2000/svg">
<path fill-rule="evenodd" clip-rule="evenodd" d="M4.99974 4.99965C6.7903 3.20909 9.26654 2.10001 12.0001 2.10001C14.7337 2.10001 17.2099 3.20909 19.0005 4.99965C20.791 6.79021 21.9001 9.26644 21.9001 12C21.9001 14.7336 20.791 17.2098 19.0005 19.0004C17.2099 20.7909 14.7337 21.9 12.0001 21.9C9.26654 21.9 6.7903 20.7909 4.99974 19.0004C3.20918 17.2098 2.1001 14.7336 2.1001 12C2.1001 9.26645 3.20918 6.79021 4.99974 4.99965ZM12.0001 3.90001C9.76309 3.90001 7.73933 4.80564 6.27253 6.27244C4.80574 7.73924 3.9001 9.763 3.9001 12C3.9001 14.237 4.80574 16.2608 6.27253 17.7276C7.73933 19.1944 9.7631 20.1 12.0001 20.1C14.2371 20.1 16.2609 19.1944 17.7277 17.7276C19.1945 16.2608 20.1001 14.237 20.1001 12C20.1001 9.763 19.1945 7.73924 17.7277 6.27244C16.2609 4.80564 14.2371 3.90001 12.0001 3.90001Z" fill="#2688EB"/>
<path fill-rule="evenodd" clip-rule="evenodd" d="M7.82817 7.82808C8.89487 6.76137 10.3711 6.10001 12.0001 6.10001C13.6291 6.10001 15.1053 6.76137 16.172 7.82808C17.2387 8.89478 17.9001 10.371 17.9001 12C17.9001 13.629 17.2387 15.1052 16.172 16.1719C15.1053 17.2386 13.6291 17.9 12.0001 17.9C10.3711 17.9 8.89487 17.2386 7.82817 16.1719C6.76146 15.1052 6.1001 13.629 6.1001 12C6.1001 10.371 6.76146 8.89478 7.82817 7.82808ZM12.0001 7.90001C10.8677 7.90001 9.8439 8.35793 9.10096 9.10087C8.35802 9.84381 7.9001 10.8676 7.9001 12C7.9001 13.1324 8.35802 14.1562 9.10096 14.8991C9.8439 15.6421 10.8677 16.1 12.0001 16.1C13.1325 16.1 14.1563 15.6421 14.8992 14.8991C15.6422 14.1562 16.1001 13.1324 16.1001 12C16.1001 10.8676 15.6422 9.84381 14.8992 9.10087C14.1563 8.35793 13.1325 7.90001 12.0001 7.90001Z" fill="#2688EB"/>
<path fill-rule="evenodd" clip-rule="evenodd" d="M13.3436 10.6565C13.0008 10.3137 12.5245 10.1 12.0001 10.1C11.4757 10.1 10.9994 10.3137 10.6566 10.6565C10.3137 10.9994 10.1001 11.4756 10.1001 12C10.1001 12.5244 10.3137 13.0007 10.6566 13.3435C10.9994 13.6864 11.4757 13.9 12.0001 13.9C12.5245 13.9 13.0008 13.6864 13.3436 13.3435C13.6864 13.0007 13.9001 12.5244 13.9001 12C13.9001 11.4756 13.6864 10.9994 13.3436 10.6565Z" fill="#2688EB"/>
</svg>
