<svg width="24" height="24" viewBox="0 0 24 24" fill="none" xmlns="http://www.w3.org/2000/svg">
<path fill-rule="evenodd" clip-rule="evenodd" d="M12.0001 3.90001C10.9397 3.90001 9.92907 4.10329 9.00332 4.47218C8.54158 4.65618 8.0181 4.43102 7.8341 3.96927C7.6501 3.50752 7.87526 2.98404 8.33701 2.80005C9.47122 2.34809 10.7078 2.10001 12.0001 2.10001C17.4677 2.10001 21.9001 6.53239 21.9001 12C21.9001 13.292 21.6521 14.5284 21.2004 15.6624C21.0164 16.1241 20.4929 16.3493 20.0312 16.1654C19.5694 15.9814 19.3442 15.4579 19.5282 14.9962C19.8969 14.0706 20.1001 13.0601 20.1001 12C20.1001 7.5265 16.4736 3.90001 12.0001 3.90001Z" fill="#2688EB"/>
<path fill-rule="evenodd" clip-rule="evenodd" d="M11.1314 6.99459C11.1344 6.49754 11.5398 6.09707 12.0368 6.10011C15.2632 6.11986 17.8752 8.72887 17.8999 11.954C17.9037 12.4511 17.5039 12.8571 17.0068 12.8609C16.5098 12.8647 16.1038 12.4648 16.1 11.9678C16.0828 9.72691 14.2676 7.9138 12.0258 7.90008C11.5288 7.89704 11.1283 7.49164 11.1314 6.99459Z" fill="#2688EB"/>
<path fill-rule="evenodd" clip-rule="evenodd" d="M4.99974 19.0004C6.7903 20.7909 9.26654 21.9 12.0001 21.9C14.4095 21.9 16.619 21.0384 18.3352 19.6079L19.4637 20.7364C19.8152 21.0879 20.385 21.0879 20.7365 20.7364C21.088 20.3849 21.088 19.8151 20.7365 19.4636L4.53648 3.2636C4.18501 2.91213 3.61516 2.91213 3.26369 3.2636C2.91222 3.61508 2.91222 4.18492 3.26369 4.5364L4.39218 5.66489C2.96173 7.38114 2.1001 9.59062 2.1001 12C2.1001 14.7336 3.20918 17.2098 4.99974 19.0004ZM3.9001 12C3.9001 14.237 4.80574 16.2608 6.27253 17.7276C7.73933 19.1944 9.7631 20.1 12.0001 20.1C13.913 20.1 15.6699 19.4378 17.0561 18.3288L15.487 16.7597C14.5105 17.4761 13.3042 17.9 12.0001 17.9C10.3711 17.9 8.89487 17.2386 7.82817 16.1719C6.76146 15.1052 6.1001 13.629 6.1001 12C6.1001 10.6959 6.52398 9.48966 7.24038 8.51309L5.67135 6.94405C4.56231 8.33017 3.9001 10.0871 3.9001 12ZM7.9001 12C7.9001 13.1324 8.35802 14.1562 9.10096 14.8992C9.8439 15.6421 10.8677 16.1 12.0001 16.1C12.8068 16.1 13.5584 15.8676 14.1926 15.4653L12.5472 13.8199C11.8859 14.0186 11.1462 13.8331 10.6566 13.3435C10.167 12.8539 9.9815 12.1142 10.1802 11.4529L8.53478 9.80749C8.1325 10.4417 7.9001 11.1933 7.9001 12Z" fill="#2688EB"/>
</svg>
