<svg width="24" height="24" viewBox="0 0 24 24" fill="none" xmlns="http://www.w3.org/2000/svg">
<path d="M12.0001 13C12.5524 13 13.0001 13.4477 13.0001 14V16C13.0001 16.5523 12.5524 17 12.0001 17C11.4478 17 11.0001 16.5523 11.0001 16V14C11.0001 13.4477 11.4478 13 12.0001 13Z" fill="#3F8AE0"/>
<path fill-rule="evenodd" clip-rule="evenodd" d="M7.1002 6.99961C7.1002 4.29341 9.294 2.09961 12.0002 2.09961C13.815 2.09961 15.3982 3.08669 16.2441 4.54896C16.2987 4.64331 16.3502 4.73967 16.3986 4.83791C16.4323 4.9064 16.4645 4.9758 16.495 5.04608C16.6934 5.50186 16.4846 6.03211 16.0289 6.23042C15.5731 6.42874 15.0428 6.22002 14.8445 5.76424C14.8252 5.71991 14.8049 5.6761 14.7836 5.63285C14.7531 5.57081 14.7205 5.50992 14.686 5.45026C14.1487 4.52132 13.1465 3.89961 12.0002 3.89961C10.2881 3.89961 8.9002 5.28753 8.9002 6.99961V8.1L15.2378 8.1C16.0458 8.09999 16.7067 8.09998 17.2438 8.14386C17.7997 8.18928 18.3018 8.28616 18.7707 8.52507C19.5045 8.89898 20.1011 9.4956 20.475 10.2294C20.7139 10.6983 20.8108 11.2004 20.8562 11.7563C20.9001 12.2934 20.9001 12.9542 20.9001 13.7623V16.2377C20.9001 17.0458 20.9001 17.7066 20.8562 18.2437C20.8108 18.7996 20.7139 19.3017 20.475 19.7706C20.1011 20.5044 19.5045 21.101 18.7707 21.4749C18.3018 21.7138 17.7997 21.8107 17.2438 21.8561C16.7067 21.9 16.0459 21.9 15.2379 21.9H8.76239C7.95439 21.9 7.29347 21.9 6.75642 21.8561C6.2005 21.8107 5.69842 21.7138 5.22954 21.4749C4.4957 21.101 3.89908 20.5044 3.52517 19.7706C3.28626 19.3017 3.18938 18.7996 3.14396 18.2437C3.10008 17.7066 3.10009 17.0458 3.1001 16.2377V13.7623C3.10009 12.9543 3.10008 12.2934 3.14396 11.7563C3.18938 11.2004 3.28626 10.6983 3.52517 10.2294C3.89908 9.4956 4.4957 8.89898 5.22954 8.52507C5.69842 8.28616 6.2005 8.18928 6.75642 8.14386C6.86581 8.13492 6.98034 8.12781 7.1002 8.12214V6.99961ZM6.90299 9.93788C6.45839 9.97421 6.21956 10.0408 6.04672 10.1289C5.65158 10.3302 5.33032 10.6515 5.12898 11.0466C5.04092 11.2195 4.97431 11.4583 4.93798 11.9029C4.9008 12.358 4.9001 12.9451 4.9001 13.8V16.2C4.9001 17.0549 4.9008 17.642 4.93798 18.0971C4.97431 18.5417 5.04092 18.7805 5.12898 18.9534C5.33032 19.3485 5.65158 19.6698 6.04672 19.8711C6.21956 19.9592 6.45839 20.0258 6.90299 20.0621C7.3581 20.0993 7.94517 20.1 8.8001 20.1H15.2001C16.055 20.1 16.6421 20.0993 17.0972 20.0621C17.5418 20.0258 17.7806 19.9592 17.9535 19.8711C18.3486 19.6698 18.6699 19.3485 18.8712 18.9534C18.9593 18.7805 19.0259 18.5417 19.0622 18.0971C19.0994 17.642 19.1001 17.0549 19.1001 16.2V13.8C19.1001 12.9451 19.0994 12.358 19.0622 11.9029C19.0259 11.4583 18.9593 11.2195 18.8712 11.0466C18.6699 10.6515 18.3486 10.3302 17.9535 10.1289C17.7806 10.0408 17.5418 9.97421 17.0972 9.93788C16.6421 9.9007 16.055 9.9 15.2001 9.9H8.8001C7.94517 9.9 7.3581 9.9007 6.90299 9.93788Z" fill="#3F8AE0"/>
</svg>
