<svg width="24" height="24" viewBox="0 0 24 24" fill="none" xmlns="http://www.w3.org/2000/svg">
<path fill-rule="evenodd" clip-rule="evenodd" d="M10.7542 3.10004H13.2455C14.5162 3.10003 15.5337 3.10002 16.3514 3.17776C17.1922 3.2577 17.914 3.42616 18.5601 3.8221C19.2194 4.22613 19.7738 4.78047 20.1778 5.43979C20.5737 6.08591 20.7422 6.80773 20.8221 7.64853C20.8999 8.46616 20.8999 9.48373 20.8999 10.7543V13.2457C20.8999 14.5163 20.8999 15.5339 20.8221 16.3515C20.7422 17.1923 20.5737 17.9142 20.1778 18.5603C19.7738 19.2196 19.2194 19.7739 18.5601 20.178C17.914 20.5739 17.1922 20.7424 16.3514 20.8223C15.5337 20.9001 14.5162 20.9 13.2455 20.9H10.7542C9.48354 20.9 8.46597 20.9001 7.64834 20.8223C6.80754 20.7424 6.08573 20.5739 5.43961 20.178C4.78029 19.7739 4.22595 19.2196 3.82192 18.5603C3.42598 17.9142 3.25752 17.1923 3.17757 16.3515C3.09983 15.5339 3.09984 14.5163 3.09985 13.2457V10.7544C3.09984 9.48373 3.09983 8.46616 3.17757 7.64853C3.25752 6.80773 3.42598 6.08591 3.82192 5.43979C4.22595 4.78047 4.78029 4.22613 5.43961 3.8221C6.08573 3.42616 6.80754 3.2577 7.64834 3.17776C8.46597 3.10002 9.48355 3.10003 10.7542 3.10004ZM7.81872 4.96968C7.10968 5.03709 6.69587 5.16335 6.38011 5.35685C5.96299 5.61247 5.61228 5.96317 5.35667 6.38029C5.16317 6.69605 5.03691 7.10986 4.96949 7.8189C4.9008 8.54134 4.89985 9.47324 4.89985 10.8V13.2C4.89985 14.5268 4.9008 15.4587 4.96949 16.1812C5.03691 16.8902 5.16317 17.304 5.35667 17.6198C5.61228 18.0369 5.96299 18.3876 6.38011 18.6432C6.69587 18.8367 7.10968 18.963 7.81872 19.0304C8.54116 19.0991 9.47306 19.1 10.7999 19.1H13.1999C14.5267 19.1 15.4586 19.0991 16.181 19.0304C16.89 18.963 17.3038 18.8367 17.6196 18.6432C18.0367 18.3876 18.3874 18.0369 18.643 17.6198C18.8365 17.304 18.9628 16.8902 19.0302 16.1812C19.0989 15.4587 19.0999 14.5268 19.0999 13.2V10.8C19.0999 9.47324 19.0989 8.54134 19.0302 7.8189C18.9628 7.10986 18.8365 6.69605 18.643 6.38029C18.3874 5.96317 18.0367 5.61247 17.6196 5.35685C17.3038 5.16335 16.89 5.03709 16.181 4.96968C15.4586 4.90099 14.5267 4.90004 13.1999 4.90004H10.7999C9.47306 4.90004 8.54116 4.90099 7.81872 4.96968Z" fill="#2688EB"/>
<path d="M12.5367 15.5C8.81263 15.5 6.68848 12.9475 6.59998 8.70001H8.46543C8.5267 11.8175 9.90194 13.138 10.9913 13.4103V8.70001H12.7478V11.3887C13.8235 11.273 14.9536 10.0478 15.3348 8.70001H17.0914C16.7987 10.3609 15.5732 11.5861 14.7017 12.0898C15.5732 12.4982 16.9689 13.5669 17.5 15.5H15.5664C15.1511 14.2067 14.1163 13.2061 12.7478 13.07V15.5H12.5367Z" fill="#2688EB"/>
</svg>
