<svg width="24" height="24" viewBox="0 0 24 24" fill="none" xmlns="http://www.w3.org/2000/svg">
<path fill-rule="evenodd" clip-rule="evenodd" d="M9.51332 8.35337C8.50947 7.99337 7.43336 8.6083 7.22571 9.6606C7.07758 10.4113 7 11.1871 7 11.9804C7 12.7899 7.08077 13.5811 7.23483 14.346C7.44621 15.3954 8.52127 16.0063 9.52286 15.6461C10.9749 15.124 12.2946 14.3229 13.4185 13.3076C14.1938 12.6073 14.1938 11.3957 13.4185 10.6953C12.2922 9.67777 10.9691 8.87546 9.51332 8.35337ZM8.979 10.0743C8.86162 10.6906 8.8 11.3277 8.8 11.9804C8.8 12.647 8.86427 13.2973 8.98657 13.9258C10.171 13.4893 11.2518 12.8318 12.1791 12.0015C11.2498 11.1694 10.1664 10.5108 8.979 10.0743Z" fill="#2688EB"/>
<path fill-rule="evenodd" clip-rule="evenodd" d="M11.4054 21H15.8217C17.4107 21 18.1675 20.8717 18.9368 20.4604C19.5926 20.1098 20.1127 19.5898 20.4634 18.9341C20.8748 18.1649 21.0031 17.4081 21.0031 15.8194V8.18062C21.0031 6.59185 20.8748 5.83508 20.4634 5.06588C20.1127 4.41018 19.5926 3.89023 18.9368 3.53958C18.1675 3.12825 17.4107 3 15.8217 3H11.4034C11.3818 3 11.3602 3 11.3384 3H8.18144C6.59241 3 5.83558 3.12825 5.06631 3.53958C4.41054 3.89023 3.89047 4.41018 3.53973 5.06588C3.12828 5.83508 3 6.59185 3 8.18062V15.8194C3 17.4081 3.12828 18.1649 3.53973 18.9341C3.89047 19.5898 4.41054 20.1098 5.06631 20.4604C5.83558 20.8717 6.59241 21 8.18144 21H11.3384C11.3608 21 11.3832 21 11.4054 21ZM13.5255 4.8447C12.987 4.8007 12.295 4.8 11.3 4.8L8.18144 4.8C6.67536 4.8 6.2842 4.92953 5.91506 5.12691C5.57295 5.30984 5.30986 5.57289 5.12693 5.91488C4.92955 6.28387 4.8 6.67486 4.8 8.18062V15.8194C4.8 17.3251 4.92955 17.7161 5.12693 18.0851C5.30986 18.4271 5.57295 18.6902 5.91506 18.8731C6.2842 19.0705 6.67536 19.2 8.18144 19.2H11.3C12.2949 19.2 12.987 19.1993 13.5255 19.1553C14.0535 19.1122 14.3541 19.0319 14.5804 18.9166C15.0696 18.6673 15.4674 18.2696 15.7166 17.7804C15.832 17.5541 15.9122 17.2535 15.9553 16.7255C15.9993 16.187 16 15.4949 16 14.5V9.5C16 8.50506 15.9993 7.81298 15.9553 7.2745C15.9122 6.74652 15.832 6.44595 15.7166 6.21963C15.4674 5.7304 15.0696 5.33265 14.5804 5.08338C14.3541 4.96807 14.0535 4.88783 13.5255 4.8447ZM16.9781 19.1607C17.1056 18.9826 17.2201 18.7945 17.3205 18.5976C17.5866 18.0752 17.6971 17.5114 17.7494 16.8721C17.8 16.2517 17.8 15.4859 17.8 14.5384V9.46159C17.8 8.51409 17.8 7.74834 17.7494 7.12792C17.6971 6.48863 17.5866 5.92481 17.3205 5.40244C17.2201 5.20552 17.1056 5.01736 16.9781 4.83926C17.5808 4.89179 17.8394 4.99396 18.0881 5.12691C18.4302 5.30984 18.6933 5.57289 18.8762 5.91488C19.0736 6.28387 19.2031 6.67486 19.2031 8.18062V15.8194C19.2031 17.3251 19.0736 17.7161 18.8762 18.0851C18.6933 18.4271 18.4302 18.6902 18.0881 18.8731C17.8394 19.006 17.5808 19.1082 16.9781 19.1607Z" fill="#2688EB"/>
</svg>
