<svg width="24" height="24" viewBox="0 0 24 24" fill="none" xmlns="http://www.w3.org/2000/svg">
<path d="M5.37363 8.39668C5.19962 8.48866 5.01137 8.3004 5.10335 8.12639L6.09519 6.25002L5.10335 4.37365C5.01137 4.19965 5.19962 4.01139 5.37363 4.10337L7.25 5.09521L9.12637 4.10337C9.30038 4.01139 9.48863 4.19965 9.39665 4.37365L8.40481 6.25002L9.39665 8.12639C9.48863 8.3004 9.30038 8.48866 9.12637 8.39668L7.25 7.40484L5.37363 8.39668Z" fill="#2688EB"/>
<path d="M17.25 6.90484L15.3736 7.89668C15.1996 7.98866 15.0114 7.8004 15.1033 7.62639L16.0952 5.75002L15.1033 3.87365C15.0114 3.69965 15.1996 3.51139 15.3736 3.60337L17.25 4.59521L19.1264 3.60337C19.3004 3.51139 19.4886 3.69965 19.3967 3.87365L18.4048 5.75002L19.3967 7.62639C19.4886 7.8004 19.3004 7.98866 19.1264 7.89668L17.25 6.90484Z" fill="#2688EB"/>
<path d="M15.3736 17.3967C15.1996 17.4887 15.0114 17.3004 15.1033 17.1264L16.0952 15.25L15.1033 13.3737C15.0114 13.1996 15.1996 13.0114 15.3736 13.1034L17.25 14.0952L19.1264 13.1034C19.3004 13.0114 19.4886 13.1996 19.3967 13.3737L18.4048 15.25L19.3967 17.1264C19.4886 17.3004 19.3004 17.4887 19.1264 17.3967L17.25 16.4048L15.3736 17.3967Z" fill="#2688EB"/>
<path fill-rule="evenodd" clip-rule="evenodd" d="M13.1364 10.3636C13.4878 10.7151 13.4878 11.285 13.1364 11.6364L3.63637 21.1364C3.2849 21.4879 2.71505 21.4879 2.36358 21.1364C2.01211 20.785 2.01211 20.2151 2.36358 19.8636L11.8636 10.3636C12.2151 10.0122 12.7849 10.0122 13.1364 10.3636Z" fill="#2688EB"/>
</svg>
