<svg width="24" height="24" viewBox="0 0 24 24" fill="none" xmlns="http://www.w3.org/2000/svg">
<path fill-rule="evenodd" clip-rule="evenodd" d="M7.79998 4.09998H7.76228H7.76225C6.95421 4.09997 6.29336 4.09996 5.75629 4.14384C5.20038 4.18926 4.6983 4.28614 4.22941 4.52505C3.49558 4.89896 2.89896 5.49558 2.52505 6.22941C2.28614 6.6983 2.18926 7.20038 2.14384 7.75629C2.09996 8.29337 2.09997 8.95421 2.09998 9.76226V9.76228V9.79998V14.2V14.2377V14.2377C2.09997 15.0457 2.09996 15.7066 2.14384 16.2437C2.18926 16.7996 2.28614 17.3017 2.52505 17.7705C2.89896 18.5044 3.49558 19.101 4.22941 19.4749C4.6983 19.7138 5.20038 19.8107 5.75629 19.8561C6.29337 19.9 6.95422 19.9 7.76227 19.9H7.79998H16.2H16.2377C17.0457 19.9 17.7066 19.9 18.2437 19.8561C18.7996 19.8107 19.3017 19.7138 19.7705 19.4749C20.5044 19.101 21.101 18.5044 21.4749 17.7705C21.7138 17.3017 21.8107 16.7996 21.8561 16.2437C21.9 15.7066 21.9 15.0457 21.9 14.2377V14.2V9.79998V9.76227C21.9 8.95422 21.9 8.29337 21.8561 7.75629C21.8107 7.20038 21.7138 6.6983 21.4749 6.22941C21.101 5.49558 20.5044 4.89896 19.7705 4.52505C19.3017 4.28614 18.7996 4.18926 18.2437 4.14384C17.7066 4.09996 17.0457 4.09997 16.2377 4.09998H16.2377H16.2H7.79998ZM5.38061 6.01214C5.51618 5.98079 5.68477 5.95568 5.90287 5.93786C6.35798 5.90068 6.94505 5.89998 7.79998 5.89998H16.2C17.0549 5.89998 17.642 5.90068 18.0971 5.93786C18.3152 5.95568 18.4838 5.98079 18.6193 6.01214L14.6103 9.52006C14.0325 10.0256 13.6369 10.371 13.3074 10.6173C12.987 10.857 12.7832 10.9605 12.6069 11.0127C12.2107 11.1298 11.7892 11.1298 11.3931 11.0127C11.2168 10.9605 11.0129 10.857 10.6925 10.6173C10.3631 10.371 9.96747 10.0256 9.38967 9.52006L5.38061 6.01214ZM4.05037 7.23996C4.00084 7.39565 3.96243 7.60221 3.93786 7.90287C3.90068 8.35798 3.89998 8.94505 3.89998 9.79998V14.2C3.89998 15.0549 3.90068 15.642 3.93786 16.0971C3.97419 16.5417 4.04079 16.7805 4.12886 16.9534C4.3302 17.3485 4.65146 17.6698 5.0466 17.8711C5.21944 17.9592 5.45827 18.0258 5.90287 18.0621C6.35798 18.0993 6.94505 18.1 7.79998 18.1H16.2C17.0549 18.1 17.642 18.0993 18.0971 18.0621C18.5417 18.0258 18.7805 17.9592 18.9534 17.8711C19.3485 17.6698 19.6698 17.3485 19.8711 16.9534C19.9592 16.7805 20.0258 16.5417 20.0621 16.0971C20.0993 15.642 20.1 15.0549 20.1 14.2V9.79998C20.1 8.94505 20.0993 8.35798 20.0621 7.90287C20.0375 7.60221 19.9991 7.39565 19.9496 7.23996L15.7956 10.8747L15.7694 10.8976C15.2242 11.3747 14.7768 11.7662 14.3854 12.0589C13.9787 12.363 13.5796 12.6021 13.1173 12.7388C12.388 12.9544 11.6119 12.9544 10.8826 12.7388C10.4204 12.6021 10.0212 12.363 9.61455 12.0589C9.22317 11.7662 8.77574 11.3747 8.23062 10.8977L8.20436 10.8747L4.05037 7.23996Z" fill="#2688EB"/>
</svg>
