<svg width="24" height="24" viewBox="0 0 24 24" fill="none" xmlns="http://www.w3.org/2000/svg">
<path fill-rule="evenodd" clip-rule="evenodd" d="M6.9 4.8C5.7402 4.8 4.8 5.7402 4.8 6.9V7.9C4.8 8.39706 4.39706 8.8 3.9 8.8C3.40294 8.8 3 8.39706 3 7.9V6.9C3 4.74609 4.74609 3 6.9 3H7.9C8.39706 3 8.8 3.40294 8.8 3.9C8.8 4.39706 8.39706 4.8 7.9 4.8H6.9Z" fill="#2688EB"/>
<path fill-rule="evenodd" clip-rule="evenodd" d="M4.8 17.1C4.8 18.2598 5.7402 19.2 6.9 19.2H7.9C8.39706 19.2 8.8 19.6029 8.8 20.1C8.8 20.5971 8.39706 21 7.9 21H6.9C4.74609 21 3 19.2539 3 17.1L3 16.1C3 15.6029 3.40294 15.2 3.9 15.2C4.39706 15.2 4.8 15.6029 4.8 16.1V17.1Z" fill="#2688EB"/>
<path fill-rule="evenodd" clip-rule="evenodd" d="M15.1992 3.9C15.1992 3.40294 15.6022 3 16.0992 3H17.0992C19.2531 3 20.9992 4.74609 20.9992 6.9V7.9C20.9992 8.39706 20.5963 8.8 20.0992 8.8C19.6022 8.8 19.1992 8.39706 19.1992 7.9V6.9C19.1992 5.7402 18.259 4.8 17.0992 4.8H16.0992C15.6022 4.8 15.1992 4.39706 15.1992 3.9Z" fill="#2688EB"/>
<path fill-rule="evenodd" clip-rule="evenodd" d="M20.1 15.2C20.5971 15.2 21 15.603 21 16.1V17.1C21 19.2539 19.2539 21 17.1 21H16.1C15.6029 21 15.2 20.5971 15.2 20.1C15.2 19.603 15.6029 19.2 16.1 19.2H17.1C18.2598 19.2 19.2 18.2598 19.2 17.1V16.1C19.2 15.603 19.6029 15.2 20.1 15.2Z" fill="#2688EB"/>
<path fill-rule="evenodd" clip-rule="evenodd" d="M12 7.09998C10.067 7.09998 8.5 8.66698 8.5 10.6C8.5 12.2217 9.60294 13.5858 11.0996 13.9831V17.1C11.0996 17.5971 11.5026 18 11.9996 18C12.4967 18 12.8996 17.5971 12.8996 17.1V13.9833C14.3967 13.5863 15.5 12.222 15.5 10.6C15.5 8.66698 13.933 7.09998 12 7.09998ZM10.3 10.6C10.3 9.66109 11.0611 8.89998 12 8.89998C12.9389 8.89998 13.7 9.66109 13.7 10.6C13.7 11.5389 12.9389 12.3 12 12.3C11.0611 12.3 10.3 11.5389 10.3 10.6Z" fill="#2688EB"/>
</svg>
