<svg width="24" height="24" viewBox="0 0 24 24" fill="none" xmlns="http://www.w3.org/2000/svg">
<path d="M12 1.10001C14.7614 1.10001 17 3.33858 17 6.10001H17.0541C18.3914 6.10001 18.8764 6.23924 19.3652 6.50071C19.8541 6.76217 20.2378 7.14585 20.4993 7.63474C20.7607 8.12363 20.9 8.60855 20.9 9.94583V14.8344C20.9 16.9234 20.6795 17.6959 20.2655 18.47C19.8516 19.2441 19.2441 19.8516 18.47 20.2656C17.6959 20.6795 16.9234 20.9 14.8343 20.9H9.16562C7.07656 20.9 6.30404 20.6795 5.52997 20.2656C4.75589 19.8516 4.1484 19.2441 3.73442 18.47C3.32044 17.6959 3.09998 16.9234 3.09998 14.8344V9.94583C3.09998 8.60855 3.23921 8.12363 3.50067 7.63474C3.76214 7.14585 4.14582 6.76217 4.63471 6.50071C5.1236 6.23924 5.60853 6.10001 6.9458 6.10001H6.99998C6.99998 3.33858 9.23855 1.10001 12 1.10001ZM17.2468 7.90078L6.9458 7.90001C5.99831 7.90001 5.74277 7.94935 5.48359 8.08797C5.30838 8.18167 5.18164 8.30841 5.08794 8.48362C4.94932 8.7428 4.89998 8.99834 4.89998 9.94583V14.8344C4.89998 16.4694 5.0105 17.0393 5.32168 17.6211C5.5679 18.0815 5.91845 18.4321 6.37884 18.6783C6.9607 18.9895 7.53061 19.1 9.16562 19.1H14.8343C16.4693 19.1 17.0393 18.9895 17.6211 18.6783C18.0815 18.4321 18.4321 18.0815 18.6783 17.6211C18.9894 17.0393 19.1 16.4694 19.1 14.8344V9.94583C19.1 8.99834 19.0506 8.7428 18.912 8.48362C18.8183 8.30841 18.6916 8.18167 18.5164 8.08797C18.2757 7.95925 18.0382 7.90751 17.2468 7.90078ZM15.946 9.00001C16.1513 9.00001 16.2941 9.03482 16.4163 9.10018C16.5385 9.16555 16.6344 9.26147 16.6998 9.38369C16.7652 9.50591 16.8 9.64864 16.8 9.85399V9.94602C16.8 10.1514 16.7652 10.2941 16.6998 10.4163C16.6344 10.5385 16.5385 10.6345 16.4163 10.6998C16.2941 10.7652 16.1513 10.8 15.946 10.8H15.854C15.6486 10.8 15.5059 10.7652 15.3837 10.6998C15.2614 10.6345 15.1655 10.5385 15.1002 10.4163C15.0348 10.2941 15 10.1514 15 9.94602V9.85399C15 9.64864 15.0348 9.50591 15.1002 9.38369C15.1655 9.26147 15.2614 9.16555 15.3837 9.10018C15.5059 9.03482 15.6486 9.00001 15.854 9.00001H15.946ZM7.94599 9.00001C8.15134 9.00001 8.29407 9.03482 8.41629 9.10018C8.53852 9.16555 8.63444 9.26147 8.6998 9.38369C8.76517 9.50591 8.79998 9.64864 8.79998 9.85399V9.94602C8.79998 10.1514 8.76517 10.2941 8.6998 10.4163C8.63444 10.5385 8.53852 10.6345 8.41629 10.6998C8.29407 10.7652 8.15134 10.8 7.94599 10.8H7.85396C7.64861 10.8 7.50588 10.7652 7.38366 10.6998C7.26144 10.6345 7.16552 10.5385 7.10015 10.4163C7.03479 10.2941 6.99998 10.1514 6.99998 9.94602V9.85399C6.99998 9.64864 7.03479 9.50591 7.10015 9.38369C7.16552 9.26147 7.26144 9.16555 7.38366 9.10018C7.50588 9.03482 7.64861 9.00001 7.85396 9.00001H7.94599ZM12 2.90001C10.2327 2.90001 8.79998 4.3327 8.79998 6.10001H15.2C15.2 4.3327 13.7673 2.90001 12 2.90001Z" fill="#2688EB"/>
</svg>
