<svg width="24" height="24" viewBox="0 0 24 24" fill="none" xmlns="http://www.w3.org/2000/svg">
<path d="M12 13.8984C12.8959 13.8984 13.4556 13.6042 13.8485 13.3977C14.2093 13.2081 14.4294 13.0924 14.64 13.3464C15.08 13.8772 14.2 16 12 16C9.8 16 8.92 13.8772 9.36 13.3464C9.57064 13.0924 9.79074 13.2081 10.1515 13.3977C10.5444 13.6042 11.1041 13.8984 12 13.8984Z" fill="#2688EB"/>
<path d="M15.9969 9.88415C15.9463 9.33563 15.2798 8.94284 14.5083 9.00683C13.7368 9.07081 13.1524 9.56734 13.203 10.1159C13.2536 10.6644 13.9201 11.0572 14.6916 10.9932C15.4631 10.9292 16.0475 10.4327 15.9969 9.88415Z" fill="#2688EB"/>
<path d="M10.7969 10.1159C10.8476 9.56734 10.2632 9.07081 9.49166 9.00683C8.72015 8.94284 8.05368 9.33563 8.00306 9.88415C7.95243 10.4327 8.53683 10.9292 9.30834 10.9932C10.0798 11.0572 10.7463 10.6644 10.7969 10.1159Z" fill="#2688EB"/>
<path fill-rule="evenodd" clip-rule="evenodd" d="M19.726 4.03273C21.6576 6.02888 21.1747 11.5183 19.726 15.0116C18.2774 18.5048 15.3801 21 12 21C8.61986 21 5.72259 18.5048 4.27396 15.0116C2.82532 11.5183 2.34245 6.02888 4.27396 4.03273C5.54472 2.71943 6.81549 2.92471 8.63631 3.21884C9.58305 3.37178 10.6785 3.54874 12 3.54874C13.3215 3.54874 14.4169 3.37178 15.3637 3.21884C17.1845 2.92471 18.4553 2.71943 19.726 4.03273ZM18.4325 5.2844C18.6123 5.47019 18.8337 5.84885 18.9942 6.5186C19.151 7.17286 19.2213 7.98897 19.1944 8.90797C19.1402 10.7558 18.7008 12.7849 18.0633 14.322C16.7936 17.3839 14.4229 19.2 12 19.2C9.57713 19.2 7.20639 17.3839 5.93666 14.322C5.29922 12.7849 4.85981 10.7558 4.80563 8.90797C4.77868 7.98897 4.84899 7.17286 5.00581 6.5186C5.16634 5.84885 5.38775 5.47019 5.56752 5.2844C5.9161 4.92416 6.16462 4.84258 6.44221 4.81259C7.0806 4.74361 7.75107 4.89917 8.37735 5.00035C9.32018 5.15267 10.5337 5.34874 12 5.34874C13.4663 5.34874 14.6798 5.15267 15.6226 5.00035C16.2489 4.89917 16.9194 4.74361 17.5578 4.81259C17.8354 4.84258 18.0839 4.92416 18.4325 5.2844Z" fill="#2688EB"/>
</svg>
