<svg width="24" height="24" viewBox="0 0 24 24" fill="none" xmlns="http://www.w3.org/2000/svg">
<path fill-rule="evenodd" clip-rule="evenodd" d="M2.5 11.9704C2.5 18.0734 6.65473 21.7 12.4174 21.7C13.8844 21.7 15.1872 21.5122 16.0557 21.2188C16.7599 20.984 17.0063 20.6672 17.0063 20.2564C17.0063 19.8456 16.7364 19.5874 16.2552 19.5874C16.1378 19.5874 15.9853 19.5991 15.7975 19.6343C14.7412 19.8925 13.9314 20.0569 12.7812 20.0569C7.73449 20.0569 4.3309 17.1227 4.3309 12.0408C4.3309 7.12321 7.48802 3.73135 12.2883 3.73135C16.4782 3.73135 19.8701 6.30165 19.8701 11.0315C19.8701 13.4961 18.9781 15.2214 17.6753 15.2214C16.8303 15.2214 16.3726 14.7637 16.3726 13.9656V8.14429C16.3726 7.48704 15.997 7.088 15.3632 7.088C14.7412 7.088 14.3539 7.48704 14.3539 8.14429V8.73111H14.2365C13.7553 7.68656 12.6638 7.088 11.3728 7.088C9.03725 7.088 7.3824 9.05974 7.3824 11.9587C7.3824 14.9045 9.03725 16.9232 11.455 16.9232C12.8164 16.9232 13.8727 16.2425 14.3891 15.0454H14.5065C14.7177 16.2308 15.821 16.9232 17.2763 16.9232C20.0109 16.9232 21.701 14.3999 21.701 10.8906C21.701 5.53878 17.7692 2.09998 12.3117 2.09998C6.51389 2.09998 2.5 5.98477 2.5 11.9704ZM11.8657 15.0923C10.4104 15.0923 9.55365 13.9187 9.55365 11.9704C9.55365 10.0339 10.4222 8.88369 11.8657 8.88369C13.3446 8.88369 14.2835 10.0808 14.2835 11.9587C14.2835 13.8834 13.3328 15.0923 11.8657 15.0923Z" fill="#2688EB"/>
</svg>
