<svg width="24" height="24" viewBox="0 0 24 24" fill="none" xmlns="http://www.w3.org/2000/svg">
<path fill-rule="evenodd" clip-rule="evenodd" d="M12.3471 3.96708C12.3737 4.46342 11.9928 4.8873 11.4965 4.91384C7.14984 5.14621 3.93162 8.20979 3.93162 11.7068C3.93162 13.0128 4.36923 14.2386 5.14169 15.278C5.25704 15.4332 5.31934 15.6214 5.31934 15.8148C5.31934 16.7146 5.08289 17.5852 4.79359 18.3677C4.62079 18.8351 4.41703 19.3005 4.22038 19.7354C5.93378 19.5412 7.05532 18.9848 7.73306 18.1879C7.97889 17.8989 8.37957 17.7951 8.73482 17.9284C9.73479 18.3036 10.8443 18.5136 12.0158 18.5136C15.7756 18.5136 18.8329 16.3677 19.7844 13.5943C19.9457 13.1241 20.4576 12.8738 20.9278 13.0351C21.3979 13.1964 21.6483 13.7083 21.487 14.1784C20.2463 17.7949 16.4148 20.3136 12.0158 20.3136C10.8433 20.3136 9.71582 20.1359 8.66833 19.8081C7.42025 20.9611 5.61596 21.5128 3.4202 21.599C2.49327 21.6354 1.82177 20.6717 2.21117 19.8066C2.28839 19.6339 2.36618 19.4634 2.44343 19.294C2.67957 18.7764 2.91068 18.2698 3.10529 17.7435C3.32197 17.1574 3.46921 16.6059 3.5087 16.0878C2.63785 14.8157 2.13162 13.3152 2.13162 11.7068C2.13162 7.01809 6.352 3.3863 11.4004 3.11641C11.8967 3.08987 12.3206 3.47073 12.3471 3.96708ZM3.85231 20.546L3.85378 20.5427L3.85231 20.546Z" fill="#2688EB"/>
<path d="M18.8179 3.08966L21.9115 6.18561C22.1019 6.37618 21.9657 6.72062 21.6895 6.72062H21.2468C21.0459 6.72062 20.8532 6.8004 20.7111 6.9424L19.2609 8.39181C19.1188 8.53381 19.039 8.72641 19.039 8.92723V11.4591C19.039 11.9276 18.4475 12.1841 18.1078 11.8446L16.2674 10.0055L13.5364 12.7364C13.185 13.0879 12.6151 13.0879 12.2637 12.7364C11.9122 12.3849 11.9122 11.8151 12.2637 11.4636L14.9941 8.73315L13.1538 6.89413C12.8226 6.56316 13.0611 5.96344 13.5395 5.96344H16.073C16.2739 5.96344 16.4665 5.88369 16.6086 5.74174L18.0594 4.29226C18.2015 4.15025 18.2813 3.95762 18.2813 3.75677V3.31158C18.2813 3.04162 18.6223 2.89392 18.8179 3.08966Z" fill="#2688EB"/>
</svg>
