<svg width="24" height="24" viewBox="0 0 24 24" fill="none" xmlns="http://www.w3.org/2000/svg">
<path fill-rule="evenodd" clip-rule="evenodd" d="M13.3972 7.59774L16.5454 10.0615C16.7512 10.2226 16.8541 10.3031 16.9302 10.339C17.3638 10.5434 17.8752 10.2943 17.9814 9.82687C18 9.74481 18 9.61413 18 9.35278V8.39998C19.0995 8.39998 19.9668 8.73989 20.6087 9.14288C20.9521 9.35851 21.1239 9.46633 21.1862 9.48717C21.5625 9.61305 21.9142 9.3575 21.9107 8.9607C21.9101 8.89501 21.8807 8.77825 21.8219 8.54474C21.4766 7.17348 20.5306 5.49804 18 5.09998V4.04719C18 3.78584 18 3.65517 17.9814 3.5731C17.8752 3.1057 17.3638 2.85653 16.9302 3.06094C16.8541 3.09683 16.7512 3.17736 16.5454 3.33843L13.3972 5.80223C13.2244 5.93747 13.138 6.00509 13.0807 6.06972C12.7618 6.42938 12.7618 6.97058 13.0807 7.33025C13.138 7.39487 13.2244 7.46253 13.3972 7.59774ZM11.374 4.92006C11.87 4.88811 12.2462 4.4601 12.2143 3.96407C12.1823 3.46805 11.7543 3.09183 11.2583 3.12378C6.25946 3.44573 2.10005 7.05984 2.10005 11.7143C2.10005 13.3197 2.60433 14.8176 3.47266 16.0893C3.43808 16.378 3.34977 16.7729 3.1852 17.2898C2.96785 17.9724 2.63531 18.814 2.18039 19.8202C1.891 20.4603 2.17533 21.2139 2.81547 21.5033C2.99545 21.5847 3.19192 21.623 3.38931 21.6152C5.58946 21.5289 7.39699 20.9763 8.64655 19.8224C9.69589 20.1506 10.8254 20.3286 12 20.3286C17.0976 20.3286 21.4801 16.9297 21.8721 12.366C21.9147 11.8707 21.5477 11.4348 21.0525 11.3922C20.5573 11.3497 20.1213 11.7167 20.0788 12.2119C19.7849 15.6324 16.3926 18.5286 12 18.5286C10.8263 18.5286 9.71471 18.3183 8.71284 17.9427C8.35773 17.8096 7.95728 17.9134 7.7115 18.2022C7.03074 19.0021 5.90177 19.5605 4.17536 19.7533C4.47763 19.0415 4.72024 18.4016 4.90036 17.8359C5.1419 17.0772 5.2902 16.3944 5.2902 15.8263C5.2902 15.6328 5.22787 15.4445 5.11245 15.2893C4.33812 14.2478 3.90005 13.0211 3.90005 11.7143C3.90005 8.24217 7.07066 5.19721 11.374 4.92006Z" fill="#3F8AE0"/>
</svg>
