<svg width="24" height="24" viewBox="0 0 24 24" fill="none" xmlns="http://www.w3.org/2000/svg">
<path fill-rule="evenodd" clip-rule="evenodd" d="M11.6558 3.95959C11.681 3.46293 12.1038 3.08075 12.6002 3.10595C17.6627 3.36294 21.9 7.00149 21.9 11.702C21.9 16.5823 17.3403 20.3129 12.0158 20.3129C10.8433 20.3129 9.71582 20.1351 8.66833 19.8072C7.42025 20.9608 5.61596 21.5128 3.4202 21.599C2.49327 21.6354 1.82177 20.6713 2.21117 19.8057C2.28839 19.6329 2.36618 19.4623 2.44343 19.2929C2.67958 18.775 2.91068 18.2682 3.10529 17.7416C3.32197 17.1553 3.46921 16.6035 3.5087 16.0851C2.76377 14.9965 2.28508 13.7399 2.16267 12.3897C2.11777 11.8945 2.48267 11.4566 2.9777 11.4116C3.47272 11.3667 3.91041 11.7318 3.95531 12.227C4.05577 13.3351 4.47287 14.3746 5.14169 15.2749C5.25704 15.4302 5.31934 15.6185 5.31934 15.812C5.31934 16.7122 5.08289 17.5833 4.79359 18.3661C4.62079 18.8337 4.41703 19.2994 4.22038 19.7345C5.93378 19.5402 7.05532 18.9835 7.73306 18.1862C7.97889 17.8971 8.37957 17.7932 8.73482 17.9266C9.73479 18.302 10.8443 18.5121 12.0158 18.5121C16.6151 18.5121 20.1 15.3385 20.1 11.702C20.1 8.19636 16.8685 5.1258 12.509 4.90449C12.0126 4.87929 11.6306 4.45624 11.6558 3.95959ZM3.85231 20.5455L3.85378 20.5422C3.85329 20.5433 3.8528 20.5444 3.85231 20.5455Z" fill="#3F8AE0"/>
<path d="M7.4647 10.176L10.6129 7.71104C10.7857 7.57574 10.8721 7.50808 10.9294 7.44342C11.2483 7.08359 11.2483 6.54213 10.9294 6.1823C10.8721 6.11763 10.7857 6.04998 10.6129 5.91467L7.4647 3.44971C7.25889 3.28856 7.15598 3.20799 7.07986 3.17208C6.64631 2.96758 6.13491 3.21686 6.02868 3.68449C6.01002 3.76659 6.01002 3.89733 6.01002 4.1588V5.2121C3.4795 5.61035 2.53349 7.28652 2.18821 8.65843C2.1294 8.89208 2.1 9.00893 2.09941 9.07466C2.09589 9.47165 2.44754 9.72732 2.82386 9.60138C2.88618 9.58053 3.05792 9.47266 3.40139 9.25692C4.04331 8.85373 4.9106 8.51367 6.01002 8.51367V9.46693C6.01002 9.7284 6.01002 9.85914 6.02868 9.94124C6.13491 10.4089 6.64631 10.6581 7.07986 10.4536C7.15598 10.4177 7.25889 10.3372 7.4647 10.176Z" fill="#3F8AE0"/>
</svg>
