<svg width="24" height="24" viewBox="0 0 24 24" fill="none" xmlns="http://www.w3.org/2000/svg">
<path fill-rule="evenodd" clip-rule="evenodd" d="M12.0158 4.9C7.41659 4.9 3.93162 8.07206 3.93162 11.7068C3.93162 13.0128 4.36923 14.2386 5.14169 15.278C5.25704 15.4332 5.31934 15.6214 5.31934 15.8148C5.31934 16.7146 5.08289 17.5852 4.79359 18.3677C4.62079 18.8351 4.41703 19.3005 4.22038 19.7354C5.93378 19.5412 7.05532 18.9848 7.73306 18.1879C7.97889 17.8989 8.37957 17.7951 8.73482 17.9284C9.73479 18.3036 10.8443 18.5136 12.0158 18.5136C16.6151 18.5136 20.1 15.3415 20.1 11.7068C20.1 10.9549 19.9552 10.2318 19.6866 9.55464C19.5033 9.09261 19.7293 8.56948 20.1913 8.3862C20.6533 8.20292 21.1765 8.42889 21.3597 8.89092C21.7095 9.77254 21.9 10.7204 21.9 11.7068C21.9 16.5847 17.3403 20.3136 12.0158 20.3136C10.8433 20.3136 9.71582 20.1359 8.66833 19.8081C7.42025 20.9611 5.61596 21.5128 3.4202 21.599C2.49327 21.6354 1.82177 20.6717 2.21117 19.8066C2.28839 19.6339 2.36618 19.4634 2.44343 19.294C2.67957 18.7764 2.91068 18.2698 3.10529 17.7435C3.32197 17.1574 3.46921 16.6059 3.5087 16.0878C2.63785 14.8157 2.13162 13.3152 2.13162 11.7068C2.13162 6.82884 6.69139 3.1 12.0158 3.1C12.6052 3.1 13.1832 3.1449 13.7454 3.2312C14.2367 3.30661 14.5739 3.76603 14.4985 4.25733C14.423 4.74863 13.9636 5.08578 13.4723 5.01036C13.0005 4.93793 12.5137 4.9 12.0158 4.9Z" fill="#2688EB"/>
<path d="M19.5 5.75C19.5 6.7165 18.7165 7.5 17.75 7.5C16.7836 7.5 16 6.7165 16 5.75C16 4.7835 16.7836 4 17.75 4C18.7165 4 19.5 4.7835 19.5 5.75Z" fill="#2688EB"/>
</svg>
