<svg width="24" height="24" viewBox="0 0 24 24" fill="none" xmlns="http://www.w3.org/2000/svg">
<path fill-rule="evenodd" clip-rule="evenodd" d="M9.49998 3.09998C5.55986 3.09998 2.09998 5.83028 2.09998 9.49998C2.09998 10.7102 2.48753 11.834 3.14602 12.7861C2.92123 13.8448 2.56444 14.7615 2.35367 15.2492C2.03055 15.9968 2.58866 16.975 3.54971 16.8457C4.28955 16.7462 5.88544 16.4529 7.29824 15.6125C7.9954 15.7997 8.73519 15.9 9.49998 15.9C13.4401 15.9 16.9 13.1697 16.9 9.49998C16.9 5.83028 13.4401 3.09998 9.49998 3.09998ZM3.89998 9.49998C3.89998 7.09454 6.26039 4.89998 9.49998 4.89998C12.7396 4.89998 15.1 7.09454 15.1 9.49998C15.1 11.9054 12.7396 14.1 9.49998 14.1C8.7699 14.1 8.07544 13.9849 7.44008 13.7775C7.17407 13.6906 6.8828 13.7325 6.65197 13.8907C5.95799 14.3663 5.1381 14.6609 4.43873 14.8407C4.64313 14.2433 4.85321 13.5125 4.99135 12.7238C5.03578 12.4701 4.9694 12.2095 4.80901 12.008C4.22579 11.2753 3.89998 10.4136 3.89998 9.49998Z" fill="#2688EB"/>
<path d="M18.9754 8.42465C18.6131 8.76494 18.5952 9.33451 18.9355 9.69682C19.5584 10.36 19.9548 11.1509 20.0671 12H20.066C20.0881 12.1619 20.0996 12.3254 20.1 12.49L20.1 12.5L20.0998 12.5357C20.0915 13.4361 19.7666 14.2849 19.191 15.008C19.0306 15.2095 18.9642 15.4701 19.0086 15.7238C19.1468 16.5125 19.3569 17.2433 19.5613 17.8407C18.8619 17.6609 18.042 17.3663 17.348 16.8907C17.1172 16.7325 16.8259 16.6907 16.5599 16.7775C16.3223 16.8551 16.0765 16.9197 15.8236 16.9703C15.559 17.0232 15.2866 17.0606 15.008 17.0812C14.8408 17.0936 14.6714 17.1 14.5 17.1C14.1422 17.1 13.793 17.0724 13.4551 17.0198C12.964 16.9433 12.5038 17.2795 12.4274 17.7707C12.351 18.2618 12.6871 18.7219 13.1783 18.7983C13.6078 18.8652 14.0496 18.9 14.5 18.9C14.6679 18.9 14.8347 18.8951 15 18.8856C15.4012 18.8625 15.7943 18.8117 16.1764 18.7353C16.354 18.6999 16.5292 18.6588 16.7017 18.6125C18.1145 19.4529 19.7104 19.7462 20.4503 19.8457C21.4113 19.975 21.9694 18.9968 21.6463 18.2492C21.4356 17.7615 21.0788 16.8448 20.854 15.7861C21.5125 14.834 21.9 13.7102 21.9 12.5C21.9 12.3313 21.8927 12.1645 21.8784 12C21.7582 10.6512 21.1563 9.43207 20.2476 8.46452C19.9073 8.10221 19.3377 8.08436 18.9754 8.42465Z" fill="#2688EB"/>
</svg>
