<svg width="24" height="24" viewBox="0 0 24 24" fill="none" xmlns="http://www.w3.org/2000/svg">
<path fill-rule="evenodd" clip-rule="evenodd" d="M12.0158 4.9C8.93928 4.9 6.31379 6.34407 4.95096 8.39951C4.67628 8.81378 4.11779 8.92695 3.70352 8.65227C3.28925 8.3776 3.17608 7.8191 3.45076 7.40483C5.17824 4.7994 8.39455 3.1 12.0158 3.1C17.3402 3.1 21.9 6.82884 21.9 11.7068C21.9 16.5847 17.3402 20.3136 12.0158 20.3136C10.8433 20.3136 9.71574 20.1359 8.66826 19.8081C7.42018 20.9611 5.61589 21.5128 3.42012 21.599C2.4932 21.6354 1.8217 20.6717 2.2111 19.8066C2.73962 18.6242 3.40831 17.4038 3.50863 16.0878C3.38808 15.9117 3.27447 15.7312 3.1682 15.5465C2.92026 15.1157 3.0685 14.5655 3.49931 14.3176C3.93011 14.0696 4.48034 14.2179 4.72828 14.6487C4.8527 14.8649 4.99072 15.0749 5.14161 15.278C5.25697 15.4332 5.31926 15.6214 5.31926 15.8148C5.31926 17.1945 4.77956 18.4986 4.2203 19.7354C5.93371 19.5412 7.05524 18.9848 7.73299 18.1879C7.97881 17.8989 8.3795 17.7951 8.73475 17.9284C9.73472 18.3036 10.8443 18.5136 12.0158 18.5136C16.615 18.5136 20.1 15.3415 20.1 11.7068C20.1 8.07206 16.615 4.9 12.0158 4.9Z" fill="#2688EB"/>
<path fill-rule="evenodd" clip-rule="evenodd" d="M10.8636 8.2636C11.215 7.91212 11.7849 7.91212 12.1364 8.2636L14.7364 10.8636C15.0878 11.2151 15.0878 11.7849 14.7364 12.1364L12.1365 14.7364C11.785 15.0878 11.2152 15.0878 10.8637 14.7364C10.5122 14.3849 10.5122 13.8151 10.8637 13.4636L11.9272 12.4H2.9C2.40294 12.4 2 11.9971 2 11.5C2 11.0029 2.40294 10.6 2.9 10.6H11.9272L10.8636 9.53639C10.5121 9.18492 10.5121 8.61507 10.8636 8.2636Z" fill="#2688EB"/>
</svg>
