<svg width="24" height="24" viewBox="0 0 24 24" fill="none" xmlns="http://www.w3.org/2000/svg">
<path d="M17.7951 3.10001C18.947 3.10001 19.5343 3.21341 20.1455 3.54029C20.7097 3.84205 21.1579 4.29026 21.4597 4.85451C21.7614 5.41871 21.8813 5.96249 21.8979 6.9488L21.9 7.20486V12C21.9 12.4971 21.497 12.9 21 12.9C20.5412 12.9 20.1625 12.5567 20.107 12.1129L20.1 12L20.099 8.90001H3.89898L3.89998 14.7951C3.89998 15.6753 3.95917 15.9818 4.12752 16.2966C4.26153 16.5472 4.45279 16.7385 4.70336 16.8725C4.99394 17.0279 5.27747 17.0903 6.01164 17.0989L6.20483 17.1H18.827L17.3636 15.6364C17.0414 15.3142 17.0145 14.8085 17.283 14.4558L17.3636 14.3636C17.6858 14.0414 18.1914 14.0146 18.5442 14.2831L18.6364 14.3636L21.6364 17.3636C21.9586 17.6858 21.9854 18.1915 21.7169 18.5442L21.6364 18.6364L18.6364 21.6364C18.2849 21.9879 17.7151 21.9879 17.3636 21.6364C17.0414 21.3142 17.0145 20.8085 17.283 20.4558L17.3636 20.3636L18.827 18.9H6.20483C5.14155 18.9 4.55938 18.8034 3.99537 18.5314L3.85448 18.4597C3.29023 18.158 2.84202 17.7098 2.54026 17.1455C2.23852 16.5813 2.11869 16.0375 2.10203 15.0512L2.09998 14.7951V7.20486C2.09998 6.05297 2.21338 5.46572 2.54026 4.85451C2.84202 4.29026 3.29023 3.84205 3.85448 3.54029C4.41868 3.23855 4.96246 3.11872 5.94877 3.10206L6.20483 3.10001H17.7951ZM17.7951 4.90001H6.20483C5.32468 4.90001 5.01815 4.9592 4.70336 5.12755C4.45279 5.26156 4.26153 5.45282 4.12752 5.70339C3.97212 5.99397 3.90973 6.2775 3.90105 7.01167L3.89998 7.10001H20.098L20.0989 7.01167C20.0902 6.2775 20.0278 5.99397 19.8724 5.70339C19.7384 5.45282 19.5472 5.26156 19.2966 5.12755C19.006 4.97215 18.7225 4.90976 17.9883 4.90108L17.7951 4.90001Z" fill="#2688EB"/>
</svg>
