<svg width="24" height="24" viewBox="0 0 24 24" fill="none" xmlns="http://www.w3.org/2000/svg">
<path fill-rule="evenodd" clip-rule="evenodd" d="M15.9944 4.9783C15.7876 4.91109 15.5007 4.89999 14.5 4.89999H6.99998C6.28506 4.89999 5.803 4.90069 5.43127 4.93106C5.07005 4.96058 4.89296 5.01356 4.77359 5.07438C4.47253 5.22778 4.22776 5.47255 4.07437 5.77361C4.01355 5.89297 3.96056 6.07006 3.93105 6.43128C3.91561 6.62029 3.90783 6.83783 3.90393 7.09999H17L17.0367 7.09999H17.0368C17.0576 7.09999 17.0784 7.09999 17.0991 7.09999C17.0955 6.41601 17.0789 6.18174 17.0217 6.00556C16.8634 5.51846 16.4815 5.13657 15.9944 4.9783ZM18.9001 7.15479C18.8994 6.46306 18.8865 5.92004 18.7336 5.44933C18.3972 4.41424 17.5857 3.60272 16.5506 3.2664C16.0351 3.09889 15.4328 3.09934 14.6435 3.09992L14.5 3.09999H6.99998L6.96323 3.09999C6.29442 3.09998 5.73844 3.09997 5.28469 3.13704C4.81216 3.17565 4.37182 3.25891 3.95641 3.47057C3.31666 3.79654 2.79653 4.31667 2.47056 4.95642C2.25889 5.37183 2.17563 5.81217 2.13703 6.28471C2.09996 6.73844 2.09996 7.2944 2.09998 7.96318V7.96324V7.99999V16V16.0367V16.0368C2.09996 16.7056 2.09996 17.2615 2.13703 17.7153C2.17563 18.1878 2.25889 18.6281 2.47056 19.0436C2.79653 19.6833 3.31666 20.2034 3.95641 20.5294C4.37182 20.7411 4.81216 20.8243 5.28469 20.8629C5.73844 20.9 6.29442 20.9 6.96322 20.9H6.99998H11.1C11.597 20.9 12 20.497 12 20C12 19.5029 11.597 19.1 11.1 19.1H6.99998C6.28506 19.1 5.803 19.0993 5.43127 19.0689C5.07005 19.0394 4.89296 18.9864 4.77359 18.9256C4.47253 18.7722 4.22776 18.5274 4.07437 18.2264C4.01355 18.107 3.96056 17.9299 3.93105 17.5687C3.90068 17.197 3.89998 16.7149 3.89998 16V8.89999H17C17.7149 8.89999 18.197 8.90069 18.5687 8.93106C18.9299 8.96058 19.107 9.01356 19.2264 9.07438C19.5274 9.22778 19.7722 9.47255 19.9256 9.77361C19.9864 9.89297 20.0394 10.0701 20.0689 10.4313C20.0993 10.803 20.1 11.2851 20.1 12V16.1C20.1 16.597 20.5029 17 21 17C21.497 17 21.9 16.597 21.9 16.1V12V11.9632C21.9 11.2944 21.9 10.7385 21.8629 10.2847C21.8243 9.81217 21.7411 9.37183 21.5294 8.95642C21.2034 8.31667 20.6833 7.79654 20.0435 7.47057C19.6828 7.28675 19.3032 7.19978 18.9001 7.15479ZM15.9 13.1C15.4029 13.1 15 13.5029 15 14C15 14.497 15.4029 14.9 15.9 14.9H17.1C17.597 14.9 18 14.497 18 14C18 13.5029 17.597 13.1 17.1 13.1H15.9ZM17.7364 18.0364C18.0878 17.6849 18.0878 17.1151 17.7364 16.7636C17.3849 16.4121 16.8151 16.4121 16.4636 16.7636L13.8636 19.3636C13.5121 19.7151 13.5121 20.2849 13.8636 20.6364L16.4636 23.2364C16.8151 23.5879 17.3849 23.5879 17.7364 23.2364C18.0878 22.8849 18.0878 22.3151 17.7364 21.9636L16.6728 20.9H22.1C22.597 20.9 23 20.497 23 20C23 19.5029 22.597 19.1 22.1 19.1H16.6728L17.7364 18.0364Z" fill="#2688EB"/>
</svg>
