<svg width="24" height="24" viewBox="0 0 24 24" fill="none" xmlns="http://www.w3.org/2000/svg">
<path fill-rule="evenodd" clip-rule="evenodd" d="M5.98544 5.51652C5.60665 4.10284 6.44559 2.64974 7.85928 2.27095C9.27296 1.89215 10.7261 2.73109 11.1048 4.14478L11.8967 7.09995H18.4936L18.5297 7.09995C18.9744 7.09993 19.364 7.09991 19.6835 7.12736C20.0205 7.1563 20.3718 7.22128 20.7044 7.40847C21.1856 7.67931 21.5587 8.10781 21.7608 8.62171C21.9005 8.97688 21.9165 9.3338 21.8988 9.67155C21.882 9.99178 21.8284 10.3777 21.7672 10.8181L21.7622 10.8539L21.658 11.6042L21.6531 11.6397C21.5214 12.5878 21.4156 13.35 21.2816 13.965C21.1435 14.5987 20.9628 15.142 20.6482 15.6352C20.1412 16.4299 19.4159 17.0614 18.5591 17.4542C18.5064 17.4784 18.4534 17.5012 18.4 17.5227V17.8V17.8354C18.4 18.3652 18.4 18.8164 18.3698 19.1868C18.338 19.576 18.2683 19.9546 18.0839 20.3165C17.8059 20.8622 17.3622 21.3058 16.8166 21.5839C16.4546 21.7683 16.076 21.8379 15.6869 21.8697C15.3164 21.9 14.8653 21.9 14.3354 21.9H14.3H9.69999H9.66459C9.13472 21.9 8.68354 21.9 8.31311 21.8697C7.92394 21.8379 7.54535 21.7683 7.18342 21.5839C6.63775 21.3058 6.1941 20.8622 5.91607 20.3165C5.73166 19.9546 5.66202 19.576 5.63023 19.1868C5.59996 18.8164 5.59998 18.3652 5.59999 17.8354L5.59999 17.8V17.5227C5.54662 17.5012 5.4936 17.4784 5.44089 17.4542C4.58409 17.0614 3.85874 16.4299 3.35183 15.6352C3.03718 15.142 2.8565 14.5987 2.71842 13.965C2.58441 13.3501 2.47855 12.5878 2.34688 11.6397L2.34195 11.6042L2.23774 10.8539L2.23278 10.8182C2.17158 10.3777 2.11796 9.99179 2.10119 9.67155C2.0835 9.3338 2.09953 8.97688 2.23919 8.62171C2.44126 8.10781 2.81436 7.67931 3.29557 7.40847C3.62815 7.22128 3.97948 7.1563 4.31645 7.12736C4.63595 7.09991 5.02557 7.09993 5.47029 7.09995L5.50637 7.09995H6.40972L5.98544 5.51652ZM8.27322 7.09995H10.0332L9.36618 4.61066C9.24468 4.15721 8.7786 3.88811 8.32515 4.00961C7.8717 4.13111 7.60261 4.5972 7.72411 5.05065L8.27322 7.09995ZM9.5156 16.1C9.53447 16.1 9.55345 16.1 9.57254 16.1H14.4275C14.4465 16.1 14.4655 16.1 14.4844 16.1C15.4555 16.0999 16.1398 16.0985 16.68 16.0571C17.2194 16.0157 17.5471 15.938 17.809 15.818C18.3511 15.5695 18.8099 15.1699 19.1306 14.6672C19.2856 14.4243 19.4076 14.1104 19.5228 13.5818C19.6404 13.0422 19.7374 12.3484 19.8752 11.3566L19.9794 10.6063C20.047 10.1195 20.089 9.81108 20.1013 9.57741C20.113 9.35263 20.0899 9.29109 20.0856 9.28039C20.0351 9.15192 19.9419 9.04479 19.8216 8.97708C19.8115 8.97144 19.7538 8.94002 19.5295 8.92075C19.2964 8.90073 18.9851 8.89995 18.4936 8.89995H5.50637C5.01494 8.89995 4.70361 8.90073 4.47048 8.92075C4.24622 8.94002 4.18845 8.97144 4.17844 8.97708C4.05813 9.04479 3.96486 9.15192 3.91434 9.28039C3.91014 9.29109 3.88695 9.35263 3.89873 9.57741C3.91096 9.81107 3.95302 10.1195 4.02063 10.6063L4.12483 11.3566C4.26259 12.3484 4.35956 13.0422 4.47715 13.5818C4.59234 14.1104 4.71439 14.4243 4.86934 14.6672C5.19004 15.1699 5.64893 15.5695 6.19099 15.818C6.4529 15.938 6.78056 16.0157 7.32 16.0571C7.86016 16.0985 8.54451 16.0999 9.5156 16.1ZM9.44305 17.9H7.4C7.40015 18.4192 7.40208 18.769 7.42425 19.0403C7.44695 19.3181 7.48631 19.4335 7.51988 19.4993C7.62534 19.7063 7.79362 19.8746 8.0006 19.9801C8.06649 20.0136 8.18184 20.053 8.45968 20.0757C8.74804 20.0993 9.12509 20.1 9.69999 20.1H14.3C14.8749 20.1 15.2519 20.0993 15.5403 20.0757C15.8181 20.053 15.9335 20.0136 15.9994 19.9801C16.2064 19.8746 16.3746 19.7063 16.4801 19.4993C16.5137 19.4335 16.553 19.3181 16.5757 19.0403C16.5979 18.769 16.5998 18.4192 16.6 17.9H14.5569C14.5259 17.9 14.4948 17.9 14.4634 17.9H14.4275H9.57254H9.53662C9.50523 17.9 9.47404 17.9 9.44305 17.9Z" fill="#2688EB"/>
</svg>
