<svg width="24" height="24" viewBox="0 0 24 24" fill="none" xmlns="http://www.w3.org/2000/svg">
<path fill-rule="evenodd" clip-rule="evenodd" d="M10.1 4.99998C10.1 4.50292 10.5029 4.09998 11 4.09998H14.5C14.8874 4.09998 15.2313 4.34786 15.3538 4.71537L15.8153 6.09998H17.25C18.7135 6.09998 19.9 7.28642 19.9 8.74998C19.9 10.1034 18.8854 11.2198 17.5754 11.3802L18.1496 13.1028C20.2342 13.1814 21.9 14.8962 21.9 17C21.9 19.1539 20.1539 20.9 18 20.9C15.8461 20.9 14.1 19.1539 14.1 17C14.1 16.9665 14.1004 16.9332 14.1012 16.9H12.5H10.9V17C10.9 19.1539 9.15389 20.9 6.99998 20.9C4.84607 20.9 3.09998 19.1539 3.09998 17V16.9H2.49998C2.00292 16.9 1.59998 16.497 1.59998 16V15V14.9632V14.9632C1.59996 14.2944 1.59995 13.7384 1.63703 13.2847C1.67563 12.8122 1.75889 12.3718 1.97055 11.9564C2.29652 11.3167 2.81666 10.7965 3.45641 10.4706C3.87182 10.2589 4.31216 10.1756 4.78469 10.137C5.23843 10.1 5.7944 10.1 6.46318 10.1H6.46319H6.46319H6.46322L6.49998 10.1H7.49998L7.6769 10.0999C8.90145 10.0994 9.7448 10.099 10.4532 10.3469C11.7171 10.7891 12.7108 11.7829 13.1531 13.0467C13.3489 13.6064 13.3898 14.2504 13.3981 15.1H14.5933C14.9951 14.381 15.618 13.8023 16.3699 13.4559L13.8513 5.89998H11C10.5029 5.89998 10.1 5.49703 10.1 4.99998ZM16.982 9.59998H17.25C17.7194 9.59998 18.1 9.21942 18.1 8.74998C18.1 8.28053 17.7194 7.89998 17.25 7.89998H16.4153L16.982 9.59998ZM7.49998 11.9C8.97175 11.9 9.47812 11.9127 9.8587 12.0459C10.6055 12.3072 11.1927 12.8944 11.4541 13.6413C11.5555 13.931 11.587 14.2937 11.5963 15.1H3.39998V15C3.39998 14.2851 3.40068 13.803 3.43105 13.4313C3.46056 13.07 3.51355 12.893 3.57437 12.7736C3.72776 12.4725 3.97253 12.2278 4.27359 12.0744C4.39296 12.0135 4.57005 11.9606 4.93127 11.931C5.303 11.9007 5.78506 11.9 6.49998 11.9H7.49998ZM4.89998 16.9V17C4.89998 18.1598 5.84018 19.1 6.99998 19.1C8.15978 19.1 9.09998 18.1598 9.09998 17V16.9H4.89998ZM18 14.9C16.8402 14.9 15.9 15.8402 15.9 17C15.9 18.1598 16.8402 19.1 18 19.1C19.1598 19.1 20.1 18.1598 20.1 17C20.1 15.8402 19.1598 14.9 18 14.9Z" fill="#2688EB"/>
</svg>
