<svg width="24" height="24" viewBox="0 0 24 24" fill="none" xmlns="http://www.w3.org/2000/svg">
<path fill-rule="evenodd" clip-rule="evenodd" d="M16 4.8C14.2327 4.8 12.8 6.23269 12.8 8C12.8 9.76731 14.2327 11.2 16 11.2C17.7673 11.2 19.2 9.76731 19.2 8C19.2 6.23269 17.7673 4.8 16 4.8ZM11 8C11 5.23858 13.2386 3 16 3C18.7614 3 21 5.23858 21 8C21 10.7614 18.7614 13 16 13C13.2386 13 11 10.7614 11 8Z" fill="#2688EB"/>
<path fill-rule="evenodd" clip-rule="evenodd" d="M9.68339 11.0141C10.0624 11.3359 10.1085 11.9039 9.78652 12.2827L4.98424 17.9313C4.72449 18.2368 4.74289 18.6904 5.02655 18.9739C5.31035 19.2576 5.76453 19.2758 6.0702 19.0159L11.7159 14.2145C12.0947 13.8924 12.663 13.9382 12.9853 14.3167C13.3076 14.6953 13.2618 15.2633 12.8831 15.5854L7.23731 20.3868C6.21682 21.2546 4.70054 21.1937 3.75307 20.2467C2.80608 19.3002 2.74462 17.7857 3.61181 16.7657L8.41409 11.1172C8.73612 10.7384 9.3044 10.6922 9.68339 11.0141Z" fill="#2688EB"/>
</svg>
