<svg width="24" height="24" viewBox="0 0 24 24" fill="none" xmlns="http://www.w3.org/2000/svg">
<path fill-rule="evenodd" clip-rule="evenodd" d="M16.7161 4.06462C17.3258 3.93762 17.7259 3.8551 18.0326 3.81873C18.3317 3.78327 18.4414 3.80634 18.4894 3.82266C18.6934 3.89195 18.8657 4.03209 18.9752 4.21764C19.0009 4.26135 19.0459 4.36401 19.0722 4.66408C19.0988 4.96765 19.0999 5.36936 19.0999 5.97817L8.89988 8.10317V7.56316C8.89988 7.08622 8.90045 6.77716 8.91811 6.53852C8.93493 6.3112 8.964 6.2112 8.99088 6.14929C9.07114 5.96445 9.20063 5.8052 9.36522 5.68894C9.42034 5.65 9.51231 5.60114 9.73142 5.53831C9.96144 5.47235 10.2639 5.40876 10.7308 5.3115L16.7161 4.06462ZM7.09988 15.06H6.89998C5.10513 15.06 3.77509 15.5116 2.87901 16.2746C1.97671 17.0429 1.59998 18.0567 1.59998 18.985C1.59998 20.8489 3.11102 22.36 4.97498 22.36C5.90328 22.36 6.91704 21.9832 7.68532 21.0809C8.4483 20.1849 8.89998 18.8548 8.89998 17.06V15.96V15.06L8.89988 9.94181L19.0999 7.81681V13.06H18.9C17.1051 13.06 15.7751 13.5116 14.879 14.2746C13.9767 15.0429 13.6 16.0567 13.6 16.985C13.6 18.8489 15.111 20.36 16.975 20.36C17.9033 20.36 18.917 19.9832 19.6853 19.0809C20.4483 18.1849 20.9 16.8548 20.9 15.06V13.96V13.06L20.8999 6.00301V5.96423C20.9 5.39086 20.9 4.90269 20.8653 4.50702C20.8292 4.09483 20.7494 3.68268 20.5256 3.30325C20.1973 2.74661 19.6803 2.32617 19.0684 2.11831C18.6513 1.97663 18.2315 1.98254 17.8206 2.03125C17.4262 2.07802 16.9483 2.17759 16.387 2.29455L16.349 2.30245L10.3637 3.54933L10.3333 3.55565C9.90524 3.64482 9.53698 3.72153 9.23529 3.80804C8.91557 3.89971 8.61088 4.01799 8.32668 4.21875C7.89276 4.52527 7.55138 4.9451 7.33979 5.43242C7.20122 5.75159 7.14756 6.074 7.12302 6.40569C7.09986 6.71867 7.09987 7.0948 7.09988 7.53207V7.56316V15.06ZM16.0459 15.6451C15.5732 16.0476 15.4 16.5464 15.4 16.985C15.4 17.8548 16.1051 18.56 16.975 18.56C17.4136 18.56 17.9123 18.3867 18.3148 17.914C18.7226 17.4351 19.1 16.5651 19.1 15.06V14.86H18.9C17.3948 14.86 16.5248 15.2373 16.0459 15.6451ZM3.39997 18.985C3.39997 18.5464 3.57324 18.0476 4.04594 17.6451C4.52487 17.2373 5.39483 16.86 6.89998 16.86H7.09998V17.06C7.09998 18.5651 6.72261 19.4351 6.31482 19.914C5.91233 20.3867 5.41358 20.56 4.97498 20.56C4.10513 20.56 3.39997 19.8548 3.39997 18.985Z" fill="#2688EB"/>
</svg>
