<svg width="24" height="24" viewBox="0 0 24 24" fill="none" xmlns="http://www.w3.org/2000/svg">
<path d="M18.0936 5.23708C18.4581 4.89921 19.0275 4.92062 19.3655 5.28489L19.3957 5.31758C21.012 7.07516 22 9.41898 22 11.991C22 14.5823 20.9971 16.9419 19.3593 18.7038C19.0209 19.0677 18.4514 19.0886 18.0873 18.7504C17.7232 18.4122 17.7023 17.843 18.0407 17.479C19.3821 16.036 20.2 14.1092 20.2 11.991C20.2 9.88848 19.3942 7.9746 18.0705 6.53521L18.0458 6.50842C17.7078 6.14415 17.7292 5.57494 18.0936 5.23708Z" fill="#2688EB"/>
<path d="M14.2666 7.45951C14.6197 7.10988 15.1896 7.11262 15.5394 7.46562C16.6889 8.62579 17.3999 10.2293 17.3999 11.997C17.3999 13.7647 16.6889 15.3682 15.5394 16.5284C15.1896 16.8814 14.6197 16.8841 14.2666 16.5345C13.9134 16.1849 13.9107 15.6153 14.2605 15.2623C15.088 14.4271 15.5999 13.274 15.5999 11.997C15.5999 10.72 15.088 9.56691 14.2605 8.73174C13.9107 8.37874 13.9134 7.80914 14.2666 7.45951Z" fill="#2688EB"/>
<path d="M2.76861 18.2964C4.52713 20.065 7.91312 18.3118 7.91312 14.9825V10.2671L10.1129 9.67712L10.3057 9.61715C11.3141 9.25892 12 8.29692 12 7.20673V5.71356L11.9915 5.60235C11.9298 5.20494 11.5431 4.92883 11.1383 5.02081C9.88199 5.30623 9.00507 5.52203 8.49067 5.67364L8.24594 5.75C6.99317 6.16999 6.11347 7.15458 6.13259 8.51969L6.1312 13.2965C2.47445 13.4797 0.949409 16.4667 2.76861 18.2964Z" fill="#2688EB"/>
</svg>
