<svg width="24" height="24" viewBox="0 0 24 24" fill="none" xmlns="http://www.w3.org/2000/svg">
<path d="M6.2636 4.2636C6.61508 3.91213 7.18492 3.91213 7.5364 4.2636L19.7364 16.4636C20.0879 16.8151 20.0879 17.3849 19.7364 17.7364C19.3849 18.0879 18.8151 18.0879 18.4636 17.7364L16 15.2728V18.3111C16 19.3059 15.1521 20 14.25 20C13.4878 20 12.7446 19.7196 12.1867 19.2018L7.94671 15.2667H6.13958C5.02234 15.2667 4 14.4107 4 13.2162V10.7838C4 9.5893 5.02234 8.73333 6.13958 8.73333H7.94671L8.73185 8.00464L6.2636 5.5364C5.91213 5.18492 5.91213 4.61508 6.2636 4.2636ZM10.0153 9.28807C9.6466 9.62295 9.27589 9.9555 8.91224 10.293C8.74579 10.4475 8.52709 10.5333 8.3 10.5333H6.13958C6.02438 10.5333 5.93318 10.5763 5.87531 10.63C5.81857 10.6826 5.8 10.7373 5.8 10.7838V13.2162C5.8 13.2626 5.81857 13.3174 5.87531 13.37C5.93318 13.4237 6.02438 13.4667 6.13958 13.4667H8.3C8.52709 13.4667 8.74579 13.5525 8.91224 13.707L13.4112 17.8825C13.6121 18.069 13.8931 18.1874 14.2 18.1991V13.4728L10.0153 9.28807ZM14.25 4C15.1521 4 16 4.69408 16 5.68889V8.01081C16 8.50787 15.5971 8.91081 15.1 8.91081C14.6029 8.91081 14.2 8.50787 14.2 8.01081V5.80095C13.8931 5.8126 13.6121 5.93102 13.4112 6.1175L13.2805 6.23877C12.9162 6.5769 12.3468 6.55567 12.0086 6.19134C11.6705 5.82702 11.6917 5.25757 12.0561 4.91944L12.1867 4.79816C12.7446 4.28038 13.4878 4 14.25 4Z" fill="#2688EB"/>
</svg>
