<svg width="24" height="24" viewBox="0 0 24 24" fill="none" xmlns="http://www.w3.org/2000/svg">
<path d="M14.3011 1.1058C15.0334 1.27674 15.6782 1.64898 16.1924 2.19775C16.7137 2.75405 17.0169 3.34346 17.3434 4.49563L18.1342 7.44002C18.2772 7.97348 17.9606 8.52182 17.4271 8.66476C16.8937 8.8077 16.3453 8.49112 16.2024 7.95765L15.4819 5.26897L15.3693 4.86667C15.1543 4.13809 14.9928 3.84255 14.733 3.56527C14.489 3.30492 14.1939 3.13455 13.8465 3.05345C13.4764 2.96708 13.1397 2.97494 12.4013 3.15306L11.9965 3.25666L6.86906 4.63056C6.01508 4.85939 5.61532 5.02518 5.36024 5.21376L5.29931 5.26142L5.16537 5.37955C4.90502 5.6235 4.73465 5.91859 4.65355 6.26604C4.55998 6.66692 4.577 7.02869 4.80128 7.90449L7.52476 18.0731L7.63739 18.4754C7.85236 19.204 8.01392 19.4995 8.27374 19.7768C8.5177 20.0371 8.81278 20.2075 9.16023 20.2886C9.56144 20.3822 9.90554 20.3649 10.7676 20.1484C11.3032 20.0139 11.8465 20.3391 11.981 20.8747C12.1156 21.4104 11.7904 21.9537 11.2548 22.0882C10.1059 22.3767 9.449 22.4097 8.70563 22.2362C7.97328 22.0653 7.32854 21.6931 6.81432 21.1443C6.29305 20.588 5.98975 19.9986 5.6633 18.8464L2.92491 8.63362C2.57028 7.31011 2.52024 6.60688 2.7059 5.81144C2.85784 5.16046 3.16884 4.5787 3.63603 4.08307L3.81854 3.90128L3.99738 3.74354C4.49307 3.33191 5.07463 3.05919 6.0887 2.77113L6.35143 2.69871L11.4789 1.32481C12.8024 0.97018 13.5056 0.920139 14.3011 1.1058ZM18.3718 10.671C20.372 10.671 22.0034 12.2625 22.0034 14.2383C22.0034 16.1473 21.2317 17.0893 18.2234 19.3719L16.8957 20.3794C16.3681 20.7797 15.6386 20.7797 15.1111 20.3794L13.7833 19.3719C10.775 17.0893 10.0034 16.1473 10.0034 14.2383C10.0034 12.2625 11.6347 10.671 13.6349 10.671C14.4641 10.671 15.2308 10.8947 15.9173 11.3307L16.0034 11.388L16.0894 11.3307C16.7072 10.9383 17.39 10.7179 18.1249 10.6777L18.3718 10.671ZM18.3718 12.671C17.7423 12.671 17.2017 12.8993 16.7015 13.387L16.3524 13.7273C16.1582 13.9167 15.8485 13.9167 15.6543 13.7273L15.3053 13.387C14.805 12.8993 14.2644 12.671 13.6349 12.671C12.7284 12.671 12.0034 13.3783 12.0034 14.2383C12.0034 15.2307 12.4043 15.7842 14.5278 17.4235L16.0024 18.546L17.0145 17.7787C19.4636 15.9204 19.9716 15.3367 20.0019 14.3394L20.0034 14.2383C20.0034 13.3783 19.2783 12.671 18.3718 12.671Z" fill="#2688EB"/>
</svg>
