<svg width="24" height="24" viewBox="0 0 24 24" fill="none" xmlns="http://www.w3.org/2000/svg">
<path d="M14.2977 1.43478C15.03 1.60572 15.6747 1.97796 16.189 2.52673C16.7102 3.08303 17.0135 3.67244 17.34 4.82461L18.1308 7.769C18.2738 8.30246 17.9572 8.8508 17.4237 8.99374C16.8902 9.13668 16.3419 8.8201 16.199 8.28663L15.4785 5.59795L15.3659 5.19565C15.1509 4.46707 14.9894 4.17153 14.7295 3.89425C14.4856 3.6339 14.1905 3.46353 13.8431 3.38243C13.473 3.29606 13.1363 3.30392 12.3978 3.48204L11.9931 3.58564L6.86565 4.95954C6.01166 5.18837 5.6119 5.35416 5.35683 5.54274L5.29589 5.5904L5.16195 5.70853C4.9016 5.95248 4.73123 6.24757 4.65013 6.59502C4.55656 6.9959 4.57358 7.35767 4.79786 8.23347L7.52134 18.4021L7.63398 18.8043C7.84895 19.5329 8.0105 19.8285 8.27032 20.1058C8.51428 20.3661 8.80936 20.5365 9.15681 20.6176C9.55802 20.7112 9.90213 20.6939 10.7642 20.4774C11.2998 20.3429 11.8431 20.6681 11.9776 21.2037C12.1122 21.7393 11.787 22.2826 11.2513 22.4172C10.1025 22.7057 9.44558 22.7387 8.70221 22.5652C7.96986 22.3943 7.32512 22.022 6.81091 21.4733C6.28963 20.917 5.98633 20.3276 5.65988 19.1754L2.92149 8.96259C2.56686 7.63909 2.51682 6.93586 2.70248 6.14042C2.85443 5.48944 3.16543 4.90768 3.63261 4.41205L3.81512 4.23026L3.99396 4.07252C4.48966 3.66088 5.07121 3.38817 6.08528 3.10011L6.34801 3.02769L11.4755 1.65379C12.799 1.29916 13.5022 1.24912 14.2977 1.43478ZM18.3684 11C20.3686 11 21.9999 12.5915 21.9999 14.5673C21.9999 16.4763 21.2283 17.4183 18.22 19.7009L16.8922 20.7084C16.3647 21.1087 15.6352 21.1087 15.1076 20.7084L13.7798 19.7009C10.7716 17.4183 9.99993 16.4763 9.99993 14.5673C9.99993 12.5915 11.6313 11 13.6315 11C14.4607 11 15.2274 11.2237 15.9139 11.6597L15.9999 11.717L16.086 11.6597C16.7038 11.2673 17.3866 11.0469 18.1215 11.0067L18.3684 11Z" fill="#2688EB"/>
</svg>
