<svg width="24" height="24" viewBox="0 0 24 24" fill="none" xmlns="http://www.w3.org/2000/svg">
<path fill-rule="evenodd" clip-rule="evenodd" d="M8.22787 3.10001C6.65822 3.10001 5.90856 3.22667 5.14641 3.63427C4.49687 3.98165 3.98174 4.49678 3.63436 5.14631C3.22676 5.90846 3.1001 6.65813 3.1001 8.22778V15.7722C3.1001 17.3419 3.22676 18.0915 3.63436 18.8537C3.98174 19.5032 4.49687 20.0184 5.14641 20.3657C5.90856 20.7733 6.65822 20.9 8.22787 20.9H15.7723C17.342 20.9 18.0916 20.7733 18.8538 20.3657C19.5033 20.0184 20.0185 19.5032 20.3658 18.8537C20.7734 18.0915 20.9001 17.3419 20.9001 15.7722V8.22778C20.9001 6.65813 20.7734 5.90846 20.3658 5.14631C20.0185 4.49678 19.5033 3.98164 18.8538 3.63427C18.0916 3.22667 17.342 3.10001 15.7723 3.10001H8.22787ZM5.99528 5.22154C6.35727 5.02795 6.7412 4.90001 8.22787 4.90001H15.7723C17.259 4.90001 17.6429 5.02795 18.0049 5.22154C18.3408 5.40115 18.599 5.65934 18.7786 5.99519C18.9665 6.34658 19.0926 6.71865 19.0998 8.10003H4.90042C4.90764 6.71865 5.0337 6.34658 5.22163 5.99519C5.40124 5.65934 5.65944 5.40115 5.99528 5.22154ZM4.9001 9.90003V15.7722C4.9001 17.2589 5.02804 17.6428 5.22163 18.0048C5.40124 18.3407 5.65944 18.5989 5.99528 18.7785C6.35727 18.9721 6.7412 19.1 8.22787 19.1H15.7723C17.259 19.1 17.6429 18.9721 18.0049 18.7785C18.3408 18.5989 18.599 18.3407 18.7786 18.0048C18.9722 17.6428 19.1001 17.2589 19.1001 15.7722V9.90003H4.9001Z" fill="#2688EB"/>
</svg>
