<svg width="24" height="24" viewBox="0 0 24 24" fill="none" xmlns="http://www.w3.org/2000/svg">
<path fill-rule="evenodd" clip-rule="evenodd" d="M8.22787 3.10001C6.65822 3.10001 5.90856 3.22667 5.14641 3.63427C4.49687 3.98165 3.98174 4.49678 3.63436 5.14631C3.22676 5.90846 3.1001 6.65813 3.1001 8.22778V15.7722C3.1001 17.3419 3.22676 18.0915 3.63436 18.8537C3.98174 19.5032 4.49687 20.0184 5.14641 20.3657C5.90856 20.7733 6.65822 20.9 8.22787 20.9H12.0978C12.5948 20.9 12.9978 20.4971 12.9978 20C12.9978 19.503 12.5948 19.1 12.0978 19.1H8.22787C6.7412 19.1 6.35727 18.9721 5.99528 18.7785C5.65944 18.5989 5.40124 18.3407 5.22163 18.0048C5.02804 17.6428 4.9001 17.2589 4.9001 15.7722V9.90003H20.0001C20.2388 9.90003 20.4677 9.80521 20.6365 9.63643C20.8053 9.46764 20.9001 9.23872 20.9001 9.00003L20.9001 8.22778C20.9001 6.65813 20.7734 5.90847 20.3658 5.14631C20.0185 4.49678 19.5033 3.98164 18.8538 3.63427C18.0916 3.22667 17.342 3.10001 15.7723 3.10001H8.22787ZM19.0998 8.10003H4.90042C4.90764 6.71865 5.0337 6.34658 5.22163 5.99519C5.40124 5.65934 5.65944 5.40115 5.99528 5.22154C6.35727 5.02795 6.7412 4.90001 8.22787 4.90001H15.7723C17.259 4.90001 17.6429 5.02795 18.0049 5.22154C18.3408 5.40115 18.599 5.65934 18.7786 5.99519C18.9665 6.34658 19.0926 6.71865 19.0998 8.10003Z" fill="#2688EB"/>
<path d="M15.5111 21.4943C16.7472 22.7575 19.0219 21.5341 19.0219 19.1562V15.7884L20.6736 15.3383L20.8091 15.2955C21.518 15.0396 22.0001 14.3525 22.0001 13.5739V12.5075L21.9941 12.428C21.9508 12.1442 21.6789 11.947 21.3943 12.0127C20.5113 12.2165 19.8949 12.3707 19.5333 12.4789L19.3613 12.5335C18.4806 12.8334 18.0157 13.5263 18.0292 14.5013L18.0282 17.913C15.4577 18.0438 14.2323 20.1876 15.5111 21.4943Z" fill="#2688EB"/>
<path d="M7.00088 12.6989C7.00088 12.2019 7.40382 11.7989 7.90088 11.7989H15.1009C15.5979 11.7989 16.0009 12.2019 16.0009 12.6989C16.0009 13.196 15.5979 13.5989 15.1009 13.5989H7.90088C7.40382 13.5989 7.00088 13.196 7.00088 12.6989Z" fill="#2688EB"/>
<path d="M7.89404 15.4C7.39699 15.4 6.99404 15.8029 6.99404 16.3C6.99404 16.7971 7.39699 17.2 7.89404 17.2H13.094C13.5911 17.2 13.994 16.7971 13.994 16.3C13.994 15.8029 13.5911 15.4 13.094 15.4H7.89404Z" fill="#2688EB"/>
</svg>
