<svg width="24" height="24" viewBox="0 0 24 24" fill="none" xmlns="http://www.w3.org/2000/svg">
<path fill-rule="evenodd" clip-rule="evenodd" d="M15.9996 1.75C16.4967 1.75 16.8996 2.15294 16.8996 2.65V3.22687C17.3778 3.30173 17.8136 3.42487 18.2242 3.63404C19.1462 4.10382 19.8958 4.85343 20.3655 5.77542C20.6589 6.35127 20.7831 6.97683 20.8421 7.69949C20.8996 8.40325 20.8996 9.2739 20.8996 10.3609V14.6389C20.8996 15.726 20.8996 16.5967 20.8421 17.3005C20.7831 18.0231 20.6589 18.6487 20.3655 19.2245C19.8958 20.1465 19.1462 20.8961 18.2242 21.3659C17.6483 21.6593 17.0228 21.7834 16.3001 21.8425C15.5963 21.9 14.7257 21.9 13.6386 21.9H10.3607C9.27362 21.9 8.40288 21.9 7.69913 21.8425C6.97646 21.7834 6.3509 21.6593 5.77506 21.3659C4.85306 20.8961 4.10346 20.1465 3.63368 19.2245C3.34027 18.6487 3.21614 18.0231 3.1571 17.3005C3.0996 16.5967 3.0996 15.726 3.09961 14.6389V10.361C3.0996 9.27395 3.0996 8.40327 3.1571 7.69949C3.21614 6.97683 3.34027 6.35127 3.63368 5.77542C4.10346 4.85343 4.85306 4.10382 5.77506 3.63404C6.18558 3.42487 6.62138 3.30173 7.09961 3.22687V2.65C7.09961 2.15294 7.50255 1.75 7.99961 1.75C8.49667 1.75 8.89961 2.15294 8.89961 2.65V3.10694C9.33761 3.09997 9.82262 3.09997 10.3606 3.09998L11.0996 3.09998V2.65C11.0996 2.15294 11.5026 1.75 11.9996 1.75C12.4967 1.75 12.8996 2.15294 12.8996 2.65V3.09998L13.6386 3.09998C14.1766 3.09997 14.6616 3.09997 15.0996 3.10694V2.65C15.0996 2.15294 15.5026 1.75 15.9996 1.75ZM6.59224 5.23786C6.73329 5.16599 6.8953 5.1065 7.09961 5.05877V5.35C7.09961 5.84706 7.50255 6.25 7.99961 6.25C8.49667 6.25 8.89961 5.84706 8.89961 5.35V4.90717C9.32553 4.90016 9.81824 4.89998 10.3996 4.89998H11.0996V5.35C11.0996 5.84706 11.5026 6.25 11.9996 6.25C12.4967 6.25 12.8996 5.84706 12.8996 5.35V4.89998H13.5996C14.181 4.89998 14.6737 4.90016 15.0996 4.90717V5.35C15.0996 5.84706 15.5026 6.25 15.9996 6.25C16.4967 6.25 16.8996 5.84706 16.8996 5.35V5.05877C17.1039 5.1065 17.2659 5.16599 17.407 5.23786C17.9903 5.53506 18.4645 6.0093 18.7617 6.59261C18.9043 6.87241 18.9982 7.23472 19.0481 7.84607C19.0989 8.46793 19.0996 9.26502 19.0996 10.4V14.6C19.0996 15.7349 19.0989 16.532 19.0481 17.1539C18.9982 17.7652 18.9043 18.1275 18.7617 18.4073C18.4645 18.9906 17.9903 19.4649 17.407 19.7621C17.1272 19.9047 16.7649 19.9985 16.1535 20.0485C15.5317 20.0993 14.7346 20.1 13.5996 20.1H10.3996C9.26465 20.1 8.46756 20.0993 7.84571 20.0485C7.23435 19.9985 6.87204 19.9047 6.59224 19.7621C6.00894 19.4649 5.5347 18.9906 5.23749 18.4073C5.09492 18.1275 5.00107 17.7652 4.95112 17.1539C4.90031 16.532 4.89961 15.7349 4.89961 14.6V10.4C4.89961 9.26502 4.90031 8.46793 4.95112 7.84607C5.00107 7.23472 5.09492 6.87241 5.23749 6.59261C5.5347 6.0093 6.00894 5.53506 6.59224 5.23786ZM16.386 10.8864C16.7375 10.5349 16.7375 9.96505 16.386 9.61358C16.0345 9.26211 15.4647 9.26211 15.1132 9.61358L10.9996 13.7272L9.13601 11.8636C8.78453 11.5121 8.21469 11.5121 7.86321 11.8636C7.51174 12.2151 7.51174 12.7849 7.86321 13.1364L10.3632 15.6364C10.7147 15.9878 11.2845 15.9878 11.636 15.6364L16.386 10.8864Z" fill="#2688EB"/>
</svg>
