<svg width="24" height="24" viewBox="0 0 24 24" fill="none" xmlns="http://www.w3.org/2000/svg">
<path d="M12.0042 2.10001C12.6789 2.10001 13.3304 2.19225 13.9485 2.37341C14.4255 2.51321 14.6989 3.01322 14.5591 3.49021C14.4193 3.96721 13.9193 4.24055 13.4423 4.10075C12.9897 3.96811 12.5087 3.90001 12.0042 3.90001C9.10894 3.90001 7.00481 6.20974 6.90389 9.39135L6.9001 9.63158V11.2312C6.9001 12.0229 6.5643 12.6061 5.84494 13.3781L5.11843 14.1289C4.58337 14.6997 4.4001 15.0123 4.4001 15.3272C4.4001 15.5193 4.41365 15.6193 4.45702 15.7095C4.55665 15.9167 4.84459 16.0758 5.56332 16.0975L5.73694 16.1H18.2633C19.0833 16.1 19.4166 15.9315 19.5353 15.7032C19.5847 15.6081 19.6001 15.5055 19.6001 15.3272C19.6001 15.0123 19.4168 14.6997 18.8818 14.1289L18.3281 13.5598L18.0699 13.2858C17.9922 13.2003 17.9215 13.119 17.854 13.0372C17.5377 12.6538 17.5922 12.0866 17.9756 11.7703C18.359 11.454 18.9263 11.5084 19.2426 11.8918C19.317 11.982 19.402 12.0772 19.5077 12.1891L19.891 12.5823C20.9722 13.679 21.4001 14.3108 21.4001 15.3272C21.4001 15.7717 21.3482 16.1182 21.1324 16.5335C20.703 17.3594 19.8211 17.8411 18.5134 17.895L18.2633 17.9L16.3774 17.9009C16.3755 17.9092 16.3735 17.9175 16.3713 17.9259C15.7542 20.3062 14.2447 21.6 12.0001 21.6C9.75549 21.6 8.24601 20.3062 7.6289 17.9259L7.6231 17.9H5.73694C4.24898 17.9 3.27144 17.3977 2.83476 16.4894C2.6438 16.0922 2.6001 15.7698 2.6001 15.3272C2.6001 14.3743 2.97616 13.7594 3.91409 12.7827L4.37958 12.3071L4.61603 12.0544C4.93091 11.7031 5.0711 11.4718 5.09599 11.2901L5.1001 11.2312V9.63158C5.1001 5.37997 7.98782 2.10001 12.0042 2.10001ZM14.5017 17.9007H9.49846C9.9486 19.2186 10.7433 19.8 12.0001 19.8C13.2569 19.8 14.0516 19.2186 14.5017 17.9007ZM19.4637 4.26361C19.8152 3.91214 20.385 3.91214 20.7365 4.26361C21.088 4.61508 21.088 5.18493 20.7365 5.5364L16.5365 9.7364C16.185 10.0879 15.6152 10.0879 15.2637 9.7364L13.2637 7.7364C12.9122 7.38493 12.9122 6.81508 13.2637 6.46361C13.6152 6.11214 14.185 6.11214 14.5365 6.46361L15.9001 7.82721L19.4637 4.26361Z" fill="#2688EB"/>
</svg>
