<svg width="24" height="24" viewBox="0 0 24 24" fill="none" xmlns="http://www.w3.org/2000/svg">
<path fill-rule="evenodd" clip-rule="evenodd" d="M12.0041 2.10001C16.1666 2.10001 18.9 5.54589 18.9 9.63159V11.2312C18.9 11.4809 19.0461 11.7694 19.4784 12.2229C19.9518 12.7195 20.4943 13.1575 20.8796 13.7319C21.1973 14.2057 21.4124 14.7748 21.3991 15.4209C21.3889 15.9179 20.9777 16.3124 20.4808 16.3022C19.9838 16.292 19.5892 15.8809 19.5995 15.3839C19.6162 14.5689 18.6689 13.9825 18.1755 13.4648C17.7011 12.9672 17.1 12.23 17.1 11.2312V9.63159C17.1 6.31969 14.9656 3.90001 12.0041 3.90001C10.9962 3.90001 10.1198 4.16858 9.38096 4.63534C8.96074 4.90082 8.40487 4.77537 8.13939 4.35515C7.87391 3.93493 7.99936 3.37906 8.41958 3.11358C9.44492 2.46582 10.6691 2.10001 12.0041 2.10001Z" fill="#2688EB"/>
<path fill-rule="evenodd" clip-rule="evenodd" d="M16.3514 17.901C15.7221 20.2335 14.2209 21.5002 12 21.5002C9.77871 21.5002 8.27737 20.2332 7.64832 17.9H5.73682C4.24886 17.9 3.27132 17.3977 2.83464 16.4894C2.64368 16.0922 2.59998 15.7698 2.59998 15.3272C2.59998 14.0345 3.54191 13.1712 4.37946 12.3071C4.90673 11.763 5.09998 11.4599 5.09998 11.2312C5.09998 9.73813 5.06224 8.26246 5.55473 6.82756L3.26357 4.5364C2.9121 4.18493 2.9121 3.61508 3.26357 3.26361C3.61505 2.91214 4.18489 2.91214 4.53637 3.26361L20.7364 19.4636C21.0878 19.8151 21.0878 20.3849 20.7364 20.7364C20.3849 21.0879 19.815 21.0879 19.4636 20.7364L16.628 17.9009L16.3514 17.901ZM9.53401 17.9019H14.4659C14.01 19.1485 13.2242 19.7002 12 19.7002C10.7758 19.7002 9.98996 19.1485 9.53401 17.9019ZM6.89998 11.2312C6.89998 10.2549 6.83983 9.25994 7.02275 8.29557L14.8272 16.1H5.73682C4.88988 16.1 4.5642 15.9327 4.4569 15.7095C4.12182 15.0125 4.97782 14.265 5.39086 13.8461C6.11292 13.115 6.89998 12.3286 6.89998 11.2312Z" fill="#2688EB"/>
</svg>
