<svg width="24" height="24" viewBox="0 0 24 24" fill="none" xmlns="http://www.w3.org/2000/svg">
<path fill-rule="evenodd" clip-rule="evenodd" d="M10.3028 4.18602C10.7709 4.01879 11.0148 3.50377 10.8476 3.03569C10.6803 2.56761 10.1653 2.32372 9.69725 2.49094C6.82514 3.51701 5.10003 6.38158 5.10003 9.63158V11.2312C5.10003 11.3341 5.05857 11.4869 4.87989 11.7342C4.70019 11.983 4.45394 12.2327 4.13751 12.5536L4.10915 12.5823C3.80402 12.8918 3.4332 13.2701 3.14547 13.6949C2.85032 14.1307 2.60003 14.6753 2.60003 15.3272L2.60001 15.3462C2.59955 15.5747 2.59819 16.2528 3.06393 16.8637C3.57502 17.534 4.45704 17.9 5.73688 17.9H7.64841C7.94075 18.9851 8.43133 19.8932 9.1782 20.5334C9.95324 21.1977 10.9187 21.5 12 21.5C13.0814 21.5 14.0468 21.1977 14.8218 20.5334C15.5687 19.8932 16.0593 18.9851 16.3516 17.9H18.2632C19.5561 17.9 20.435 17.5133 20.9407 16.8384C21.4014 16.2235 21.4004 15.5514 21.4 15.3419L21.4 15.3272C21.4 14.5877 21.0785 13.9868 20.7322 13.5231C20.457 13.1546 20.1099 12.8035 19.8211 12.5113L19.821 12.5112C19.7593 12.4487 19.7002 12.3889 19.645 12.3323C19.2984 11.976 18.7286 11.9683 18.3724 12.3149C18.0161 12.6616 18.0084 13.2314 18.355 13.5876C18.4317 13.6664 18.5055 13.7412 18.5763 13.8132L18.5765 13.8133L18.5765 13.8133C18.8595 14.1005 19.0965 14.341 19.2899 14.6001C19.5196 14.9076 19.6 15.1327 19.6 15.3272C19.6 15.4966 19.5873 15.6428 19.5002 15.759C19.4467 15.8304 19.2071 16.1 18.2632 16.1H5.73688C4.77986 16.1 4.54346 15.8354 4.49534 15.7723C4.41556 15.6677 4.40003 15.5314 4.40003 15.3272C4.40003 15.1556 4.46224 14.9606 4.63585 14.7043C4.81687 14.437 5.07105 14.1705 5.39091 13.8461L5.45429 13.7819L5.45431 13.7819C5.73744 13.4953 6.07521 13.1534 6.33893 12.7884C6.62899 12.3869 6.90003 11.8652 6.90003 11.2312V9.63158C6.90003 6.99241 8.27854 4.9092 10.3028 4.18602ZM14.4656 17.9H9.53444C9.75161 18.4891 10.0334 18.8956 10.3496 19.1667C10.7413 19.5024 11.2666 19.7 12 19.7C12.7335 19.7 13.2588 19.5024 13.6504 19.1667C13.9667 18.8956 14.2484 18.4891 14.4656 17.9Z" fill="#2688EB"/>
</svg>
