<svg width="24" height="24" viewBox="0 0 24 24" fill="none" xmlns="http://www.w3.org/2000/svg">
<path d="M12.0042 2.10001C16.0195 2.10001 18.9001 5.37832 18.9001 9.63159V11.2312C18.9001 11.4599 19.0933 11.763 19.6206 12.3071C19.6882 12.3768 19.7519 12.4415 19.891 12.5823C20.9722 13.679 21.4001 14.3108 21.4001 15.3272C21.4001 15.7717 21.3482 16.1182 21.1324 16.5335C20.6762 17.411 19.7091 17.9 18.2633 17.9L16.3515 17.901C15.7223 20.2335 14.221 21.5002 12.0001 21.5002C9.75549 21.5002 8.24601 20.2064 7.6289 17.8261L7.6481 17.9H5.73694C4.24898 17.9 3.27144 17.3977 2.83476 16.4894C2.6438 16.0922 2.6001 15.7698 2.6001 15.3272C2.6001 14.3108 3.02797 13.679 4.10922 12.5823C4.24829 12.4415 4.31196 12.3768 4.37958 12.3071C4.90685 11.763 5.1001 11.4599 5.1001 11.2312V9.63159C5.1001 5.37997 7.98782 2.10001 12.0042 2.10001ZM14.4661 17.9019H9.53413C9.99008 19.1485 10.7759 19.7002 12.0001 19.7002C13.2243 19.7002 14.0101 19.1485 14.4661 17.9019ZM12.0042 3.90001C9.03656 3.90001 6.9001 6.32668 6.9001 9.63159V11.2312C6.9001 12.0838 6.51066 12.6946 5.67211 13.5598C5.59884 13.6354 5.52968 13.7057 5.39098 13.8461C4.6441 14.6036 4.4001 14.9639 4.4001 15.3272C4.4001 15.5193 4.41365 15.6193 4.45702 15.7095C4.56432 15.9327 4.89 16.1 5.73694 16.1H18.2633C19.0833 16.1 19.4166 15.9315 19.5353 15.7032C19.5847 15.6081 19.6001 15.5055 19.6001 15.3272C19.6001 14.9639 19.3561 14.6036 18.6092 13.8461C18.4705 13.7057 18.4014 13.6354 18.3281 13.5598C17.4895 12.6946 17.1001 12.0838 17.1001 11.2312V9.63159C17.1001 6.32436 14.9698 3.90001 12.0042 3.90001Z" fill="#2688EB"/>
</svg>
