<svg width="24" height="24" viewBox="0 0 24 24" fill="none" xmlns="http://www.w3.org/2000/svg">
<path fill-rule="evenodd" clip-rule="evenodd" d="M7.36664 2.09998C7.37772 2.09998 7.38883 2.09998 7.39998 2.09998L14.6333 2.09998C15.0248 2.09996 15.3713 2.09994 15.6585 2.1234C15.9642 2.14839 16.2811 2.2044 16.5896 2.36156C17.0411 2.59166 17.4083 2.95881 17.6384 3.4104C17.7956 3.71886 17.8516 4.03571 17.8766 4.34149C17.8833 4.42401 17.8881 4.51143 17.8915 4.60342C18.2454 4.61176 18.5582 4.63883 18.8418 4.72485C19.7686 5.006 20.4939 5.7313 20.7751 6.65815C20.9011 7.07355 20.9006 7.55186 20.9001 8.1298C20.9 8.16939 20.9 8.20944 20.9 8.24997C20.9 8.29051 20.9 8.33056 20.9001 8.37015C20.9006 8.94809 20.9011 9.4264 20.7751 9.8418C20.4939 10.7686 19.7686 11.4939 18.8418 11.7751C18.4264 11.9011 17.9481 11.9006 17.3701 11.9001C17.3306 11.9 17.2905 11.9 17.25 11.9H13.2143C12.4876 11.9 12.3139 11.9088 12.1955 11.943C11.8319 12.0477 11.5477 12.3319 11.443 12.6955C11.4217 12.7692 11.4103 12.8644 11.4046 13.101C11.4717 13.1022 11.539 13.1047 11.6017 13.1098C11.7407 13.1211 11.9341 13.1499 12.1356 13.2526C12.399 13.3868 12.6132 13.601 12.7474 13.8644C12.8501 14.0659 12.8788 14.2593 12.8902 14.3983C12.9001 14.5193 12.9 14.6576 12.9 14.7779C12.9 14.7853 12.9 14.7927 12.9 14.8L12.9 20.2221C12.9 20.3423 12.9001 20.4806 12.8902 20.6017C12.8788 20.7407 12.8501 20.9341 12.7474 21.1356C12.6132 21.399 12.399 21.6132 12.1356 21.7474C11.9341 21.8501 11.7407 21.8788 11.6017 21.8902C11.4806 21.9001 11.3423 21.9 11.2221 21.9H9.77787C9.65763 21.9 9.51933 21.9001 9.39829 21.8902C9.25926 21.8788 9.06589 21.8501 8.86439 21.7474C8.60096 21.6132 8.38679 21.399 8.25257 21.1356C8.1499 20.9341 8.12114 20.7407 8.10978 20.6017C8.09989 20.4806 8.09993 20.3423 8.09997 20.2221L8.09998 14.8C8.09998 14.7927 8.09998 14.7853 8.09997 14.7779C8.09993 14.6576 8.09989 14.5193 8.10978 14.3983C8.12114 14.2593 8.1499 14.0659 8.25257 13.8644C8.38679 13.601 8.60096 13.3868 8.86439 13.2526C9.06589 13.1499 9.25926 13.1211 9.39829 13.1098C9.46341 13.1045 9.53353 13.102 9.60315 13.1009C9.61078 12.7649 9.63543 12.4675 9.71331 12.1972C9.98943 11.2387 10.7387 10.4894 11.6971 10.2133C12.0941 10.0989 12.5494 10.0994 13.0998 10.0999C13.1375 10.0999 13.1757 10.1 13.2143 10.1H17.25C18.0132 10.1 18.1953 10.0902 18.3193 10.0526C18.6708 9.94596 18.946 9.67085 19.0526 9.31929C19.0902 9.19535 19.1 9.01323 19.1 8.24997C19.1 7.48671 19.0902 7.3046 19.0526 7.18066C18.946 6.8291 18.6708 6.55398 18.3193 6.44734C18.2418 6.42385 18.1417 6.41122 17.8912 6.40505C17.8878 6.49392 17.8831 6.57849 17.8766 6.65846C17.8516 6.96425 17.7956 7.2811 17.6384 7.58955C17.4083 8.04114 17.0411 8.4083 16.5896 8.63839C16.2811 8.79556 15.9642 8.85157 15.6585 8.87655C15.3713 8.90001 15.0248 8.9 14.6333 8.89998H7.36664C6.97514 8.9 6.62865 8.90001 6.34149 8.87655C6.03571 8.85157 5.71886 8.79556 5.4104 8.63839C4.95881 8.4083 4.59166 8.04114 4.36156 7.58955C4.2044 7.2811 4.14839 6.96425 4.1234 6.65846C4.09994 6.37131 4.09996 6.02482 4.09998 5.63331C4.09998 5.62224 4.09998 5.61112 4.09998 5.59998V5.39998C4.09998 5.38883 4.09998 5.37772 4.09998 5.36664C4.09996 4.97514 4.09994 4.62865 4.1234 4.34149C4.14839 4.03571 4.2044 3.71886 4.36156 3.4104C4.59166 2.95881 4.95881 2.59166 5.4104 2.36156C5.71886 2.2044 6.03571 2.14839 6.34149 2.1234C6.62865 2.09994 6.97514 2.09996 7.36664 2.09998ZM9.89998 14.9V20.1H11.1V14.9H9.89998ZM6.48807 3.91742C6.2936 3.93331 6.24 3.95905 6.22758 3.96537C6.11469 4.0229 6.0229 4.11469 5.96537 4.22758C5.95905 4.24 5.93331 4.2936 5.91742 4.48807C5.90068 4.69305 5.89998 4.96509 5.89998 5.39998V5.59998C5.89998 6.03487 5.90068 6.30691 5.91742 6.51189C5.93331 6.70636 5.95905 6.75996 5.96537 6.77237C6.0229 6.88527 6.11469 6.97706 6.22758 7.03458C6.24 7.04091 6.2936 7.06664 6.48807 7.08253C6.69305 7.09928 6.96509 7.09998 7.39998 7.09998H14.6C15.0349 7.09998 15.3069 7.09928 15.5119 7.08253C15.7064 7.06664 15.76 7.04091 15.7724 7.03458C15.8853 6.97706 15.9771 6.88527 16.0346 6.77237C16.0409 6.75996 16.0666 6.70636 16.0825 6.51189C16.0993 6.30691 16.1 6.03487 16.1 5.59998V5.39998C16.1 4.96509 16.0993 4.69305 16.0825 4.48807C16.0666 4.2936 16.0409 4.24 16.0346 4.22758C15.9771 4.11469 15.8853 4.0229 15.7724 3.96537C15.76 3.95905 15.7064 3.93331 15.5119 3.91742C15.3069 3.90068 15.0349 3.89998 14.6 3.89998H7.39998C6.96509 3.89998 6.69305 3.90068 6.48807 3.91742Z" fill="#2688EB"/>
</svg>
