<svg width="24" height="24" viewBox="0 0 24 24" fill="none" xmlns="http://www.w3.org/2000/svg">
<path fill-rule="evenodd" clip-rule="evenodd" d="M4.99962 4.99962C6.79018 3.20906 9.26641 2.09998 12 2.09998C14.7335 2.09998 17.2098 3.20906 19.0003 4.99962C20.7909 6.79018 21.9 9.26641 21.9 12C21.9 13.933 21.29 15.2816 20.1298 16.041C19.0572 16.7429 17.7134 16.8036 16.4762 16.6722C16.032 16.6246 15.588 16.5757 15.1436 16.5301C14.4868 16.4848 14.1959 16.6703 14.0805 16.8097C13.965 16.9491 13.837 17.2695 14.0038 17.9063C14.0554 18.1033 14.1124 18.2841 14.1762 18.4863C14.2093 18.5916 14.2443 18.7027 14.2814 18.8248C14.7452 20.3557 13.5996 21.9 12 21.9C9.26641 21.9 6.79018 20.7909 4.99962 19.0003C3.20906 17.2098 2.09998 14.7335 2.09998 12C2.09998 9.26641 3.20906 6.79018 4.99962 4.99962ZM12 3.89998C9.76297 3.89998 7.73921 4.80561 6.27241 6.27241C4.80561 7.73921 3.89997 9.76297 3.89997 12C3.89997 14.237 4.80561 16.2607 6.27241 17.7275C7.73921 19.1943 9.76297 20.1 12 20.1C12.3917 20.1 12.6723 19.7217 12.5587 19.3468C12.5339 19.2648 12.5056 19.1748 12.4757 19.0799C12.4049 18.8548 12.3253 18.6019 12.2626 18.3625C12.007 17.3868 12.0836 16.3988 12.6942 15.6616C13.3047 14.9244 14.2612 14.665 15.2674 14.7344C15.3231 14.7382 15.7288 14.7817 16.4655 14.8607L16.6695 14.8826C17.7443 14.9979 18.5882 14.8987 19.1441 14.5348C19.6303 14.2166 20.1 13.555 20.1 12C20.1 9.76297 19.1943 7.73921 17.7275 6.27241C16.2607 4.80561 14.237 3.89998 12 3.89998Z" fill="#2688EB"/>
<path d="M13 7.39998C13 6.62678 13.6268 5.99998 14.4 5.99998C15.1732 5.99998 15.8 6.62678 15.8 7.39998C15.8 8.17317 15.1732 8.79998 14.4 8.79998C13.6268 8.79998 13 8.17317 13 7.39998Z" fill="#2688EB"/>
<path d="M15.75 11.4C15.75 10.6268 16.3768 9.99998 17.15 9.99998C17.9232 9.99998 18.55 10.6268 18.55 11.4C18.55 12.1732 17.9232 12.8 17.15 12.8C16.3768 12.8 15.75 12.1732 15.75 11.4Z" fill="#2688EB"/>
<path d="M5.45017 11.4C5.45017 10.6268 6.07697 9.99998 6.85017 9.99998C7.62337 9.99998 8.25017 10.6268 8.25017 11.4C8.25017 12.1732 7.62337 12.8 6.85017 12.8C6.07697 12.8 5.45017 12.1732 5.45017 11.4Z" fill="#2688EB"/>
<path d="M7.99998 7.39998C7.99998 6.62678 8.62678 5.99998 9.39997 5.99998C10.1732 5.99998 10.8 6.62678 10.8 7.39998C10.8 8.17317 10.1732 8.79998 9.39997 8.79998C8.62678 8.79998 7.99998 8.17317 7.99998 7.39998Z" fill="#2688EB"/>
</svg>
