<svg width="24" height="24" viewBox="0 0 24 24" fill="none" xmlns="http://www.w3.org/2000/svg">
<path fill-rule="evenodd" clip-rule="evenodd" d="M9.92884 3.84762C10.4972 4.41923 10.9045 5.22552 11.07 6.12323C11.2355 7.02059 11.142 7.91654 10.8087 8.64772C10.4764 9.37643 9.85881 10.0189 8.96902 10.169C8.08394 10.3182 7.28537 9.91991 6.72118 9.35248C6.15282 8.78087 5.74548 7.97458 5.57998 7.07687C5.41454 6.17951 5.50799 5.28356 5.84137 4.55238C6.17362 3.82367 6.79121 3.18116 7.681 3.03112C8.56608 2.88186 9.36465 3.28018 9.92884 3.84762ZM8.65241 5.11676C8.36452 4.82721 8.12245 4.78209 7.98031 4.80606C7.84288 4.82923 7.64116 4.94382 7.47916 5.29912C7.31829 5.65195 7.24256 6.16695 7.35015 6.75052C7.45767 7.33374 7.71387 7.79797 7.99761 8.08334C8.2855 8.37288 8.52757 8.41801 8.66971 8.39404C8.80714 8.37087 9.00886 8.25628 9.17086 7.90098C9.33173 7.54814 9.40746 7.03315 9.29987 6.44958C9.19235 5.86636 8.93615 5.40213 8.65241 5.11676ZM15.3476 5.11676C15.0639 5.40213 14.8077 5.86636 14.7001 6.44958C14.5926 7.03315 14.6683 7.54814 14.8292 7.90098C14.9912 8.25628 15.1929 8.37087 15.3303 8.39404C15.4724 8.41801 15.7145 8.37288 16.0024 8.08334C16.2862 7.79797 16.5424 7.33374 16.6499 6.75052C16.7575 6.16695 16.6817 5.65195 16.5209 5.29912C16.3589 4.94382 16.1571 4.82923 16.0197 4.80606C15.8776 4.78209 15.6355 4.82721 15.3476 5.11676ZM14.0712 3.84762C14.6354 3.28018 15.4339 2.88186 16.319 3.03112C17.2088 3.18116 17.8264 3.82367 18.1587 4.55238C18.492 5.28356 18.5855 6.17951 18.42 7.07687C18.2545 7.97458 17.8472 8.78087 17.2788 9.35248C16.7146 9.91991 15.9161 10.3182 15.031 10.169C14.1412 10.0189 13.5236 9.37643 13.1914 8.64772C12.858 7.91654 12.7645 7.02059 12.93 6.12323C13.0955 5.22552 13.5028 4.41923 14.0712 3.84762ZM4.99102 9.53562C5.64828 9.951 6.20815 10.6285 6.57339 11.4423C6.93898 12.2569 7.07471 13.1299 6.96085 13.9039C6.84891 14.6649 6.46566 15.4581 5.67068 15.8433C4.86582 16.2332 4.01059 16.0263 3.359 15.6145C2.70174 15.1991 2.14187 14.5216 1.77662 13.7078C1.41104 12.8931 1.27531 12.0202 1.38917 11.2462C1.50111 10.4852 1.88436 9.69201 2.67934 9.30684C3.4842 8.91688 4.33943 9.12382 4.99102 9.53562ZM4.02939 11.0572C3.71081 10.8559 3.53043 10.8946 3.46418 10.9267C3.38805 10.9636 3.22963 11.1028 3.17 11.5082C3.11229 11.9005 3.17511 12.4277 3.41883 12.9708C3.66288 13.5146 4.00773 13.8951 4.32063 14.0929C4.63921 14.2942 4.81959 14.2555 4.88584 14.2234C4.96197 14.1865 5.12039 14.0473 5.18002 13.6419C5.23773 13.2496 5.17491 12.7224 4.93119 12.1793C4.68714 11.6355 4.34229 11.255 4.02939 11.0572ZM19.9706 11.0572C19.6577 11.255 19.3129 11.6355 19.0688 12.1793C18.8251 12.7224 18.7623 13.2496 18.82 13.6419C18.8796 14.0473 19.0381 14.1865 19.1142 14.2234C19.1804 14.2555 19.3608 14.2942 19.6794 14.0929C19.9923 13.8951 20.3371 13.5146 20.5812 12.9708C20.8249 12.4277 20.8877 11.9005 20.83 11.5082C20.7704 11.1028 20.612 10.9636 20.5358 10.9267C20.4696 10.8946 20.2892 10.8559 19.9706 11.0572ZM19.009 9.53562C19.6606 9.12382 20.5158 8.91688 21.3207 9.30684C22.1157 9.69201 22.4989 10.4852 22.6109 11.2462C22.7247 12.0202 22.589 12.8931 22.2234 13.7078C21.8581 14.5216 21.2983 15.1991 20.641 15.6145C19.9894 16.0263 19.1342 16.2332 18.3293 15.8433C17.5344 15.4581 17.1511 14.6649 17.0392 13.9039C16.9253 13.1299 17.061 12.257 17.4266 11.4423C17.7919 10.6285 18.3517 9.951 19.009 9.53562ZM9.29266 12.4767C9.90522 11.6969 10.7524 11.1001 12 11.1001C13.2476 11.1001 14.0948 11.6969 14.7074 12.4767C15.1637 13.0578 15.5329 13.8035 15.8662 14.4768C15.9417 14.6293 16.0154 14.7781 16.0878 14.9205C16.3862 15.5068 16.6734 15.9659 16.9428 16.3965C17.0428 16.5563 17.1403 16.7121 17.235 16.8691C17.554 17.3979 17.9002 18.0266 17.9 18.7543C17.8999 19.3367 17.7603 19.8497 17.4716 20.2717C17.1844 20.6914 16.7972 20.9517 16.4177 21.1114C15.7287 21.4013 14.9489 21.4005 14.5426 21.4001C14.5279 21.4001 14.5137 21.4001 14.5 21.4001C14.0383 21.4001 13.693 21.3367 13.3929 21.2817C13.3543 21.2746 13.3165 21.2677 13.2793 21.261C12.9654 21.205 12.6078 21.1501 12 21.1501C11.3922 21.1501 11.0346 21.205 10.7207 21.261C10.6835 21.2677 10.6457 21.2746 10.6071 21.2817C10.307 21.3367 9.96176 21.4001 9.50001 21.4001C9.48633 21.4001 9.47214 21.4001 9.45746 21.4001C9.05114 21.4005 8.27136 21.4013 7.58236 21.1114C7.20282 20.9517 6.81563 20.6914 6.52846 20.2717C6.23977 19.8497 6.10012 19.3367 6.10001 18.7543C6.09987 18.0266 6.44603 17.3979 6.76504 16.8691C6.85975 16.7121 6.95726 16.5563 7.05722 16.3965C7.32658 15.9659 7.6138 15.5068 7.91217 14.9205C7.9846 14.7781 8.05828 14.6293 8.1338 14.4767C8.46708 13.8035 8.83628 13.0578 9.29266 12.4767ZM9.7882 15.1947C9.70272 15.3666 9.61291 15.5472 9.51642 15.7368C9.17845 16.401 8.82851 16.9602 8.55119 17.4033C8.46088 17.5476 8.37826 17.6796 8.30627 17.7989C7.98239 18.3358 7.89998 18.5776 7.90001 18.7539C7.90007 19.0445 7.96676 19.1862 8.01403 19.2553C8.06284 19.3266 8.14125 19.3937 8.28042 19.4522C8.60394 19.5884 9.04243 19.6001 9.50001 19.6001C9.7913 19.6001 9.98323 19.5653 10.2825 19.511C10.3212 19.504 10.3616 19.4967 10.4043 19.4891C10.7904 19.4201 11.2578 19.3501 12 19.3501C12.7422 19.3501 13.2096 19.4201 13.5957 19.4891C13.6384 19.4967 13.6789 19.504 13.7175 19.511C14.0168 19.5653 14.2087 19.6001 14.5 19.6001C14.9576 19.6001 15.3961 19.5884 15.7196 19.4522C15.8588 19.3937 15.9372 19.3266 15.986 19.2553C16.0333 19.1862 16.1 19.0445 16.1 18.7539C16.1 18.5776 16.0176 18.3358 15.6937 17.7989C15.6218 17.6796 15.5391 17.5476 15.4488 17.4033C15.1715 16.9602 14.8216 16.401 14.4836 15.7368C14.3871 15.5472 14.2973 15.3666 14.2118 15.1947C13.8853 14.5383 13.622 14.009 13.2918 13.5886C12.9279 13.1253 12.5608 12.9001 12 12.9001C11.4392 12.9001 11.0721 13.1253 10.7082 13.5886C10.378 14.009 10.1147 14.5383 9.7882 15.1947Z" fill="#2688EB"/>
</svg>
