<svg width="24" height="24" viewBox="0 0 24 24" fill="none" xmlns="http://www.w3.org/2000/svg">
<path fill-rule="evenodd" clip-rule="evenodd" d="M17.7951 4.09998C18.947 4.09998 19.5343 4.21338 20.1455 4.54026C20.7097 4.84202 21.1579 5.29023 21.4597 5.85448C21.7614 6.41868 21.8813 6.96246 21.8979 7.94877L21.9 8.20483V15.7951L21.8979 16.0512C21.8813 17.0375 21.7614 17.5813 21.4597 18.1455C21.1579 18.7097 20.7097 19.1579 20.1455 19.4597L20.0046 19.5314C19.4406 19.8033 18.8584 19.9 17.7951 19.9H6.20483C5.14155 19.9 4.55938 19.8033 3.99537 19.5314L3.85448 19.4597C3.29023 19.1579 2.84202 18.7097 2.54026 18.1455C2.23852 17.5813 2.11869 17.0375 2.10203 16.0512L2.09998 15.7951V8.20483C2.09998 7.05294 2.21338 6.46569 2.54026 5.85448C2.84202 5.29023 3.29023 4.84202 3.85448 4.54026C4.41868 4.23852 4.96246 4.11869 5.94877 4.10203L6.20483 4.09998H17.7951ZM20.099 9.89998L20.1 15.7951C20.1 16.6753 20.0408 16.9818 19.8724 17.2966C19.7384 17.5472 19.5472 17.7384 19.2966 17.8724C19.006 18.0278 18.7225 18.0902 17.9883 18.0989L17.7951 18.1H6.20483L6.01164 18.0989C5.27747 18.0902 4.99394 18.0278 4.70336 17.8724C4.45279 17.7384 4.26153 17.5472 4.12752 17.2966C3.95917 16.9818 3.89998 16.6753 3.89998 15.7951L3.89898 9.89998H20.099ZM6.20483 5.89998H17.7951L17.9883 5.90105C18.7225 5.90973 19.006 5.97212 19.2966 6.12752C19.5472 6.26153 19.7384 6.45279 19.8724 6.70336C20.0278 6.99394 20.0902 7.27747 20.0989 8.01164L20.098 8.09998H3.89998L3.90105 8.01164C3.90973 7.27747 3.97212 6.99394 4.12752 6.70336C4.26153 6.45279 4.45279 6.26153 4.70336 6.12752C5.01815 5.95917 5.32468 5.89998 6.20483 5.89998Z" fill="#2688EB"/>
<path d="M5.99997 14.8C5.99997 14.52 5.99997 14.38 6.05447 14.273C6.1024 14.1789 6.17889 14.1024 6.27297 14.0545C6.37993 14 6.51994 14 6.79997 14H7.19997C7.48 14 7.62001 14 7.72696 14.0545C7.82105 14.1024 7.89754 14.1789 7.94547 14.273C7.99997 14.38 7.99997 14.52 7.99997 14.8V15.2C7.99997 15.48 7.99997 15.62 7.94547 15.727C7.89754 15.8211 7.82105 15.8976 7.72696 15.9455C7.62001 16 7.48 16 7.19997 16H6.79997C6.51994 16 6.37993 16 6.27297 15.9455C6.17889 15.8976 6.1024 15.8211 6.05447 15.727C5.99997 15.62 5.99997 15.48 5.99997 15.2V14.8Z" fill="#2688EB"/>
</svg>
