<svg width="24" height="24" viewBox="0 0 24 24" fill="none" xmlns="http://www.w3.org/2000/svg">
<path fill-rule="evenodd" clip-rule="evenodd" d="M4.09997 6.20485C4.09997 5.05296 4.21338 4.46571 4.54026 3.8545C4.84202 3.29025 5.29023 2.84204 5.85448 2.54028C6.41868 2.23854 6.96245 2.1187 7.94877 2.10205L8.20483 2.09999L15.7951 2.09999L16.0512 2.10205C17.0375 2.1187 17.5813 2.23854 18.1455 2.54028C18.7097 2.84204 19.1579 3.29025 19.4597 3.8545L19.5314 3.99539C19.8033 4.5594 19.9 5.14157 19.9 6.20485L19.9 17.7951C19.9 18.8584 19.8033 19.4406 19.5314 20.0046L19.4597 20.1455C19.1579 20.7097 18.7097 21.1579 18.1455 21.4597C17.5813 21.7614 17.0375 21.8813 16.0512 21.8979L15.7951 21.9L8.20483 21.9C7.05294 21.9 6.46569 21.7866 5.85448 21.4597C5.29023 21.1579 4.84202 20.7097 4.54026 20.1455C4.23852 19.5813 4.11869 19.0375 4.10203 18.0512L4.09998 17.7951L4.09997 6.20485ZM9.89997 3.90099L15.7951 3.9C16.6753 3.9 16.9818 3.95919 17.2966 4.12754C17.5472 4.26155 17.7384 4.45281 17.8724 4.70338C18.0278 4.99396 18.0902 5.27749 18.0989 6.01166L18.1 6.20485L18.1 17.7951L18.0989 17.9883C18.0902 18.7225 18.0278 19.006 17.8724 19.2966C17.7384 19.5472 17.5472 19.7384 17.2966 19.8724C16.9818 20.0408 16.6753 20.1 15.7951 20.1L9.89998 20.101L9.89997 3.90099ZM5.89998 17.7951L5.89998 6.20485L5.90105 6.01166C5.90973 5.27749 5.97212 4.99396 6.12752 4.70338C6.26153 4.45281 6.45279 4.26155 6.70336 4.12754C6.99394 3.97214 7.27747 3.90975 8.01164 3.90107L8.09997 3.90199L8.09998 20.1L8.01164 20.0989C7.27747 20.0902 6.99394 20.0279 6.70336 19.8724C6.45279 19.7384 6.26153 19.5472 6.12752 19.2966C5.95917 18.9818 5.89998 18.6753 5.89998 17.7951Z" fill="#2688EB"/>
<path d="M14.8 18C14.52 18 14.38 18 14.273 17.9455C14.1789 17.8976 14.1024 17.8211 14.0545 17.727C14 17.62 14 17.48 14 17.2L14 16.8C14 16.52 14 16.38 14.0545 16.273C14.1024 16.1789 14.1789 16.1024 14.273 16.0545C14.38 16 14.52 16 14.8 16L15.2 16C15.48 16 15.62 16 15.727 16.0545C15.8211 16.1024 15.8976 16.1789 15.9455 16.273C16 16.38 16 16.52 16 16.8L16 17.2C16 17.48 16 17.62 15.9455 17.727C15.8976 17.8211 15.8211 17.8976 15.727 17.9455C15.62 18 15.48 18 15.2 18L14.8 18Z" fill="#2688EB"/>
</svg>
