<svg width="24" height="24" viewBox="0 0 24 24" fill="none" xmlns="http://www.w3.org/2000/svg">
<path d="M4.49506 4.12319C1.57458 7.33638 3.13449 12.3086 7.42326 16.6172C11.6208 20.834 16.8171 22.4106 19.8922 19.5494C21.5745 17.9841 21.3259 15.2121 19.2476 13.3596C17.3688 11.7631 14.4159 11.4866 12.534 13.2534C11.8999 12.7197 11.3599 12.0895 10.7801 11.5C12.4062 9.79409 12.4012 6.82425 10.7246 4.82112C8.83975 2.56903 5.9807 2.48865 4.49506 4.12319ZM9.34619 5.97499C10.4047 7.23971 10.5462 9.25579 9.29694 10.4341C8.6676 11.0002 8.05323 11.334 10.3282 13.6475C12.7828 16.1437 13.0889 15.268 13.7283 14.5986C14.7327 13.5896 16.6995 13.4965 18.0515 14.7016C19.5467 16.0344 19.3847 17.5661 18.6677 18.2333C16.449 20.2977 12.2001 18.8678 8.69723 15.3489C5.1944 11.8299 3.63985 7.73682 5.82526 5.33238C6.33259 4.77419 7.92364 4.27531 9.34619 5.97499Z" fill="#2688EB"/>
<path d="M18.5 2.00002C18.9971 2.00002 19.4 2.40297 19.4 2.90002V4.60001H21.1C21.597 4.60001 22 5.00295 22 5.50001C22 5.99707 21.597 6.40001 21.1 6.40001H19.4V8.1C19.4 8.59705 18.9971 9 18.5 9C18.0029 9 17.6 8.59705 17.6 8.1V6.40001H15.9C15.403 6.40001 15 5.99707 15 5.50001C15 5.00295 15.403 4.60001 15.9 4.60001H17.6V2.90002C17.6 2.40297 18.0029 2.00002 18.5 2.00002Z" fill="#2688EB"/>
</svg>
