<svg width="24" height="24" viewBox="0 0 24 24" fill="none" xmlns="http://www.w3.org/2000/svg">
<path fill-rule="evenodd" clip-rule="evenodd" d="M6.09998 11.5C6.09998 10.7268 6.72678 10.1 7.49998 10.1C8.27318 10.1 8.89998 10.7268 8.89998 11.5C8.89998 12.2732 8.27318 12.9 7.49998 12.9C6.72678 12.9 6.09998 12.2732 6.09998 11.5Z" fill="#2688EB"/>
<path d="M6.99998 3.89998C6.99998 2.90586 7.80586 2.09998 8.79998 2.09998H15.2C16.1941 2.09998 17 2.90586 17 3.89998H6.99998Z" fill="#2688EB"/>
<path fill-rule="evenodd" clip-rule="evenodd" d="M7.76228 6.1H16.2377C17.0457 6.09999 17.7066 6.09998 18.2437 6.14386C18.7996 6.18928 19.3017 6.28616 19.7705 6.52507C20.5044 6.89898 21.101 7.4956 21.4749 8.22944C21.7138 8.69833 21.8107 9.2004 21.8561 9.75632C21.9 10.2934 21.9 10.9542 21.9 11.7623V15.2377C21.9 16.0458 21.9 16.7066 21.8561 17.2437C21.8107 17.7996 21.7138 18.3017 21.4749 18.7706C21.101 19.5044 20.5044 20.101 19.7705 20.4749C19.3017 20.7138 18.7996 20.8107 18.2437 20.8561C17.7066 20.9 17.0457 20.9 16.2377 20.9H7.76227C6.95422 20.9 6.29337 20.9 5.75629 20.8561C5.20038 20.8107 4.6983 20.7138 4.22941 20.4749C3.49558 20.101 2.89896 19.5044 2.52505 18.7706C2.28614 18.3017 2.18926 17.7996 2.14384 17.2437C2.09996 16.7066 2.09997 16.0458 2.09998 15.2377V11.7623C2.09997 10.9542 2.09996 10.2934 2.14384 9.75632C2.18926 9.2004 2.28614 8.69833 2.52505 8.22944C2.89896 7.4956 3.49558 6.89898 4.22941 6.52507C4.6983 6.28616 5.20038 6.18928 5.75629 6.14386C6.29337 6.09998 6.95422 6.09999 7.76228 6.1ZM11.635 17.4926C11.7273 17.5701 11.8335 17.6591 11.9328 17.7293C12.0468 17.81 12.2138 17.9123 12.4347 17.963C12.7233 18.0292 13.0254 18.0022 13.2977 17.8858C13.5061 17.7968 13.6523 17.6665 13.7502 17.5669C13.8354 17.4801 13.9241 17.3737 14.0013 17.2811L17.5335 13.0452L20.1 15.046C20.1 15.179 20.1007 15.3121 20.1013 15.4453C20.1041 15.9961 20.1069 16.5486 20.0621 17.0971C20.0258 17.5417 19.9592 17.7805 19.8711 17.9534C19.6698 18.3485 19.3485 18.6698 18.9534 18.8711C18.7805 18.9592 18.5417 19.0258 18.0971 19.0621C17.642 19.0993 17.0549 19.1 16.2 19.1H7.79998C7.33668 19.1 6.95205 19.0998 6.62445 19.0937L9.7799 15.9382L11.635 17.4926ZM18.2495 11.333C18.3486 11.3982 18.4549 11.4812 18.5468 11.5529L20.1 12.7637V11.8C20.1 10.9451 20.0993 10.358 20.0621 9.90289C20.0258 9.45829 19.9592 9.21947 19.8711 9.04662C19.6698 8.65148 19.3485 8.33022 18.9534 8.12889C18.7805 8.04082 18.5417 7.97421 18.0971 7.93788C17.642 7.9007 17.0549 7.9 16.2 7.9H7.79998C6.94505 7.9 6.35798 7.9007 5.90287 7.93788C5.45827 7.97421 5.21944 8.04082 5.0466 8.12889C4.65146 8.33022 4.3302 8.65148 4.12886 9.04662C4.04079 9.21947 3.97419 9.4583 3.93786 9.90289C3.90068 10.358 3.89998 10.9451 3.89998 11.8V15.2C3.89998 16.0549 3.90068 16.642 3.93786 17.0971C3.97419 17.5417 4.04079 17.7805 4.12886 17.9534C4.24823 18.1877 4.40976 18.396 4.60385 18.5687L8.58648 14.5861C8.66475 14.5077 8.75597 14.4165 8.84266 14.3424C9.33303 13.9235 10.0419 13.8877 10.5733 14.2662C10.6662 14.3324 10.7651 14.4153 10.8499 14.4865L12.6972 16.0343L16.2268 11.8016C16.3014 11.712 16.3877 11.6084 16.4708 11.5237C16.5666 11.426 16.7086 11.2991 16.9105 11.2103C17.1753 11.0938 17.4698 11.0622 17.7534 11.1199C17.9695 11.1639 18.1352 11.2579 18.2495 11.333ZM7.49998 10.1C6.72678 10.1 6.09998 10.7268 6.09998 11.5C6.09998 12.2732 6.72678 12.9 7.49998 12.9C8.27318 12.9 8.89998 12.2732 8.89998 11.5C8.89998 10.7268 8.27318 10.1 7.49998 10.1Z" fill="#2688EB"/>
</svg>
