<svg width="24" height="24" viewBox="0 0 24 24" fill="none" xmlns="http://www.w3.org/2000/svg">
<path d="M14.3377 4L7.6623 4C6.85427 3.99999 6.19339 3.99998 5.65632 4.04386C5.10041 4.08928 4.59833 4.18617 4.12944 4.42508C3.39561 4.79898 2.79898 5.39561 2.42508 6.12944C2.18617 6.59833 2.08928 7.10041 2.04386 7.65632C1.99998 8.19338 1.99999 8.85426 2 9.66228V12.3837C1.99999 13.1917 1.99998 13.8525 2.04386 14.3896C2.08928 14.9455 2.18617 15.4476 2.42508 15.9165C2.79898 16.6503 3.39561 17.2469 4.12944 17.6208C4.59833 17.8598 5.1004 17.9566 5.65632 18.0021C6.19339 18.0459 6.85424 18.0459 7.66229 18.0459H10.1C10.597 18.0459 11 17.643 11 17.1459C11 16.6489 10.597 16.2459 10.1 16.2459H7.7C6.84507 16.2459 6.258 16.2452 5.8029 16.208C5.3583 16.1717 5.11947 16.1051 4.94662 16.017C4.55148 15.8157 4.23022 15.4944 4.02889 15.0993C3.94082 14.9264 3.87421 14.6876 3.83788 14.243C3.8007 13.7879 3.8 13.2008 3.8 12.3459V9.7C3.8 8.84507 3.8007 8.258 3.83788 7.8029C3.87421 7.3583 3.94082 7.11947 4.02889 6.94662C4.23022 6.55148 4.55148 6.23022 4.94662 6.02889C5.11947 5.94082 5.3583 5.87421 5.8029 5.83788C6.258 5.8007 6.84507 5.8 7.7 5.8L14.3 5.8C15.1549 5.8 15.742 5.8007 16.1971 5.83789C16.6417 5.87421 16.8805 5.94082 17.0534 6.02889C17.4485 6.23022 17.7698 6.55148 17.9711 6.94662C18.0592 7.11947 18.1258 7.3583 18.1621 7.8029C18.1993 8.258 18.2 8.84507 18.2 9.7V11.1C18.2 11.5971 18.6029 12 19.1 12C19.597 12 20 11.5971 20 11.1V9.6623C20 8.85425 20 8.1934 19.9561 7.65632C19.9107 7.10041 19.8138 6.59833 19.5749 6.12944C19.201 5.39561 18.6044 4.79898 17.8705 4.42508C17.4017 4.18617 16.8996 4.08928 16.3437 4.04386C15.8066 3.99998 15.1457 3.99999 14.3377 4Z" fill="#2688EB"/>
<path d="M13.1907 14.9555C13 15.3299 13 15.8199 13 16.8V17.2C13 18.1801 13 18.6701 13.1907 19.0445C13.3585 19.3738 13.6262 19.6415 13.9555 19.8093C14.3298 20 14.8199 20 15.8 20H19.2C20.1801 20 20.6701 20 21.0445 19.8093C21.3737 19.6415 21.6415 19.3738 21.8092 19.0445C22 18.6701 22 18.1801 22 17.2V16.8C22 15.8199 22 15.3299 21.8092 14.9555C21.6415 14.6262 21.3737 14.3585 21.0445 14.1907C20.6701 14 20.1801 14 19.2 14H15.8C14.8199 14 14.3298 14 13.9555 14.1907C13.6262 14.3585 13.3585 14.6262 13.1907 14.9555Z" fill="#2688EB"/>
<path d="M11.6431 12.3704C11.6409 12.3681 11.6387 12.3658 11.6364 12.3636L9.07277 9.8H10.1C10.5971 9.8 11 9.39706 11 8.9C11 8.40295 10.5971 8 10.1 8H6.89998C6.40292 8 5.99998 8.40295 5.99998 8.9V12.1C5.99998 12.597 6.40292 13 6.89998 13C7.39704 13 7.79998 12.597 7.79998 12.1V11.0781L10.3297 13.6025L10.4636 13.7364C10.815 14.0878 11.3849 14.0878 11.7363 13.7364C12.0878 13.3849 12.0878 12.8151 11.7363 12.4636L11.6431 12.3704Z" fill="#2688EB"/>
</svg>
