<svg width="24" height="24" viewBox="0 0 24 24" fill="none" xmlns="http://www.w3.org/2000/svg">
<path d="M9.40981 2.10001L14.9234 2.10169C16.8673 2.12207 17.849 2.32994 18.8666 2.87421C19.8383 3.39385 20.6062 4.1618 21.1259 5.13345C21.7004 6.20767 21.9001 7.24181 21.9001 9.40972V14.5903C21.9001 16.7582 21.7004 17.7923 21.1259 18.8666C20.6062 19.8382 19.8383 20.6062 18.8666 21.1258C17.7924 21.7003 16.7583 21.9 14.5904 21.9H9.40981C7.2419 21.9 6.20776 21.7003 5.13354 21.1258C4.16189 20.6062 3.39395 19.8382 2.8743 18.8666C2.2998 17.7923 2.1001 16.7582 2.1001 14.5903L2.10178 9.07667C2.12216 7.13284 2.33004 6.15113 2.8743 5.13345C3.39395 4.1618 4.16189 3.39385 5.13354 2.87421C6.20776 2.29971 7.2419 2.10001 9.40981 2.10001ZM15.0896 13.2916L11.3617 17.8219C11.0462 18.2053 10.4798 18.2607 10.096 17.9458L8.05414 16.2709L5.24827 19.0265C5.46774 19.2234 5.71273 19.3943 5.98242 19.5385C6.67835 19.9107 7.35475 20.0664 8.84764 20.095L9.40981 20.1H14.5904L15.1526 20.095C16.4698 20.0697 17.1514 19.9456 17.7716 19.6611L18.0178 19.5385C18.6757 19.1867 19.1867 18.6757 19.5386 18.0177C19.6384 17.8311 19.7227 17.6458 19.7931 17.4459L15.0896 13.2916ZM14.5904 3.90001H9.40981L8.84764 3.90499C7.53039 3.93026 6.8488 4.05442 6.22859 4.33896L5.98242 4.46147C5.32445 4.81336 4.81345 5.32436 4.46156 5.98233L4.33905 6.2285C4.01657 6.93141 3.9001 7.71314 3.9001 9.40972V14.5903L3.90508 15.1525C3.92681 16.285 4.02163 16.9476 4.22862 17.5053L7.36946 14.4204C7.69744 14.0983 8.21547 14.0751 8.5709 14.3667L10.5428 15.9842L14.292 11.4281C14.6156 11.0348 15.201 10.9882 15.5827 11.3255L20.0915 15.3105C20.0929 15.2588 20.0941 15.2062 20.0951 15.1525L20.1001 14.5903V9.40972L20.0951 8.84755C20.0698 7.5303 19.9457 6.84871 19.6611 6.2285L19.5386 5.98233C19.1867 5.32436 18.6757 4.81336 18.0178 4.46147C17.3218 4.08928 16.6454 3.93363 15.1526 3.90499L14.5904 3.90001ZM8.5001 7.00001C9.32853 7.00001 10.0001 7.67158 10.0001 8.50001C10.0001 9.32843 9.32853 10 8.5001 10C7.67167 10 7.0001 9.32843 7.0001 8.50001C7.0001 7.67158 7.67167 7.00001 8.5001 7.00001Z" fill="#2688EB"/>
</svg>
