<svg width="24" height="24" viewBox="0 0 24 24" fill="none" xmlns="http://www.w3.org/2000/svg">
<path d="M14.3377 4L7.6623 4C6.85427 3.99999 6.19339 3.99998 5.65632 4.04386C5.10041 4.08928 4.59833 4.18617 4.12944 4.42508C3.39561 4.79898 2.79898 5.39561 2.42508 6.12944C2.18617 6.59833 2.08928 7.10041 2.04386 7.65632C1.99998 8.19339 1.99999 8.85426 2 9.66229V12.3837C1.99999 13.1917 1.99998 13.8525 2.04386 14.3896C2.08928 14.9455 2.18617 15.4476 2.42508 15.9165C2.79898 16.6503 3.39561 17.2469 4.12944 17.6208C4.59833 17.8598 5.10041 17.9566 5.65632 18.0021C6.1934 18.0459 6.85424 18.0459 7.66229 18.0459L10.1 18.0459C10.5971 18.0459 11 17.643 11 17.1459C11 16.6489 10.5971 16.2459 10.1 16.2459L7.7 16.2459C6.84507 16.2459 6.258 16.2452 5.80289 16.208C5.3583 16.1717 5.11947 16.1051 4.94662 16.017C4.55148 15.8157 4.23022 15.4944 4.02889 15.0993C3.94082 14.9264 3.87421 14.6876 3.83789 14.243C3.8007 13.7879 3.8 13.2008 3.8 12.3459V9.7C3.8 8.84507 3.8007 8.258 3.83789 7.8029C3.87421 7.3583 3.94082 7.11947 4.02889 6.94662C4.23022 6.55148 4.55148 6.23022 4.94662 6.02889C5.11947 5.94082 5.3583 5.87421 5.8029 5.83789C6.258 5.8007 6.84507 5.8 7.7 5.8L14.3 5.8C15.1549 5.8 15.742 5.8007 16.1971 5.83789C16.6417 5.87421 16.8805 5.94082 17.0534 6.02889C17.4485 6.23022 17.7698 6.55148 17.9711 6.94662C18.0592 7.11947 18.1258 7.3583 18.1621 7.8029C18.1993 8.258 18.2 8.84507 18.2 9.7V11.1C18.2 11.5971 18.6029 12 19.1 12C19.5971 12 20 11.5971 20 11.1V9.6623C20 8.85425 20 8.1934 19.9561 7.65632C19.9107 7.10041 19.8138 6.59833 19.5749 6.12944C19.201 5.39561 18.6044 4.79898 17.8706 4.42508C17.4017 4.18617 16.8996 4.08928 16.3437 4.04386C15.8066 3.99998 15.1457 3.99999 14.3377 4Z" fill="#2688EB"/>
<path d="M13.1907 14.9555C13 15.3299 13 15.8199 13 16.8V17.2C13 18.1801 13 18.6701 13.1907 19.0445C13.3585 19.3738 13.6262 19.6415 13.9555 19.8093C14.3299 20 14.8199 20 15.8 20H19.2C20.1801 20 20.6701 20 21.0445 19.8093C21.3738 19.6415 21.6415 19.3738 21.8093 19.0445C22 18.6701 22 18.1801 22 17.2V16.8C22 15.8199 22 15.3299 21.8093 14.9555C21.6415 14.6262 21.3738 14.3585 21.0445 14.1907C20.6701 14 20.1801 14 19.2 14H15.8C14.8199 14 14.3299 14 13.9555 14.1907C13.6262 14.3585 13.3585 14.6262 13.1907 14.9555Z" fill="#2688EB"/>
<path d="M6.35684 9.62964C6.35908 9.63192 6.36132 9.63418 6.36358 9.63644L8.92721 12.2H7.89998C7.40292 12.2 6.99998 12.6029 6.99998 13.1C6.99998 13.5971 7.40292 14 7.89998 14H11.1C11.5971 14 12 13.5971 12 13.1V9.90005C12 9.40299 11.5971 9.00005 11.1 9.00005C10.6029 9.00005 10.2 9.40299 10.2 9.90005V10.9219L7.6703 8.3975L7.53642 8.26363C7.18495 7.91216 6.6151 7.91216 6.26363 8.26363C5.91216 8.6151 5.91216 9.18495 6.26363 9.53642L6.35684 9.62964Z" fill="#2688EB"/>
</svg>
