<svg width="24" height="24" viewBox="0 0 24 24" fill="none" xmlns="http://www.w3.org/2000/svg">
<path d="M5.94423 3.68304L6.0364 3.76359L20.2364 17.9636C20.5879 18.3151 20.5879 18.8849 20.2364 19.2364C19.9142 19.5586 19.4085 19.5854 19.0558 19.3169L18.9636 19.2364L15.248 15.521L14.9892 18.8872C14.9381 19.5513 14.3583 20.0483 13.6942 19.9972C13.4071 19.9751 13.1374 19.8511 12.9339 19.6475L9.28 15.993L4.5364 20.7372C4.18492 21.0886 3.61508 21.0886 3.2636 20.7372C2.94142 20.415 2.91457 19.9093 3.18306 19.5565L3.2636 19.4644L8.007 14.72L4.35324 11.0669C3.91365 10.6273 3.88435 9.93279 4.26532 9.45921L4.35324 9.36127C4.55681 9.1577 4.82649 9.03368 5.11354 9.0116L8.479 8.75199L4.7636 5.03638C4.41213 4.68491 4.41213 4.11506 4.7636 3.76359C5.08579 3.44141 5.59147 3.41456 5.94423 3.68304ZM10.1263 10.3993C10.0079 10.4296 9.88638 10.4498 9.76308 10.4593L6.539 10.7068L13.293 17.4608L13.5415 14.2377C13.551 14.1144 13.5711 13.9929 13.6014 13.8745L10.1263 10.3993ZM14.5855 3.18568L14.6735 3.26334L20.7381 9.32334C21.2199 9.80475 21.0089 10.6099 20.3877 10.8139L20.2738 10.8434L18.4438 11.1992L18.391 11.2261L17.8585 11.7605C17.5076 12.1126 16.9378 12.1136 16.5857 11.7627C16.2629 11.4411 16.2352 10.9354 16.5031 10.5822L16.5835 10.4899L17.117 9.95456C17.3548 9.71659 17.6509 9.54676 17.9623 9.46328L18.267 9.39898L14.593 5.72698L14.5636 5.87723C14.5053 6.20602 14.3616 6.51264 14.1468 6.76829L14.0336 6.89172L13.5055 7.41584C13.1527 7.766 12.5829 7.76386 12.2327 7.41108C11.9118 7.08769 11.8868 6.58192 12.1566 6.23016L12.2375 6.1383L12.7634 5.61631L12.7712 5.60415L12.7945 5.54554L13.1544 3.7254C13.2862 3.05873 14.07 2.78552 14.5855 3.18568Z" fill="#2688EB"/>
</svg>
