<svg width="24" height="24" viewBox="0 0 24 24" fill="none" xmlns="http://www.w3.org/2000/svg">
<path fill-rule="evenodd" clip-rule="evenodd" d="M8.97912 21.8595C10.0524 21.4831 10.7184 20.4096 10.5789 19.2808L10.4168 17.9683C10.7282 17.7495 11.0492 17.5108 11.3767 17.2547L13.2081 19.8881C13.946 20.9491 15.3464 21.3151 16.5091 20.7508C17.5771 20.2324 18.1643 19.0617 17.941 17.8957L16.8372 12.132L18.298 10.6713C19.2837 9.68554 20.0822 8.5842 20.5438 7.54579C20.7719 7.03246 20.9583 6.44414 20.9871 5.83935C21.0159 5.23388 20.8872 4.41095 20.2378 3.76157C19.5884 3.11218 18.7655 2.98347 18.16 3.01225C17.5552 3.041 16.9669 3.2274 16.4535 3.45557C15.4184 3.91565 14.3208 4.7105 13.3375 5.69192L13.328 5.70137L11.8698 7.1595L6.10517 6.05172C4.94513 5.8288 3.77896 6.40761 3.25505 7.46633C2.67811 8.63218 3.04131 10.0447 4.10906 10.7877L6.74524 12.622C6.48861 12.9502 6.24943 13.2718 6.03021 13.5838L4.72007 13.4219C3.59125 13.2824 2.51779 13.9484 2.14139 15.0217C1.76932 16.0827 2.17749 17.2601 3.12642 17.8632L4.96762 19.0332L6.13768 20.8744C6.74071 21.8234 7.91816 22.2315 8.97912 21.8595ZM7.65688 19.909L6.84541 18.6321C6.63129 18.2952 6.52423 18.1267 6.39726 17.9752C6.28448 17.8407 6.16011 17.7163 6.02558 17.6036C5.87412 17.4766 5.70565 17.3695 5.36871 17.1554L4.09184 16.344C3.8492 16.1898 3.74483 15.8887 3.83997 15.6174C3.93622 15.343 4.2107 15.1727 4.49935 15.2083L6.40496 15.4438C6.59201 15.4669 6.68554 15.4785 6.76801 15.4608C6.8436 15.4446 6.90729 15.415 6.9685 15.3678C7.03529 15.3163 7.08981 15.233 7.19885 15.0664C7.486 14.6278 7.83084 14.152 8.22522 13.6518C8.40582 13.4227 8.59681 13.1885 8.79741 12.9504C9.00371 12.7055 9.10686 12.5831 9.13232 12.4583C9.15506 12.3467 9.14048 12.2364 9.08954 12.1346C9.03253 12.0207 8.90432 11.9315 8.64789 11.753L5.13715 9.31016C4.80104 9.07629 4.68671 8.63166 4.86832 8.26467C5.03324 7.9314 5.40033 7.74921 5.76548 7.81938L12.051 9.02724C12.2033 9.05652 12.2795 9.07116 12.3528 9.06361C12.4177 9.05692 12.4807 9.0376 12.5381 9.00674C12.603 8.97189 12.6579 8.91703 12.7676 8.8073L14.6007 6.97416C16.3415 5.23338 18.2955 4.36489 18.965 5.03436C19.6344 5.70383 18.766 7.65772 17.0252 9.39851L17.0027 9.42095L15.1897 11.2339C15.0801 11.3436 15.0252 11.3984 14.9904 11.4632C14.9596 11.5207 14.9402 11.5836 14.9335 11.6484C14.9259 11.7216 14.9405 11.7978 14.9697 11.9501L16.1731 18.2343C16.2433 18.6007 16.0588 18.9686 15.7231 19.1315C15.3578 19.3088 14.9177 19.1938 14.6858 18.8604L12.246 15.3521C12.0676 15.0956 11.9784 14.9673 11.8644 14.9103C11.7626 14.8593 11.6523 14.8447 11.5407 14.8675C11.4159 14.8929 11.2934 14.9961 11.0485 15.2024C10.8104 15.403 10.5762 15.5939 10.3472 15.7745C9.84756 16.1684 9.37234 16.5129 8.93408 16.7998C8.76755 16.9088 8.68428 16.9634 8.63277 17.0301C8.58557 17.0914 8.55605 17.155 8.53984 17.2306C8.52215 17.3131 8.5337 17.4066 8.55681 17.5936L8.79253 19.5015C8.82819 19.7902 8.6579 20.0646 8.38345 20.1609C8.11215 20.256 7.81108 20.1517 7.65688 19.909Z" fill="#3F8AE0"/>
</svg>
