<svg width="24" height="24" viewBox="0 0 24 24" fill="none" xmlns="http://www.w3.org/2000/svg">
<path d="M3.85714 5.09998C3.38376 5.09998 3 5.50292 3 5.99998C3 6.49703 3.38376 6.89998 3.85714 6.89998H18.1429C18.6162 6.89998 19 6.49703 19 5.99998C19 5.50292 18.6162 5.09998 18.1429 5.09998H3.85714Z" fill="#2688EB"/>
<path d="M3.86932 10.1C3.38921 10.1 3 10.5029 3 11C3 11.497 3.38921 11.9 3.86932 11.9H11.1307C11.6108 11.9 12 11.497 12 11C12 10.5029 11.6108 10.1 11.1307 10.1H3.86932Z" fill="#2688EB"/>
<path d="M3 16C3 15.5029 3.38921 15.1 3.86932 15.1H11.1307C11.6108 15.1 12 15.5029 12 16C12 16.497 11.6108 16.9 11.1307 16.9H3.86932C3.38921 16.9 3 16.497 3 16Z" fill="#2688EB"/>
<path d="M21.4933 16.9646C22.1689 16.5175 22.1689 15.4825 21.4933 15.0354L15.6632 11.1772C14.9407 10.6991 14 11.2447 14 12.1418V19.8582C14 20.7553 14.9407 21.3009 15.6632 20.8228L21.4933 16.9646Z" fill="#2688EB"/>
</svg>
