<svg width="24" height="24" viewBox="0 0 24 24" fill="none" xmlns="http://www.w3.org/2000/svg">
<path d="M11.295 19.2474C13.1641 21.1431 16.8 19.2679 16.8 15.6992V10.6448L19.199 9.94814C20.2709 9.56416 21 8.533 21 7.36444L20.9909 5.64472C20.9254 5.21875 20.5143 4.92279 20.084 5.02138C19.9951 5.04176 19.9061 5.06208 19.817 5.08242C18.8755 5.29743 17.931 5.51311 17.0098 5.80299C15.6782 6.25317 14.9797 7.41654 15 8.87978L15 14C11.1132 14.1963 9.36139 17.2862 11.295 19.2474Z" fill="#2688EB"/>
<path d="M3.9 5.10001C3.40294 5.10001 3 5.50295 3 6.00001C3 6.49706 3.40294 6.90001 3.9 6.90001H12.0965C12.5936 6.90001 12.9965 6.49706 12.9965 6.00001C12.9965 5.50295 12.5936 5.10001 12.0965 5.10001H3.9Z" fill="#2688EB"/>
<path d="M3.9 10.1C3.40294 10.1 3 10.5029 3 11C3 11.4971 3.40294 11.9 3.9 11.9H11.0963C11.5934 11.9 11.9963 11.4971 11.9963 11C11.9963 10.5029 11.5934 10.1 11.0963 10.1H3.9Z" fill="#2688EB"/>
<path d="M3 16C3 15.503 3.40294 15.1 3.9 15.1H8.08299C8.58005 15.1 8.983 15.503 8.983 16C8.983 16.4971 8.58005 16.9 8.08299 16.9H3.9C3.40294 16.9 3 16.4971 3 16Z" fill="#2688EB"/>
</svg>
