<svg width="24" height="24" viewBox="0 0 24 24" fill="none" xmlns="http://www.w3.org/2000/svg">
<path fill-rule="evenodd" clip-rule="evenodd" d="M13.9387 3H9.86131H9.8613C8.84403 2.99999 8.02581 2.99999 7.36372 3.05408C6.68274 3.10972 6.08805 3.22704 5.53894 3.50682C4.66399 3.95263 3.95263 4.66399 3.50682 5.53894C3.22704 6.08805 3.10972 6.68274 3.05408 7.36372C2.99999 8.02581 2.99999 8.84403 3 9.8613V9.86131V13.9387V13.9387C2.99999 14.956 2.99999 15.7742 3.05408 16.4363C3.10972 17.1173 3.22704 17.712 3.50682 18.2611C3.95263 19.136 4.66399 19.8474 5.53894 20.2932C6.08805 20.573 6.68274 20.6903 7.36372 20.7459C8.02581 20.8 8.84403 20.8 9.8613 20.8H13.9387C14.956 20.8 15.7742 20.8 16.4363 20.7459C17.1173 20.6903 17.712 20.573 18.2611 20.2932C19.136 19.8474 19.8474 19.136 20.2932 18.2611C20.573 17.712 20.6903 17.1173 20.7459 16.4363C20.8 15.7742 20.8 14.956 20.8 13.9387V9.8613C20.8 8.84403 20.8 8.02581 20.7459 7.36372C20.6903 6.68274 20.573 6.08805 20.2932 5.53894C19.8474 4.66399 19.136 3.95263 18.2611 3.50682C17.712 3.22704 17.1173 3.10972 16.4363 3.05408C15.7742 2.99999 14.956 2.99999 13.9387 3H13.9387ZM6.35613 5.11063C6.60919 4.98169 6.94063 4.89465 7.5103 4.8481C8.09047 4.8007 8.83505 4.8 9.9 4.8H13.9C14.9649 4.8 15.7095 4.8007 16.2897 4.8481C16.8594 4.89465 17.1908 4.98169 17.4439 5.11063C17.9801 5.38387 18.4161 5.81987 18.6894 6.35613C18.8183 6.60919 18.9054 6.94063 18.9519 7.5103C18.9993 8.09047 19 8.83505 19 9.9V13.9C19 14.9649 18.9993 15.7095 18.9519 16.2897C18.9054 16.8594 18.8183 17.1908 18.6894 17.4439C18.4161 17.9801 17.9801 18.4161 17.4439 18.6894C17.1908 18.8183 16.8594 18.9054 16.2897 18.9519C15.7095 18.9993 14.9649 19 13.9 19H9.9C8.83505 19 8.09047 18.9993 7.5103 18.9519C6.94063 18.9054 6.60919 18.8183 6.35613 18.6894C5.81987 18.4161 5.38387 17.9801 5.11063 17.4439C4.98169 17.1908 4.89465 16.8594 4.8481 16.2897C4.8007 15.7095 4.8 14.9649 4.8 13.9V9.9C4.8 8.83505 4.8007 8.09047 4.8481 7.5103C4.89465 6.94063 4.98169 6.60919 5.11063 6.35613C5.38387 5.81987 5.81987 5.38387 6.35613 5.11063ZM12.8 7.80002C12.8 7.30297 12.3971 6.90002 11.9 6.90002C11.4029 6.90002 11 7.30297 11 7.80002V16C11 16.4971 11.4029 16.9 11.9 16.9C12.3971 16.9 12.8 16.4971 12.8 16V7.80002ZM7.9 9.90002C8.39706 9.90002 8.8 10.303 8.8 10.8V16C8.8 16.4971 8.39706 16.9 7.9 16.9C7.40294 16.9 7 16.4971 7 16V10.8C7 10.303 7.40294 9.90002 7.9 9.90002ZM16.8 12.8C16.8 12.303 16.3971 11.9 15.9 11.9C15.4029 11.9 15 12.303 15 12.8V16C15 16.4971 15.4029 16.9 15.9 16.9C16.3971 16.9 16.8 16.4971 16.8 16V12.8Z" fill="#2688EB"/>
</svg>
