<svg width="24" height="24" viewBox="0 0 24 24" fill="none" xmlns="http://www.w3.org/2000/svg">
<path fill-rule="evenodd" clip-rule="evenodd" d="M11.2 3.09998H11.1646H11.1646C10.6347 3.09996 10.1835 3.09995 9.81309 3.13021C9.42393 3.16201 9.04534 3.23164 8.6834 3.41606C8.13773 3.69409 7.69409 4.13773 7.41606 4.6834C7.23164 5.04534 7.16201 5.42393 7.13021 5.81309C7.10119 6.16838 7.10001 6.59795 7.09998 7.09998C6.59795 7.10001 6.16838 7.10119 5.81309 7.13021C5.42393 7.16201 5.04534 7.23164 4.6834 7.41606C4.13773 7.69409 3.69409 8.13773 3.41606 8.6834C3.23164 9.04534 3.16201 9.42393 3.13021 9.81309C3.09995 10.1835 3.09996 10.6347 3.09998 11.1646V11.1646V11.2V12.8V12.8354V12.8354C3.09996 13.3653 3.09995 13.8164 3.13021 14.1869C3.16201 14.576 3.23164 14.9546 3.41606 15.3166C3.69409 15.8622 4.13773 16.3059 4.6834 16.5839C5.04534 16.7683 5.42393 16.8379 5.81309 16.8697C6.16838 16.8988 6.59795 16.8999 7.09998 16.9C7.10001 17.402 7.10119 17.8316 7.13021 18.1869C7.16201 18.576 7.23164 18.9546 7.41606 19.3165C7.69409 19.8622 8.13773 20.3059 8.6834 20.5839C9.04534 20.7683 9.42393 20.8379 9.81309 20.8697C10.1835 20.9 10.6347 20.9 11.1646 20.9L11.2 20.9H12.8L12.8354 20.9C13.3653 20.9 13.8164 20.9 14.1869 20.8697C14.576 20.8379 14.9546 20.7683 15.3166 20.5839C15.8622 20.3059 16.3059 19.8622 16.5839 19.3165C16.7683 18.9546 16.8379 18.576 16.8697 18.1869C16.8988 17.8316 16.8999 17.402 16.9 16.9C17.402 16.8999 17.8316 16.8988 18.1869 16.8697C18.576 16.8379 18.9546 16.7683 19.3165 16.5839C19.8622 16.3059 20.3059 15.8622 20.5839 15.3166C20.7683 14.9546 20.8379 14.576 20.8697 14.1869C20.9 13.8164 20.9 13.3653 20.9 12.8354V12.8354V12.8354V12.8354V12.8V11.2V11.1646V11.1646V11.1645V11.1645C20.9 10.6347 20.9 10.1835 20.8697 9.81309C20.8379 9.42393 20.7683 9.04534 20.5839 8.6834C20.3059 8.13773 19.8622 7.69409 19.3165 7.41606C18.9546 7.23164 18.576 7.16201 18.1869 7.13021C17.8316 7.10119 17.402 7.10001 16.9 7.09998C16.8999 6.59795 16.8988 6.16838 16.8697 5.81309C16.8379 5.42393 16.7683 5.04534 16.5839 4.6834C16.3059 4.13773 15.8622 3.69409 15.3166 3.41606C14.9546 3.23164 14.576 3.16201 14.1869 3.13021C13.8164 3.09995 13.3653 3.09996 12.8354 3.09998H12.8354H12.8H11.2ZM7.09998 14V15.1C6.58076 15.0998 6.23096 15.0979 5.95967 15.0757C5.68182 15.053 5.56648 15.0137 5.50059 14.9801C5.29361 14.8746 5.12533 14.7063 5.01987 14.4994C4.9863 14.4335 4.94694 14.3181 4.92424 14.0403C4.90068 13.7519 4.89998 13.3749 4.89998 12.8V11.2C4.89998 10.6251 4.90068 10.248 4.92424 9.95967C4.94694 9.68182 4.9863 9.56648 5.01987 9.50059C5.12533 9.29361 5.29361 9.12533 5.50059 9.01987C5.56648 8.9863 5.68182 8.94694 5.95967 8.92424C6.24802 8.90068 6.62507 8.89998 7.19998 8.89998H7.99998H16H16.8C17.3749 8.89998 17.7519 8.90068 18.0403 8.92424C18.3181 8.94694 18.4335 8.9863 18.4994 9.01987C18.7063 9.12533 18.8746 9.29361 18.9801 9.50059C19.0137 9.56648 19.053 9.68182 19.0757 9.95967C19.0993 10.248 19.1 10.6251 19.1 11.2V12.8C19.1 13.3749 19.0993 13.7519 19.0757 14.0403C19.053 14.3181 19.0137 14.4335 18.9801 14.4994C18.8746 14.7063 18.7063 14.8746 18.4994 14.9801C18.4335 15.0137 18.3181 15.053 18.0403 15.0757C17.769 15.0979 17.4192 15.0998 16.9 15.1V14C16.9 13.5029 16.497 13.1 16 13.1H7.99998C7.50292 13.1 7.09998 13.5029 7.09998 14ZM15.1 7.09998C15.0998 6.58076 15.0979 6.23096 15.0757 5.95967C15.053 5.68182 15.0137 5.56648 14.9801 5.50059C14.8746 5.29361 14.7063 5.12533 14.4994 5.01987C14.4335 4.9863 14.3181 4.94694 14.0403 4.92424C13.7519 4.90068 13.3749 4.89998 12.8 4.89998H11.2C10.6251 4.89998 10.248 4.90068 9.95967 4.92424C9.68182 4.94694 9.56648 4.9863 9.50059 5.01987C9.29361 5.12533 9.12533 5.29361 9.01987 5.50059C8.9863 5.56648 8.94694 5.68182 8.92424 5.95967C8.90207 6.23096 8.90014 6.58076 8.89999 7.09998H15.1ZM8.89998 14.9V16.8C8.89998 17.3749 8.90068 17.7519 8.92424 18.0403C8.94694 18.3181 8.9863 18.4335 9.01987 18.4994C9.12533 18.7063 9.29361 18.8746 9.50059 18.9801C9.56648 19.0137 9.68182 19.053 9.95967 19.0757C10.248 19.0993 10.6251 19.1 11.2 19.1H12.8C13.3749 19.1 13.7519 19.0993 14.0403 19.0757C14.3181 19.053 14.4335 19.0137 14.4994 18.9801C14.7063 18.8746 14.8746 18.7063 14.9801 18.4994C15.0137 18.4335 15.053 18.3181 15.0757 18.0403C15.0993 17.7519 15.1 17.3749 15.1 16.8V14.9H8.89998ZM17 10.1C16.5029 10.1 16.1 10.5029 16.1 11C16.1 11.497 16.5029 11.9 17 11.9C17.497 11.9 17.9 11.497 17.9 11C17.9 10.5029 17.497 10.1 17 10.1Z" fill="#3F8AE0"/>
</svg>
