<svg width="24" height="24" viewBox="0 0 24 24" fill="none" xmlns="http://www.w3.org/2000/svg">
<path fill-rule="evenodd" clip-rule="evenodd" d="M3.93162 11.7068C3.93162 8.07207 7.41659 4.90001 12.0158 4.90001C16.6151 4.90001 20.1 8.07206 20.1 11.7068C20.1 15.3415 16.6151 18.5136 12.0158 18.5136C10.8443 18.5136 9.73479 18.3036 8.73482 17.9284C8.37957 17.7951 7.97889 17.8989 7.73306 18.1879C7.05532 18.9848 5.93378 19.5412 4.22038 19.7354C4.41703 19.3005 4.62079 18.8351 4.79359 18.3677C5.08289 17.5852 5.31934 16.7146 5.31934 15.8148C5.31934 15.6214 5.25704 15.4332 5.14169 15.278C4.36923 14.2386 3.93162 13.0128 3.93162 11.7068ZM12.0158 3.10001C6.69139 3.10001 2.13162 6.82884 2.13162 11.7068C2.13162 13.3152 2.63785 14.8157 3.5087 16.0878C3.46921 16.6059 3.32197 17.1574 3.10529 17.7435C2.91068 18.2698 2.67958 18.7764 2.44343 19.294C2.36618 19.4634 2.28839 19.6339 2.21117 19.8066C1.82177 20.6718 2.49327 21.6354 3.4202 21.599C5.61596 21.5128 7.42025 20.9611 8.66833 19.8081C9.71581 20.1359 10.8433 20.3136 12.0158 20.3136C17.3403 20.3136 21.9 16.5848 21.9 11.7068C21.9 6.82884 17.3403 3.10001 12.0158 3.10001ZM12 8.89998C11.7402 8.89998 11.5167 9.06565 11.4339 9.2999C11.2683 9.76855 10.7541 10.0142 10.2854 9.84854C9.81679 9.6829 9.57115 9.1687 9.7368 8.70006C10.0658 7.76912 10.9536 7.09998 12 7.09998C13.3255 7.09998 14.4 8.1745 14.4 9.49998C14.4 10.5933 13.8716 11.232 13.4784 11.6736L13.4663 11.6871C13.0758 12.1255 12.9304 12.2888 12.8941 12.6031C12.8371 13.0969 12.3906 13.451 11.8969 13.3941C11.4031 13.3371 11.049 12.8906 11.106 12.3968C11.2101 11.4946 11.7262 10.9262 12.0522 10.5672C12.0812 10.5353 12.1086 10.5051 12.1342 10.4764C12.4534 10.118 12.6 9.90664 12.6 9.49998C12.6 9.16861 12.3314 8.89998 12 8.89998ZM13 15.5C13 16.0523 12.5523 16.5 12 16.5C11.4477 16.5 11 16.0523 11 15.5C11 14.9477 11.4477 14.5 12 14.5C12.5523 14.5 13 14.9477 13 15.5Z" fill="#2688EB"/>
</svg>
