<svg width="24" height="24" viewBox="0 0 24 24" fill="none" xmlns="http://www.w3.org/2000/svg">
<path fill-rule="evenodd" clip-rule="evenodd" d="M3 7C3 5.59987 3 4.8998 3.27248 4.36502C3.51217 3.89462 3.89462 3.51217 4.36502 3.27248C4.8998 3 5.59987 3 7 3H17C18.4001 3 19.1002 3 19.635 3.27248C20.1054 3.51217 20.4878 3.89462 20.7275 4.36502C21 4.8998 21 5.59987 21 7C21 8.40013 21 9.1002 20.7275 9.63498C20.4878 10.1054 20.1054 10.4878 19.635 10.7275C19.1002 11 18.4001 11 17 11H7C5.59987 11 4.8998 11 4.36502 10.7275C3.89462 10.4878 3.51217 10.1054 3.27248 9.63498C3 9.1002 3 8.40013 3 7ZM7 4.8H17C17.7298 4.8 18.1688 4.8014 18.4954 4.82808C18.7167 4.84616 18.8016 4.871 18.8207 4.87778C18.9501 4.94448 19.0555 5.04989 19.1222 5.17932C19.129 5.19843 19.1538 5.28331 19.1719 5.50458C19.1986 5.83116 19.2 6.27023 19.2 7C19.2 7.72977 19.1986 8.16884 19.1719 8.49542C19.1538 8.71668 19.129 8.80156 19.1222 8.82068C19.0555 8.95011 18.9501 9.05552 18.8207 9.12222C18.8016 9.129 18.7167 9.15384 18.4954 9.17192C18.1688 9.1986 17.7298 9.2 17 9.2H7C6.27023 9.2 5.83116 9.1986 5.50458 9.17192C5.2833 9.15384 5.19843 9.129 5.17932 9.12222C5.04989 9.05552 4.94448 8.95011 4.87778 8.82068C4.871 8.80158 4.84616 8.7167 4.82808 8.49542C4.8014 8.16884 4.8 7.72977 4.8 7C4.8 6.27023 4.8014 5.83116 4.82808 5.50458C4.84616 5.2833 4.871 5.19842 4.87778 5.17932C4.94448 5.04989 5.04989 4.94448 5.17932 4.87778C5.19842 4.871 5.2833 4.84616 5.50458 4.82808C5.83116 4.8014 6.27023 4.8 7 4.8ZM19.1208 8.82399C19.1206 8.82466 19.1204 8.82504 19.1205 8.82509C19.1205 8.82519 19.1212 8.82343 19.1222 8.82068C19.1217 8.82185 19.1211 8.82334 19.1208 8.82399ZM18.8251 9.12045C18.8254 9.1203 18.8251 9.12047 18.8251 9.12045V9.12045Z" fill="#2688EB"/>
<path fill-rule="evenodd" clip-rule="evenodd" d="M3 17C3 15.5999 3 14.8998 3.27248 14.365C3.51217 13.8946 3.89462 13.5122 4.36502 13.2725C4.8998 13 5.59987 13 7 13H17C18.4001 13 19.1002 13 19.635 13.2725C20.1054 13.5122 20.4878 13.8946 20.7275 14.365C21 14.8998 21 15.5999 21 17C21 18.4001 21 19.1002 20.7275 19.635C20.4878 20.1054 20.1054 20.4878 19.635 20.7275C19.1002 21 18.4001 21 17 21H7C5.59987 21 4.8998 21 4.36502 20.7275C3.89462 20.4878 3.51217 20.1054 3.27248 19.635C3 19.1002 3 18.4001 3 17ZM7 14.8H17C17.7298 14.8 18.1688 14.8014 18.4954 14.8281C18.7167 14.8462 18.8016 14.871 18.8207 14.8778C18.9501 14.9445 19.0555 15.0499 19.1222 15.1793C19.129 15.1984 19.1538 15.2833 19.1719 15.5046C19.1986 15.8312 19.2 16.2702 19.2 17C19.2 17.7298 19.1986 18.1688 19.1719 18.4954C19.1538 18.7167 19.129 18.8016 19.1222 18.8207C19.0555 18.9501 18.9501 19.0555 18.8207 19.1222C18.8016 19.129 18.7167 19.1538 18.4954 19.1719C18.1688 19.1986 17.7298 19.2 17 19.2H7C6.27023 19.2 5.83116 19.1986 5.50458 19.1719C5.2833 19.1538 5.19843 19.129 5.17932 19.1222C5.04989 19.0555 4.94448 18.9501 4.87778 18.8207C4.871 18.8016 4.84616 18.7167 4.82808 18.4954C4.8014 18.1688 4.8 17.7298 4.8 17C4.8 16.2702 4.8014 15.8312 4.82808 15.5046C4.84616 15.2833 4.871 15.1984 4.87778 15.1793C4.94448 15.0499 5.04989 14.9445 5.17932 14.8778C5.19842 14.871 5.2833 14.8462 5.50458 14.8281C5.83116 14.8014 6.27023 14.8 7 14.8ZM19.121 15.176C19.1206 15.1752 19.1205 15.1749 19.1205 15.1749C19.1204 15.175 19.1211 15.1769 19.1222 15.1793C19.1218 15.1781 19.1212 15.1766 19.121 15.176ZM19.1222 18.8207C19.1211 18.8231 19.1204 18.825 19.1205 18.8251C19.1205 18.8251 19.1207 18.8248 19.121 18.8239C19.1213 18.8233 19.1218 18.8218 19.1222 18.8207ZM18.8207 19.1222C18.8234 19.1212 18.8252 19.1205 18.8251 19.1205C18.825 19.1204 18.8245 19.1206 18.8235 19.121C18.8229 19.1213 18.8216 19.1218 18.8207 19.1222Z" fill="#2688EB"/>
</svg>
