<svg width="24" height="24" viewBox="0 0 24 24" fill="none" xmlns="http://www.w3.org/2000/svg">
<path fill-rule="evenodd" clip-rule="evenodd" d="M18 6.8H6C5.27023 6.8 4.83116 6.8014 4.50458 6.82808C4.2833 6.84616 4.19842 6.871 4.17932 6.87778C4.04989 6.94448 3.94448 7.04989 3.87778 7.17932C3.871 7.19842 3.84616 7.2833 3.82808 7.50458C3.8014 7.83116 3.8 8.27023 3.8 9V15C3.8 15.7298 3.8014 16.1688 3.82808 16.4954C3.84616 16.7167 3.871 16.8016 3.87778 16.8207C3.94448 16.9501 4.04989 17.0555 4.17932 17.1222C4.19842 17.129 4.2833 17.1538 4.50458 17.1719C4.83116 17.1986 5.27023 17.2 6 17.2H18C18.7298 17.2 19.1688 17.1986 19.4954 17.1719C19.7167 17.1538 19.8016 17.129 19.8207 17.1222C19.9501 17.0555 20.0555 16.9501 20.1222 16.8207C20.129 16.8016 20.1538 16.7167 20.1719 16.4954C20.1986 16.1688 20.2 15.7298 20.2 15V9C20.2 8.27023 20.1986 7.83116 20.1719 7.50458C20.1538 7.28328 20.129 7.1984 20.1222 7.17931C20.0555 7.04989 19.9501 6.94448 19.8207 6.87778C19.8016 6.871 19.7167 6.84616 19.4954 6.82808C19.1688 6.8014 18.7298 6.8 18 6.8ZM19.8251 6.87955C19.825 6.87958 19.8236 6.87908 19.8212 6.87798C19.824 6.87896 19.8252 6.87952 19.8251 6.87955ZM20.1205 7.17491C20.1205 7.17483 20.121 7.17602 20.122 7.17875C20.1209 7.17636 20.1204 7.175 20.1205 7.17491ZM20.1205 16.8251C20.1204 16.825 20.1209 16.8237 20.122 16.8212C20.121 16.824 20.1205 16.8252 20.1205 16.8251ZM19.8251 17.1205C19.8252 17.1205 19.824 17.121 19.8213 17.122C19.8236 17.1209 19.825 17.1204 19.8251 17.1205ZM4.17491 17.1205C4.17499 17.1204 4.17636 17.1209 4.17875 17.122C4.17603 17.121 4.17483 17.1205 4.17491 17.1205ZM3.87798 16.8212C3.87908 16.8236 3.87958 16.825 3.87955 16.8251C3.87952 16.8252 3.87896 16.824 3.87798 16.8212ZM3.87798 7.17875C3.87896 7.17602 3.87952 7.17483 3.87955 7.17491C3.87958 7.175 3.87908 7.17636 3.87798 7.17875ZM4.17875 6.87798C4.17636 6.87908 4.175 6.87958 4.17491 6.87955C4.17483 6.87952 4.17602 6.87896 4.17875 6.87798ZM2.27248 6.36502C2 6.8998 2 7.59987 2 9V15C2 16.4001 2 17.1002 2.27248 17.635C2.51217 18.1054 2.89462 18.4878 3.36502 18.7275C3.8998 19 4.59987 19 6 19H18C19.4001 19 20.1002 19 20.635 18.7275C21.1054 18.4878 21.4878 18.1054 21.7275 17.635C22 17.1002 22 16.4001 22 15V9C22 7.59987 22 6.8998 21.7275 6.36502C21.4878 5.89462 21.1054 5.51217 20.635 5.27248C20.1002 5 19.4001 5 18 5H6C4.59987 5 3.8998 5 3.36502 5.27248C2.89462 5.51217 2.51217 5.89462 2.27248 6.36502Z" fill="#2688EB"/>
</svg>
