<svg width="24" height="24" viewBox="0 0 24 24" fill="none" xmlns="http://www.w3.org/2000/svg">
<path d="M2.00464 12.0001C2.00464 8.74159 4.6471 6.10007 7.90674 6.10007H17.9327L17.3689 5.53643C17.0173 5.18495 17.0173 4.61511 17.3689 4.26363C17.7205 3.91216 18.2905 3.91216 18.6421 4.26363L20.7429 6.36361C21.0945 6.71508 21.0945 7.28493 20.7429 7.6364L18.6421 9.73638C18.2905 10.0878 17.7205 10.0878 17.3689 9.73638C17.0173 9.38491 17.0173 8.81506 17.3689 8.46359L17.9326 7.90007H7.90674C5.64157 7.90007 3.80528 9.7357 3.80528 12.0001V12.0968C3.80528 12.5938 3.40219 12.9968 2.90496 12.9968C2.40773 12.9968 2.00464 12.5938 2.00464 12.0968V12.0001Z" fill="#2688EB"/>
<path d="M21.1043 11.0033C21.6016 11.0033 22.0046 11.4063 22.0046 11.9033V12.0001C22.0046 15.2585 19.3622 17.9001 16.1025 17.9001H6.07414L6.63786 18.4636C6.98945 18.8151 6.98945 19.3849 6.63786 19.7364C6.28626 20.0879 5.71621 20.0879 5.36461 19.7364L3.26389 17.6364C2.91229 17.2849 2.91229 16.7151 3.26389 16.3636L5.36461 14.2636C5.71621 13.9122 6.28626 13.9122 6.63786 14.2636C6.98945 14.6151 6.98945 15.185 6.63786 15.5364L6.07402 16.1001H16.1025C18.3677 16.1001 20.204 14.2644 20.204 12.0001V11.9033C20.204 11.4063 20.6071 11.0033 21.1043 11.0033Z" fill="#2688EB"/>
</svg>
