<svg width="24" height="24" viewBox="0 0 24 24" fill="none" xmlns="http://www.w3.org/2000/svg">
<path d="M12.0236 3.7254C13.1393 3.80413 14.02 4.73422 14.02 5.87L14.021 7.98707L14.0414 7.99197C18.5737 8.93096 21.92 12.9471 21.92 17.6854C21.92 18.0297 21.9024 18.3728 21.8676 18.713C21.7846 19.5242 20.7519 19.8157 20.257 19.1677L20.0702 18.9312C18.6109 17.1447 16.5332 15.9729 14.2345 15.6659L14.021 15.6401L14.02 18.1344C14.02 18.615 13.8588 19.082 13.5622 19.4604C12.8297 20.395 11.4783 20.5588 10.5437 19.8263L2.72004 13.6942C2.5838 13.5875 2.46095 13.4646 2.35416 13.3284C1.62167 12.3938 1.78548 11.0424 2.72004 10.3099L10.5437 4.17783C10.9222 3.8812 11.3892 3.72 11.87 3.72L12.0236 3.7254ZM11.87 5.52C11.7917 5.52 11.7157 5.54624 11.6541 5.59453L3.83042 11.7266C3.67829 11.8458 3.65162 12.0658 3.77086 12.218C3.78825 12.2402 3.80825 12.2602 3.83042 12.2775L11.6541 18.4096C11.8062 18.5289 12.0262 18.5022 12.1455 18.3501C12.1938 18.2884 12.22 18.2124 12.22 18.1341L12.221 14.6868C12.2212 14.1841 12.6331 13.7789 13.1358 13.7872L13.369 13.791L13.7112 13.8076C15.9853 13.9527 18.1079 14.7947 19.8297 16.1734L20.004 16.3171L19.9802 16.1817C19.3374 12.7663 16.5453 10.0764 13.0119 9.64545C12.5604 9.5904 12.2209 9.20715 12.2208 8.75232L12.22 5.87025C12.22 5.6767 12.0633 5.52 11.87 5.52Z" fill="#2688EB"/>
</svg>
