<svg width="24" height="24" viewBox="0 0 24 24" fill="none" xmlns="http://www.w3.org/2000/svg">
<path d="M4.90069 12.9009C4.88029 14.362 5.31123 15.7939 6.1347 17.001C6.95818 18.2082 8.13407 19.1319 9.50192 19.646C10.8698 20.1602 12.363 20.2397 13.7777 19.8738C15.1924 19.508 16.4598 18.7145 17.4069 17.6017C18.354 16.4888 18.9347 15.1109 19.0696 13.6558C19.2046 12.2008 18.8874 10.7395 18.1611 9.47149C17.4349 8.20343 16.3351 7.19034 15.0118 6.57046C13.6885 5.95058 12.2062 5.75411 10.7671 6.00786" stroke="black" stroke-width="1.8" stroke-linecap="round" stroke-linejoin="round"/>
<path fill-rule="evenodd" clip-rule="evenodd" d="M12.7461 2.77304C13.0924 3.12907 13.0833 3.6973 12.7258 4.04221L10.6966 6.00001L12.7258 7.95778C13.0833 8.30269 13.0924 8.87092 12.7461 9.22696C12.3997 9.58299 11.8292 9.59201 11.4716 9.2471L8.77417 6.64467C8.59892 6.4756 8.5 6.243 8.5 6.00001C8.5 5.75703 8.59892 5.52442 8.77417 5.35535L11.4716 2.7529C11.8291 2.40799 12.3997 2.417 12.7461 2.77304Z" fill="black"/>
<path d="M12.7258 4.04221C13.0833 3.6973 13.0924 3.12907 12.7461 2.77304C12.3997 2.417 11.8292 2.40799 11.4716 2.7529L8.77417 5.35535C8.59893 5.52442 8.50001 5.75703 8.50001 6.00001C8.50001 6.243 8.59893 6.4756 8.77417 6.64467L11.4717 9.2471C11.8292 9.59201 12.3997 9.58299 12.7461 9.22696C13.0924 8.87092 13.0833 8.30269 12.7258 7.95778L11.5432 6.81685C12.6004 6.73875 13.6638 6.93285 14.63 7.38548C15.7856 7.92678 16.746 8.81145 17.3801 9.91877C18.0143 11.0261 18.2914 12.3021 18.1735 13.5727C18.0556 14.8433 17.5486 16.0466 16.7215 17.0184C15.8945 17.9901 14.7878 18.683 13.5524 19.0025C12.3169 19.322 11.013 19.2525 9.81858 18.8036C8.62412 18.3546 7.59728 17.548 6.87819 16.4939C6.1591 15.4397 5.78279 14.1894 5.8006 12.9134C5.80754 12.4164 5.41027 12.0079 4.91326 12.001C4.41625 11.994 4.00772 12.3913 4.00078 12.8883C3.97779 14.5347 4.46336 16.148 5.39121 17.5082C6.31907 18.8684 7.64402 19.9092 9.18527 20.4885C10.7265 21.0678 12.409 21.1574 14.003 20.7452C15.5971 20.3329 17.0252 19.4389 18.0923 18.185C19.1594 16.9311 19.8137 15.3785 19.9658 13.739C20.1179 12.0995 19.7604 10.453 18.9421 9.02421C18.1238 7.59542 16.8846 6.45391 15.3936 5.75546C14.2436 5.21675 12.9869 4.96184 11.7283 5.00461L12.7258 4.04221Z" fill="#2688EB"/>
</svg>
