<svg width="24" height="24" viewBox="0 0 24 24" fill="none" xmlns="http://www.w3.org/2000/svg">
<path fill-rule="evenodd" clip-rule="evenodd" d="M8.86263 2.09993H15.1375C15.8112 2.09839 16.3364 2.31122 16.8197 2.79671L21.2034 7.18041C21.6809 7.65573 21.9017 8.17755 21.9001 8.86257V15.1375C21.9017 15.8225 21.6809 16.3443 21.2034 16.8196L16.8197 21.2033C16.3444 21.6808 15.8225 21.9017 15.1375 21.9001H8.86262C8.1776 21.9017 7.65578 21.6808 7.18046 21.2033L2.79676 16.8196C2.31926 16.3443 2.09841 15.8225 2.09998 15.1374V8.86258C2.09841 8.17756 2.31926 7.65573 2.79676 7.18041L7.18046 2.79671C7.66373 2.31122 8.18889 2.09839 8.86263 2.09993ZM8.41783 4.10504L4.10509 8.41778C3.92536 8.5975 3.90006 8.65964 3.90006 8.91275V15.0873C3.90006 15.3378 3.92533 15.4025 4.10509 15.5822L8.41783 19.895C8.59682 20.074 8.65863 20.1 8.9128 20.1H15.0873C15.3404 20.1 15.4028 20.0745 15.5823 19.895L19.895 15.5822C20.0746 15.4027 20.1001 15.3369 20.1001 15.0873V8.91275C20.1001 8.65885 20.074 8.59676 19.895 8.41778L15.5823 4.10504C15.4021 3.92483 15.34 3.90001 15.0873 3.90001H8.9128C8.65889 3.90001 8.59434 3.92852 8.41783 4.10504ZM13.0001 16C13.0001 16.5523 12.5523 17 12.0001 17C11.4478 17 11.0001 16.5523 11.0001 16C11.0001 15.4477 11.4478 15 12.0001 15C12.5523 15 13.0001 15.4477 13.0001 16ZM12.9001 7.9C12.9001 7.40294 12.4971 7 12.0001 7C11.503 7 11.1001 7.40294 11.1001 7.9V13.1C11.1001 13.5971 11.503 14 12.0001 14C12.4971 14 12.9001 13.5971 12.9001 13.1V7.9Z" fill="#2688EB"/>
</svg>
