<svg width="24" height="24" viewBox="0 0 24 24" fill="none" xmlns="http://www.w3.org/2000/svg">
<path d="M9.99997 11.5C9.99997 12.3284 9.3284 13 8.49997 13C7.67154 13 6.99997 12.3284 6.99997 11.5C6.99997 10.6716 7.67154 10 8.49997 10C9.3284 10 9.99997 10.6716 9.99997 11.5Z" fill="#2688EB"/>
<path d="M9.72346 15.3731C9.99375 14.9893 10.524 14.8973 10.9078 15.1675C10.954 15.2001 11.0016 15.2305 11.0506 15.2589C11.3292 15.42 11.6525 15.5125 12 15.5125C12.3475 15.5125 12.6708 15.42 12.9494 15.2589C12.9983 15.2305 13.046 15.2001 13.0921 15.1675C13.4759 14.8973 14.0062 14.9893 14.2765 15.3731C14.5468 15.7569 14.4547 16.2872 14.0709 16.5575C13.9836 16.619 13.8934 16.6767 13.8006 16.7304C13.2702 17.0372 12.6543 17.2125 12 17.2125C11.3457 17.2125 10.7297 17.0372 10.1994 16.7304C10.1065 16.6767 10.0163 16.619 9.92903 16.5575C9.54521 16.2872 9.45317 15.7569 9.72346 15.3731Z" fill="#2688EB"/>
<path d="M14.8256 12.4564C14.9204 12.4016 15.0302 12.37 15.15 12.37C15.2698 12.37 15.3796 12.4016 15.4744 12.4564C15.5132 12.4789 15.5496 12.5053 15.5831 12.5353C15.9329 12.8484 16.4703 12.8186 16.7834 12.4688C17.0964 12.119 17.0667 11.5816 16.7169 11.2686C16.5971 11.1613 16.466 11.0661 16.3256 10.9849C15.9791 10.7844 15.5766 10.67 15.15 10.67C14.7234 10.67 14.3209 10.7844 13.9744 10.9849C13.834 11.0661 13.7029 11.1613 13.5831 11.2686C13.2333 11.5816 13.2036 12.119 13.5166 12.4688C13.8297 12.8186 14.3671 12.8484 14.7169 12.5353C14.7504 12.5053 14.7868 12.4789 14.8256 12.4564Z" fill="#2688EB"/>
<path fill-rule="evenodd" clip-rule="evenodd" d="M14 3C14 3.78083 13.5525 4.45716 12.9 4.78653V6.09998H15.2377C16.0457 6.09997 16.7066 6.09996 17.2437 6.14384C17.7996 6.18926 18.3017 6.28614 18.7705 6.52505C19.5044 6.89896 20.101 7.49558 20.4749 8.22941C20.7138 8.6983 20.8107 9.20038 20.8561 9.75629C20.9 10.2934 20.9 10.9542 20.9 11.7623V15.2377C20.9 16.0457 20.9 16.7066 20.8561 17.2437C20.8107 17.7996 20.7138 18.3017 20.4749 18.7705C20.101 19.5044 19.5044 20.101 18.7705 20.4749C18.3017 20.7138 17.7996 20.8107 17.2437 20.8561C16.7066 20.9 16.0457 20.9 15.2377 20.9H8.76227C7.95422 20.9 7.29337 20.9 6.75629 20.8561C6.20038 20.8107 5.6983 20.7138 5.22941 20.4749C4.49558 20.101 3.89896 19.5044 3.52505 18.7705C3.28614 18.3017 3.18926 17.7996 3.14384 17.2437C3.09996 16.7066 3.09997 16.0457 3.09998 15.2377V11.7623C3.09997 10.9542 3.09996 10.2934 3.14384 9.75629C3.18926 9.20038 3.28614 8.6983 3.52505 8.22941C3.89896 7.49558 4.49558 6.89896 5.22941 6.52505C5.6983 6.28614 6.20038 6.18926 6.75629 6.14384C7.29337 6.09996 7.95422 6.09997 8.76228 6.09998H11.1V4.78656C10.4475 4.4572 9.99997 3.78086 9.99997 3C9.99997 1.89543 10.8954 1 12 1C13.1045 1 14 1.89543 14 3ZM6.90287 7.93786C6.45827 7.97418 6.21944 8.04079 6.0466 8.12886C5.65146 8.3302 5.3302 8.65146 5.12886 9.0466C5.04079 9.21944 4.97419 9.45827 4.93786 9.90287C4.90068 10.358 4.89998 10.945 4.89998 11.8V15.2C4.89998 16.0549 4.90068 16.642 4.93786 17.0971C4.97419 17.5417 5.04079 17.7805 5.12886 17.9534C5.3302 18.3485 5.65146 18.6698 6.0466 18.8711C6.21944 18.9592 6.45827 19.0258 6.90287 19.0621C7.35798 19.0993 7.94505 19.1 8.79998 19.1H15.2C16.0549 19.1 16.642 19.0993 17.0971 19.0621C17.5417 19.0258 17.7805 18.9592 17.9534 18.8711C18.3485 18.6698 18.6698 18.3485 18.8711 17.9534C18.9592 17.7805 19.0258 17.5417 19.0621 17.0971C19.0993 16.642 19.1 16.0549 19.1 15.2V11.8C19.1 10.945 19.0993 10.358 19.0621 9.90287C19.0258 9.45827 18.9592 9.21944 18.8711 9.0466C18.6698 8.65146 18.3485 8.3302 17.9534 8.12886C17.7805 8.04079 17.5417 7.97418 17.0971 7.93786C16.642 7.90068 16.0549 7.89998 15.2 7.89998H8.79998C7.94505 7.89998 7.35798 7.90068 6.90287 7.93786Z" fill="#2688EB"/>
</svg>
