<svg width="24" height="24" viewBox="0 0 24 24" fill="none" xmlns="http://www.w3.org/2000/svg">
<path d="M21 16.1C21.4588 16.1 21.8374 16.4433 21.893 16.8871L21.9 17V17.4295C21.9 18.5125 21.7521 19.2182 21.3929 19.8897C21.0476 20.5354 20.5354 21.0476 19.8897 21.3929C19.2792 21.7194 18.6405 21.8714 17.7157 21.8963L17.4294 21.9H17C16.5029 21.9 16.1 21.4971 16.1 21C16.1 20.5412 16.4433 20.1626 16.8871 20.107L17 20.1H17.4294C18.236 20.1 18.6545 20.0123 19.0408 19.8057C19.3729 19.6281 19.6281 19.3729 19.8056 19.0408C19.9935 18.6896 20.083 18.3118 20.0978 17.6401L20.1 17.4295V17C20.1 16.5029 20.5029 16.1 21 16.1ZM2.99998 16.1C3.4588 16.1 3.83743 16.4433 3.89296 16.8871L3.89998 17V17.4295C3.89998 18.236 3.9877 18.6545 4.19431 19.0408C4.37189 19.3729 4.6271 19.6281 4.95915 19.8057C5.31035 19.9935 5.68814 20.0831 6.35991 20.0978L6.57053 20.1H6.99998C7.49703 20.1 7.89998 20.5029 7.89998 21C7.89998 21.4588 7.55664 21.8375 7.11287 21.893L6.99998 21.9H6.57053C5.48746 21.9 4.78183 21.7521 4.11027 21.3929C3.46454 21.0476 2.95238 20.5354 2.60704 19.8897C2.28054 19.2792 2.12861 18.6405 2.10369 17.7157L2.09998 17.4295V17C2.09998 16.5029 2.50292 16.1 2.99998 16.1ZM17 13.4C17.4588 13.4 17.8374 13.7433 17.893 14.1871L17.9 14.3V14.6841C17.9 15.3892 17.7862 15.9156 17.5265 16.4013C17.2683 16.8841 16.884 17.2683 16.4013 17.5265C15.9763 17.7538 15.5201 17.8693 14.9403 17.8946L14.684 17.9H9.31593C8.61079 17.9 8.08436 17.7862 7.59869 17.5265C7.11592 17.2683 6.73166 16.8841 6.47348 16.4013C6.24621 15.9763 6.1307 15.5202 6.10537 14.9404L6.09998 14.6841V14.3C6.09998 13.803 6.50292 13.4 6.99998 13.4C7.4588 13.4 7.83743 13.7433 7.89296 14.1871L7.89998 14.3V14.6841C7.89998 15.1102 7.95131 15.3478 8.06074 15.5524C8.15117 15.7215 8.27849 15.8488 8.44757 15.9392C8.62295 16.033 8.82254 16.0842 9.14437 16.0968L9.31593 16.1H14.684C15.1102 16.1 15.3478 16.0487 15.5524 15.9392C15.7215 15.8488 15.8488 15.7215 15.9392 15.5524C16.033 15.377 16.0841 15.1774 16.0968 14.8556L16.1 14.6841V14.3C16.1 13.803 16.5029 13.4 17 13.4ZM14.4361 6.10001C15.3848 6.10001 15.8826 6.19615 16.4013 6.47351C16.884 6.73169 17.2683 7.11595 17.5265 7.59872C17.7807 8.07412 17.8827 8.53208 17.8979 9.33584L17.9 9.56389L17.899 10.099L20.1 10.1C20.597 10.1 21 10.5029 21 11C21 11.4971 20.597 11.9 20.1 11.9H3.89998C3.40292 11.9 2.99998 11.4971 2.99998 11C2.99998 10.5029 3.40292 10.1 3.89998 10.1L6.09898 10.099L6.09998 9.56389C6.09998 8.61521 6.19612 8.11733 6.47348 7.59872C6.73166 7.11595 7.11592 6.73169 7.59869 6.47351C8.07409 6.21926 8.53205 6.11729 9.33581 6.10206L9.56386 6.10001H14.4361ZM14.4361 7.90001H9.56386C8.88691 7.90001 8.66976 7.94194 8.44757 8.06077C8.27849 8.1512 8.15117 8.27852 8.06074 8.4476C7.96471 8.62715 7.9189 8.80341 7.90486 9.22165L7.89998 9.56389L7.89898 10.099H16.099L16.1 9.56389L16.0956 9.23745C16.0822 8.80781 16.0364 8.6294 15.9392 8.4476C15.8488 8.27852 15.7215 8.1512 15.5524 8.06077C15.3728 7.96475 15.1966 7.91893 14.7783 7.90489L14.4361 7.90001ZM6.99886 2.10001C7.49592 2.10001 7.89886 2.50295 7.89886 3.00001C7.89886 3.45883 7.55553 3.83746 7.11176 3.89299L6.99886 3.90001H6.5701C5.76397 3.90001 5.34543 3.98775 4.95915 4.19434C4.6271 4.37192 4.37189 4.62713 4.19431 4.95918C4.0065 5.31034 3.91691 5.68817 3.90217 6.35962L3.89998 7.00001C3.89998 7.49706 3.49703 7.90001 2.99998 7.90001C2.54115 7.90001 2.16252 7.55667 2.10699 7.1129L2.09998 7.00001V6.57013C2.09998 5.48748 2.24792 4.7818 2.60704 4.1103C2.95238 3.46457 3.46454 2.95241 4.11027 2.60707C4.72072 2.2806 5.35943 2.12865 6.28392 2.10372L6.5701 2.10001H6.99886ZM17.4294 2.10001C18.5125 2.10001 19.2181 2.24792 19.8897 2.60707C20.5354 2.95241 21.0476 3.46457 21.3929 4.1103C21.7194 4.72081 21.8713 5.35947 21.8963 6.28428L21.9 6.57056V7.00001C21.9 7.49706 21.497 7.90001 21 7.90001C20.5412 7.90001 20.1625 7.55667 20.107 7.1129L20.1 7.00001V6.57056C20.1 5.76399 20.0123 5.3455 19.8056 4.95918C19.6281 4.62713 19.3729 4.37192 19.0408 4.19434C18.6896 4.00651 18.3118 3.91694 17.64 3.9022L17 3.90001C16.5029 3.90001 16.1 3.49706 16.1 3.00001C16.1 2.54119 16.4433 2.16255 16.8871 2.10702L17 2.10001H17.4294Z" fill="#2688EB"/>
</svg>
