<svg width="24" height="24" viewBox="0 0 24 24" fill="none" xmlns="http://www.w3.org/2000/svg">
<path fill-rule="evenodd" clip-rule="evenodd" d="M16.2 5.90001C17.0549 5.90001 17.642 5.90071 18.0971 5.93789C18.5417 5.97422 18.7805 6.04082 18.9534 6.12889C19.3485 6.33023 19.6698 6.65149 19.8711 7.04663C19.9592 7.21947 20.0258 7.4583 20.0621 7.9029C20.0993 8.35801 20.1 8.94508 20.1 9.80001V14.2C20.1 15.0549 20.0993 15.642 20.0621 16.0971C20.0258 16.5417 19.9592 16.7805 19.8711 16.9534C19.6698 17.3485 19.3485 17.6698 18.9534 17.8711C18.7805 17.9592 18.5417 18.0258 18.0971 18.0621C17.642 18.0993 17.0549 18.1 16.2 18.1H15C14.5029 18.1 14.1 18.503 14.1 19C14.1 19.4971 14.5029 19.9 15 19.9H16.2377C17.0458 19.9 17.7066 19.9 18.2437 19.8561C18.7996 19.8107 19.3017 19.7138 19.7706 19.4749C20.5044 19.101 21.101 18.5044 21.4749 17.7706C21.7138 17.3017 21.8107 16.7996 21.8561 16.2437C21.9 15.7066 21.9 15.0458 21.9 14.2378V14.2377V9.7623V9.76221C21.9 8.9542 21.9 8.29338 21.8561 7.75632C21.8107 7.20041 21.7138 6.69833 21.4749 6.22944C21.101 5.49561 20.5044 4.89899 19.7706 4.52508C19.3017 4.28617 18.7996 4.18929 18.2437 4.14387C17.7066 4.09999 17.0458 4.1 16.2377 4.10001H16.2377H6.00005C6.00003 4.10001 6.00002 4.10001 6 4.10001C4.30053 4.10003 2.85715 5.18656 2.3222 6.70008C2.15656 7.16873 2.40219 7.68292 2.87083 7.84856C3.33948 8.0142 3.85367 7.76857 4.01931 7.29993C4.30802 6.48309 5.08707 5.90003 6 5.90001H16.2ZM3.0689 11.5203C3.24466 11.5069 3.42242 11.5 3.60196 11.5C7.41272 11.5 10.502 14.5892 10.502 18.4C10.502 18.5795 10.4951 18.7572 10.4817 18.933C10.4439 19.4286 10.8151 19.861 11.3107 19.8988C11.8063 19.9366 12.2387 19.5655 12.2765 19.0698C12.2934 18.8486 12.302 18.6252 12.302 18.4C12.302 13.5951 8.40683 9.70001 3.60196 9.70001C3.3767 9.70001 3.15328 9.70859 2.93202 9.72547C2.4364 9.76326 2.06527 10.1957 2.10306 10.6913C2.14086 11.1869 2.57328 11.5581 3.0689 11.5203ZM3.60196 15.1C3.44054 15.1 3.28234 15.1115 3.12803 15.1336C2.63601 15.2042 2.17992 14.8626 2.10933 14.3706C2.03875 13.8786 2.38038 13.4225 2.8724 13.3519C3.11112 13.3176 3.35475 13.3 3.60196 13.3C6.41862 13.3 8.70196 15.5833 8.70196 18.4C8.70196 18.6472 8.68431 18.8908 8.65006 19.1295C8.57948 19.6215 8.1234 19.9632 7.63138 19.8926C7.13936 19.822 6.79772 19.3659 6.86831 18.8739C6.89044 18.7196 6.90196 18.5614 6.90196 18.4C6.90196 16.5774 5.4245 15.1 3.60196 15.1ZM2.10202 18.4C2.10202 17.5716 2.77359 16.9 3.60202 16.9C4.43045 16.9 5.10202 17.5716 5.10202 18.4C5.10202 19.2284 4.43045 19.9 3.60202 19.9C2.77359 19.9 2.10202 19.2284 2.10202 18.4Z" fill="#2688EB"/>
</svg>
