<svg width="24" height="24" viewBox="0 0 24 24" fill="none" xmlns="http://www.w3.org/2000/svg">
<path fill-rule="evenodd" clip-rule="evenodd" d="M10.75 5.3C10.4008 5.3 10.06 5.33273 9.73041 5.39505C9.242 5.48738 8.77122 5.1663 8.67889 4.6779C8.58655 4.18949 8.90763 3.71871 9.39604 3.62637C9.83534 3.54332 10.288 3.5 10.75 3.5C14.7541 3.5 18 6.74594 18 10.75C18 11.2144 17.9562 11.6694 17.8723 12.1109C17.7795 12.5992 17.3084 12.9199 16.8201 12.827C16.3318 12.7342 16.0111 12.2631 16.104 11.7748C16.1669 11.4436 16.2 11.1011 16.2 10.75C16.2 7.74005 13.76 5.3 10.75 5.3Z" fill="#2688EB"/>
<path fill-rule="evenodd" clip-rule="evenodd" d="M3.5 10.75C3.5 14.7541 6.74594 18 10.75 18C12.4269 18 13.9724 17.4297 15.2006 16.4735L19.4635 20.7364C19.815 21.0879 20.3848 21.0879 20.7363 20.7364C21.0877 20.3849 21.0877 19.8151 20.7363 19.4636L4.53627 3.2636C4.1848 2.91213 3.61495 2.91213 3.26348 3.2636C2.91201 3.61508 2.91201 4.18492 3.26348 4.5364L5.02648 6.2994C4.07033 7.52756 3.5 9.07295 3.5 10.75ZM5.3 10.75C5.3 13.76 7.74005 16.2 10.75 16.2C11.9307 16.2 13.0224 15.8254 13.9147 15.1876L6.31236 7.58527C5.6746 8.47762 5.3 9.56938 5.3 10.75Z" fill="#2688EB"/>
</svg>
