<svg width="24" height="24" viewBox="0 0 24 24" fill="none" xmlns="http://www.w3.org/2000/svg">
<path fill-rule="evenodd" clip-rule="evenodd" d="M4.89104 9.77081L4.89104 9.7708C4.32866 8.33216 3.93241 7.21464 3.75607 6.49728C3.73131 6.39657 3.70573 6.29413 3.68024 6.19206C3.60261 5.88126 3.52585 5.57392 3.47603 5.32967C3.44166 5.16117 3.40395 4.94891 3.39036 4.72919C3.37894 4.54457 3.3671 4.1436 3.54391 3.71155C3.77374 3.14994 4.2579 2.69666 4.90746 2.54158C5.40587 2.42258 5.8338 2.52284 6.03023 2.5771C6.44301 2.69111 6.88711 2.91987 7.24999 3.11429C8.28937 3.67117 12.3279 5.7877 15.401 7.39832C16.833 8.1488 18.0554 8.78944 18.6671 9.11128C18.7432 9.15131 18.8188 9.19098 18.8937 9.23024C19.392 9.49162 19.8557 9.7349 20.1922 9.94548C20.3853 10.0663 20.6452 10.2415 20.8739 10.4739C21.0936 10.6971 21.484 11.1751 21.5127 11.8937C21.5425 12.6396 21.1668 13.1593 20.9292 13.4154C20.696 13.6668 20.4282 13.8489 20.2425 13.9665C19.93 14.1643 19.499 14.391 19.0524 14.6259C18.9674 14.6706 18.8819 14.7156 18.7965 14.7608C18.336 15.0042 17.4592 15.4689 16.382 16.0398C13.2668 17.6907 8.47539 20.2299 7.22873 20.8766C6.83785 21.0793 6.38179 21.3079 5.97469 21.4211C5.79098 21.4721 5.34293 21.5838 4.82343 21.4525C4.1102 21.2721 3.63291 20.7423 3.44398 20.1534C3.30449 19.7187 3.34353 19.3253 3.36298 19.1615C3.38733 18.9564 3.43187 18.7549 3.46989 18.5964C3.50691 18.442 3.55229 18.2701 3.596 18.1044L3.60497 18.0704C3.65338 17.8869 3.70403 17.6941 3.75607 17.4824C3.92998 16.7749 4.32016 15.668 4.87415 14.2401C5.23316 13.3148 5.85864 12.5437 6.64528 11.9954C5.86779 11.45 5.24892 10.6863 4.89104 9.77081ZM9.08523 11.0824C9.17635 11.1002 9.30344 11.1253 9.4575 11.156C9.55417 11.1752 9.66146 11.1967 9.77713 11.2198C9.8822 11.2409 9.98237 11.2609 10.0777 11.2802C11.0065 11.4674 11.4801 11.5761 11.5835 11.7457C11.6813 11.9063 11.6806 12.109 11.5818 12.2689C11.4773 12.4379 11.003 12.5435 10.0731 12.7247C9.97763 12.7433 9.87741 12.7627 9.77229 12.783C9.65661 12.8054 9.54905 12.8262 9.45175 12.8449C9.30018 12.8741 9.17354 12.8984 9.07997 12.9162C9.02653 12.9263 8.98388 12.9343 8.95353 12.9399C7.85409 13.1422 6.94388 13.8818 6.55228 14.8912C6.06296 16.1524 5.73367 17.0835 5.56442 17.6844C5.54131 17.7665 5.52117 17.8423 5.50403 17.9121C5.50301 17.9162 5.50199 17.9204 5.50097 17.9245C5.44334 18.1584 5.38781 18.3689 5.33838 18.5563C5.00498 19.82 4.94925 20.0312 6.39992 19.2788C6.52241 19.2152 6.67942 19.1333 6.86594 19.0355C6.94151 18.9959 7.02192 18.9537 7.10685 18.9092C8.93217 17.9507 12.8412 15.8791 15.5236 14.4575C16.6068 13.8835 17.4899 13.4154 17.9552 13.1695C18.0697 13.1089 18.1788 13.0515 18.2823 12.997C18.2875 12.9942 18.2928 12.9915 18.298 12.9887C19.2335 12.496 19.712 12.2383 19.7143 11.9763C19.7167 11.7169 19.2524 11.4533 18.303 10.9533C18.2972 10.9503 18.2915 10.9473 18.2857 10.9442C18.1442 10.8697 17.992 10.79 17.8291 10.7043C17.2246 10.3862 16.0115 9.75047 14.587 9.0039C12 7.64808 8.71572 5.92684 7.1133 5.07976C7.04329 5.04275 6.97648 5.0074 6.91309 4.97383C6.70166 4.86187 6.52814 4.76962 6.39992 4.70092C4.97236 3.93607 5.03861 4.20142 5.41714 5.71767C5.44461 5.8277 5.47373 5.94431 5.50403 6.06759C5.5051 6.07196 5.50619 6.07635 5.50729 6.08076C5.52208 6.14032 5.53899 6.20417 5.558 6.27232C5.56013 6.27995 5.56228 6.28763 5.56446 6.29537C5.7358 6.90312 6.07015 7.84315 6.5675 9.11546C6.96047 10.1207 7.86823 10.857 8.96411 11.0593C8.99098 11.0642 9.03195 11.0721 9.08523 11.0824Z" fill="#2688EB"/>
</svg>
