<svg width="24" height="24" viewBox="0 0 24 24" fill="none" xmlns="http://www.w3.org/2000/svg">
<path d="M7.91801 13C8.59615 13 9.05563 13.0887 9.53725 13.3463C10.0139 13.6012 10.3987 13.9861 10.6536 14.4627C10.8826 14.8908 10.9781 15.3014 10.9966 15.8637L11 16.082V18.7181C11 19.3962 10.9112 19.8557 10.6536 20.3373C10.3987 20.814 10.0139 21.1988 9.53725 21.4537C9.10915 21.6827 8.69853 21.7782 8.13629 21.7966L7.91801 21.8H5.28189C4.60375 21.8 4.14427 21.7113 3.66265 21.4537C3.186 21.1988 2.80117 20.814 2.54625 20.3373C2.3173 19.9092 2.22175 19.4986 2.20335 18.9363L2.19995 18.7181V16.082C2.19995 15.4038 2.28868 14.9443 2.54625 14.4627C2.80117 13.9861 3.186 13.6012 3.66265 13.3463C4.09076 13.1174 4.50137 13.0218 5.06361 13.0034L5.28189 13H7.91801ZM18.718 13C19.3962 13 19.8556 13.0887 20.3373 13.3463C20.8139 13.6012 21.1987 13.9861 21.4536 14.4627C21.6826 14.8908 21.7781 15.3014 21.7966 15.8637L21.7999 16.082V18.7181C21.7999 19.3962 21.7112 19.8557 21.4536 20.3373C21.1987 20.814 20.8139 21.1988 20.3373 21.4537C19.9091 21.6827 19.4985 21.7782 18.9363 21.7966L18.718 21.8H16.0819C15.4038 21.8 14.9443 21.7113 14.4627 21.4537C13.986 21.1988 13.6012 20.814 13.3463 20.3373C13.1173 19.9092 13.0218 19.4986 13.0033 18.9363L13 18.7181V16.082C13 15.4038 13.0887 14.9443 13.3463 14.4627C13.6012 13.9861 13.986 13.6012 14.4627 13.3463C14.8908 13.1174 15.3014 13.0218 15.8636 13.0034L16.0819 13H18.718ZM7.91801 14.8H5.28189C4.83613 14.8 4.67449 14.8464 4.51153 14.9336C4.34857 15.0207 4.22067 15.1486 4.13352 15.3116C4.05726 15.4542 4.01219 15.5958 4.00212 15.9276L3.99995 16.082V18.7181C3.99995 19.1638 4.04636 19.3255 4.13352 19.4884C4.22067 19.6514 4.34857 19.7793 4.51153 19.8664C4.65412 19.9427 4.7957 19.9878 5.12749 19.9978L5.28189 20H7.91801C8.36377 20 8.52541 19.9536 8.68837 19.8664C8.85134 19.7793 8.97923 19.6514 9.06639 19.4884C9.14264 19.3458 9.18771 19.2043 9.19779 18.8725L9.19995 18.7181V16.082C9.19995 15.6362 9.15354 15.4745 9.06639 15.3116C8.97923 15.1486 8.85134 15.0207 8.68837 14.9336C8.52541 14.8464 8.36377 14.8 7.91801 14.8ZM18.718 14.8H16.0819C15.6361 14.8 15.4745 14.8464 15.3115 14.9336C15.1486 15.0207 15.0207 15.1486 14.9335 15.3116C14.8573 15.4542 14.8122 15.5958 14.8021 15.9276L14.8 16.082V18.7181C14.8 19.1638 14.8464 19.3255 14.9335 19.4884C15.0207 19.6514 15.1486 19.7793 15.3115 19.8664C15.4541 19.9427 15.5957 19.9878 15.9275 19.9978L16.0819 20H18.718C19.1638 20 19.3254 19.9536 19.4884 19.8664C19.6513 19.7793 19.7792 19.6514 19.8664 19.4884C19.9426 19.3458 19.9877 19.2043 19.9978 18.8725L20 18.7181V16.082C20 15.6362 19.9535 15.4745 19.8664 15.3116C19.7792 15.1486 19.6513 15.0207 19.4884 14.9336C19.3254 14.8464 19.1638 14.8 18.718 14.8ZM18.1894 1.65662C18.6467 1.79525 19.0007 2.01329 19.4033 2.38688L19.5792 2.55673L21.4432 4.42074C21.9227 4.90026 22.1849 5.28791 22.3433 5.81059C22.5001 6.32788 22.5001 6.87213 22.3433 7.38942C22.2047 7.84677 21.9867 8.20073 21.6131 8.60331L21.4432 8.77927L19.5792 10.6433C19.0997 11.1228 18.7121 11.385 18.1894 11.5434C17.6721 11.7002 17.1278 11.7002 16.6105 11.5434C16.1532 11.4048 15.7992 11.1867 15.3966 10.8131L15.2207 10.6433L13.3567 8.77927C12.8772 8.29975 12.615 7.91211 12.4566 7.38942C12.2998 6.87213 12.2998 6.32788 12.4566 5.81059C12.5952 5.35324 12.8132 4.99928 13.1868 4.5967L13.3567 4.42074L15.2207 2.55673C15.7002 2.07721 16.0879 1.81505 16.6105 1.65662C17.1278 1.49983 17.6721 1.49983 18.1894 1.65662ZM7.91801 2.20001C8.59615 2.20001 9.05563 2.28874 9.53725 2.54631C10.0139 2.80122 10.3987 3.18606 10.6536 3.66271C10.9112 4.14433 11 4.6038 11 5.28195V7.91806C11 8.59621 10.9112 9.05569 10.6536 9.53731C10.3987 10.014 10.0139 10.3988 9.53725 10.6537C9.05563 10.9113 8.59615 11 7.91801 11H5.28189C4.60375 11 4.14427 10.9113 3.66265 10.6537C3.186 10.3988 2.80117 10.014 2.54625 9.53731C2.28868 9.05569 2.19995 8.59621 2.19995 7.91806V5.28195C2.19995 4.6038 2.28868 4.14433 2.54625 3.66271C2.80117 3.18606 3.186 2.80122 3.66265 2.54631C4.14427 2.28874 4.60375 2.20001 5.28189 2.20001H7.91801ZM17.1327 3.37924C16.9779 3.42614 16.8459 3.49439 16.6042 3.72187L16.4935 3.82952L14.6295 5.69354C14.3143 6.00874 14.2328 6.15585 14.1792 6.33271C14.1256 6.50957 14.1256 6.69044 14.1792 6.8673C14.2261 7.02205 14.2943 7.15403 14.5218 7.39577L14.6295 7.50648L16.4935 9.37049C16.8087 9.68569 16.9558 9.76717 17.1327 9.82078C17.3095 9.87438 17.4904 9.87438 17.6672 9.82078C17.822 9.77387 17.954 9.70563 18.1957 9.47814L18.3064 9.37049L20.1704 7.50648C20.4856 7.19128 20.5671 7.04416 20.6207 6.8673C20.6743 6.69044 20.6743 6.50957 20.6207 6.33271C20.5738 6.17796 20.5056 6.04598 20.2781 5.80424L20.1704 5.69354L18.3064 3.82952C17.9912 3.51432 17.8441 3.43284 17.6672 3.37924C17.4904 3.32563 17.3095 3.32563 17.1327 3.37924ZM7.91801 4.00001H5.28189C4.83613 4.00001 4.67449 4.04642 4.51153 4.13357C4.34857 4.22073 4.22067 4.34862 4.13352 4.51158C4.04636 4.67455 3.99995 4.83619 3.99995 5.28195V7.91806C3.99995 8.36382 4.04636 8.52547 4.13352 8.68843C4.22067 8.85139 4.34857 8.97929 4.51153 9.06644C4.67449 9.15359 4.83613 9.20001 5.28189 9.20001H7.91801C8.36377 9.20001 8.52541 9.15359 8.68837 9.06644C8.85134 8.97929 8.97923 8.85139 9.06639 8.68843C9.15354 8.52547 9.19995 8.36382 9.19995 7.91806V5.28195C9.19995 4.83619 9.15354 4.67455 9.06639 4.51158C8.97923 4.34862 8.85134 4.22073 8.68837 4.13357C8.52541 4.04642 8.36377 4.00001 7.91801 4.00001Z" fill="#2688EB"/>
</svg>
