<svg width="24" height="24" viewBox="0 0 24 24" fill="none" xmlns="http://www.w3.org/2000/svg">
<path fill-rule="evenodd" clip-rule="evenodd" d="M13.7945 4.69012L13.8181 4.66655L14.6666 3.81802L14.6902 3.79445C14.967 3.5176 15.212 3.27258 15.4316 3.08612C15.6655 2.88756 15.9292 2.70312 16.2584 2.59614C16.7404 2.43953 17.2597 2.43952 17.7417 2.59614C18.0709 2.70312 18.3346 2.88756 18.5685 3.08612C18.7881 3.27258 19.0331 3.5176 19.3099 3.79445L19.3335 3.81802L20.182 4.66655L20.2056 4.69012L20.2057 4.69017C20.4825 4.96697 20.7275 5.21195 20.9139 5.43157C21.1125 5.66546 21.2969 5.92912 21.4039 6.25836C21.5605 6.74038 21.5605 7.25962 21.4039 7.74164C21.2969 8.07088 21.1125 8.33454 20.9139 8.56843C20.7275 8.78806 20.4825 9.03306 20.2056 9.30988L20.182 9.33345L19.3335 10.182L19.3099 10.2056C19.0331 10.4824 18.7881 10.7274 18.5685 10.9139C18.3346 11.1124 18.0709 11.2969 17.7417 11.4039C17.2597 11.5605 16.7404 11.5605 16.2584 11.4039C15.9292 11.2969 15.6655 11.1124 15.4316 10.9139C15.212 10.7274 14.967 10.4824 14.6902 10.2056L14.6666 10.182L13.8181 9.33345L13.7945 9.30988L13.7945 9.30987L13.7945 9.30983C13.5176 9.03303 13.2726 8.78805 13.0862 8.56843C12.8876 8.33454 12.7032 8.07088 12.5962 7.74164C12.4396 7.25962 12.4396 6.74038 12.5962 6.25836C12.7032 5.92912 12.8876 5.66546 13.0862 5.43157C13.2726 5.21194 13.5177 4.96695 13.7945 4.69013L13.7945 4.69012ZM14.4584 6.59649C14.3321 6.74524 14.3124 6.80134 14.3081 6.81459C14.269 6.9351 14.269 7.0649 14.3081 7.18541C14.3124 7.19866 14.3321 7.25476 14.4584 7.40351C14.5915 7.56029 14.7834 7.75315 15.0909 8.06066L15.9394 8.90919C16.2469 9.2167 16.4398 9.40857 16.5966 9.54167C16.7453 9.66794 16.8014 9.68765 16.8147 9.69195C16.9352 9.73111 17.065 9.73111 17.1855 9.69195C17.1987 9.68765 17.2548 9.66794 17.4036 9.54167C17.5604 9.40857 17.7532 9.2167 18.0607 8.90919L18.9093 8.06066C19.2168 7.75315 19.4086 7.56029 19.5417 7.40351C19.668 7.25476 19.6877 7.19866 19.692 7.18541C19.7312 7.0649 19.7312 6.9351 19.692 6.81459C19.6877 6.80134 19.668 6.74524 19.5417 6.59649C19.4086 6.43971 19.2168 6.24685 18.9093 5.93934L18.0607 5.09081C17.7532 4.7833 17.5604 4.59143 17.4036 4.45833C17.2548 4.33206 17.1987 4.31235 17.1855 4.30805C17.065 4.26889 16.9352 4.26889 16.8147 4.30805C16.8014 4.31235 16.7453 4.33206 16.5966 4.45833C16.4398 4.59143 16.2469 4.7833 15.9394 5.09081L15.0909 5.93934C14.7834 6.24685 14.5915 6.43971 14.4584 6.59649ZM7.6001 10.9L7.63343 10.9C8.02494 10.9 8.37143 10.9 8.65859 10.8766C8.96437 10.8516 9.28122 10.7956 9.58968 10.6384C10.0413 10.4083 10.4084 10.0412 10.6385 9.58958C10.7957 9.28112 10.8517 8.96427 10.8767 8.65849C10.9001 8.37134 10.9001 8.02486 10.9001 7.63337V7.63335V7.63334V7.63333L10.9001 7.6V6.4L10.9001 6.36667C10.9001 5.97516 10.9001 5.62867 10.8767 5.34151C10.8517 5.03573 10.7957 4.71888 10.6385 4.41042C10.4084 3.95883 10.0413 3.59168 9.58968 3.36158C9.28122 3.20442 8.96437 3.14841 8.65859 3.12342C8.37143 3.09996 8.02495 3.09998 7.63345 3.1H7.63344L7.6001 3.1L6.4001 3.1L6.36676 3.1H6.36676C5.97525 3.09998 5.62877 3.09996 5.34162 3.12342C5.03583 3.14841 4.71898 3.20442 4.41052 3.36158C3.95893 3.59168 3.59178 3.95883 3.36169 4.41042C3.20452 4.71888 3.14851 5.03573 3.12353 5.34151C3.10007 5.62865 3.10008 5.97512 3.1001 6.3666V6.36666L3.1001 6.4L3.1001 7.6L3.1001 7.63334V7.6334C3.10008 8.02488 3.10007 8.37135 3.12353 8.65848C3.14851 8.96427 3.20452 9.28112 3.36168 9.58958C3.59178 10.0412 3.95893 10.4083 4.41052 10.6384C4.71898 10.7956 5.03583 10.8516 5.34161 10.8766C5.62877 10.9 5.97526 10.9 6.36676 10.9L6.4001 10.9H7.6001ZM8.77249 9.0346C8.76008 9.04093 8.70648 9.06666 8.51201 9.08255C8.30703 9.0993 8.03499 9.1 7.6001 9.1L6.4001 9.1C5.96521 9.1 5.69317 9.0993 5.48819 9.08255C5.29372 9.06666 5.24012 9.04093 5.22771 9.0346C5.11481 8.97708 5.02302 8.88529 4.9655 8.77239C4.95917 8.75998 4.93344 8.70638 4.91755 8.51191C4.9008 8.30693 4.9001 8.03489 4.9001 7.6L4.9001 6.4C4.9001 5.96511 4.9008 5.69307 4.91755 5.48809C4.93344 5.29362 4.95917 5.24002 4.9655 5.2276C5.02302 5.11471 5.11481 5.02292 5.22771 4.9654C5.24012 4.95907 5.29372 4.93334 5.48819 4.91745C5.69317 4.9007 5.96521 4.9 6.4001 4.9H7.6001C8.03499 4.9 8.30703 4.9007 8.51201 4.91745C8.70648 4.93334 8.76008 4.95907 8.7725 4.9654C8.88539 5.02292 8.97718 5.11471 9.0347 5.22761C9.04103 5.24002 9.06676 5.29362 9.08265 5.48809C9.0994 5.69307 9.1001 5.96511 9.1001 6.4L9.1001 7.6C9.1001 8.03489 9.0994 8.30693 9.08265 8.51191C9.06676 8.70638 9.04103 8.75998 9.0347 8.77239C8.97718 8.88529 8.88539 8.97708 8.77249 9.0346ZM7.6001 20.9L7.63343 20.9H7.63353C8.025 20.9 8.37146 20.9 8.65859 20.8766C8.96437 20.8516 9.28122 20.7956 9.58968 20.6384C10.0413 20.4083 10.4084 20.0412 10.6385 19.5896C10.7957 19.2811 10.8517 18.9643 10.8767 18.6585C10.9001 18.3713 10.9001 18.0249 10.9001 17.6334V17.6334V17.6333V17.6333L10.9001 17.6V16.4L10.9001 16.3667C10.9001 15.9752 10.9001 15.6287 10.8767 15.3415C10.8517 15.0357 10.7957 14.7189 10.6385 14.4104C10.4084 13.9588 10.0413 13.5917 9.58968 13.3616C9.28122 13.2044 8.96437 13.1484 8.65859 13.1234C8.37145 13.1 8.02498 13.1 7.63351 13.1H7.6335H7.63349H7.63344L7.6001 13.1H6.4001L6.36677 13.1H6.36671H6.3667H6.36669C5.97522 13.1 5.62875 13.1 5.34162 13.1234C5.03583 13.1484 4.71898 13.2044 4.41052 13.3616C3.95893 13.5917 3.59178 13.9588 3.36169 14.4104C3.20452 14.7189 3.14851 15.0357 3.12353 15.3415C3.10007 15.6287 3.10008 15.9751 3.1001 16.3666V16.3667L3.1001 16.4L3.1001 17.6L3.1001 17.6333V17.6334C3.10008 18.0249 3.10007 18.3713 3.12353 18.6585C3.14851 18.9643 3.20452 19.2811 3.36168 19.5896C3.59178 20.0412 3.95893 20.4083 4.41052 20.6384C4.71898 20.7956 5.03583 20.8516 5.34161 20.8766C5.62874 20.9 5.9752 20.9 6.36667 20.9H6.36676L6.4001 20.9H7.6001ZM8.77249 19.0346C8.76008 19.0409 8.70648 19.0667 8.51201 19.0826C8.30703 19.0993 8.03499 19.1 7.6001 19.1H6.4001C5.96521 19.1 5.69317 19.0993 5.48819 19.0826C5.29372 19.0667 5.24012 19.0409 5.22771 19.0346C5.11481 18.9771 5.02302 18.8853 4.9655 18.7724C4.95917 18.76 4.93344 18.7064 4.91755 18.5119C4.9008 18.3069 4.9001 18.0349 4.9001 17.6L4.9001 16.4C4.9001 15.9651 4.9008 15.6931 4.91755 15.4881C4.93344 15.2936 4.95917 15.24 4.9655 15.2276C5.02302 15.1147 5.11481 15.0229 5.22771 14.9654C5.24012 14.9591 5.29372 14.9333 5.48819 14.9174C5.69317 14.9007 5.96521 14.9 6.4001 14.9H7.6001C8.03499 14.9 8.30703 14.9007 8.51201 14.9174C8.70648 14.9333 8.76008 14.9591 8.7725 14.9654C8.88539 15.0229 8.97718 15.1147 9.0347 15.2276C9.04103 15.24 9.06676 15.2936 9.08265 15.4881C9.0994 15.6931 9.1001 15.9651 9.1001 16.4L9.1001 17.6C9.1001 18.0349 9.0994 18.3069 9.08265 18.5119C9.06676 18.7064 9.04103 18.76 9.0347 18.7724C8.97718 18.8853 8.88539 18.9771 8.77249 19.0346ZM17.6001 20.9L17.6334 20.9H17.6335C18.025 20.9 18.3715 20.9 18.6586 20.8766C18.9644 20.8516 19.2812 20.7956 19.5897 20.6384C20.0413 20.4083 20.4084 20.0412 20.6385 19.5896C20.7957 19.2811 20.8517 18.9643 20.8767 18.6585C20.9001 18.3713 20.9001 18.0248 20.9001 17.6333L20.9001 17.6V16.4L20.9001 16.3667C20.9001 15.9752 20.9001 15.6287 20.8767 15.3415C20.8517 15.0357 20.7957 14.7189 20.6385 14.4104C20.4084 13.9588 20.0413 13.5917 19.5897 13.3616C19.2812 13.2044 18.9644 13.1484 18.6586 13.1234C18.3714 13.1 18.025 13.1 17.6335 13.1H17.6334L17.6001 13.1H16.4001L16.3668 13.1H16.3667C15.9752 13.1 15.6288 13.1 15.3416 13.1234C15.0358 13.1484 14.719 13.2044 14.4105 13.3616C13.9589 13.5917 13.5918 13.9588 13.3617 14.4104C13.2045 14.7189 13.1485 15.0357 13.1235 15.3415C13.1001 15.6287 13.1001 15.9752 13.1001 16.3667L13.1001 16.4V17.6L13.1001 17.6333C13.1001 18.0248 13.1001 18.3713 13.1235 18.6585C13.1485 18.9643 13.2045 19.2811 13.3617 19.5896C13.5918 20.0412 13.9589 20.4083 14.4105 20.6384C14.719 20.7956 15.0358 20.8516 15.3416 20.8766C15.6287 20.9 15.9752 20.9 16.3667 20.9H16.3668L16.4001 20.9H17.6001ZM18.7725 19.0346C18.7601 19.0409 18.7065 19.0667 18.512 19.0826C18.307 19.0993 18.035 19.1 17.6001 19.1H16.4001C15.9652 19.1 15.6932 19.0993 15.4882 19.0826C15.2937 19.0667 15.2401 19.0409 15.2277 19.0346C15.1148 18.9771 15.023 18.8853 14.9655 18.7724C14.9592 18.76 14.9334 18.7064 14.9175 18.5119C14.9008 18.3069 14.9001 18.0349 14.9001 17.6V16.4C14.9001 15.9651 14.9008 15.6931 14.9175 15.4881C14.9334 15.2936 14.9592 15.24 14.9655 15.2276C15.023 15.1147 15.1148 15.0229 15.2277 14.9654C15.2401 14.9591 15.2937 14.9333 15.4882 14.9174C15.6932 14.9007 15.9652 14.9 16.4001 14.9H17.6001C18.035 14.9 18.307 14.9007 18.512 14.9174C18.7065 14.9333 18.7601 14.9591 18.7725 14.9654C18.8854 15.0229 18.9772 15.1147 19.0347 15.2276C19.041 15.24 19.0668 15.2936 19.0827 15.4881C19.0994 15.6931 19.1001 15.9651 19.1001 16.4V17.6C19.1001 18.0349 19.0994 18.3069 19.0827 18.5119C19.0668 18.7064 19.041 18.76 19.0347 18.7724C18.9772 18.8853 18.8854 18.9771 18.7725 19.0346Z" fill="#2688EB"/>
</svg>
