<svg width="24" height="24" viewBox="0 0 24 24" fill="none" xmlns="http://www.w3.org/2000/svg">
<path fill-rule="evenodd" clip-rule="evenodd" d="M3.49341 4.93373C3.40764 4.90883 3.28285 4.90001 2.65894 4.90001H1.99998C1.50292 4.90001 1.09998 4.49707 1.09998 4.00001C1.09998 3.50296 1.50292 3.10001 1.99998 3.10001H2.65894L2.76035 3.09993C3.22271 3.09938 3.6295 3.0989 3.99535 3.20513C4.72552 3.41716 5.32944 3.93259 5.65355 4.62038C5.72386 4.7696 5.77563 4.92954 5.81757 5.10002H18.1095L18.1357 5.10001C18.5664 5.1 18.9285 5.1 19.224 5.11741C19.5291 5.13539 19.8303 5.17445 20.1226 5.28377C21.1188 5.65633 21.8311 6.5443 21.9787 7.59757C22.022 7.9066 21.9948 8.20913 21.9461 8.51084C21.899 8.80311 21.8205 9.15661 21.727 9.57701L21.7213 9.60266L21.0876 12.4545L21.0627 12.5667C20.9224 13.2001 20.8146 13.6865 20.5959 14.0974C20.1579 14.9204 19.4012 15.5274 18.5028 15.7764C18.0543 15.9008 17.5561 15.9005 16.9073 15.9001L16.7924 15.9H9.48717L9.36485 15.9001C8.67889 15.9005 8.15299 15.9009 7.68557 15.7651C6.74875 15.4931 5.97391 14.8318 5.55807 13.9494C5.35059 13.5091 5.26831 12.9896 5.16098 12.3121L5.14182 12.1913L4.18969 6.20648C4.09166 5.59032 4.06335 5.46846 4.02528 5.38768C3.92132 5.16707 3.72761 5.00174 3.49341 4.93373ZM6.12266 6.90001L6.91946 11.9085C7.05548 12.7635 7.10279 13.0048 7.18634 13.1821C7.38203 13.5973 7.74666 13.9085 8.18751 14.0365C8.37573 14.0912 8.62144 14.1 9.48717 14.1H16.7924C17.6099 14.1 17.8411 14.092 18.022 14.0419C18.4447 13.9247 18.8008 13.639 19.007 13.2517C19.0951 13.0861 19.1531 12.8621 19.3305 12.064L19.9642 9.21218C20.0648 8.75941 20.1314 8.45799 20.1691 8.22439C20.2062 7.99431 20.203 7.89659 20.1961 7.84736C20.1401 7.44785 19.8699 7.11103 19.4921 6.96971C19.4455 6.9523 19.3508 6.928 19.1182 6.9143C18.882 6.90038 18.5733 6.90001 18.1095 6.90001H6.12266ZM6.99997 19.25C6.99997 18.2835 7.78347 17.5 8.74997 17.5C9.71647 17.5 10.5 18.2835 10.5 19.25C10.5 20.2165 9.71647 21 8.74997 21C7.78347 21 6.99997 20.2165 6.99997 19.25ZM17.25 17.5C16.2835 17.5 15.5 18.2835 15.5 19.25C15.5 20.2165 16.2835 21 17.25 21C18.2165 21 19 20.2165 19 19.25C19 18.2835 18.2165 17.5 17.25 17.5Z" fill="#2688EB"/>
</svg>
