<svg width="24" height="24" viewBox="0 0 24 24" fill="none" xmlns="http://www.w3.org/2000/svg">
<path d="M2.89609 6.10003C2.39904 6.10003 1.99609 6.50298 1.99609 7.00003C1.99609 7.49709 2.39904 7.90003 2.89609 7.90003C5.52691 7.90003 7.39735 9.51162 9.27985 11.6045C8.27271 12.7877 7.32869 13.8828 6.3071 14.7116C5.22921 15.586 4.13961 16.1 2.90146 16.1C2.4044 16.1 2.00146 16.503 2.00146 17C2.00146 17.4971 2.4044 17.9 2.90146 17.9C4.69204 17.9 6.17084 17.14 7.44112 16.1094C8.53821 15.2194 9.5348 14.0804 10.4755 12.9768C11.4283 14.087 12.4271 15.2408 13.5246 16.1352C14.7727 17.1523 16.2242 17.9 18 17.9H18.9272L18.3636 18.4636C18.0122 18.815 18.0122 19.3849 18.3636 19.7364C18.7151 20.0878 19.2849 20.0878 19.6364 19.7364L21.7364 17.6364C22.0879 17.2849 22.0879 16.7151 21.7364 16.3636L19.6364 14.2636C19.2849 13.9121 18.7151 13.9121 18.3636 14.2636C18.0122 14.6151 18.0122 15.1849 18.3636 15.5364L18.9273 16.1H18C16.7759 16.1 15.7144 15.5977 14.6617 14.7399C13.6653 13.9278 12.7453 12.8566 11.7413 11.6876L11.5053 11.413C9.39638 8.96194 6.86585 6.10003 2.89609 6.10003Z" fill="#2688EB"/>
<path d="M12.3183 8.40805C13.8046 7.15976 15.7006 6.10003 18 6.10003H18.9272L18.3636 5.53643C18.0122 5.18495 18.0122 4.61511 18.3636 4.26363C18.7151 3.91216 19.2849 3.91216 19.6364 4.26363L21.7364 6.36361C22.0879 6.71508 22.0879 7.28493 21.7364 7.6364L19.6364 9.73638C19.2849 10.0878 18.7151 10.0878 18.3636 9.73638C18.0122 9.38491 18.0122 8.81506 18.3636 8.46359L18.9272 7.90003H18C16.283 7.90003 14.785 8.68699 13.4759 9.78641C13.0953 10.1061 12.5276 10.0567 12.208 9.67604C11.8883 9.29542 11.9377 8.72772 12.3183 8.40805Z" fill="#2688EB"/>
</svg>
