<svg width="24" height="24" viewBox="0 0 24 24" fill="none" xmlns="http://www.w3.org/2000/svg">
<path fill-rule="evenodd" clip-rule="evenodd" d="M8.34321 2.09998C8.35261 2.09998 8.36201 2.09998 8.37142 2.09998L15.6568 2.09998C15.8723 2.09995 16.0846 2.09992 16.2648 2.11465C16.4634 2.13087 16.7009 2.16937 16.9406 2.2915C17.2712 2.45996 17.54 2.72877 17.7085 3.0594C17.8306 3.29909 17.8691 3.53656 17.8853 3.73515C17.9 3.91537 17.9 4.12767 17.9 4.3432L17.9 5.92715L21.6307 17.0501C21.635 17.063 21.6395 17.0763 21.6441 17.0898C21.7071 17.2758 21.7915 17.5248 21.7834 17.8391C21.7796 17.9894 21.7495 18.1356 21.7214 18.242C21.6933 18.3484 21.6472 18.4904 21.5762 18.623C21.4295 18.8973 21.2646 19.0447 21.1346 19.1609C21.1294 19.1655 21.1243 19.1701 21.1192 19.1747C19.9943 20.1821 17.2858 21.9 12 21.9C6.71422 21.9 4.00565 20.1821 2.88079 19.1747C2.87571 19.1701 2.87057 19.1655 2.86538 19.1609C2.73542 19.0447 2.57051 18.8973 2.42373 18.623C2.35281 18.4904 2.30668 18.3484 2.27856 18.242C2.25044 18.1356 2.22039 17.9894 2.21654 17.8391C2.20849 17.5248 2.29286 17.2758 2.35589 17.0898C2.36048 17.0763 2.36497 17.063 2.36929 17.0501L6.09999 5.92714V4.37141C6.09999 4.362 6.09999 4.3526 6.09999 4.34321C6.09996 4.12767 6.09993 3.91538 6.11466 3.73515C6.13088 3.53656 6.16937 3.29909 6.29151 3.0594C6.45997 2.72877 6.72878 2.45996 7.05941 2.2915C7.2991 2.16937 7.53657 2.13087 7.73516 2.11465C7.91538 2.09992 8.12768 2.09995 8.34321 2.09998ZM7.89999 5.59998H16.1V4.37141C16.1 4.13761 16.0994 4.00298 16.0931 3.90683C15.997 3.90057 15.8624 3.89998 15.6286 3.89998H8.37142C8.13762 3.89998 8.00299 3.90057 7.90684 3.90683C7.90058 4.00298 7.89999 4.13761 7.89999 4.37141V5.59998ZM7.50454 7.39998L4.07586 17.6225C4.05679 17.6794 4.04348 17.7192 4.03265 17.7535C4.02916 17.7645 4.02629 17.7739 4.02394 17.7818C4.03793 17.7946 4.05556 17.8104 4.08163 17.8338C4.55046 18.2536 5.55367 18.9822 7.32404 19.4998L9.21968 7.39998H7.50454ZM11.0416 7.39998L9.08524 19.8876C9.93299 20.0198 10.9004 20.1 12 20.1C13.0996 20.1 14.067 20.0198 14.9147 19.8876L12.9583 7.39998H11.0416ZM14.7803 7.39998L16.6759 19.4998C18.4463 18.9822 19.4495 18.2536 19.9183 17.8338C19.9444 17.8104 19.962 17.7946 19.976 17.7818C19.9737 17.7739 19.9708 17.7645 19.9673 17.7535C19.9565 17.7192 19.9432 17.6794 19.9241 17.6225L16.4954 7.39998H14.7803Z" fill="#2688EB"/>
</svg>
