<svg width="24" height="24" viewBox="0 0 24 24" fill="none" xmlns="http://www.w3.org/2000/svg">
<path fill-rule="evenodd" clip-rule="evenodd" d="M8.7501 7.84998C7.42461 7.84998 6.3501 8.92449 6.3501 10.25C6.3501 11.5755 7.42461 12.65 8.7501 12.65C10.0756 12.65 11.1501 11.5755 11.1501 10.25C11.1501 8.92449 10.0756 7.84998 8.7501 7.84998ZM8.1501 10.25C8.1501 9.9186 8.41873 9.64998 8.7501 9.64998C9.08147 9.64998 9.3501 9.9186 9.3501 10.25C9.3501 10.5813 9.08147 10.85 8.7501 10.85C8.41873 10.85 8.1501 10.5813 8.1501 10.25Z" fill="#3F8AE0"/>
<path fill-rule="evenodd" clip-rule="evenodd" d="M12.8501 10.25C12.8501 8.92449 13.9246 7.84998 15.2501 7.84998C16.5756 7.84998 17.6501 8.92449 17.6501 10.25C17.6501 11.5755 16.5756 12.65 15.2501 12.65C13.9246 12.65 12.8501 11.5755 12.8501 10.25ZM15.2501 9.64998C14.9187 9.64998 14.6501 9.9186 14.6501 10.25C14.6501 10.5813 14.9187 10.85 15.2501 10.85C15.5815 10.85 15.8501 10.5813 15.8501 10.25C15.8501 9.9186 15.5815 9.64998 15.2501 9.64998Z" fill="#3F8AE0"/>
<path d="M12.9 13.9C12.9 13.4029 12.4971 13 12 13C11.5029 13 11.1 13.4029 11.1 13.9V14.4C11.1 14.897 11.5029 15.3 12 15.3C12.4971 15.3 12.9 14.897 12.9 14.4V13.9Z" fill="#3F8AE0"/>
<path fill-rule="evenodd" clip-rule="evenodd" d="M11.4671 3.09998H12.5331C13.67 3.09997 14.5691 3.09997 15.2971 3.14964C16.0402 3.20034 16.6706 3.30579 17.2579 3.54909C18.7036 4.1479 19.8522 5.29648 20.451 6.74214C20.6943 7.32951 20.7997 7.95983 20.8504 8.70293C20.9001 9.43085 20.9001 10.3299 20.9001 11.4666V11.5313C20.9001 12.2036 20.9001 12.7536 20.8695 13.2027C20.8378 13.6669 20.7704 14.0888 20.6032 14.4924C20.2074 15.4481 19.4482 16.2073 18.4926 16.6031C18.2769 16.6924 18.1117 16.8064 18.0116 16.9162C17.9199 17.0168 17.9001 17.0911 17.9001 17.1524V20.1C17.9001 20.597 17.4972 21 17.0001 21C16.503 21 16.1001 20.597 16.1001 20.1V18.9H12.9001V20.1C12.9001 20.597 12.4972 21 12.0001 21C11.503 21 11.1001 20.597 11.1001 20.1V18.9H7.9001V20.1C7.9001 20.597 7.49715 21 7.0001 21C6.50304 21 6.1001 20.597 6.1001 20.1L6.1001 17.1524C6.1001 17.0911 6.08031 17.0168 5.98857 16.9162C5.88851 16.8064 5.72327 16.6924 5.50763 16.6031C4.55203 16.2073 3.79279 15.4481 3.39697 14.4924C3.22979 14.0888 3.1624 13.6669 3.13073 13.2027C3.10008 12.7535 3.10009 12.2036 3.1001 11.5313V11.467C3.10009 10.3301 3.10009 9.43093 3.14976 8.70293C3.20046 7.95983 3.30591 7.32951 3.54921 6.74214C4.14802 5.29648 5.2966 4.1479 6.74227 3.54909C7.32964 3.30579 7.95995 3.20034 8.70306 3.14964C9.43106 3.09997 10.3302 3.09997 11.4671 3.09998ZM8.82558 4.94546C8.17412 4.98991 7.76258 5.07476 7.4311 5.21207C6.42648 5.62819 5.62832 6.42636 5.21219 7.43097C5.07489 7.76246 4.99003 8.174 4.94559 8.82546C4.90059 9.48501 4.9001 10.3228 4.9001 11.5C4.9001 12.2112 4.90059 12.6995 4.92656 13.0802C4.95197 13.4527 4.99877 13.6559 5.05995 13.8036C5.27309 14.3182 5.6819 14.727 6.19646 14.9401C6.90752 15.2347 7.87169 15.9196 7.89948 17.1H16.1007C16.1285 15.9196 17.0927 15.2347 17.8037 14.9401C18.3183 14.727 18.7271 14.3182 18.9402 13.8036C19.0014 13.6559 19.0482 13.4527 19.0736 13.0802C19.0996 12.6995 19.1001 12.2112 19.1001 11.5C19.1001 10.3228 19.0996 9.48501 19.0546 8.82546C19.0102 8.174 18.9253 7.76246 18.788 7.43097C18.3719 6.42636 17.5737 5.62819 16.5691 5.21207C16.2376 5.07476 15.8261 4.98991 15.1746 4.94546C14.5151 4.90046 13.6773 4.89998 12.5001 4.89998H11.5001C10.3229 4.89998 9.48513 4.90046 8.82558 4.94546Z" fill="#3F8AE0"/>
</svg>
