<svg width="24" height="24" viewBox="0 0 24 24" fill="none" xmlns="http://www.w3.org/2000/svg">
<path d="M5.9 3.9C5.9 3.40294 5.49706 3 5 3C4.50294 3 4.1 3.40294 4.1 3.9V5.09997H2.9C2.40294 5.09997 2 5.50291 2 5.99997C2 6.49703 2.40294 6.89997 2.9 6.89997H4.1V20.1C4.1 20.5971 4.50294 21 5 21C5.49706 21 5.9 20.5971 5.9 20.1V6.89997H7.1C7.59706 6.89997 8 6.49703 8 5.99997C8 5.50291 7.59706 5.09997 7.1 5.09997H5.9V3.9Z" fill="#2688EB"/>
<path d="M12.9 3.90235C12.9 3.40529 12.497 3.00235 12 3.00235C11.5029 3.00235 11.1 3.40529 11.1 3.90235V13.1H9.9C9.40294 13.1 9 13.5029 9 14C9 14.4971 9.40294 14.9 9.9 14.9H11.1V20.0977C11.1 20.5947 11.5029 20.9977 12 20.9977C12.497 20.9977 12.9 20.5947 12.9 20.0977V14.9H14.0953C14.5924 14.9 14.9953 14.4971 14.9953 14C14.9953 13.5029 14.5924 13.1 14.0953 13.1H12.9V3.90235Z" fill="#2688EB"/>
<path d="M18.9998 3.00236C19.4969 3.00236 19.8998 3.4053 19.8998 3.90236V9.10001H21.0976C21.5947 9.10001 21.9976 9.50296 21.9976 10C21.9976 10.4971 21.5947 10.9 21.0976 10.9H19.8998V20.1016C19.8998 20.5986 19.4969 21.0016 18.9998 21.0016C18.5028 21.0016 18.0998 20.5986 18.0998 20.1016V10.9H16.9023C16.4052 10.9 16.0023 10.4971 16.0023 10C16.0023 9.50296 16.4052 9.10001 16.9023 9.10001H18.0998V3.90236C18.0998 3.4053 18.5028 3.00236 18.9998 3.00236Z" fill="#2688EB"/>
</svg>
