<svg width="24" height="24" viewBox="0 0 24 24" fill="none" xmlns="http://www.w3.org/2000/svg">
<path fill-rule="evenodd" clip-rule="evenodd" d="M11.18 3.89997H12.82C13.9138 3.89997 14.6259 3.90138 15.1692 3.94577C15.6916 3.98845 15.8976 4.06172 16.0079 4.11796C16.3843 4.30971 16.6902 4.61567 16.882 4.99199C16.9382 5.10238 17.0115 5.30838 17.0542 5.83072C17.0986 6.37408 17.1 7.08617 17.1 8.17998V15.82C17.1 16.9138 17.0986 17.6259 17.0542 18.1693C17.0115 18.6916 16.9382 18.8976 16.882 19.008C16.6902 19.3843 16.3843 19.6903 16.0079 19.882C15.8976 19.9383 15.6916 20.0115 15.1692 20.0542C14.6259 20.0986 13.9138 20.1 12.82 20.1H11.18C10.0862 20.1 9.37408 20.0986 8.83072 20.0542C8.30838 20.0115 8.10238 19.9383 7.99199 19.882C7.61567 19.6903 7.30971 19.3843 7.11796 19.008C7.06172 18.8976 6.98845 18.6916 6.94577 18.1693C6.90138 17.6259 6.89998 16.9138 6.89998 15.82V8.17997C6.89998 7.08617 6.90138 6.37408 6.94577 5.83072C6.98845 5.30838 7.06172 5.10239 7.11796 4.99199C7.30971 4.61567 7.61567 4.30971 7.99199 4.11796C8.10238 4.06172 8.30838 3.98845 8.83072 3.94577C9.37408 3.90138 10.0862 3.89997 11.18 3.89997ZM5.09998 8.17997C5.09998 6.05177 5.09998 4.98768 5.51415 4.17481C5.87847 3.4598 6.4598 2.87847 7.17481 2.51415C7.98768 2.09998 9.05178 2.09998 11.18 2.09998H12.82C14.9482 2.09998 16.0123 2.09998 16.8251 2.51415C17.5401 2.87847 18.1215 3.4598 18.4858 4.17481C18.9 4.98768 18.9 6.05178 18.9 8.17998V15.82C18.9 17.9482 18.9 19.0123 18.4858 19.8252C18.1215 20.5402 17.5401 21.1215 16.8251 21.4858C16.0123 21.9 14.9482 21.9 12.82 21.9H11.18C9.05178 21.9 7.98768 21.9 7.17481 21.4858C6.4598 21.1215 5.87847 20.5402 5.51415 19.8252C5.09998 19.0123 5.09998 17.9482 5.09998 15.82V8.17997ZM11.25 16.2C10.7529 16.2 10.35 16.6029 10.35 17.1C10.35 17.597 10.7529 18 11.25 18H12.75C13.247 18 13.65 17.597 13.65 17.1C13.65 16.6029 13.247 16.2 12.75 16.2H11.25Z" fill="#3F8AE0"/>
</svg>
