<svg width="24" height="24" viewBox="0 0 24 24" fill="none" xmlns="http://www.w3.org/2000/svg">
<path fill-rule="evenodd" clip-rule="evenodd" d="M6.71953 3.5818C7.84896 2.37095 9.87806 3.16978 9.87805 4.82607C9.87805 5.10368 9.99597 5.41842 10.2033 5.66063C10.4091 5.90114 10.638 5.99999 10.8268 5.99999L12.7825 5.99999L12.3953 4.36171L12.3949 4.36009L12.3355 4.10701C12.2218 3.62312 12.522 3.13872 13.0059 3.02507C13.4898 2.91142 13.9742 3.21155 14.0878 3.69544L14.1463 3.94449L14.1467 3.94611L14.147 3.94732L15.7596 10.7153C15.928 11.4218 16.4495 11.9912 17.1386 12.2209L19.3312 12.9516C21.5988 13.7074 22.733 15.6725 22.4541 17.5553C22.1679 19.4864 20.4622 20.9974 17.7881 20.9974L13.5829 20.9974C11.7381 20.9974 9.97004 20.2588 8.67354 18.9465L3.26516 13.4723C1.60644 11.7933 1.56782 9.10488 3.17764 7.37901L6.71953 3.5818ZM13.2146 7.79999L13.5013 9.00315L10.6305 9.90368C10.1562 10.0525 9.89236 10.5575 10.0411 11.0318C10.1899 11.5061 10.695 11.7699 11.1693 11.6212L13.9195 10.7584L14.0087 11.1326C14.0997 11.5145 14.2463 11.8749 14.44 12.2044L13.5743 12.5412C13.1111 12.7214 12.8816 13.243 13.0618 13.7063C13.2421 14.1695 13.7637 14.3989 14.2269 14.2187L15.8321 13.5943C16.0632 13.7296 16.3099 13.8421 16.5695 13.9286L18.762 14.6593C20.2702 15.1619 20.814 16.3429 20.6735 17.2914C20.5401 18.1917 19.7287 19.1974 17.7881 19.1974L13.5829 19.1974C12.2192 19.1974 10.9123 18.6515 9.95401 17.6815L4.54564 12.2072C3.56549 11.2151 3.54268 9.62659 4.49392 8.60678L8.0358 4.80957C8.04016 4.8049 8.04333 4.80221 8.04506 4.80085L8.04627 4.79997C8.04879 4.79996 8.05458 4.80034 8.06265 4.80352C8.07064 4.80667 8.07511 4.81029 8.07697 4.81203L8.07723 4.81341C8.07757 4.81557 8.07805 4.81969 8.07805 4.82607C8.07805 5.56936 8.374 6.29158 8.83581 6.83111C9.29906 7.37233 9.99461 7.79999 10.8268 7.79999H13.2146Z" fill="#2688EB"/>
</svg>
