<svg width="24" height="24" viewBox="0 0 24 24" fill="none" xmlns="http://www.w3.org/2000/svg">
<path fill-rule="evenodd" clip-rule="evenodd" d="M16.3021 4.0592L13.9026 4.72137C13.4277 4.85415 13.0993 5.28751 13.0993 5.78134V6.62588L15.5058 5.94469C15.9772 5.8095 16.3021 5.37783 16.3021 4.88672V4.0592ZM13.0993 8.49905L16.0007 7.67592C17.2435 7.31952 18.1 6.18148 18.1 4.88672V3.00482C18.1 2.34267 17.4694 1.86317 16.8326 2.04121L13.4192 2.98689C12.1672 3.33694 11.3014 4.47943 11.3014 5.78134L11.3014 14.6886C8.69966 14.7069 7.07911 15.5244 6.28534 16.8559C5.4212 18.3054 5.78593 20.0436 6.79011 21.0045C7.73821 21.9621 9.36975 22.3832 10.8497 21.5807C12.5123 20.5398 13.0594 18.9452 13.0993 16.6011L13.0993 8.49905ZM11.3028 16.4886C8.97192 16.4436 8.15884 17.2218 7.8164 17.7962C7.41441 18.4705 7.59728 19.2898 8.04646 19.7149C8.55498 20.2138 9.24589 20.3511 9.93881 20.0197C10.5004 19.6922 11.3028 19.038 11.3028 16.4886Z" fill="#2688EB"/>
</svg>
