<svg width="24" height="24" viewBox="0 0 24 24" fill="none" xmlns="http://www.w3.org/2000/svg">
<path fill-rule="evenodd" clip-rule="evenodd" d="M16.3938 5.07651C14.8945 4.12504 13.1269 3.68596 11.3566 3.82528C9.58641 3.9646 7.90923 4.67479 6.57725 5.84909C5.24527 7.02339 4.33047 8.59833 3.97038 10.3371C3.61029 12.076 3.82437 13.8847 4.58043 15.4914C4.79206 15.9411 4.59903 16.4773 4.14928 16.6889C3.69953 16.9006 3.16337 16.7075 2.95174 16.2578C2.02971 14.2984 1.76864 12.0926 2.20778 9.97213C2.64692 7.85162 3.76252 5.93096 5.38689 4.49889C7.01126 3.06682 9.05659 2.20073 11.2154 2.03083C13.3742 1.86092 15.5299 2.39639 17.3583 3.55672C19.1867 4.71705 20.589 6.43955 21.3545 8.46525C22.1199 10.491 22.2071 12.7104 21.6029 14.7899C20.9988 16.8694 19.7359 18.6966 18.0042 19.9968C16.2725 21.2971 14.1655 22 12 22C11.503 22 11.1 21.5971 11.1 21.1C11.1 20.6029 11.503 20.2 12 20.2C13.7757 20.2 15.5034 19.6236 16.9235 18.5574C18.3435 17.4912 19.379 15.9929 19.8744 14.2877C20.3698 12.5825 20.2983 10.7626 19.6707 9.10151C19.043 7.44043 17.8931 6.02799 16.3938 5.07651Z" fill="#2688EB"/>
</svg>
