<svg width="24" height="24" viewBox="0 0 24 24" fill="none" xmlns="http://www.w3.org/2000/svg">
<path fill-rule="evenodd" clip-rule="evenodd" d="M7.59998 10.9L7.63331 10.9C8.02482 10.9 8.37131 10.9 8.65846 10.8766C8.96425 10.8516 9.2811 10.7956 9.58956 10.6384C10.0411 10.4083 10.4083 10.0412 10.6384 9.58958C10.7956 9.28112 10.8516 8.96427 10.8766 8.65849C10.9 8.37134 10.9 8.02486 10.9 7.63337V7.63335V7.63334V7.63333L10.9 7.6V6.4L10.9 6.36667C10.9 5.97516 10.9 5.62867 10.8766 5.34151C10.8516 5.03573 10.7956 4.71888 10.6384 4.41042C10.4083 3.95883 10.0411 3.59168 9.58956 3.36158C9.2811 3.20442 8.96425 3.14841 8.65846 3.12342C8.37133 3.09996 8.02486 3.09998 7.63338 3.1H7.63332L7.59998 3.1L6.39998 3.1L6.36664 3.1H6.36658C5.9751 3.09998 5.62863 3.09996 5.34149 3.12342C5.03571 3.14841 4.71886 3.20442 4.4104 3.36158C3.95881 3.59168 3.59166 3.95883 3.36156 4.41042C3.2044 4.71888 3.14839 5.03573 3.1234 5.34151C3.09994 5.62865 3.09996 5.97512 3.09998 6.3666V6.36666L3.09998 6.4L3.09998 7.6L3.09998 7.63334V7.6334C3.09996 8.02488 3.09994 8.37135 3.1234 8.65848C3.14839 8.96427 3.2044 9.28112 3.36156 9.58958C3.59166 10.0412 3.95881 10.4083 4.4104 10.6384C4.71886 10.7956 5.03571 10.8516 5.34149 10.8766C5.62864 10.9 5.97512 10.9 6.36661 10.9H6.36662H6.36663H6.36664L6.39998 10.9H7.59998ZM8.77237 9.0346C8.75996 9.04093 8.70636 9.06666 8.51189 9.08255C8.30691 9.0993 8.03487 9.1 7.59998 9.1L6.39998 9.1C5.96509 9.1 5.69305 9.0993 5.48807 9.08255C5.2936 9.06666 5.24 9.04093 5.22758 9.0346C5.11469 8.97708 5.0229 8.88529 4.96537 8.77239C4.95905 8.75998 4.93331 8.70638 4.91743 8.51191C4.90068 8.30693 4.89998 8.03489 4.89998 7.6L4.89998 6.4C4.89998 5.96511 4.90068 5.69307 4.91743 5.48809C4.93331 5.29362 4.95905 5.24002 4.96537 5.2276C5.0229 5.11471 5.11469 5.02292 5.22758 4.9654C5.24 4.95907 5.2936 4.93334 5.48807 4.91745C5.69305 4.9007 5.96509 4.9 6.39998 4.9L7.59998 4.9C8.03487 4.9 8.30691 4.9007 8.51189 4.91745C8.70636 4.93334 8.75996 4.95907 8.77237 4.9654C8.88527 5.02292 8.97706 5.11471 9.03458 5.22761C9.04091 5.24002 9.06664 5.29362 9.08253 5.48809C9.09928 5.69307 9.09998 5.96511 9.09998 6.4L9.09998 7.6C9.09998 8.03489 9.09928 8.30693 9.08253 8.51191C9.06664 8.70638 9.04091 8.75998 9.03458 8.77239C8.97706 8.88529 8.88527 8.97708 8.77237 9.0346ZM7.59998 20.9L7.63331 20.9H7.63341C8.02488 20.9 8.37133 20.9 8.65846 20.8766C8.96425 20.8516 9.2811 20.7956 9.58956 20.6384C10.0411 20.4083 10.4083 20.0412 10.6384 19.5896C10.7956 19.2811 10.8516 18.9643 10.8766 18.6585C10.9 18.3713 10.9 18.0249 10.9 17.6334V17.6334V17.6333V17.6333L10.9 17.6V16.4L10.9 16.3667C10.9 15.9752 10.9 15.6287 10.8766 15.3415C10.8516 15.0357 10.7956 14.7189 10.6384 14.4104C10.4083 13.9588 10.0411 13.5917 9.58956 13.3616C9.2811 13.2044 8.96425 13.1484 8.65846 13.1234C8.37133 13.1 8.02486 13.1 7.63339 13.1H7.63338H7.63337H7.63331L7.59998 13.1H6.39998L6.36664 13.1H6.36659H6.36658H6.36657C5.97509 13.1 5.62863 13.1 5.34149 13.1234C5.03571 13.1484 4.71886 13.2044 4.4104 13.3616C3.95881 13.5917 3.59166 13.9588 3.36156 14.4104C3.2044 14.7189 3.14839 15.0357 3.1234 15.3415C3.09994 15.6287 3.09996 15.9751 3.09998 16.3666V16.3667L3.09998 16.4L3.09998 17.6L3.09998 17.6333V17.6334C3.09996 18.0249 3.09994 18.3713 3.1234 18.6585C3.14839 18.9643 3.2044 19.2811 3.36156 19.5896C3.59166 20.0412 3.95881 20.4083 4.4104 20.6384C4.71886 20.7956 5.03571 20.8516 5.34149 20.8766C5.62862 20.9 5.97508 20.9 6.36654 20.9H6.36664L6.39998 20.9H7.59998ZM8.77237 19.0346C8.75996 19.0409 8.70636 19.0667 8.51189 19.0826C8.30691 19.0993 8.03487 19.1 7.59998 19.1H6.39998C5.96509 19.1 5.69305 19.0993 5.48807 19.0826C5.2936 19.0667 5.24 19.0409 5.22758 19.0346C5.11469 18.9771 5.0229 18.8853 4.96537 18.7724C4.95905 18.76 4.93331 18.7064 4.91743 18.5119C4.90068 18.3069 4.89998 18.0349 4.89998 17.6L4.89998 16.4C4.89998 15.9651 4.90068 15.6931 4.91743 15.4881C4.93331 15.2936 4.95905 15.24 4.96537 15.2276C5.0229 15.1147 5.11469 15.0229 5.22758 14.9654C5.24 14.9591 5.2936 14.9333 5.48807 14.9174C5.69305 14.9007 5.96509 14.9 6.39998 14.9H7.59998C8.03487 14.9 8.30691 14.9007 8.51189 14.9174C8.70636 14.9333 8.75996 14.9591 8.77237 14.9654C8.88527 15.0229 8.97706 15.1147 9.03458 15.2276C9.04091 15.24 9.06664 15.2936 9.08253 15.4881C9.09928 15.6931 9.09998 15.9651 9.09998 16.4L9.09998 17.6C9.09998 18.0349 9.09928 18.3069 9.08253 18.5119C9.06664 18.7064 9.04091 18.76 9.03458 18.7724C8.97706 18.8853 8.88527 18.9771 8.77237 19.0346ZM17.6333 10.9L17.6 10.9H16.4L16.3666 10.9H16.3666H16.3666C15.9751 10.9 15.6286 10.9 15.3415 10.8766C15.0357 10.8516 14.7189 10.7956 14.4104 10.6384C13.9588 10.4083 13.5917 10.0412 13.3616 9.58958C13.2044 9.28112 13.1484 8.96427 13.1234 8.65848C13.0999 8.37133 13.1 8.02484 13.1 7.63334L13.1 7.6V6.4L13.1 6.36666C13.1 5.97516 13.0999 5.62867 13.1234 5.34151C13.1484 5.03573 13.2044 4.71888 13.3616 4.41042C13.5917 3.95883 13.9588 3.59168 14.4104 3.36158C14.7189 3.20442 15.0357 3.14841 15.3415 3.12342C15.6286 3.09996 15.9751 3.09998 16.3666 3.1H16.3666L16.4 3.1L17.6 3.1L17.6333 3.1H17.6334C18.0249 3.09998 18.3713 3.09996 18.6585 3.12342C18.9642 3.14841 19.2811 3.20442 19.5896 3.36158C20.0411 3.59168 20.4083 3.95883 20.6384 4.41042C20.7956 4.71888 20.8516 5.03573 20.8766 5.34151C20.9 5.62867 20.9 5.97516 20.9 6.36667L20.9 6.4V7.6L20.9 7.63333C20.9 8.02484 20.9 8.37133 20.8766 8.65849C20.8516 8.96427 20.7956 9.28112 20.6384 9.58958C20.4083 10.0412 20.0411 10.4083 19.5896 10.6384C19.2811 10.7956 18.9642 10.8516 18.6585 10.8766C18.3713 10.9 18.0248 10.9 17.6333 10.9ZM18.5119 9.08255C18.7064 9.06666 18.76 9.04093 18.7724 9.0346C18.8853 8.97708 18.9771 8.88529 19.0346 8.77239C19.0409 8.75998 19.0666 8.70638 19.0825 8.51191C19.0993 8.30693 19.1 8.03489 19.1 7.6V6.4C19.1 5.96511 19.0993 5.69307 19.0825 5.48809C19.0666 5.29362 19.0409 5.24002 19.0346 5.22761C18.9771 5.11471 18.8853 5.02292 18.7724 4.9654C18.76 4.95907 18.7064 4.93334 18.5119 4.91745C18.3069 4.9007 18.0349 4.9 17.6 4.9L16.4 4.9C15.9651 4.9 15.693 4.9007 15.4881 4.91745C15.2936 4.93334 15.24 4.95907 15.2276 4.9654C15.1147 5.02292 15.0229 5.11471 14.9654 5.2276C14.959 5.24002 14.9333 5.29362 14.9174 5.48809C14.9007 5.69307 14.9 5.96511 14.9 6.4V7.6C14.9 8.03489 14.9007 8.30693 14.9174 8.51191C14.9333 8.70638 14.959 8.75998 14.9654 8.77239C15.0229 8.88529 15.1147 8.97708 15.2276 9.0346C15.24 9.04093 15.2936 9.06666 15.4881 9.08255C15.693 9.0993 15.9651 9.1 16.4 9.1L17.6 9.1C18.0349 9.1 18.3069 9.0993 18.5119 9.08255ZM17.6 20.9L17.6333 20.9H17.6334C18.0249 20.9 18.3713 20.9 18.6585 20.8766C18.9642 20.8516 19.2811 20.7956 19.5896 20.6384C20.0411 20.4083 20.4083 20.0412 20.6384 19.5896C20.7956 19.2811 20.8516 18.9643 20.8766 18.6585C20.9 18.3713 20.9 18.0248 20.9 17.6333L20.9 17.6V16.4L20.9 16.3667C20.9 15.9752 20.9 15.6287 20.8766 15.3415C20.8516 15.0357 20.7956 14.7189 20.6384 14.4104C20.4083 13.9588 20.0411 13.5917 19.5896 13.3616C19.2811 13.2044 18.9642 13.1484 18.6585 13.1234C18.3713 13.1 18.0249 13.1 17.6334 13.1H17.6333L17.6 13.1H16.4L16.3666 13.1H16.3666C15.9751 13.1 15.6286 13.1 15.3415 13.1234C15.0357 13.1484 14.7189 13.2044 14.4104 13.3616C13.9588 13.5917 13.5917 13.9588 13.3616 14.4104C13.2044 14.7189 13.1484 15.0357 13.1234 15.3415C13.0999 15.6287 13.1 15.9752 13.1 16.3667L13.1 16.4V17.6L13.1 17.6333C13.1 18.0248 13.0999 18.3713 13.1234 18.6585C13.1484 18.9643 13.2044 19.2811 13.3616 19.5896C13.5917 20.0412 13.9588 20.4083 14.4104 20.6384C14.7189 20.7956 15.0357 20.8516 15.3415 20.8766C15.6286 20.9 15.9751 20.9 16.3665 20.9H16.3666L16.4 20.9H17.6ZM18.7724 19.0346C18.76 19.0409 18.7064 19.0667 18.5119 19.0826C18.3069 19.0993 18.0349 19.1 17.6 19.1H16.4C15.9651 19.1 15.693 19.0993 15.4881 19.0826C15.2936 19.0667 15.24 19.0409 15.2276 19.0346C15.1147 18.9771 15.0229 18.8853 14.9654 18.7724C14.959 18.76 14.9333 18.7064 14.9174 18.5119C14.9007 18.3069 14.9 18.0349 14.9 17.6V16.4C14.9 15.9651 14.9007 15.6931 14.9174 15.4881C14.9333 15.2936 14.959 15.24 14.9654 15.2276C15.0229 15.1147 15.1147 15.0229 15.2276 14.9654C15.24 14.9591 15.2936 14.9333 15.4881 14.9174C15.693 14.9007 15.9651 14.9 16.4 14.9H17.6C18.0349 14.9 18.3069 14.9007 18.5119 14.9174C18.7064 14.9333 18.76 14.9591 18.7724 14.9654C18.8853 15.0229 18.9771 15.1147 19.0346 15.2276C19.0409 15.24 19.0666 15.2936 19.0825 15.4881C19.0993 15.6931 19.1 15.9651 19.1 16.4V17.6C19.1 18.0349 19.0993 18.3069 19.0825 18.5119C19.0666 18.7064 19.0409 18.76 19.0346 18.7724C18.9771 18.8853 18.8853 18.9771 18.7724 19.0346Z" fill="#2688EB"/>
</svg>
