<svg width="24" height="24" viewBox="0 0 24 24" fill="none" xmlns="http://www.w3.org/2000/svg">
<path fill-rule="evenodd" clip-rule="evenodd" d="M2.09998 19C2.09998 18.503 2.50292 18.1 2.99998 18.1H21C21.497 18.1 21.9 18.503 21.9 19C21.9 19.4971 21.497 19.9 21 19.9H2.99998C2.50292 19.9 2.09998 19.4971 2.09998 19Z" fill="#2688EB"/>
<path fill-rule="evenodd" clip-rule="evenodd" d="M16.5 5.90001C16.0029 5.90001 15.6 5.49706 15.6 5.00001C15.6 4.50295 16.0029 4.10001 16.5 4.10001H21C21.497 4.10001 21.9 4.50295 21.9 5.00001V9.50001C21.9 9.99706 21.497 10.4 21 10.4C20.5029 10.4 20.1 9.99706 20.1 9.50001V7.1728L14.1364 13.1364C13.7849 13.4879 13.2151 13.4879 12.8636 13.1364L9.49998 9.7728L3.63637 15.6364C3.2849 15.9879 2.71505 15.9879 2.36358 15.6364C2.01211 15.2849 2.01211 14.7151 2.36358 14.3636L8.86358 7.86361C9.21505 7.51214 9.7849 7.51214 10.1364 7.86361L13.5 11.2272L18.8272 5.90001H16.5Z" fill="#2688EB"/>
</svg>
