<svg width="24" height="24" viewBox="0 0 24 24" fill="none" xmlns="http://www.w3.org/2000/svg">
<path fill-rule="evenodd" clip-rule="evenodd" d="M11.6386 2.10648C11.8884 2.0975 12.1306 2.19278 12.3073 2.3695L21.6306 11.6928C21.8073 11.8695 21.9026 12.1117 21.8936 12.3615C21.8005 14.952 20.7115 17.2893 19.0005 19.0003C17.2099 20.7909 14.7337 21.9 12.0001 21.9C9.26654 21.9 6.7903 20.7909 4.99974 19.0003C3.20918 17.2098 2.1001 14.7335 2.1001 12C2.1001 9.26643 3.20918 6.79019 4.99974 4.99963C6.71078 3.28859 9.04806 2.19961 11.6386 2.10648ZM10.3376 4.07061C8.76837 4.39779 7.36579 5.17917 6.27253 6.27242C4.80574 7.73922 3.9001 9.76299 3.9001 12C3.9001 14.237 4.80574 16.2608 6.27253 17.7276C7.73933 19.1944 9.76309 20.1 12.0001 20.1C14.2371 20.1 16.2609 19.1944 17.7277 17.7276C18.8209 16.6343 19.6023 15.2317 19.9295 13.6625C19.3115 13.8177 18.665 13.9 18.0001 13.9C15.8188 13.9 13.8426 13.0148 12.414 11.5861C10.9853 10.1575 10.1001 8.18126 10.1001 5.99999C10.1001 5.33506 10.1824 4.6886 10.3376 4.07061ZM12.0484 4.65617C11.9514 5.08811 11.9001 5.53776 11.9001 5.99999C11.9001 7.68471 12.5819 9.20847 13.6867 10.3133C14.7916 11.4182 16.3154 12.1 18.0001 12.1C18.4623 12.1 18.912 12.0487 19.3439 11.9517L12.0484 4.65617Z" fill="#2688EB"/>
</svg>
