<svg width="24" height="24" viewBox="0 0 24 24" fill="none" xmlns="http://www.w3.org/2000/svg">
<path fill-rule="evenodd" clip-rule="evenodd" d="M10.3 3H10.2611C9.17398 2.99999 8.30329 2.99999 7.59952 3.05749C6.87685 3.11653 6.25129 3.24066 5.67545 3.53407C4.75345 4.00385 4.00385 4.75345 3.53407 5.67545C3.24066 6.25129 3.11653 6.87685 3.05749 7.59952C2.99999 8.30329 2.99999 9.17397 3 10.261V10.3V13.7V13.7389C2.99999 14.826 2.99999 15.6967 3.05749 16.4005C3.11653 17.1231 3.24066 17.7487 3.53407 18.3246C4.00385 19.2465 4.75345 19.9962 5.67545 20.4659C6.25129 20.7593 6.87685 20.8835 7.59952 20.9425C8.30327 21 9.17392 21 10.261 21H10.3H13.7H13.739C14.826 21 15.6967 21 16.4005 20.9425C17.1231 20.8835 17.7487 20.7593 18.3246 20.4659C19.2465 19.9962 19.9962 19.2465 20.4659 18.3246C20.7593 17.7487 20.8835 17.1231 20.9425 16.4005C21 15.6967 21 14.8261 21 13.739V13.7V10.3V10.261C21 9.17401 21 8.30327 20.9425 7.59952C20.8835 6.87685 20.7593 6.25129 20.4659 5.67545C19.9962 4.75345 19.2465 4.00385 18.3246 3.53407C17.7487 3.24066 17.1231 3.11653 16.4005 3.05749C15.6967 2.99999 14.826 2.99999 13.739 3H13.7H10.3ZM6.49263 5.13788C6.77243 4.99531 7.13475 4.90146 7.7461 4.85151C8.36796 4.8007 9.16504 4.8 10.3 4.8H13.7C14.835 4.8 15.632 4.8007 16.2539 4.85151C16.8653 4.90146 17.2276 4.99531 17.5074 5.13788C18.0907 5.43509 18.5649 5.90933 18.8621 6.49263C19.0047 6.77243 19.0985 7.13475 19.1485 7.7461C19.1993 8.36796 19.2 9.16504 19.2 10.3V13.7C19.2 14.835 19.1993 15.632 19.1485 16.2539C19.0985 16.8653 19.0047 17.2276 18.8621 17.5074C18.5649 18.0907 18.0907 18.5649 17.5074 18.8621C17.2276 19.0047 16.8653 19.0985 16.2539 19.1485C15.632 19.1993 14.835 19.2 13.7 19.2H10.3C9.16504 19.2 8.36795 19.1993 7.7461 19.1485C7.13475 19.0985 6.77243 19.0047 6.49263 18.8621C5.90933 18.5649 5.43509 18.0907 5.13788 17.5074C4.99531 17.2276 4.90146 16.8653 4.85151 16.2539C4.8007 15.632 4.8 14.835 4.8 13.7V10.3C4.8 9.16504 4.8007 8.36795 4.85151 7.7461C4.90146 7.13475 4.99531 6.77243 5.13788 6.49263C5.43509 5.90933 5.90933 5.43509 6.49263 5.13788ZM9.80085 12C9.80085 10.7855 10.7854 9.80092 11.9999 9.80092C13.2144 9.80092 14.199 10.7855 14.199 12C14.199 13.2145 13.2144 14.1991 11.9999 14.1991C10.7854 14.1991 9.80085 13.2145 9.80085 12ZM11.9999 8.00092C9.7913 8.00092 8.00085 9.79136 8.00085 12C8.00085 14.2086 9.7913 15.9991 11.9999 15.9991C14.2086 15.9991 15.999 14.2086 15.999 12C15.999 9.79136 14.2086 8.00092 11.9999 8.00092Z" fill="#2688EB"/>
</svg>
