<svg width="24" height="24" viewBox="0 0 24 24" fill="none" xmlns="http://www.w3.org/2000/svg">
<path fill-rule="evenodd" clip-rule="evenodd" d="M18.5002 2.00232C18.9972 2.00232 19.4002 2.40526 19.4002 2.90232V4.6H21.0978C21.5948 4.6 21.9978 5.00294 21.9978 5.5C21.9978 5.99706 21.5948 6.4 21.0978 6.4H19.4002V8.09773C19.4002 8.59479 18.9972 8.99773 18.5002 8.99773C18.0031 8.99773 17.6002 8.59479 17.6002 8.09773V6.4H15.9025C15.4055 6.4 15.0025 5.99706 15.0025 5.5C15.0025 5.00294 15.4055 4.6 15.9025 4.6H17.6002V2.90232C17.6002 2.40526 18.0031 2.00232 18.5002 2.00232ZM10.2596 2.99844L10.2985 2.99844H12.6838C13.1808 2.99844 13.5838 3.40138 13.5838 3.89844C13.5838 4.39549 13.1808 4.79844 12.6838 4.79844H10.2985C9.16358 4.79844 8.36649 4.79914 7.74463 4.84995C7.13328 4.89989 6.77097 4.99375 6.49117 5.13632C5.90786 5.43352 5.43362 5.90776 5.13642 6.49107C4.99385 6.77087 4.89999 7.13318 4.85004 7.74453C4.79924 8.36639 4.79854 9.16348 4.79854 10.2984V13.7016C4.79854 14.8365 4.79924 15.6336 4.85004 16.2555C4.89999 16.8668 4.99385 17.2291 5.13642 17.5089C5.43362 18.0922 5.90786 18.5665 6.49117 18.8637C6.77097 19.0063 7.13328 19.1001 7.74463 19.1501C8.36649 19.2009 9.16358 19.2016 10.2985 19.2016H13.7017C14.8366 19.2016 15.6337 19.2009 16.2556 19.1501C16.8669 19.1001 17.2292 19.0063 17.509 18.8637C18.0923 18.5665 18.5666 18.0922 18.8638 17.5089C19.0064 17.2291 19.1002 16.8668 19.1502 16.2555C19.201 15.6336 19.2017 14.8365 19.2017 13.7016V11.3392C19.2017 10.8421 19.6046 10.4392 20.1017 10.4392C20.5987 10.4392 21.0017 10.8421 21.0017 11.3392V13.7016V13.7405C21.0017 14.8276 21.0017 15.6983 20.9442 16.402C20.8851 17.1247 20.761 17.7503 20.4676 18.3261C19.9978 19.2481 19.2482 19.9977 18.3262 20.4675C17.7504 20.7609 17.1248 20.885 16.4021 20.9441C15.6984 21.0016 14.8277 21.0016 13.7407 21.0016H13.7017H10.2985H10.2596C9.17255 21.0016 8.30181 21.0016 7.59805 20.9441C6.87539 20.885 6.24983 20.7609 5.67398 20.4675C4.75199 19.9977 4.00238 19.2481 3.5326 18.3261C3.2392 17.7503 3.11507 17.1247 3.05602 16.402C2.99852 15.6983 2.99853 14.8276 2.99854 13.7405V13.7016V10.2984V10.2595C2.99853 9.17242 2.99852 8.30173 3.05602 7.59796C3.11507 6.87529 3.2392 6.24973 3.5326 5.67388C4.00238 4.75189 4.75199 4.00229 5.67398 3.53251C6.24983 3.2391 6.87539 3.11497 7.59805 3.05592C8.30183 2.99842 9.17251 2.99843 10.2596 2.99844ZM12.0001 9.80094C10.7855 9.80094 9.80098 10.7855 9.80098 12C9.80098 13.2145 10.7855 14.1991 12.0001 14.1991C13.2146 14.1991 14.1991 13.2145 14.1991 12C14.1991 10.7855 13.2146 9.80094 12.0001 9.80094ZM8.00098 12C8.00098 9.79139 9.79142 8.00094 12.0001 8.00094C14.2087 8.00094 15.9991 9.79139 15.9991 12C15.9991 14.2086 14.2087 15.9991 12.0001 15.9991C9.79142 15.9991 8.00098 14.2086 8.00098 12Z" fill="#2688EB"/>
</svg>
