<svg width="24" height="24" viewBox="0 0 24 24" fill="none" xmlns="http://www.w3.org/2000/svg">
<path d="M8 9.5C8 8.67157 8.67157 8 9.5 8C10.3284 8 11 8.67157 11 9.5C11 10.3284 10.3284 11 9.5 11C8.67157 11 8 10.3284 8 9.5Z" fill="#2688EB"/>
<path d="M13 9.5C13 8.67157 13.6716 8 14.5 8C15.3284 8 16 8.67157 16 9.5C16 10.3284 15.3284 11 14.5 11C13.6716 11 13 10.3284 13 9.5Z" fill="#2688EB"/>
<path d="M14.5 13C13.6716 13 13 13.6716 13 14.5C13 15.3284 13.6716 16 14.5 16C15.3284 16 16 15.3284 16 14.5C16 13.6716 15.3284 13 14.5 13Z" fill="#2688EB"/>
<path d="M8 14.5C8 13.6716 8.67157 13 9.5 13C10.3284 13 11 13.6716 11 14.5C11 15.3284 10.3284 16 9.5 16C8.67157 16 8 15.3284 8 14.5Z" fill="#2688EB"/>
<path fill-rule="evenodd" clip-rule="evenodd" d="M12 2.09961C9.26641 2.09961 6.79018 3.20869 4.99962 4.99925C3.20906 6.78981 2.09998 9.26605 2.09998 11.9996C2.09998 14.7332 3.20906 17.2094 4.99962 19C6.79018 20.7905 9.26641 21.8996 12 21.8996C14.7335 21.8996 17.2098 20.7905 19.0003 19C20.7909 17.2094 21.9 14.7332 21.9 11.9996C21.9 9.26605 20.7909 6.78981 19.0003 4.99925C17.2098 3.20869 14.7335 2.09961 12 2.09961ZM6.27241 6.27204C7.73921 4.80525 9.76297 3.89961 12 3.89961C14.237 3.89961 16.2607 4.80525 17.7275 6.27204C19.1943 7.73884 20.1 9.76261 20.1 11.9996C20.1 14.2366 19.1943 16.2604 17.7275 17.7272C16.2607 19.194 14.237 20.0996 12 20.0996C9.76297 20.0996 7.73921 19.194 6.27241 17.7272C4.80561 16.2604 3.89998 14.2366 3.89998 11.9996C3.89998 9.76261 4.80561 7.73884 6.27241 6.27204Z" fill="#2688EB"/>
</svg>
