<svg width="24" height="24" viewBox="0 0 24 24" fill="none" xmlns="http://www.w3.org/2000/svg">
<path fill-rule="evenodd" clip-rule="evenodd" d="M10.126 2.27722C8.1434 2.65726 6.37054 3.6287 4.99962 4.99962C3.36827 6.63097 2.3026 8.83147 2.12598 11.2772C2.12599 11.2772 2.12597 11.2772 2.12598 11.2772C2.10876 11.5159 2.09998 11.7569 2.09998 12C2.09998 12.0041 2.09998 12.0082 2.09998 12.0124C2.10044 12.3832 2.12128 12.7492 2.16144 13.1093C2.16142 13.1093 2.16145 13.1093 2.16144 13.1093C2.41704 15.4 3.45469 17.4554 4.99962 19.0003C6.79018 20.7909 9.26641 21.9 12 21.9C12.0427 21.9 12.0853 21.8997 12.1279 21.8992C12.3302 21.8966 12.531 21.888 12.7302 21.8734C13.118 21.8452 13.4997 21.7945 13.8738 21.7229C13.8738 21.7229 13.8738 21.7228 13.8738 21.7229C15.8565 21.3429 17.6294 20.3713 19.0003 19.0003C20.6317 17.369 21.6974 15.1685 21.874 12.7227C21.874 12.7227 21.874 12.7227 21.874 12.7227C21.9042 12.3032 21.9081 11.8726 21.885 11.4511C21.8747 11.2628 21.8592 11.0759 21.8385 10.8906C21.8385 10.8906 21.8385 10.8906 21.8385 10.8906C21.5829 8.59989 20.5452 6.54454 19.0003 4.99962C17.2098 3.20906 14.7335 2.09998 12 2.09998C11.9831 2.09998 11.9662 2.10002 11.9493 2.1001C11.9493 2.1001 11.9493 2.1001 11.9493 2.1001C11.3262 2.10322 10.7168 2.16403 10.126 2.27722C10.126 2.27718 10.126 2.27727 10.126 2.27722ZM10.1615 4.10937C8.66313 4.45694 7.3245 5.22032 6.27241 6.27241C5.00507 7.53975 4.15665 9.22288 3.94935 11.1001C3.96617 11.1 3.98301 11.1 3.99985 11.1C6.73341 11.1 9.20965 12.2091 11.0002 13.9996C12.5451 15.5445 13.5827 17.5999 13.8383 19.8906C15.3367 19.5431 16.6754 18.7797 17.7275 17.7275C18.9949 16.4602 19.8433 14.7771 20.0506 12.8998C20.0337 12.8999 20.0168 12.9 20 12.9C17.2664 12.9 14.7902 11.7909 12.9996 10.0003C11.4547 8.45541 10.4171 6.40004 10.1615 4.10937ZM20.0506 11.0998C19.8432 9.22271 18.9948 7.53969 17.7275 6.27241C16.2607 4.80561 14.237 3.89998 12 3.89998C11.9831 3.89998 11.9662 3.90003 11.9494 3.90013C12.1567 5.77723 13.0051 7.46026 14.2724 8.72753C15.7392 10.1943 17.7629 11.1 20 11.1C20.0168 11.1 20.0337 11.0999 20.0506 11.0998ZM12.0504 20.0998C11.8431 18.2227 10.9947 16.5397 9.72742 15.2724C8.26062 13.8056 6.23686 12.9 3.99985 12.9C3.98302 12.9 3.96619 12.9 3.94938 12.9001C4.15673 14.7772 5.00513 16.4603 6.27241 17.7275C7.73921 19.1943 9.76297 20.1 12 20.1C12.0168 20.1 12.0336 20.0999 12.0504 20.0998Z" fill="#2688EB"/>
</svg>
