<svg width="24" height="24" viewBox="0 0 24 24" fill="none" xmlns="http://www.w3.org/2000/svg">
<path d="M19.4122 5.28726C21.0203 7.06186 22 9.41652 22 12C22 14.5835 21.0203 16.9381 19.4122 18.7127M4.5878 18.7127C2.97968 16.9381 2 14.5835 2 12C2 9.41652 2.97968 7.06186 4.5878 5.28726" stroke="black" stroke-width="1.8" stroke-linecap="round" stroke-linejoin="round"/>
<path d="M16.5851 8.12982C17.4679 9.17458 18 10.5251 18 12C18 13.4749 17.4679 14.8254 16.5851 15.8702M7.41489 15.8702C6.53214 14.8254 6 13.4749 6 12C6 10.5251 6.53214 9.17458 7.41489 8.12982" stroke="black" stroke-width="1.8" stroke-linecap="round" stroke-linejoin="round"/>
<path d="M12 14.5V10" stroke="black" stroke-width="1.8" stroke-linecap="round" stroke-linejoin="round"/>
<path d="M10 10H14" stroke="black" stroke-width="1.8" stroke-linecap="round" stroke-linejoin="round"/>
<path d="M5.2548 5.89162C5.58857 5.52329 5.56056 4.95413 5.19224 4.62037C4.82391 4.2866 4.25475 4.31461 3.92098 4.68293C2.16872 6.6166 1.1001 9.18456 1.1001 12C1.1001 14.8155 2.16872 17.3834 3.92099 19.3171C4.25476 19.6854 4.82392 19.7134 5.19224 19.3796C5.56056 19.0459 5.58857 18.4767 5.25481 18.1084C3.79083 16.4929 2.9001 14.3515 2.9001 12C2.9001 9.64851 3.79083 7.50715 5.2548 5.89162Z" fill="#2688EB"/>
<path d="M20.0792 4.68293C19.7454 4.31461 19.1763 4.2866 18.808 4.62037C18.4396 4.95413 18.4116 5.52329 18.7454 5.89162C20.2094 7.50715 21.1001 9.64851 21.1001 12C21.1001 14.3515 20.2094 16.4929 18.7454 18.1084C18.4116 18.4767 18.4396 19.0459 18.808 19.3796C19.1763 19.7134 19.7454 19.6854 20.0792 19.3171C21.8315 17.3834 22.9001 14.8155 22.9001 12C22.9001 9.18456 21.8315 6.6166 20.0792 4.68293Z" fill="#2688EB"/>
<path d="M8.10245 8.71068C8.42325 8.331 8.37552 7.76316 7.99585 7.44236C7.61617 7.12156 7.04833 7.16928 6.72753 7.54896C5.71268 8.75005 5.1001 10.3047 5.1001 12C5.1001 13.6953 5.71268 15.25 6.72753 16.451C7.04833 16.8307 7.61617 16.8784 7.99585 16.5576C8.37552 16.2368 8.42325 15.669 8.10245 15.2893C7.35179 14.4009 6.9001 13.2544 6.9001 12C6.9001 10.7456 7.35179 9.5991 8.10245 8.71068Z" fill="#2688EB"/>
<path d="M17.2727 7.54896C16.9519 7.16928 16.384 7.12156 16.0043 7.44236C15.6247 7.76316 15.5769 8.331 15.8977 8.71068C16.6484 9.5991 17.1001 10.7456 17.1001 12C17.1001 13.2544 16.6484 14.4009 15.8977 15.2893C15.5769 15.669 15.6247 16.2368 16.0043 16.5576C16.384 16.8784 16.9519 16.8307 17.2727 16.451C18.2875 15.25 18.9001 13.6953 18.9001 12C18.9001 10.3047 18.2875 8.75005 17.2727 7.54896Z" fill="#2688EB"/>
<path d="M12.9001 10.9H14.0001C14.4972 10.9 14.9001 10.4971 14.9001 10C14.9001 9.50295 14.4972 9.10001 14.0001 9.10001H10.0001C9.50304 9.10001 9.1001 9.50295 9.1001 10C9.1001 10.4971 9.50304 10.9 10.0001 10.9H11.1001V14.5C11.1001 14.9971 11.503 15.4 12.0001 15.4C12.4972 15.4 12.9001 14.9971 12.9001 14.5V10.9Z" fill="#2688EB"/>
</svg>
