<svg width="24" height="24" viewBox="0 0 24 24" fill="none" xmlns="http://www.w3.org/2000/svg">
<path fill-rule="evenodd" clip-rule="evenodd" d="M8.5213 9.20595L9.10281 8.62444C9.15435 8.5729 9.19043 8.50794 9.20694 8.43693L10.1853 4.22974C10.5396 2.70658 12.0394 1.74004 13.5728 2.04675C14.926 2.31741 15.9 3.50553 15.9 4.88548V7.10004H16C17.854 7.10004 19.3917 7.49392 20.4489 8.55115C21.5061 9.60838 21.9 11.1461 21.9 13V14C21.9 15.9216 21.3465 17.4422 20.2374 18.4721C19.1404 19.4907 17.638 19.9 16 19.9L8.44941 19.9C8.13091 20.3434 7.66515 20.6725 7.12119 20.8183C6.81187 20.9011 6.4631 20.9006 6.08999 20.9001L6.00002 20.9L5.91008 20.9001C5.53697 20.9006 5.18817 20.9011 4.87886 20.8183C4.05063 20.5963 3.40372 19.9494 3.1818 19.1212C3.09892 18.8119 3.09941 18.4631 3.09994 18.09V10.9101C3.09941 10.537 3.09892 10.1882 3.1818 9.87887C3.40372 9.05065 4.05063 8.40373 4.87886 8.18181C5.18817 8.09893 5.53696 8.09942 5.91007 8.09995L6.00002 8.10003L6.08996 8.09995C6.46308 8.09942 6.81187 8.09893 7.12119 8.18181C7.70763 8.33895 8.20317 8.70916 8.5213 9.20595ZM11.9386 4.63746C12.0725 4.06136 12.6398 3.69579 13.2198 3.81179C13.7316 3.91416 14.1 4.36354 14.1 4.88548V8.00004C14.1 8.49709 14.5029 8.90004 15 8.90004H16C17.646 8.90004 18.6083 9.25616 19.1761 9.82394C19.7439 10.3917 20.1 11.354 20.1 13V14C20.1 15.5785 19.6535 16.5579 19.0126 17.153C18.3596 17.7594 17.362 18.1 16 18.1C15.3976 18.1 8.90013 18.1098 8.90011 18.09L8.90002 11.3728L10.3756 9.89724C10.665 9.60788 10.8675 9.24324 10.9602 8.84465L11.9386 4.63746ZM7.10002 11.0056V18C7.10002 18.523 7.09229 18.6079 7.07958 18.6553C7.0241 18.8624 6.86237 19.0241 6.65531 19.0796C6.60786 19.0923 6.52295 19.1 6.00002 19.1C5.47709 19.1 5.39218 19.0923 5.34473 19.0796C5.13767 19.0241 4.97595 18.8624 4.92047 18.6553C4.90775 18.6079 4.90002 18.523 4.90002 18V11C4.90002 10.4771 4.90775 10.3922 4.92047 10.3447C4.97595 10.1377 5.13767 9.97596 5.34473 9.92048C5.39218 9.90776 5.47709 9.90003 6.00002 9.90003C6.52295 9.90003 6.60786 9.90776 6.65531 9.92048C6.86237 9.97596 7.0241 10.1377 7.07958 10.3447C7.09234 10.3924 7.09684 10.4839 7.10002 11.0056Z" fill="#3F8AE0"/>
</svg>
