<svg width="24" height="24" viewBox="0 0 24 24" fill="none" xmlns="http://www.w3.org/2000/svg">
<path fill-rule="evenodd" clip-rule="evenodd" d="M6.16458 3.1H17.8354C18.3653 3.09998 18.8164 3.09997 19.1869 3.13024C19.576 3.16203 19.9546 3.23167 20.3166 3.41608C20.8622 3.69411 21.3059 4.13776 21.5839 4.68343C21.7683 5.04536 21.8379 5.42395 21.8697 5.81312C21.9 6.18355 21.9 6.63473 21.9 7.16459L21.9 7.42976C21.9 7.68408 21.9 7.92613 21.8834 8.13009C21.8652 8.3525 21.8228 8.6076 21.6929 8.86258C21.5107 9.22009 21.2201 9.51075 20.8626 9.69291C20.6076 9.82283 20.3525 9.86522 20.1301 9.88339C19.9261 9.90005 19.6841 9.90003 19.4297 9.9H4.57022C4.3159 9.90003 4.07385 9.90005 3.86989 9.88339C3.64748 9.86522 3.39237 9.82283 3.1374 9.69291C2.77989 9.51075 2.48923 9.22009 2.30707 8.86258C2.17715 8.6076 2.13476 8.3525 2.11659 8.13009C2.09993 7.92613 2.09995 7.68408 2.09998 7.42976C2.09998 7.41986 2.09998 7.40994 2.09998 7.4L2.09998 7.1646C2.09996 6.63473 2.09995 6.18355 2.13022 5.81312C2.16201 5.42395 2.23165 5.04536 2.41606 4.68343C2.69409 4.13776 3.13774 3.69411 3.68341 3.41608C4.04534 3.23167 4.42393 3.16203 4.81309 3.13024C5.18353 3.09997 5.63471 3.09998 6.16458 3.1ZM4.95967 4.92426C4.68182 4.94696 4.56648 4.98632 4.50059 5.01989C4.29361 5.12535 4.12533 5.29363 4.01987 5.50061C3.9863 5.5665 3.94694 5.68185 3.92424 5.95969C3.90068 6.24805 3.89998 6.6251 3.89998 7.2V7.4C3.89998 7.69488 3.90068 7.86191 3.91061 7.98351C3.91375 8.02189 3.91725 8.04604 3.91962 8.05952C3.9255 8.06746 3.93252 8.07448 3.94046 8.08036C3.95394 8.08273 3.97809 8.08623 4.01647 8.08937C4.13807 8.0993 4.3051 8.1 4.59998 8.1H19.4C19.6949 8.1 19.8619 8.0993 19.9835 8.08937C20.0219 8.08623 20.046 8.08273 20.0595 8.08036C20.0674 8.07448 20.0745 8.06746 20.0803 8.05952C20.0827 8.04604 20.0862 8.02189 20.0893 7.98351C20.0993 7.86191 20.1 7.69488 20.1 7.4V7.2C20.1 6.6251 20.0993 6.24805 20.0757 5.95969C20.053 5.68185 20.0137 5.5665 19.9801 5.50061C19.8746 5.29363 19.7063 5.12535 19.4994 5.01989C19.4335 4.98632 19.3181 4.94696 19.0403 4.92426C18.7519 4.9007 18.3749 4.9 17.8 4.9H6.19998C5.62508 4.9 5.24803 4.9007 4.95967 4.92426Z" fill="#2688EB"/>
<path fill-rule="evenodd" clip-rule="evenodd" d="M15.8354 20.9H8.16458C7.63471 20.9 7.18353 20.9 6.81309 20.8698C6.42393 20.838 6.04534 20.7683 5.68341 20.5839C5.13774 20.3059 4.69409 19.8622 4.41606 19.3166C4.23165 18.9546 4.16201 18.576 4.13022 18.1869C4.09995 17.8165 4.09996 17.3653 4.09998 16.8354L4.09998 8.1H19.9V16.8354C19.9 17.3653 19.9 17.8165 19.8697 18.1869C19.8379 18.576 19.7683 18.9546 19.5839 19.3166C19.3059 19.8622 18.8622 20.3059 18.3166 20.5839C17.9546 20.7683 17.576 20.838 17.1869 20.8698C16.8164 20.9 16.3653 20.9 15.8354 20.9ZM5.89998 9.9H18.1V16.8C18.1 17.3749 18.0993 17.752 18.0757 18.0403C18.053 18.3182 18.0137 18.4335 17.9801 18.4994C17.8746 18.7064 17.7063 18.8746 17.4994 18.9801C17.4335 19.0137 17.3181 19.053 17.0403 19.0757C16.7519 19.0993 16.3749 19.1 15.8 19.1H12.9V15.1371L13.7508 16.0233C14.095 16.3819 14.6647 16.3935 15.0233 16.0493C15.3819 15.7051 15.3935 15.1353 15.0493 14.7768L12.6492 12.2767C12.4817 12.1023 12.251 12.0025 12.0092 12.0001C11.7673 11.9976 11.5346 12.0926 11.3636 12.2636L8.86357 14.7637C8.5121 15.1151 8.5121 15.685 8.86358 16.0364C9.21505 16.3879 9.7849 16.3879 10.1364 16.0364L11.1 15.0728V19.1H8.19998C7.62508 19.1 7.24803 19.0993 6.95967 19.0757C6.68182 19.053 6.56648 19.0137 6.50059 18.9801C6.29361 18.8746 6.12533 18.7064 6.01987 18.4994C5.9863 18.4335 5.94694 18.3182 5.92424 18.0403C5.90068 17.752 5.89998 17.3749 5.89998 16.8V9.9Z" fill="#2688EB"/>
</svg>
