<svg width="24" height="24" viewBox="0 0 24 24" fill="none" xmlns="http://www.w3.org/2000/svg">
<path d="M18.85 7.95C18.85 6.37518 17.5748 5.1 16 5.1C14.4252 5.1 13.15 6.37518 13.15 7.95C13.15 9.52482 14.4252 10.8 16 10.8C17.5748 10.8 18.85 9.52482 18.85 7.95ZM20.65 7.95C20.65 10.5189 18.5689 12.6 16 12.6C13.431 12.6 11.35 10.5189 11.35 7.95C11.35 5.38107 13.431 3.3 16 3.3C18.5689 3.3 20.65 5.38107 20.65 7.95ZM9.89997 18.4286C9.89997 19.1974 9.80921 19.1 10.2353 19.1H21.7647C22.1907 19.1 22.1 19.1974 22.1 18.4286C22.1 16.536 19.3218 15.4 16 15.4C12.6782 15.4 9.89997 16.536 9.89997 18.4286ZM16 13.6C20.2272 13.6 23.9 15.1018 23.9 18.4286C23.9 20.1642 23.2144 20.9 21.7647 20.9H10.2353C8.78551 20.9 8.09998 20.1642 8.09998 18.4286C8.09998 15.1018 11.7728 13.6 16 13.6ZM9.63637 8.8636C9.98784 9.21508 9.98784 9.78492 9.63637 10.1364L4.63637 15.1364C4.2849 15.4879 3.71505 15.4879 3.36358 15.1364L0.863579 12.6364C0.512108 12.2849 0.512108 11.7151 0.863579 11.3636C1.21505 11.0121 1.7849 11.0121 2.13637 11.3636L3.99998 13.2272L8.36358 8.8636C8.71505 8.51213 9.2849 8.51213 9.63637 8.8636Z" fill="#2688EB"/>
</svg>
