<svg width="24" height="24" viewBox="0 0 24 24" fill="none" xmlns="http://www.w3.org/2000/svg">
<path fill-rule="evenodd" clip-rule="evenodd" d="M11.9999 8.80002C11.061 8.80002 10.2999 9.56114 10.2999 10.5C10.2999 11.4389 11.061 12.2 11.9999 12.2C12.9388 12.2 13.6999 11.4389 13.6999 10.5C13.6999 9.56114 12.9388 8.80002 11.9999 8.80002ZM8.49988 10.5C8.49988 8.56703 10.0669 7.00002 11.9999 7.00002C13.9329 7.00002 15.4999 8.56703 15.4999 10.5C15.4999 12.433 13.9329 14 11.9999 14C10.0669 14 8.49988 12.433 8.49988 10.5Z" fill="#2688EB"/>
<path fill-rule="evenodd" clip-rule="evenodd" d="M12 2.1C9.26641 2.1 6.79018 3.20908 4.99962 4.99964C3.20906 6.79021 2.09998 9.26644 2.09998 12C2.09998 14.7336 3.20906 17.2098 4.99962 19.0004C6.79018 20.7909 9.26641 21.9 12 21.9C14.7335 21.9 17.2098 20.7909 19.0003 19.0004C20.7909 17.2098 21.9 14.7336 21.9 12C21.9 9.26644 20.7909 6.79021 19.0003 4.99964C17.2098 3.20908 14.7335 2.1 12 2.1ZM16.3824 18.8134C15.1751 17.8648 13.6541 17.3 12 17.3C10.3458 17.3 8.82482 17.8648 7.61756 18.8134C8.88098 19.6279 10.3849 20.1 12 20.1C13.615 20.1 15.119 19.6279 16.3824 18.8134ZM6.27241 6.27244C7.73921 4.80564 9.76297 3.9 12 3.9C14.237 3.9 16.2607 4.80564 17.7275 6.27244C19.1943 7.73923 20.1 9.763 20.1 12C20.1 14.1986 19.2252 16.1912 17.8026 17.6515C16.2451 16.3113 14.2166 15.5 12 15.5C9.78338 15.5 7.75489 16.3113 6.19736 17.6515C4.77478 16.1912 3.89997 14.1986 3.89997 12C3.89997 9.763 4.80561 7.73923 6.27241 6.27244ZM8.49988 10.5C8.49988 8.56703 10.0669 7.00002 11.9999 7.00002C13.9329 7.00002 15.4999 8.56703 15.4999 10.5C15.4999 12.433 13.9329 14 11.9999 14C10.0669 14 8.49988 12.433 8.49988 10.5ZM11.9999 8.80002C11.061 8.80002 10.2999 9.56114 10.2999 10.5C10.2999 11.4389 11.061 12.2 11.9999 12.2C12.9388 12.2 13.6999 11.4389 13.6999 10.5C13.6999 9.56114 12.9388 8.80002 11.9999 8.80002Z" fill="#2688EB"/>
</svg>
