<svg width="24" height="24" viewBox="0 0 24 24" fill="none" xmlns="http://www.w3.org/2000/svg">
<path fill-rule="evenodd" clip-rule="evenodd" d="M12 8.80002C11.0611 8.80002 10.3 9.56114 10.3 10.5C10.3 11.4389 11.0611 12.2 12 12.2C12.9389 12.2 13.7 11.4389 13.7 10.5C13.7 9.56114 12.9389 8.80002 12 8.80002ZM8.5 10.5C8.5 8.56703 10.067 7.00002 12 7.00002C13.933 7.00002 15.5 8.56703 15.5 10.5C15.5 12.433 13.933 14 12 14C10.067 14 8.5 12.433 8.5 10.5Z" fill="#2688EB"/>
<path fill-rule="evenodd" clip-rule="evenodd" d="M8.22775 3.1C6.6581 3.1 5.90843 3.22666 5.14628 3.63427C4.49675 3.98164 3.98161 4.49678 3.63424 5.14631C3.22664 5.90846 3.09998 6.65812 3.09998 8.22777V15.7722C3.09998 17.3419 3.22664 18.0915 3.63424 18.8537C3.98161 19.5032 4.49675 20.0184 5.14628 20.3657C5.90843 20.7733 6.6581 20.9 8.22775 20.9H15.7722C17.3419 20.9 18.0915 20.7733 18.8537 20.3657C19.5032 20.0184 20.0183 19.5032 20.3657 18.8537C20.7733 18.0915 20.9 17.3419 20.9 15.7722V8.22777C20.9 6.65812 20.7733 5.90846 20.3657 5.14631C20.0183 4.49678 19.5032 3.98164 18.8537 3.63427C18.0915 3.22666 17.3419 3.1 15.7722 3.1H8.22775ZM8.22775 4.9C6.74108 4.9 6.35715 5.02794 5.99516 5.22153C5.65931 5.40114 5.40112 5.65934 5.2215 5.99519C5.02791 6.35717 4.89997 6.7411 4.89997 8.22777V15.7722C4.89997 17.2589 5.02791 17.6428 5.2215 18.0048C5.2908 18.1344 5.37178 18.2524 5.46441 18.3588C7.08942 16.6018 9.41588 15.5 12 15.5C14.5841 15.5 16.9105 16.6018 18.5355 18.3588C18.6282 18.2524 18.7092 18.1344 18.7784 18.0048C18.972 17.6428 19.1 17.2589 19.1 15.7722V8.22777C19.1 6.7411 18.972 6.35717 18.7784 5.99519C18.5988 5.65934 18.3406 5.40114 18.0048 5.22153C17.6428 5.02794 17.2589 4.9 15.7722 4.9H8.22775ZM12 7.00002C10.067 7.00002 8.5 8.56703 8.5 10.5C8.5 12.433 10.067 14 12 14C13.933 14 15.5 12.433 15.5 10.5C15.5 8.56703 13.933 7.00002 12 7.00002ZM10.3 10.5C10.3 9.56114 11.0611 8.80002 12 8.80002C12.9389 8.80002 13.7 9.56114 13.7 10.5C13.7 11.4389 12.9389 12.2 12 12.2C11.0611 12.2 10.3 11.4389 10.3 10.5ZM8.22775 19.1H15.7722C16.1445 19.1 16.4477 19.092 16.6987 19.0769C15.4462 17.9704 13.8013 17.3 12 17.3C10.1987 17.3 8.55372 17.9704 7.30126 19.0769C7.55224 19.092 7.85541 19.1 8.22775 19.1Z" fill="#2688EB"/>
</svg>
