<svg width="24" height="24" viewBox="0 0 24 24" fill="none" xmlns="http://www.w3.org/2000/svg">
<path d="M14.85 7.95C14.85 6.37518 13.5748 5.1 12 5.1C10.4252 5.1 9.14998 6.37518 9.14998 7.95C9.14998 9.52482 10.4252 10.8 12 10.8C13.5748 10.8 14.85 9.52482 14.85 7.95ZM16.65 7.95C16.65 10.5189 14.5689 12.6 12 12.6C9.43104 12.6 7.34998 10.5189 7.34998 7.95C7.34998 5.38107 9.43104 3.3 12 3.3C14.5689 3.3 16.65 5.38107 16.65 7.95ZM5.89998 18.4286C5.89998 19.1974 5.80921 19.1 6.23527 19.1H17.7647C18.1907 19.1 18.1 19.1974 18.1 18.4286C18.1 16.536 15.3218 15.4 12 15.4C8.67817 15.4 5.89998 16.536 5.89998 18.4286ZM4.09998 18.4286C4.09998 15.1018 7.77276 13.6 12 13.6C16.2272 13.6 19.9 15.1018 19.9 18.4286C19.9 20.1642 19.2144 20.9 17.7647 20.9H6.23527C4.78551 20.9 4.09998 20.1642 4.09998 18.4286Z" fill="#2688EB"/>
</svg>
