<svg width="24" height="24" viewBox="0 0 24 24" fill="none" xmlns="http://www.w3.org/2000/svg">
<path d="M14.0003 9.4C14.0003 10.5046 13.1049 11.4 12.0003 11.4C10.8958 11.4 10.0003 10.5046 10.0003 9.4C10.0003 8.29543 10.8958 7.4 12.0003 7.4C13.1049 7.4 14.0003 8.29543 14.0003 9.4Z" fill="#2688EB"/>
<path fill-rule="evenodd" clip-rule="evenodd" d="M7.56371 2.5H16.436C17.0353 2.49999 17.5389 2.49998 17.9509 2.53365C18.3818 2.56885 18.7913 2.64529 19.1799 2.84333C19.7726 3.14533 20.2545 3.62722 20.5565 4.21993C20.7546 4.6086 20.831 5.01807 20.8662 5.44892C20.8999 5.861 20.8999 6.36457 20.8999 6.96386V15.5672C20.8999 16.0666 20.8999 16.4863 20.8763 16.8314C20.8517 17.1916 20.7984 17.5359 20.6593 17.8711C20.3397 18.6415 19.7275 19.2536 18.9571 19.5733C18.622 19.7124 18.2776 19.7656 17.9175 19.7902C17.5723 19.8138 17.1526 19.8138 16.6532 19.8138H16.6231C16.0574 19.8138 15.8812 19.8169 15.7194 19.8453C15.4806 19.8871 15.2508 19.9699 15.0402 20.0901C14.8975 20.1716 14.7599 20.2816 14.3244 20.6426L13.829 21.0532C13.6204 21.226 13.4277 21.3858 13.2547 21.5086C13.0665 21.6423 12.8514 21.7698 12.5877 21.8447C12.2036 21.9538 11.7967 21.9538 11.4126 21.8447C11.1489 21.7698 10.9338 21.6424 10.7455 21.5087C10.5725 21.3859 10.3798 21.2262 10.1712 21.0534L9.67537 20.6424C9.23983 20.2815 9.10216 20.1715 8.95945 20.09C8.74895 19.9699 8.51923 19.8871 8.28047 19.8453C8.1186 19.8169 7.9424 19.8138 7.37675 19.8138H7.34664C6.84717 19.8138 6.42739 19.8138 6.08221 19.7902C5.72201 19.7656 5.37764 19.7123 5.04248 19.5732C4.27218 19.2536 3.6601 18.6415 3.34043 17.8712C3.20134 17.536 3.14805 17.1917 3.12343 16.8315C3.09984 16.4863 3.09985 16.0665 3.09985 15.567V6.96386C3.09984 6.36458 3.09983 5.861 3.1335 5.44892C3.1687 5.01807 3.24515 4.6086 3.44318 4.21993C3.74519 3.62722 4.22707 3.14533 4.81978 2.84333C5.20846 2.64529 5.61792 2.56885 6.04877 2.53365C6.46085 2.49998 6.96444 2.49999 7.56371 2.5ZM6.19535 4.32767C5.87581 4.35377 5.7296 4.39995 5.63697 4.44714C5.38295 4.57657 5.17643 4.7831 5.047 5.03711C4.9998 5.12974 4.95363 5.27596 4.92752 5.59549C4.90056 5.92554 4.89986 6.35509 4.89986 7V15.5369C4.89986 16.0743 4.90034 16.4322 4.91924 16.7087C4.93758 16.9771 4.97021 17.1023 5.00296 17.1813C5.11966 17.4625 5.32729 17.6945 5.59031 17.8417C6.60616 15.2987 9.09207 13.5 12.0002 13.5C14.9083 13.5 17.3941 15.2985 18.41 17.8414C18.6728 17.6941 18.8802 17.4622 18.9968 17.1812C19.0295 17.1023 19.0621 16.9771 19.0805 16.7087C19.0994 16.4323 19.0999 16.0744 19.0999 15.5371V7C19.0999 6.35509 19.0992 5.92554 19.0722 5.59549C19.0461 5.27596 18.9999 5.12974 18.9527 5.03711C18.8233 4.7831 18.6168 4.57657 18.3627 4.44714C18.2701 4.39995 18.1239 4.35377 17.8044 4.32767C17.4743 4.3007 17.0448 4.3 16.3999 4.3H7.59986C6.95495 4.3 6.52539 4.3007 6.19535 4.32767ZM16.509 18.0138C15.6524 16.3987 13.9537 15.3 12.0002 15.3C10.0467 15.3 8.34808 16.3987 7.49149 18.0138C7.93633 18.0137 8.26661 18.0155 8.59083 18.0722C9.03423 18.1498 9.46085 18.3036 9.85179 18.5268C10.1472 18.6954 10.4102 18.9134 10.7703 19.2121L11.2981 19.6495C11.5355 19.8462 11.6761 19.9619 11.7875 20.041C11.8634 20.0949 11.8968 20.1102 11.9047 20.1133C11.967 20.131 12.0331 20.131 12.0954 20.1133C12.1033 20.1102 12.1367 20.0949 12.2126 20.041C12.324 19.9619 12.4646 19.8461 12.7019 19.6494L13.2293 19.2123C13.5894 18.9137 13.8523 18.6956 14.1478 18.5269C14.5388 18.3037 14.9655 18.1499 15.409 18.0722C15.7334 18.0154 16.0638 18.0137 16.509 18.0138Z" fill="#2688EB"/>
</svg>
