<svg width="24" height="24" viewBox="0 0 24 24" fill="none" xmlns="http://www.w3.org/2000/svg">
<path d="M18.85 7.95C18.85 6.37518 17.5748 5.1 16 5.1C14.4252 5.1 13.15 6.37518 13.15 7.95C13.15 9.52482 14.4252 10.8 16 10.8C17.5748 10.8 18.85 9.52482 18.85 7.95ZM20.65 7.95C20.65 10.5189 18.5689 12.6 16 12.6C13.4311 12.6 11.35 10.5189 11.35 7.95C11.35 5.38107 13.4311 3.3 16 3.3C18.5689 3.3 20.65 5.38107 20.65 7.95ZM9.9 18.4286C9.9 19.1974 9.80923 19.1 10.2353 19.1H21.7647C22.1908 19.1 22.1 19.1974 22.1 18.4286C22.1 16.536 19.3218 15.4 16 15.4C12.6782 15.4 9.9 16.536 9.9 18.4286ZM16 13.6C20.2272 13.6 23.9 15.1018 23.9 18.4286C23.9 20.1642 23.2145 20.9 21.7647 20.9H10.2353C8.78554 20.9 8.1 20.1642 8.1 18.4286C8.1 15.1018 11.7728 13.6 16 13.6ZM5 6.5C5.49706 6.5 5.9 6.90294 5.9 7.4L5.899 10.1L8.6 10.1C9.09706 10.1 9.5 10.5029 9.5 11C9.5 11.4971 9.09706 11.9 8.6 11.9H5.899L5.9 14.6C5.9 15.0971 5.49706 15.5 5 15.5C4.50294 15.5 4.1 15.0971 4.1 14.6L4.099 11.9H1.4C0.902944 11.9 0.5 11.4971 0.5 11C0.5 10.5029 0.902944 10.1 1.4 10.1L4.099 10.1L4.1 7.4C4.1 6.90294 4.50294 6.5 5 6.5Z" fill="#2688EB"/>
</svg>
