<svg width="24" height="24" viewBox="0 0 24 24" fill="none" xmlns="http://www.w3.org/2000/svg">
<path fill-rule="evenodd" clip-rule="evenodd" d="M8.49993 8.09998C8.49993 6.16698 10.0669 4.59998 11.9999 4.59998C13.9329 4.59998 15.4999 6.16698 15.4999 8.09998C15.4999 10.033 13.9329 11.6 11.9999 11.6C10.0669 11.6 8.49993 10.033 8.49993 8.09998ZM11.9999 9.79998C11.061 9.79998 10.2999 9.03886 10.2999 8.09998C10.2999 7.16109 11.061 6.39998 11.9999 6.39998C12.9388 6.39998 13.6999 7.16109 13.6999 8.09998C13.6999 9.03886 12.9388 9.79998 11.9999 9.79998Z" fill="#2688EB"/>
<path fill-rule="evenodd" clip-rule="evenodd" d="M12.0003 13.1C10.4963 13.1 9.07476 13.4536 7.99823 14.115C6.92034 14.7773 6.10031 15.8173 6.10031 17.1547C6.10031 17.9642 6.37878 18.6871 6.95152 19.1975C7.50969 19.695 8.24537 19.9 9.00031 19.9H15.0003C15.7553 19.9 16.4909 19.695 17.0491 19.1975C17.6218 18.6871 17.9003 17.9642 17.9003 17.1547C17.9003 15.8173 17.0803 14.7773 16.0024 14.115C14.9259 13.4536 13.5043 13.1 12.0003 13.1ZM7.90031 17.1547C7.90031 16.6374 8.20567 16.1002 8.94048 15.6487C9.67664 15.1964 10.7551 14.9 12.0003 14.9C13.2455 14.9 14.324 15.1964 15.0601 15.6487C15.7949 16.1002 16.1003 16.6374 16.1003 17.1547C16.1003 17.5406 15.9788 17.7403 15.8515 17.8537C15.7097 17.9801 15.4454 18.1 15.0003 18.1H9.00031C8.55525 18.1 8.29093 17.9801 8.1491 17.8537C8.02184 17.7403 7.90031 17.5406 7.90031 17.1547Z" fill="#2688EB"/>
<path d="M5.90335 13.7C5.90335 13.2029 5.5004 12.8 5.00334 12.8C2.99659 12.8 1.05334 14.076 1.05334 16.1571C1.05334 17.4202 1.9235 18.9 3.66045 18.9C4.1575 18.9 4.56045 18.4971 4.56045 18C4.56045 17.5029 4.1575 17.1 3.66045 17.1C3.38851 17.1 3.21062 16.9958 3.08511 16.846C2.94526 16.6791 2.85334 16.4292 2.85334 16.1571C2.85334 15.4261 3.59263 14.6 5.00334 14.6C5.5004 14.6 5.90335 14.1971 5.90335 13.7Z" fill="#2688EB"/>
<path d="M6.31446 5.45905C6.80652 5.38875 7.2624 5.73065 7.3327 6.22271C7.403 6.71477 7.0611 7.17065 6.56904 7.24095C5.9611 7.32781 5.50017 7.84759 5.50017 8.46644C5.50017 9.14569 6.05517 9.70472 6.75017 9.70472C7.24723 9.70472 7.65017 10.1077 7.65017 10.6047C7.65017 11.1018 7.24723 11.5047 6.75017 11.5047C5.07035 11.5047 3.70017 10.1491 3.70017 8.46644C3.70017 6.93173 4.83981 5.66973 6.31446 5.45905Z" fill="#2688EB"/>
<path d="M18.0965 13.7C18.0965 13.2029 18.4995 12.8 18.9965 12.8C21.0033 12.8 22.9465 14.076 22.9465 16.1571C22.9465 17.4202 22.0764 18.9 20.3394 18.9C19.8424 18.9 19.4394 18.4971 19.4394 18C19.4394 17.5029 19.8424 17.1 20.3394 17.1C20.6113 17.1 20.7892 16.9958 20.9147 16.846C21.0546 16.6791 21.1465 16.4292 21.1465 16.1571C21.1465 15.4261 20.4072 14.6 18.9965 14.6C18.4995 14.6 18.0965 14.1971 18.0965 13.7Z" fill="#2688EB"/>
<path d="M17.6859 5.45905C17.1938 5.38875 16.7379 5.73065 16.6676 6.22271C16.5973 6.71477 16.9392 7.17065 17.4313 7.24095C18.0392 7.32781 18.5002 7.84759 18.5002 8.46644C18.5002 9.14569 17.9452 9.70472 17.2502 9.70472C16.7531 9.70472 16.3502 10.1077 16.3502 10.6047C16.3502 11.1018 16.7531 11.5047 17.2502 11.5047C18.93 11.5047 20.3002 10.1491 20.3002 8.46644C20.3002 6.93173 19.1605 5.66973 17.6859 5.45905Z" fill="#2688EB"/>
</svg>
