<svg width="24" height="24" viewBox="0 0 24 24" fill="none" xmlns="http://www.w3.org/2000/svg">
<path d="M9.89999 9.4C9.89999 8.90294 9.49705 8.5 8.99999 8.5C8.50293 8.5 8.09999 8.90294 8.09999 9.4V11.1H6.4C5.90294 11.1 5.5 11.5029 5.5 12C5.5 12.497 5.90294 12.9 6.4 12.9H8.09999V14.6C8.09999 15.097 8.50293 15.5 8.99999 15.5C9.49705 15.5 9.89999 15.097 9.89999 14.6V12.9H11.6C12.097 12.9 12.5 12.497 12.5 12C12.5 11.5029 12.097 11.1 11.6 11.1H9.89999V9.4Z" fill="#2688EB"/>
<path fill-rule="evenodd" clip-rule="evenodd" d="M1 10.9C1 8.65979 1 7.53969 1.43597 6.68404C1.81947 5.93139 2.43139 5.31947 3.18404 4.93597C4.03969 4.5 5.15979 4.5 7.4 4.5H10.6C12.8402 4.5 13.9603 4.5 14.816 4.93597C15.5686 5.31947 16.1805 5.93139 16.564 6.68404C16.7192 6.98864 16.8192 7.32676 16.8836 7.737L17.4609 7.32313C18.4086 6.64366 18.8826 6.30392 19.2456 6.17228C20.7758 5.61738 22.455 6.47971 22.8956 8.04665C23.0001 8.4184 23.0001 9.00149 23.0001 10.1677V14.1878C23.0001 15.2272 23.0001 15.7469 22.9065 16.0863C22.5125 17.5142 21.007 18.3249 19.598 17.868C19.2631 17.7593 18.8292 17.4733 17.9613 16.9012L16.8935 16.1972C16.8296 16.6374 16.7274 16.9952 16.564 17.316C16.1805 18.0686 15.5686 18.6805 14.816 19.064C13.9603 19.5 12.8402 19.5 10.6 19.5H7.4C5.15979 19.5 4.03969 19.5 3.18404 19.064C2.43139 18.6805 1.81947 18.0686 1.43597 17.316C1 16.4603 1 15.3402 1 13.1V10.9ZM7.4 6.3H10.6C11.7498 6.3 12.5039 6.3014 13.0806 6.34852C13.6363 6.39392 13.867 6.47264 13.9988 6.53979C14.4127 6.75071 14.7493 7.08726 14.9602 7.50122C15.0274 7.633 15.1061 7.86369 15.1515 8.41939C15.1986 8.99609 15.2 9.75019 15.2 10.9V13.1C15.2 14.2498 15.1986 15.0039 15.1515 15.5806C15.1061 16.1363 15.0274 16.367 14.9602 16.4988C14.7493 16.9127 14.4127 17.2493 13.9988 17.4602C13.867 17.5274 13.6363 17.6061 13.0806 17.6515C12.5039 17.6986 11.7498 17.7 10.6 17.7H7.4C6.25019 17.7 5.49609 17.6986 4.91939 17.6515C4.36369 17.6061 4.133 17.5274 4.00122 17.4602C3.58726 17.2493 3.25071 16.9127 3.03979 16.4988C2.97264 16.367 2.89392 16.1363 2.84852 15.5806C2.8014 15.0039 2.8 14.2498 2.8 13.1V10.9C2.8 9.75019 2.8014 8.99609 2.84852 8.41939C2.89392 7.86369 2.97264 7.633 3.03979 7.50122C3.25071 7.08726 3.58726 6.75071 4.00122 6.53979C4.133 6.47264 4.36369 6.39392 4.91939 6.34852C5.49609 6.3014 6.25019 6.3 7.4 6.3ZM17.553 9.47183L18.5096 8.78604C18.9955 8.43772 19.3176 8.20719 19.564 8.04459C19.5869 8.02947 19.8592 7.86445 19.8592 7.86445C20.4039 7.66693 21.0015 7.97223 21.1612 8.52836C21.1612 8.52836 21.1781 8.61196 21.1884 8.87877C21.1998 9.17374 21.2001 9.56985 21.2001 10.1677V14.1878C21.2001 14.7222 21.1998 15.0707 21.1898 15.3299C21.186 15.4259 21.1818 15.5226 21.1684 15.6179C21.0438 16.0474 20.5907 16.2914 20.1636 16.159C20.0766 16.1177 19.9935 16.0681 19.9113 16.0183C19.6894 15.8841 19.3982 15.6925 18.952 15.3984L17.5957 14.5043C17.5755 14.4909 17.2457 14.2671 17.2457 14.2671C17.1126 14.1536 17.0269 13.9944 17.0053 13.8208C17.0053 13.8208 17 13.4222 17 13.398V10.5487C17 10.5266 17.0049 10.1449 17.0049 10.1449C17.0248 9.97827 17.1038 9.82431 17.2277 9.71108C17.2277 9.71108 17.535 9.48471 17.553 9.47183Z" fill="#2688EB"/>
</svg>
