<svg width="24" height="24" viewBox="0 0 24 24" fill="none" xmlns="http://www.w3.org/2000/svg">
<path fill-rule="evenodd" clip-rule="evenodd" d="M12.0001 15.6373L15.3001 13.732C16.6334 12.9622 16.6334 11.0377 15.3001 10.2679L12.0001 8.36267C10.6667 7.59287 9.00006 8.55512 9.00006 10.0947L9.00006 13.9053C9.00006 15.4449 10.6667 16.4071 12.0001 15.6373ZM14.4001 11.8268C14.5334 11.9038 14.5334 12.0962 14.4001 12.1732L11.1001 14.0785C10.9667 14.1555 10.8001 14.0592 10.8001 13.9053V10.0947C10.8001 9.94076 10.9667 9.84453 11.1001 9.92152L14.4001 11.8268Z" fill="#2688EB"/>
<path fill-rule="evenodd" clip-rule="evenodd" d="M4.99974 4.99962C6.7903 3.20906 9.26654 2.09998 12.0001 2.09998C14.7337 2.09998 17.2099 3.20906 19.0005 4.99962C20.791 6.79018 21.9001 9.26641 21.9001 12C21.9001 14.7335 20.791 17.2098 19.0005 19.0003C17.2099 20.7909 14.7337 21.9 12.0001 21.9C9.26654 21.9 6.7903 20.7909 4.99974 19.0003C3.20918 17.2098 2.1001 14.7335 2.1001 12C2.1001 9.26641 3.20918 6.79018 4.99974 4.99962ZM12.0001 3.89998C9.76309 3.89998 7.73933 4.80561 6.27253 6.27241C4.80574 7.73921 3.9001 9.76297 3.9001 12C3.9001 14.237 4.80574 16.2607 6.27253 17.7275C7.73933 19.1943 9.7631 20.1 12.0001 20.1C14.2371 20.1 16.2609 19.1943 17.7277 17.7275C19.1945 16.2607 20.1001 14.237 20.1001 12C20.1001 9.76297 19.1945 7.73921 17.7277 6.27241C16.2609 4.80561 14.2371 3.89998 12.0001 3.89998Z" fill="#2688EB"/>
</svg>
