<svg width="24" height="24" viewBox="0 0 24 24" fill="none" xmlns="http://www.w3.org/2000/svg">
<path d="M7.24997 15.75H8.24997C8.66418 15.75 8.99997 16.0858 8.99997 16.5V17.5C8.99997 17.9142 8.66418 18.25 8.24997 18.25H7.24997C6.83576 18.25 6.49997 17.9142 6.49997 17.5V16.5C6.49997 16.0858 6.83576 15.75 7.24997 15.75Z" fill="#2688EB"/>
<path d="M15.75 15.75H16.75C17.1642 15.75 17.5 16.0858 17.5 16.5V17.5C17.5 17.9142 17.1642 18.25 16.75 18.25H15.75C15.3358 18.25 15 17.9142 15 17.5V16.5C15 16.0858 15.3358 15.75 15.75 15.75Z" fill="#2688EB"/>
<path d="M7.24997 10.75H8.24997C8.66418 10.75 8.99997 11.0858 8.99997 11.5V12.5C8.99997 12.9142 8.66418 13.25 8.24997 13.25H7.24997C6.83576 13.25 6.49997 12.9142 6.49997 12.5V11.5C6.49997 11.0858 6.83576 10.75 7.24997 10.75Z" fill="#2688EB"/>
<path d="M15.75 10.75H16.75C17.1642 10.75 17.5 11.0858 17.5 11.5V12.5C17.5 12.9142 17.1642 13.25 16.75 13.25H15.75C15.3358 13.25 15 12.9142 15 12.5V11.5C15 11.0858 15.3358 10.75 15.75 10.75Z" fill="#2688EB"/>
<path d="M7.24997 5.75H8.24997C8.66418 5.75 8.99997 6.08579 8.99997 6.5V7.5C8.99997 7.91421 8.66418 8.25 8.24997 8.25H7.24997C6.83576 8.25 6.49997 7.91421 6.49997 7.5V6.5C6.49997 6.08579 6.83576 5.75 7.24997 5.75Z" fill="#2688EB"/>
<path d="M15.75 5.75H16.75C17.1642 5.75 17.5 6.08579 17.5 6.5V7.5C17.5 7.91421 17.1642 8.25 16.75 8.25H15.75C15.3358 8.25 15 7.91421 15 7.5V6.5C15 6.08579 15.3358 5.75 15.75 5.75Z" fill="#2688EB"/>
<path fill-rule="evenodd" clip-rule="evenodd" d="M9.46128 2.09998H14.5387C15.5559 2.09997 16.3742 2.09996 17.0363 2.15406C17.7172 2.20969 18.3119 2.32701 18.861 2.6068C19.736 3.05261 20.4473 3.76397 20.8932 4.63892C21.1729 5.18803 21.2903 5.78272 21.3459 6.46369C21.4 7.12579 21.4 7.944 21.4 8.96128V15.0387C21.4 16.0559 21.4 16.8742 21.3459 17.5363C21.2903 18.2172 21.1729 18.8119 20.8932 19.361C20.4473 20.236 19.736 20.9473 18.861 21.3932C18.3119 21.6729 17.7172 21.7903 17.0363 21.8459C16.3742 21.9 15.5559 21.9 14.5387 21.9H9.46128C8.444 21.9 7.62579 21.9 6.96369 21.8459C6.28272 21.7903 5.68803 21.6729 5.13892 21.3932C4.26397 20.9473 3.55261 20.236 3.1068 19.361C2.82701 18.8119 2.70969 18.2172 2.65406 17.5363C2.59996 16.8742 2.59997 16.0559 2.59998 15.0387V8.96127C2.59997 7.944 2.59996 7.12579 2.65406 6.46369C2.70969 5.78272 2.82701 5.18803 3.1068 4.63892C3.55261 3.76397 4.26397 3.05261 5.13892 2.6068C5.68803 2.32701 6.28272 2.20969 6.96369 2.15406C7.62579 2.09996 8.44401 2.09997 9.46128 2.09998ZM7.11027 3.94808C6.54061 3.99462 6.20917 4.08167 5.9561 4.21061C5.41984 4.48385 4.98385 4.91984 4.71061 5.4561C4.58167 5.70917 4.49462 6.04061 4.44808 6.61027C4.40068 7.19044 4.39998 7.93503 4.39998 8.99998V15C4.39998 16.0649 4.40068 16.8095 4.44808 17.3897C4.49462 17.9593 4.58167 18.2908 4.71061 18.5438C4.98385 19.0801 5.41984 19.5161 5.9561 19.7893C6.20917 19.9183 6.54061 20.0053 7.11027 20.0519C7.69044 20.0993 8.43503 20.1 9.49998 20.1H14.5C15.5649 20.1 16.3095 20.0993 16.8897 20.0519C17.4593 20.0053 17.7908 19.9183 18.0438 19.7893C18.5801 19.5161 19.0161 19.0801 19.2893 18.5438C19.4183 18.2908 19.5053 17.9593 19.5519 17.3897C19.5993 16.8095 19.6 16.0649 19.6 15V8.99998C19.6 7.93503 19.5993 7.19044 19.5519 6.61027C19.5053 6.04061 19.4183 5.70917 19.2893 5.4561C19.0161 4.91984 18.5801 4.48385 18.0438 4.21061C17.7908 4.08167 17.4593 3.99462 16.8897 3.94808C16.3095 3.90068 15.5649 3.89998 14.5 3.89998H9.49998C8.43503 3.89998 7.69044 3.90068 7.11027 3.94808Z" fill="#2688EB"/>
</svg>
