<svg width="24" height="24" viewBox="0 0 24 24" fill="none" xmlns="http://www.w3.org/2000/svg">
<path d="M12 4.60001C17.1997 4.60001 22.4 8.83727 22.4 12C22.4 15.1627 17.1997 19.4 12 19.4C6.80026 19.4 1.59998 15.1627 1.59998 12C1.59998 8.83727 6.80026 4.60001 12 4.60001ZM12 6.40001C7.72242 6.40001 3.39998 9.922 3.39998 12C3.39998 14.078 7.72242 17.6 12 17.6C16.2775 17.6 20.6 14.078 20.6 12C20.6 9.922 16.2775 6.40001 12 6.40001ZM12 8.60001C13.8777 8.60001 15.4 10.1222 15.4 12C15.4 13.8778 13.8777 15.4 12 15.4C10.1222 15.4 8.59998 13.8778 8.59998 12C8.59998 10.1222 10.1222 8.60001 12 8.60001ZM12 10.4C11.1163 10.4 10.4 11.1164 10.4 12C10.4 12.8837 11.1163 13.6 12 13.6C12.8836 13.6 13.6 12.8837 13.6 12C13.6 11.1164 12.8836 10.4 12 10.4Z" fill="#2688EB"/>
</svg>
