<svg width="24" height="24" viewBox="0 0 24 24" fill="none" xmlns="http://www.w3.org/2000/svg">
<path fill-rule="evenodd" clip-rule="evenodd" d="M12 15C13.6568 15 15 13.6568 15 12C15 10.3431 13.6568 8.99998 12 8.99998C10.3431 8.99998 8.99998 10.3431 8.99998 12C8.99998 13.6568 10.3431 15 12 15ZM12 13.2C12.6627 13.2 13.2 12.6627 13.2 12C13.2 11.3372 12.6627 10.8 12 10.8C11.3372 10.8 10.8 11.3372 10.8 12C10.8 12.6627 11.3372 13.2 12 13.2Z" fill="#2688EB"/>
<path d="M7.39998 12C7.39998 9.45947 9.45947 7.39998 12 7.39998C12.497 7.39998 12.9 6.99703 12.9 6.49998C12.9 6.00292 12.497 5.59998 12 5.59998C8.46535 5.59998 5.59998 8.46535 5.59998 12C5.59998 12.497 6.00292 12.9 6.49998 12.9C6.99703 12.9 7.39998 12.497 7.39998 12Z" fill="#2688EB"/>
<path d="M18.4 12C18.4 11.5029 17.997 11.1 17.5 11.1C17.0029 11.1 16.6 11.5029 16.6 12C16.6 14.5405 14.5405 16.6 12 16.6C11.5029 16.6 11.1 17.0029 11.1 17.5C11.1 17.997 11.5029 18.4 12 18.4C15.5346 18.4 18.4 15.5346 18.4 12Z" fill="#2688EB"/>
<path fill-rule="evenodd" clip-rule="evenodd" d="M4.99962 4.99962C6.79018 3.20906 9.26641 2.09998 12 2.09998C14.7335 2.09998 17.2098 3.20906 19.0003 4.99962C20.7909 6.79018 21.9 9.26641 21.9 12C21.9 14.7335 20.7909 17.2098 19.0003 19.0003C17.2098 20.7909 14.7335 21.9 12 21.9C9.26641 21.9 6.79018 20.7909 4.99962 19.0003C3.20906 17.2098 2.09998 14.7335 2.09998 12C2.09998 9.26641 3.20906 6.79018 4.99962 4.99962ZM12 3.89998C9.76297 3.89998 7.73921 4.80561 6.27241 6.27241C4.80561 7.73921 3.89998 9.76297 3.89998 12C3.89998 14.237 4.80561 16.2607 6.27241 17.7275C7.73921 19.1943 9.76297 20.1 12 20.1C14.237 20.1 16.2607 19.1943 17.7275 17.7275C19.1943 16.2607 20.1 14.237 20.1 12C20.1 9.76297 19.1943 7.73921 17.7275 6.27241C16.2607 4.80561 14.237 3.89998 12 3.89998Z" fill="#2688EB"/>
</svg>
