<svg width="24" height="24" viewBox="0 0 24 24" fill="none" xmlns="http://www.w3.org/2000/svg">
<path d="M14.4559 10.3025C15.3283 9.85784 16.3342 9.85784 17.2204 10.6106C17.567 10.9051 17.5951 11.409 17.2831 11.7362C16.9711 12.0633 16.4372 12.0899 16.0906 11.7954L16.0057 11.7296C15.7543 11.5535 15.5287 11.5672 15.2583 11.705C15.1766 11.7467 15.1216 11.7849 15.1093 11.7954L15.0261 11.8577C14.6818 12.084 14.2047 12.0382 13.9167 11.7362C13.6047 11.409 13.6328 10.9051 13.9794 10.6106C14.0844 10.5214 14.2444 10.4103 14.4559 10.3025Z" fill="#3F8AE0"/>
<path d="M8.49995 9.54877C9.32838 9.54877 9.99995 10.2203 9.99995 11.0488C9.99995 11.8772 9.32838 12.5488 8.49995 12.5488C7.67152 12.5488 6.99995 11.8772 6.99995 11.0488C6.99995 10.2203 7.67152 9.54877 8.49995 9.54877Z" fill="#3F8AE0"/>
<path d="M13.45 14C14.0023 14 14.4563 14.4515 14.3558 14.9946C14.3302 15.133 14.2994 15.2557 14.2635 15.342C14.1404 15.6384 13.9599 15.9077 13.7324 16.1345C13.5049 16.3613 13.2348 16.5413 12.9376 16.664C12.6403 16.7868 12.3217 16.8516 12 16.8516C11.6782 16.8516 11.3597 16.7868 11.0624 16.664C10.7652 16.5413 10.4951 16.3613 10.2676 16.1345C10.0401 15.9077 9.85962 15.6384 9.7365 15.342C9.70064 15.2557 9.66985 15.133 9.64421 14.9946C9.54366 14.4515 9.99772 14 10.55 14H13.45Z" fill="#3F8AE0"/>
<path d="M9.09761 3.8C9.59466 3.8 9.99761 3.39706 9.99761 2.9C9.99761 2.40294 9.59466 2 9.09761 2L9.09761 3.8Z" fill="#3F8AE0"/>
<path d="M2 9.09877C2 9.59582 2.40294 9.99877 2.9 9.99877C3.39706 9.99877 3.8 9.59582 3.8 9.09877H2Z" fill="#3F8AE0"/>
<path fill-rule="evenodd" clip-rule="evenodd" d="M2.00005 9.10711C2.00005 5.18908 5.17595 2 9.09761 2L9.09761 3.8C6.17369 3.8 3.80005 6.17956 3.80005 9.10711H2.00005Z" fill="#3F8AE0"/>
<path d="M9.09761 20.2C9.59466 20.2 9.99761 20.6029 9.99761 21.1C9.99761 21.5971 9.59466 22 9.09761 22L9.09761 20.2Z" fill="#3F8AE0"/>
<path d="M2 14.9012C2 14.4042 2.40294 14.0012 2.9 14.0012C3.39706 14.0012 3.8 14.4042 3.8 14.9012H2Z" fill="#3F8AE0"/>
<path fill-rule="evenodd" clip-rule="evenodd" d="M2.00005 14.8929C2.00005 18.8109 5.17595 22 9.09761 22L9.09761 20.2C6.17369 20.2 3.80005 17.8204 3.80005 14.8929H2.00005Z" fill="#3F8AE0"/>
<path d="M14.9023 3.8C14.4052 3.8 14.0023 3.39706 14.0023 2.9C14.0023 2.40294 14.4052 2 14.9023 2V3.8Z" fill="#3F8AE0"/>
<path d="M21.9999 9.09877C21.9999 9.59582 21.597 9.99877 21.0999 9.99877C20.6028 9.99877 20.1999 9.59582 20.1999 9.09877H21.9999Z" fill="#3F8AE0"/>
<path fill-rule="evenodd" clip-rule="evenodd" d="M21.9999 9.10711C21.9999 5.18908 18.824 2 14.9023 2V3.8C17.8262 3.8 20.1999 6.17956 20.1999 9.10711H21.9999Z" fill="#3F8AE0"/>
<path d="M14.9023 20.2C14.4052 20.2 14.0023 20.6029 14.0023 21.1C14.0023 21.5971 14.4052 22 14.9023 22V20.2Z" fill="#3F8AE0"/>
<path d="M21.9999 14.9012C21.9999 14.4042 21.597 14.0012 21.0999 14.0012C20.6028 14.0012 20.1999 14.4042 20.1999 14.9012H21.9999Z" fill="#3F8AE0"/>
<path fill-rule="evenodd" clip-rule="evenodd" d="M21.9999 14.8929C21.9999 18.8109 18.824 22 14.9023 22V20.2C17.8262 20.2 20.1999 17.8204 20.1999 14.8929H21.9999Z" fill="#3F8AE0"/>
</svg>
