<svg width="24" height="24" viewBox="0 0 24 24" fill="none" xmlns="http://www.w3.org/2000/svg">
<path fill-rule="evenodd" clip-rule="evenodd" d="M7.1 6.90002C7.1 4.19382 9.29381 2.00002 12 2.00002C14.7062 2.00002 16.9 4.19383 16.9 6.90002V11.1C16.9 13.8062 14.7062 16 12 16C9.29381 16 7.1 13.8062 7.1 11.1V6.90002ZM12 3.80002C10.2879 3.80002 8.9 5.18794 8.9 6.90002V11.1C8.9 12.8121 10.2879 14.2 12 14.2C13.7121 14.2 15.1 12.8121 15.1 11.1V6.90002C15.1 5.18794 13.7121 3.80002 12 3.80002Z" fill="#2688EB"/>
<path d="M19.6795 15.3499C19.9279 14.9193 19.7803 14.3689 19.3498 14.1205C18.9193 13.8721 18.3689 14.0197 18.1205 14.4502C16.8935 16.5765 14.6101 18 12 18C9.38985 18 7.10648 16.5765 5.8795 14.4502C5.63107 14.0197 5.08067 13.8721 4.65015 14.1205C4.21963 14.3689 4.07202 14.9193 4.32046 15.3499C5.71189 17.7611 8.19838 19.4608 11.1 19.7547V22.1C11.1 22.5971 11.5029 23 12 23C12.497 23 12.9 22.5971 12.9 22.1V19.7547C15.8016 19.4607 18.2881 17.7611 19.6795 15.3499Z" fill="#2688EB"/>
</svg>
