<svg width="24" height="24" viewBox="0 0 24 24" fill="none" xmlns="http://www.w3.org/2000/svg">
<path fill-rule="evenodd" clip-rule="evenodd" d="M4.99962 4.99962C6.79018 3.20906 9.26642 2.09998 12 2.09998C14.7335 2.09998 17.2098 3.20906 19.0003 4.99962C20.7909 6.79018 21.9 9.26641 21.9 12C21.9 14.7335 20.7909 17.2098 19.0003 19.0003C17.2098 20.7909 14.7335 21.9 12 21.9C10.8976 21.9 9.837 21.7196 8.84639 21.3869C8.74687 21.3696 8.65081 21.3357 8.56248 21.2867C7.21102 20.7862 5.9986 19.9993 4.99962 19.0003C3.20906 17.2098 2.09998 14.7335 2.09998 12C2.09998 9.26642 3.20906 6.79018 4.99962 4.99962ZM11.5526 20.0878C13.574 18.7573 15.5051 16.9258 17.0427 14.5781C17.7484 14.9679 18.4108 15.4221 19.0793 15.9396C18.7124 16.5972 18.2565 17.1986 17.7275 17.7275C16.2607 19.1943 14.237 20.1 12 20.1C11.8499 20.1 11.7007 20.0959 11.5526 20.0878ZM8.96643 19.513C11.2812 18.3357 13.6054 16.4467 15.3858 13.8188C14.4385 13.469 13.3786 13.2113 12.1231 13.0474C10.2376 15.4186 8.37972 16.6861 6.19591 17.65C6.22124 17.676 6.24674 17.7019 6.27241 17.7275C7.03573 18.4909 7.94988 19.1022 8.96643 19.513ZM11.8085 8.41282C11.9781 9.31523 12.2602 10.2631 12.6862 11.3083C15.7653 11.7593 17.823 12.7639 19.7917 14.2215C19.9925 13.5157 20.1 12.7705 20.1 12C20.1 11.7333 20.0871 11.4696 20.0619 11.2096C20.0199 11.1895 19.9788 11.1659 19.9392 11.1387C17.6352 9.5573 15.2451 8.57619 11.8085 8.41282ZM11.6083 6.60309C11.5775 5.71146 11.6435 4.83041 11.7719 3.90312C11.8477 3.90103 11.9237 3.89998 12 3.89998C14.237 3.89998 16.2607 4.80561 17.7275 6.27241C18.4178 6.96263 18.9837 7.77619 19.3895 8.67725C17.2026 7.45672 14.7835 6.71395 11.6083 6.60309ZM9.92389 4.16831C9.64434 6.58024 9.79066 8.84196 10.9004 11.6892C10.1798 12.625 9.4733 13.3719 8.74793 13.9898C7.16828 10.9998 6.98033 8.2922 7.1703 5.4966C7.98431 4.89095 8.91552 4.43481 9.92389 4.16831ZM7.20675 14.9253C7.23136 14.9712 7.25938 15.0141 7.29034 15.0538C6.58914 15.4893 5.854 15.8489 5.05955 16.1788C4.32318 14.9587 3.89998 13.5292 3.89998 12C3.89998 10.3039 4.42056 8.73047 5.31161 7.42939C5.34248 9.80384 5.78209 12.2682 7.20675 14.9253Z" fill="#2688EB"/>
</svg>
