<svg width="24" height="24" viewBox="0 0 24 24" fill="none" xmlns="http://www.w3.org/2000/svg">
<path d="M14.25 4C15.1521 4 16 4.69408 16 5.68889V18.3111C16 19.3059 15.1521 20 14.25 20C13.4878 20 12.7446 19.7196 12.1867 19.2018L7.94671 15.2667H6.13958C5.02234 15.2667 4 14.4107 4 13.2162V10.7838C4 9.5893 5.02234 8.73333 6.13958 8.73333H7.94671L12.1867 4.79816C12.7446 4.28038 13.4878 4 14.25 4ZM14.2 5.80095C13.8931 5.8126 13.6121 5.93102 13.4112 6.1175L8.91224 10.293C8.74579 10.4475 8.52709 10.5333 8.3 10.5333H6.13958C6.00011 10.5333 5.8 10.6184 5.8 10.7838V13.2162C5.8 13.3816 6.00011 13.4667 6.13958 13.4667H8.3C8.52709 13.4667 8.74579 13.5525 8.91224 13.707L13.4112 17.8825C13.6121 18.069 13.8931 18.1874 14.2 18.1991V5.80095ZM21.538 6.26518C23.0573 7.79206 24 9.79169 24 12C24 14.2083 23.0573 16.2079 21.538 17.7348C21.1874 18.0872 20.6175 18.0886 20.2652 17.738C19.9128 17.3874 19.9114 16.8175 20.262 16.4652C21.4891 15.232 22.2 13.6743 22.2 12C22.2 10.3257 21.4891 8.76802 20.262 7.53482C19.9114 7.18248 19.9128 6.61263 20.2652 6.26203C20.6175 5.91143 21.1874 5.91284 21.538 6.26518ZM18.9868 9.31832C19.6128 10.0575 20 10.9829 20 12C20 13.0171 19.6128 13.9425 18.9868 14.6817C18.6655 15.061 18.0976 15.108 17.7183 14.7868C17.339 14.4655 17.292 13.8976 17.6132 13.5183C17.9957 13.0667 18.2 12.5443 18.2 12C18.2 11.4557 17.9957 10.9333 17.6132 10.4817C17.292 10.1024 17.339 9.53449 17.7183 9.21323C18.0976 8.89198 18.6655 8.93903 18.9868 9.31832Z" fill="#2688EB"/>
</svg>
