<svg width="24" height="24" viewBox="0 0 24 24" fill="none" xmlns="http://www.w3.org/2000/svg">
<path fill-rule="evenodd" clip-rule="evenodd" d="M7.76228 3.09998H7.79998H15.5C17.3777 3.09998 18.9 4.62221 18.9 6.49998V7.23155C19.2046 7.29223 19.4934 7.38383 19.7705 7.52505C20.5044 7.89896 21.101 8.49558 21.4749 9.22941C21.7138 9.6983 21.8107 10.2004 21.8561 10.7563C21.9 11.2934 21.9 11.9542 21.9 12.7623V12.8V14.2V14.2377C21.9 15.0457 21.9 15.7066 21.8561 16.2437C21.8107 16.7996 21.7138 17.3017 21.4749 17.7705C21.101 18.5044 20.5044 19.101 19.7705 19.4749C19.3017 19.7138 18.7996 19.8107 18.2437 19.8561C17.7066 19.9 17.0457 19.9 16.2377 19.9H16.2H10.5018C10.5012 19.9 10.5006 19.9 10.5 19.9H7.79998H7.76227C7.76224 19.9 7.76221 19.9 7.76218 19.9C6.95417 19.9 6.29335 19.9 5.75629 19.8561C5.72155 19.8533 5.68701 19.8502 5.65269 19.847C5.13775 19.798 4.669 19.6989 4.22941 19.4749C4.18355 19.4515 4.13822 19.4273 4.09345 19.4022C3.42187 19.0259 2.87559 18.4585 2.52505 17.7705C2.28614 17.3017 2.18926 16.7996 2.14384 16.2437C2.09996 15.7066 2.09997 15.0457 2.09998 14.2377V14.2377V14.2V8.99998V8.79998V8.76228V8.76226C2.09997 7.95421 2.09996 7.29337 2.14384 6.75629C2.18926 6.20038 2.28614 5.6983 2.52505 5.22941C2.89896 4.49558 3.49558 3.89896 4.22941 3.52505C4.6983 3.28614 5.20038 3.18926 5.75629 3.14384C6.29337 3.09996 6.95421 3.09997 7.76226 3.09998H7.76228ZM3.89998 8.99998V14.2C3.89998 15.0549 3.90068 15.642 3.93786 16.0971C3.97419 16.5417 4.04079 16.7805 4.12886 16.9534C4.3302 17.3485 4.65146 17.6698 5.0466 17.8711C5.21944 17.9592 5.45827 18.0258 5.90287 18.0621C6.35798 18.0993 6.94505 18.1 7.79998 18.1H10.5H16.2C17.0549 18.1 17.642 18.0993 18.0971 18.0621C18.5417 18.0258 18.7805 17.9592 18.9534 17.8711C19.3485 17.6698 19.6698 17.3485 19.8711 16.9534C19.9592 16.7805 20.0258 16.5417 20.0621 16.0971C20.0993 15.642 20.1 15.0549 20.1 14.2V12.8C20.1 11.945 20.0993 11.358 20.0621 10.9029C20.0258 10.4583 19.9592 10.2194 19.8711 10.0466C19.6698 9.65146 19.3485 9.3302 18.9534 9.12886C18.7805 9.04079 18.5417 8.97419 18.0971 8.93786C17.642 8.90068 17.0549 8.89998 16.2 8.89998H3.89998V8.99998ZM3.92441 7.09998H16.2L16.2377 7.09998H16.2377C16.5461 7.09997 16.8331 7.09997 17.1 7.10241V6.49998C17.1 5.61632 16.3836 4.89998 15.5 4.89998H7.79998C6.94505 4.89998 6.35798 4.90068 5.90287 4.93786C5.45827 4.97419 5.21944 5.04079 5.0466 5.12886C4.65146 5.3302 4.3302 5.65146 4.12886 6.0466C4.04079 6.21944 3.97419 6.45827 3.93786 6.90287C3.93271 6.96592 3.92826 7.0315 3.92441 7.09998ZM15.1 14C15.1 13.5029 15.5029 13.1 16 13.1H17.2C17.697 13.1 18.1 13.5029 18.1 14C18.1 14.497 17.697 14.9 17.2 14.9H16C15.5029 14.9 15.1 14.497 15.1 14Z" fill="#2688EB"/>
</svg>
