<svg width="24" height="24" viewBox="0 0 24 24" fill="none" xmlns="http://www.w3.org/2000/svg">
<path fill-rule="evenodd" clip-rule="evenodd" d="M9.48854 4.55004C10.6047 2.6167 13.3953 2.6167 14.5115 4.55004L21.4397 16.55C22.5559 18.4834 21.1606 20.9 18.9282 20.9H5.07181C2.83939 20.9 1.44412 18.4834 2.56033 16.55L9.48854 4.55004ZM12.9526 5.45004C12.5292 4.7167 11.4708 4.7167 11.0474 5.45004L4.11918 17.45C3.69579 18.1834 4.22503 19.1 5.07181 19.1H18.9282C19.775 19.1 20.3042 18.1834 19.8808 17.45L12.9526 5.45004Z" fill="#2688EB"/>
<path fill-rule="evenodd" clip-rule="evenodd" d="M12 8.00007C12.4971 8.00007 12.9 8.37423 12.9 8.83578L12.9 13.6644C12.9 14.1259 12.497 14.5001 12 14.5001C11.5029 14.5001 11.1 14.1259 11.1 13.6644L11.1 8.83578C11.1 8.37423 11.503 8.00007 12 8.00007Z" fill="#2688EB"/>
<path d="M13 16.5001C13 17.0524 12.5523 17.5001 12 17.5001C11.4477 17.5001 11 17.0524 11 16.5001C11 15.9478 11.4477 15.5001 12 15.5001C12.5523 15.5001 13 15.9478 13 16.5001Z" fill="#2688EB"/>
</svg>
