<svg width="24" height="24" viewBox="0 0 24 24" fill="none" xmlns="http://www.w3.org/2000/svg">
<path fill-rule="evenodd" clip-rule="evenodd" d="M9.76234 2.09998H9.80004H14.2H14.2377C15.0458 2.09997 15.7066 2.09996 16.2437 2.14384C16.7996 2.18926 17.3017 2.28614 17.7706 2.52505C18.5044 2.89896 19.1011 3.49558 19.475 4.22941C19.7139 4.6983 19.8108 5.20038 19.8562 5.75629C19.9001 6.29337 19.9 6.95422 19.9 7.76227V7.79998V16.2V16.2377C19.9 17.0457 19.9001 17.7066 19.8562 18.2437C19.8108 18.7996 19.7139 19.3017 19.475 19.7705C19.1011 20.5044 18.5044 21.101 17.7706 21.4749C17.3017 21.7138 16.7996 21.8107 16.2437 21.8561C15.7066 21.9 15.0458 21.9 14.2377 21.9H14.2H9.80004H9.76233C8.95428 21.9 8.29343 21.9 7.75636 21.8561C7.20044 21.8107 6.69836 21.7138 6.22947 21.4749C5.49564 21.101 4.89902 20.5044 4.52511 19.7705C4.2862 19.3017 4.18932 18.7996 4.1439 18.2437C4.10002 17.7066 4.10003 17.0457 4.10004 16.2377V16.2V7.79998V7.76227C4.10003 6.95424 4.10002 6.29336 4.1439 5.75629C4.18932 5.20038 4.2862 4.6983 4.52511 4.22941C4.89902 3.49558 5.49564 2.89896 6.22947 2.52505C6.69836 2.28614 7.20044 2.18926 7.75635 2.14384C8.29343 2.09996 8.95429 2.09997 9.76234 2.09998ZM7.90293 3.93786C7.45833 3.97419 7.2195 4.04079 7.04666 4.12886C6.65152 4.3302 6.33026 4.65146 6.12892 5.0466C6.04085 5.21944 5.97425 5.45827 5.93792 5.90287C5.90074 6.35798 5.90004 6.94505 5.90004 7.79998V8.09998H18.1V7.79998C18.1 6.94505 18.0993 6.35798 18.0622 5.90287C18.0258 5.45827 17.9592 5.21944 17.8712 5.0466C17.6698 4.65146 17.3486 4.3302 16.9534 4.12886C16.7806 4.04079 16.5417 3.97419 16.0971 3.93786C15.642 3.90068 15.055 3.89998 14.2 3.89998H9.80004C8.94511 3.89998 8.35804 3.90068 7.90293 3.93786ZM5.90004 16.2V9.89998H18.1V16.2C18.1 17.0549 18.0993 17.642 18.0622 18.0971C18.0258 18.5417 17.9592 18.7805 17.8712 18.9534C17.6698 19.3485 17.3486 19.6698 16.9534 19.8711C16.7806 19.9592 16.5417 20.0258 16.0971 20.0621C15.642 20.0993 15.055 20.1 14.2 20.1H9.80004C8.94511 20.1 8.35804 20.0993 7.90293 20.0621C7.45833 20.0258 7.2195 19.9592 7.04666 19.8711C6.65152 19.6698 6.33026 19.3485 6.12892 18.9534C6.04085 18.7805 5.97425 18.5417 5.93792 18.0971C5.90074 17.642 5.90004 17.0549 5.90004 16.2ZM10.4 15C10.4 14.1163 11.1164 13.4 12 13.4C12.8837 13.4 13.6 14.1163 13.6 15C13.6 15.8836 12.8837 16.6 12 16.6C11.1164 16.6 10.4 15.8836 10.4 15ZM12 11.6C10.1223 11.6 8.60004 13.1222 8.60004 15C8.60004 16.8777 10.1223 18.4 12 18.4C13.8778 18.4 15.4 16.8777 15.4 15C15.4 13.1222 13.8778 11.6 12 11.6ZM13 5.99998C13 5.50292 13.403 5.09998 13.9 5.09998H15.4C15.8971 5.09998 16.3 5.50292 16.3 5.99998C16.3 6.49703 15.8971 6.89998 15.4 6.89998H13.9C13.403 6.89998 13 6.49703 13 5.99998ZM11 5.09998C10.503 5.09998 10.1 5.50292 10.1 5.99998C10.1 6.49703 10.503 6.89998 11 6.89998C11.4971 6.89998 11.9 6.49703 11.9 5.99998C11.9 5.50292 11.4971 5.09998 11 5.09998Z" fill="#2688EB"/>
</svg>
