<svg width="24" height="24" viewBox="0 0 24 24" fill="none" xmlns="http://www.w3.org/2000/svg">
<path fill-rule="evenodd" clip-rule="evenodd" d="M3.89998 12C3.89998 7.52647 7.52647 3.89998 12 3.89998C16.4735 3.89998 20.1 7.52647 20.1 12C20.1 16.4735 16.4735 20.1 12 20.1C7.52647 20.1 3.89998 16.4735 3.89998 12ZM12 2.09998C6.53236 2.09998 2.09998 6.53236 2.09998 12C2.09998 17.4676 6.53236 21.9 12 21.9C17.4676 21.9 21.9 17.4676 21.9 12C21.9 6.53236 17.4676 2.09998 12 2.09998ZM10.5743 7.73049C11.0223 7.58095 11.5017 7.49995 12 7.49995C12.4983 7.49995 12.9777 7.58095 13.4257 7.73049L13.2205 8.08585C12.972 8.51631 13.1195 9.06674 13.55 9.31527C13.9804 9.5638 14.5309 9.41631 14.7794 8.98585L14.984 8.63152C15.7001 9.26635 16.2123 10.126 16.41 11.1H16C15.5029 11.1 15.1 11.5029 15.1 12C15.1 12.497 15.5029 12.9 16 12.9H16.41C16.2123 13.8738 15.7001 14.7335 14.984 15.3684L14.7794 15.014C14.5309 14.5836 13.9804 14.4361 13.55 14.6846C13.1195 14.9331 12.972 15.4836 13.2206 15.914L13.4257 16.2694C12.9777 16.419 12.4983 16.5 12 16.5C11.5017 16.5 11.0223 16.419 10.5742 16.2694L10.7794 15.914C11.0279 15.4836 10.8804 14.9331 10.45 14.6846C10.0195 14.4361 9.46908 14.5836 9.22055 15.014L9.01598 15.3684C8.29989 14.7335 7.78769 13.8738 7.59 12.9H7.99999C8.49705 12.9 8.89999 12.497 8.89999 12C8.89999 11.5029 8.49705 11.1 7.99999 11.1H7.59C7.78769 10.126 8.29991 9.26635 9.01601 8.63152L9.22057 8.98583C9.4691 9.4163 10.0195 9.56379 10.45 9.31526C10.8805 9.06673 11.0279 8.5163 10.7794 8.08583L10.5743 7.73049ZM12 5.69995C8.52059 5.69995 5.69998 8.52056 5.69998 12C5.69998 15.4793 8.52059 18.3 12 18.3C15.4794 18.3 18.3 15.4793 18.3 12C18.3 8.52056 15.4794 5.69995 12 5.69995ZM10.75 12C10.75 11.3096 11.3096 10.75 12 10.75C12.6903 10.75 13.25 11.3096 13.25 12C13.25 12.6903 12.6903 13.25 12 13.25C11.3096 13.25 10.75 12.6903 10.75 12Z" fill="#2688EB"/>
</svg>
