<svg width="24" height="24" viewBox="0 0 24 24" fill="none" xmlns="http://www.w3.org/2000/svg">
<path fill-rule="evenodd" clip-rule="evenodd" d="M11.1646 3.09998H11.2H12.8H12.8354H12.8354C13.3653 3.09996 13.8164 3.09995 14.1869 3.13021C14.576 3.16201 14.9546 3.23164 15.3166 3.41606C15.8622 3.69409 16.3059 4.13773 16.5839 4.6834C16.7683 5.04534 16.8379 5.42393 16.8697 5.81309C16.8988 6.16838 16.8999 6.59795 16.9 7.09998H17.8L17.8354 7.09998C18.3652 7.09996 18.8164 7.09995 19.1869 7.13021C19.576 7.16201 19.9546 7.23164 20.3166 7.41606C20.8622 7.69409 21.3059 8.13773 21.5839 8.6834C21.7683 9.04534 21.8379 9.42393 21.8697 9.81309C21.9 10.1835 21.9 10.6347 21.9 11.1645V11.1646V11.1646V11.2V12.6V12.6333C21.9 13.0248 21.9 13.3713 21.8766 13.6585C21.8516 13.9642 21.7956 14.2811 21.6384 14.5896C21.4083 15.0411 21.0411 15.4083 20.5896 15.6384C20.3617 15.7545 20.1292 15.8154 19.9 15.8494V16.4V16.4361C19.9 17.0354 19.9 17.539 19.8663 17.9511C19.8311 18.3819 19.7547 18.7914 19.5567 19.18C19.2546 19.7728 18.7728 20.2546 18.18 20.5566C17.7914 20.7547 17.3819 20.8311 16.9511 20.8663C16.539 20.9 16.0355 20.9 15.4362 20.9H15.4361L15.4 20.9H8.59998L8.56384 20.9H8.56374C7.9645 20.9 7.46096 20.9 7.04889 20.8663C6.61805 20.8311 6.20858 20.7547 5.81991 20.5566C5.2272 20.2546 4.74531 19.7728 4.44331 19.18C4.24527 18.7914 4.16882 18.3819 4.13362 17.9511C4.09995 17.539 4.09996 17.0354 4.09998 16.4361L4.09998 16.4V15.8494C3.87077 15.8154 3.63829 15.7545 3.4104 15.6384C2.95881 15.4083 2.59166 15.0411 2.36156 14.5896C2.2044 14.2811 2.14839 13.9642 2.1234 13.6585C2.09994 13.3713 2.09996 13.0248 2.09998 12.6334V12.6333L2.09998 12.6V11.2L2.09998 11.1646V11.1645C2.09996 10.6347 2.09995 10.1835 2.13022 9.81309C2.16201 9.42393 2.23165 9.04534 2.41606 8.6834C2.69409 8.13773 3.13774 7.69409 3.68341 7.41606C4.04534 7.23164 4.42393 7.16201 4.81309 7.13021C5.18353 7.09995 5.63471 7.09996 6.16458 7.09998L6.19998 7.09998H7.09998C7.10001 6.59795 7.10119 6.16838 7.13022 5.81309C7.16201 5.42393 7.23165 5.04534 7.41606 4.6834C7.69409 4.13773 8.13774 3.69409 8.68341 3.41606C9.04534 3.23164 9.42393 3.16201 9.81309 3.13021C10.1835 3.09995 10.6347 3.09996 11.1646 3.09998H11.1646ZM5.39998 14.1H18.6C19.0349 14.1 19.3069 14.0993 19.5119 14.0825C19.7064 14.0666 19.76 14.0409 19.7724 14.0346C19.8853 13.9771 19.9771 13.8853 20.0346 13.7724C20.0409 13.76 20.0666 13.7064 20.0825 13.5119C20.0993 13.3069 20.1 13.0349 20.1 12.6V11.2C20.1 10.6251 20.0993 10.248 20.0757 9.95967C20.053 9.68182 20.0137 9.56648 19.9801 9.50059C19.8746 9.29361 19.7063 9.12533 19.4994 9.01987C19.4335 8.9863 19.3181 8.94694 19.0403 8.92424C18.7519 8.90068 18.3749 8.89998 17.8 8.89998H16.9V8.89999H16H7.99998H7.09998V8.89998H6.19998C5.62508 8.89998 5.24803 8.90068 4.95967 8.92424C4.68182 8.94694 4.56648 8.9863 4.50059 9.01987C4.29361 9.12533 4.12533 9.29361 4.01987 9.50059C3.9863 9.56648 3.94694 9.68182 3.92424 9.95967C3.90068 10.248 3.89998 10.6251 3.89998 11.2V12.6C3.89998 13.0349 3.90068 13.3069 3.91743 13.5119C3.93331 13.7064 3.95905 13.76 3.96537 13.7724C4.0229 13.8853 4.11469 13.9771 4.22758 14.0346C4.24 14.0409 4.2936 14.0666 4.48807 14.0825C4.69305 14.0993 4.96509 14.1 5.39998 14.1ZM5.89998 15.9V16.4C5.89998 17.0449 5.90068 17.4744 5.92764 17.8045C5.95375 18.124 5.99992 18.2702 6.04712 18.3629C6.17655 18.6169 6.38307 18.8234 6.63709 18.9528C6.72972 19 6.87594 19.0462 7.19547 19.0723C7.52551 19.0993 7.95507 19.1 8.59998 19.1H15.4C16.0449 19.1 16.4744 19.0993 16.8045 19.0723C17.124 19.0462 17.2702 19 17.3629 18.9528C17.6169 18.8234 17.8234 18.6169 17.9528 18.3629C18 18.2702 18.0462 18.124 18.0723 17.8045C18.0993 17.4744 18.1 17.0449 18.1 16.4V15.9H5.89998ZM15.0757 5.95967C15.0979 6.23096 15.0998 6.58076 15.1 7.09998H8.89999C8.90014 6.58076 8.90207 6.23096 8.92424 5.95967C8.94694 5.68182 8.9863 5.56648 9.01987 5.50059C9.12533 5.29361 9.29361 5.12533 9.50059 5.01987C9.56648 4.9863 9.68182 4.94694 9.95967 4.92424C10.248 4.90068 10.6251 4.89998 11.2 4.89998H12.8C13.3749 4.89998 13.7519 4.90068 14.0403 4.92424C14.3181 4.94694 14.4335 4.9863 14.4994 5.01987C14.7063 5.12533 14.8746 5.29361 14.9801 5.50059C15.0137 5.56648 15.053 5.68182 15.0757 5.95967Z" fill="#2688EB"/>
</svg>
