<svg width="24" height="24" viewBox="0 0 24 24" fill="none" xmlns="http://www.w3.org/2000/svg">
<path fill-rule="evenodd" clip-rule="evenodd" d="M9.56157 4.1L13.1 4.1C13.597 4.1 14 4.50294 14 5C14 5.49706 13.597 5.9 13.1 5.9H9.59997C8.60503 5.9 7.91295 5.9007 7.37447 5.94469C6.8465 5.98783 6.54593 6.06806 6.3196 6.18338C5.83038 6.43265 5.43263 6.8304 5.18336 7.31962C5.06804 7.54595 4.98781 7.84652 4.94467 8.3745C4.90068 8.91298 4.89998 9.60506 4.89998 10.6V14.4C4.89998 15.3949 4.90068 16.087 4.94467 16.6255C4.98781 17.1535 5.06804 17.4541 5.18336 17.6804C5.43263 18.1696 5.83038 18.5673 6.3196 18.8166C6.54593 18.9319 6.8465 19.0122 7.37447 19.0553C7.91295 19.0993 8.60503 19.1 9.59998 19.1H13.4C14.3949 19.1 15.087 19.0993 15.6255 19.0553C16.1535 19.0122 16.454 18.9319 16.6804 18.8166C17.1696 18.5673 17.5673 18.1696 17.8166 17.6804C17.9319 17.4541 18.0121 17.1535 18.0553 16.6255C18.0993 16.087 18.1 15.3949 18.1 14.4V10.9C18.1 10.4029 18.5029 10 19 10C19.497 10 19.9 10.4029 19.9 10.9V14.4384C19.9 15.3859 19.9 16.1517 19.8493 16.7721C19.7971 17.4114 19.6866 17.9752 19.4204 18.4976C18.9986 19.3255 18.3254 19.9986 17.4975 20.4204C16.9752 20.6866 16.4113 20.7971 15.7721 20.8493C15.1516 20.9 14.3859 20.9 13.4384 20.9H9.56157C8.61407 20.9 7.84832 20.9 7.22789 20.8493C6.58861 20.7971 6.02478 20.6866 5.50242 20.4204C4.6745 19.9986 4.00139 19.3255 3.57955 18.4976C3.31339 17.9752 3.20288 17.4114 3.15065 16.7721C3.09996 16.1517 3.09997 15.3859 3.09998 14.4384V10.5616C3.09997 9.61409 3.09996 8.84834 3.15065 8.22792C3.20288 7.58863 3.31339 7.02481 3.57955 6.50244C4.00139 5.67453 4.6745 5.00141 5.50242 4.57957C6.02478 4.31341 6.5886 4.2029 7.22789 4.15067C7.84831 4.09998 8.61407 4.09999 9.56157 4.1Z" fill="#2688EB"/>
<path fill-rule="evenodd" clip-rule="evenodd" d="M19.1246 3.32554C19.5542 2.89596 20.2507 2.89596 20.6803 3.32554C21.1098 3.75512 21.1098 4.4516 20.6803 4.88117L20.3267 5.23473C20.1705 5.39094 19.9172 5.39094 19.761 5.23473L18.7711 4.24478C18.6149 4.08857 18.6149 3.8353 18.7711 3.67909L19.1246 3.32554ZM18.524 5.90022L18.0997 5.47595C17.6629 5.03908 17.3798 5.06455 16.9684 5.47595C15.2595 7.1848 13.5507 8.89364 11.8418 10.6025C9.88921 12.5551 8.65454 14.4863 9.08412 14.9158C9.5137 15.3454 11.4448 14.1107 13.3975 12.1581C15.1063 10.4493 16.8151 8.74038 18.524 7.03159C18.9609 6.59471 18.9354 6.31162 18.524 5.90022Z" fill="#2688EB"/>
</svg>
