<svg width="20" height="20" viewBox="0 0 20 20" fill="none" xmlns="http://www.w3.org/2000/svg">
<path d="M10 7.5C10.8284 7.5 11.5 6.82843 11.5 6C11.5 5.17157 10.8284 4.5 10 4.5C9.17157 4.5 8.5 5.17157 8.5 6C8.5 6.82843 9.17157 7.5 10 7.5Z" fill="#99A2AD"/>
<path d="M9.0014 9.94666C8.01145 9.8403 7.06737 9.57762 6.19504 9.18348C5.81756 9.01292 5.64982 8.56866 5.82037 8.19119C5.99092 7.81372 6.43518 7.64598 6.81266 7.81653C7.7839 8.25536 8.86237 8.5 10 8.5C11.1376 8.5 12.2161 8.25536 13.1873 7.81653C13.5648 7.64598 14.0091 7.81372 14.1796 8.19119C14.3502 8.56866 14.1824 9.01292 13.805 9.18348C12.9326 9.57762 11.9886 9.8403 10.9986 9.94666C10.9995 9.96432 11 9.98211 11 10C11 10.5758 11.099 11.1473 11.2926 11.6895L12.2063 14.2477C12.3456 14.6378 12.1423 15.067 11.7523 15.2063C11.3622 15.3456 10.933 15.1423 10.7937 14.7523L10.0942 12.7936C10.0626 12.7051 9.93743 12.7051 9.90583 12.7936L9.20631 14.7523C9.067 15.1423 8.63784 15.3456 8.24775 15.2063C7.85767 15.067 7.65438 14.6378 7.7937 14.2477L8.70736 11.6895C8.90017 11.1496 8.99914 10.5808 9 10.0076V10C9 9.98211 9.00047 9.96432 9.0014 9.94666Z" fill="#99A2AD"/>
<path fill-rule="evenodd" clip-rule="evenodd" d="M18.5 10C18.5 14.6944 14.6944 18.5 10 18.5C5.30558 18.5 1.5 14.6944 1.5 10C1.5 5.30558 5.30558 1.5 10 1.5C14.6944 1.5 18.5 5.30558 18.5 10ZM17 10C17 13.866 13.866 17 10 17C6.13401 17 3 13.866 3 10C3 6.13401 6.13401 3 10 3C13.866 3 17 6.13401 17 10Z" fill="#99A2AD"/>
</svg>
