<svg width="20" height="20" viewBox="0 0 20 20" fill="none" xmlns="http://www.w3.org/2000/svg">
<path fill-rule="evenodd" clip-rule="evenodd" d="M10 18.5C14.6944 18.5 18.5 14.6944 18.5 10C18.5 5.30558 14.6944 1.5 10 1.5C5.30558 1.5 1.5 5.30558 1.5 10C1.5 14.6944 5.30558 18.5 10 18.5ZM17 10C17 13.866 13.866 17 10 17C6.13401 17 3 13.866 3 10C3 6.13401 6.13401 3 10 3C13.866 3 17 6.13401 17 10ZM10 14C9.58579 14 9.25 13.6642 9.25 13.25V10.75H6.75C6.33579 10.75 6 10.4142 6 10C6 9.58579 6.33579 9.25 6.75 9.25H9.25V6.75C9.25 6.33579 9.58579 6 10 6C10.4142 6 10.75 6.33579 10.75 6.75V9.25H13.25C13.6642 9.25 14 9.58579 14 10C14 10.4142 13.6642 10.75 13.25 10.75H10.75V13.25C10.75 13.6642 10.4142 14 10 14Z" fill="#99A2AD"/>
</svg>
