<svg width="20" height="20" viewBox="0 0 20 20" fill="none" xmlns="http://www.w3.org/2000/svg">
<path fill-rule="evenodd" clip-rule="evenodd" d="M11.6 3.5H8.4C7.25514 3.5 6.48671 3.50117 5.89495 3.54952C5.32071 3.59643 5.04615 3.6802 4.86502 3.77248C4.39462 4.01217 4.01217 4.39462 3.77248 4.86502C3.6802 5.04615 3.59643 5.32071 3.54951 5.89496C3.50117 6.48671 3.5 7.25514 3.5 8.4V11.6C3.5 12.7449 3.50117 13.5133 3.54951 14.105C3.59643 14.6793 3.6802 14.9539 3.77248 15.135C4.01217 15.6054 4.39462 15.9878 4.86502 16.2275C5.04615 16.3198 5.32071 16.4036 5.89495 16.4505C6.48671 16.4988 7.25514 16.5 8.4 16.5H11.6C12.7449 16.5 13.5133 16.4988 14.105 16.4505C14.6793 16.4036 14.9539 16.3198 15.135 16.2275C15.6054 15.9878 15.9878 15.6054 16.2275 15.135C16.3198 14.9539 16.4036 14.6793 16.4505 14.105C16.4988 13.5133 16.5 12.7449 16.5 11.6V8.4C16.5 7.25514 16.4988 6.48671 16.4505 5.89496C16.4036 5.32071 16.3198 5.04615 16.2275 4.86502C15.9878 4.39462 15.6054 4.01217 15.135 3.77248C14.9539 3.6802 14.6793 3.59643 14.105 3.54952C13.5133 3.50117 12.7449 3.5 11.6 3.5ZM2.43597 4.18404C2 5.03969 2 6.15979 2 8.4V11.6C2 13.8402 2 14.9603 2.43597 15.816C2.81947 16.5686 3.43139 17.1805 4.18404 17.564C5.03969 18 6.15979 18 8.4 18H11.6C13.8402 18 14.9603 18 15.816 17.564C16.5686 17.1805 17.1805 16.5686 17.564 15.816C18 14.9603 18 13.8402 18 11.6V8.4C18 6.15979 18 5.03969 17.564 4.18404C17.1805 3.43139 16.5686 2.81947 15.816 2.43597C14.9603 2 13.8402 2 11.6 2H8.4C6.15979 2 5.03969 2 4.18404 2.43597C3.43139 2.81947 2.81947 3.43139 2.43597 4.18404ZM10 6.00331C10.4142 6.00331 10.75 6.33909 10.75 6.75331V9.25H13.2461C13.6603 9.25 13.9961 9.58579 13.9961 10C13.9961 10.4142 13.6603 10.75 13.2461 10.75H10.75V13.25C10.75 13.6642 10.4142 14 10 14C9.58579 14 9.25 13.6642 9.25 13.25V10.75H6.75393C6.33971 10.75 6.00393 10.4142 6.00393 10C6.00393 9.58579 6.33971 9.25 6.75393 9.25H9.25V6.75331C9.25 6.33909 9.58579 6.00331 10 6.00331Z" fill="#99A2AD"/>
</svg>
