<svg width="20" height="20" viewBox="0 0 20 20" fill="none" xmlns="http://www.w3.org/2000/svg">
<path fill-rule="evenodd" clip-rule="evenodd" d="M10 3.25C10.4142 3.25 10.75 3.58579 10.75 4V9.24999L16 9.25C16.4142 9.25 16.75 9.58579 16.75 10C16.75 10.4142 16.4142 10.75 16 10.75L10.75 10.75V16C10.75 16.4142 10.4142 16.75 10 16.75C9.58581 16.75 9.25002 16.4142 9.25002 16V10.75H4C3.58579 10.75 3.25 10.4142 3.25 9.99999C3.25 9.58578 3.58579 9.24999 4 9.24999H9.25002V4C9.25002 3.58579 9.58581 3.25 10 3.25Z" fill="#99A2AD"/>
</svg>
