<svg width="20" height="20" viewBox="0 0 20 20" fill="none" xmlns="http://www.w3.org/2000/svg">
<path d="M7 10.75C7 10.3358 7.33579 10 7.75 10H12.25C12.6642 10 13 10.3358 13 10.75C13 11.1642 12.6642 11.5 12.25 11.5H7.75C7.33579 11.5 7 11.1642 7 10.75Z" fill="#99A2AD"/>
<path fill-rule="evenodd" clip-rule="evenodd" d="M14.5804 2H5.41956C4.88542 1.99999 4.43956 1.99998 4.07533 2.02974C3.69544 2.06078 3.33879 2.12789 3.00152 2.29973C2.48408 2.56339 2.06338 2.98408 1.79973 3.50153C1.62789 3.83879 1.56078 4.19545 1.52974 4.57533C1.49998 4.93956 1.49999 5.38541 1.5 5.91957L1.5 5.97022C1.49997 6.09238 1.49993 6.22483 1.5093 6.33947C1.5199 6.46923 1.54614 6.64066 1.63624 6.81749C1.75608 7.05269 1.94731 7.24392 2.18251 7.36376C2.35934 7.45386 2.53077 7.4801 2.66053 7.4907C2.76591 7.49931 2.88635 7.49998 3 7.50001L3 12.4821C2.99999 13.2949 2.99999 13.9506 3.04336 14.4815C3.08803 15.0281 3.18239 15.5082 3.40873 15.9525C3.76825 16.6581 4.34193 17.2318 5.04754 17.5913C5.49175 17.8176 5.9719 17.912 6.51853 17.9566C7.04942 18 7.705 18 8.51779 18H11.4821C12.2949 18 12.9506 18 13.4815 17.9566C14.0281 17.912 14.5082 17.8176 14.9525 17.5913C15.6581 17.2318 16.2317 16.6581 16.5913 15.9525C16.8176 15.5082 16.912 15.0281 16.9566 14.4815C17 13.9506 17 13.2949 17 12.4821V7.50001C17.1137 7.49998 17.2341 7.49931 17.3395 7.4907C17.4692 7.4801 17.6407 7.45386 17.8175 7.36376C18.0527 7.24392 18.2439 7.05269 18.3638 6.81749C18.4539 6.64066 18.4801 6.46923 18.4907 6.33947C18.5001 6.22485 18.5 6.09242 18.5 5.97028L18.5 5.91955C18.5 5.3854 18.5 4.93956 18.4703 4.57533C18.4392 4.19545 18.3721 3.83879 18.2003 3.50153C17.9366 2.98408 17.5159 2.56339 16.9985 2.29973C16.6612 2.12789 16.3046 2.06078 15.9247 2.02974C15.5604 1.99998 15.1146 1.99999 14.5804 2ZM15.5 7.5H4.5V12.45C4.5 13.3025 4.50058 13.8967 4.53838 14.3593C4.57547 14.8132 4.6446 15.074 4.74524 15.2715C4.96095 15.6948 5.30516 16.0391 5.72852 16.2548C5.92604 16.3554 6.1868 16.4245 6.64068 16.4616C7.10331 16.4994 7.69755 16.5 8.55 16.5H11.45C12.3025 16.5 12.8967 16.4994 13.3593 16.4616C13.8132 16.4245 14.074 16.3554 14.2715 16.2548C14.6948 16.0391 15.039 15.6948 15.2548 15.2715C15.3554 15.074 15.4245 14.8132 15.4616 14.3593C15.4994 13.8967 15.5 13.3025 15.5 12.45V7.5ZM17 5.99999L17 5.95C17 5.37757 16.9994 4.99336 16.9752 4.69748C16.9518 4.41036 16.9099 4.27307 16.8638 4.18251C16.7439 3.94731 16.5527 3.75608 16.3175 3.63624C16.2269 3.5901 16.0896 3.54822 15.8025 3.52476C15.5066 3.50058 15.1224 3.5 14.55 3.5H5.45C4.87757 3.5 4.49336 3.50058 4.19748 3.52476C3.91035 3.54822 3.77307 3.5901 3.68251 3.63624C3.44731 3.75608 3.25608 3.94731 3.13624 4.18251C3.0901 4.27307 3.04822 4.41036 3.02476 4.69748C3.00058 4.99336 3 5.37757 3 5.95L3.00001 5.99999H17Z" fill="#99A2AD"/>
</svg>
