<svg width="20" height="20" viewBox="0 0 20 20" fill="none" xmlns="http://www.w3.org/2000/svg">
<path d="M7.2099 4.34244C7.5371 4.08844 7.59643 3.61729 7.34243 3.29009C7.08844 2.9629 6.61728 2.90356 6.29009 3.15756L1.54318 6.84254C-0.514573 8.44411 -0.513807 11.5555 1.54415 13.1568L6.28998 16.8424C6.61713 17.0964 7.08829 17.0372 7.34235 16.71C7.59641 16.3829 7.53716 15.9117 7.21001 15.6576L2.46418 11.9721C1.17868 10.9713 1.17906 9.02721 2.46449 8.02626L7.2099 4.34244Z" fill="#99A2AD"/>
<path fill-rule="evenodd" clip-rule="evenodd" d="M11.7399 4.75265C11.7399 4.54385 11.5007 4.42818 11.3375 4.55519L4.59644 9.80183C4.46783 9.90193 4.46785 10.0967 4.59647 10.1968L11.3427 15.446C11.5059 15.573 11.745 15.4573 11.745 15.2486V12.113C11.745 11.6987 12.0808 11.363 12.495 11.363C14.9512 11.363 16.837 12.2762 18.3272 13.56C18.0611 12.1058 17.5027 10.9828 16.7565 10.134C15.6912 8.92194 14.176 8.19253 12.3721 7.9056C12.0079 7.84768 11.7399 7.53365 11.7399 7.16491V4.75265ZM10.4162 3.37146C11.566 2.4766 13.2399 3.29711 13.2399 4.75265V6.54294C15.0498 6.9366 16.6743 7.76839 17.8832 9.14366C19.2347 10.6813 20 12.8224 20 15.5881C20 15.9047 19.8012 16.1872 19.5031 16.2941C19.2051 16.4009 18.8721 16.3091 18.6709 16.0646C17.3091 14.4097 15.6123 13.123 13.245 12.898V15.2486C13.245 16.704 11.5713 17.5245 10.4215 16.6299L3.67532 11.3806C2.77496 10.6801 2.77487 9.3188 3.67514 8.61811L10.4162 3.37146Z" fill="#99A2AD"/>
</svg>
