<svg width="20" height="20" viewBox="0 0 20 20" fill="none" xmlns="http://www.w3.org/2000/svg">
<path fill-rule="evenodd" clip-rule="evenodd" d="M3.32148 7.19794C2.60317 7.2666 1.99334 7.74978 1.76059 8.43054C1.41249 9.44865 1.41359 10.5546 1.76115 11.5711C1.9912 12.244 2.59107 12.7269 3.30362 12.8025L9.00749 13.4079V14.8146L9.00748 14.8601C9.0074 15.1078 9.00731 15.3846 9.02793 15.615C9.0462 15.8193 9.09892 16.3323 9.46967 16.7784C9.8714 17.2618 10.4773 17.5286 11.106 17.4976C11.6865 17.4689 12.1004 17.1595 12.2629 17.0347C12.4464 16.8938 12.6499 16.7062 12.8317 16.5386L12.8652 16.5077L16.8484 12.8387C17.1496 12.5612 17.4403 12.2935 17.6659 12.0475C17.9117 11.7796 18.1799 11.4343 18.3375 10.9748C18.5542 10.343 18.5542 9.65698 18.3375 9.02522C18.1799 8.56573 17.9117 8.22045 17.6659 7.95247C17.4403 7.70652 17.1496 7.4388 16.8483 7.16135L12.8652 3.49231L12.8317 3.46144C12.6499 3.29379 12.4464 3.10622 12.2629 2.96532C12.1004 2.84048 11.6865 2.53108 11.106 2.50244C10.4773 2.47141 9.8714 2.73826 9.46967 3.22159C9.09892 3.66766 9.0462 4.18075 9.02793 4.38501C9.00731 4.61543 9.0074 4.89225 9.00748 5.13991L9.00749 5.18544V6.65442L3.32148 7.19794ZM10.5075 5.18544C10.5075 4.60824 10.5075 4.31965 10.6232 4.18039C10.7238 4.05945 10.8752 3.99287 11.0321 4.00061C11.2128 4.00953 11.4248 4.20488 11.849 4.59557L15.7949 8.2304C16.4617 8.84462 16.7951 9.15173 16.9186 9.51182C17.0271 9.8282 17.0271 10.1718 16.9186 10.4882C16.7951 10.8483 16.4617 11.1554 15.7949 11.7696L11.849 15.4044C11.4248 15.7951 11.2128 15.9905 11.0321 15.9994C10.8752 16.0071 10.7238 15.9406 10.6232 15.8196C10.5075 15.6804 10.5075 15.3918 10.5075 14.8146V12.7797C10.5075 12.5248 10.5075 12.3974 10.46 12.2962C10.4181 12.207 10.3509 12.1322 10.2668 12.0811C10.1713 12.023 10.0448 12.0096 9.7918 11.9828L3.46193 11.3109C3.3325 11.2972 3.22266 11.2092 3.18049 11.0859C2.94022 10.3831 2.93965 9.61857 3.17992 8.91581C3.22242 8.7915 3.33363 8.70361 3.46421 8.69113L9.7835 8.08708C10.0392 8.06264 10.167 8.05042 10.2636 7.99268C10.3487 7.94183 10.4168 7.86679 10.4593 7.7771C10.5075 7.67525 10.5075 7.54662 10.5075 7.28935V5.18544Z" fill="#99A2AD"/>
</svg>
