<svg width="20" height="20" viewBox="0 0 20 20" fill="none" xmlns="http://www.w3.org/2000/svg">
<path fill-rule="evenodd" clip-rule="evenodd" d="M3.71975 5.22032C4.01262 4.92753 4.48738 4.92753 4.78025 5.22032L7.28025 7.71959C7.57319 8.01244 7.57326 8.48732 7.28041 8.78025C6.98756 9.07319 6.51268 9.07326 6.21975 8.78041L5 7.56102L5 9.45073C5 10.3032 5.00058 10.8974 5.03838 11.3601C5.07547 11.8139 5.1446 12.0747 5.24524 12.2722C5.46095 12.6956 5.80516 13.0398 6.22852 13.2555C6.42604 13.3561 6.6868 13.4253 7.14068 13.4624C7.60331 13.5001 8.19755 13.5007 9.05 13.5007H10.25C10.6642 13.5007 11 13.8365 11 14.2507C11 14.6649 10.6642 15.0007 10.25 15.0007H9.01788C8.20505 15.0007 7.54944 15.0007 7.01853 14.9574C6.4719 14.9127 5.99175 14.8183 5.54754 14.592C4.84193 14.2325 4.26825 13.6588 3.90873 12.9532C3.68238 12.509 3.58803 12.0288 3.54336 11.4822C3.49999 10.9513 3.49999 10.2957 3.5 9.48285L3.5 7.56102L2.28025 8.78041C1.98732 9.07326 1.51244 9.07319 1.21959 8.78025C0.926742 8.48732 0.926811 8.01244 1.21975 7.71959L3.71975 5.22032ZM12.8593 6.53911C12.3967 6.50132 11.8025 6.50073 10.95 6.50073L9.75 6.50073C9.33579 6.50073 9 6.16495 9 5.75073C9 5.33652 9.33579 5.00073 9.75 5.00073L10.9821 5.00073C11.7949 5.00073 12.4506 5.00072 12.9815 5.0441C13.5281 5.08876 14.0082 5.18312 14.4525 5.40946C15.1581 5.76898 15.7317 6.34266 16.0913 7.04827C16.3176 7.49249 16.412 7.97263 16.4566 8.51927C16.5 9.05018 16.5 9.70581 16.5 10.5187V12.4397L17.7196 11.2197C18.0124 10.9268 18.4873 10.9267 18.7803 11.2196C19.0732 11.5124 19.0733 11.9873 18.7804 12.2803L16.2804 14.781C16.1397 14.9217 15.949 15.0007 15.75 15.0007C15.551 15.0007 15.3603 14.9217 15.2196 14.781L12.7196 12.2803C12.4267 11.9873 12.4268 11.5124 12.7197 11.2196C13.0127 10.9267 13.4876 10.9268 13.7804 11.2197L15 12.4397V10.5507C15 9.69828 14.9994 9.10405 14.9616 8.64141C14.9245 8.18754 14.8554 7.92677 14.7548 7.72925C14.539 7.30589 14.1948 6.96168 13.7715 6.74597C13.574 6.64533 13.3132 6.5762 12.8593 6.53911Z" fill="#99A2AD"/>
</svg>
