<svg width="20" height="20" viewBox="0 0 20 20" fill="none" xmlns="http://www.w3.org/2000/svg">
<path fill-rule="evenodd" clip-rule="evenodd" d="M7.63033 2.71967C7.92322 3.01256 7.92322 3.48744 7.63033 3.78033L5.81066 5.6H11.05C14.06 5.6 16.5 8.04005 16.5 11.05C16.5 14.06 14.06 16.5 11.05 16.5H6.4C5.98579 16.5 5.65 16.1642 5.65 15.75C5.65 15.3358 5.98579 15 6.4 15H11.05C13.2315 15 15 13.2315 15 11.05C15 8.86848 13.2315 7.1 11.05 7.1H5.81067L7.63033 8.91964C7.92322 9.21254 7.92322 9.68741 7.63033 9.9803C7.33744 10.2732 6.86257 10.2732 6.56967 9.98031L3.46967 6.88033C3.32902 6.73968 3.25 6.54891 3.25 6.35C3.25 6.15109 3.32902 5.96032 3.46967 5.81967L6.56967 2.71967C6.86256 2.42678 7.33744 2.42678 7.63033 2.71967Z" fill="#99A2AD"/>
</svg>
