<svg width="20" height="20" viewBox="0 0 20 20" fill="none" xmlns="http://www.w3.org/2000/svg">
<path fill-rule="evenodd" clip-rule="evenodd" d="M16.2229 3.50054C16.0617 3.50447 15.8446 3.52822 15.4901 3.56812L9.31853 4.26274C8.6476 4.33826 8.1943 4.38997 7.87387 4.45435C7.66204 4.49692 7.57627 4.53389 7.55269 4.54427C7.51559 4.59582 7.4995 4.65964 7.50775 4.72261C7.5236 4.74291 7.58161 4.81607 7.74801 4.95381C7.9997 5.16216 8.37443 5.42223 8.92955 5.80626L10.0908 6.60963C10.2616 6.72779 10.3758 6.91141 10.4061 7.11677C10.4364 7.32214 10.3802 7.53088 10.2509 7.6933L3.57562 16.075C3.50984 16.1576 3.50718 16.2135 3.51064 16.2471C3.51537 16.2929 3.54027 16.3531 3.59425 16.4072C3.64823 16.4613 3.70846 16.4863 3.75431 16.4912C3.78784 16.4947 3.84386 16.4922 3.92668 16.4267L12.3285 9.77908C12.4912 9.65042 12.6998 9.59474 12.905 9.62526C13.1101 9.65577 13.2935 9.76976 13.4115 9.94017L14.1891 11.0624C14.5732 11.6169 14.8334 11.9912 15.0418 12.2426C15.1796 12.4088 15.2527 12.4668 15.273 12.4826C15.3361 12.4908 15.3999 12.4748 15.4515 12.4377C15.4619 12.4141 15.4989 12.3285 15.5416 12.1169C15.6061 11.7969 15.6579 11.3441 15.7337 10.674L16.4305 4.50817C16.4705 4.15391 16.4944 3.93691 16.4984 3.77588C16.5008 3.67741 16.494 3.63492 16.4915 3.62328C16.467 3.57273 16.4262 3.5319 16.3756 3.50739C16.3639 3.50495 16.3214 3.49814 16.2229 3.50054ZM16.3791 3.50823C16.3796 3.50838 16.3791 3.50823 16.3791 3.50823V3.50823ZM16.4907 3.61979C16.4906 3.61925 16.4907 3.61978 16.4907 3.61979V3.61979ZM16.1863 2.00099C16.435 1.99493 16.7149 2.01381 16.9908 2.13906C17.3767 2.31424 17.6859 2.62329 17.8611 3.0089C17.9863 3.28462 18.0051 3.56436 17.999 3.81286C17.9932 4.04801 17.9611 4.33164 17.9255 4.6469L17.2212 10.8783C17.1506 11.5033 17.092 12.0215 17.0131 12.4131C16.9393 12.7794 16.816 13.2316 16.475 13.5373C16.0454 13.9225 15.4533 14.0714 14.8923 13.9353C14.4472 13.8273 14.1244 13.4873 13.8858 13.1995C13.6308 12.892 13.3338 12.4632 12.9755 11.9461L12.6329 11.4515L4.85849 17.6027C3.22621 18.8941 1.10459 16.7688 2.40107 15.1409L8.57672 7.38657L8.04522 7.01888C7.52758 6.66078 7.09831 6.36383 6.79039 6.10893C6.5024 5.87053 6.16201 5.54787 6.05395 5.10293C5.91779 4.54229 6.06689 3.95061 6.45253 3.52127C6.75858 3.18054 7.2113 3.05746 7.57795 2.98379C7.96995 2.90502 8.48876 2.84664 9.11439 2.77623L15.3517 2.07421C15.6672 2.03868 15.951 2.00672 16.1863 2.00099Z" fill="#99A2AD"/>
</svg>
