<svg width="20" height="20" viewBox="0 0 20 20" fill="none" xmlns="http://www.w3.org/2000/svg">
<path fill-rule="evenodd" clip-rule="evenodd" d="M3.75305 3C4.16727 3 4.50305 3.33547 4.50305 3.7493V5.34327C4.50305 6.75445 4.50364 7.76778 4.56868 8.56317C4.63301 9.34981 4.75664 9.85708 4.96627 10.2681C5.37374 11.0671 6.0239 11.7166 6.82359 12.1237C7.23502 12.3331 7.74276 12.4567 8.53014 12.5209C9.32627 12.5859 10.3405 12.5865 11.7531 12.5865H14.3691L12.65 10.9586C12.3493 10.6739 12.3366 10.1997 12.6216 9.8993C12.9065 9.59894 13.3812 9.58624 13.6818 9.87091L16.7666 12.792C16.9161 12.9335 17.0008 13.1304 17.0007 13.3362C17.0006 13.542 16.9157 13.7387 16.766 13.8802L13.6813 16.7951C13.3803 17.0794 12.9056 17.0662 12.621 16.7656C12.3364 16.4649 12.3496 15.9907 12.6505 15.7063L14.3663 14.0851H11.7195C10.3478 14.0851 9.27233 14.0851 8.40799 14.0145C7.52785 13.9427 6.80074 13.794 6.14261 13.459C5.06067 12.9082 4.18104 12.0294 3.62976 10.9485C3.29443 10.291 3.14557 9.56452 3.07366 8.6852C3.00304 7.82166 3.00305 6.74723 3.00305 5.37679V3.7493C3.00305 3.33547 3.33884 3 3.75305 3Z" fill="#99A2AD"/>
</svg>
