<svg width="20" height="20" viewBox="0 0 20 20" fill="none" xmlns="http://www.w3.org/2000/svg">
<path d="M17.5 5.25C17.5 4.83579 17.1585 4.5 16.7561 4.5H3.24385C2.83303 4.5 2.5 4.8329 2.5 5.25C2.5 5.66421 2.84148 6 3.24385 6H16.7561C17.167 6 17.5 5.6671 17.5 5.25ZM17.5 10.25C17.5 9.83579 17.1585 9.5 16.7561 9.5H3.24385C2.83303 9.5 2.5 9.8329 2.5 10.25C2.5 10.6642 2.84148 11 3.24385 11H16.7561C17.167 11 17.5 10.6671 17.5 10.25ZM2.5 15.25C2.5 15.6642 2.83746 16 3.25513 16H12.2449C12.6619 16 13 15.6671 13 15.25C13 14.8358 12.6625 14.5 12.2449 14.5H3.25513C2.83809 14.5 2.5 14.8329 2.5 15.25Z" fill="#99A2AD"/>
</svg>
