<svg width="20" height="20" viewBox="0 0 20 20" fill="none" xmlns="http://www.w3.org/2000/svg">
<path fill-rule="evenodd" clip-rule="evenodd" d="M8.38584 2.08655C9.27084 1.17114 10.7388 1.17114 11.6238 2.08655L12.2847 2.77016C12.4451 2.93608 12.673 3.01898 12.9026 2.99493L13.8486 2.89584C15.1153 2.76314 16.2398 3.70619 16.329 4.97598L16.3956 5.92425C16.4118 6.1544 16.533 6.36431 16.7244 6.49338L17.5128 7.02517C18.5685 7.73728 18.8234 9.18211 18.075 10.2121L17.5162 10.9814C17.3806 11.168 17.3384 11.4067 17.402 11.6285L17.6639 12.5424C18.0146 13.7661 17.2807 15.0367 16.0449 15.345L15.1221 15.5752C14.8981 15.6311 14.7124 15.7869 14.6184 15.9976L14.2313 16.8659C13.7129 18.0286 12.3335 18.5304 11.1886 17.9728L10.3336 17.5563C10.1261 17.4552 9.88356 17.4552 9.67605 17.5563L8.82105 17.9728C7.67615 18.5304 6.29673 18.0286 5.77836 16.8659L5.39124 15.9976C5.29729 15.7869 5.11151 15.6311 4.88754 15.5752L3.96471 15.345C2.729 15.0367 1.99502 13.7661 2.34573 12.5424L2.60764 11.6285C2.6712 11.4067 2.62909 11.168 2.49346 10.9814L1.93461 10.2121C1.18628 9.18211 1.44119 7.73728 2.49688 7.02517L3.28526 6.49338C3.4766 6.36431 3.59786 6.1544 3.61403 5.92425L3.68065 4.97598C3.76986 3.70619 4.89438 2.76314 6.16107 2.89584L7.10703 2.99493C7.33663 3.01898 7.56451 2.93608 7.72492 2.77016L8.38584 2.08655ZM10.5445 3.12884C10.2495 2.82371 9.76016 2.82371 9.46516 3.12885L8.80424 3.81246C8.32302 4.31022 7.63935 4.55891 6.95058 4.48676L6.00462 4.38766C5.58239 4.34343 5.20755 4.65778 5.17781 5.08105L5.11119 6.02932C5.06268 6.71977 4.69891 7.34948 4.12488 7.73669L3.3365 8.26849C2.9846 8.50586 2.89963 8.98747 3.14908 9.33081L3.70792 10.1C4.11483 10.6601 4.24116 11.3762 4.05047 12.0416L3.78856 12.9554C3.67165 13.3633 3.91631 13.7869 4.32822 13.8896L5.25104 14.1199C5.92297 14.2875 6.4803 14.7549 6.76216 15.3871L7.14928 16.2554C7.32207 16.643 7.78187 16.8103 8.16351 16.6244L9.01851 16.2079C9.64105 15.9047 10.3686 15.9047 10.9911 16.2079L11.8461 16.6244C12.2278 16.8103 12.6876 16.643 12.8604 16.2554L13.2475 15.3871C13.5293 14.7549 14.0867 14.2875 14.7586 14.1199L15.6814 13.8896C16.0933 13.7869 16.338 13.3633 16.2211 12.9554L15.9592 12.0416C15.7685 11.3762 15.8948 10.6601 16.3017 10.1L16.8606 9.33081C17.11 8.98747 17.025 8.50586 16.6731 8.26849L15.8848 7.73669C15.3107 7.34948 14.947 6.71977 14.8985 6.02932L14.8318 5.08105C14.8021 4.65778 14.4273 4.34343 14.005 4.38766L13.0591 4.48676C12.3703 4.55891 11.6866 4.31021 11.2054 3.81246L10.5445 3.12884Z" fill="#99A2AD"/>
<path fill-rule="evenodd" clip-rule="evenodd" d="M13.0065 9.9913C13.0065 10.4055 12.6705 10.7413 12.2561 10.7413H7.75355C7.3391 10.7413 7.00312 10.4055 7.00312 9.9913C7.00312 9.57709 7.3391 9.2413 7.75355 9.2413L12.2561 9.2413C12.6705 9.2413 13.0065 9.57709 13.0065 9.9913Z" fill="#99A2AD"/>
<path fill-rule="evenodd" clip-rule="evenodd" d="M10.0048 12.9913C9.59037 12.9913 9.2544 12.6555 9.2544 12.2413L9.2544 7.7413C9.2544 7.32709 9.59037 6.9913 10.0048 6.9913C10.4193 6.9913 10.7552 7.32709 10.7552 7.7413V12.2413C10.7552 12.6555 10.4193 12.9913 10.0048 12.9913Z" fill="#99A2AD"/>
</svg>
