<svg width="20" height="20" viewBox="0 0 20 20" fill="none" xmlns="http://www.w3.org/2000/svg">
<path fill-rule="evenodd" clip-rule="evenodd" d="M13.252 11.504C15.3242 11.504 17.004 9.82419 17.004 7.75201C17.004 5.67983 15.3242 4 13.252 4C11.1798 4 9.5 5.67983 9.5 7.75201C9.5 9.82419 11.1798 11.504 13.252 11.504ZM18.504 7.75201C18.504 10.3987 16.5463 12.5881 14 12.9512V16H15.75C16.1642 16 16.5 16.3358 16.5 16.75C16.5 17.1642 16.1642 17.5 15.75 17.5H10.75C10.3358 17.5 10 17.1642 10 16.75C10 16.3358 10.3358 16 10.75 16H12.5V12.9506C9.95564 12.5858 8 10.3973 8 7.75201C8 4.85141 10.3514 2.5 13.252 2.5C16.1526 2.5 18.504 4.85141 18.504 7.75201ZM5.89443 2.61227C6.11553 2.74893 6.25011 2.99032 6.25011 3.25024V8C6.6643 8.00003 7.00006 8.3358 7.00006 8.75V14.75C7.00006 16.2688 5.76884 17.5 4.25006 17.5C2.73128 17.5 1.50006 16.2688 1.50006 14.75V8.75C1.50006 8.33579 1.83585 8 2.25006 8L2.25006 4.50009C2.25006 4.21599 2.41058 3.95627 2.66469 3.82924L5.16474 2.5794C5.39723 2.46318 5.67332 2.47561 5.89443 2.61227ZM3.00006 9.75425V14.75C3.00006 15.4404 3.55971 16 4.25006 16C4.94042 16 5.50006 15.4404 5.50006 14.75V9.75425H3.00006ZM4.75011 4.46369V8H3.7501L3.75007 4.96363L4.75011 4.46369Z" fill="#99A2AD"/>
</svg>
