<svg width="20" height="20" viewBox="0 0 20 20" fill="none" xmlns="http://www.w3.org/2000/svg">
<path d="M12.5371 6.40516L13.7192 5.22046C14.0119 4.92732 14.4867 4.92692 14.7799 5.21956C15.0486 5.48782 15.0713 5.9092 14.8478 6.20336L14.7808 6.28022L13.5975 7.46612C15.6219 10.0176 15.4548 13.7378 13.0962 16.0964C10.5578 18.6348 6.44221 18.6348 3.90381 16.0964C1.3654 13.558 1.3654 9.44243 3.90381 6.90402C6.26332 4.5445 9.98554 4.37822 12.5371 6.40516ZM4.96447 7.96468C3.01184 9.9173 3.01184 13.0831 4.96447 15.0357C6.91709 16.9884 10.0829 16.9884 12.0355 15.0357C13.9882 13.0831 13.9882 9.9173 12.0355 7.96468C10.0829 6.01206 6.91709 6.01206 4.96447 7.96468ZM16.8885 5.01301L16.9872 5.0387L18.4872 5.5387C18.8801 5.66969 19.0925 6.09443 18.9615 6.48738C18.8414 6.8476 18.4745 7.05606 18.1115 6.98741L18.0128 6.96173L16.5128 6.46173C16.1199 6.33074 15.9075 5.906 16.0385 5.51304C16.1586 5.15283 16.5255 4.94436 16.8885 5.01301ZM17.7647 2.20708C18.0397 2.46893 18.0724 2.88965 17.8559 3.189L17.7906 3.26743L16.7431 4.36743C16.4575 4.66739 15.9827 4.67899 15.6828 4.39334C15.4078 4.1315 15.3752 3.71077 15.5916 3.41142L15.6569 3.333L16.7044 2.233C16.99 1.93304 17.4648 1.92143 17.7647 2.20708ZM14.4228 1.41866L14.4615 1.51304L14.9615 3.01304C15.0925 3.406 14.8801 3.83074 14.4872 3.96175C14.127 4.0818 13.74 3.91335 13.5772 3.58177L13.5385 3.48738L13.0385 1.98738C12.9075 1.59443 13.1199 1.16969 13.5128 1.03868C13.873 0.918631 14.26 1.08707 14.4228 1.41866Z" fill="#99A2AD"/>
</svg>
