<svg width="20" height="20" viewBox="0 0 20 20" fill="none" xmlns="http://www.w3.org/2000/svg">
<path fill-rule="evenodd" clip-rule="evenodd" d="M9.617 1.5H10.383C11.4751 1.49999 12.3406 1.49999 13.0383 1.55699C13.7517 1.61527 14.3553 1.73688 14.9065 2.01772C15.8002 2.47312 16.5269 3.19978 16.9823 4.09355C17.2631 4.64472 17.3847 5.24834 17.443 5.96173C17.5 6.65935 17.5 7.52484 17.5 8.61698V14.8389C17.5 15.6334 17.5 16.2815 17.4549 16.7806C17.4106 17.2711 17.3137 17.7772 16.9956 18.1683C16.5572 18.7074 15.8943 19.0136 15.1997 18.9981C14.6957 18.9868 14.2475 18.7326 13.8452 18.4484C13.4359 18.1593 12.9424 17.7393 12.3373 17.2242L11.0694 16.1451C10.7846 15.9027 10.6023 15.7482 10.4538 15.64C10.313 15.5374 10.2468 15.5104 10.2088 15.4994C10.0724 15.4599 9.92761 15.4599 9.79125 15.4994C9.75316 15.5104 9.68703 15.5374 9.54615 15.64C9.39766 15.7482 9.21539 15.9027 8.93056 16.1451L7.66267 17.2242C7.05758 17.7393 6.56407 18.1593 6.15479 18.4484C5.75249 18.7326 5.30433 18.9868 4.80031 18.9981C4.10567 19.0136 3.44281 18.7074 3.00441 18.1683C2.68631 17.7772 2.58941 17.2711 2.54508 16.7806C2.49998 16.2815 2.49999 15.6335 2.5 14.8389V8.617C2.49999 7.52486 2.49999 6.65936 2.55699 5.96173C2.61527 5.24835 2.73688 4.64472 3.01772 4.09355C3.47312 3.19978 4.19978 2.47312 5.09355 2.01772C5.64472 1.73688 6.24835 1.61527 6.96174 1.55699C7.65936 1.49999 8.52486 1.49999 9.617 1.5ZM7.08388 3.05201C6.46325 3.10271 6.07901 3.19909 5.77453 3.35423C5.16301 3.66582 4.66582 4.163 4.35423 4.77453C4.19909 5.079 4.10271 5.46325 4.05201 6.08388C4.00058 6.71327 4 7.51752 4 8.65V14.8008C4 15.6427 4.00074 16.2223 4.03899 16.6456C4.07873 17.0853 4.14996 17.1995 4.16814 17.2219C4.31427 17.4015 4.53522 17.5036 4.76677 17.4985C4.79557 17.4978 4.92869 17.4781 5.28932 17.2233C5.63646 16.9781 6.07833 16.603 6.71944 16.0573L7.97822 14.9859C8.23746 14.7653 8.46309 14.5732 8.66307 14.4275C8.87575 14.2726 9.10244 14.1373 9.37375 14.0587C9.78284 13.9401 10.2172 13.9401 10.6263 14.0587C10.8976 14.1373 11.1242 14.2726 11.3369 14.4275C11.5369 14.5732 11.7625 14.7652 12.0218 14.9859L13.2806 16.0573C13.9217 16.603 14.3635 16.9781 14.7107 17.2233C15.0713 17.4781 15.2044 17.4978 15.2332 17.4985C15.4648 17.5036 15.6857 17.4015 15.8319 17.2219C15.85 17.1995 15.9213 17.0853 15.961 16.6456C15.9993 16.2223 16 15.6427 16 14.8008V8.65C16 7.51752 15.9994 6.71327 15.948 6.08388C15.8973 5.46325 15.8009 5.079 15.6458 4.77453C15.3342 4.163 14.837 3.66582 14.2255 3.35423C13.921 3.19909 13.5367 3.10271 12.9161 3.05201C12.2867 3.00058 11.4825 3 10.35 3H9.65C8.51752 3 7.71327 3.00058 7.08388 3.05201Z" fill="#99A2AD"/>
</svg>
