<svg width="20" height="20" viewBox="0 0 20 20" fill="none" xmlns="http://www.w3.org/2000/svg">
<path fill-rule="evenodd" clip-rule="evenodd" d="M6.91957 1.5H6.95H13.05H13.0804C13.6146 1.49999 14.0604 1.49998 14.4247 1.52974C14.8046 1.56078 15.1612 1.62789 15.4985 1.79973C16.0159 2.06339 16.4366 2.48408 16.7003 3.00153C16.8721 3.33879 16.9392 3.69545 16.9703 4.07533C17 4.43955 17 4.88538 17 5.41951V5.45V14.75C17 15.1642 16.6642 15.5 16.25 15.5H16.0615C16.028 15.6873 16 15.9371 16 16.25C16 16.5629 16.028 16.8127 16.0615 17H16.25C16.6642 17 17 17.3358 17 17.75C17 18.1642 16.6642 18.5 16.25 18.5H5.25001C4.00736 18.5 3 17.4927 3 16.25V5.45V5.41957C2.99999 4.88542 2.99998 4.43956 3.02974 4.07533C3.06078 3.69545 3.12789 3.33879 3.29973 3.00153C3.56339 2.48408 3.98408 2.06339 4.50153 1.79973C4.83879 1.62789 5.19545 1.56078 5.57533 1.52974C5.93956 1.49998 6.38542 1.49999 6.91957 1.5ZM14.5449 17C14.5177 16.782 14.5 16.5319 14.5 16.25C14.5 15.9681 14.5177 15.718 14.5449 15.5H5.25001C4.83579 15.5 4.5 15.8358 4.5 16.25C4.5 16.6642 4.83579 17 5.25001 17H14.5449ZM15.5 5.45V14H5.25001C4.98703 14 4.73459 14.0451 4.5 14.128V5.45C4.5 4.87757 4.50058 4.49336 4.52476 4.19748C4.54822 3.91036 4.5901 3.77307 4.63624 3.68251C4.75608 3.44731 4.94731 3.25609 5.18251 3.13624C5.27307 3.0901 5.41036 3.04822 5.69748 3.02476C5.99336 3.00059 6.37757 3 6.95 3H13.05C13.6224 3 14.0066 3.00059 14.3025 3.02476C14.5896 3.04822 14.7269 3.0901 14.8175 3.13624C15.0527 3.25609 15.2439 3.44731 15.3638 3.68251C15.4099 3.77307 15.4518 3.91036 15.4752 4.19748C15.4994 4.49336 15.5 4.87757 15.5 5.45Z" fill="#99A2AD"/>
</svg>
