<svg width="20" height="20" viewBox="0 0 20 20" fill="none" xmlns="http://www.w3.org/2000/svg">
<path fill-rule="evenodd" clip-rule="evenodd" d="M19 7.87124C19 4.90479 16.5952 2.5 13.6288 2.5C12.3732 2.5 11.2256 2.96046 10.2146 3.84644L10 4.04279L9.78544 3.84644C8.77436 2.96046 7.6268 2.5 6.37124 2.5C3.40479 2.5 1 4.90479 1 7.87124C1 10.708 2.08148 12.1458 6.70238 15.7398L8.69538 17.2899C9.46274 17.8867 10.5373 17.8867 11.3046 17.2899L13.2976 15.7398C17.9185 12.1458 19 10.708 19 7.87124ZM10.7093 5.88475C10.8795 5.4859 10.9645 5.28647 11.1488 5.06346C11.3331 4.84046 11.4434 4.76614 11.6639 4.61751C12.2787 4.20327 12.9324 4 13.6288 4C15.7668 4 17.5 5.73321 17.5 7.87124L17.4946 8.16971C17.4167 10.2147 16.4674 11.3741 12.3767 14.5558L10.4831 16.0286L11.6265 13.3622C11.7461 13.0834 11.8588 12.8208 11.929 12.5895C12.0072 12.3317 12.0552 12.0459 11.9918 11.7289C11.9285 11.4118 11.7744 11.1664 11.603 10.9585C11.4493 10.7719 11.2444 10.5728 11.0269 10.3614L10.0674 9.42877C9.81731 9.18566 9.67419 9.04507 9.57997 8.93074C9.53754 8.87924 9.51867 8.84888 9.51042 8.83345C9.50658 8.82629 9.50486 8.82171 9.50486 8.82171L9.50448 8.82041L9.50433 8.81907C9.50433 8.81907 9.50415 8.81418 9.50492 8.80609C9.50658 8.78867 9.51226 8.75338 9.53153 8.68949C9.57431 8.54766 9.65206 8.36271 9.78893 8.0419L10.7093 5.88475ZM9.26803 5.44044C8.39267 4.4711 7.43135 4 6.37124 4C4.23321 4 2.5 5.73321 2.5 7.87124C2.5 10.1088 3.33781 11.2226 7.62329 14.5558L9.01754 15.6402L10.2345 12.8023C10.3723 12.4811 10.4505 12.2959 10.4936 12.1539C10.513 12.0899 10.5188 12.0546 10.5205 12.0371C10.5212 12.029 10.5211 12.0241 10.5211 12.0241L10.5209 12.0228L10.5205 12.0215C10.5205 12.0215 10.5188 12.0169 10.515 12.0097C10.5067 11.9943 10.4878 11.9639 10.4453 11.9123C10.3509 11.7977 10.2075 11.6568 9.95697 11.4133L8.99755 10.4807C8.78038 10.2697 8.57588 10.0709 8.42241 9.8847C8.25132 9.6771 8.09738 9.43218 8.03383 9.11571C7.97029 8.79924 8.01775 8.51388 8.09544 8.25633C8.16512 8.0253 8.27706 7.76302 8.39593 7.4845L9.26803 5.44044Z" fill="#99A2AD"/>
</svg>
