<svg width="20" height="20" viewBox="0 0 20 20" fill="none" xmlns="http://www.w3.org/2000/svg">
<path fill-rule="evenodd" clip-rule="evenodd" d="M5.21967 2.21967C5.51256 1.92678 5.98744 1.92678 6.28033 2.21967L7.27951 3.21885C8.08178 2.76137 9.01037 2.5 10 2.5C10.9239 2.5 11.7946 2.72781 12.559 3.13033L13.4697 2.21967C13.7626 1.92678 14.2374 1.92678 14.5303 2.21967C14.8232 2.51256 14.8232 2.98744 14.5303 3.28033L13.7933 4.01739C14.3713 4.56807 14.8295 5.24329 15.1251 6H16.75C17.1642 6 17.5 6.33579 17.5 6.75C17.5 7.16421 17.1642 7.5 16.75 7.5H15.4776C15.4924 7.66468 15.5 7.83146 15.5 8V9.5H17.75C18.1642 9.5 18.5 9.83579 18.5 10.25C18.5 10.6642 18.1642 11 17.75 11H15.5V12.25C15.5 12.5044 15.4827 12.7548 15.4493 13H16.75C17.1642 13 17.5 13.3358 17.5 13.75C17.5 14.1642 17.1642 14.5 16.75 14.5H15.0202C14.1603 16.4158 12.2359 17.75 10 17.75C7.76405 17.75 5.83973 16.4158 4.97979 14.5H3.25C2.83579 14.5 2.5 14.1642 2.5 13.75C2.5 13.3358 2.83579 13 3.25 13H4.55071C4.51727 12.7548 4.5 12.5044 4.5 12.25V11H2.25C1.83579 11 1.5 10.6642 1.5 10.25C1.5 9.83579 1.83579 9.5 2.25 9.5H4.5V8C4.5 7.83146 4.50758 7.66468 4.52242 7.5H3.25C2.83579 7.5 2.5 7.16421 2.5 6.75C2.5 6.33579 2.83579 6 3.25 6H4.87494C5.14864 5.29915 5.56196 4.6682 6.0807 4.14136L5.21967 3.28033C4.92678 2.98744 4.92678 2.51256 5.21967 2.21967ZM14 12.25V8C14 5.79086 12.2091 4 10 4C7.79086 4 6 5.79086 6 8V12.25C6 14.4591 7.79086 16.25 10 16.25C12.2091 16.25 14 14.4591 14 12.25ZM8.5 8.25C8.5 7.83579 8.83579 7.5 9.25 7.5H10.75C11.1642 7.5 11.5 7.83579 11.5 8.25C11.5 8.66421 11.1642 9 10.75 9H9.25C8.83579 9 8.5 8.66421 8.5 8.25ZM9.25 11.5C8.83579 11.5 8.5 11.8358 8.5 12.25C8.5 12.6642 8.83579 13 9.25 13H10.75C11.1642 13 11.5 12.6642 11.5 12.25C11.5 11.8358 11.1642 11.5 10.75 11.5H9.25Z" fill="#99A2AD"/>
</svg>
