<svg width="20" height="20" viewBox="0 0 20 20" fill="none" xmlns="http://www.w3.org/2000/svg">
<path fill-rule="evenodd" clip-rule="evenodd" d="M14 1C14.4142 1 14.75 1.33579 14.75 1.75V2.10583C15.1338 2.16711 15.4848 2.26722 15.816 2.43597C16.5686 2.81947 17.1805 3.43139 17.564 4.18404C17.804 4.655 17.9052 5.16601 17.9532 5.75433C18 6.3269 18 7.03494 18 7.91752V7.91754V7.91756V7.91758V7.9176V12.0824V12.0824V12.0824V12.0825V12.0825C18 12.9651 18 13.6731 17.9532 14.2457C17.9052 14.834 17.804 15.345 17.564 15.816C17.1805 16.5686 16.5686 17.1805 15.816 17.564C15.345 17.804 14.834 17.9052 14.2457 17.9532C13.6731 18 12.965 18 12.0823 18H7.91766C7.03501 18 6.32693 18 5.75433 17.9532C5.16601 17.9052 4.655 17.804 4.18404 17.564C3.43139 17.1805 2.81947 16.5686 2.43597 15.816C2.19601 15.345 2.09484 14.834 2.04677 14.2457C1.99999 13.6731 1.99999 12.965 2 12.0824V7.91762C1.99999 7.035 1.99999 6.32692 2.04677 5.75433C2.09484 5.16601 2.19601 4.655 2.43597 4.18404C2.81947 3.43139 3.43139 2.81947 4.18404 2.43597C4.51523 2.26722 4.86623 2.16711 5.25 2.10583V1.75C5.25 1.33579 5.58579 1 6 1C6.41421 1 6.75 1.33579 6.75 1.75V2.00536C7.10097 1.99999 7.48868 2 7.91761 2H7.91762H7.91762H12.0824C12.5113 2 12.899 1.99999 13.25 2.00536V1.75C13.25 1.33579 13.5858 1 14 1ZM5.25 3.63402V3.75C5.25 4.16421 5.58579 4.5 6 4.5C6.41421 4.5 6.75 4.16421 6.75 3.75V3.50554C7.09152 3.50015 7.48586 3.5 7.95 3.5H12.05C12.5141 3.5 12.9085 3.50015 13.25 3.50554V3.75C13.25 4.16421 13.5858 4.5 14 4.5C14.4142 4.5 14.75 4.16421 14.75 3.75V3.63402C14.904 3.67155 15.0272 3.71759 15.135 3.77248C15.6054 4.01217 15.9878 4.39462 16.2275 4.86502C16.3418 5.08928 16.4177 5.38092 16.4582 5.87648C16.4881 6.24238 16.4966 6.68325 16.499 7.25H3.50096C3.50338 6.68325 3.51189 6.24238 3.54179 5.87648C3.58228 5.38092 3.65822 5.08928 3.77248 4.86502C4.01217 4.39462 4.39462 4.01217 4.86502 3.77248C4.97275 3.71759 5.09603 3.67155 5.25 3.63402ZM3.5 8.75H16.5V12.05C16.5 12.9725 16.4994 13.6192 16.4582 14.1235C16.4177 14.6191 16.3418 14.9107 16.2275 15.135C15.9878 15.6054 15.6054 15.9878 15.135 16.2275C14.9107 16.3418 14.6191 16.4177 14.1235 16.4582C13.6192 16.4994 12.9725 16.5 12.05 16.5H7.95C7.02754 16.5 6.3808 16.4994 5.87648 16.4582C5.38092 16.4177 5.08928 16.3418 4.86502 16.2275C4.39462 15.9878 4.01217 15.6054 3.77248 15.135C3.65822 14.9107 3.58228 14.6191 3.54179 14.1235C3.50058 13.6192 3.5 12.9725 3.5 12.05V8.75ZM13.75 15C14.4404 15 15 14.4404 15 13.75C15 13.0596 14.4404 12.5 13.75 12.5C13.0596 12.5 12.5 13.0596 12.5 13.75C12.5 14.4404 13.0596 15 13.75 15Z" fill="#99A2AD"/>
</svg>
