<svg width="20" height="20" viewBox="0 0 20 20" fill="none" xmlns="http://www.w3.org/2000/svg">
<path fill-rule="evenodd" clip-rule="evenodd" d="M5.49994 5.5C6.07448 5.5 6.509 5.29596 6.83965 4.97854C7.08312 4.74481 7.26751 4.44301 7.39379 4.23633L7.39386 4.2362C7.41345 4.20414 7.43164 4.17437 7.44844 4.1475C7.59867 3.90713 7.70693 3.76547 7.8395 3.66905C7.95227 3.58704 8.13625 3.5 8.49994 3.5H11.4999C11.8636 3.5 12.0476 3.58704 12.1604 3.66905C12.2929 3.76547 12.4012 3.90713 12.5514 4.1475C12.5683 4.1744 12.5865 4.20421 12.6061 4.23632C12.7324 4.44301 12.9168 4.74481 13.1602 4.97854C13.4909 5.29596 13.9254 5.5 14.4999 5.5C15.2329 5.5 15.4898 5.50363 15.6889 5.54323C16.5814 5.72077 17.2792 6.41849 17.4567 7.31105C17.4963 7.51013 17.4999 7.76707 17.4999 8.5V11.95C17.4999 12.8025 17.4994 13.3967 17.4616 13.8593C17.4245 14.3132 17.3553 14.574 17.2547 14.7715C17.039 15.1948 16.6948 15.539 16.2714 15.7548C16.0739 15.8554 15.8131 15.9245 15.3593 15.9616C14.8966 15.9994 14.3024 16 13.4499 16H6.54856C5.69611 16 5.10187 15.9994 4.63924 15.9616C4.18537 15.9245 3.9246 15.8554 3.72708 15.7548C3.30372 15.539 2.95951 15.1948 2.7438 14.7715C2.64316 14.574 2.57403 14.3132 2.53694 13.8593C2.49915 13.3967 2.49856 12.8025 2.49856 11.95V8.50137C2.49856 7.7671 2.50221 7.50969 2.54195 7.31025C2.7197 6.41834 3.4169 5.72114 4.30882 5.54339C4.50825 5.50365 4.76566 5.5 5.49994 5.5ZM8.49994 2C7.86362 2 7.3601 2.16296 6.95725 2.45595C6.57419 2.73453 6.33871 3.09287 6.17644 3.3525C6.14916 3.39615 6.12418 3.43639 6.10107 3.47361C5.96541 3.69217 5.89427 3.80678 5.80085 3.89646C5.74087 3.95404 5.67539 4 5.49994 4L5.41296 3.99999C4.79863 3.99983 4.3799 3.99973 4.01565 4.07232C2.52913 4.36856 1.36712 5.53057 1.07088 7.01709C0.998292 7.38134 0.998396 7.80007 0.998549 8.4144L0.998563 8.50137V11.95L0.998563 11.9821C0.998556 12.7949 0.998549 13.4506 1.04193 13.9815C1.08659 14.5281 1.18095 15.0082 1.40729 15.4525C1.76681 16.1581 2.34049 16.7317 3.0461 17.0913C3.49032 17.3176 3.97046 17.412 4.5171 17.4566C5.048 17.5 5.70361 17.5 6.51644 17.5H6.54856H13.4499H13.4821C14.2949 17.5 14.9505 17.5 15.4814 17.4566C16.028 17.412 16.5082 17.3176 16.9524 17.0913C17.658 16.7317 18.2317 16.1581 18.5912 15.4525C18.8176 15.0082 18.9119 14.5281 18.9566 13.9815C18.9999 13.4506 18.9999 12.795 18.9999 11.9821V11.95V8.5L19 8.41317C19.0001 7.79997 19.0002 7.38201 18.9279 7.01841C18.632 5.53082 17.4691 4.36796 15.9815 4.07206C15.6179 3.99973 15.2 3.99983 14.5868 3.99999L14.4999 4C14.3245 4 14.259 3.95404 14.199 3.89646C14.1056 3.80678 14.0345 3.69217 13.8988 3.47362C13.8757 3.4364 13.8507 3.39615 13.8234 3.3525C13.6612 3.09287 13.4257 2.73453 13.0426 2.45595C12.6398 2.16296 12.1362 2 11.4999 2H8.49994ZM12.2499 10.25C12.2499 11.4926 11.2426 12.5 9.99994 12.5C8.7573 12.5 7.74994 11.4926 7.74994 10.25C7.74994 9.00736 8.7573 8 9.99994 8C11.2426 8 12.2499 9.00736 12.2499 10.25ZM13.7499 10.25C13.7499 12.3211 12.071 14 9.99994 14C7.92887 14 6.24994 12.3211 6.24994 10.25C6.24994 8.17893 7.92887 6.5 9.99994 6.5C12.071 6.5 13.7499 8.17893 13.7499 10.25Z" fill="#99A2AD"/>
</svg>
