<svg width="20" height="20" viewBox="0 0 20 20" fill="none" xmlns="http://www.w3.org/2000/svg">
<path fill-rule="evenodd" clip-rule="evenodd" d="M0.5 7.70895C0.5 7.31741 0.817409 7 1.20895 7H1.96232L2.92467 5.33777C3.26173 4.75554 3.54169 4.27196 3.81203 3.89564C4.09681 3.49921 4.40371 3.17334 4.81807 2.93445C5.23242 2.69555 5.6682 2.59322 6.15397 2.54538C6.6151 2.49997 7.17387 2.49999 7.84663 2.5H12.1553C12.8285 2.49999 13.3877 2.49997 13.8491 2.54544C14.3352 2.59333 14.7712 2.69578 15.1858 2.93496C15.6003 3.17414 15.9072 3.50036 16.192 3.89721C16.4623 4.27394 16.7421 4.75804 17.0791 5.34091L18.0382 7H18.7921C19.1837 7 19.5011 7.31741 19.5011 7.70895C19.5011 8.37187 19.1923 8.98288 18.5 9.15476L18.5 16.1042C18.5001 16.3653 18.4943 16.627 18.3728 16.8654C18.1858 17.2324 17.824 17.4611 17.4181 17.4942C17.3172 17.5025 17.202 17.5024 17.1018 17.5024C16.9547 17.5024 16.8072 17.5051 16.6605 17.4931C16.2248 17.4575 15.8372 17.2144 15.6362 16.8199C15.4691 16.4918 15.5 16.1077 15.5 15.75H4.5C4.50001 16.1077 4.53092 16.4918 4.36376 16.8199C4.16276 17.2144 3.77522 17.4575 3.33947 17.4931C3.22483 17.5025 3.09238 17.5024 2.97023 17.5024C2.84082 17.5024 2.711 17.5048 2.58193 17.4942C2.17604 17.4611 1.81416 17.2324 1.62716 16.8654C1.50571 16.627 1.49991 16.3653 1.5 16.1041L1.5 9.15448C0.808246 8.98213 0.5 8.37148 0.5 7.70895ZM3.75 14.2492L4.5 14.25L16.25 14.2492C16.6643 14.2492 17 13.9132 17 13.5V9.51162C16.9149 9.52608 16.7917 9.54614 16.6321 9.56993C16.3072 9.61836 15.8313 9.68228 15.2181 9.74599C13.9919 9.87338 12.2159 10 9.99999 10C7.78406 10 6.00807 9.87338 4.78186 9.74599C4.1687 9.68228 3.69282 9.61836 3.36793 9.56993C3.20833 9.54614 3.08514 9.52608 3 9.51162V13.5C3 13.9132 3.3357 14.2492 3.75 14.2492ZM16.8885 8.00832L15.7985 6.12291C15.4389 5.50083 15.1954 5.08132 14.9732 4.77166C14.7607 4.4754 14.6015 4.32961 14.4361 4.23421C14.2708 4.13881 14.0649 4.07396 13.702 4.03821C13.3227 4.00084 12.8377 4 12.1191 4H7.88276C7.16471 4 6.68 4.00084 6.30097 4.03816C5.93834 4.07387 5.73257 4.13864 5.56729 4.23393C5.40201 4.32922 5.24286 4.47486 5.03026 4.77079C4.80805 5.08012 4.56447 5.49917 4.2047 6.1206L3.11178 8.00837C3.27114 8.03249 3.42961 8.06255 3.58909 8.08632C3.89311 8.13164 4.34691 8.19272 4.93687 8.25402C6.11691 8.37662 7.84092 8.5 9.99999 8.5C12.1591 8.5 13.8831 8.37662 15.0631 8.25402C15.6531 8.19272 16.1069 8.13164 16.4109 8.08632C16.5705 8.06254 16.729 8.03241 16.8885 8.00832Z" fill="#99A2AD"/>
<path d="M15.4319 12.4776C15.8337 12.3771 16.0781 11.9699 15.9776 11.5681C15.8771 11.1663 15.4699 10.9219 15.0681 11.0224L13.0681 11.5224C12.6663 11.6229 12.4219 12.0301 12.5224 12.4319C12.6229 12.8337 13.0301 13.0781 13.4319 12.9776L15.4319 12.4776Z" fill="#99A2AD"/>
<path d="M4.9319 11.0224C4.53006 10.9219 4.12285 11.1663 4.02239 11.5681C3.92193 11.9699 4.16625 12.3771 4.5681 12.4776L6.5681 12.9776C6.96994 13.0781 7.37715 12.8337 7.47761 12.4319C7.57807 12.0301 7.33375 11.6229 6.9319 11.5224L4.9319 11.0224Z" fill="#99A2AD"/>
</svg>
