<svg width="20" height="20" viewBox="0 0 20 20" fill="none" xmlns="http://www.w3.org/2000/svg">
<path fill-rule="evenodd" clip-rule="evenodd" d="M6.42598 18.8858C5.86547 18.6537 5.50001 18.1067 5.50001 17.5V15.5C5.12999 15.4996 4.7812 15.4964 4.4813 15.4719C4.10506 15.4411 3.67576 15.3696 3.24724 15.1512C2.64512 14.8444 2.15558 14.3549 1.84878 13.7528C1.63044 13.3242 1.55889 12.895 1.52815 12.5187C1.49992 12.1732 1.49996 11.7629 1.5 11.3299C1.50015 9.77661 1.50015 8.21739 1.5 6.67005C1.49996 6.23711 1.49992 5.82677 1.52815 5.4813C1.55889 5.10506 1.63044 4.67576 1.84878 4.24724C2.15558 3.64512 2.64512 3.15558 3.24724 2.84879C3.67576 2.63044 4.10506 2.55889 4.4813 2.52815C4.82678 2.49992 5.23714 2.49996 5.67009 2.5C7.42683 2.50017 7.95681 2.50013 8.7532 2.50008L10.6598 2.5C10.6598 2.5 11.457 2.4983 11.457 3.25C11.457 4.00171 10.6598 4.00001 10.6598 4.00001H5.72001C4.76792 4.00001 4.29187 4.00001 3.92822 4.1853C3.60835 4.34828 3.34828 4.60835 3.18529 4.92822C3.00001 5.29187 3.00001 5.76792 3.00001 6.72001V11.28C3.00001 12.2321 3.00001 12.7081 3.18529 13.0718C3.34828 13.3917 3.60835 13.6517 3.92822 13.8147C4.29187 14 4.76792 14 5.72001 14H5.88001C6.27204 14 6.46806 14 6.6178 14.0763C6.74951 14.1434 6.8566 14.2505 6.92371 14.3822C7.00001 14.532 7.00001 14.728 7.00001 15.12V17.5L10.0314 14.4686C10.2043 14.2957 10.2908 14.2092 10.3917 14.1474C10.4812 14.0925 10.5787 14.0521 10.6808 14.0276C10.7959 14 10.9182 14 11.1627 14H14.28C15.2321 14 15.7081 14 16.0718 13.8147C16.3917 13.6517 16.6517 13.3917 16.8147 13.0718C17 12.7081 17 12.2321 17 11.28V7.42712C17 7.42712 16.9982 6.74186 17.75 6.74186C18.5018 6.74186 18.5 7.42712 18.5 7.42712L18.5 11.33C18.5 11.7629 18.5001 12.1733 18.4719 12.5187C18.4411 12.895 18.3696 13.3242 18.1512 13.7528C17.8444 14.3549 17.3549 14.8444 16.7528 15.1512C16.3242 15.3696 15.8949 15.4411 15.5187 15.4719C15.1732 15.5001 14.7629 15.5001 14.3299 15.5L11.1627 15.5C11.1334 15.5 11.1128 15.5085 11.092 15.5293L8.06067 18.5607C7.63167 18.9897 6.98649 19.118 6.42598 18.8858ZM18.2813 3.76903C18.5742 3.48051 18.5742 3.01273 18.2813 2.7242C17.9884 2.43568 17.5135 2.43568 17.2206 2.7242L14.6828 5.22418L13.665 4.21986C13.3721 3.93134 12.8973 3.93134 12.6044 4.21986C12.3115 4.50838 12.3115 4.97617 12.6044 5.26469L14.1525 6.79142C14.4454 7.07994 14.9202 7.07994 15.2131 6.79142L18.2813 3.76903Z" fill="#99A2AD"/>
</svg>
