<svg width="20" height="20" viewBox="0 0 20 20" fill="none" xmlns="http://www.w3.org/2000/svg">
<path fill-rule="evenodd" clip-rule="evenodd" d="M8.71718 2H11.2828C12.3051 1.99999 13.1181 1.99999 13.7741 2.05358C14.4458 2.10846 15.0185 2.22326 15.543 2.49047C16.3897 2.9219 17.0781 3.61031 17.5095 4.45704C17.7767 4.98148 17.8915 5.55423 17.9464 6.22593C18 6.88186 18 7.69485 18 8.7171V8.71716V10.5C18 10.9142 17.6642 11.25 17.25 11.25C16.8358 11.25 16.5 10.9142 16.5 10.5V8.75C16.5 8.48086 16.5 8.23165 16.4991 8H3.50087C3.50004 8.23165 3.5 8.48086 3.5 8.75V11.25C3.5 12.3125 3.50058 13.0642 3.5486 13.6519C3.5959 14.2309 3.68547 14.5842 3.82698 14.862C4.1146 15.4265 4.57354 15.8854 5.13803 16.173C5.41576 16.3145 5.76914 16.4041 6.34808 16.4514C6.93578 16.4994 7.68752 16.5 8.75 16.5H10.6C11.0142 16.5 11.35 16.8358 11.35 17.25C11.35 17.6642 11.0142 18 10.6 18H8.71716H8.71709C7.69485 18 6.88186 18 6.22593 17.9464C5.55423 17.8915 4.98148 17.7767 4.45704 17.5095C3.61031 17.0781 2.9219 16.3897 2.49047 15.543C2.22326 15.0185 2.10846 14.4458 2.05358 13.7741C1.99999 13.1181 1.99999 12.3051 2 11.2828V8.71718C1.99999 7.6949 1.99999 6.88188 2.05358 6.22593C2.10846 5.55423 2.22326 4.98148 2.49047 4.45704C2.9219 3.61031 3.61031 2.9219 4.45704 2.49047C4.98148 2.22326 5.55423 2.10846 6.22593 2.05358C6.88188 1.99999 7.6949 1.99999 8.71718 2ZM16.4514 6.34808C16.4554 6.39753 16.4591 6.44814 16.4625 6.5H3.53746C3.54086 6.44814 3.54456 6.39753 3.5486 6.34808C3.5959 5.76914 3.68547 5.41576 3.82698 5.13803C4.1146 4.57354 4.57354 4.1146 5.13803 3.82698C5.41576 3.68547 5.76914 3.5959 6.34808 3.5486C6.93578 3.50058 7.68753 3.5 8.75 3.5H11.25C12.3125 3.5 13.0642 3.50058 13.6519 3.5486C14.2309 3.5959 14.5842 3.68547 14.862 3.82698C15.4265 4.1146 15.8854 4.57354 16.173 5.13803C16.3145 5.41576 16.4041 5.76914 16.4514 6.34808ZM17.7803 14.0303C18.0732 13.7374 18.0732 13.2626 17.7803 12.9697C17.4874 12.6768 17.0126 12.6768 16.7197 12.9697L14.1818 15.5075L13.2803 14.606C12.9874 14.3131 12.5126 14.3131 12.2197 14.606C11.9268 14.8989 11.9268 15.3738 12.2197 15.6667L13.6515 17.0985C13.9444 17.3914 14.4193 17.3914 14.7121 17.0985L17.7803 14.0303Z" fill="#99A2AD"/>
</svg>
