<svg width="20" height="20" viewBox="0 0 20 20" fill="none" xmlns="http://www.w3.org/2000/svg">
<path fill-rule="evenodd" clip-rule="evenodd" d="M10.1537 2.50835C10.0517 2.49571 9.94843 2.49571 9.84637 2.50835C9.74726 2.52063 9.64332 2.55062 9.25702 2.67357L4.59226 4.15822C4.38226 4.22505 4.26108 4.26406 4.17228 4.29929C4.11781 4.32089 4.09617 4.33337 4.09055 4.33698C4.05861 4.36344 4.03376 4.39743 4.01823 4.43589C4.0165 4.44233 4.01117 4.46674 4.0071 4.5252C4.00047 4.6205 4.00005 4.7478 4.00005 4.96818V10.6582C4.00005 12.515 4.99294 14.0122 6.26213 15.171C7.53113 16.3296 9.0026 17.0786 9.76834 17.4211C9.85741 17.461 9.89393 17.4769 9.92242 17.4875C9.96932 17.5049 10.0303 17.505 10.0777 17.4875C10.1062 17.4769 10.1427 17.461 10.2318 17.4211C10.9975 17.0786 12.469 16.3296 13.738 15.171C15.0072 14.0122 16 12.515 16 10.6582V4.96818C16 4.7478 15.9996 4.6205 15.993 4.5252C15.9889 4.46675 15.9836 4.44235 15.9819 4.4359C15.9663 4.39743 15.9415 4.36344 15.9095 4.33698C15.9039 4.33337 15.8823 4.32089 15.8278 4.29929C15.739 4.26406 15.6178 4.22505 15.4078 4.15822L10.7431 2.67357C10.3568 2.55062 10.2528 2.52063 10.1537 2.50835ZM15.9111 4.33807L15.9095 4.33698L15.9111 4.33807ZM15.9813 4.43405L15.9819 4.4359L15.9813 4.43405ZM4.0188 4.43405L4.01823 4.43589L4.0188 4.43405ZM4.08897 4.33807L4.09055 4.33698L4.08897 4.33807ZM9.66196 1.01973C9.8865 0.991917 10.1136 0.991917 10.3381 1.01973C10.607 1.05304 10.8635 1.13776 11.198 1.24422L15.8628 2.72886C15.8894 2.73736 15.9163 2.74583 15.9434 2.75435C16.2594 2.85396 16.5961 2.96004 16.8598 3.1764C17.0889 3.36424 17.2665 3.60713 17.376 3.88233C17.5022 4.19931 17.5012 4.55225 17.5002 4.88365C17.5001 4.912 17.5 4.94019 17.5 4.96818V10.6582C17.5 13.0978 16.1864 14.9667 14.7493 16.2787C13.3121 17.591 11.6775 18.4176 10.8443 18.7903C10.6919 18.8585 10.5262 18.9366 10.2931 18.9762C10.1174 19.006 9.88266 19.006 9.70699 18.9762C9.47389 18.9366 9.30825 18.8585 9.15582 18.7903C8.32257 18.4176 6.68803 17.591 5.25075 16.2787C3.81368 14.9667 2.50005 13.0978 2.50005 10.6582V4.96818C2.50005 4.94019 2.49997 4.912 2.49989 4.88365C2.49895 4.55225 2.49794 4.19931 2.62411 3.88233C2.73364 3.60713 2.91124 3.36424 3.14026 3.1764C3.40404 2.96004 3.74066 2.85396 4.05674 2.75435C4.08378 2.74583 4.11067 2.73736 4.13734 2.72886L8.8021 1.24422C9.13661 1.13775 9.39307 1.05304 9.66196 1.01973Z" fill="#99A2AD"/>
<path fill-rule="evenodd" clip-rule="evenodd" d="M13.7604 7.20046C14.0639 7.48231 14.0815 7.95686 13.7996 8.26039L9.62107 12.7604C9.47916 12.9132 9.28003 13.0001 9.07148 13.0001C8.86293 13.0001 8.66379 12.9132 8.52188 12.7604L6.20045 10.2604C5.9186 9.95686 5.93618 9.48231 6.23971 9.20046C6.54324 8.91861 7.01779 8.93618 7.29964 9.23972L9.07148 11.1478L12.7005 7.23972C12.9823 6.93618 13.4569 6.91861 13.7604 7.20046Z" fill="#99A2AD"/>
</svg>
