<svg width="20" height="20" viewBox="0 0 20 20" fill="none" xmlns="http://www.w3.org/2000/svg">
<path d="M13.5303 8.53033C13.8232 8.23744 13.8232 7.76256 13.5303 7.46967C13.2374 7.17678 12.7626 7.17678 12.4697 7.46967L9 10.9393L7.53033 9.46967C7.23744 9.17678 6.76256 9.17678 6.46967 9.46967C6.17678 9.76256 6.17678 10.2374 6.46967 10.5303L8.46967 12.5303C8.76256 12.8232 9.23744 12.8232 9.53033 12.5303L13.5303 8.53033Z" fill="#99A2AD"/>
<path fill-rule="evenodd" clip-rule="evenodd" d="M2 8.4C2 6.15979 2 5.03969 2.43597 4.18404C2.81947 3.43139 3.43139 2.81947 4.18404 2.43597C5.03969 2 6.15979 2 8.4 2H11.6C13.8402 2 14.9603 2 15.816 2.43597C16.5686 2.81947 17.1805 3.43139 17.564 4.18404C18 5.03969 18 6.15979 18 8.4V11.6C18 13.8402 18 14.9603 17.564 15.816C17.1805 16.5686 16.5686 17.1805 15.816 17.564C14.9603 18 13.8402 18 11.6 18H8.4C6.15979 18 5.03969 18 4.18404 17.564C3.43139 17.1805 2.81947 16.5686 2.43597 15.816C2 14.9603 2 13.8402 2 11.6V8.4ZM8.4 3.5H11.6C12.7449 3.5 13.5133 3.50117 14.105 3.54952C14.6793 3.59643 14.9539 3.6802 15.135 3.77248C15.6054 4.01217 15.9878 4.39462 16.2275 4.86502C16.3198 5.04615 16.4036 5.32071 16.4505 5.89496C16.4988 6.48671 16.5 7.25514 16.5 8.4V11.6C16.5 12.7449 16.4988 13.5133 16.4505 14.105C16.4036 14.6793 16.3198 14.9539 16.2275 15.135C15.9878 15.6054 15.6054 15.9878 15.135 16.2275C14.9539 16.3198 14.6793 16.4036 14.105 16.4505C13.5133 16.4988 12.7449 16.5 11.6 16.5H8.4C7.25514 16.5 6.48671 16.4988 5.89496 16.4505C5.32071 16.4036 5.04615 16.3198 4.86502 16.2275C4.39462 15.9878 4.01217 15.6054 3.77248 15.135C3.6802 14.9539 3.59643 14.6793 3.54952 14.105C3.50117 13.5133 3.5 12.7449 3.5 11.6V8.4C3.5 7.25514 3.50117 6.48671 3.54952 5.89496C3.59643 5.32071 3.6802 5.04615 3.77248 4.86502C4.01217 4.39462 4.39462 4.01217 4.86502 3.77248C5.04615 3.6802 5.32071 3.59643 5.89496 3.54952C6.48671 3.50117 7.25514 3.5 8.4 3.5Z" fill="#99A2AD"/>
</svg>
