<svg width="20" height="20" viewBox="0 0 20 20" fill="none" xmlns="http://www.w3.org/2000/svg">
<path fill-rule="evenodd" clip-rule="evenodd" d="M9.5256 4.21698C9.81868 4.50968 9.81899 4.98456 9.52628 5.27764L4.81004 9.99995L9.52622 14.7212C9.81896 15.0142 9.81871 15.4891 9.52566 15.7818C9.23261 16.0746 8.75773 16.0743 8.465 15.7813L3.21939 10.5301C2.92689 10.2373 2.92687 9.76286 3.21933 9.47002L8.46494 4.21766C8.75764 3.92458 9.23252 3.92427 9.5256 4.21698Z" fill="#99A2AD"/>
<path fill-rule="evenodd" clip-rule="evenodd" d="M15.5256 4.21698C15.8187 4.50968 15.819 4.98456 15.5263 5.27764L10.81 9.99995L15.5262 14.7212C15.819 15.0142 15.8187 15.4891 15.5257 15.7818C15.2326 16.0746 14.7577 16.0743 14.465 15.7813L9.21939 10.5301C8.92689 10.2373 8.92687 9.76286 9.21933 9.47002L14.4649 4.21766C14.7576 3.92458 15.2325 3.92427 15.5256 4.21698Z" fill="#99A2AD"/>
</svg>
