<svg width="20" height="20" viewBox="0 0 20 20" fill="none" xmlns="http://www.w3.org/2000/svg">
<path fill-rule="evenodd" clip-rule="evenodd" d="M6.96902 4.23922L8.65661 2.552C9.39857 1.8102 10.6014 1.81018 11.3433 2.55196L13.031 4.2392C13.4124 4.62058 13.6934 5.44308 13.305 6.14861L15.0324 7.87606C15.5398 8.38352 15.7041 9.29366 15.1716 9.96987L17.0466 11.8889C17.5991 12.4543 17.7124 13.4619 17.0249 14.1355C16.427 14.7215 14.7981 15.8136 11 15.9788V16.9999C11 17.5522 10.5523 17.9999 10 17.9999C9.44771 17.9999 9 17.5522 9 16.9999V15.9788C5.20526 15.8138 3.57578 14.7233 2.97649 14.1369C2.28234 13.4577 2.40332 12.4401 2.96698 11.8764L4.84837 9.99485C4.29179 9.31623 4.45378 8.38979 4.96749 7.87606L6.69493 6.14857C6.30655 5.44305 6.58758 4.62058 6.96902 4.23922ZM7.89808 7.06674L6.02817 8.93671C5.9921 8.97277 5.98983 9.02924 6.0275 9.06363L6.03361 9.06933C6.13692 9.16617 7.02656 10.0001 9.99996 10.0001C12.9739 10.0001 13.8633 9.16589 13.9663 9.06928L13.9724 9.06363C14.0101 9.02924 14.0078 8.97277 13.9718 8.93671L12.1018 7.06674C11.5859 7.25149 10.8994 7.3647 9.99996 7.3647C9.10047 7.3647 8.41401 7.25149 7.89808 7.06674ZM11.9704 5.3L10.2827 3.61271C10.1266 3.45661 9.87334 3.45661 9.71715 3.61277L8.02957 5.29999C7.99269 5.33687 7.9924 5.39446 8.03279 5.4258C8.35865 5.67866 8.98379 5.8647 9.99996 5.8647C11.0161 5.8647 11.6413 5.67866 11.9671 5.4258C12.0076 5.39443 12.0073 5.33685 11.9704 5.3ZM4.02769 12.937L6.11328 10.8512C6.93011 11.2042 8.16451 11.5001 9.99996 11.5001C11.8613 11.5001 13.1045 11.1958 13.921 10.8362L15.9737 12.9372C16.0088 12.9731 16.011 13.029 15.9751 13.0642L15.9651 13.0744C15.8237 13.2211 14.591 14.5 9.99997 14.5C5.40939 14.5 4.17512 13.2198 4.03538 13.0749L4.02556 13.0648C3.98931 13.0293 3.99182 12.9729 4.02769 12.937Z" fill="#99A2AD"/>
</svg>
