<svg width="20" height="20" viewBox="0 0 20 20" fill="none" xmlns="http://www.w3.org/2000/svg">
<path fill-rule="evenodd" clip-rule="evenodd" d="M9 4C6.92893 4 5.25 5.67893 5.25 7.75C5.25 7.97348 5.26947 8.1918 5.30662 8.40352C5.36739 8.74983 5.17944 9.09187 4.85452 9.22623C3.76461 9.67695 3 10.7501 3 12C3 13.6569 4.34315 15 6 15H7C7.41421 15 7.75 15.3358 7.75 15.75C7.75 16.1642 7.41421 16.5 7 16.5H6C3.51472 16.5 1.5 14.4853 1.5 12C1.5 10.3288 2.41089 8.87167 3.76123 8.09574C3.75378 7.98138 3.75 7.86609 3.75 7.75C3.75 4.8505 6.1005 2.5 9 2.5C11.3047 2.5 13.2611 3.98441 13.968 6.04873C16.528 6.39895 18.5 8.59406 18.5 11.25C18.5 14.1495 16.1495 16.5 13.25 16.5H13C12.5858 16.5 12.25 16.1642 12.25 15.75C12.25 15.3358 12.5858 15 13 15H13.25C15.3211 15 17 13.3211 17 11.25C17 9.21781 15.3833 7.56294 13.3662 7.50176C13.0245 7.49139 12.733 7.25119 12.6575 6.91772C12.2792 5.24696 10.7843 4 9 4Z" fill="#99A2AD"/>
<path fill-rule="evenodd" clip-rule="evenodd" d="M10 18C9.58579 18 9.25 17.6642 9.25 17.25L9.25 10.5607L7.53033 12.2803C7.23744 12.5732 6.76256 12.5732 6.46967 12.2803C6.17678 11.9874 6.17678 11.5126 6.46967 11.2197L9.46967 8.21967C9.61032 8.07902 9.80109 8 10 8C10.1989 8 10.3897 8.07902 10.5303 8.21967L13.5303 11.2197C13.8232 11.5126 13.8232 11.9874 13.5303 12.2803C13.2374 12.5732 12.7626 12.5732 12.4697 12.2803L10.75 10.5607L10.75 17.25C10.75 17.6642 10.4142 18 10 18Z" fill="#99A2AD"/>
</svg>
