<svg width="20" height="20" viewBox="0 0 20 20" fill="none" xmlns="http://www.w3.org/2000/svg">
<path fill-rule="evenodd" clip-rule="evenodd" d="M13.003 2.85931C14.1456 1.71674 15.9981 1.71674 17.1406 2.8593C18.2832 4.00186 18.2832 5.85431 17.1406 6.99688L13.5991 10.5384L14.7803 11.7196C15.0732 12.0125 15.0732 12.4874 14.7803 12.7803C14.4874 13.0732 14.0126 13.0732 13.7197 12.7803L12.5384 11.5991L8.38799 15.7495C7.21027 16.9273 5.65049 17.7492 3.99473 17.9809C2.84342 18.1421 1.8579 17.1565 2.01905 16.0052C2.2506 14.3509 3.07095 12.7914 4.24776 11.6146L8.40087 7.4615L7.21966 6.2803C6.92677 5.9874 6.92677 5.51253 7.21966 5.21964C7.51255 4.92674 7.98743 4.92674 8.28032 5.21964L9.46152 6.40084L13.003 2.85931ZM9.46153 8.52216L5.31107 12.6726C4.3894 13.5943 3.7568 14.7683 3.53096 16.0556C3.47342 16.3837 3.64457 16.5216 3.94431 16.469C5.23165 16.2432 6.40566 15.6106 7.32733 14.6889L11.4778 10.5384L9.46153 8.52216Z" fill="#99A2AD"/>
</svg>
