<svg width="20" height="20" viewBox="0 0 20 20" fill="none" xmlns="http://www.w3.org/2000/svg">
<path fill-rule="evenodd" clip-rule="evenodd" d="M7.08218 3.5C5.42212 3.5 5.05884 3.66876 4.71909 3.85046C4.34075 4.0528 4.0528 4.34075 3.85046 4.71909C3.66876 5.05884 3.5 5.42212 3.5 7.08218V12.9178C3.5 14.5779 3.66876 14.9412 3.85046 15.2809C4.0528 15.6593 4.34075 15.9472 4.71909 16.1495C5.05884 16.3312 5.42212 16.5 7.08218 16.5H12.9178C14.5779 16.5 14.9412 16.3312 15.2809 16.1495C15.6593 15.9472 15.9472 15.6593 16.1495 15.2809C16.3312 14.9412 16.5 14.5779 16.5 12.9178V7.08218C16.5 5.42212 16.3312 5.05884 16.1495 4.71909C15.9472 4.34075 15.6593 4.0528 15.2809 3.85046C14.9412 3.66876 14.5779 3.5 12.9178 3.5H7.08218ZM4.01169 2.52774C4.66122 2.18037 5.3068 2 7.08218 2H12.9178C14.6932 2 15.3388 2.18037 15.9883 2.52774C16.6281 2.86988 17.1301 3.37195 17.4723 4.01169C17.8196 4.66122 18 5.3068 18 7.08218V12.9178C18 14.6932 17.8196 15.3388 17.4723 15.9883C17.1301 16.6281 16.6281 17.1301 15.9883 17.4723C15.3388 17.8196 14.6932 18 12.9178 18H7.08218C5.3068 18 4.66122 17.8196 4.01169 17.4723C3.37195 17.1301 2.86988 16.6281 2.52774 15.9883C2.18037 15.3388 2 14.6932 2 12.9178V7.08218C2 5.3068 2.18037 4.66122 2.52774 4.01169C2.86988 3.37195 3.37195 2.86988 4.01169 2.52774Z" fill="#99A2AD"/>
<path d="M6 7.5C6 7.03406 6 6.80109 6.07612 6.61732C6.17761 6.37229 6.37229 6.17761 6.61732 6.07612C6.80109 6 7.03406 6 7.5 6C7.96594 6 8.19891 6 8.38268 6.07612C8.62771 6.17761 8.82239 6.37229 8.92388 6.61732C9 6.80109 9 7.03406 9 7.5V10.5C9 10.9659 9 11.1989 8.92388 11.3827C8.82239 11.6277 8.62771 11.8224 8.38268 11.9239C8.19891 12 7.96594 12 7.5 12C7.03406 12 6.80109 12 6.61732 11.9239C6.37229 11.8224 6.17761 11.6277 6.07612 11.3827C6 11.1989 6 10.9659 6 10.5V7.5Z" fill="#99A2AD"/>
<path d="M11 7.5C11 7.03406 11 6.80109 11.0761 6.61732C11.1776 6.37229 11.3723 6.17761 11.6173 6.07612C11.8011 6 12.0341 6 12.5 6C12.9659 6 13.1989 6 13.3827 6.07612C13.6277 6.17761 13.8224 6.37229 13.9239 6.61732C14 6.80109 14 7.03406 14 7.5V12.5C14 12.9659 14 13.1989 13.9239 13.3827C13.8224 13.6277 13.6277 13.8224 13.3827 13.9239C13.1989 14 12.9659 14 12.5 14C12.0341 14 11.8011 14 11.6173 13.9239C11.3723 13.8224 11.1776 13.6277 11.0761 13.3827C11 13.1989 11 12.9659 11 12.5V7.5Z" fill="#99A2AD"/>
</svg>
