<svg width="20" height="20" viewBox="0 0 20 20" fill="none" xmlns="http://www.w3.org/2000/svg">
<path d="M7 3C7.41421 3 7.75 3.33579 7.75 3.75C7.75 4.16421 7.41421 4.5 7 4.5H5.95486C5.05206 4.5 4.72214 4.56371 4.38264 4.74528C4.10594 4.89326 3.89326 5.10594 3.74528 5.38264C3.59164 5.66991 3.52239 5.95032 3.50472 6.57674L3.5 6.95486V13.0451C3.5 13.9479 3.56371 14.2779 3.74528 14.6174C3.89326 14.8941 4.10594 15.1067 4.38264 15.2547C4.66991 15.4084 4.95032 15.4776 5.57674 15.4953L5.95486 15.5H14.0451C14.9479 15.5 15.2779 15.4363 15.6174 15.2547C15.8941 15.1067 16.1067 14.8941 16.2547 14.6174C16.4363 14.2779 16.5 13.9479 16.5 13.0451V6.95486C16.5 6.05206 16.4363 5.72214 16.2547 5.38264C16.1067 5.10594 15.8941 4.89326 15.6174 4.74528C15.2779 4.56371 14.9479 4.5 14.0451 4.5H13C12.5858 4.5 12.25 4.16421 12.25 3.75C12.25 3.33579 12.5858 3 13 3L14.296 3.00198C15.2613 3.01796 15.7834 3.13301 16.3248 3.42256C16.8629 3.71034 17.2897 4.13714 17.5774 4.67524C17.8911 5.26176 18 5.82561 18 6.95486L17.998 13.296C17.982 14.2613 17.867 14.7834 17.5774 15.3248C17.2897 15.8629 16.8629 16.2897 16.3248 16.5774C15.7382 16.8911 15.1744 17 14.0451 17H5.95486C4.82561 17 4.26176 16.8911 3.67524 16.5774C3.13714 16.2897 2.71034 15.8629 2.42256 15.3248C2.10889 14.7382 2 14.1744 2 13.0451V6.95486C2 5.82561 2.10889 5.26176 2.42256 4.67524C2.71034 4.13714 3.13714 3.71034 3.67524 3.42256C4.26176 3.10889 4.82561 3 5.95486 3H7ZM11.5 11C11.9142 11 12.25 11.3358 12.25 11.75C12.25 12.1642 11.9142 12.5 11.5 12.5H6.25C5.83579 12.5 5.5 12.1642 5.5 11.75C5.5 11.3358 5.83579 11 6.25 11H11.5ZM13.75 8C14.1642 8 14.5 8.33579 14.5 8.75C14.5 9.16421 14.1642 9.5 13.75 9.5H6.25C5.83579 9.5 5.5 9.16421 5.5 8.75C5.5 8.33579 5.83579 8 6.25 8H13.75ZM10.0215 2C10.1855 2 10.3115 2.03017 10.4175 2.08682C10.5234 2.14347 10.6065 2.2266 10.6632 2.33253C10.7198 2.43845 10.75 2.56447 10.75 2.72853V4.77147C10.75 4.93553 10.7198 5.06155 10.6632 5.16747C10.6065 5.2734 10.5234 5.35653 10.4175 5.41318C10.3115 5.46983 10.1855 5.5 10.0215 5.5H9.97853C9.81447 5.5 9.68845 5.46983 9.58253 5.41318C9.4766 5.35653 9.39347 5.2734 9.33682 5.16747C9.28017 5.06155 9.25 4.93553 9.25 4.77147V2.72853C9.25 2.56447 9.28017 2.43845 9.33682 2.33253C9.39347 2.2266 9.4766 2.14347 9.58253 2.08682C9.68845 2.03017 9.81447 2 9.97853 2H10.0215Z" fill="#99A2AD"/>
</svg>
