<svg width="20" height="20" viewBox="0 0 20 20" fill="none" xmlns="http://www.w3.org/2000/svg">
<path fill-rule="evenodd" clip-rule="evenodd" d="M6.42598 18.8858C5.86547 18.6537 5.50001 18.1067 5.50001 17.5V15.5C5.12999 15.4996 4.7812 15.4964 4.4813 15.4719C4.10506 15.4411 3.67576 15.3696 3.24724 15.1512C2.64512 14.8444 2.15558 14.3549 1.84878 13.7528C1.63044 13.3242 1.55889 12.895 1.52815 12.5187C1.49992 12.1732 1.49996 11.7629 1.5 11.3299C1.50015 9.77661 1.50015 8.21742 1.5 6.67009C1.49996 6.23714 1.49992 5.82678 1.52815 5.4813C1.55889 5.10506 1.63044 4.67576 1.84878 4.24724C2.15558 3.64512 2.64512 3.15558 3.24724 2.84879C3.67576 2.63044 4.10506 2.55889 4.4813 2.52815C4.82678 2.49992 5.23714 2.49996 5.67009 2.5C8.5567 2.50027 11.4433 2.5 14.3299 2.5C14.7629 2.49996 15.1732 2.49992 15.5187 2.52815C15.8949 2.55889 16.3242 2.63044 16.7528 2.84879C17.3549 3.15558 17.8444 3.64512 18.1512 4.24724C18.3696 4.67576 18.4411 5.10506 18.4719 5.4813C18.5001 5.82678 18.5 6.23714 18.5 6.6701V11.3299C18.5 11.7629 18.5001 12.1732 18.4719 12.5187C18.4411 12.895 18.3696 13.3242 18.1512 13.7528C17.8444 14.3549 17.3549 14.8444 16.7528 15.1512C16.3242 15.3696 15.8949 15.4411 15.5187 15.4719C15.1732 15.5001 14.7629 15.5001 14.3299 15.5L11.1627 15.5C11.1334 15.5 11.1128 15.5085 11.092 15.5293L8.06067 18.5607C7.63167 18.9897 6.98649 19.118 6.42598 18.8858ZM7.00001 15.12C7.00001 14.728 7.00001 14.532 6.92371 14.3822C6.8566 14.2505 6.74951 14.1434 6.6178 14.0763C6.46806 14 6.27204 14 5.88001 14H5.72001C4.76792 14 4.29187 14 3.92822 13.8147C3.60835 13.6517 3.34828 13.3917 3.18529 13.0718C3.00001 12.7081 3.00001 12.2321 3.00001 11.28V6.72001C3.00001 5.76792 3.00001 5.29187 3.18529 4.92822C3.34828 4.60835 3.60835 4.34828 3.92822 4.1853C4.29187 4.00001 4.76792 4.00001 5.72001 4.00001H14.28C15.2321 4.00001 15.7081 4.00001 16.0718 4.1853C16.3917 4.34828 16.6517 4.60835 16.8147 4.92822C17 5.29187 17 5.76792 17 6.72001V11.28C17 12.2321 17 12.7081 16.8147 13.0718C16.6517 13.3917 16.3917 13.6517 16.0718 13.8147C15.7081 14 15.2321 14 14.28 14H11.1627C10.9182 14 10.7959 14 10.6808 14.0276C10.5787 14.0521 10.4812 14.0925 10.3917 14.1474C10.2908 14.2092 10.2043 14.2957 10.0314 14.4686L7.00001 17.5V15.12Z" fill="#99A2AD"/>
</svg>
