<svg width="20" height="20" viewBox="0 0 20 20" fill="none" xmlns="http://www.w3.org/2000/svg">
<path fill-rule="evenodd" clip-rule="evenodd" d="M15.3309 4.03157C14.9517 4.00058 14.4624 4 13.75 4H7.75C7.33579 4 7 3.66421 7 3.25C7 2.83579 7.33579 2.5 7.75 2.5L13.7814 2.5C14.4548 2.49999 15.0055 2.49998 15.4531 2.53655C15.9163 2.5744 16.3347 2.65514 16.7255 2.85423C17.337 3.16582 17.8342 3.663 18.1458 4.27453C18.3449 4.66527 18.4256 5.08367 18.4634 5.54693C18.5 5.99449 18.5 6.54519 18.5 7.21856V13.25C18.5 13.6642 18.1642 14 17.75 14C17.3358 14 17 13.6642 17 13.25V7.25C17 6.53756 16.9994 6.04833 16.9684 5.66908C16.9382 5.29858 16.8827 5.09956 16.8093 4.95552C16.6415 4.62623 16.3738 4.35852 16.0445 4.19074C15.9004 4.11735 15.7014 4.06184 15.3309 4.03157Z" fill="#99A2AD"/>
<path fill-rule="evenodd" clip-rule="evenodd" d="M5.50001 17.5C5.50001 18.1067 5.86547 18.6537 6.42598 18.8859C6.98649 19.118 7.63167 18.9897 8.06067 18.5607L11.092 15.5293C11.1128 15.5086 11.1334 15.5 11.1627 15.5C12.255 15.5 13.3472 15.5004 14.4394 15.5L16.7197 17.7803C17.0126 18.0732 17.4874 18.0732 17.7803 17.7803C18.0732 17.4874 18.0732 17.0126 17.7803 16.7197L2.28033 1.21967C1.98744 0.926777 1.51256 0.926777 1.21967 1.21967C0.926777 1.51256 0.926777 1.98744 1.21967 2.28033L2.40715 3.46781C2.1843 3.69672 1.99562 3.9591 1.84879 4.24727C1.63044 4.67579 1.55889 5.10509 1.52815 5.48133C1.49992 5.8268 1.49996 6.23715 1.5 6.67008C1.50015 8.21742 1.50015 9.77664 1.5 11.33C1.49996 11.7629 1.49992 12.1733 1.52815 12.5187C1.55889 12.895 1.63044 13.3243 1.84879 13.7528C2.15558 14.3549 2.64512 14.8445 3.24724 15.1513C3.67576 15.3696 4.10506 15.4412 4.4813 15.4719C4.7812 15.4964 5.12999 15.4996 5.50001 15.5V17.5ZM6.92371 14.3822C7.00001 14.532 7.00001 14.728 7.00001 15.12V17.5L10.0314 14.4687C10.2043 14.2957 10.2908 14.2092 10.3917 14.1474C10.4812 14.0926 10.5787 14.0522 10.6808 14.0277C10.7959 14 10.9182 14 11.1627 14H12.9394L3.46799 4.52865C3.35566 4.6468 3.26022 4.78121 3.1853 4.92825C3.00001 5.2919 3.00001 5.76795 3.00001 6.72004V11.28C3.00001 12.2321 3.00001 12.7082 3.1853 13.0718C3.34828 13.3917 3.60835 13.6518 3.92822 13.8147C4.29187 14 4.76792 14 5.72001 14H5.88001C6.27204 14 6.46806 14 6.6178 14.0763C6.74951 14.1434 6.8566 14.2505 6.92371 14.3822Z" fill="#99A2AD"/>
</svg>
