<svg width="20" height="20" viewBox="0 0 20 20" fill="none" xmlns="http://www.w3.org/2000/svg">
<path fill-rule="evenodd" clip-rule="evenodd" d="M13.6799 7.33202C13.8884 6.70661 13.2934 6.11162 12.668 6.32009L8.28654 7.78056C8.04766 7.86019 7.86021 8.04764 7.78058 8.28652L6.32011 12.6679C6.11164 13.2933 6.70662 13.8883 7.33204 13.6799L11.7135 12.2194C11.9523 12.1398 12.1398 11.9523 12.2194 11.7134L13.6799 7.33202ZM9.09293 9.0929L11.8141 8.18583L10.9071 10.907L8.18585 11.8141L9.09293 9.0929Z" fill="#99A2AD"/>
<path fill-rule="evenodd" clip-rule="evenodd" d="M10 1.5C5.30558 1.5 1.5 5.30558 1.5 10C1.5 14.6944 5.30558 18.5 10 18.5C14.6944 18.5 18.5 14.6944 18.5 10C18.5 5.30558 14.6944 1.5 10 1.5ZM3 10C3 6.13401 6.13401 3 10 3C13.866 3 17 6.13401 17 10C17 13.866 13.866 17 10 17C6.13401 17 3 13.866 3 10Z" fill="#99A2AD"/>
</svg>
