<svg width="21" height="21" viewBox="0 0 21 21" fill="none" xmlns="http://www.w3.org/2000/svg">
<path fill-rule="evenodd" clip-rule="evenodd" d="M5.91957 2.5H14.0804C14.6146 2.49999 15.0604 2.49998 15.4247 2.52974C15.8046 2.56078 16.1612 2.62789 16.4985 2.79973C17.0159 3.06338 17.4366 3.48408 17.7003 4.00153C17.8721 4.33879 17.9392 4.69545 17.9703 5.07533C18 5.43956 18 5.8854 18 6.41955V10.5805C18 11.1146 18 11.5604 17.9703 11.9247C17.9392 12.3046 17.8721 12.6612 17.7003 12.9985C17.4366 13.5159 17.0159 13.9366 16.4985 14.2003C16.1612 14.3721 15.8046 14.4392 15.4247 14.4703C15.0604 14.5 14.6146 14.5 14.0805 14.5H12.5441L12.7109 16.5H15C15.4142 16.5 15.75 16.8358 15.75 17.25C15.75 17.6642 15.4142 18 15 18H5C4.58579 18 4.25 17.6642 4.25 17.25C4.25 16.8358 4.58579 16.5 5 16.5H7.28907L7.45573 14.5H5.91955C5.3854 14.5 4.93956 14.5 4.57533 14.4703C4.19545 14.4392 3.83879 14.3721 3.50153 14.2003C2.98408 13.9366 2.56338 13.5159 2.29973 12.9985C2.12789 12.6612 2.06078 12.3046 2.02974 11.9247C1.99998 11.5604 1.99999 11.1146 2 10.5804V6.41957C1.99999 5.88541 1.99998 5.43956 2.02974 5.07533C2.06078 4.69545 2.12789 4.33879 2.29973 4.00153C2.56338 3.48408 2.98408 3.06338 3.50153 2.79973C3.83879 2.62789 4.19545 2.56078 4.57533 2.52974C4.93956 2.49998 5.38541 2.49999 5.91957 2.5ZM8.96093 14.5L8.79427 16.5H11.2057L11.0389 14.5H8.96093ZM4.69748 4.02476C4.41036 4.04822 4.27307 4.0901 4.18251 4.13624C3.94731 4.25608 3.75608 4.44731 3.63624 4.68251C3.5901 4.77307 3.54822 4.91036 3.52476 5.19748C3.50058 5.49336 3.5 5.87757 3.5 6.45V10.55C3.5 11.1224 3.50058 11.5066 3.52476 11.8025C3.54822 12.0896 3.5901 12.2269 3.63624 12.3175C3.75608 12.5527 3.94731 12.7439 4.18251 12.8638C4.27307 12.9099 4.41036 12.9518 4.69748 12.9752C4.99336 12.9994 5.37757 13 5.95 13H14.05C14.6224 13 15.0066 12.9994 15.3025 12.9752C15.5896 12.9518 15.7269 12.9099 15.8175 12.8638C16.0527 12.7439 16.2439 12.5527 16.3638 12.3175C16.4099 12.2269 16.4518 12.0896 16.4752 11.8025C16.4994 11.5066 16.5 11.1224 16.5 10.55V6.45C16.5 5.87757 16.4994 5.49336 16.4752 5.19748C16.4518 4.91036 16.4099 4.77307 16.3638 4.68251C16.2439 4.44731 16.0527 4.25608 15.8175 4.13624C15.7269 4.0901 15.5896 4.04822 15.3025 4.02476C15.0066 4.00058 14.6224 4 14.05 4H5.95C5.37757 4 4.99336 4.00058 4.69748 4.02476Z" fill="#99A2AD"/>
</svg>
