<svg width="20" height="20" viewBox="0 0 20 20" fill="none" xmlns="http://www.w3.org/2000/svg">
<path fill-rule="evenodd" clip-rule="evenodd" d="M17 10C17 13.866 13.866 17 10 17C6.13401 17 3 13.866 3 10C3 6.13401 6.13401 3 10 3C13.866 3 17 6.13401 17 10ZM18.5 10C18.5 14.6944 14.6944 18.5 10 18.5C5.30558 18.5 1.5 14.6944 1.5 10C1.5 5.30558 5.30558 1.5 10 1.5C14.6944 1.5 18.5 5.30558 18.5 10ZM7.5 10C7.5 8.61929 8.61929 7.5 10 7.5C10.581 7.5 11.1138 7.69726 11.5381 8.02895C11.8644 8.28406 12.3358 8.22633 12.5909 7.9C12.846 7.57368 12.7883 7.10232 12.4619 6.84721C11.7832 6.31663 10.9275 6 10 6C7.79086 6 6 7.79086 6 10C6 12.2091 7.79086 14 10 14C10.9275 14 11.7832 13.6834 12.4619 13.1528C12.7883 12.8977 12.846 12.4263 12.5909 12.1C12.3358 11.7737 11.8644 11.7159 11.5381 11.9711C11.1138 12.3027 10.581 12.5 10 12.5C8.61929 12.5 7.5 11.3807 7.5 10Z" fill="#99A2AD"/>
</svg>
