<svg width="20" height="20" viewBox="0 0 20 20" fill="none" xmlns="http://www.w3.org/2000/svg">
<path d="M9.2 3C7.91513 3 7.04169 3.00117 6.36656 3.05633C5.70893 3.11006 5.37263 3.20745 5.13803 3.32698C4.57354 3.6146 4.1146 4.07354 3.82698 4.63803C3.70745 4.87263 3.61006 5.20893 3.55633 5.86656C3.50117 6.54169 3.5 7.41513 3.5 8.7V11.3C3.5 11.8848 3.50117 12.2332 3.52227 12.4914C3.53128 12.6017 3.5423 12.6673 3.55 12.7028V12.8C3.55 13.5611 3.55 14.0636 3.61838 14.4418C3.41332 14.4096 3.24429 14.3596 3.09202 14.282C2.71569 14.0903 2.40973 13.7843 2.21799 13.408C2 12.9802 2 12.4201 2 11.3V8.7C2 6.17976 2 4.91965 2.49047 3.95704C2.9219 3.11031 3.61031 2.4219 4.45704 1.99047C5.41965 1.5 6.67976 1.5 9.2 1.5H11.2C12.3201 1.5 12.8802 1.5 13.308 1.71799C13.6843 1.90973 13.9903 2.21569 14.182 2.59202C14.2519 2.72915 14.2994 2.87986 14.3316 3.05824C13.9605 3 13.4714 3 12.75 3H9.2Z" fill="#99A2AD"/>
<path fill-rule="evenodd" clip-rule="evenodd" d="M5.1 7.7C5.1 6.5799 5.1 6.01984 5.31799 5.59202C5.50973 5.21569 5.81569 4.90973 6.19202 4.71799C6.61984 4.5 7.17989 4.5 8.3 4.5H14.3C15.4201 4.5 15.9802 4.5 16.408 4.71799C16.7843 4.90973 17.0903 5.21569 17.282 5.59202C17.5 6.01984 17.5 6.5799 17.5 7.7V15.3C17.5 16.4201 17.5 16.9802 17.282 17.408C17.0903 17.7843 16.7843 18.0903 16.408 18.282C15.9802 18.5 15.4201 18.5 14.3 18.5H8.3C7.1799 18.5 6.61984 18.5 6.19202 18.282C5.81569 18.0903 5.50973 17.7843 5.31799 17.408C5.1 16.9802 5.1 16.4201 5.1 15.3V7.7ZM8.3 6H14.3C14.8848 6 15.2332 6.00117 15.4914 6.02227C15.6491 6.03514 15.7153 6.05214 15.7331 6.05765C15.8224 6.10469 15.8953 6.17765 15.9424 6.26693C15.9479 6.28468 15.9649 6.35094 15.9777 6.50855C15.9988 6.76681 16 7.1152 16 7.7V15.3C16 15.8848 15.9988 16.2332 15.9777 16.4914C15.9649 16.6491 15.9479 16.7153 15.9424 16.7331C15.8953 16.8224 15.8224 16.8953 15.7331 16.9424C15.7153 16.9479 15.6491 16.9649 15.4914 16.9777C15.2332 16.9988 14.8848 17 14.3 17H8.3C7.7152 17 7.36681 16.9988 7.10855 16.9777C6.95094 16.9649 6.88469 16.9479 6.86693 16.9424C6.77765 16.8953 6.70469 16.8224 6.65765 16.7331C6.65214 16.7153 6.63514 16.6491 6.62227 16.4914C6.60117 16.2332 6.6 15.8848 6.6 15.3V7.7C6.6 7.1152 6.60117 6.76681 6.62227 6.50855C6.63514 6.35093 6.65214 6.28468 6.65765 6.26693C6.70469 6.17765 6.77765 6.10469 6.86693 6.05765C6.88468 6.05214 6.95094 6.03514 7.10855 6.02227C7.36681 6.00117 7.7152 6 8.3 6ZM15.7383 6.05945L15.7352 6.05833C15.7374 6.05904 15.7383 6.05943 15.7383 6.05945ZM15.9405 6.26175C15.9406 6.26169 15.941 6.26264 15.9417 6.26478L15.9405 6.26175ZM15.9405 16.7383L15.9417 16.7352C15.941 16.7373 15.9406 16.7383 15.9405 16.7383ZM15.7382 16.9405C15.7383 16.9406 15.7374 16.9409 15.7353 16.9417L15.7382 16.9405ZM6.86175 16.9405L6.86478 16.9417C6.86265 16.941 6.86169 16.9406 6.86175 16.9405ZM6.65945 16.7383C6.65943 16.7383 6.65904 16.7374 6.65833 16.7352L6.65945 16.7383ZM6.65945 6.26175L6.65833 6.26478C6.65904 6.26264 6.65943 6.26169 6.65945 6.26175ZM6.86214 6.05927C6.86212 6.05926 6.86185 6.05938 6.86214 6.05927L6.86478 6.05833C6.86347 6.05877 6.8626 6.05908 6.86214 6.05927Z" fill="#99A2AD"/>
</svg>
