<svg width="20" height="20" viewBox="0 0 20 20" fill="none" xmlns="http://www.w3.org/2000/svg">
<path fill-rule="evenodd" clip-rule="evenodd" d="M9.40707 1.54722C9.79997 1.48426 10.2004 1.48426 10.5933 1.54722C11.0379 1.61847 11.4587 1.79515 12.0667 2.05041C12.093 2.06143 12.1196 2.07259 12.1465 2.0839L16.5684 3.93891C16.5995 3.95196 16.6304 3.96486 16.661 3.97765C17.1004 4.16129 17.4866 4.32264 17.7825 4.59801C18.0416 4.83901 18.2401 5.13772 18.3621 5.46988C18.5015 5.8494 18.5009 6.26803 18.5003 6.74448C18.5002 6.77766 18.5002 6.81113 18.5002 6.84488V12.6229C18.5002 12.6623 18.5002 12.7012 18.5003 12.7396C18.5008 13.3941 18.5013 13.9077 18.3315 14.37C18.1824 14.776 17.9397 15.1411 17.6231 15.4356C17.2625 15.7711 16.7889 15.9693 16.1854 16.2218C16.15 16.2367 16.1141 16.2517 16.0778 16.2669L12.1465 17.9161C12.1196 17.9274 12.093 17.9386 12.0667 17.9496C11.4588 18.2048 11.0379 18.3815 10.5933 18.4528C10.2004 18.5157 9.79997 18.5157 9.40707 18.4528C8.96244 18.3815 8.54162 18.2048 7.93364 17.9496C7.9074 17.9386 7.88081 17.9274 7.85385 17.9161L3.92261 16.2669C3.88628 16.2517 3.8504 16.2367 3.81496 16.2218C3.21144 15.9693 2.73783 15.7711 2.3773 15.4356C2.06072 15.1411 1.81802 14.776 1.66891 14.37C1.4991 13.9077 1.49954 13.3941 1.50012 12.7396C1.50015 12.7012 1.50018 12.6623 1.50018 12.6229V6.84488C1.50018 6.81113 1.50014 6.77766 1.50009 6.74447C1.49942 6.26803 1.49884 5.8494 1.63823 5.46988C1.76023 5.13772 1.9588 4.83901 2.21782 4.59801C2.51378 4.32264 2.89993 4.16129 3.33939 3.97765C3.37001 3.96486 3.40088 3.95196 3.432 3.93891L7.85385 2.0839C7.88081 2.07259 7.9074 2.06143 7.93365 2.05041C8.54162 1.79515 8.96244 1.61847 9.40707 1.54722ZM10.7502 16.8622C10.9361 16.7952 11.1847 16.6924 11.5664 16.5323L15.4977 14.8831C16.2612 14.5628 16.4621 14.4665 16.6015 14.3369C16.7454 14.203 16.8557 14.037 16.9235 13.8525C16.9891 13.6738 17.0002 13.4512 17.0002 12.6229V6.87213L12.1465 8.90828C12.1196 8.91959 12.093 8.93076 12.0667 8.94177C11.5284 9.16777 11.1369 9.33218 10.7456 9.41635C10.7486 9.44375 10.7502 9.4716 10.7502 9.49982V16.8622ZM9.25477 9.41635C9.25174 9.44375 9.25018 9.4716 9.25018 9.49982V16.8622C9.06422 16.7952 8.81564 16.6924 8.43394 16.5323L4.50271 14.8831C3.73916 14.5628 3.53823 14.4665 3.39887 14.3369C3.25497 14.203 3.14466 14.037 3.07688 13.8525C3.01124 13.6738 3.00018 13.4512 3.00018 12.6229V6.87213L7.85385 8.90828C7.88081 8.91959 7.9074 8.93076 7.93364 8.94177C8.47192 9.16777 8.86349 9.33218 9.25477 9.41635ZM3.60301 5.49787L8.43394 7.52449C9.15212 7.82577 9.39903 7.924 9.64431 7.9633C9.88006 8.00108 10.1203 8.00108 10.3561 7.9633C10.6013 7.924 10.8483 7.82577 11.5664 7.52449L12.292 7.22011L6.26013 4.6897C6.15197 4.64433 6.06003 4.57656 5.98742 4.49404L4.01209 5.3227C3.83755 5.39592 3.70503 5.45258 3.60301 5.49787ZM7.82992 3.72109L14.2313 6.40654L16.3974 5.49787C16.2953 5.45258 16.1628 5.39592 15.9883 5.3227L11.5664 3.4677C10.8483 3.16642 10.6013 3.06819 10.3561 3.02888C10.1203 2.99111 9.88006 2.99111 9.64431 3.02888C9.39903 3.06819 9.15212 3.16642 8.43394 3.4677L7.82992 3.72109Z" fill="#99A2AD"/>
</svg>
