<svg width="20" height="20" viewBox="0 0 20 20" fill="none" xmlns="http://www.w3.org/2000/svg">
<path fill-rule="evenodd" clip-rule="evenodd" d="M7.983 2.24999H6C5.18008 2.24999 4.34513 2.61798 3.81386 3.28207L0.931698 6.88477C0.667838 7.2146 0.540545 7.61527 0.548575 8.01331C0.548621 8.01559 0.548672 8.01788 0.548727 8.02017C0.558166 8.4121 0.698827 8.80106 0.96952 9.11687L8.6713 18.1023C9.36971 18.9171 10.6303 18.9171 11.3287 18.1023L19.0305 9.11687C19.3011 8.80112 19.4418 8.41225 19.4513 8.02039C19.4513 8.01763 19.4514 8.01486 19.4514 8.0121C19.4592 7.61446 19.3319 7.21426 19.0683 6.88477L16.1861 3.28207C15.6549 2.61799 14.8199 2.24999 14 2.24999H11.9825C11.994 2.24972 11.971 2.24972 11.9825 2.24999H7.983C7.97149 2.24972 7.99447 2.24972 7.983 2.24999ZM11.4922 3.74999H8.50778L7.10778 7.24999H12.8922L11.4922 3.74999ZM13.1077 3.74999L14.5077 7.24999H17.4395L15.0148 4.21912C14.787 3.93434 14.3952 3.74999 14 3.74999H13.1077ZM17.3693 8.74999H14.4874L11.3838 15.7331L17.3693 8.74999ZM10 15.1533L12.8459 8.74999H7.15408L10 15.1533ZM5.5126 8.74999L8.61622 15.7331L2.63066 8.74999H5.5126ZM5.49223 7.24999L6.89223 3.74999H6C5.60479 3.74999 5.21298 3.93435 4.98516 4.21912L2.56046 7.24999H5.49223Z" fill="#99A2AD"/>
</svg>
