<svg width="20" height="20" viewBox="0 0 20 20" fill="none" xmlns="http://www.w3.org/2000/svg">
<path d="M12.8702 7.17649C13.106 6.83593 13.0211 6.36871 12.6805 6.13293C12.3399 5.89716 11.8727 5.9821 11.637 6.32266L7.1369 12.8226C6.90112 13.1632 6.98606 13.6304 7.32662 13.8662C7.66718 14.102 8.1344 14.017 8.37018 13.6765L12.8702 7.17649Z" fill="#99A2AD"/>
<path d="M11 12.5C11 11.9477 11.4477 11.5 12 11.5C12.5523 11.5 13 11.9477 13 12.5V13C13 13.5523 12.5523 14 12 14C11.4477 14 11 13.5523 11 13V12.5Z" fill="#99A2AD"/>
<path d="M8 6C7.44772 6 7 6.44772 7 7V7.5C7 8.05228 7.44772 8.5 8 8.5C8.55228 8.5 9 8.05228 9 7.5V7C9 6.44772 8.55228 6 8 6Z" fill="#99A2AD"/>
<path fill-rule="evenodd" clip-rule="evenodd" d="M7.37019 2.86923L7.38889 2.86972L7.4029 2.85732C7.44737 2.81786 7.49848 2.77151 7.56615 2.71011L7.60367 2.67606C7.85146 2.45115 8.10924 2.21717 8.34944 2.03787C8.62199 1.83443 8.98342 1.61321 9.45589 1.52065C9.7987 1.45349 10.1513 1.45349 10.4941 1.52065C10.9666 1.61321 11.328 1.83443 11.6006 2.03787C11.8407 2.21716 12.0985 2.45114 12.3463 2.67606L12.3838 2.71011C12.4515 2.77151 12.5026 2.81786 12.5471 2.85732L12.5611 2.86972L12.5798 2.86923C12.6392 2.86758 12.7082 2.86493 12.7995 2.8614L12.8501 2.85943C13.1845 2.84641 13.5324 2.83287 13.8316 2.84992C14.1712 2.86926 14.5902 2.93212 15.0117 3.16491C15.3175 3.33382 15.5876 3.56046 15.807 3.83226C16.1094 4.20687 16.2441 4.60865 16.3221 4.9397C16.3909 5.23143 16.4379 5.57635 16.4832 5.90792L16.49 5.95814C16.5024 6.04868 16.5118 6.11703 16.5205 6.17585L16.5232 6.19435L16.5379 6.206C16.5845 6.24294 16.639 6.28522 16.7112 6.34121L16.7512 6.37223C17.0158 6.5772 17.291 6.79044 17.5092 6.99586C17.7569 7.22894 18.0375 7.54647 18.2108 7.99569C18.3364 8.32163 18.3976 8.66886 18.391 9.01813C18.3819 9.49949 18.2268 9.89384 18.0738 10.1976C17.9389 10.4653 17.7533 10.7598 17.5748 11.0428L17.5478 11.0857C17.4991 11.163 17.4623 11.2214 17.4312 11.272L17.4214 11.288L17.4251 11.3063C17.4371 11.3646 17.4516 11.432 17.471 11.5213L17.4817 11.5709C17.5526 11.8979 17.6263 12.2381 17.6615 12.5358C17.7014 12.8735 17.7123 13.2971 17.5562 13.7526C17.443 14.0831 17.2667 14.3884 17.0371 14.6517C16.7207 15.0146 16.3484 15.217 16.036 15.3513C15.7606 15.4697 15.4291 15.5759 15.1104 15.6781L15.0621 15.6935C14.9751 15.7215 14.9094 15.7425 14.853 15.7613L14.8353 15.7673L14.8264 15.7837C14.7981 15.836 14.7659 15.897 14.7233 15.9779L14.6997 16.0227C14.5438 16.3188 14.3816 16.6268 14.2172 16.8775C14.0306 17.1619 13.7667 17.4933 13.3543 17.7419C13.0552 17.9223 12.7239 18.0429 12.3787 18.097C11.9031 18.1716 11.4878 18.0874 11.1621 17.9894C10.8751 17.9031 10.5528 17.7714 10.2431 17.6448L10.1962 17.6256C10.1116 17.5911 10.0477 17.565 9.9924 17.5431L9.975 17.5363L9.95759 17.5431C9.9023 17.565 9.83843 17.5911 9.75383 17.6256L9.70691 17.6448C9.39714 17.7714 9.07489 17.9031 8.78787 17.9894C8.46217 18.0874 8.04688 18.1716 7.57124 18.097C7.22613 18.0429 6.89481 17.9223 6.59564 17.7419C6.18332 17.4933 5.91935 17.1619 5.73282 16.8775C5.56843 16.6268 5.40622 16.3188 5.2503 16.0227L5.22669 15.9779C5.1841 15.897 5.15192 15.836 5.12363 15.7837L5.11471 15.7673L5.09697 15.7613C5.04055 15.7425 4.97486 15.7215 4.88785 15.6935L4.83961 15.6781C4.52093 15.5759 4.1894 15.4697 3.91404 15.3513C3.60157 15.217 3.22928 15.0146 2.91288 14.6517C2.68331 14.3884 2.50701 14.0831 2.39377 13.7526C2.2377 13.2971 2.24856 12.8735 2.28848 12.5358C2.32365 12.2381 2.39739 11.8979 2.46828 11.5708L2.47901 11.5213C2.49835 11.432 2.51293 11.3646 2.52487 11.3063L2.5286 11.288L2.51883 11.272C2.48768 11.2214 2.45092 11.163 2.4022 11.0857L2.37518 11.0428C2.19671 10.7598 2.01105 10.4653 1.87619 10.1976C1.72316 9.89384 1.56807 9.49949 1.55896 9.01813C1.55234 8.66886 1.61357 8.32163 1.73924 7.99569C1.91244 7.54647 2.19306 7.22894 2.44074 6.99586C2.65902 6.79045 2.9342 6.57722 3.19873 6.37225L3.23878 6.34121C3.311 6.28522 3.36552 6.24294 3.41211 6.206L3.42675 6.19435L3.42951 6.17585C3.43821 6.11703 3.44757 6.04868 3.45994 5.95814L3.4668 5.90794C3.51204 5.57637 3.55911 5.23143 3.62787 4.9397C3.70588 4.60865 3.84056 4.20687 4.14299 3.83226C4.36243 3.56046 4.63253 3.33382 4.93831 3.16491C5.35974 2.93212 5.77881 2.86926 6.11837 2.84992C6.41761 2.83287 6.76549 2.84641 7.09988 2.85943L7.1505 2.8614C7.24182 2.86493 7.31075 2.86758 7.37019 2.86923ZM8.57407 3.82102C9.13552 3.31163 9.41624 3.05693 9.74428 2.99266C9.89664 2.96281 10.0533 2.96281 10.2057 2.99266C10.5338 3.05693 10.8145 3.31163 11.3759 3.82102C11.6397 4.06031 11.7715 4.17996 11.927 4.25523C12.0004 4.29075 12.0772 4.31871 12.1562 4.33866C12.3237 4.38094 12.5017 4.37405 12.8575 4.36027C13.615 4.33095 13.9938 4.31629 14.2864 4.47792C14.4223 4.55299 14.5424 4.65371 14.6399 4.77452C14.8499 5.03461 14.9012 5.41017 15.0039 6.16128C15.0521 6.51411 15.0762 6.69053 15.1469 6.84814C15.1803 6.92251 15.2212 6.9933 15.2689 7.05939C15.37 7.19943 15.5107 7.30853 15.7922 7.52671C16.3913 7.99118 16.6909 8.22341 16.8112 8.53531C16.867 8.68017 16.8942 8.8345 16.8913 8.98973C16.885 9.32395 16.6829 9.64463 16.2787 10.286C16.0889 10.5873 15.994 10.7379 15.9468 10.9041C15.9246 10.9826 15.9104 11.0631 15.9045 11.1444C15.8919 11.3166 15.9296 11.4907 16.005 11.8387C16.1654 12.5797 16.2456 12.9501 16.1372 13.2663C16.0869 13.4132 16.0085 13.5489 15.9065 13.666C15.6868 13.9179 15.3259 14.0337 14.604 14.2652C14.2649 14.374 14.0954 14.4284 13.9524 14.5254C13.885 14.5712 13.8224 14.6237 13.7656 14.6822C13.6452 14.8061 13.5622 14.9636 13.3962 15.2787C13.0429 15.9494 12.8662 16.2847 12.5799 16.4573C12.4469 16.5375 12.2997 16.5911 12.1463 16.6151C11.816 16.6669 11.4651 16.5236 10.7633 16.237C10.4336 16.1023 10.2688 16.035 10.097 16.0174C10.0159 16.0091 9.93413 16.0091 9.85303 16.0174C9.68118 16.035 9.51634 16.1023 9.18666 16.237C8.48485 16.5236 8.13394 16.6669 7.8037 16.6151C7.65032 16.5911 7.50306 16.5375 7.3701 16.4573C7.08382 16.2847 6.90714 15.9494 6.55377 15.2787C6.38777 14.9636 6.30477 14.8061 6.18441 14.6822C6.12762 14.6237 6.06501 14.5712 5.99756 14.5254C5.85462 14.4284 5.68507 14.374 5.34597 14.2652C4.6241 14.0337 4.26316 13.9179 4.04348 13.666C3.94145 13.5489 3.8631 13.4132 3.81277 13.2663C3.70441 12.9501 3.78462 12.5797 3.94504 11.8387C4.0204 11.4907 4.05808 11.3166 4.04553 11.1444C4.0396 11.0631 4.02541 10.9826 4.00317 10.9041C3.95604 10.7379 3.86111 10.5873 3.67125 10.286C3.2671 9.64463 3.06502 9.32395 3.05869 8.98973C3.05575 8.8345 3.08296 8.68017 3.13881 8.53531C3.25907 8.22341 3.55864 7.99118 4.15779 7.52671C4.43925 7.30853 4.57997 7.19943 4.6811 7.05939C4.72883 6.9933 4.76969 6.92251 4.80306 6.84814C4.87378 6.69053 4.8979 6.51412 4.94613 6.16128C5.04879 5.41017 5.10012 5.03461 5.31011 4.77452C5.40764 4.65371 5.52768 4.55299 5.66358 4.47792C5.95619 4.31629 6.33495 4.33095 7.09248 4.36027C7.44833 4.37405 7.62626 4.38094 7.79375 4.33866C7.87279 4.31871 7.94959 4.29075 8.02296 4.25523C8.17845 4.17995 8.31032 4.06031 8.57407 3.82102Z" fill="#99A2AD"/>
</svg>
