<svg width="20" height="20" viewBox="0 0 20 20" fill="none" xmlns="http://www.w3.org/2000/svg">
<path fill-rule="evenodd" clip-rule="evenodd" d="M17.2053 6.78343C17.3149 6.96237 17.3957 7.15746 17.4447 7.36154C17.5 7.59171 17.5 7.8363 17.5 8.32548V11.3C17.5 13.8202 17.5 15.0804 17.0095 16.043C16.5781 16.8897 15.8897 17.5781 15.043 18.0095C14.0804 18.5 12.8202 18.5 10.3 18.5H9.7C7.17976 18.5 5.91965 18.5 4.95704 18.0095C4.11031 17.5781 3.4219 16.8897 2.99047 16.043C2.5 15.0804 2.5 13.8202 2.5 11.3V8.7C2.5 6.17976 2.5 4.91965 2.99047 3.95704C3.4219 3.11031 4.11031 2.4219 4.95704 1.99047C5.91965 1.5 7.17976 1.5 9.7 1.5H10.6745C11.1637 1.5 11.4083 1.5 11.6385 1.55526C11.8425 1.60425 12.0376 1.68506 12.2166 1.79472C12.4184 1.9184 12.5914 2.09135 12.9373 2.43726L16.5627 6.06274C16.9086 6.40864 17.0816 6.5816 17.2053 6.78343ZM10.3 17H9.7C8.41513 17 7.54169 16.9988 6.86656 16.9437C6.20893 16.8899 5.87263 16.7926 5.63803 16.673C5.07354 16.3854 4.6146 15.9265 4.32698 15.362C4.20745 15.1274 4.11006 14.7911 4.05633 14.1334C4.00117 13.4583 4 12.5849 4 11.3V8.7C4 7.41513 4.00117 6.54169 4.05633 5.86656C4.11006 5.20893 4.20745 4.87263 4.32698 4.63803C4.6146 4.07354 5.07354 3.6146 5.63803 3.32698C5.87263 3.20745 6.20893 3.11006 6.86656 3.05633C7.54169 3.00117 8.41513 3 9.7 3H10V4.25V4.28142C9.99999 4.9548 9.99998 5.5055 10.0366 5.95307C10.0744 6.41633 10.1551 6.83473 10.3542 7.22547C10.6658 7.837 11.163 8.33418 11.7745 8.64577C12.1653 8.84486 12.5837 8.9256 13.0469 8.96345C13.4945 9.00002 14.0452 9.00001 14.7186 9H14.75H16V11.3C16 12.5849 15.9988 13.4583 15.9437 14.1334C15.8899 14.7911 15.7926 15.1274 15.673 15.362C15.3854 15.9265 14.9265 16.3854 14.362 16.673C14.1274 16.7926 13.7911 16.8899 13.1334 16.9437C12.4583 16.9988 11.5849 17 10.3 17ZM15.87 7.5H14.75C14.0376 7.5 13.5483 7.49942 13.1691 7.46843C12.7986 7.43816 12.5996 7.38265 12.4555 7.30926C12.1262 7.14148 11.8585 6.87377 11.6907 6.54448C11.6173 6.40044 11.5618 6.20142 11.5316 5.83092C11.5006 5.45167 11.5 4.96244 11.5 4.25V3.12998C11.5037 3.13335 11.5077 3.13691 11.5118 3.14066C11.5924 3.21421 11.6944 3.31573 11.8766 3.49792L15.5021 7.1234C15.6843 7.30559 15.7858 7.40762 15.8593 7.48822C15.8631 7.49233 15.8666 7.49625 15.87 7.5Z" fill="#99A2AD"/>
</svg>
