<svg width="20" height="20" viewBox="0 0 20 20" fill="none" xmlns="http://www.w3.org/2000/svg">
<path fill-rule="evenodd" clip-rule="evenodd" d="M9.25284 2.10712L9.28572 2.10712C9.69993 2.10712 10.0357 2.4429 10.0357 2.85712C10.0357 3.27133 9.69993 3.60712 9.28572 3.60712C8.14377 3.60712 7.33214 3.60769 6.69774 3.65916C6.0716 3.70995 5.6855 3.80654 5.38168 3.96135C4.77015 4.27293 4.27296 4.77012 3.96138 5.38165C3.80624 5.68612 3.70986 6.07037 3.65915 6.691C3.60773 7.32038 3.60715 8.12464 3.60715 9.25712V10.7428C3.60715 11.8753 3.60773 12.6796 3.65915 13.3089C3.70986 13.9296 3.80624 14.3138 3.96138 14.6183C4.27296 15.2298 4.77015 15.727 5.38168 16.0386C5.6855 16.1934 6.0716 16.29 6.69774 16.3408C7.33214 16.3923 8.14377 16.3928 9.28572 16.3928C9.69993 16.3928 10.0357 16.7286 10.0357 17.1428C10.0357 17.557 9.69993 17.8928 9.28572 17.8928H9.25282C8.15106 17.8928 7.27862 17.8928 6.57645 17.8359C5.85906 17.7777 5.25251 17.6563 4.70069 17.3751C3.80692 16.9197 3.08026 16.1931 2.62487 15.2993C2.34403 14.7481 2.22242 14.1445 2.16414 13.4311C2.10714 12.7335 2.10714 11.868 2.10715 10.7758V9.22412C2.10714 8.13197 2.10714 7.26647 2.16414 6.56885C2.22242 5.85546 2.34403 5.25184 2.62487 4.70066C3.08027 3.80689 3.80692 3.08023 4.70069 2.62484C5.25251 2.34367 5.85906 2.22227 6.57645 2.16407C7.27862 2.10711 8.15107 2.10711 9.25284 2.10712ZM13.7554 6.6125C14.0483 6.31961 14.5232 6.31961 14.816 6.6125L17.6732 9.46964C17.9661 9.76254 17.9661 10.2374 17.6732 10.5303L14.816 13.3874C14.5232 13.6803 14.0483 13.6803 13.7554 13.3874C13.4625 13.0946 13.4625 12.6197 13.7554 12.3268L15.3322 10.75H8.57143C8.15722 10.75 7.82143 10.4142 7.82143 9.99997C7.82143 9.58576 8.15722 9.24997 8.57143 9.24997H15.3322L13.7554 7.67316C13.4625 7.38027 13.4625 6.90539 13.7554 6.6125Z" fill="#99A2AD"/>
</svg>
