<svg width="20" height="20" viewBox="0 0 20 20" fill="none" xmlns="http://www.w3.org/2000/svg">
<path fill-rule="evenodd" clip-rule="evenodd" d="M4 17.75C4 17.3358 4.33579 17 4.75 17H15.25C15.6642 17 16 17.3358 16 17.75C16 18.1642 15.6642 18.5 15.25 18.5H4.75C4.33579 18.5 4 18.1642 4 17.75Z" fill="#99A2AD"/>
<path d="M10.7493 2.72581C10.7493 2.32495 10.4138 2 9.99999 2C9.58614 2 9.25066 2.32495 9.25066 2.72581L9.25065 12.4478L5.28033 8.47751C4.98744 8.18462 4.51256 8.18462 4.21967 8.47751C3.92678 8.7704 3.92678 9.24528 4.21967 9.53817L9.46499 14.7835C9.75789 15.0764 10.2328 15.0764 10.5257 14.7835L15.7815 9.52765C16.0744 9.23475 16.0744 8.75988 15.7815 8.46698C15.4886 8.17409 15.0137 8.17409 14.7209 8.46698L10.7493 12.4385L10.7493 2.72581Z" fill="#99A2AD"/>
</svg>
