<svg width="20" height="20" viewBox="0 0 20 20" fill="none" xmlns="http://www.w3.org/2000/svg">
<path d="M10.601 2.15421L18.3511 6.40397C18.7653 6.63109 18.9998 7.05853 19.0003 7.49973L19 7.50001V12.75C19 13.1642 18.6642 13.5 18.25 13.5C17.8358 13.5 17.5 13.1642 17.5 12.75L17.4997 9.06224L15.9997 9.88424L16 13C16 15.8005 13.2829 18 10 18C6.71706 18 4 15.8005 4 13L3.99968 9.88424L1.64891 8.59604C1.04359 8.26411 0.821956 7.50432 1.15388 6.899C1.26837 6.69021 1.44012 6.51846 1.64891 6.40397L9.39899 2.15421C9.77337 1.94892 10.2266 1.94892 10.601 2.15421ZM14.4997 10.7072L10.601 12.8458C10.2266 13.0511 9.77337 13.0511 9.39899 12.8458L5.49968 10.7072L5.5 13C5.5 14.894 7.48395 16.5 10 16.5C12.5161 16.5 14.5 14.894 14.5 13L14.4997 10.7072ZM10 3.53536L2.76988 7.50001L10 11.4646L17.2301 7.50001L10 3.53536Z" fill="#99A2AD"/>
</svg>
