<svg width="20" height="20" viewBox="0 0 20 20" fill="none" xmlns="http://www.w3.org/2000/svg">
<path fill-rule="evenodd" clip-rule="evenodd" d="M10.4077 3.13399C10.148 3.00374 9.84221 3.00374 9.58256 3.13399C9.53404 3.15833 9.3937 3.26488 9.13967 3.73189C8.89595 4.17993 8.61833 4.81848 8.22116 5.73469C8.06054 6.10521 7.89402 6.47377 7.73924 6.84675C7.71881 6.89599 7.65463 7.05067 7.54311 7.17904C7.45137 7.28464 7.33898 7.3703 7.21289 7.43073C7.0451 7.51115 6.86204 7.52845 6.82886 7.53313L6.14685 7.62946C5.15404 7.76967 4.4616 7.86822 3.9628 7.98475C3.44257 8.10628 3.30223 8.21387 3.2661 8.25408C3.07151 8.47063 2.99061 8.7665 3.04792 9.05206C3.05856 9.10509 3.12461 9.26922 3.51051 9.639C3.88051 9.99353 4.42632 10.4313 5.20943 11.0581L5.45829 11.2572C5.48599 11.2794 5.64534 11.3947 5.75229 11.5612C5.83255 11.6863 5.88466 11.8273 5.90502 11.9745C5.9298 12.1537 5.89353 12.3288 5.88203 12.3844C5.85332 12.523 5.82909 12.6626 5.80271 12.8017C5.58445 13.9525 5.43089 14.7659 5.36964 15.3628C5.30446 15.9981 5.37256 16.1842 5.39606 16.2228C5.55597 16.4852 5.83605 16.6506 6.14287 16.6637C6.18797 16.6656 6.38363 16.6353 6.9075 16.2709C7.3998 15.9284 8.03665 15.4004 8.93726 14.6525C9.04241 14.5652 9.14763 14.478 9.25271 14.3905C9.29061 14.359 9.34623 14.3128 9.40036 14.2743C9.46676 14.227 9.5724 14.1603 9.71529 14.1196C9.89822 14.0676 10.092 14.0676 10.2749 14.1196C10.4178 14.1603 10.5235 14.227 10.5899 14.2743C10.644 14.3128 10.6996 14.359 10.7375 14.3905L11.053 14.6525C11.9536 15.4004 12.5904 15.9284 13.0827 16.2709C13.6066 16.6353 13.8023 16.6656 13.8474 16.6637C14.1542 16.6506 14.4343 16.4852 14.5942 16.2228C14.6177 16.1842 14.6858 15.9981 14.6206 15.3628C14.5593 14.7659 14.4058 13.9525 14.1875 12.8017C14.1611 12.6626 14.1369 12.523 14.1082 12.3844C14.0967 12.3288 14.0604 12.1536 14.0852 11.9745C14.1056 11.8273 14.1577 11.6863 14.2379 11.5612C14.3449 11.3947 14.5042 11.2794 14.5319 11.2572L14.7808 11.0581C15.5639 10.4313 16.1097 9.99353 16.4797 9.639C16.8656 9.26922 16.9317 9.10509 16.9423 9.05206C16.9996 8.7665 16.9187 8.47063 16.7241 8.25408C16.688 8.21387 16.5477 8.10628 16.0274 7.98475C15.5286 7.86822 14.8362 7.76968 13.8434 7.62946C13.6122 7.5968 13.3812 7.5606 13.1495 7.5316C13.0967 7.52498 12.9306 7.5042 12.7773 7.43073C12.6513 7.3703 12.5389 7.28464 12.4471 7.17904C12.3251 7.03853 12.2597 6.86649 12.2464 6.83572L11.7691 5.73469C11.3719 4.81848 11.0943 4.17993 10.8506 3.73189C10.5965 3.26488 10.4562 3.15833 10.4077 3.13399ZM8.89495 1.76053C9.58736 1.4132 10.4029 1.4132 11.0953 1.76053C11.595 2.0112 11.9243 2.49327 12.1985 2.99723C12.479 3.51301 12.7835 4.21543 13.1612 5.08683L13.5744 6.03998L14.097 6.11379C15.0415 6.24717 15.8025 6.35464 16.3762 6.48867C16.9364 6.61954 17.4904 6.80963 17.8652 7.22669C18.3841 7.80415 18.5998 8.59315 18.447 9.35464C18.3366 9.90461 17.9565 10.3506 17.541 10.7488C17.1154 11.1566 16.5151 11.637 15.7702 12.2332L15.6588 12.3223L15.7027 12.554C15.912 13.6574 16.0785 14.5356 16.1473 15.2059C16.213 15.8458 16.2195 16.5056 15.9044 17.0227C15.478 17.7226 14.7311 18.1636 13.9129 18.1986C13.3084 18.2245 12.7347 17.8995 12.2069 17.5325C11.6541 17.1479 10.9668 16.5771 10.1034 15.8601L9.99512 15.7702L9.88688 15.86C9.0234 16.5771 8.3361 17.1479 7.78329 17.5325C7.25558 17.8995 6.68183 18.2245 6.0773 18.1986C5.25911 18.1636 4.51222 17.7226 4.08579 17.0227C3.77072 16.5056 3.77727 15.8458 3.84293 15.2059C3.91172 14.5356 4.07828 13.6573 4.28754 12.554L4.33147 12.3223L4.2201 12.2332C3.47512 11.637 2.87483 11.1566 2.44924 10.7488C2.03369 10.3506 1.65362 9.90461 1.54324 9.35464C1.39042 8.59315 1.60614 7.80415 2.12505 7.22669C2.49982 6.80963 3.05379 6.61954 3.614 6.48867C4.18774 6.35464 4.94876 6.24717 5.89323 6.11378L6.41581 6.03998L6.82901 5.08681C7.20674 4.21542 7.51122 3.51301 7.79178 2.99723C8.06591 2.49327 8.39524 2.0112 8.89495 1.76053Z" fill="#99A2AD"/>
</svg>
