<svg width="20" height="20" viewBox="0 0 20 20" fill="none" xmlns="http://www.w3.org/2000/svg">
<path fill-rule="evenodd" clip-rule="evenodd" d="M9.46367 2.35211C9.8223 2.1435 10.2826 2.26432 10.4918 2.62197C10.7975 3.14466 10.8779 3.67814 10.6327 4.17746C10.5284 4.38985 10.3853 4.55079 10.2678 4.66654C10.1826 4.75042 10.0815 4.83735 10.007 4.90143C9.9859 4.91961 9.96675 4.93608 9.95087 4.94999C9.82988 5.05592 9.78847 5.10786 9.77579 5.12579C9.78178 5.16676 9.81672 5.29731 10.0063 5.55578C10.2515 5.88994 10.1786 6.35902 9.84351 6.6035C9.50843 6.84797 9.03807 6.77527 8.79293 6.44111C8.41275 5.92288 8.19074 5.38851 8.29722 4.83936C8.39894 4.31469 8.77123 3.98759 8.95893 3.82324C8.99697 3.78993 9.02938 3.76204 9.05804 3.73736C9.12033 3.68375 9.16512 3.64519 9.21155 3.59948C9.24027 3.57121 9.25793 3.55095 9.26845 3.53771C9.26042 3.50911 9.24031 3.45818 9.19307 3.37741C8.98389 3.01976 9.10504 2.56071 9.46367 2.35211ZM9.27242 3.56754C9.27147 3.56707 9.27028 3.5611 9.2717 3.55107C9.27408 3.563 9.27337 3.56802 9.27242 3.56754Z" fill="#99A2AD"/>
<path d="M15.5418 6.59541C15.4713 6.70101 15.3919 6.82001 15.3039 6.94565C14.8191 7.6372 14.1698 7.79267 13.7356 7.89663L13.6655 7.91351C13.2506 8.01464 12.938 8.10417 12.5932 8.49374C12.3185 8.80415 11.8434 8.83366 11.5322 8.55966C11.2209 8.28566 11.1913 7.8119 11.466 7.50149C12.1227 6.7596 12.8095 6.57863 13.3085 6.45701C13.7905 6.33952 13.9239 6.29725 14.0716 6.08657C14.1484 5.97707 14.2187 5.87177 14.29 5.76493L14.2947 5.75778C14.3628 5.65575 14.434 5.54898 14.5059 5.44741C14.6529 5.23989 14.828 5.01681 15.0596 4.82347C15.5629 4.40334 16.1886 4.23958 17.05 4.2496C17.4652 4.25443 17.7978 4.59398 17.7929 5.00799C17.7881 5.422 17.4476 5.75371 17.0325 5.74888C16.375 5.74123 16.1535 5.86563 16.0247 5.97322C15.9402 6.04375 15.8529 6.14441 15.7341 6.31225C15.6748 6.39597 15.614 6.48716 15.5418 6.59541Z" fill="#99A2AD"/>
<path fill-rule="evenodd" clip-rule="evenodd" d="M6.10327 7.0081C6.72955 6.38352 7.74497 6.38352 8.37126 7.0081L13.0218 11.646C13.6481 12.2706 13.6481 13.2832 13.0218 13.9078L12.9402 13.9892C12.7263 14.2025 12.4754 14.3755 12.1997 14.4997L4.83656 17.8159C3.15284 18.5742 1.4241 16.8502 2.18451 15.1711L5.50981 7.82799C5.63432 7.55303 5.80773 7.30283 6.02165 7.08949L6.10327 7.0081ZM11.9582 12.8482C10.8583 12.5427 9.82092 12.0326 8.89533 11.3055C7.9972 10.6001 7.27411 9.74531 6.72493 8.78762L5.71386 11.0203C6.49679 11.6936 7.448 12.2826 8.53271 12.7254C9.35562 13.0613 10.1835 13.2838 10.9864 13.4009L11.5809 13.1332C11.6912 13.0835 11.7915 13.0143 11.8771 12.929L11.9582 12.8482ZM4.42511 13.8662L5.07244 12.4367C5.90987 13.0997 6.88325 13.6722 7.96316 14.113C8.22659 14.2205 8.49096 14.318 8.75555 14.4056L7.13916 15.1336C6.15456 14.7815 5.24391 14.352 4.42511 13.8662ZM3.80274 15.2405L3.55473 15.7882C3.36463 16.208 3.79681 16.639 4.21775 16.4494L5.24914 15.9849C4.74537 15.7556 4.26238 15.5066 3.80274 15.2405Z" fill="#99A2AD"/>
<path d="M14.1701 10.7748C14.476 10.7188 14.6158 10.7581 14.6843 10.7866C14.7749 10.8243 14.8515 10.8858 15.0292 11.0486L15.0494 11.0672C15.2074 11.2122 15.4586 11.4429 15.8119 11.5901C16.2028 11.7528 16.6477 11.79 17.1771 11.693C17.5854 11.6182 17.8556 11.2274 17.7806 10.8202C17.7056 10.413 17.3137 10.1435 16.9054 10.2183C16.5995 10.2743 16.4597 10.235 16.3912 10.2064C16.3006 10.1687 16.2241 10.1073 16.0463 9.94442L16.0261 9.92587C15.8681 9.78083 15.617 9.55015 15.2636 9.40301C14.8727 9.24024 14.4278 9.20312 13.8984 9.30013C13.4901 9.37496 13.2199 9.76574 13.2949 10.173C13.3699 10.5802 13.7618 10.8496 14.1701 10.7748Z" fill="#99A2AD"/>
<path d="M15.8787 12.7752L15.379 12.2769C15.2234 12.1217 14.9711 12.1217 14.8155 12.2769L14.3159 12.7752C14.1603 12.9304 14.1603 13.182 14.3159 13.3371L14.8155 13.8354C14.9711 13.9906 15.2234 13.9906 15.379 13.8354L15.8787 13.3371C16.0343 13.182 16.0343 12.9304 15.8787 12.7752Z" fill="#99A2AD"/>
<path d="M17.3836 7.27899L17.8833 7.77729C18.0389 7.93246 18.0389 8.18404 17.8833 8.33921L17.3836 8.83751C17.228 8.99268 16.9758 8.99268 16.8202 8.83751L16.3205 8.33921C16.1649 8.18404 16.1649 7.93246 16.3205 7.77729L16.8202 7.27899C16.9758 7.12382 17.228 7.12382 17.3836 7.27899Z" fill="#99A2AD"/>
<path d="M6.85779 3.77895L6.35812 3.28065C6.20252 3.12548 5.95026 3.12548 5.79466 3.28065L5.295 3.77895C5.1394 3.93412 5.1394 4.1857 5.295 4.34087L5.79466 4.83917C5.95026 4.99434 6.20252 4.99434 6.35812 4.83917L6.85779 4.34087C7.01338 4.1857 7.01338 3.93412 6.85779 3.77895Z" fill="#99A2AD"/>
<path d="M13.3744 3.28065L13.874 3.77895C14.0296 3.93412 14.0296 4.1857 13.874 4.34087L13.3744 4.83917C13.2188 4.99434 12.9665 4.99434 12.8109 4.83917L12.3112 4.34087C12.1556 4.1857 12.1556 3.93412 12.3112 3.77895L12.8109 3.28065C12.9665 3.12548 13.2188 3.12548 13.3744 3.28065Z" fill="#99A2AD"/>
</svg>
