<svg width="20" height="20" viewBox="0 0 20 20" fill="none" xmlns="http://www.w3.org/2000/svg">
<path fill-rule="evenodd" clip-rule="evenodd" d="M12.7534 4.04382L11.9406 7.34418L13.8638 7.69471C14.8181 7.85577 15.6789 8.3107 15.9326 9.21999C16.189 10.1389 15.6833 11.0553 15.1123 11.7411L10.0317 17.486C9.7033 17.8398 9.36964 18.127 9.03998 18.3027C8.73627 18.4646 8.2432 18.6272 7.77154 18.3543C7.31061 18.0877 7.19334 17.5888 7.16885 17.2461C7.14198 16.87 7.20324 16.4269 7.32478 15.9449C7.32486 15.9446 7.32471 15.9452 7.32478 15.9449L8.16066 12.6L6.34918 12.2805C5.42982 12.1229 4.5097 11.6908 4.14601 10.8263C3.7615 9.91232 4.15951 8.93133 4.94985 8.06823C5.41322 7.56223 5.90071 7.07818 6.3646 6.57237C7.2021 5.6592 8.42773 4.3073 10.0424 2.51565C10.3531 2.1657 10.6771 1.87911 11.0044 1.70174C11.3103 1.53601 11.7914 1.37961 12.2594 1.63127C12.7261 1.88228 12.8647 2.37029 12.8981 2.72563C12.9338 3.10652 12.8762 3.55511 12.7534 4.04382ZM11.3797 3.2861C11.3124 3.35073 11.2398 3.42617 11.1625 3.51329C9.94682 4.88394 8.70842 6.236 7.47008 7.58623C7.17208 7.91116 6.69777 8.41259 6.05046 9.08742C5.42222 9.77602 5.4826 10.1352 5.52863 10.2446C5.68525 10.6169 6.26242 10.7438 6.60623 10.8026L8.93826 11.2141C9.5005 11.3133 9.88784 11.8756 9.74417 12.4505L8.77943 16.3109C8.74258 16.457 8.71551 16.5873 8.69676 16.7023C8.76764 16.6366 8.84427 16.5601 8.92633 16.4719L13.9736 10.7645C14.5037 10.1247 14.5238 9.75204 14.4878 9.62312C14.4665 9.54683 14.3404 9.29545 13.6105 9.17317L11.1598 8.72659C10.5959 8.62381 10.2216 8.05142 10.3587 7.49453L11.2986 3.67808C11.3356 3.53083 11.3621 3.40035 11.3797 3.2861Z" fill="#99A2AD"/>
</svg>
