<svg width="20" height="20" viewBox="0 0 20 20" fill="none" xmlns="http://www.w3.org/2000/svg">
<path fill-rule="evenodd" clip-rule="evenodd" d="M8.46474 7.5314C8.78236 7.62631 9 7.91849 9 8.25V16.25C9 16.6642 8.66421 17 8.25 17H3C2.72438 17 2.47097 16.8488 2.34003 16.6063C2.2091 16.3638 2.22174 16.0689 2.37296 15.8385L7.62296 7.83851C7.80485 7.56135 8.14711 7.43648 8.46474 7.5314ZM4.38927 15.5H7.5V10.7598L4.38927 15.5Z" fill="#99A2AD"/>
<path fill-rule="evenodd" clip-rule="evenodd" d="M6.53033 1.46967C6.82322 1.76256 6.82322 2.23744 6.53033 2.53033L5.81066 3.25H14.1893L13.4697 2.53033C13.1768 2.23744 13.1768 1.76256 13.4697 1.46967C13.7626 1.17678 14.2374 1.17678 14.5303 1.46967L16.5303 3.46967C16.8232 3.76256 16.8232 4.23744 16.5303 4.53033L14.5303 6.53033C14.2374 6.82322 13.7626 6.82322 13.4697 6.53033C13.1768 6.23744 13.1768 5.76256 13.4697 5.46967L14.1893 4.75H5.81066L6.53033 5.46967C6.82322 5.76256 6.82322 6.23744 6.53033 6.53033C6.23744 6.82322 5.76256 6.82322 5.46967 6.53033L3.46967 4.53033C3.17678 4.23744 3.17678 3.76256 3.46967 3.46967L5.46967 1.46967C5.76256 1.17678 6.23744 1.17678 6.53033 1.46967Z" fill="#99A2AD"/>
<path fill-rule="evenodd" clip-rule="evenodd" d="M11.5353 7.5314C11.8529 7.43648 12.1951 7.56135 12.377 7.83851L17.627 15.8385C17.7783 16.0689 17.7909 16.3638 17.66 16.6063C17.529 16.8488 17.2756 17 17 17H11.75C11.3358 17 11 16.6642 11 16.25V8.25C11 7.91849 11.2176 7.62631 11.5353 7.5314ZM12.5 10.7598V15.5H15.6107L12.5 10.7598Z" fill="#99A2AD"/>
</svg>
