<svg width="20" height="20" viewBox="0 0 20 20" fill="none" xmlns="http://www.w3.org/2000/svg">
<path fill-rule="evenodd" clip-rule="evenodd" d="M3.39371 2.34003C3.63625 2.2091 3.93106 2.22174 4.16149 2.37296L12.1615 7.62296C12.4386 7.80485 12.5635 8.14711 12.4686 8.46474C12.3737 8.78236 12.0815 9 11.75 9H3.75C3.33579 9 3 8.66421 3 8.25V3C3 2.72438 3.15118 2.47097 3.39371 2.34003ZM4.5 4.38927V7.5H9.24017L4.5 4.38927Z" fill="#99A2AD"/>
<path fill-rule="evenodd" clip-rule="evenodd" d="M3 11.75C3 11.3358 3.33579 11 3.75 11H11.75C12.0815 11 12.3737 11.2176 12.4686 11.5353C12.5635 11.8529 12.4386 12.1952 12.1615 12.377L4.16149 17.627C3.93106 17.7783 3.63625 17.7909 3.39371 17.66C3.15118 17.529 3 17.2756 3 17V11.75ZM4.5 12.5V15.6107L9.24017 12.5H4.5Z" fill="#99A2AD"/>
<path fill-rule="evenodd" clip-rule="evenodd" d="M15.4697 3.46967C15.7626 3.17678 16.2374 3.17678 16.5303 3.46967L18.5303 5.46967C18.8232 5.76256 18.8232 6.23744 18.5303 6.53033C18.2374 6.82322 17.7626 6.82322 17.4697 6.53033L16.75 5.81066V14.1893L17.4697 13.4697C17.7626 13.1768 18.2374 13.1768 18.5303 13.4697C18.8232 13.7626 18.8232 14.2374 18.5303 14.5303L16.5303 16.5303C16.2374 16.8232 15.7626 16.8232 15.4697 16.5303L13.4697 14.5303C13.1768 14.2374 13.1768 13.7626 13.4697 13.4697C13.7626 13.1768 14.2374 13.1768 14.5303 13.4697L15.25 14.1893V5.81066L14.5303 6.53033C14.2374 6.82322 13.7626 6.82322 13.4697 6.53033C13.1768 6.23744 13.1768 5.76256 13.4697 5.46967L15.4697 3.46967Z" fill="#99A2AD"/>
</svg>
