<svg width="20" height="20" viewBox="0 0 20 20" fill="none" xmlns="http://www.w3.org/2000/svg">
<path fill-rule="evenodd" clip-rule="evenodd" d="M7.49388 2.54911C7.28789 2.49928 7.07725 2.49965 6.88041 2.5L5.41859 2.50005C4.88444 2.50004 4.43859 2.50003 4.07435 2.52979C3.69447 2.56083 3.33781 2.62794 3.00055 2.79979C2.4831 3.06344 2.06241 3.48413 1.79876 4.00158C1.62691 4.33884 1.5598 4.6955 1.52876 5.07538C1.49683 5.46625 1.49777 5.85968 1.49871 6.25197C1.49887 6.31803 1.49902 6.38407 1.49902 6.45005L1.49902 13.5805C1.49901 14.1146 1.499 14.5605 1.52876 14.9247C1.5598 15.3046 1.62691 15.6613 1.79876 15.9985C2.06241 16.516 2.4831 16.9367 3.00055 17.2003C3.33781 17.3722 3.69447 17.4393 4.07435 17.4703C4.43858 17.5001 4.88443 17.5001 5.41857 17.5001H14.5813C15.1155 17.5001 15.5613 17.5001 15.9255 17.4703C16.3054 17.4393 16.6621 17.3722 16.9993 17.2003C17.5168 16.9367 17.9375 16.516 18.2011 15.9985C18.373 15.6613 18.4401 15.3046 18.4711 14.9247C18.5009 14.5605 18.5009 14.1146 18.5009 13.5804V8.44261C18.5009 7.90842 18.5009 7.46255 18.4711 7.0983C18.4401 6.71841 18.373 6.36176 18.2011 6.02449C17.9375 5.50705 17.5168 5.08635 16.9993 4.8227C16.6621 4.65086 16.3054 4.58375 15.9255 4.55271C15.5613 4.52295 15.1154 4.52296 14.5813 4.52297L10.1681 4.52297C10.0383 4.52297 9.96571 4.52279 9.91077 4.52026C9.84524 4.51724 9.79722 4.49515 9.74647 4.45165C9.70605 4.41436 9.65491 4.3629 9.56363 4.27058L8.469 3.16332C8.33085 3.02309 8.18303 2.87305 8.00276 2.76159C7.84543 2.66431 7.67367 2.5926 7.49388 2.54911ZM6.83191 4.00005C6.96174 4.00005 7.03429 4.00024 7.08923 4.00276C7.15791 4.00593 7.20534 4.02691 7.25353 4.07137C7.29396 4.10866 7.34509 4.16012 7.43637 4.25245L8.531 5.3597C8.66915 5.49993 8.81698 5.64997 8.99724 5.76143C9.15457 5.85871 9.32633 5.93043 9.50612 5.97391C9.71212 6.02374 9.92275 6.02337 10.1196 6.02303L10.1681 6.02297H14.5509C15.1233 6.02297 15.5075 6.02355 15.8034 6.04773C16.0905 6.07118 16.2278 6.11307 16.3183 6.15921C16.5535 6.27905 16.7448 6.47028 16.8646 6.70548C16.9108 6.79604 16.9526 6.93332 16.9761 7.22045C16.9929 7.42633 16.9983 7.67498 17 8.00005H2.99902V6.45005C2.99902 5.87763 2.99961 5.49341 3.02378 5.19753C3.04724 4.91041 3.08912 4.77313 3.13527 4.68257C3.25511 4.44736 3.44633 4.25614 3.68154 4.1363C3.7721 4.09015 3.90938 4.04827 4.1965 4.02481C4.49238 4.00064 4.8766 4.00005 5.44902 4.00005H6.83191ZM2.99902 13.5501C2.99902 14.1225 2.99961 14.5067 3.02378 14.8026C3.04724 15.0897 3.08912 15.227 3.13527 15.3175C3.25511 15.5527 3.44633 15.744 3.68154 15.8638C3.7721 15.91 3.90938 15.9518 4.1965 15.9753C4.49238 15.9995 4.8766 16.0001 5.44902 16.0001H14.5509C15.1233 16.0001 15.5075 15.9995 15.8034 15.9753C16.0905 15.9518 16.2278 15.91 16.3183 15.8638C16.5535 15.744 16.7448 15.5527 16.8646 15.3175C16.9108 15.227 16.9526 15.0897 16.9761 14.8026C17.0003 14.5067 17.0009 14.1225 17.0009 13.5501V9.50005L3 9.5L2.99902 13.5501Z" fill="#99A2AD"/>
</svg>
