<svg width="20" height="20" viewBox="0 0 20 20" fill="none" xmlns="http://www.w3.org/2000/svg">
<path fill-rule="evenodd" clip-rule="evenodd" d="M5.71967 11.2197C6.01256 10.9268 6.48744 10.9268 6.78033 11.2197L9.78033 14.2197C10.0732 14.5126 10.0732 14.9874 9.78033 15.2803L6.78033 18.2803C6.48744 18.5732 6.01256 18.5732 5.71967 18.2803C5.42678 17.9874 5.42678 17.5126 5.71967 17.2197L7.43935 15.5L2.25 15.5C1.83579 15.5 1.5 15.1642 1.5 14.75C1.5 14.3358 1.83579 14 2.25 14L7.43934 14L5.71967 12.2803C5.42678 11.9874 5.42678 11.5126 5.71967 11.2197Z" fill="#99A2AD"/>
<path fill-rule="evenodd" clip-rule="evenodd" d="M2.24902 12.5C2.66324 12.5 2.99902 12.1642 2.99902 11.75V9.50005H17.0009V13.5501C17.0009 14.1225 17.0003 14.5067 16.9761 14.8026C16.9526 15.0897 16.9108 15.227 16.8646 15.3175C16.7448 15.5527 16.5535 15.744 16.3183 15.8638C16.2278 15.91 16.0905 15.9518 15.8034 15.9753C15.5075 15.9995 15.1233 16.0001 14.5509 16.0001H11.5C11.0858 16.0001 10.75 16.3358 10.75 16.7501C10.75 17.1643 11.0858 17.5001 11.5 17.5001H14.5813C15.1155 17.5001 15.5613 17.5001 15.9255 17.4703C16.3054 17.4393 16.6621 17.3722 16.9993 17.2003C17.5168 16.9367 17.9375 16.516 18.2011 15.9985C18.373 15.6613 18.4401 15.3046 18.4711 14.9247C18.5009 14.5605 18.5009 14.1146 18.5009 13.5804V8.44261C18.5009 7.90842 18.5009 7.46255 18.4711 7.0983C18.4401 6.71841 18.373 6.36176 18.2011 6.02449C17.9375 5.50705 17.5168 5.08635 16.9993 4.8227C16.6621 4.65086 16.3054 4.58375 15.9255 4.55271C15.5613 4.52295 15.1154 4.52296 14.5813 4.52297L10.1681 4.52297C10.0383 4.52297 9.96571 4.52279 9.91077 4.52026C9.84568 4.51726 9.79557 4.49695 9.74647 4.45165C9.70605 4.41436 9.65491 4.3629 9.56363 4.27058L8.469 3.16332C8.33085 3.02309 8.18303 2.87305 8.00276 2.76159C7.84543 2.66431 7.67367 2.5926 7.49388 2.54911C7.28788 2.49928 7.07725 2.49965 6.88041 2.5L6.83191 2.50005L5.41859 2.50005C4.88444 2.50004 4.43859 2.50003 4.07435 2.52979C3.69447 2.56083 3.33781 2.62794 3.00055 2.79979C2.4831 3.06344 2.06241 3.48413 1.79876 4.00158C1.62691 4.33884 1.5598 4.6955 1.52876 5.07538C1.499 5.43962 1.49901 5.88547 1.49902 6.41962L1.49902 11.75C1.49902 12.1642 1.83481 12.5 2.24902 12.5ZM7.08923 4.00276C7.03429 4.00024 6.96174 4.00005 6.83191 4.00005H5.44902C4.8766 4.00005 4.49238 4.00064 4.1965 4.02481C3.90938 4.04827 3.7721 4.09015 3.68154 4.1363C3.44633 4.25614 3.25511 4.44736 3.13527 4.68257C3.08912 4.77313 3.04724 4.91041 3.02378 5.19753C2.99961 5.49341 2.99902 5.87763 2.99902 6.45005V8.00005H17C16.9983 7.67498 16.9929 7.42633 16.9761 7.22045C16.9526 6.93332 16.9108 6.79604 16.8646 6.70548C16.7448 6.47028 16.5535 6.27905 16.3183 6.15921C16.2278 6.11307 16.0905 6.07118 15.8034 6.04773C15.5075 6.02355 15.1233 6.02297 14.5509 6.02297H10.1681L10.1196 6.02303C9.92275 6.02337 9.71212 6.02374 9.50612 5.97391C9.32633 5.93043 9.15457 5.85871 8.99724 5.76143C8.81697 5.64997 8.66915 5.49993 8.531 5.3597L8.49695 5.32518L7.43637 4.25245C7.34509 4.16012 7.29396 4.10866 7.25353 4.07137C7.20583 4.02737 7.15573 4.00583 7.08923 4.00276Z" fill="#99A2AD"/>
</svg>
