<svg width="20" height="20" viewBox="0 0 20 20" fill="none" xmlns="http://www.w3.org/2000/svg">
<path fill-rule="evenodd" clip-rule="evenodd" d="M4.24902 4C3.55867 4 2.99902 4.55964 2.99902 5.25V7.99994H11.15C11.5642 7.99994 11.9 8.33573 11.9 8.74994C11.9 9.16415 11.5642 9.49994 11.15 9.49994H2.99902V14.75C2.99902 15.4404 3.55867 16 4.24902 16H8.75C9.16421 16 9.5 16.3358 9.5 16.75C9.5 17.1642 9.16421 17.5 8.75 17.5H4.24902C2.73024 17.5 1.49902 16.2688 1.49902 14.75V5.25C1.49902 3.73122 2.73024 2.5 4.24902 2.5H7.08245C7.55003 2.5 7.99817 2.68712 8.32691 3.01963L9.73977 4.44868C9.78674 4.49618 9.85076 4.52291 9.91755 4.52291H15.7509C17.2696 4.52291 18.5009 5.75413 18.5009 7.27291V7.49994C18.5009 7.91415 18.1651 8.24994 17.7509 8.24994C17.3366 8.24994 17.0009 7.91415 17.0009 7.49994V7.27291C17.0009 6.58256 16.4412 6.02291 15.7509 6.02291H9.91755C9.44997 6.02291 9.00183 5.83579 8.67309 5.50328L7.26023 4.07423C7.21326 4.02673 7.14924 4 7.08245 4H4.24902Z" fill="#99A2AD"/>
<path fill-rule="evenodd" clip-rule="evenodd" d="M19 13.5999V16.3999C19 16.96 19 17.24 18.891 17.4539C18.7951 17.6421 18.6422 17.7951 18.454 17.8909C18.2401 17.9999 17.9601 17.9999 17.4 17.9999H12.6C12.0399 17.9999 11.7599 17.9999 11.546 17.8909C11.3578 17.7951 11.2049 17.6421 11.109 17.4539C11 17.24 11 16.96 11 16.3999V13.5999C11 13.0399 11 12.7599 11.109 12.5459C11.2049 12.3578 11.3578 12.2048 11.546 12.1089C11.7468 12.0066 12.0058 12.0003 12.5 12V11.4999C12.5 10.1192 13.6193 8.99994 15 8.99994C16.3807 8.99994 17.5 10.1192 17.5 11.4999V12C17.9942 12.0003 18.2532 12.0066 18.454 12.1089C18.6422 12.2048 18.7951 12.3578 18.891 12.5459C19 12.7599 19 13.0399 19 13.5999ZM15 10.4999C14.4477 10.4999 14 10.9477 14 11.4999V11.9999H16V11.4999C16 10.9477 15.5523 10.4999 15 10.4999Z" fill="#99A2AD"/>
</svg>
