<svg width="20" height="20" viewBox="0 0 20 20" fill="none" xmlns="http://www.w3.org/2000/svg">
<path d="M5.5 13C6.32843 13 7 13.6716 7 14.5C7 15.3284 6.32843 16 5.5 16C4.67157 16 4 15.3284 4 14.5C4 13.6716 4.67157 13 5.5 13ZM4.75 7.5C9.11422 7.5 12.5 10.8858 12.5 15.25C12.5 15.6642 12.1642 16 11.75 16C11.3358 16 11 15.6642 11 15.25C11 11.7142 8.28579 9 4.75 9C4.33579 9 4 8.66421 4 8.25C4 7.83579 4.33579 7.5 4.75 7.5ZM4.75 2.5C11.9142 2.5 17.5 8.08579 17.5 15.25C17.5 15.6642 17.1642 16 16.75 16C16.3358 16 16 15.6642 16 15.25C16 8.91421 11.0858 4 4.75 4C4.33579 4 4 3.66421 4 3.25C4 2.83579 4.33579 2.5 4.75 2.5Z" fill="#99A2AD"/>
</svg>
