<svg width="20" height="20" viewBox="0 0 20 20" fill="none" xmlns="http://www.w3.org/2000/svg">
<path fill-rule="evenodd" clip-rule="evenodd" d="M7.46969 1.96967C7.76258 1.67678 8.23746 1.67678 8.53035 1.96967L10 3.43934L11.4697 1.96967C11.7626 1.67678 12.2375 1.67678 12.5303 1.96967C12.8232 2.26256 12.8232 2.73744 12.5303 3.03033L10.75 4.81066V8.70094L14.1191 6.75579L14.7708 4.32381C14.878 3.92371 15.2892 3.68628 15.6893 3.79348C16.0894 3.90069 16.3269 4.31194 16.2197 4.71204L15.6817 6.71965L17.6893 7.25758C18.0894 7.36479 18.3269 7.77604 18.2197 8.17614C18.1124 8.57624 17.7012 8.81368 17.3011 8.70647L14.8691 8.05483L11.5 10L14.8691 11.9452L17.3011 11.2935C17.7012 11.1863 18.1125 11.4238 18.2197 11.8239C18.3269 12.224 18.0894 12.6352 17.6893 12.7424L15.6817 13.2804L16.2197 15.288C16.3269 15.6881 16.0894 16.0993 15.6893 16.2065C15.2892 16.3137 14.878 16.0763 14.7708 15.6762L14.1191 13.2442L10.75 11.2991V15.1893L12.5303 16.9697C12.8232 17.2626 12.8232 17.7374 12.5303 18.0303C12.2375 18.3232 11.7626 18.3232 11.4697 18.0303L10 16.5607L8.53035 18.0303C8.23746 18.3232 7.76258 18.3232 7.46969 18.0303C7.1768 17.7374 7.1768 17.2626 7.46969 16.9697L9.25002 15.1893V11.299L5.88092 13.2442L5.22927 15.6761C5.12206 16.0762 4.71081 16.3137 4.31071 16.2065C3.91061 16.0993 3.67317 15.688 3.78038 15.2879L4.31832 13.2803L2.31071 12.7424C1.91061 12.6352 1.67317 12.2239 1.78038 11.8238C1.88759 11.4237 2.29884 11.1863 2.69894 11.2935L5.13092 11.9451L8.49998 10L5.13092 8.05487L2.69895 8.70652C2.29885 8.81372 1.88759 8.57629 1.78039 8.17619C1.67318 7.77609 1.91062 7.36483 2.31072 7.25763L4.31832 6.71969L3.78039 4.71209C3.67318 4.31199 3.91062 3.90073 4.31072 3.79353C4.71082 3.68632 5.12207 3.92376 5.22928 4.32386L5.88092 6.75583L9.25002 8.70098V4.81066L7.46969 3.03033C7.1768 2.73744 7.1768 2.26256 7.46969 1.96967Z" fill="#99A2AD"/>
</svg>
