<svg width="20" height="20" viewBox="0 0 20 20" fill="none" xmlns="http://www.w3.org/2000/svg">
<path fill-rule="evenodd" clip-rule="evenodd" d="M15.7197 3.21967C16.0126 2.92678 16.4874 2.92678 16.7803 3.21967C17.0732 3.51256 17.0732 3.98744 16.7803 4.28033L13.5607 7.5L15.5 7.5C15.9142 7.5 16.25 7.83579 16.25 8.25C16.25 8.66421 15.9142 9 15.5 9L11.7499 9C11.3357 9 10.9999 8.66421 10.9999 8.25V4.5C10.9999 4.08579 11.3357 3.75 11.7499 3.75C12.1642 3.75 12.4999 4.08579 12.4999 4.5V6.4394L15.7197 3.21967ZM3.75 11.75C3.75 11.3358 4.08578 11 4.5 11L8.25006 11C8.66427 11 9.00006 11.3358 9.00006 11.75L9.00006 15.5C9.00006 15.9142 8.66427 16.25 8.25006 16.25C7.83584 16.25 7.50006 15.9142 7.50006 15.5V13.5573L4.2773 16.7803C3.98442 17.0732 3.50954 17.0732 3.21664 16.7804C2.92373 16.4875 2.92372 16.0126 3.2166 15.7197L6.43603 12.5L4.5 12.5C4.08578 12.5 3.75 12.1642 3.75 11.75Z" fill="#99A2AD"/>
</svg>
