<svg width="20" height="20" viewBox="0 0 20 20" fill="none" xmlns="http://www.w3.org/2000/svg">
<path fill-rule="evenodd" clip-rule="evenodd" d="M11.75 3.75C11.75 3.33579 12.0858 3 12.5 3H16.2501C16.6643 3 17.0001 3.33579 17.0001 3.75V7.5C17.0001 7.91421 16.6643 8.25 16.2501 8.25C15.8358 8.25 15.5001 7.91421 15.5001 7.5V5.5605L12.2765 8.78374C11.9836 9.07662 11.5087 9.0766 11.2159 8.78369C10.923 8.49078 10.923 8.01591 11.2159 7.72303L14.4392 4.5H12.5C12.0858 4.5 11.75 4.16421 11.75 3.75ZM8.78336 11.2163C9.07627 11.5091 9.07628 11.984 8.7834 12.2769L5.56058 15.5H7.5C7.91421 15.5 8.25 15.8358 8.25 16.25C8.25 16.6642 7.91421 17 7.5 17H3.74994C3.33573 17 2.99994 16.6642 2.99994 16.25L2.99994 12.5C2.99994 12.0858 3.33573 11.75 3.74994 11.75C4.16415 11.75 4.49994 12.0858 4.49994 12.5L4.49994 14.4393L7.7227 11.2163C8.01558 10.9234 8.49046 10.9234 8.78336 11.2163Z" fill="#99A2AD"/>
</svg>
