<svg width="20" height="20" viewBox="0 0 20 20" fill="none" xmlns="http://www.w3.org/2000/svg">
<path fill-rule="evenodd" clip-rule="evenodd" d="M4.30136 2C8.10042 2.00037 11.8995 2 15.6985 2C15.9543 1.99998 16.1941 1.99995 16.3969 2.01842C16.6205 2.03878 16.8594 2.08546 17.096 2.21427C17.4302 2.39624 17.7191 2.71308 17.869 3.06212C18.0482 3.47944 18.0043 3.92159 17.9641 4.32596C17.7839 6.1386 17.2866 7.8789 16.1873 9.35573C15.3289 10.5088 14.2162 11.424 13.0134 12.3732V13.5515C13.0134 15.6634 11.5425 17.492 9.47491 17.9506C8.19972 18.2334 6.98986 17.266 6.98986 15.9636V12.3736C5.78443 11.4238 4.67141 10.5064 3.81284 9.3519C2.71517 7.87582 2.21687 6.13748 2.0361 4.32629C1.99576 3.92206 1.95164 3.48 2.13081 3.06254C2.28065 2.71342 2.56961 2.39639 2.90387 2.21436C3.14048 2.08551 3.37936 2.0388 3.60303 2.01843C3.80583 1.99995 4.04565 1.99998 4.30136 2ZM3.62494 3.53245C3.63362 3.52931 3.66463 3.52048 3.74005 3.51361C3.86599 3.50214 4.03586 3.50142 4.32946 3.50142H15.6704C15.964 3.50142 16.134 3.50214 16.2599 3.51361C16.3356 3.5205 16.3665 3.52933 16.375 3.53244C16.3753 3.53259 16.3748 3.53231 16.375 3.53244C16.4204 3.55715 16.4793 3.61434 16.4886 3.66808C16.4907 3.68071 16.4938 3.70663 16.494 3.75537C16.4943 3.86593 16.481 4.01336 16.4554 4.28085C16.2742 6.1725 15.7441 7.4319 14.978 8.46092C14.1914 9.51772 13.1342 10.3664 11.7942 11.42C11.6132 11.5623 11.5075 11.7795 11.5075 12.0094V13.5515C11.5075 14.9598 10.5267 16.1792 9.1479 16.485C8.81326 16.5592 8.49575 16.3054 8.49575 15.9636V12.0094C8.49575 11.7793 8.38987 11.5618 8.20847 11.4195C6.86748 10.3673 5.80933 9.51574 5.02251 8.45768C4.256 7.42693 3.72613 6.16699 3.54474 4.28055C3.51903 4.01317 3.50571 3.86585 3.50602 3.75537C3.50615 3.70668 3.50923 3.68079 3.51141 3.66817C3.52066 3.61442 3.57978 3.55748 3.62494 3.53245Z" fill="#99A2AD"/>
</svg>
