<svg width="20" height="20" viewBox="0 0 20 20" fill="none" xmlns="http://www.w3.org/2000/svg">
<path fill-rule="evenodd" clip-rule="evenodd" d="M11.5001 4H10.0001H8.50009C6.18318 4 4.255 4.43099 2.92263 5.76108C1.59354 7.08792 1.02051 9.14654 1.00011 11.9946C0.994381 12.7944 1.05447 13.9773 1.45523 14.9853C1.65878 15.4973 1.96596 16.0049 2.43563 16.3866C2.91747 16.7783 3.5251 17 4.25009 17C5.04903 17 5.62328 16.6732 6.06093 16.2303C6.37182 15.9156 6.63995 15.5076 6.86583 15.1639L6.86584 15.1638C6.92217 15.0781 6.97587 14.9964 7.02695 14.9211C7.31094 14.5026 7.58252 14.1621 7.94259 13.9162C8.28678 13.6812 8.76127 13.5 9.50009 13.5H10.0001H10.5001C11.2389 13.5 11.7134 13.6812 12.0576 13.9162C12.4177 14.1621 12.6892 14.5026 12.9732 14.9211C13.0243 14.9964 13.078 15.0781 13.1343 15.1638L13.1343 15.1639L13.1344 15.1639L13.1344 15.1639L13.1344 15.1639C13.3603 15.5076 13.6284 15.9156 13.9393 16.2303C14.3769 16.6732 14.9512 17 15.7501 17C16.4751 17 17.0827 16.7783 17.5646 16.3866C18.0342 16.0049 18.3414 15.4973 18.545 14.9853C18.9457 13.9773 19.0058 12.7944 19.0001 11.9946C18.9797 9.14654 18.4066 7.08792 17.0775 5.76108C15.7452 4.43099 13.817 4 11.5001 4ZM10.5001 12H10.0001H9.50009C8.48891 12 7.7134 12.2563 7.09665 12.6775C6.49579 13.0879 6.09549 13.6224 5.78573 14.0789C5.70297 14.2008 5.62885 14.3131 5.56027 14.4169L5.56025 14.417C5.3489 14.737 5.19025 14.9773 4.99394 15.176C4.78315 15.3893 4.57615 15.5 4.25009 15.5C3.85008 15.5 3.58132 15.3849 3.38173 15.2226C3.16998 15.0505 2.99069 14.7873 2.8491 14.4311C2.55957 13.7029 2.49466 12.7609 2.50007 12.0054C2.51946 9.29843 3.07143 7.73206 3.98239 6.82265C4.89008 5.9165 6.317 5.5 8.50009 5.5H10.0001H11.5001C13.6832 5.5 15.1101 5.9165 16.0178 6.82265C16.9288 7.73206 17.4807 9.29843 17.5001 12.0054C17.5055 12.7609 17.4406 13.7029 17.1511 14.4311C17.0095 14.7873 16.8302 15.0505 16.6184 15.2226C16.4189 15.3849 16.1501 15.5 15.7501 15.5C15.424 15.5 15.217 15.3893 15.0062 15.176C14.8099 14.9773 14.6513 14.737 14.4399 14.417L14.4399 14.417L14.4399 14.4169L14.4398 14.4168C14.3713 14.313 14.2972 14.2008 14.2144 14.0789C13.9047 13.6224 13.5044 13.0879 12.9035 12.6775C12.2868 12.2563 11.5113 12 10.5001 12ZM7.25 7.5C7.25 7.08579 6.91421 6.75 6.5 6.75C6.08579 6.75 5.75 7.08579 5.75 7.5V8.25H5C4.58579 8.25 4.25 8.58579 4.25 9C4.25 9.41421 4.58579 9.75 5 9.75H5.75V10.5C5.75 10.9142 6.08579 11.25 6.5 11.25C6.91421 11.25 7.25 10.9142 7.25 10.5V9.75H8C8.41421 9.75 8.75 9.41421 8.75 9C8.75 8.58579 8.41421 8.25 8 8.25H7.25V7.5ZM12.5 8.25C12.0858 8.25 11.75 8.58579 11.75 9C11.75 9.41421 12.0858 9.75 12.5 9.75H14.5C14.9142 9.75 15.25 9.41421 15.25 9C15.25 8.58579 14.9142 8.25 14.5 8.25H12.5Z" fill="#99A2AD"/>
</svg>
