<svg width="20" height="20" viewBox="0 0 20 20" fill="none" xmlns="http://www.w3.org/2000/svg">
<path fill-rule="evenodd" clip-rule="evenodd" d="M10.7614 3.30097C10.8321 2.78244 11.3141 2.42256 11.8314 2.50214C12.3175 2.57692 12.6628 3.01509 12.622 3.50521L12.2526 7.93775C12.2239 8.28159 12.4336 8.60049 12.7603 8.71069L12.7622 8.71133L12.7824 8.71865C12.802 8.72592 12.8341 8.73816 12.8765 8.75569C12.9617 8.79081 13.0877 8.84668 13.2393 8.92568C13.5448 9.0848 13.942 9.33137 14.3184 9.68099C14.6219 9.96288 15.0965 9.94537 15.3784 9.64187C15.6603 9.33837 15.6428 8.86382 15.3393 8.58193C14.8394 8.11763 14.3222 7.79848 13.9323 7.59537C13.8838 7.57007 13.837 7.54647 13.7922 7.52452L14.1168 3.62978C14.2231 2.35438 13.3244 1.21419 12.0594 1.01958C10.7135 0.812508 9.45912 1.74899 9.27512 3.0983L9.18573 3.75382L9.16371 3.68921C8.78443 2.57667 7.67191 1.88714 6.50681 2.04249C5.21145 2.2152 4.2762 3.36928 4.37645 4.6726L4.72154 9.15876C3.96794 9.82476 2.80145 11.3317 3.26458 13.6471C3.80672 16.3576 6.44378 18.7321 10.4915 18.5019L10.526 18.4998L10.5399 18.499L10.5441 18.4987L10.5453 18.4987C10.9588 18.4734 11.2739 18.1177 11.2486 17.7043C11.2234 17.2908 10.8677 16.9762 10.4543 17.0014L10.4529 17.0015L10.4489 17.0018L10.4357 17.0025L10.4064 17.0043C7.03717 17.1959 5.11816 15.2663 4.73545 13.3529C4.35503 11.451 5.54555 10.371 5.91603 10.1241C6.96682 9.42356 8.02006 9.64642 8.24081 9.70555C8.25105 9.7083 8.26776 9.71362 8.3077 9.72814C8.87562 9.93466 9.14362 10.4283 9.1322 10.9089C9.12107 11.3772 8.85147 11.7905 8.29599 11.9107C7.9848 11.9781 7.81062 12 7.75 12C7.33579 12 7 12.3358 7 12.75C7 13.1642 7.33579 13.5 7.75 13.5C7.98934 13.5 8.3063 13.4432 8.61335 13.3768C9.92394 13.0931 10.6062 12.0223 10.6318 10.9445C10.6571 9.87901 10.0467 8.76443 8.82032 8.31846C8.77493 8.30195 8.70639 8.27739 8.62893 8.25664C8.33195 8.17708 7.32973 7.96292 6.16359 8.34778L5.87204 4.55755C5.83285 4.04818 6.19831 3.59689 6.70505 3.52933C7.16063 3.46858 7.59564 3.7382 7.74394 4.17322L8.4624 6.28069L8.46935 6.30109C8.51097 6.42326 8.55449 6.551 8.5964 6.65001C8.61879 6.7029 8.65398 6.78024 8.70516 6.85777C8.75062 6.92664 8.85813 7.07318 9.05463 7.16545C9.35262 7.30537 9.70323 7.27143 9.96885 7.07694C10.144 6.94869 10.2214 6.78425 10.2528 6.70794C10.2882 6.62203 10.3079 6.53937 10.3197 6.48317C10.3418 6.37797 10.36 6.24426 10.3775 6.11638L10.3804 6.095L10.7614 3.30097ZM16.31 17.9945L17.69 17.1978L17.7296 17.1749C17.9502 17.0477 18.1958 16.906 18.3922 16.7672C18.5941 16.6246 18.9531 16.3466 19.1641 15.8726C19.412 15.3159 19.412 14.6803 19.1641 14.1236C18.9531 13.6496 18.5941 13.3716 18.3922 13.229C18.1958 13.0902 17.9502 12.9485 17.7296 12.8213L17.69 12.7984L16.31 12.0017L16.2704 11.9788C16.0499 11.8514 15.8044 11.7095 15.586 11.6088C15.3615 11.5053 14.9413 11.3334 14.4253 11.3876C13.8193 11.4513 13.2688 11.7692 12.9106 12.2621C12.6057 12.6819 12.5444 13.1318 12.5218 13.3779C12.4998 13.6174 12.4999 13.901 12.5 14.1556L12.5 14.2014V15.7948L12.5 15.8406C12.4999 16.0952 12.4998 16.3788 12.5218 16.6183C12.5444 16.8644 12.6057 17.3143 12.9106 17.7341C13.2688 18.227 13.8193 18.5449 14.4253 18.6086C14.9412 18.6628 15.3615 18.4909 15.586 18.3874C15.8044 18.2867 16.0499 18.1448 16.2704 18.0174L16.31 17.9945ZM16.94 14.0974C17.4519 14.393 17.7079 14.5408 17.7938 14.7337C17.8687 14.902 17.8687 15.0942 17.7938 15.2625C17.7079 15.4554 17.4519 15.6032 16.94 15.8988L15.56 16.6955C15.0481 16.9911 14.7921 17.1389 14.5821 17.1168C14.3989 17.0975 14.2324 17.0014 14.1241 16.8524C14 16.6815 14 16.386 14 15.7948V14.2014C14 13.6102 14 13.3147 14.1241 13.1438C14.2324 12.9948 14.3989 12.8987 14.5821 12.8794C14.7921 12.8573 15.0481 13.0051 15.56 13.3007L16.94 14.0974Z" fill="#99A2AD"/>
</svg>
