<svg width="20" height="20" viewBox="0 0 20 20" fill="none" xmlns="http://www.w3.org/2000/svg">
<path fill-rule="evenodd" clip-rule="evenodd" d="M11.8313 2.50211C11.3141 2.42253 10.8321 2.78241 10.7614 3.30094L10.3804 6.09497C10.3794 6.10207 10.3784 6.10919 10.3775 6.11633C10.36 6.24421 10.3418 6.37793 10.3197 6.48314C10.3079 6.53934 10.2882 6.622 10.2528 6.70791C10.2214 6.78422 10.144 6.94866 9.96885 7.07691C9.70323 7.2714 9.35262 7.30534 9.05463 7.16542C8.85813 7.07315 8.75062 6.92661 8.70516 6.85774C8.65398 6.78021 8.61878 6.70287 8.5964 6.64998C8.55449 6.55097 8.51097 6.42323 8.46935 6.30106C8.46702 6.29424 8.4647 6.28744 8.46239 6.28066L7.74394 4.17319C7.59564 3.73817 7.16062 3.46855 6.70505 3.5293C6.1983 3.59686 5.83285 4.04815 5.87203 4.55752L6.16359 8.34775C7.32973 7.96289 8.33194 8.17705 8.62893 8.25661C8.70639 8.27736 8.77492 8.30192 8.82031 8.31843C10.0467 8.7644 10.6571 9.87898 10.6318 10.9445C10.6062 12.0223 9.92394 13.093 8.61335 13.3767C8.30629 13.4432 7.98933 13.5 7.75 13.5C7.33578 13.5 7 13.1642 7 12.75C7 12.3358 7.33578 12 7.75 12C7.81062 12 7.9848 11.9781 8.29598 11.9107C8.85146 11.7904 9.12107 11.3772 9.1322 10.9089C9.14362 10.4283 8.87562 9.93463 8.3077 9.72812C8.26776 9.71359 8.25104 9.70827 8.2408 9.70553C8.02006 9.64639 6.96682 9.42353 5.91602 10.124C5.54555 10.371 4.35503 11.451 4.73544 13.3529C5.11981 15.2745 7.05454 17.2139 10.4532 17.0015C13.8561 16.7888 15.7111 14.5644 15.5026 12.0623C15.3998 10.8289 14.7384 10.0012 14.0627 9.46065C13.724 9.18968 13.3899 8.99855 13.1409 8.87578C13.0172 8.81474 12.9164 8.77158 12.8494 8.74462C12.816 8.73116 12.7911 8.72181 12.7762 8.71635L12.7615 8.71107L12.7618 8.71115L12.7623 8.71132C12.4344 8.60174 12.2239 8.28225 12.2526 7.93772L12.622 3.50518C12.6628 3.01506 12.3175 2.57689 11.8313 2.50211ZM13.7922 7.5245L14.1168 3.62975C14.2231 2.35435 13.3244 1.21416 12.0594 1.01955C10.7135 0.812478 9.45911 1.74896 9.27512 3.09827L9.18573 3.75379L9.1637 3.68918C8.78443 2.57664 7.67191 1.88711 6.5068 2.04246C5.21145 2.21517 4.2762 3.36925 4.37645 4.67257L4.72154 9.15873C3.96794 9.82473 2.80145 11.3317 3.26458 13.6471C3.8093 16.3705 6.46822 18.7534 10.5468 18.4985C14.6212 18.2439 17.2889 15.4356 16.9974 11.9377C16.8502 10.1711 15.8866 8.99885 14.9998 8.28935C14.5572 7.93532 14.1257 7.68895 13.8044 7.53047C13.8003 7.52847 13.7963 7.52647 13.7922 7.5245ZM12.7601 8.7106L12.7609 8.71088L12.7615 8.71107C12.7607 8.71081 12.7603 8.71065 12.7601 8.7106ZM12.7601 8.71059C12.76 8.71056 12.76 8.71057 12.7601 8.7106L12.7601 8.71059Z" fill="#99A2AD"/>
</svg>
