<svg width="20" height="20" viewBox="0 0 20 20" fill="none" xmlns="http://www.w3.org/2000/svg">
<path d="M14.8462 2.31376C15.8724 3.33995 16.0755 5.18923 14.589 6.49996L15.5 6.5C17.1569 6.5 18.5 7.84315 18.5 9.5V9.9908C18.5 10.8167 18.4072 11.1509 18.2329 11.4768C18.0586 11.8028 17.8028 12.0586 17.4768 12.2329C17.3333 12.3096 17.1882 12.3706 17.0002 12.4148L17 14.0332C17 15.5934 16.8376 16.1591 16.5325 16.7295C16.2275 17.2999 15.7799 17.7475 15.2095 18.0525L15.0067 18.1542C14.5265 18.3776 13.9697 18.5026 12.7784 18.5183L7.4868 18.52C5.92664 18.52 5.36089 18.3576 4.79052 18.0525C4.22015 17.7475 3.77252 17.2999 3.46748 16.7295L3.36578 16.5267C3.14242 16.0465 3.01736 15.4897 3.00168 14.2984L2.99984 12.4148C2.81182 12.3706 2.66668 12.3096 2.52315 12.2329C2.19723 12.0586 1.94144 11.8028 1.76713 11.4768C1.60735 11.1781 1.51604 10.8723 1.50193 10.1873L1.5 9.5C1.5 7.84315 2.84315 6.5 4.5 6.5L5.41096 6.49996C3.92448 5.18923 4.12758 3.33995 5.15376 2.31376C6.36878 1.09875 8.73766 1.0376 10.0003 3.56856C11.2623 1.0376 13.6312 1.09875 14.8462 2.31376ZM9.249 12.499L4.5 12.5L4.50103 14.2619L4.50958 14.6608C4.53144 15.2653 4.59254 15.5848 4.71164 15.8602L4.7902 16.0221C4.95544 16.331 5.18895 16.5646 5.49792 16.7298L5.65982 16.8084C5.99032 16.9513 6.3842 17.0107 7.25809 17.019L9.249 17.018V12.499ZM15.5 12.5L10.749 12.499V17.018L12.7419 17.019L13.1408 17.0104C13.7453 16.9886 14.0648 16.9275 14.3402 16.8084L14.5021 16.7298C14.811 16.5646 15.0446 16.331 15.2098 16.0221C15.3958 15.6744 15.4774 15.3338 15.4958 14.4706L15.5 14.0332V12.5ZM9.159 7.999L4.5 8C3.67157 8 3 8.67157 3 9.5L3.00077 10.1383L3.00715 10.3702C3.01859 10.5971 3.04446 10.6846 3.08985 10.7694C3.12436 10.834 3.16603 10.8756 3.23055 10.9101C3.33968 10.9685 3.45302 10.9946 3.86166 10.9992L9.249 10.999L9.25073 7.99976C9.22061 7.99992 9.19037 8 9.16 8L9.159 7.999ZM15.5 8L10.839 7.999C10.8095 8 10.7792 7.99992 10.749 7.99976L10.749 10.999L16.1383 10.9992C16.547 10.9946 16.6603 10.9685 16.7694 10.9101C16.834 10.8756 16.8756 10.834 16.9101 10.7694C16.975 10.6482 17 10.5217 17 9.9908V9.5C17 8.67157 16.3284 8 15.5 8ZM9.22318 6.15902C8.79241 3.0578 7.26368 2.32517 6.21442 3.37442C5.16517 4.42368 5.8978 5.95241 8.99901 6.38318L9.25567 6.41567L9.22318 6.15902ZM10.7768 6.15902L10.7528 6.35043C10.7552 6.37102 10.7574 6.39169 10.7597 6.41243L11.001 6.38318C14.1022 5.95241 14.8348 4.42368 13.7856 3.37442C12.7363 2.32517 11.2076 3.0578 10.7768 6.15902Z" fill="#99A2AD"/>
</svg>
