<svg width="20" height="20" viewBox="0 0 20 20" fill="none" xmlns="http://www.w3.org/2000/svg">
<path fill-rule="evenodd" clip-rule="evenodd" d="M8.21865 7.99852H12.4102C12.8244 7.99852 13.1602 7.66273 13.1602 7.24852C13.1602 7.1537 13.1426 7.06298 13.1105 6.97947C12.7143 5.65869 12.1025 4.2819 11.4565 3.15174C13.7909 3.64579 15.6968 5.30333 16.537 7.49076L16.5463 7.5149C16.6934 7.90212 17.1265 8.09678 17.5137 7.94969C17.9009 7.8026 18.0956 7.36946 17.9485 6.98224L17.9373 6.9529C16.7127 3.76487 13.6218 1.5 10 1.5C5.30558 1.5 1.5 5.30558 1.5 10C1.5 13.6295 3.77446 16.7258 6.97319 17.9451C7.36024 18.0926 7.7936 17.8984 7.94114 17.5114C8.08867 17.1243 7.8945 16.691 7.50745 16.5434C5.99671 15.9676 4.73732 14.8839 3.93727 13.5014H6.85937C7.27359 13.5014 7.60937 13.1657 7.60937 12.7514C7.60937 12.3372 7.27359 12.0014 6.85937 12.0014H3.29032C3.10142 11.3672 3 10.6954 3 10C3 9.30448 3.10144 8.63266 3.29032 7.99852H6.69138C6.59768 8.52199 6.53446 9.06403 6.50881 9.62216L6.50627 9.68052C6.50511 9.70864 6.50537 9.73438 6.50645 9.75783C6.50696 9.76899 6.50765 9.77918 6.50823 9.78678C6.52182 10.1891 6.85221 10.511 7.2578 10.511C7.67201 10.511 8.0078 10.1752 8.0078 9.761C8.0078 9.74214 8.00728 9.7248 8.00645 9.70884L8.00723 9.69102C8.03407 9.10684 8.10806 8.54132 8.21865 7.99852ZM8.58045 3.14402C6.59736 3.55249 4.92059 4.79972 3.93733 6.49852H7.05305C7.44216 5.21797 7.9951 4.08451 8.58045 3.14402ZM10.0233 3.67154C10.5047 4.48036 10.989 5.47863 11.3672 6.49852H8.63004C9.0047 5.41467 9.50596 4.4582 10.0233 3.67154Z" fill="#99A2AD"/>
<path fill-rule="evenodd" clip-rule="evenodd" d="M14.0021 18.9999C16.7635 18.9999 19.0021 16.7614 19.0021 13.9999C19.0021 11.2385 16.7635 8.99994 14.0021 8.99994C11.2407 8.99994 9.00208 11.2385 9.00208 13.9999C9.00208 16.7614 11.2407 18.9999 14.0021 18.9999ZM16.5263 12.53C16.819 12.237 16.8188 11.7621 16.5257 11.4694C16.2327 11.1766 15.7578 11.1769 15.465 11.47L13.9986 12.938L12.5303 11.4697C12.2374 11.1768 11.7626 11.1768 11.4697 11.4697C11.1768 11.7626 11.1768 12.2374 11.4697 12.5303L12.9385 13.9992L11.4694 15.47C11.1766 15.763 11.1769 16.2379 11.47 16.5306C11.763 16.8234 12.2379 16.8231 12.5306 16.53L13.9992 15.0599L15.4697 16.5303C15.7626 16.8232 16.2374 16.8232 16.5303 16.5303C16.8232 16.2374 16.8232 15.7626 16.5303 15.4697L15.0593 13.9986L16.5263 12.53Z" fill="#99A2AD"/>
</svg>
