<svg width="20" height="20" viewBox="0 0 20 20" fill="none" xmlns="http://www.w3.org/2000/svg">
<path d="M10 1.5C14.6944 1.5 18.5 5.30558 18.5 10C18.5 14.6944 14.6944 18.5 10 18.5C5.30558 18.5 1.5 14.6944 1.5 10C1.5 5.30558 5.30558 1.5 10 1.5ZM7.00759 13.5003L3.93671 13.5004C4.90526 15.1745 6.54721 16.4102 8.49214 16.8372C7.83474 15.7424 7.33983 14.6301 7.00759 13.5003ZM16.0633 13.5004L12.9924 13.5003C12.6602 14.6301 12.1653 15.7424 11.5089 16.8363C13.4528 16.4102 15.0947 15.1745 16.0633 13.5004ZM11.42 13.5002H8.58C8.9109 14.4847 9.38383 15.4591 10 16.4244C10.6162 15.4591 11.0891 14.4847 11.42 13.5002ZM6.6637 8.00046L3.28989 7.99995C3.10128 8.63368 3 9.30501 3 10C3 10.6954 3.10139 11.367 3.29019 12.001L6.66387 12.0005C6.5547 11.3393 6.5 10.6723 6.5 10C6.5 9.328 6.55465 8.66142 6.6637 8.00046ZM11.8129 7.99999H8.18706C8.06224 8.66184 8 9.3284 8 10C8 10.6719 8.0623 11.3388 8.18725 12.001H11.8128C11.9377 11.3388 12 10.6719 12 10C12 9.3284 11.9378 8.66184 11.8129 7.99999ZM16.7101 7.99995L13.3363 8.00046C13.4454 8.66142 13.5 9.328 13.5 10C13.5 10.6723 13.4453 11.3393 13.3361 12.0005L16.7098 12.001C16.8986 11.367 17 10.6954 17 10C17 9.30501 16.8987 8.63368 16.7101 7.99995ZM8.49109 3.16368L8.36278 3.19251C6.47409 3.64509 4.88307 4.86326 3.93614 6.50058L7.00729 6.50067C7.33953 5.37058 7.83455 4.25788 8.49109 3.16368ZM10 3.57564C9.38363 4.54126 8.91057 5.51595 8.57966 6.50078H11.4203C11.0894 5.51595 10.6164 4.54126 10 3.57564ZM11.5079 3.16281L11.5597 3.24896C12.1911 4.31568 12.6691 5.39993 12.9927 6.50067L16.0639 6.50058C15.0954 4.82601 13.4532 3.58988 11.5079 3.16281Z" fill="#99A2AD"/>
</svg>
