<svg width="20" height="20" viewBox="0 0 20 20" fill="none" xmlns="http://www.w3.org/2000/svg">
<path fill-rule="evenodd" clip-rule="evenodd" d="M2.43958 3.0887C2.48668 2.96598 2.69898 2.5 3.24997 2.5C3.49476 2.5 3.73863 2.58189 3.92383 2.65847C4.12941 2.74346 4.35306 2.86084 4.58175 3.00031C5.03983 3.2797 5.55967 3.67316 6.05121 4.14819C7.0053 5.07023 7.997 6.44232 7.997 8C7.997 8.41421 7.66121 8.75 7.247 8.75C6.83278 8.75 6.497 8.41421 6.497 8C6.497 7.05768 5.86556 6.05477 5.00882 5.22681C4.61147 4.8428 4.19695 4.52764 3.84436 4.30785C3.86522 4.63462 3.90633 5.00147 3.93994 5.26421C3.95441 5.3773 3.96741 5.47136 3.97673 5.53674C4.00569 5.73457 3.99276 5.90975 3.91729 6.09866C3.90247 6.13576 3.8802 6.19359 3.85352 6.26941C3.80004 6.42145 3.72966 6.64348 3.66608 6.91387C3.53737 7.46122 3.44461 8.17256 3.55035 8.89076C3.65426 9.59655 3.94738 10.3019 4.59372 10.891C5.24694 11.4865 6.32384 12.0204 8.09679 12.2566C8.44294 12.3027 8.71147 12.5816 8.74443 12.9292C8.77738 13.2769 8.56604 13.6013 8.23472 13.7116C7.80707 13.854 7.52722 14.0272 7.3333 14.2239C7.14258 14.4174 6.99525 14.6739 6.89484 15.0478C6.7978 15.4091 7.08435 15.9409 7.76554 16.0685L10.0022 16.4874L12.2388 16.0685C12.92 15.9409 13.2066 15.4091 13.1095 15.0478C13.0091 14.6739 12.8618 14.4174 12.6711 14.2239C12.4772 14.0272 12.1973 13.854 11.7697 13.7116C11.4383 13.6013 11.227 13.2769 11.26 12.9292C11.2929 12.5816 11.5614 12.3027 11.9076 12.2566C13.6805 12.0204 14.7574 11.4865 15.4107 10.891C16.057 10.3019 16.3501 9.59655 16.454 8.89076C16.5598 8.17256 16.467 7.46122 16.3383 6.91387C16.2747 6.64348 16.2043 6.42145 16.1509 6.26941C16.1242 6.1936 16.1019 6.13576 16.0871 6.09866C16.0125 5.91205 15.9987 5.73635 16.0277 5.53674C16.037 5.47136 16.05 5.3773 16.0644 5.26421C16.0981 5.00147 16.1392 4.63463 16.16 4.30785C15.8074 4.52764 15.3929 4.8428 14.9956 5.22681C14.1388 6.05477 13.5074 7.05768 13.5074 8C13.5074 8.41421 13.1716 8.75 12.7574 8.75C12.3432 8.75 12.0074 8.41421 12.0074 8C12.0074 6.44232 12.9991 5.07023 13.9532 4.14819C14.4447 3.67316 14.9646 3.2797 15.4226 3.00031C15.6513 2.86084 15.875 2.74346 16.0806 2.65847C16.2658 2.58189 16.5096 2.5 16.7544 2.5C17.3054 2.5 17.5177 2.96598 17.5648 3.0887C17.6306 3.26027 17.6535 3.44507 17.6641 3.58323C17.6867 3.87713 17.6708 4.23653 17.6461 4.5574C17.6127 4.99255 17.5584 5.41813 17.5251 5.65918C17.5972 5.85251 17.7041 6.16912 17.7985 6.5705C17.9527 7.22628 18.0807 8.13994 17.938 9.10924C17.7935 10.091 17.3689 11.1356 16.4212 11.9996C15.7968 12.5688 14.973 13.0343 13.9105 13.3602C14.2195 13.7329 14.4267 14.169 14.5582 14.6587C14.9605 16.1567 13.726 17.316 12.515 17.5428L10.1425 17.9872C10.0954 17.996 10.0484 18.0002 10.0022 18.0001C9.95594 18.0002 9.90902 17.996 9.8619 17.9872L7.4894 17.5428C6.27834 17.316 5.04389 16.1567 5.44617 14.6587C5.57768 14.169 5.78491 13.7329 6.09389 13.3602C5.03136 13.0343 4.2076 12.5688 3.58321 11.9996C2.63545 11.1356 2.21088 10.0909 2.06635 9.10924C1.92364 8.13994 2.0517 7.22628 2.20591 6.5705C2.3003 6.16912 2.40718 5.85251 2.47924 5.65918C2.44603 5.41813 2.39166 4.99255 2.35826 4.5574C2.33363 4.23653 2.31771 3.87713 2.34027 3.58323C2.35087 3.44507 2.37374 3.26027 2.43958 3.0887Z" fill="#99A2AD"/>
<path fill-rule="evenodd" clip-rule="evenodd" d="M7.09435 3.38577C7.29551 3.02368 7.75211 2.89322 8.1142 3.09438L8.82113 3.48712C9.29006 3.74764 9.68884 4.10023 9.99997 4.51517C10.3111 4.10023 10.7099 3.74764 11.1788 3.48712L11.8857 3.09438C12.2478 2.89322 12.7044 3.02368 12.9056 3.38577C13.1067 3.74786 12.9763 4.20446 12.6142 4.40562L11.9073 4.79836C11.193 5.19519 10.75 5.94808 10.75 6.76521V7.25C10.75 7.66421 10.4142 8 9.99997 8C9.58576 8 9.24997 7.66421 9.24997 7.25V6.76521C9.24997 5.94808 8.80696 5.19519 8.09267 4.79836L7.38574 4.40562C7.02365 4.20446 6.89319 3.74786 7.09435 3.38577Z" fill="#99A2AD"/>
<path d="M11 2C11 2.55228 10.5523 3 9.99997 3C9.44769 3 8.99997 2.55228 8.99997 2C8.99997 1.44772 9.44769 1 9.99997 1C10.5523 1 11 1.44772 11 2Z" fill="#99A2AD"/>
</svg>
