<svg width="20" height="20" viewBox="0 0 20 20" fill="none" xmlns="http://www.w3.org/2000/svg">
<path fill-rule="evenodd" clip-rule="evenodd" d="M13.6288 2.25C16.5952 2.25 19 4.65479 19 7.62124C19 10.458 17.9185 11.8958 13.2976 15.4898L11.3046 17.0399C10.5373 17.6367 9.46274 17.6367 8.69538 17.0399L6.70238 15.4898C2.08148 11.8958 1 10.458 1 7.62124C1 4.65479 3.40479 2.25 6.37124 2.25C7.6268 2.25 8.77436 2.71046 9.78544 3.59644L10 3.79279L10.2146 3.59644C11.2256 2.71046 12.3732 2.25 13.6288 2.25ZM13.6288 3.75C12.5046 3.75 11.4915 4.27975 10.5742 5.3716C10.2745 5.72836 9.72547 5.72836 9.42575 5.3716C8.50847 4.27975 7.4954 3.75 6.37124 3.75C4.23321 3.75 2.5 5.48321 2.5 7.62124C2.5 9.85881 3.33781 10.9726 7.62329 14.3058L9.61629 15.8559C9.84198 16.0314 10.158 16.0314 10.3837 15.8559L12.3767 14.3058C16.4674 11.1241 17.4167 9.96465 17.4946 7.91971L17.5 7.62124C17.5 5.48321 15.7668 3.75 13.6288 3.75ZM11 7.75C11 7.33579 11.3358 7 11.75 7H12.5V6.25C12.5 5.83579 12.8358 5.5 13.25 5.5C13.6642 5.5 14 5.83579 14 6.25V7H14.75C15.1642 7 15.5 7.33579 15.5 7.75C15.5 8.16421 15.1642 8.5 14.75 8.5H14V9.25C14 9.66421 13.6642 10 13.25 10C12.8358 10 12.5 9.66421 12.5 9.25V8.5H11.75C11.3358 8.5 11 8.16421 11 7.75Z" fill="#99A2AD"/>
</svg>
