<svg width="20" height="20" viewBox="0 0 20 20" fill="none" xmlns="http://www.w3.org/2000/svg">
<path fill-rule="evenodd" clip-rule="evenodd" d="M10.3101 3.53613C10.1066 3.48413 9.89335 3.48413 9.6899 3.53613C9.493 3.58646 9.28983 3.71765 8.56306 4.24293L4.64542 7.07444C4.07621 7.48584 3.91674 7.60976 3.80531 7.75282C3.69295 7.89706 3.60898 8.06124 3.55782 8.23667C3.50709 8.41066 3.50006 8.61225 3.50006 9.31368V13.7382C3.50006 14.3654 3.50064 14.7908 3.52754 15.1194C3.55372 15.4393 3.60106 15.6009 3.6581 15.7127C3.79711 15.985 4.01893 16.2064 4.29177 16.3451C4.40372 16.4021 4.56569 16.4493 4.88616 16.4754C5.21539 16.5023 5.64161 16.5029 6.27003 16.5029H13.73C14.3584 16.5029 14.7846 16.5023 15.1138 16.4754C15.4343 16.4493 15.5963 16.4021 15.7082 16.3451C15.9811 16.2064 16.2029 15.985 16.3419 15.7127C16.3989 15.6009 16.4463 15.4393 16.4725 15.1194C16.4994 14.7908 16.4999 14.3654 16.4999 13.7382V9.31368C16.4999 8.61225 16.4929 8.41066 16.4422 8.23667C16.391 8.06124 16.307 7.89706 16.1947 7.75282C16.0833 7.60976 15.9238 7.48584 15.3546 7.07444L11.4369 4.24293C10.7102 3.71765 10.507 3.58646 10.3101 3.53613ZM9.31779 2.0858C9.76537 1.9714 10.2346 1.9714 10.6822 2.0858C11.1924 2.21621 11.6412 2.54122 12.2137 2.95584C12.2476 2.98037 12.2819 3.00521 12.3167 3.03034L16.2343 5.86185C16.2599 5.88032 16.2851 5.89852 16.31 5.91649C16.7697 6.24833 17.1194 6.50074 17.3789 6.83391C17.6075 7.12738 17.7783 7.46139 17.8824 7.81831C18.0006 8.22351 18.0003 8.65422 18 9.22049C17.9999 9.25115 17.9999 9.28221 17.9999 9.31368V13.769C17.9999 14.3577 17.9999 14.8445 17.9675 15.2413C17.9337 15.6538 17.8611 16.0344 17.6784 16.3924C17.3956 16.9464 16.9443 17.3968 16.3892 17.6791C16.0306 17.8615 15.6492 17.9339 15.236 17.9676C14.8384 18 14.3507 18 13.7609 18H6.23914C5.64935 18 5.16157 18 4.76402 17.9676C4.35079 17.9339 3.96944 17.8615 3.61079 17.6791C3.05571 17.3968 2.60442 16.9464 2.3216 16.3924C2.13886 16.0344 2.0663 15.6538 2.03254 15.2413C2.00005 14.8445 2.00006 14.3577 2.00007 13.769L2.00007 9.31368C2.00007 9.28221 2.00005 9.25114 2.00004 9.22048C1.9997 8.65422 1.99944 8.22351 2.11759 7.81831C2.22167 7.46139 2.39251 7.12738 2.62111 6.83391C2.88062 6.50074 3.23029 6.24833 3.69 5.91649C3.7149 5.89852 3.74012 5.88031 3.76566 5.86185L7.68331 3.03034C7.71808 3.00521 7.75238 2.98037 7.78625 2.95584C8.35878 2.54122 8.80759 2.21621 9.31779 2.0858ZM13.7603 8.21916C14.0638 8.50048 14.0814 8.97412 13.7996 9.27707L9.62103 13.7685C9.47912 13.921 9.27999 14.0077 9.07144 14.0077C8.86289 14.0077 8.66375 13.921 8.52185 13.7685L6.20044 11.2732C5.91859 10.9703 5.93617 10.4966 6.2397 10.2153C6.54323 9.93402 7.01777 9.95157 7.29962 10.2545L9.07144 12.159L12.7004 8.25835C12.9822 7.95539 13.4568 7.93785 13.7603 8.21916Z" fill="#99A2AD"/>
</svg>
