<svg width="20" height="20" viewBox="0 0 20 20" fill="none" xmlns="http://www.w3.org/2000/svg">
<path fill-rule="evenodd" clip-rule="evenodd" d="M10.3096 3.53661C10.1065 3.48466 9.89352 3.48466 9.69036 3.53661C9.49374 3.58688 9.29084 3.71789 8.56494 4.2425L4.51494 7.16939C3.99325 7.54641 3.85777 7.65301 3.76366 7.77389C3.66662 7.89854 3.59408 8.04046 3.5499 8.19212C3.50705 8.3392 3.5 8.51145 3.5 9.15511V14.05C3.5 14.6225 3.50058 15.0067 3.52476 15.3026C3.54822 15.5897 3.5901 15.727 3.63624 15.8175C3.75608 16.0527 3.94731 16.244 4.18251 16.3638C4.27307 16.4099 4.41035 16.4518 4.69748 16.4753C4.99336 16.4995 5.37757 16.5 5.95 16.5H14.05C14.6224 16.5 15.0066 16.4995 15.3025 16.4753C15.5896 16.4518 15.7269 16.4099 15.8175 16.3638C16.0527 16.244 16.2439 16.0527 16.3638 15.8175C16.4099 15.727 16.4518 15.5897 16.4752 15.3026C16.4994 15.0067 16.5 14.6225 16.5 14.05V9.15511C16.5 8.51145 16.493 8.3392 16.4501 8.19212C16.4059 8.04046 16.3334 7.89854 16.2363 7.77389C16.1422 7.65301 16.0067 7.54641 15.4851 7.16939L11.4351 4.2425C10.7092 3.71789 10.5063 3.58688 10.3096 3.53661ZM9.31879 2.08336C9.76574 1.96908 10.2343 1.96908 10.6812 2.08336C11.1907 2.21362 11.639 2.53824 12.2109 2.95236C12.2447 2.97685 12.2789 3.00165 12.3137 3.02675L16.3637 5.95364C16.3882 5.97134 16.4124 5.9888 16.4363 6.00604C16.8511 6.30541 17.1774 6.54084 17.4199 6.85244C17.6334 7.12667 17.793 7.43888 17.8902 7.77254C18.0007 8.15167 18.0004 8.554 18 9.06558C18 9.09506 18 9.1249 18 9.15511V14.0805C18 14.6146 18 15.0605 17.9703 15.4247C17.9392 15.8046 17.8721 16.1612 17.7003 16.4985C17.4366 17.016 17.0159 17.4367 16.4985 17.7003C16.1612 17.8721 15.8046 17.9393 15.4247 17.9703C15.0604 18.0001 14.6146 18 14.0805 18H5.91955C5.3854 18 4.93956 18.0001 4.57533 17.9703C4.19544 17.9393 3.83879 17.8721 3.50153 17.7003C2.98408 17.4367 2.56338 17.016 2.29973 16.4985C2.12789 16.1612 2.06078 15.8046 2.02974 15.4247C1.99998 15.0605 1.99999 14.6146 2 14.0805L2 9.15511C2 9.1249 1.99998 9.09506 1.99996 9.06558C1.9996 8.55399 1.99932 8.15167 2.10977 7.77254C2.20699 7.43888 2.36656 7.12667 2.58006 6.85244C2.82264 6.54085 3.14889 6.30541 3.56374 6.00605C3.58764 5.9888 3.61184 5.97134 3.63633 5.95364L7.68633 3.02675C7.72105 3.00165 7.75531 2.97685 7.78913 2.95235C8.36102 2.53824 8.80933 2.21362 9.31879 2.08336Z" fill="#99A2AD"/>
<path fill-rule="evenodd" clip-rule="evenodd" d="M10 7.00003C10.4142 7.00003 10.75 7.33581 10.75 7.75003V12.4394L11.9697 11.2197C12.2626 10.9268 12.7374 10.9268 13.0303 11.2197C13.3232 11.5126 13.3232 11.9875 13.0303 12.2804L10.5303 14.7804C10.2374 15.0733 9.76256 15.0733 9.46967 14.7804L6.96967 12.2804C6.67678 11.9875 6.67678 11.5126 6.96967 11.2197C7.26256 10.9268 7.73744 10.9268 8.03033 11.2197L9.25 12.4394V7.75003C9.25 7.33581 9.58579 7.00003 10 7.00003Z" fill="#99A2AD"/>
</svg>
