<svg width="20" height="20" viewBox="0 0 20 20" fill="none" xmlns="http://www.w3.org/2000/svg">
<path fill-rule="evenodd" clip-rule="evenodd" d="M5.0148 10.2367C5.2153 9.26202 6.02929 8.23283 7.35283 8.23283H9.92969C9.92969 8.23283 10.152 8.24594 10.3047 8.08984C10.4411 7.95036 10.4411 7.74219 10.4411 7.74219L10.4411 6.94606C10.4411 4.80145 12.1136 3 14.3235 3C15.2379 3 15.9124 3.22099 16.4703 3.60182C16.5075 3.6272 16.5442 3.6533 16.5803 3.68009C16.6284 3.71565 16.6756 3.75243 16.722 3.79039C16.926 3.95716 17.1152 4.14665 17.297 4.35527C17.684 4.7995 17.5177 5.04278 16.7982 5.08512V8.03904C16.7982 8.32693 16.5581 8.56032 16.262 8.56032H16.1677C15.9499 8.56032 15.7966 8.56032 15.5589 8.37942C15.5011 8.33544 15.4383 8.28076 15.3684 8.2128L14.3464 7.38301C14.2124 7.28521 14.1826 7.24584 14.0816 7.28513C13.9859 7.32235 13.928 7.69222 13.9353 7.83411C13.9391 7.90807 13.9602 7.98256 13.9735 8.0552L15.1088 14.1954C15.1088 14.1954 15.1415 14.3741 15.293 14.4883C15.4445 14.6025 15.6765 14.589 15.7754 14.5502C15.9457 14.4834 16.1369 14.4837 16.3065 14.5531C16.4808 14.6244 16.6267 14.7644 16.7008 14.954C16.844 15.3206 16.6642 15.734 16.2993 15.8786C16.1942 15.9201 16.0885 15.9599 15.9824 15.9986C15.8789 16.0363 15.7745 16.0729 15.6692 16.1085C15.4019 16.1988 15.1289 16.2822 14.85 16.3587C14.5791 16.433 14.3028 16.5009 14.021 16.5623C13.8886 16.5911 13.755 16.6185 13.6202 16.6445C12.3888 16.8818 11.057 17 9.62501 17C8.23517 17 6.93961 16.8887 5.7387 16.6651C5.59752 16.6388 5.45765 16.611 5.31908 16.5816C5.04078 16.5226 4.76775 16.4573 4.50001 16.3858C4.22486 16.3123 3.9553 16.2321 3.69132 16.1453C3.54846 16.0983 3.40723 16.0494 3.26764 15.9986C3.16151 15.9599 3.05578 15.9201 2.9507 15.8786C2.58578 15.734 2.40607 15.3206 2.54924 14.954C2.62206 14.7676 2.7644 14.6291 2.93483 14.5567C3.1002 14.4865 3.29201 14.4785 3.47244 14.5494C3.36512 14.4995 3.86433 14.6751 4.07656 14.4985C4.21207 14.3857 4.2427 14.2346 4.2427 14.2346L5.0148 10.2367ZM6.08594 15.1172C6.17148 15.2377 6.30935 15.3175 6.44922 15.3398C7.44457 15.4989 8.48041 15.5715 9.62501 15.5715C10.8027 15.5715 11.9013 15.487 12.921 15.3186C13.0656 15.2948 13.1646 15.2243 13.2539 15.1094C13.3378 15.0014 13.3483 14.8669 13.3448 14.8009C13.2447 12.8879 11.712 11.29 9.75 11.25C7.74279 11.209 6.10326 12.8919 6.0047 14.8168C6.00158 14.8777 6.01175 15.0126 6.08594 15.1172ZM11.6116 13.9781C11.255 13.2602 10.5369 12.7664 9.7194 12.7497C8.89241 12.7328 8.12786 13.253 7.74911 13.9887C8.34292 14.0435 8.96797 14.0715 9.62501 14.0715C10.323 14.0715 10.9849 14.0399 11.6116 13.9781ZM2.95147 13.0152L3.54369 9.94354C3.91658 8.13114 5.47584 6.73283 7.35283 6.73283H8.94519C9.05359 3.90014 11.3126 1.5 14.3235 1.5C15.2245 1.5 16.0204 1.67024 16.7328 2.02184C17.4391 2.3704 17.9807 2.85657 18.428 3.36994C18.5844 3.54948 18.7947 3.82786 18.9117 4.19219C19.0455 4.60891 19.0629 5.18776 18.701 5.71728C18.5802 5.89401 18.4398 6.03063 18.2982 6.13646V8.03904C18.2982 9.19492 17.3465 10.0603 16.262 10.0603H16.1677C16.1608 10.0603 16.1529 10.0604 16.1438 10.0604C16.0877 10.0608 15.9907 10.0615 15.8679 10.051L16.4193 13.033C17.1551 13.1629 17.8068 13.6627 18.098 14.4083C18.5416 15.544 17.9842 16.8287 16.8452 17.2758C14.7255 18.1078 12.3074 18.5 9.62501 18.5C6.94263 18.5 4.52454 18.1078 2.40487 17.2758C1.26586 16.8287 0.708456 15.544 1.15203 14.4083C1.45908 13.6222 2.1669 13.1092 2.95147 13.0152Z" fill="#99A2AD"/>
</svg>
