<svg width="20" height="20" viewBox="0 0 20 20" fill="none" xmlns="http://www.w3.org/2000/svg">
<path fill-rule="evenodd" clip-rule="evenodd" d="M1.39285 8.75712C1.39285 8.3429 1.72864 8.00712 2.14285 8.00712H17.8571C18.2714 8.00712 18.6071 8.3429 18.6071 8.75712C18.6071 9.17133 18.2714 9.50712 17.8571 9.50712H2.14285C1.72864 9.50712 1.39285 9.17133 1.39285 8.75712Z" fill="#99A2AD"/>
<path fill-rule="evenodd" clip-rule="evenodd" d="M9.00597 2.10712H10.994C11.5609 2.10711 12.0275 2.1071 12.4113 2.13581C12.8108 2.1657 13.1733 2.2294 13.5231 2.38382C14.0759 2.62779 14.5498 3.02104 14.8914 3.51939C15.1077 3.83484 15.2371 4.17939 15.3401 4.56652C15.439 4.93841 15.525 5.39704 15.6295 5.95422L16.0943 8.43319C16.1706 8.84031 15.9025 9.23222 15.4954 9.30856C15.0882 9.38489 14.6963 9.11674 14.62 8.70962L14.1603 6.25818C14.0494 5.66667 13.9733 5.26343 13.8905 4.95217C13.8101 4.65004 13.7361 4.48692 13.6543 4.36757C13.4703 4.09923 13.2151 3.88748 12.9175 3.75611C12.7851 3.69769 12.6111 3.65496 12.2994 3.63163C11.9782 3.6076 11.5678 3.60712 10.966 3.60712H9.03399C8.43217 3.60712 8.02182 3.6076 7.70063 3.63163C7.38886 3.65496 7.21487 3.69769 7.0825 3.75611C6.78484 3.88748 6.5297 4.09923 6.34573 4.36757C6.26391 4.48692 6.18985 4.65004 6.10947 4.95217C6.02666 5.26344 5.95056 5.66667 5.83965 6.25818L5.38001 8.70962C5.30367 9.11674 4.91176 9.38489 4.50464 9.30856C4.09752 9.23222 3.82936 8.84031 3.9057 8.43319L4.37051 5.95421C4.47497 5.39704 4.56096 4.93841 4.6599 4.56652C4.76289 4.17939 4.8923 3.83484 5.10856 3.51939C5.45023 3.02104 5.92406 2.62779 6.47684 2.38382C6.82674 2.2294 7.18923 2.1657 7.58872 2.13581C7.97247 2.1071 8.43909 2.10711 9.00597 2.10712Z" fill="#99A2AD"/>
<path fill-rule="evenodd" clip-rule="evenodd" d="M5.71428 12.1785C4.55054 12.1785 3.60714 13.1219 3.60714 14.2857C3.60714 15.4494 4.55054 16.3928 5.71428 16.3928C6.87802 16.3928 7.82142 15.4494 7.82142 14.2857C7.82142 13.1219 6.87802 12.1785 5.71428 12.1785ZM2.10714 14.2857C2.10714 12.2935 3.72211 10.6785 5.71428 10.6785C7.70645 10.6785 9.32142 12.2935 9.32142 14.2857C9.32142 16.2779 7.70645 17.8928 5.71428 17.8928C3.72211 17.8928 2.10714 16.2779 2.10714 14.2857Z" fill="#99A2AD"/>
<path fill-rule="evenodd" clip-rule="evenodd" d="M14.2857 12.1785C13.122 12.1785 12.1786 13.1219 12.1786 14.2857C12.1786 15.4494 13.122 16.3928 14.2857 16.3928C15.4495 16.3928 16.3929 15.4494 16.3929 14.2857C16.3929 13.1219 15.4495 12.1785 14.2857 12.1785ZM10.6786 14.2857C10.6786 12.2935 12.2935 10.6785 14.2857 10.6785C16.2779 10.6785 17.8929 12.2935 17.8929 14.2857C17.8929 16.2779 16.2779 17.8928 14.2857 17.8928C12.2935 17.8928 10.6786 16.2779 10.6786 14.2857Z" fill="#99A2AD"/>
<path fill-rule="evenodd" clip-rule="evenodd" d="M10 14.3214C9.5768 14.3214 9.16932 14.383 8.78536 14.4973C8.38836 14.6155 7.97074 14.3894 7.85258 13.9924C7.73443 13.5954 7.96048 13.1778 8.35749 13.0596C8.87883 12.9045 9.43038 12.8214 10 12.8214C10.5696 12.8214 11.1212 12.9045 11.6425 13.0596C12.0395 13.1778 12.2656 13.5954 12.1474 13.9924C12.0293 14.3894 11.6116 14.6155 11.2146 14.4973C10.8307 14.383 10.4232 14.3214 10 14.3214Z" fill="#99A2AD"/>
</svg>
