<svg width="20" height="20" viewBox="0 0 20 20" fill="none" xmlns="http://www.w3.org/2000/svg">
<path fill-rule="evenodd" clip-rule="evenodd" d="M15.4103 0.999905C16.3048 1.01078 17.2003 1.00234 18.095 0.99998C18.1154 0.999926 18.1672 0.99979 18.2168 1.00384C18.2798 1.00899 18.4018 1.02433 18.5359 1.09263C18.6958 1.17413 18.8259 1.30416 18.9074 1.4641C18.9757 1.59814 18.991 1.72018 18.9961 1.78324C19.0002 1.83283 19.0001 1.88454 19 1.90503C18.9976 2.71667 19 3.52835 19 4.33999C19 4.35562 19.0006 4.41244 18.9961 4.46674C18.991 4.5298 18.9757 4.65183 18.9074 4.78588C18.8259 4.94582 18.6958 5.07585 18.5359 5.15734C18.4018 5.22565 18.2798 5.24098 18.2168 5.24614C18.1625 5.25057 18.1056 5.24999 18.09 5.24999H16.75V6.58656C16.75 6.60219 16.7506 6.65901 16.7461 6.71331C16.741 6.77637 16.7257 6.89841 16.6574 7.03245C16.5759 7.19239 16.4458 7.32242 16.2859 7.40392C16.1518 7.47222 16.0298 7.48756 15.9668 7.49271C15.9125 7.49714 15.8556 7.49656 15.84 7.49656H14.75C14.75 7.94602 14.7489 8.39549 14.75 8.84495C14.7501 8.86544 14.7502 8.91714 14.7461 8.96674C14.741 9.0298 14.7257 9.15183 14.6574 9.28588C14.5759 9.44582 14.4458 9.57585 14.2859 9.65734C14.1518 9.72565 14.0298 9.74098 13.9668 9.74614C13.9172 9.75019 13.8654 9.75005 13.845 9.75C13.318 9.7487 12.791 9.74999 12.264 9.74999C12.732 10.5592 13 11.499 13 12.5C13 15.5376 10.5376 18 7.5 18C4.46243 18 2 15.5376 2 12.5C2 9.46242 4.46243 6.99998 7.5 6.99998C7.99611 6.99998 8.47791 7.06586 8.93661 7.18969L14.5934 1.34986C14.6115 1.33123 14.7038 1.2287 14.8239 1.15322C14.9146 1.09627 15.0138 1.05424 15.1178 1.02875C15.2437 0.997879 15.3697 0.999412 15.4103 0.999905ZM15.5677 2.49999L9.87247 8.37947C9.84762 8.40512 9.71474 8.55668 9.53872 8.64631C9.40568 8.71405 9.26468 8.75016 9.11546 8.75471C8.99525 8.75838 8.8963 8.73709 8.83821 8.72261C8.78373 8.70903 8.72402 8.69028 8.68339 8.67772C8.31033 8.56237 7.91315 8.49998 7.5 8.49998C5.29086 8.49998 3.5 10.2908 3.5 12.5C3.5 14.7091 5.29086 16.5 7.5 16.5C9.70914 16.5 11.5 14.7091 11.5 12.5C11.5 11.6434 11.2219 10.7974 10.7086 10.111C10.6975 10.0961 10.6701 10.0595 10.6465 10.0225C10.6171 9.97656 10.5613 9.88221 10.5316 9.75108C10.4965 9.59595 10.5055 9.43524 10.5576 9.28496C10.6009 9.16018 10.665 9.07362 10.7006 9.02948C10.7284 8.99493 10.7598 8.96146 10.772 8.94848C10.876 8.83764 10.9795 8.72627 11.0832 8.61516C11.1013 8.59578 11.1939 8.48894 11.3158 8.41013C11.4078 8.35067 11.5089 8.30674 11.6152 8.28007C11.7439 8.24778 11.8729 8.24938 11.9144 8.2499C12.3595 8.25542 12.8049 8.24999 13.25 8.24999C13.25 7.80053 13.2511 7.35106 13.25 6.9016C13.2499 6.88111 13.2498 6.82941 13.2539 6.77981C13.259 6.71675 13.2743 6.59471 13.3426 6.46067C13.4241 6.30073 13.5542 6.1707 13.7141 6.0892C13.8482 6.0209 13.9702 6.00557 14.0332 6.00041C14.0828 5.99636 14.1346 5.9965 14.155 5.99655C14.52 5.99754 14.885 5.99656 15.25 5.99656C15.25 5.54939 15.2511 5.1022 15.25 4.65503C15.2499 4.63454 15.2498 4.58283 15.2539 4.53324C15.259 4.47018 15.2743 4.34814 15.3426 4.2141C15.4241 4.05416 15.5542 3.92413 15.7141 3.84263C15.8482 3.77433 15.9702 3.75899 16.0332 3.75384C16.0875 3.74941 16.1444 3.74999 16.16 3.74999H17.5V2.49999H15.5677Z" fill="#99A2AD"/>
<path d="M7.5 13.5C7.5 14.0523 7.05228 14.5 6.5 14.5C5.94772 14.5 5.5 14.0523 5.5 13.5C5.5 12.9477 5.94772 12.5 6.5 12.5C7.05228 12.5 7.5 12.9477 7.5 13.5Z" fill="#99A2AD"/>
</svg>
