<svg width="20" height="20" viewBox="0 0 20 20" fill="none" xmlns="http://www.w3.org/2000/svg">
<path fill-rule="evenodd" clip-rule="evenodd" d="M4.01169 2.52774C4.66122 2.18037 5.3068 2 7.08218 2H12.9178C14.6932 2 15.3388 2.18037 15.9883 2.52774C16.6281 2.86988 17.1301 3.37195 17.4723 4.01169C17.8196 4.66122 18 5.3068 18 7.08218V12.9178C18 14.6932 17.8196 15.3388 17.4723 15.9883C17.1301 16.6281 16.6281 17.1301 15.9883 17.4723C15.3388 17.8196 14.6932 18 12.9178 18H7.08218C5.3068 18 4.66122 17.8196 4.01169 17.4723C3.37195 17.1301 2.86988 16.6281 2.52774 15.9883C2.18037 15.3388 2 14.6932 2 12.9178V7.08218C2 5.3068 2.18037 4.66122 2.52774 4.01169C2.86988 3.37195 3.37195 2.86988 4.01169 2.52774ZM15.2809 16.1495C14.9412 16.3312 14.5779 16.5 12.9178 16.5H9V3.5L12.9178 3.5C14.5779 3.5 14.9412 3.66876 15.2809 3.85046C15.6593 4.0528 15.9472 4.34075 16.1495 4.71909C16.3312 5.05884 16.5 5.42212 16.5 7.08218V12.9178C16.5 14.5779 16.3312 14.9412 16.1495 15.2809C15.9472 15.6593 15.6593 15.9472 15.2809 16.1495ZM7.08218 3.5C5.42212 3.5 5.05884 3.66876 4.71909 3.85046C4.34075 4.0528 4.0528 4.34075 3.85046 4.71909C3.66876 5.05884 3.5 5.42212 3.5 7.08218V12.9178C3.5 14.5779 3.66876 14.9412 3.85046 15.2809C4.0528 15.6593 4.34075 15.9472 4.71909 16.1495C5.05884 16.3312 5.42212 16.5 7.08218 16.5H7.5V3.5H7.08218Z" fill="#99A2AD"/>
</svg>
