<svg width="20" height="20" viewBox="0 0 20 20" fill="none" xmlns="http://www.w3.org/2000/svg">
<path fill-rule="evenodd" clip-rule="evenodd" d="M17 10C17 11.5723 16.4816 13.0236 15.6064 14.1922L14.1716 12.7574C14.6951 11.967 15 11.0191 15 10C15 8.98092 14.6951 8.03304 14.1716 7.24261L15.6064 5.80783C16.4816 6.97641 17 8.42766 17 10ZM14.1922 4.39362C13.0236 3.5184 11.5723 3 10 3C8.42766 3 6.97641 3.5184 5.80783 4.39362L7.24262 5.8284C8.03305 5.30488 8.98092 5 10 5C11.0191 5 11.967 5.30488 12.7574 5.8284L14.1922 4.39362ZM10 17C11.5723 17 13.0236 16.4816 14.1922 15.6064L12.7574 14.1716C11.967 14.6951 11.0191 15 10 15C8.98092 15 8.03304 14.6951 7.24261 14.1716L5.80783 15.6064C6.97641 16.4816 8.42766 17 10 17ZM4.39362 14.1922C3.5184 13.0236 3 11.5723 3 10C3 8.42766 3.5184 6.97641 4.39362 5.80783L5.8284 7.24261C5.30488 8.03305 5.00001 8.98092 5.00001 10C5.00001 11.0191 5.30488 11.967 5.8284 12.7574L4.39362 14.1922ZM18.5 10C18.5 14.6944 14.6944 18.5 10 18.5C5.30558 18.5 1.5 14.6944 1.5 10C1.5 5.30558 5.30558 1.5 10 1.5C14.6944 1.5 18.5 5.30558 18.5 10ZM13.5 10C13.5 11.933 11.933 13.5 10 13.5C8.06701 13.5 6.50001 11.933 6.50001 10C6.50001 8.06701 8.06701 6.5 10 6.5C11.933 6.5 13.5 8.06701 13.5 10Z" fill="#99A2AD"/>
</svg>
