<svg width="20" height="20" viewBox="0 0 20 20" fill="none" xmlns="http://www.w3.org/2000/svg">
<path fill-rule="evenodd" clip-rule="evenodd" d="M4.25 8.75C4.25 5.57436 6.82436 3 10 3C10.9586 3 11.8603 3.23398 12.6534 3.6473C13.0207 3.83874 13.4736 3.69617 13.6651 3.32885C13.8565 2.96153 13.714 2.50857 13.3466 2.31712C12.3446 1.79489 11.2057 1.5 10 1.5C5.99594 1.5 2.75 4.74594 2.75 8.75C2.75 10.8059 3.6931 12.2291 4.66585 13.2905C5.01302 13.6692 5.38316 14.0212 5.70699 14.3292C5.82356 14.44 5.93413 14.5452 6.03547 14.6438C6.40704 15.0055 6.65081 15.2763 6.7866 15.5073L6.88369 15.9927C6.94814 16.315 7.00435 16.5961 7.06868 16.8272C7.13721 17.0732 7.22768 17.3129 7.38475 17.5379C7.62207 17.8779 7.94874 18.1457 8.32867 18.3117C8.5801 18.4216 8.83282 18.4633 9.08757 18.4822C9.32674 18.5 9.61335 18.5 9.94205 18.5H10.0579C10.3866 18.5 10.6733 18.5 10.9124 18.4822C11.1672 18.4633 11.4199 18.4216 11.6713 18.3117C12.0513 18.1457 12.3779 17.8779 12.6153 17.5379C12.7723 17.3129 12.8628 17.0732 12.9313 16.8272C12.9957 16.5961 13.0519 16.3151 13.1163 15.9927L13.2134 15.5075C13.3101 15.3433 13.4666 15.1506 13.6974 14.9112C13.8787 14.723 14.0755 14.5359 14.2954 14.3268C14.4043 14.2232 14.5189 14.1143 14.6401 13.9971C15.3412 13.3195 16.1641 12.461 16.6938 11.3146C16.8676 10.9386 16.7036 10.4929 16.3276 10.3192C15.9516 10.1454 15.5059 10.3094 15.3322 10.6854C14.9259 11.5647 14.2768 12.2622 13.5976 12.9186C13.4982 13.0147 13.3953 13.1126 13.2918 13.2111C13.058 13.4334 12.8216 13.6583 12.6173 13.8702C12.4299 14.0647 12.243 14.2743 12.0818 14.5H10.75V12.8605L11.7185 12.0857C12.042 11.8269 12.0944 11.3549 11.8357 11.0315C11.5769 10.708 11.1049 10.6556 10.7815 10.9143L10 11.5395L9.21852 10.9143C8.89507 10.6556 8.42311 10.708 8.16435 11.0315C7.90559 11.3549 7.95803 11.8269 8.28148 12.0857L9.25 12.8605V14.5H7.91801C7.6766 14.1623 7.37248 13.852 7.08172 13.5689C6.95638 13.4469 6.83096 13.3277 6.70558 13.2084C6.39335 12.9115 6.08138 12.6149 5.77165 12.2769C4.9319 11.3607 4.25 10.2839 4.25 8.75ZM8.5137 16.4248C8.48268 16.3133 8.45247 16.1786 8.41555 16H10.0004H11.5844C11.5475 16.1786 11.5173 16.3133 11.4863 16.4248C11.4412 16.5866 11.4076 16.6473 11.3853 16.6793C11.3062 16.7926 11.1973 16.8819 11.0706 16.9372C11.0348 16.9529 10.9687 16.9739 10.8012 16.9864C10.6243 16.9995 10.3939 17 10.0325 17H9.96753C9.60605 17 9.37566 16.9995 9.19875 16.9864C9.03127 16.9739 8.96516 16.9529 8.92936 16.9372C8.80272 16.8819 8.69383 16.7926 8.61472 16.6793C8.59236 16.6473 8.55876 16.5866 8.5137 16.4248ZM15.1369 3.26172C15.2532 2.91276 15.7468 2.91276 15.8631 3.26172L16.2552 4.43789C16.3822 4.81887 16.6811 5.11783 17.0621 5.24482L18.2383 5.63688C18.5872 5.7532 18.5872 6.2468 18.2383 6.36312L17.0621 6.75518C16.6811 6.88217 16.3822 7.18113 16.2552 7.56211L15.8631 8.73828C15.7468 9.08724 15.2532 9.08724 15.1369 8.73828L14.7448 7.56211C14.6178 7.18113 14.3189 6.88217 13.9379 6.75518L12.7617 6.36312C12.4128 6.2468 12.4128 5.7532 12.7617 5.63688L13.9379 5.24482C14.3189 5.11783 14.6178 4.81887 14.7448 4.43789L15.1369 3.26172Z" fill="#99A2AD"/>
</svg>
