<svg width="20" height="20" viewBox="0 0 20 20" fill="none" xmlns="http://www.w3.org/2000/svg">
<path fill-rule="evenodd" clip-rule="evenodd" d="M10 3C6.82436 3 4.25 5.57436 4.25 8.75C4.25 10.2839 4.9319 11.3607 5.77165 12.2769C6.08138 12.6149 6.39333 12.9115 6.70556 13.2084L6.70558 13.2084C6.83096 13.3277 6.95638 13.4469 7.08172 13.5689C7.37248 13.852 7.6766 14.1623 7.91801 14.5H7.92291H7.92987H7.93683H7.94379H7.95075H7.95771H7.96466H7.97162H7.97857H7.98553H7.99248H7.99943H8.00638H8.01333H8.02028H8.02723H8.03417H8.04112H8.04806H8.055H8.06194H8.06887H8.07581H8.08274H8.08967H8.0966H8.10353H8.11045H8.11737H8.12429H8.13121H8.13813H8.14504H8.15195H8.15886H8.16576H8.17266H8.17956H8.18646H8.19335H8.20024H8.20713H8.21401H8.22089H8.22777H8.23465H8.24152H8.24838H8.25525H8.26211H8.26896H8.27581H8.28266H8.28951H8.29635H8.30318H8.31002H8.31684H8.32367H8.33049H8.3373H8.34411H8.35092H8.35772H8.36452H8.37131H8.3781H8.38488H8.39166H8.39843H8.4052H8.41196H8.41872H8.42547H8.43222H8.43896H8.4457H8.45243H8.45915H8.46587H8.47259H8.47929H8.486H8.49269H8.49938H8.50607H8.51275H8.51942H8.52608H8.53274H8.5394H8.54604H8.55268H8.55932H8.56594H8.57256H8.57918H8.58578H8.59238H8.59898H8.60556H8.61214H8.61871H8.62528H8.63183H8.63838H8.64492H8.65146H8.65799H8.66451H8.67102H8.67752H8.68402H8.69051H8.69699H8.70346H8.70992H8.71638H8.72283H8.72926H8.7357H8.74212H8.74853H8.75494H8.76134H8.76772H8.7741H8.78047H8.78684H8.79319H8.79953H8.80587H8.81219H8.81851H8.82482H8.83111H8.8374H8.84368H8.84995H8.85621H8.86246H8.8687H8.87493H8.88115H8.88736H8.89356H8.89975H8.90593H8.9121H8.91826H8.92441H8.93055H8.93668H8.9428H8.9489H8.955H8.96109H8.96716H8.97323H8.97928H8.98532H8.99135H8.99737H9.00338H9.00938H9.01536H9.02134H9.0273H9.03325H9.03919H9.04512H9.05104H9.05694H9.06284H9.06872H9.07459H9.08044H9.08629H9.09212H9.09794H9.10375H9.10954H9.11533H9.1211H9.12685H9.1326H9.13833H9.14405H9.14976H9.15545H9.16113H9.1668H9.17246H9.1781H9.18372H9.18934H9.19494H9.20053H9.2061H9.21166H9.21721H9.22274H9.22826H9.23377H9.23926H9.24474H9.25V12.8605L8.28148 12.0857C7.95803 11.8269 7.90559 11.3549 8.16435 11.0315C8.42311 10.708 8.89507 10.6556 9.21852 10.9143L10 11.5395L10.7815 10.9143C11.1049 10.6556 11.5769 10.708 11.8357 11.0315C12.0944 11.3549 12.042 11.8269 11.7185 12.0857L10.75 12.8605V14.5H10.7553H10.7607H10.7662H10.7717H10.7773H10.7828H10.7883H10.7939H10.7995H10.8051H10.8107H10.8163H10.8219H10.8275H10.8332H10.8389H10.8445H10.8502H10.8559H10.8617H10.8674H10.8731H10.8789H10.8847H10.8905H10.8963H10.9021H10.9079H10.9137H10.9196H10.9254H10.9313H10.9372H10.9431H10.949H10.9549H10.9608H10.9667H10.9727H10.9787H10.9846H10.9906H10.9966H11.0026H11.0086H11.0147H11.0207H11.0268H11.0328H11.0389H11.045H11.0511H11.0572H11.0633H11.0695H11.0756H11.0817H11.0879H11.0941H11.1002H11.1064H11.1126H11.1188H11.1251H11.1313H11.1375H11.1438H11.1501H11.1563H11.1626H11.1689H11.1752H11.1815H11.1878H11.1941H11.2005H11.2068H11.2132H11.2195H11.2259H11.2323H11.2387H11.2451H11.2515H11.2579H11.2643H11.2707H11.2772H11.2836H11.2901H11.2965H11.303H11.3095H11.316H11.3225H11.329H11.3355H11.342H11.3485H11.3551H11.3616H11.3682H11.3747H11.3813H11.3879H11.3944H11.401H11.4076H11.4142H11.4208H11.4274H11.4341H11.4407H11.4473H11.454H11.4606H11.4673H11.4739H11.4806H11.4873H11.4939H11.5006H11.5073H11.514H11.5207H11.5274H11.5341H11.5408H11.5476H11.5543H11.561H11.5678H11.5745H11.5813H11.588H11.5948H11.6016H11.6083H11.6151H11.6219H11.6287H11.6355H11.6423H11.6491H11.6559H11.6627H11.6695H11.6763H11.6832H11.69H11.6968H11.7037H11.7105H11.7173H11.7242H11.731H11.7379H11.7448H11.7516H11.7585H11.7654H11.7722H11.7791H11.786H11.7929H11.7998H11.8066H11.8135H11.8204H11.8273H11.8342H11.8411H11.8481H11.855H11.8619H11.8688H11.8757H11.8826H11.8895H11.8965H11.9034H11.9103H11.9173H11.9242H11.9311H11.9381H11.945H11.9519H11.9589H11.9658H11.9728H11.9797H11.9867H11.9936H12.0006H12.0075H12.0145H12.0214H12.0284H12.0353H12.0423H12.0493H12.0562H12.0632H12.0701H12.0771H12.082C12.3234 14.1623 12.6275 13.852 12.9183 13.5689C13.0436 13.4469 13.169 13.3277 13.2944 13.2084L13.2944 13.2084C13.6067 12.9115 13.9186 12.6149 14.2284 12.2769C15.0681 11.3607 15.75 10.2839 15.75 8.75C15.75 5.57436 13.1756 3 10 3ZM10 16H9.99998H9.99994H9.99986H9.99976H9.99962H9.99945H9.99926H9.99903H9.99878H9.99849H9.99818H9.99783H9.99746H9.99705H9.99662H9.99615H9.99566H9.99514H9.99459H9.99401H9.9934H9.99276H9.99209H9.9914H9.99067H9.98992H9.98914H9.98832H9.98748H9.98662H9.98572H9.9848H9.98384H9.98286H9.98185H9.98081H9.97975H9.97865H9.97753H9.97638H9.97521H9.974H9.97277H9.97151H9.97022H9.96891H9.96757H9.9662H9.9648H9.96338H9.96193H9.96045H9.95894H9.95741H9.95585H9.95427H9.95266H9.95102H9.94935H9.94766H9.94594H9.9442H9.94243H9.94063H9.93881H9.93696H9.93508H9.93318H9.93126H9.9293H9.92732H9.92532H9.92329H9.92123H9.91915H9.91705H9.91492H9.91276H9.91058H9.90837H9.90614H9.90388H9.9016H9.89929H9.89696H9.8946H9.89222H9.88981H9.88738H9.88493H9.88245H9.87994H9.87741H9.87486H9.87228H9.86968H9.86706H9.86441H9.86174H9.85904H9.85632H9.85358H9.85081H9.84802H9.8452H9.84236H9.8395H9.83662H9.83371H9.83078H9.82782H9.82485H9.82185H9.81882H9.81578H9.81271H9.80961H9.8065H9.80336H9.8002H9.79702H9.79382H9.79059H9.78734H9.78407H9.78078H9.77746H9.77413H9.77077H9.76739H9.76399H9.76056H9.75712H9.75365H9.75016H9.74665H9.74312H9.73956H9.73599H9.73239H9.72878H9.72514H9.72148H9.7178H9.7141H9.71038H9.70664H9.70288H9.69909H9.69529H9.69146H9.68762H9.68376H9.67987H9.67597H9.67204H9.6681H9.66413H9.66014H9.65614H9.65211H9.64807H9.64401H9.63992H9.63582H9.6317H9.62755H9.62339H9.61921H9.61501H9.61079H9.60655H9.6023H9.59802H9.59373H9.58941H9.58508H9.58073H9.57636H9.57197H9.56757H9.56314H9.5587H9.55424H9.54976H9.54526H9.54074H9.53621H9.53166H9.52709H9.5225H9.5179H9.51327H9.50863H9.50397H9.4993H9.49461H9.4899H9.48517H9.48042H9.47566H9.47088H9.46609H9.46128H9.45645H9.4516H9.44674H9.44186H9.43696H9.43205H9.42712H9.42217H9.41721H9.41223H9.40724H9.40223H9.3972H9.39216H9.3871H9.38203H9.37694H9.37183H9.36671H9.36157H9.35642H9.35125H9.34607H9.34087H9.33565H9.33042H9.32518H9.31992H9.31464H9.30935H9.30405H9.29873H9.2934H9.28805H9.28268H9.27731H9.27191H9.26651H9.26109H9.25565H9.2502H9.24474H9.23926H9.23377H9.22826H9.22274H9.21721H9.21166H9.2061H9.20053H9.19494H9.18934H9.18372H9.1781H9.17246H9.1668H9.16113H9.15545H9.14976H9.14405H9.13833H9.1326H9.12685H9.1211H9.11533H9.10954H9.10375H9.09794H9.09212H9.08629H9.08044H9.07459H9.06872H9.06284H9.05694H9.05104H9.04512H9.03919H9.03325H9.0273H9.02134H9.01536H9.00938H9.00338H8.99737H8.99135H8.98532H8.97928H8.97323H8.96716H8.96109H8.955H8.9489H8.9428H8.93668H8.93055H8.92441H8.91826H8.9121H8.90593H8.89975H8.89356H8.88736H8.88115H8.87493H8.8687H8.86246H8.85621H8.84995H8.84368H8.8374H8.83111H8.82482H8.81851H8.81219H8.80587H8.79953H8.79319H8.78684H8.78047H8.7741H8.76772H8.76134H8.75494H8.74853H8.74212H8.7357H8.72926H8.72283H8.71638H8.70992H8.70346H8.69699H8.69051H8.68402H8.67752H8.67102H8.66451H8.65799H8.65146H8.64492H8.63838H8.63183H8.62528H8.61871H8.61214H8.60556H8.59898H8.59238H8.58578H8.57918H8.57256H8.56594H8.55932H8.55268H8.54604H8.5394H8.53274H8.52608H8.51942H8.51275H8.50607H8.49938H8.49269H8.486H8.47929H8.47259H8.46587H8.45915H8.45243H8.4457H8.43896H8.43222H8.42547H8.41872H8.41555C8.45247 16.1786 8.48268 16.3133 8.5137 16.4248C8.55876 16.5866 8.59236 16.6473 8.61472 16.6793C8.69383 16.7926 8.80272 16.8819 8.92936 16.9372C8.96516 16.9529 9.03127 16.9739 9.19875 16.9864C9.37566 16.9995 9.60605 17 9.96753 17H10H10.0325C10.3939 17 10.6243 16.9995 10.8012 16.9864C10.9687 16.9739 11.0348 16.9529 11.0706 16.9372C11.1973 16.8819 11.3062 16.7926 11.3853 16.6793C11.4076 16.6473 11.4412 16.5866 11.4863 16.4248C11.5173 16.3133 11.5475 16.1786 11.5844 16H11.5813H11.5745H11.5678H11.561H11.5543H11.5476H11.5408H11.5341H11.5274H11.5207H11.514H11.5073H11.5006H11.4939H11.4873H11.4806H11.4739H11.4673H11.4606H11.454H11.4473H11.4407H11.4341H11.4274H11.4208H11.4142H11.4076H11.401H11.3944H11.3879H11.3813H11.3747H11.3682H11.3616H11.3551H11.3485H11.342H11.3355H11.329H11.3225H11.316H11.3095H11.303H11.2965H11.2901H11.2836H11.2772H11.2707H11.2643H11.2579H11.2515H11.2451H11.2387H11.2323H11.2259H11.2195H11.2132H11.2068H11.2005H11.1941H11.1878H11.1815H11.1752H11.1689H11.1626H11.1563H11.1501H11.1438H11.1375H11.1313H11.1251H11.1188H11.1126H11.1064H11.1002H11.0941H11.0879H11.0817H11.0756H11.0695H11.0633H11.0572H11.0511H11.045H11.0389H11.0328H11.0268H11.0207H11.0147H11.0086H11.0026H10.9966H10.9906H10.9846H10.9787H10.9727H10.9667H10.9608H10.9549H10.949H10.9431H10.9372H10.9313H10.9254H10.9196H10.9137H10.9079H10.9021H10.8963H10.8905H10.8847H10.8789H10.8731H10.8674H10.8617H10.8559H10.8502H10.8445H10.8389H10.8332H10.8275H10.8219H10.8163H10.8107H10.8051H10.7995H10.7939H10.7883H10.7828H10.7773H10.7717H10.7662H10.7607H10.7553H10.7498H10.7443H10.7389H10.7335H10.7281H10.7227H10.7173H10.712H10.7066H10.7013H10.696H10.6906H10.6854H10.6801H10.6748H10.6696H10.6643H10.6591H10.6539H10.6488H10.6436H10.6384H10.6333H10.6282H10.6231H10.618H10.6129H10.6078H10.6028H10.5978H10.5928H10.5878H10.5828H10.5778H10.5729H10.568H10.563H10.5581H10.5533H10.5484H10.5436H10.5387H10.5339H10.5291H10.5243H10.5196H10.5148H10.5101H10.5054H10.5007H10.496H10.4914H10.4867H10.4821H10.4775H10.4729H10.4683H10.4638H10.4593H10.4547H10.4502H10.4458H10.4413H10.4369H10.4324H10.428H10.4236H10.4193H10.4149H10.4106H10.4063H10.402H10.3977H10.3934H10.3892H10.385H10.3808H10.3766H10.3724H10.3683H10.3642H10.3601H10.356H10.3519H10.3479H10.3439H10.3399H10.3359H10.3319H10.328H10.324H10.3201H10.3162H10.3124H10.3085H10.3047H10.3009H10.2971H10.2934H10.2896H10.2859H10.2822H10.2785H10.2749H10.2712H10.2676H10.264H10.2604H10.2569H10.2534H10.2498H10.2464H10.2429H10.2394H10.236H10.2326H10.2292H10.2259H10.2225H10.2192H10.2159H10.2127H10.2094H10.2062H10.203H10.1998H10.1966H10.1935H10.1904H10.1873H10.1842H10.1812H10.1782H10.1752H10.1722H10.1692H10.1663H10.1634H10.1605H10.1576H10.1548H10.152H10.1492H10.1464H10.1437H10.141H10.1383H10.1356H10.1329H10.1303H10.1277H10.1251H10.1226H10.1201H10.1176H10.1151H10.1126H10.1102H10.1078H10.1054H10.103H10.1007H10.0984H10.0961H10.0939H10.0916H10.0894H10.0872H10.0851H10.083H10.0808H10.0788H10.0767H10.0747H10.0727H10.0707H10.0687H10.0668H10.0649H10.063H10.0612H10.0594H10.0576H10.0558H10.0541H10.0523H10.0506H10.049H10.0473H10.0457H10.0441H10.0426H10.0411H10.0396H10.0381H10.0366H10.0352H10.0338H10.0324H10.0311H10.0298H10.0285H10.0272H10.026H10.0248H10.0236H10.0225H10.0213H10.0203H10.0192H10.0181H10.0171H10.0162H10.0152H10.0143H10.0134H10.0125H10.0117H10.0109H10.0101H10.0093H10.0086H10.0079H10.0072H10.0066H10.006H10.0054H10.0049H10.0043H10.0038H10.0034H10.0029H10.0025H10.0022H10.0018H10.0015H10.0012H10.001H10.0007H10.0005H10.0004H10.0002H10.0001H10.0001H10H10ZM9.96753 18.5H10H10.0325H10.0579H10.058C10.3866 18.5 10.6733 18.5 10.9124 18.4822C11.1672 18.4633 11.4199 18.4216 11.6713 18.3117C12.0513 18.1457 12.3779 17.8779 12.6153 17.5379C12.7723 17.3129 12.8628 17.0732 12.9313 16.8272C12.9957 16.5961 13.0519 16.3151 13.1163 15.9928L13.1163 15.9927L13.1163 15.9927L13.1213 15.9678L13.2134 15.5073C13.3492 15.2763 13.593 15.0055 13.9645 14.6438C14.0658 14.5452 14.1763 14.4401 14.2929 14.3293L14.2929 14.3293L14.293 14.3292C14.6168 14.0212 14.987 13.6692 15.3341 13.2905C16.3069 12.2291 17.25 10.8059 17.25 8.75C17.25 4.74594 14.0041 1.5 10 1.5C5.99594 1.5 2.75 4.74594 2.75 8.75C2.75 10.8059 3.6931 12.2291 4.66585 13.2905C5.01302 13.6692 5.38316 14.0212 5.70699 14.3292C5.82356 14.44 5.93413 14.5452 6.03547 14.6438C6.40704 15.0055 6.65081 15.2763 6.7866 15.5073L6.8787 15.9678L6.88369 15.9927C6.94814 16.315 7.00434 16.5961 7.06868 16.8272C7.13721 17.0732 7.22768 17.3129 7.38475 17.5379C7.62207 17.8779 7.94874 18.1457 8.32867 18.3117C8.5801 18.4216 8.83282 18.4633 9.08757 18.4822C9.32674 18.5 9.61335 18.5 9.94205 18.5H9.94213H9.96753Z" fill="#99A2AD"/>
</svg>
