<svg width="20" height="20" viewBox="0 0 20 20" fill="none" xmlns="http://www.w3.org/2000/svg">
<path d="M13.6288 2.5C16.5952 2.5 19 4.90479 19 7.87124C19 10.708 17.9185 12.1458 13.2976 15.7398L11.3046 17.2899C10.5373 17.8867 9.46274 17.8867 8.69538 17.2899L6.70238 15.7398C2.08148 12.1458 1 10.708 1 7.87124C1 4.90479 3.40479 2.5 6.37124 2.5C7.6268 2.5 8.77436 2.96046 9.78544 3.84644L10 4.04279L10.2146 3.84644C11.2256 2.96046 12.3732 2.5 13.6288 2.5ZM13.6288 4C12.5046 4 11.4915 4.52975 10.5742 5.6216C10.2745 5.97836 9.72547 5.97836 9.42575 5.6216C8.50847 4.52975 7.4954 4 6.37124 4C4.23321 4 2.5 5.73321 2.5 7.87124C2.5 10.1088 3.33781 11.2226 7.62329 14.5558L9.61629 16.1059C9.84198 16.2814 10.158 16.2814 10.3837 16.1059L12.3767 14.5558C16.4674 11.3741 17.4167 10.2147 17.4946 8.16971L17.5 7.87124C17.5 5.73321 15.7668 4 13.6288 4Z" fill="#99A2AD"/>
</svg>
