<svg width="20" height="20" viewBox="0 0 20 20" fill="none" xmlns="http://www.w3.org/2000/svg">
<path d="M7 7.75C7 8.16421 7.33579 8.5 7.75 8.5H10.4393L7.21967 11.7197C6.92678 12.0126 6.92678 12.4874 7.21967 12.7803C7.51256 13.0732 7.98744 13.0732 8.28033 12.7803L11.5 9.56066V12.25C11.5 12.6642 11.8358 13 12.25 13C12.6642 13 13 12.6642 13 12.25V7.75C13 7.33579 12.6642 7 12.25 7H7.75C7.33579 7 7 7.33579 7 7.75Z" fill="#99A2AD"/>
<path fill-rule="evenodd" clip-rule="evenodd" d="M10 18.5C14.6944 18.5 18.5 14.6944 18.5 10C18.5 5.30558 14.6944 1.5 10 1.5C5.30558 1.5 1.5 5.30558 1.5 10C1.5 14.6944 5.30558 18.5 10 18.5ZM17 10C17 13.866 13.866 17 10 17C6.13401 17 3 13.866 3 10C3 6.13401 6.13401 3 10 3C13.866 3 17 6.13401 17 10Z" fill="#99A2AD"/>
</svg>
