<svg width="20" height="20" viewBox="0 0 20 20" fill="none" xmlns="http://www.w3.org/2000/svg">
<g clip-path="url(#clip0_626_145124)">
<path d="M19.6842 11.4315C20.1053 11.6842 20.1053 12.3158 19.6842 12.5685L14.9474 15.4111C14.5263 15.6637 14 15.3479 14 14.8426V9.15744C14 8.6521 14.5263 8.33626 14.9474 8.58893L19.6842 11.4315Z" fill="#99A2AD"/>
<path d="M2 4.75C2 4.33579 2.33579 4 2.75 4H17.25C17.6642 4 18 4.33579 18 4.75C18 5.16421 17.6642 5.5 17.25 5.5H2.75C2.33579 5.5 2 5.16421 2 4.75Z" fill="#99A2AD"/>
<path d="M2 9.75C2 9.33579 2.33579 9 2.75 9H10.25C10.6642 9 11 9.33579 11 9.75C11 10.1642 10.6642 10.5 10.25 10.5H2.75C2.33579 10.5 2 10.1642 2 9.75Z" fill="#99A2AD"/>
<path d="M2 14.75C2 14.3358 2.33579 14 2.75 14H10.25C10.6642 14 11 14.3358 11 14.75C11 15.1642 10.6642 15.5 10.25 15.5H2.75C2.33579 15.5 2 15.1642 2 14.75Z" fill="#99A2AD"/>
</g>
<defs>
<clipPath id="clip0_626_145124">
<rect width="20" height="20" fill="white"/>
</clipPath>
</defs>
</svg>
