<svg width="20" height="20" viewBox="0 0 20 20" fill="none" xmlns="http://www.w3.org/2000/svg">
<path d="M2 4.75C2 4.33579 2.33579 4 2.75 4H17.25C17.6642 4 18 4.33579 18 4.75C18 5.16421 17.6642 5.5 17.25 5.5H2.75C2.33579 5.5 2 5.16421 2 4.75Z" fill="#99A2AD"/>
<path d="M2 9.75C2 9.33579 2.33579 9 2.75 9H15.25C15.6642 9 16 9.33579 16 9.75C16 10.1642 15.6642 10.5 15.25 10.5H2.75C2.33579 10.5 2 10.1642 2 9.75Z" fill="#99A2AD"/>
<path d="M2 14.75C2 14.3358 2.33579 14 2.75 14H7.25C7.66421 14 8 14.3358 8 14.75C8 15.1642 7.66421 15.5 7.25 15.5H2.75C2.33579 15.5 2 15.1642 2 14.75Z" fill="#99A2AD"/>
<path fill-rule="evenodd" clip-rule="evenodd" d="M19.2803 12.2197C19.5732 12.5126 19.5732 12.9874 19.2803 13.2803L14.7852 17.7755C14.4926 18.0681 14.0183 18.0685 13.7253 17.7763L11.2224 15.2811C10.9291 14.9887 10.9284 14.5138 11.2208 14.2205C11.5133 13.9271 11.9881 13.9264 12.2815 14.2189L14.254 16.1853L18.2197 12.2197C18.5125 11.9268 18.9874 11.9268 19.2803 12.2197Z" fill="#99A2AD"/>
</svg>
