<svg width="20" height="20" viewBox="0 0 20 20" fill="none" xmlns="http://www.w3.org/2000/svg">
<path fill-rule="evenodd" clip-rule="evenodd" d="M2.28033 1.21967C1.98744 0.926777 1.51256 0.926777 1.21967 1.21967C0.926777 1.51256 0.926777 1.98744 1.21967 2.28033L3.48258 4.54324C2.24564 6.01928 1.5 7.92314 1.5 10C1.5 14.6944 5.30558 18.5 10 18.5C12.0769 18.5 13.9807 17.7544 15.4568 16.5174L17.7197 18.7803C18.0126 19.0732 18.4874 19.0732 18.7803 18.7803C19.0732 18.4874 19.0732 18.0126 18.7803 17.7197L2.28033 1.21967ZM14.3911 15.4518L12.9654 14.026C12.136 14.6378 11.1098 15 10 15C7.23858 15 5 12.7614 5 10C5 8.89019 5.36222 7.86405 5.97396 7.03462L4.54821 5.60887C3.57928 6.81008 3 8.33685 3 10C3 13.866 6.13401 17 10 17C11.6631 17 13.1899 16.4207 14.3911 15.4518ZM7.05188 8.11254C6.70228 8.65722 6.5 9.30461 6.5 10C6.5 11.933 8.067 13.5 10 13.5C10.6954 13.5 11.3428 13.2977 11.8875 12.9481L10.3885 11.4492C10.2646 11.4823 10.1344 11.5 10 11.5C9.17157 11.5 8.5 10.8284 8.5 9.99999C8.5 9.86562 8.51767 9.73538 8.5508 9.61147L7.05188 8.11254Z" fill="#99A2AD"/>
<path d="M10 3C9.05372 3 8.15309 3.18735 7.33176 3.52629C6.94886 3.68429 6.51038 3.50199 6.35237 3.11909C6.19437 2.7362 6.37667 2.29772 6.75957 2.13971C7.7592 1.7272 8.85401 1.5 10 1.5C14.6944 1.5 18.5 5.30558 18.5 10C18.5 11.1451 18.2732 12.2391 17.8613 13.2381C17.7034 13.621 17.265 13.8034 16.882 13.6455C16.4991 13.4877 16.3166 13.0492 16.4745 12.6663C16.8129 11.8455 17 10.9455 17 10C17 6.13401 13.866 3 10 3Z" fill="#99A2AD"/>
<path d="M10 5C9.58579 5 9.25 5.33579 9.25 5.75C9.25 6.16421 9.58579 6.5 10 6.5C11.933 6.5 13.5 8.067 13.5 10C13.5 10.4142 13.8358 10.75 14.25 10.75C14.6642 10.75 15 10.4142 15 10C15 7.23858 12.7614 5 10 5Z" fill="#99A2AD"/>
</svg>
