<svg width="20" height="20" viewBox="0 0 20 20" fill="none" xmlns="http://www.w3.org/2000/svg">
<path d="M10 10.75C10.4142 10.75 10.75 11.0858 10.75 11.5V13.5C10.75 13.9142 10.4142 14.25 10 14.25C9.58579 14.25 9.25 13.9142 9.25 13.5V11.5C9.25 11.0858 9.58579 10.75 10 10.75Z" fill="#99A2AD"/>
<path fill-rule="evenodd" clip-rule="evenodd" d="M6 7.02875V4.99997C6 2.79083 7.79086 0.999969 10 0.999969C12.2091 0.999969 14 2.79083 14 4.99997V7.02875C14.5883 7.06467 15.0057 7.14543 15.362 7.32695C15.9265 7.61457 16.3854 8.07351 16.673 8.638C17 9.27973 17 10.1198 17 11.8V13.2C17 14.8801 17 15.7202 16.673 16.3619C16.3854 16.9264 15.9265 17.3854 15.362 17.673C14.7202 18 13.8802 18 12.2 18H7.8C6.11984 18 5.27976 18 4.63803 17.673C4.07354 17.3854 3.6146 16.9264 3.32698 16.3619C3 15.7202 3 14.8801 3 13.2V11.8C3 10.1198 3 9.27973 3.32698 8.638C3.6146 8.07351 4.07354 7.61457 4.63803 7.32695C4.99429 7.14543 5.41168 7.06467 6 7.02875ZM10 2.49997C11.3807 2.49997 12.5 3.61926 12.5 4.99997V6.99997H7.5V4.99997C7.5 3.61926 8.61929 2.49997 10 2.49997ZM7.8 8.49997C6.93517 8.49997 6.37676 8.50114 5.95175 8.53586C5.54426 8.56915 5.39318 8.62567 5.31901 8.66346C5.03677 8.80727 4.8073 9.03674 4.66349 9.31898C4.6257 9.39315 4.56918 9.54423 4.53589 9.95172C4.50117 10.3767 4.5 10.9351 4.5 11.8V13.2C4.5 14.0648 4.50117 14.6232 4.53589 15.0482C4.56918 15.4557 4.6257 15.6068 4.66349 15.681C4.8073 15.9632 5.03677 16.1927 5.31901 16.3365C5.39318 16.3743 5.54426 16.4308 5.95175 16.4641C6.37676 16.4988 6.93517 16.5 7.8 16.5H12.2C13.0648 16.5 13.6232 16.4988 14.0482 16.4641C14.4557 16.4308 14.6068 16.3743 14.681 16.3365C14.9632 16.1927 15.1927 15.9632 15.3365 15.681C15.3743 15.6068 15.4308 15.4557 15.4641 15.0482C15.4988 14.6232 15.5 14.0648 15.5 13.2V11.8C15.5 10.9351 15.4988 10.3767 15.4641 9.95172C15.4308 9.54423 15.3743 9.39315 15.3365 9.31898C15.1927 9.03674 14.9632 8.80727 14.681 8.66346C14.6068 8.62567 14.4557 8.56915 14.0482 8.53586C13.6232 8.50114 13.0648 8.49997 12.2 8.49997H7.8Z" fill="#99A2AD"/>
</svg>
