<svg width="20" height="20" viewBox="0 0 20 20" fill="none" xmlns="http://www.w3.org/2000/svg">
<path d="M5.5 11.0024C5.91421 11.0024 6.25 11.3382 6.25 11.7524V12.7524C6.25 13.1667 5.91421 13.5024 5.5 13.5024C5.08579 13.5024 4.75 13.1667 4.75 12.7524V11.7524C4.75 11.3382 5.08579 11.0024 5.5 11.0024Z" fill="#99A2AD"/>
<path d="M9.25373 10.7544C9.25373 10.3402 8.91794 10.0044 8.50373 10.0044C8.08951 10.0044 7.75373 10.3402 7.75373 10.7544L7.75372 13.5044C7.75372 13.9186 8.08951 14.2544 8.50372 14.2544C8.91794 14.2544 9.25372 13.9186 9.25372 13.5044L9.25373 10.7544Z" fill="#99A2AD"/>
<path d="M14.5023 10.0029C14.9165 10.0042 15.2513 10.341 15.25 10.7552L15.2414 13.5535C15.2401 13.9677 14.9033 14.3025 14.4891 14.3012C14.0749 14.3 13.7401 13.9631 13.7414 13.5489L13.75 10.7506C13.7513 10.3364 14.0881 10.0017 14.5023 10.0029Z" fill="#99A2AD"/>
<path d="M12.25 9.2627C12.25 8.84848 11.9142 8.5127 11.5 8.5127C11.0858 8.51269 10.75 8.84848 10.75 9.2627L10.75 13.7627C10.75 14.1769 11.0858 14.5127 11.5 14.5127C11.9142 14.5127 12.25 14.1769 12.25 13.7627L12.25 9.2627Z" fill="#99A2AD"/>
<path fill-rule="evenodd" clip-rule="evenodd" d="M7.91762 2C7.03501 1.99999 6.32691 1.99999 5.75433 2.04677C5.16601 2.09484 4.655 2.19601 4.18404 2.43598C3.43139 2.81947 2.81947 3.43139 2.43597 4.18404C2.19601 4.655 2.09484 5.16601 2.04677 5.75433C1.99999 6.32692 1.99999 7.035 2 7.91762V12.0824C1.99999 12.965 1.99999 13.6731 2.04677 14.2457C2.09484 14.834 2.19601 15.345 2.43597 15.816C2.81947 16.5686 3.43139 17.1805 4.18404 17.564C4.655 17.804 5.16601 17.9052 5.75433 17.9532C6.32691 18 7.03499 18 7.91761 18H12.0824C12.965 18 13.6731 18 14.2457 17.9532C14.834 17.9052 15.345 17.804 15.816 17.564C16.5686 17.1805 17.1805 16.5686 17.564 15.816C17.804 15.345 17.9052 14.834 17.9532 14.2457C18 13.6731 18 12.965 18 12.0824V7.91761C18 7.03499 18 6.32691 17.9532 5.75433C17.9052 5.16601 17.804 4.655 17.564 4.18404C17.1805 3.43139 16.5686 2.81947 15.816 2.43598C15.345 2.19601 14.834 2.09484 14.2457 2.04677C13.6731 1.99999 12.965 1.99999 12.0824 2H7.91762ZM4.86502 3.77248C5.08928 3.65822 5.38092 3.58228 5.87648 3.54179C6.3808 3.50058 7.02754 3.5 7.95 3.5H12.05C12.9725 3.5 13.6192 3.50058 14.1235 3.54179C14.6191 3.58228 14.9107 3.65822 15.135 3.77248C15.6054 4.01217 15.9878 4.39462 16.2275 4.86502C16.3418 5.08928 16.4177 5.38092 16.4582 5.87648C16.492 6.28942 16.4985 6.79784 16.4997 7.47492C16.1152 7.1922 15.6531 6.86911 15.1542 6.5622C14.1119 5.92097 12.756 5.25 11.5 5.25C10.0731 5.25 8.97483 5.89147 7.96262 6.48269C7.82094 6.56544 7.68095 6.64721 7.54198 6.72609C6.47927 7.32933 5.29466 7.90397 3.5 7.99437V7.95C3.5 7.02754 3.50058 6.3808 3.54179 5.87648C3.58228 5.38092 3.65822 5.08928 3.77248 4.86502C4.01217 4.39462 4.39462 4.01217 4.86502 3.77248ZM3.5 9.49599V12.05C3.5 12.9725 3.50058 13.6192 3.54179 14.1235C3.58228 14.6191 3.65822 14.9107 3.77248 15.135C4.01217 15.6054 4.39462 15.9878 4.86502 16.2275C5.08928 16.3418 5.38092 16.4177 5.87648 16.4582C6.3808 16.4994 7.02754 16.5 7.95 16.5H12.05C12.9725 16.5 13.6192 16.4994 14.1235 16.4582C14.6191 16.4177 14.9107 16.3418 15.135 16.2275C15.6054 15.9878 15.9878 15.6054 16.2275 15.135C16.3418 14.9107 16.4177 14.6191 16.4582 14.1235C16.4994 13.6192 16.5 12.9725 16.5 12.05V9.36183C16.4491 9.32277 16.3915 9.27796 16.3275 9.22825C15.9008 8.89684 15.1943 8.348 14.3682 7.8398C13.3505 7.21369 12.3055 6.75 11.5 6.75C10.5038 6.75 9.77425 7.17106 8.73156 7.77287C8.58828 7.85557 8.43908 7.94168 8.28246 8.03058C7.10052 8.7015 5.66245 9.40182 3.5 9.49599Z" fill="#99A2AD"/>
</svg>
