<svg width="20" height="20" viewBox="0 0 20 20" fill="none" xmlns="http://www.w3.org/2000/svg">
<path fill-rule="evenodd" clip-rule="evenodd" d="M7.08218 3.5C5.42212 3.5 5.05884 3.66876 4.71909 3.85046C4.34075 4.0528 4.0528 4.34075 3.85046 4.71909C3.66876 5.05884 3.5 5.42212 3.5 7.08218V12.9178C3.5 14.5779 3.66876 14.9412 3.85046 15.2809C4.0528 15.6593 4.34075 15.9472 4.71909 16.1495C5.05884 16.3312 5.42212 16.5 7.08218 16.5H12.9178C14.5779 16.5 14.9412 16.3312 15.2809 16.1495C15.6593 15.9472 15.9472 15.6593 16.1495 15.2809C16.3312 14.9412 16.5 14.5779 16.5 12.9178V7.08218C16.5 5.42212 16.3312 5.05884 16.1495 4.71909C15.9472 4.34075 15.6593 4.0528 15.2809 3.85046C14.9412 3.66876 14.5779 3.5 12.9178 3.5H7.08218ZM4.01169 2.52774C4.66122 2.18037 5.3068 2 7.08218 2H12.9178C14.6932 2 15.3388 2.18037 15.9883 2.52774C16.6281 2.86988 17.1301 3.37195 17.4723 4.01169C17.8196 4.66122 18 5.3068 18 7.08218V12.9178C18 14.6932 17.8196 15.3388 17.4723 15.9883C17.1301 16.6281 16.6281 17.1301 15.9883 17.4723C15.3388 17.8196 14.6932 18 12.9178 18H7.08218C5.3068 18 4.66122 17.8196 4.01169 17.4723C3.37195 17.1301 2.86988 16.6281 2.52774 15.9883C2.18037 15.3388 2 14.6932 2 12.9178V7.08218C2 5.3068 2.18037 4.66122 2.52774 4.01169C2.86988 3.37195 3.37195 2.86988 4.01169 2.52774Z" fill="#99A2AD"/>
<path d="M13.5 11.55C13.5 11.9476 13.4236 12.2968 13.2708 12.5977C13.118 12.8986 12.9124 13.1475 12.6541 13.3445C12.3484 13.5809 12.0119 13.7493 11.6444 13.8496C11.2806 13.9499 10.8167 14 10.2527 14H7V6H9.8707C10.4674 6 10.9186 6.02328 11.2242 6.06985C11.5334 6.11283 11.8227 6.20596 12.0919 6.34923C12.383 6.50325 12.5995 6.7092 12.7414 6.96709C12.8869 7.22498 12.9597 7.52227 12.9597 7.85897C12.9597 8.24938 12.8596 8.59682 12.6595 8.90128C12.4631 9.20573 12.1902 9.42959 11.8409 9.57287V9.61585C12.343 9.71972 12.745 9.93284 13.047 10.2552C13.349 10.574 13.5 11.0056 13.5 11.55ZM10.8858 8.26192C10.8858 8.13298 10.8512 8.00045 10.7821 7.86434C10.7166 7.72823 10.6129 7.62973 10.471 7.56884C10.3364 7.51153 10.1763 7.48108 9.99076 7.4775C9.80884 7.47034 9.53596 7.46676 9.17212 7.46676H9.03023V9.15917H9.28673C9.63602 9.15917 9.87979 9.15559 10.0181 9.14842C10.1599 9.14126 10.3055 9.10365 10.4547 9.03559C10.6184 8.96038 10.7312 8.8565 10.793 8.72398C10.8549 8.59145 10.8858 8.43743 10.8858 8.26192ZM11.3988 11.5124C11.3988 11.2653 11.3479 11.0719 11.246 10.9322C11.1441 10.7925 10.9913 10.6868 10.7876 10.6152C10.6639 10.5686 10.4929 10.5435 10.2746 10.54C10.0599 10.5328 9.77064 10.5292 9.4068 10.5292H9.03023V12.5332H9.13938C9.67058 12.5332 10.0381 12.5297 10.2418 12.5225C10.4456 12.5153 10.653 12.467 10.864 12.3774C11.0495 12.2986 11.1842 12.184 11.2678 12.0336C11.3552 11.8796 11.3988 11.7058 11.3988 11.5124Z" fill="#99A2AD"/>
</svg>
