<svg width="20" height="20" viewBox="0 0 20 20" fill="none" xmlns="http://www.w3.org/2000/svg">
<path fill-rule="evenodd" clip-rule="evenodd" d="M5.69347 7.97252C5.87145 7.06053 6.79383 6.52759 7.65428 6.83959C8.90212 7.29207 10.0361 7.9874 11.0016 8.86926C11.6661 9.47625 11.6661 10.5263 11.0016 11.1333C10.0382 12.0132 8.90708 12.7074 7.66246 13.16C6.80395 13.4721 5.88246 12.9427 5.70128 12.0332C5.56923 11.3703 5.5 10.6846 5.5 9.98304C5.5 9.29545 5.5665 8.62312 5.69347 7.97252ZM7.16569 8.25984L7.16603 8.25816C8.2154 8.64215 9.17229 9.22991 9.98998 9.97679C9.99548 9.98181 9.99663 9.98448 9.99728 9.986C9.99851 9.98885 10 9.99414 10 10.0013C10 10.0084 9.99851 10.0137 9.99728 10.0165C9.99663 10.0181 9.99548 10.0207 9.98998 10.0258C9.17403 10.771 8.21948 11.3579 7.17275 11.7419L7.17238 11.7401C7.05945 11.1732 7 10.5857 7 9.98304C7 9.39235 7.05711 8.81624 7.16569 8.25984Z" fill="#99A2AD"/>
<path fill-rule="evenodd" clip-rule="evenodd" d="M7.08218 18H12.9178C14.6932 18 15.3388 17.8196 15.9883 17.4723C16.6281 17.1301 17.1301 16.6281 17.4723 15.9883C17.8196 15.3388 18 14.6932 18 12.9178V7.08218C18 5.3068 17.8196 4.66122 17.4723 4.01169C17.1301 3.37195 16.6281 2.86988 15.9883 2.52774C15.3388 2.18037 14.6932 2 12.9178 2H7.08218C5.3068 2 4.66122 2.18037 4.01169 2.52774C3.37195 2.86988 2.86988 3.37195 2.52774 4.01169C2.18037 4.66122 2 5.3068 2 7.08218V12.9178C2 14.6932 2.18037 15.3388 2.52774 15.9883C2.86988 16.6281 3.37195 17.1301 4.01169 17.4723C4.66122 17.8196 5.3068 18 7.08218 18ZM11.1235 3.54179C10.6193 3.50058 9.97254 3.5 9.05012 3.5L7.08218 3.5C5.42212 3.5 5.05884 3.66876 4.71909 3.85046C4.34075 4.0528 4.0528 4.34075 3.85046 4.71909C3.66876 5.05884 3.5 5.42212 3.5 7.08218V12.9178C3.5 14.5779 3.66876 14.9412 3.85046 15.2809C4.0528 15.6593 4.34075 15.9472 4.71909 16.1495C5.05884 16.3312 5.42212 16.5 7.08218 16.5L9.04996 16.5C9.97244 16.5 10.6192 16.4994 11.1235 16.4582C11.6191 16.4177 11.9107 16.3418 12.135 16.2275C12.6054 15.9878 12.9878 15.6054 13.2275 15.135C13.3418 14.9107 13.4177 14.6191 13.4582 14.1235C13.4994 13.6192 13.5 12.9725 13.5 12.05V7.95C13.5 7.02754 13.4994 6.3808 13.4582 5.87648C13.4177 5.38092 13.3418 5.08928 13.2275 4.86502C12.9878 4.39462 12.6054 4.01217 12.135 3.77248C11.9107 3.65822 11.6191 3.58228 11.1235 3.54179ZM15.2809 16.1495C15.0505 16.2728 14.8092 16.3901 14.1597 16.4528C14.3135 16.2548 14.449 16.0417 14.564 15.816C14.804 15.345 14.9052 14.834 14.9532 14.2457C15 13.6731 15 12.965 15 12.0824V7.91763C15 7.035 15 6.32692 14.9532 5.75433C14.9052 5.16601 14.804 4.655 14.564 4.18404C14.449 3.95832 14.3135 3.74525 14.1597 3.54721C14.8092 3.60992 15.0505 3.72721 15.2809 3.85046C15.6593 4.0528 15.9472 4.34075 16.1495 4.71909C16.3312 5.05884 16.5 5.42212 16.5 7.08218V12.9178C16.5 14.5779 16.3312 14.9412 16.1495 15.2809C15.9472 15.6593 15.6593 15.9472 15.2809 16.1495Z" fill="#99A2AD"/>
</svg>
