<svg width="20" height="20" viewBox="0 0 20 20" fill="none" xmlns="http://www.w3.org/2000/svg">
<path d="M10.5405 13.2C7.26372 13.2 5.2757 10.9097 5.19781 7.1H6.85736C6.9091 9.89852 8.17168 11.0814 9.13955 11.3253V7.1H10.73V9.51662C11.6635 9.41227 12.6407 8.31231 12.9691 7.1H14.5345C14.284 8.59071 13.2202 9.68587 12.4686 10.1391C13.2208 10.5053 14.4311 11.4654 14.8978 13.2H13.1772C12.8139 12.0405 11.9239 11.1471 10.7305 11.0252V13.2H10.5405Z" fill="#99A2AD"/>
<path fill-rule="evenodd" clip-rule="evenodd" d="M7.08218 2C5.3068 2 4.66122 2.18037 4.01169 2.52774C3.37195 2.86988 2.86988 3.37195 2.52774 4.01169C2.18037 4.66122 2 5.3068 2 7.08218V12.9178C2 14.6932 2.18037 15.3388 2.52774 15.9883C2.86988 16.6281 3.37195 17.1301 4.01169 17.4723C4.66122 17.8196 5.3068 18 7.08218 18H12.9178C14.6932 18 15.3388 17.8196 15.9883 17.4723C16.6281 17.1301 17.1301 16.6281 17.4723 15.9883C17.8196 15.3388 18 14.6932 18 12.9178V7.08218C18 5.3068 17.8196 4.66122 17.4723 4.01169C17.1301 3.37195 16.6281 2.86988 15.9883 2.52774C15.3388 2.18037 14.6932 2 12.9178 2H7.08218ZM4.71909 3.85046C5.05884 3.66876 5.42212 3.5 7.08218 3.5H12.9178C14.5779 3.5 14.9412 3.66876 15.2809 3.85046C15.6593 4.0528 15.9472 4.34075 16.1495 4.71909C16.3312 5.05884 16.5 5.42212 16.5 7.08218V12.9178C16.5 14.5779 16.3312 14.9412 16.1495 15.2809C15.9472 15.6593 15.6593 15.9472 15.2809 16.1495C14.9412 16.3312 14.5779 16.5 12.9178 16.5H7.08218C5.42212 16.5 5.05884 16.3312 4.71909 16.1495C4.34075 15.9472 4.0528 15.6593 3.85046 15.2809C3.66876 14.9412 3.5 14.5779 3.5 12.9178V7.08218C3.5 5.42212 3.66876 5.05884 3.85046 4.71909C4.0528 4.34075 4.34075 4.0528 4.71909 3.85046Z" fill="#99A2AD"/>
</svg>
