<svg width="20" height="20" viewBox="0 0 20 20" fill="none" xmlns="http://www.w3.org/2000/svg">
<path fill-rule="evenodd" clip-rule="evenodd" d="M9.5 4.5C6.73858 4.5 4.5 6.73858 4.5 9.5C4.5 12.2614 6.73858 14.5 9.5 14.5C12.2614 14.5 14.5 12.2614 14.5 9.5C14.5 6.73858 12.2614 4.5 9.5 4.5ZM3 9.5C3 5.91015 5.91015 3 9.5 3C13.0899 3 16 5.91015 16 9.5C16 11.0247 15.475 12.4268 14.596 13.5354L17.7803 16.7197C18.0732 17.0126 18.0732 17.4874 17.7803 17.7803C17.4874 18.0732 17.0125 18.0732 16.7196 17.7803L13.5353 14.596C12.4268 15.475 11.0247 16 9.5 16C5.91015 16 3 13.0899 3 9.5ZM9.49609 5.99872C9.91031 5.99872 10.2461 6.3345 10.2461 6.74872V8.74872H12.246C12.6602 8.74872 12.996 9.0845 12.996 9.49872C12.996 9.91293 12.6602 10.2487 12.246 10.2487H10.2461V12.2487C10.2461 12.6629 9.91031 12.9987 9.49609 12.9987C9.08188 12.9987 8.74609 12.6629 8.74609 12.2487V10.2487H6.74603C6.33182 10.2487 5.99603 9.91293 5.99603 9.49872C5.99603 9.0845 6.33182 8.74872 6.74603 8.74872H8.74609V6.74872C8.74609 6.3345 9.08188 5.99872 9.49609 5.99872Z" fill="#99A2AD"/>
</svg>
