<svg width="20" height="20" viewBox="0 0 20 20" fill="none" xmlns="http://www.w3.org/2000/svg">
<path fill-rule="evenodd" clip-rule="evenodd" d="M6.57744 2.5H13.4226C15.1963 2.5 15.8413 2.68056 16.4902 3.0283C17.1293 3.3708 17.6309 3.8734 17.9728 4.51382C18.3198 5.16404 18.5 5.8103 18.5 7.58756V12.4124C18.5 14.1897 18.3198 14.836 17.9728 15.4862C17.6309 16.1266 17.1293 16.6292 16.4902 16.9717C15.8413 17.3194 15.1963 17.5 13.4226 17.5H6.57744C4.80372 17.5 4.15874 17.3194 3.50981 16.9717C2.87067 16.6292 2.36906 16.1266 2.02725 15.4862C1.6802 14.836 1.5 14.1897 1.5 12.4124V7.58756C1.5 5.8103 1.6802 5.16404 2.02725 4.51382C2.36906 3.8734 2.87067 3.3708 3.50981 3.0283C4.15874 2.68056 4.80372 2.5 6.57744 2.5ZM3 12.4124V7.58756C3 5.98996 3.1558 5.5912 3.3294 5.26007L7.79301 9.72368C8.07257 10.0033 8.31375 10.2445 8.52863 10.4269C8.75542 10.6194 9.00178 10.7901 9.30469 10.8885C9.75658 11.0354 10.2434 11.0354 10.6953 10.8885C10.9982 10.7901 11.2445 10.6194 11.4713 10.4269C11.6862 10.2445 11.9274 10.0033 12.2069 9.72369L16.6706 5.26005C16.8442 5.59119 17 5.98993 17 7.58756V12.4124C17 14.0747 16.8313 14.4391 16.6495 14.7799C16.4471 15.1591 16.1592 15.4473 15.7817 15.6496C15.4429 15.8311 15.0807 16 13.4226 16H6.57744C4.91934 16 4.55712 15.8311 4.21831 15.6496C3.84076 15.4473 3.55295 15.1591 3.35055 14.7799C3.16867 14.4391 3 14.0747 3 12.4124ZM13.4226 4H6.57744C5.25129 4 4.75409 4.10802 4.43482 4.24417L8.83325 8.6426C9.13901 8.94836 9.33685 9.14538 9.49939 9.28336C9.65524 9.41566 9.72863 9.4491 9.76821 9.46196C9.91885 9.5109 10.0811 9.5109 10.2317 9.46196C10.2713 9.4491 10.3447 9.41566 10.5006 9.28336C10.6631 9.14538 10.8609 8.94836 11.1667 8.6426L15.5652 4.24416C15.2459 4.10802 14.7487 4 13.4226 4Z" fill="#99A2AD"/>
</svg>
