<svg width="20" height="20" viewBox="0 0 20 20" fill="none" xmlns="http://www.w3.org/2000/svg">
<path d="M6 3.5C6 2.67157 6.67157 2 7.5 2H12.5C13.3284 2 14 2.67157 14 3.5H6Z" fill="#99A2AD"/>
<path fill-rule="evenodd" clip-rule="evenodd" d="M4.01169 5.46883C4.66122 5.16023 5.3068 5 7.08218 5H12.9178C14.6932 5 15.3388 5.16023 15.9883 5.46883C16.6281 5.77277 17.1301 6.2188 17.4723 6.78713C17.8196 7.36416 18 7.93768 18 9.51487V12.4851C18 14.0623 17.8196 14.6358 17.4723 15.2129C17.1301 15.7812 16.6281 16.2272 15.9883 16.5312C15.3388 16.8398 14.6932 17 12.9178 17H7.08218C5.3068 17 4.66122 16.8398 4.01169 16.5312C3.37195 16.2272 2.86988 15.7812 2.52774 15.2129C2.18037 14.6358 2 14.0623 2 12.4851V9.51487C2 7.93768 2.18037 7.36416 2.52774 6.78713C2.86988 6.2188 3.37195 5.77277 4.01169 5.46883ZM13.3365 10.4741L16.2105 7.60016C16.3004 7.75453 16.3555 7.88433 16.3998 8.09053C16.4561 8.353 16.5 8.77001 16.5 9.51487V12.4851C16.5 13.23 16.4561 13.647 16.3998 13.9095C16.3518 14.1329 16.291 14.2667 16.1872 14.4392C16.0075 14.7376 15.737 14.9899 15.3446 15.1763C14.9843 15.3475 14.5946 15.5 12.9178 15.5H7.08218C5.40538 15.5 5.0157 15.3475 4.6554 15.1763C4.263 14.9899 3.99248 14.7376 3.81284 14.4392C3.70897 14.2667 3.64818 14.1329 3.60024 13.9095C3.54395 13.647 3.5 13.23 3.5 12.4851V9.51487C3.5 8.77001 3.54395 8.353 3.60024 8.09053C3.64447 7.88434 3.69965 7.75453 3.7895 7.60016L6.66346 10.4741C7.1396 10.9503 7.52901 11.3397 7.87134 11.6303C8.22568 11.9311 8.57862 12.1699 8.99569 12.3054C9.64844 12.5175 10.3516 12.5175 11.0043 12.3054C11.4214 12.1699 11.7743 11.9311 12.1287 11.6303C12.471 11.3397 12.8604 10.9503 13.3365 10.4741ZM7.7019 9.39124C8.20567 9.89501 8.55202 10.2405 8.84211 10.4868C9.12549 10.7274 9.30547 10.8289 9.45922 10.8788C9.8107 10.993 10.1893 10.993 10.5408 10.8788C10.6945 10.8289 10.8745 10.7274 11.1579 10.4868C11.448 10.2405 11.7943 9.89501 12.2981 9.39124L15.0034 6.68595C14.6609 6.57844 14.1204 6.5 12.9178 6.5H7.08218C5.87962 6.5 5.33908 6.57844 4.99661 6.68595L7.7019 9.39124Z" fill="#99A2AD"/>
</svg>
