<svg width="20" height="20" viewBox="0 0 20 20" fill="none" xmlns="http://www.w3.org/2000/svg">
<path fill-rule="evenodd" clip-rule="evenodd" d="M7.25 5.75C7.25 4.23122 8.48122 3 10 3C11.5188 3 12.75 4.23122 12.75 5.75V6H7.25V5.75ZM5.75 6.00419V5.75C5.75 3.40279 7.65279 1.5 10 1.5C12.3472 1.5 14.25 3.40279 14.25 5.75V6.00419C15.2626 6.01792 15.8705 6.07654 16.362 6.32698C16.9265 6.6146 17.3854 7.07354 17.673 7.63803C18 8.27976 18 9.11984 18 10.8V11.3C18 13.8202 18 15.0804 17.5095 16.043C17.0781 16.8897 16.3897 17.5781 15.543 18.0095C14.5804 18.5 13.3202 18.5 10.8 18.5H9.2C6.67976 18.5 5.41965 18.5 4.45704 18.0095C3.61031 17.5781 2.9219 16.8897 2.49047 16.043C2 15.0804 2 13.8202 2 11.3V10.8C2 9.11984 2 8.27976 2.32698 7.63803C2.6146 7.07354 3.07354 6.6146 3.63803 6.32698C4.12955 6.07654 4.73742 6.01792 5.75 6.00419ZM4.95175 7.53589C5.37676 7.50117 5.93517 7.5 6.8 7.5H13.2C14.0648 7.5 14.6232 7.50117 15.0482 7.53589C15.4557 7.56918 15.6068 7.6257 15.681 7.66349C15.9632 7.8073 16.1927 8.03677 16.3365 8.31902C16.3743 8.39318 16.4308 8.54426 16.4641 8.95175C16.4988 9.37676 16.5 9.93517 16.5 10.8V11.3C16.5 12.5849 16.4988 13.4583 16.4437 14.1334C16.3899 14.7911 16.2926 15.1274 16.173 15.362C15.8854 15.9265 15.4265 16.3854 14.862 16.673C14.6274 16.7926 14.2911 16.8899 13.6334 16.9437C12.9583 16.9988 12.0849 17 10.8 17H9.2C7.91513 17 7.04169 16.9988 6.36656 16.9437C5.70893 16.8899 5.37263 16.7926 5.13803 16.673C4.57354 16.3854 4.1146 15.9265 3.82698 15.362C3.70745 15.1274 3.61006 14.7911 3.55633 14.1334C3.50117 13.4583 3.5 12.5849 3.5 11.3V10.8C3.5 9.93517 3.50117 9.37676 3.53589 8.95175C3.56918 8.54426 3.6257 8.39318 3.66349 8.31902C3.8073 8.03677 4.03677 7.8073 4.31901 7.66349C4.39318 7.6257 4.54426 7.56918 4.95175 7.53589ZM5.75 9.875C5.75 9.39175 6.14175 9 6.625 9C7.10825 9 7.5 9.39175 7.5 9.875C7.5 10.3582 7.10825 10.75 6.625 10.75C6.14175 10.75 5.75 10.3582 5.75 9.875ZM13.375 9C12.8918 9 12.5 9.39175 12.5 9.875C12.5 10.3582 12.8918 10.75 13.375 10.75C13.8582 10.75 14.25 10.3582 14.25 9.875C14.25 9.39175 13.8582 9 13.375 9Z" fill="#99A2AD"/>
</svg>
