<svg width="20" height="20" viewBox="0 0 20 20" fill="none" xmlns="http://www.w3.org/2000/svg">
<path d="M18 8.57886C18 10.7989 17.2343 13.9 14.45 13.9C13.4882 13.9 12.2517 13.3221 11.9959 12.3C11.5557 13.2708 10.396 13.836 9.38 13.836C8.25715 13.836 7.3002 13.2643 6.83476 12.2328C6.42986 11.3355 6.5 10.3301 6.5 9.37003C6.5 7.64395 7.47676 6 9.39434 6C10.3474 6 11.325 6.47661 11.7 7.39211V7C11.7 6.58579 12.0358 6.25 12.45 6.25C12.8642 6.25 13.2 6.58579 13.2 7V11C13.2 11.8057 13.6892 12.4514 14.524 12.4514C16.3787 12.4514 16.5 9.9686 16.5 8.63091C16.5 5.16603 13.4606 3 10.1633 3C6.42778 3 3.6 5.80463 3.6 9.61987C3.6 13.4724 5.95757 16.5634 10.0685 16.5634C10.699 16.5634 11.3266 16.5015 11.95 16.41C12.4809 16.3407 13.3654 16.2233 13.3654 17C13.3654 17.3875 13.0663 17.6464 12.7123 17.7397C11.8314 17.9641 10.91 18 10.0053 18C4.92675 18 2 14.3455 2 9.55741C2 4.87007 5.59597 1.5 10.1633 1.5C14.285 1.5 18 4.29907 18 8.57886ZM9.875 7.5C8.97754 7.5 8.25 8.22754 8.25 9.125V10.675C8.25 11.5725 8.97754 12.3 9.875 12.3C10.7725 12.3 11.5 11.5725 11.5 10.675V9.125C11.5 8.22754 10.7725 7.5 9.875 7.5Z" fill="#99A2AD"/>
</svg>
