<svg width="20" height="20" viewBox="0 0 20 20" fill="none" xmlns="http://www.w3.org/2000/svg">
<path fill-rule="evenodd" clip-rule="evenodd" d="M10.25 2.5C5.67875 2.5 2 5.83194 2 10C2 11.4399 2.44333 12.8187 3.26217 14.0034C3.15697 14.593 2.78469 15.5169 2.14094 16.7328C1.82969 17.3206 2.05391 18.0496 2.6418 18.3608C2.8264 18.4586 3.03326 18.5067 3.24205 18.5003C5.13467 18.4427 6.59366 17.9882 7.59029 17.1068C8.43685 17.3661 9.33199 17.5 10.25 17.5C14.8213 17.5 18.5 14.1681 18.5 10C18.5 5.83194 14.8213 2.5 10.25 2.5ZM10.25 4C6.37171 4 3.5 6.78963 3.5 10C3.5 11.1259 3.84518 12.2088 4.49611 13.1506L4.67174 13.4047C4.78425 13.5674 4.82787 13.7681 4.79311 13.9629L4.73884 14.267C4.60876 14.9959 4.23391 15.9265 3.70513 16.9738C5.11479 16.8637 6.02747 16.4865 6.59658 15.9832L6.9113 15.7049C7.10682 15.532 7.37818 15.4731 7.62775 15.5496L8.02948 15.6726C8.73107 15.8874 9.47805 16 10.25 16C14.1283 16 17 13.2104 17 10C17 6.78963 14.1283 4 10.25 4Z" fill="#99A2AD"/>
<path d="M11 7C11 6.58579 10.6642 6.25 10.25 6.25C9.83579 6.25 9.5 6.58579 9.5 7V9.25H7.25C6.83579 9.25 6.5 9.58579 6.5 10C6.5 10.4142 6.83579 10.75 7.25 10.75H9.5V13C9.5 13.4142 9.83579 13.75 10.25 13.75C10.6642 13.75 11 13.4142 11 13V10.75H13.25C13.6642 10.75 14 10.4142 14 10C14 9.58579 13.6642 9.25 13.25 9.25H11V7Z" fill="#99A2AD"/>
</svg>
