<svg width="20" height="20" viewBox="0 0 20 20" fill="none" xmlns="http://www.w3.org/2000/svg">
<path fill-rule="evenodd" clip-rule="evenodd" d="M8 2C4.43941 2 1.5 4.51795 1.5 7.75401C1.5 8.83804 1.83619 9.87454 2.45355 10.768C2.35956 11.1753 2.09271 11.8064 1.63338 12.6452C1.33385 13.1923 1.56075 13.8552 2.09432 14.1284C2.26099 14.2138 2.44609 14.255 2.63181 14.2495C4.05847 14.2076 5.19536 13.8845 5.99812 13.2338C6.63787 13.4148 7.31108 13.508 8 13.508C11.5606 13.508 14.5 10.9901 14.5 7.75401C14.5 4.51795 11.5606 2 8 2ZM8 3.5C5.08262 3.5 3 5.52019 3 7.75401C3 8.54205 3.24945 9.30318 3.72583 9.96963L3.86048 10.158C3.97883 10.3236 4.02481 10.5301 3.98787 10.7303L3.94627 10.9557C3.85561 11.4469 3.62172 12.0428 3.29776 12.6982C4.1706 12.591 4.73641 12.3406 5.09253 12.0361L5.33382 11.8297C5.52694 11.6646 5.79054 11.6085 6.03419 11.6806L6.34218 11.7718C6.86504 11.9266 7.42272 12.008 8 12.008C10.9174 12.008 13 9.98784 13 7.75401C13 5.52019 10.9174 3.5 8 3.5Z" fill="#99A2AD"/>
<path d="M16.1565 8.57546C15.9033 8.24762 15.9639 7.77662 16.2917 7.52346C16.6196 7.27029 17.0906 7.33083 17.3437 7.65867C18.0714 8.60104 18.5 9.75865 18.5 11.004C18.5 12.0833 18.1792 13.118 17.5859 14.0125C17.6743 14.4233 17.9315 15.0608 18.375 15.9074C18.6501 16.4327 18.4552 17.0887 17.9259 17.3721C17.7594 17.4612 17.5722 17.5053 17.3828 17.4995C16.0197 17.4576 14.9266 17.1365 14.1518 16.4902C13.5436 16.667 12.9042 16.758 12.25 16.758C11.3317 16.758 10.4626 16.5797 9.68009 16.2572C9.29714 16.0993 9.11468 15.6609 9.27254 15.2779C9.43041 14.895 9.86883 14.7125 10.2518 14.8704C10.852 15.1178 11.5267 15.258 12.25 15.258C12.7958 15.258 13.3231 15.1776 13.8176 15.0245L14.1122 14.9333C14.3637 14.8554 14.6376 14.9151 14.8339 15.0906L15.0647 15.2969C15.3934 15.5908 15.9132 15.8348 16.7162 15.9435C16.4049 15.2859 16.1808 14.6896 16.0944 14.2L16.0546 13.9745C16.0205 13.7814 16.0634 13.5827 16.174 13.4208L16.3028 13.2325C16.7588 12.5656 17 11.8 17 11.004C17 10.1104 16.694 9.27147 16.1565 8.57546Z" fill="#99A2AD"/>
</svg>
