<svg width="20" height="20" viewBox="0 0 20 20" fill="none" xmlns="http://www.w3.org/2000/svg">
<path d="M6.82845 15.7515C7.03326 15.5199 7.35919 15.4378 7.64932 15.5445C8.46246 15.8438 9.34083 16 10.25 16C14.0222 16 17 13.3063 17 10C17 6.69372 14.0222 4 10.25 4C6.47776 4 3.5 6.69372 3.5 10C3.5 11.2108 3.89926 12.3669 4.63941 13.349C4.74548 13.4898 4.7986 13.6634 4.78944 13.8394C4.75014 14.5951 4.38697 15.6243 3.70517 16.9738C5.18838 16.8584 6.21926 16.4403 6.82845 15.7515ZM3.24205 18.5003C3.03326 18.5067 2.82641 18.4586 2.6418 18.3608C2.05391 18.0496 1.82968 17.3206 2.14095 16.7328C2.78485 15.5166 3.15699 14.5928 3.26217 14.0034C2.44334 12.8188 2 11.4399 2 10C2 5.82989 5.681 2.5 10.25 2.5C14.819 2.5 18.5 5.82989 18.5 10C18.5 14.1701 14.819 17.5 10.25 17.5C9.33199 17.5 8.43685 17.3661 7.59029 17.1068C6.59352 17.9884 5.13438 18.4427 3.24205 18.5003Z" fill="#99A2AD"/>
</svg>
