<svg width="20" height="20" viewBox="0 0 20 20" fill="none" xmlns="http://www.w3.org/2000/svg">
<path d="M3.5 10C3.5 6.78997 6.37111 4.00059 10.2488 4C10.6726 3.99996 11.0571 3.69491 11.0586 3.25271C11.0601 2.81016 10.6751 2.5 10.25 2.5C5.67875 2.5 2 5.83194 2 10C2 11.4399 2.44333 12.8187 3.26217 14.0034C3.15696 14.593 2.78469 15.5169 2.14094 16.7328C1.82969 17.3206 2.05391 18.0496 2.6418 18.3608C2.8264 18.4586 3.03326 18.5067 3.24205 18.5003C5.13467 18.4427 6.59367 17.9882 7.59029 17.1068C8.43685 17.3661 9.33199 17.5 10.25 17.5C14.8213 17.5 18.5 14.1681 18.5 10C18.5 9.63694 18.4717 9.27901 18.4168 8.92819C18.3527 8.51896 17.969 8.23915 17.5598 8.30322C17.1506 8.36728 16.8707 8.75097 16.9348 9.16019C16.9778 9.43469 17 9.71506 17 10C17 13.2104 14.1283 16 10.25 16C9.47805 16 8.73107 15.8874 8.02948 15.6726L7.62775 15.5496C7.37818 15.4731 7.10682 15.532 6.9113 15.7049L6.59658 15.9832C6.02747 16.4865 5.11479 16.8637 3.70513 16.9738C4.23391 15.9265 4.60876 14.9959 4.73884 14.267L4.79311 13.9629C4.82787 13.7681 4.78425 13.5674 4.67174 13.4047L4.49611 13.1506C3.84518 12.2088 3.5 11.1259 3.5 10Z" fill="#99A2AD"/>
<path d="M17 5.5C17 6.88071 15.8807 8 14.5 8C13.1193 8 12 6.88071 12 5.5C12 4.11929 13.1193 3 14.5 3C15.8807 3 17 4.11929 17 5.5Z" fill="#99A2AD"/>
</svg>
