<svg width="20" height="20" viewBox="0 0 20 20" fill="none" xmlns="http://www.w3.org/2000/svg">
<path fill-rule="evenodd" clip-rule="evenodd" d="M13.2908 4.08562C13.0557 4.00922 12.739 3.99997 11.75 3.99997H6.25C5.53756 3.99997 5.04833 4.00055 4.66908 4.03154C4.29858 4.06181 4.09956 4.11732 3.95552 4.19071C3.62623 4.35849 3.35852 4.6262 3.19074 4.95549C3.12938 5.07591 3.08052 5.23478 3.04846 5.50016C3.1147 5.49994 3.18507 5.49994 3.26 5.49994H13.7C13.9794 5.49994 14.2355 5.49994 14.4714 5.50144C14.4586 5.37895 14.4404 5.28934 14.4143 5.20919C14.2412 4.67642 13.8235 4.25873 13.2908 4.08562ZM3 12.6999L3 9.99997V7.24997L3 7.23663C3.00001 7.14749 3.00005 7.06994 3.00044 7.00038C3.07599 6.99995 3.16098 6.99994 3.26 6.99994H13.7C14.5648 6.99994 15.1232 7.00111 15.5482 7.03583C15.9557 7.06912 16.1068 7.12564 16.181 7.16343C16.4632 7.30724 16.6927 7.53671 16.8365 7.81895C16.8743 7.89312 16.9308 8.0442 16.9641 8.45169C16.9988 8.8767 17 9.43511 17 10.2999V12.6999C17 13.5648 16.9988 14.1232 16.9641 14.5482C16.9308 14.9557 16.8743 15.1068 16.8365 15.1809C16.6927 15.4632 16.4632 15.6926 16.181 15.8364C16.1068 15.8742 15.9557 15.9308 15.5482 15.964C15.1232 15.9988 14.5648 15.9999 13.7 15.9999H6.3C5.43517 15.9999 4.87676 15.9988 4.45175 15.964C4.04426 15.9308 3.89318 15.8742 3.81901 15.8364C3.53677 15.6926 3.3073 15.4632 3.16349 15.1809C3.1257 15.1068 3.06918 14.9557 3.03589 14.5482C3.00117 14.1232 3 13.5648 3 12.6999ZM1.5 7.21855V7.25994V9.99997V12.6999C1.5 14.3801 1.5 15.2202 1.82698 15.8619C2.1146 16.4264 2.57354 16.8853 3.13803 17.173C3.77976 17.4999 4.61984 17.4999 6.3 17.4999H13.7C15.3802 17.4999 16.2202 17.4999 16.862 17.173C17.4265 16.8853 17.8854 16.4264 18.173 15.8619C18.5 15.2202 18.5 14.3801 18.5 12.6999V10.2999C18.5 8.61978 18.5 7.7797 18.173 7.13797C17.8854 6.57348 17.4265 6.11454 16.862 5.82692C16.6113 5.69922 16.3305 5.62139 15.9811 5.57396C15.9614 5.26395 15.9216 4.9938 15.8409 4.74566C15.5195 3.75624 14.7437 2.98052 13.7543 2.65904C13.2623 2.49917 12.6837 2.49949 11.8796 2.49992L11.75 2.49997L6.21858 2.49997C5.5452 2.49996 4.9945 2.49995 4.54693 2.53652C4.08367 2.57437 3.66527 2.65511 3.27453 2.8542C2.663 3.16579 2.16582 3.66297 1.85423 4.2745C1.65514 4.66524 1.5744 5.08364 1.53655 5.5469C1.49998 5.99446 1.49999 6.54517 1.5 7.21854V7.21855ZM13.25 10.5C12.8358 10.5 12.5 10.8358 12.5 11.25C12.5 11.6642 12.8358 12 13.25 12H14.25C14.6642 12 15 11.6642 15 11.25C15 10.8358 14.6642 10.5 14.25 10.5H13.25Z" fill="#99A2AD"/>
</svg>
