<svg width="20" height="20" viewBox="0 0 20 20" fill="none" xmlns="http://www.w3.org/2000/svg">
<path fill-rule="evenodd" clip-rule="evenodd" d="M6.61939 2.49996C6.6623 2.49998 6.70583 2.49999 6.74999 2.49999H13.25C13.2942 2.49999 13.3377 2.49998 13.3806 2.49996C14.3708 2.49966 15.0305 2.49946 15.591 2.66404C16.9134 3.05235 17.9476 4.08654 18.3359 5.40897C18.5005 5.96948 18.5003 6.62917 18.5 7.61939C18.5 7.6623 18.5 7.70582 18.5 7.74999V10.7917C18.5 11.2059 18.1642 11.5417 17.75 11.5417C17.3358 11.5417 17 11.2059 17 10.7917V8.49999H2.99999V9.96999C2.99999 10.9065 3.00057 11.5637 3.04246 12.0764C3.08363 12.5803 3.16094 12.8781 3.27792 13.1077C3.5224 13.5875 3.9125 13.9776 4.39232 14.2221C4.62192 14.339 4.91973 14.4164 5.42363 14.4575C5.93629 14.4994 6.59353 14.5 7.52999 14.5H17C17.4142 14.5 17.75 14.8358 17.75 15.25C17.75 15.6642 17.4142 16 17 16H7.49755C6.60097 16 5.8824 16 5.30148 15.9525C4.70482 15.9038 4.18763 15.8013 3.71133 15.5586C2.94927 15.1703 2.3297 14.5507 1.94141 13.7887C1.69872 13.3123 1.59619 12.7952 1.54744 12.1985C1.49998 11.6176 1.49998 10.899 1.49999 10.0024V7.74999C1.49999 7.70582 1.49998 7.6623 1.49996 7.61939C1.49966 6.62917 1.49946 5.96948 1.66404 5.40897C2.05235 4.08654 3.08654 3.05235 4.40897 2.66404C4.96948 2.49946 5.62917 2.49966 6.61939 2.49996ZM3.00271 6.99999H16.9973C16.9906 6.37428 16.9683 6.07548 16.8967 5.83157C16.6522 4.99893 16.0011 4.34777 15.1684 4.10328C14.8427 4.00765 14.4191 3.99999 13.25 3.99999H6.74999C5.58083 3.99999 5.15727 4.00765 4.83157 4.10328C3.99893 4.34777 3.34777 4.99893 3.10328 5.83157C3.03166 6.07548 3.00938 6.37428 3.00271 6.99999Z" fill="#99A2AD"/>
<path fill-rule="evenodd" clip-rule="evenodd" d="M14.7197 12.2197C15.0126 11.9268 15.4874 11.9268 15.7803 12.2197L18.2803 14.7197C18.5732 15.0126 18.5732 15.4874 18.2803 15.7803L15.7803 18.2803C15.4874 18.5732 15.0126 18.5732 14.7197 18.2803C14.4268 17.9874 14.4268 17.5126 14.7197 17.2197L16.6893 15.25L14.7197 13.2803C14.4268 12.9874 14.4268 12.5126 14.7197 12.2197Z" fill="#99A2AD"/>
</svg>
