<svg width="20" height="20" viewBox="0 0 20 20" fill="none" xmlns="http://www.w3.org/2000/svg">
<path fill-rule="evenodd" clip-rule="evenodd" d="M10 17C6.13401 17 3 13.866 3 10C3 6.13401 6.13401 3 10 3C13.866 3 17 6.13401 17 10C17 13.866 13.866 17 10 17ZM1.5 10C1.5 5.30558 5.30558 1.5 10 1.5C14.6944 1.5 18.5 5.30558 18.5 10C18.5 14.6944 14.6944 18.5 10 18.5C5.30558 18.5 1.5 14.6944 1.5 10ZM8.75 6C8.33579 6 8 6.33579 8 6.75V9.75H7.75C7.33579 9.75 7 10.0858 7 10.5C7 10.9142 7.33579 11.25 7.75 11.25H8V12H7.75C7.33579 12 7 12.3358 7 12.75C7 13.1642 7.33579 13.5 7.75 13.5H8V14C8 14.4142 8.33579 14.75 8.75 14.75C9.16421 14.75 9.5 14.4142 9.5 14V13.5H11C11.4142 13.5 11.75 13.1642 11.75 12.75C11.75 12.3358 11.4142 12 11 12H9.5V11.25H11.125C12.5747 11.25 13.75 10.0747 13.75 8.625C13.75 7.17525 12.5747 6 11.125 6H8.75ZM11.125 9.75H9.5V7.5H11.125C11.7463 7.5 12.25 8.00368 12.25 8.625C12.25 9.24632 11.7463 9.75 11.125 9.75Z" fill="#99A2AD"/>
</svg>
