<svg width="20" height="20" viewBox="0 0 20 20" fill="none" xmlns="http://www.w3.org/2000/svg">
<path d="M14.7331 2.0484C15.9662 1.79151 17.1741 2.58286 17.431 3.81593C17.4628 3.96893 17.4789 4.12479 17.4789 4.28107V12.2664C17.4789 15.8412 13.9877 17.6787 12.0922 15.7832C10.1966 13.8877 12.0341 10.3965 15.609 10.3965L15.9787 10.396V6.765L8.00374 8.434L8.00387 14.2489C8.00387 17.7536 4.64821 19.5884 2.73043 17.8729L2.61713 17.7657C0.721619 15.8701 2.5591 12.3789 6.13394 12.3789L6.50374 12.378L6.50387 6.23075C6.50387 5.59093 6.55115 5.22705 6.68705 4.87393L6.74224 4.7415C6.91101 4.3644 7.1675 4.04897 7.50225 3.80683C7.85635 3.5507 8.20692 3.41653 8.91056 3.26994L14.7331 2.0484ZM6.50387 13.8789H6.13394C3.81441 13.8789 2.79279 15.82 3.67779 16.705C4.56279 17.59 6.50387 16.5684 6.50387 14.2489V13.8789ZM15.9789 11.8965H15.609C13.2894 11.8965 12.2678 13.8375 13.1528 14.7225C14.0378 15.6075 15.9789 14.5859 15.9789 12.2664V11.8965ZM15.9625 4.12186C15.8746 3.6998 15.4611 3.42894 15.0401 3.51665L9.05832 4.77245C8.66609 4.86004 8.52196 4.92052 8.38138 5.02221C8.26003 5.10998 8.17255 5.21757 8.11137 5.35426C8.03163 5.53243 8.00387 5.70434 8.00387 6.23075L8.00374 6.901L15.9787 5.233L15.9789 4.28107C15.9789 4.25433 15.9775 4.22762 15.9748 4.20105L15.9625 4.12186Z" fill="#99A2AD"/>
</svg>
