<svg width="20" height="20" viewBox="0 0 20 20" fill="none" xmlns="http://www.w3.org/2000/svg">
<path d="M4.88633 3.55301C5.17923 3.26012 5.6541 3.26012 5.947 3.55301L16.1137 13.7197C16.4066 14.0126 16.4066 14.4874 16.1137 14.7803C15.8207 15.0733 15.3459 15.0733 15.053 14.7803L13 12.7273V15.2593C13 16.0883 12.2934 16.6667 11.5417 16.6667C10.9065 16.6667 10.2872 16.433 9.82227 16.0015L6.28892 12.7223H4.78298C3.85195 12.7223 3 12.0089 3 11.0135V8.98651C3 7.99109 3.85195 7.27778 4.78298 7.27778H6.28892L6.94321 6.67054L4.88633 4.61368C4.59344 4.32078 4.59344 3.84591 4.88633 3.55301ZM8.01273 7.74007C7.7055 8.01913 7.39657 8.29626 7.09353 8.57751C6.95482 8.70624 6.77257 8.77778 6.58333 8.77778H4.78298C4.68698 8.77778 4.61098 8.81355 4.56276 8.85831C4.51547 8.90219 4.5 8.9478 4.5 8.98651V11.0135C4.5 11.0522 4.51547 11.0978 4.56276 11.1417C4.61098 11.1865 4.68698 11.2222 4.78298 11.2222H6.58333C6.77257 11.2222 6.95482 11.2938 7.09353 11.4225L10.8427 14.9021C11.0101 15.0575 11.2442 15.1562 11.5 15.1659V11.2273L8.01273 7.74007ZM11.5417 3.33334C12.2934 3.33334 13 3.91175 13 4.74075V6.67568C13 7.0899 12.6642 7.42569 12.25 7.42569C11.8357 7.42569 11.5 7.0899 11.5 6.67568V4.83414C11.2442 4.84384 11.0101 4.94253 10.8427 5.09793L10.7338 5.19898C10.4302 5.48076 9.95563 5.46307 9.67385 5.15946C9.39207 4.85586 9.40977 4.38132 9.71337 4.09954L9.82227 3.99848C10.2872 3.56699 10.9065 3.33334 11.5417 3.33334Z" fill="#99A2AD"/>
</svg>
