<svg width="20" height="20" viewBox="0 0 20 20" fill="none" xmlns="http://www.w3.org/2000/svg">
<path d="M10.535 1.50787C11.2192 1.66758 11.8203 2.01458 12.3007 2.5273C12.8273 3.08927 13.1182 3.6876 13.463 4.97464L13.7663 6.10642C13.8735 6.50652 13.6361 6.91777 13.236 7.02498C12.8359 7.13219 12.4246 6.89475 12.3174 6.49465L12.0142 5.36287C11.7279 4.29456 11.5412 3.9105 11.2061 3.55294C10.9284 3.25654 10.5896 3.06093 10.194 2.96861C9.75093 2.86518 9.35199 2.88393 8.44191 3.11633L8.22256 3.17379L5.99287 3.77123C5.10956 4.00792 4.68138 4.18592 4.39176 4.40166L4.32205 4.45644L4.18294 4.57927C3.88653 4.85701 3.69093 5.1958 3.5986 5.59137C3.50314 6.00038 3.51177 6.37177 3.69645 7.14229L3.80379 7.56283L5.69533 14.6222L5.81264 15.04C6.03796 15.7997 6.21618 16.1256 6.50337 16.4321C6.78111 16.7285 7.1199 16.9241 7.51546 17.0164C7.99265 17.1278 8.41861 17.0975 9.48647 16.8114L10.0537 16.659C10.4537 16.5515 10.8651 16.7887 10.9726 17.1887C11.0801 17.5888 10.8429 18.0002 10.4429 18.1076L9.87516 18.2601C8.58811 18.605 7.92449 18.6522 7.17451 18.4772C6.49027 18.3174 5.88924 17.9704 5.40881 17.4577C4.91733 16.9332 4.63114 16.377 4.31478 15.2588L4.24644 15.0104L2.3549 7.95106C2.01004 6.66402 1.96282 6.00039 2.13787 5.25042C2.27983 4.6422 2.56978 4.09973 3.00346 3.63934L3.17282 3.47057L3.34561 3.31803C3.81127 2.93133 4.36434 2.67213 5.34923 2.39271L5.60464 2.32235L7.83433 1.7249C9.12138 1.38004 9.785 1.33282 10.535 1.50787ZM16.1316 8.25C17.865 8.25 19.25 9.72721 19.25 11.5262C19.25 13.2845 18.5875 14.1688 15.9329 16.371L14.7829 17.325C14.3289 17.7016 13.6711 17.7016 13.2171 17.325L11.8082 16.1551C9.36908 14.1089 8.74999 13.2259 8.74999 11.5262C8.74999 9.72721 10.135 8.25 11.8684 8.25C12.5968 8.25 13.267 8.46335 13.865 8.87779L14 8.977L14.135 8.87779C14.6731 8.5048 15.2699 8.29468 15.9148 8.25639L16.1316 8.25ZM16.1316 9.75C15.5399 9.75 15.0248 9.98782 14.547 10.4971L14.3646 10.6915C14.3574 10.6992 14.3498 10.7068 14.3421 10.7141C14.1407 10.903 13.8243 10.8929 13.6353 10.6915L13.453 10.4971C12.9752 9.98782 12.46 9.75 11.8684 9.75C10.9858 9.75 10.25 10.5348 10.25 11.5262C10.25 12.6902 10.6942 13.2831 13.0248 15.2165L14 16.025L14.9752 15.2165C17.2281 13.3476 17.7183 12.7312 17.7485 11.6407L17.75 11.5262C17.75 10.5348 17.0142 9.75 16.1316 9.75Z" fill="#99A2AD"/>
</svg>
