<svg width="20" height="20" viewBox="0 0 20 20" fill="none" xmlns="http://www.w3.org/2000/svg">
<path fill-rule="evenodd" clip-rule="evenodd" d="M11.8425 2H8.15748C7.23297 1.99999 6.4934 1.99999 5.89581 2.04881C5.28248 2.09893 4.75294 2.20418 4.26594 2.45232C3.48507 2.8502 2.8502 3.48507 2.45232 4.26594C2.20418 4.75294 2.09893 5.28248 2.04881 5.89581C1.99999 6.4934 1.99999 7.23296 2 8.15748V11.8425C1.99999 12.767 1.99999 13.5066 2.04881 14.1042C2.09893 14.7175 2.20418 15.2471 2.45232 15.7341C2.8502 16.5149 3.48507 17.1498 4.26594 17.5477C4.75294 17.7958 5.28248 17.9011 5.89581 17.9512C6.4934 18 7.23295 18 8.15746 18H11.8425C12.767 18 13.5066 18 14.1042 17.9512C14.7175 17.9011 15.2471 17.7958 15.7341 17.5477C16.5149 17.1498 17.1498 16.5149 17.5477 15.7341C17.7958 15.2471 17.9011 14.7175 17.9512 14.1042C18 13.5066 18 12.767 18 11.8425V8.15746C18 7.23295 18 6.4934 17.9512 5.89581C17.9011 5.28248 17.7958 4.75294 17.5477 4.26594C17.1498 3.48507 16.5149 2.8502 15.7341 2.45232C15.2471 2.20418 14.7175 2.09893 14.1042 2.04881C13.5066 1.99999 12.767 1.99999 11.8425 2ZM4.94693 3.78883C5.18722 3.66639 5.49738 3.58636 6.01796 3.54383C6.54729 3.50058 7.22554 3.5 8.19 3.5H11.81C12.7745 3.5 13.4527 3.50058 13.982 3.54383C14.5026 3.58636 14.8128 3.66639 15.0531 3.78883C15.5517 4.0429 15.9571 4.4483 16.2112 4.94693C16.3336 5.18722 16.4136 5.49738 16.4562 6.01796C16.4683 6.16599 16.477 6.32567 16.4834 6.5H3.51664C3.52298 6.32567 3.53174 6.16599 3.54383 6.01796C3.58636 5.49738 3.66639 5.18722 3.78883 4.94693C4.0429 4.4483 4.4483 4.0429 4.94693 3.78883ZM3.50002 8C3.5 8.06208 3.5 8.1254 3.5 8.19V11.81C3.5 12.7745 3.50058 13.4527 3.54383 13.982C3.58636 14.5026 3.66639 14.8128 3.78883 15.0531C4.0429 15.5517 4.4483 15.9571 4.94693 16.2112C5.18722 16.3336 5.49738 16.4136 6.01796 16.4562C6.54729 16.4994 7.22554 16.5 8.19 16.5H11.81C12.7745 16.5 13.4527 16.4994 13.982 16.4562C14.5026 16.4136 14.8128 16.3336 15.0531 16.2112C15.5517 15.9571 15.9571 15.5517 16.2112 15.0531C16.3336 14.8128 16.4136 14.5026 16.4562 13.982C16.4994 13.4527 16.5 12.7745 16.5 11.81V8.19C16.5 8.1254 16.5 8.06208 16.5 8H3.50002Z" fill="#99A2AD"/>
</svg>
