<svg width="20" height="20" viewBox="0 0 20 20" fill="none" xmlns="http://www.w3.org/2000/svg">
<path fill-rule="evenodd" clip-rule="evenodd" d="M2.28033 1.21967C1.98744 0.926777 1.51256 0.926777 1.21967 1.21967C0.926777 1.51256 0.926777 1.98744 1.21967 2.28033L2.73349 3.79415C2.62988 3.94442 2.53588 4.10196 2.45232 4.26594C2.20418 4.75294 2.09892 5.28248 2.04881 5.89581C1.99999 6.4934 1.99999 7.23296 2 8.15748V11.8425C1.99999 12.767 1.99999 13.5066 2.04881 14.1042C2.09892 14.7175 2.20418 15.2471 2.45232 15.7341C2.8502 16.5149 3.48507 17.1498 4.26594 17.5477C4.75294 17.7958 5.28248 17.9011 5.89581 17.9512C6.4934 18 7.23295 18 8.15746 18H11.8425C12.767 18 13.5066 18 14.1042 17.9512C14.7175 17.9011 15.2471 17.7958 15.7341 17.5477C15.898 17.4641 16.0556 17.3701 16.2058 17.2665L17.7197 18.7803C18.0126 19.0732 18.4874 19.0732 18.7803 18.7803C19.0732 18.4874 19.0732 18.0126 18.7803 17.7197L2.28033 1.21967ZM15.1169 16.1776L6.93934 8H3.50002L3.5 11.81C3.5 12.7745 3.50058 13.4527 3.54383 13.982C3.58636 14.5026 3.66639 14.8128 3.78883 15.0531C4.0429 15.5517 4.4483 15.9571 4.94693 16.2112C5.18722 16.3336 5.49738 16.4136 6.01796 16.4562C6.54729 16.4994 7.22554 16.5 8.19 16.5H11.81C12.7745 16.5 13.4527 16.4994 13.982 16.4562C14.5026 16.4136 14.8128 16.3336 15.0531 16.2112C15.0745 16.2002 15.0958 16.189 15.1169 16.1776ZM5.43934 6.5L3.82245 4.88311C3.81097 4.90421 3.79976 4.92548 3.78883 4.94693C3.66639 5.18722 3.58636 5.49738 3.54383 6.01796C3.53174 6.16599 3.52298 6.32567 3.51664 6.5H5.43934Z" fill="#99A2AD"/>
<path d="M13.982 3.54383C13.4527 3.50058 12.7745 3.5 11.81 3.5H8.19C7.74284 3.5 7.35477 3.50001 7.01016 3.50468C6.59599 3.5103 6.25568 3.17909 6.25007 2.76492C6.24446 2.35074 6.57566 2.01043 6.98984 2.00482C7.34564 2 7.74342 2 8.18618 2L11.8425 2C12.767 1.99999 13.5066 1.99999 14.1042 2.04881C14.7175 2.09892 15.2471 2.20418 15.7341 2.45232C16.5149 2.8502 17.1498 3.48507 17.5477 4.26594C17.7958 4.75294 17.9011 5.28248 17.9512 5.89581C18 6.4934 18 7.23295 18 8.15746V11.8137C18 12.2565 18 12.6543 17.9952 13.0102C17.9896 13.4243 17.6493 13.7555 17.2351 13.7499C16.8209 13.7443 16.4897 13.404 16.4953 12.9898C16.5 12.6452 16.5 12.2572 16.5 11.81L16.5 8H11.5C11.0858 8 10.75 7.66421 10.75 7.25C10.75 6.83579 11.0858 6.5 11.5 6.5H16.4834C16.477 6.32567 16.4683 6.16599 16.4562 6.01796C16.4136 5.49738 16.3336 5.18722 16.2112 4.94693C15.9571 4.4483 15.5517 4.0429 15.0531 3.78883C14.8128 3.66639 14.5026 3.58636 13.982 3.54383Z" fill="#99A2AD"/>
</svg>
