<svg width="20" height="20" viewBox="0 0 20 20" fill="none" xmlns="http://www.w3.org/2000/svg">
<path d="M13.5303 9.28033C13.8232 8.98744 13.8232 8.51256 13.5303 8.21967C13.2374 7.92678 12.7626 7.92678 12.4697 8.21967L9 11.6893L7.53033 10.2197C7.23744 9.92678 6.76256 9.92678 6.46967 10.2197C6.17678 10.5126 6.17678 10.9874 6.46967 11.2803L8.46967 13.2803C8.76256 13.5732 9.23744 13.5732 9.53033 13.2803L13.5303 9.28033Z" fill="#99A2AD"/>
<path fill-rule="evenodd" clip-rule="evenodd" d="M6.25 1C6.66421 1 7 1.33579 7 1.75V2.02032C7.51307 1.99999 8.11271 2 8.81739 2H9.25V1.75C9.25 1.33579 9.58579 1 10 1C10.4142 1 10.75 1.33579 10.75 1.75V2H11.1826C11.8873 2 12.4869 1.99999 13 2.02032V1.75C13 1.33579 13.3358 1 13.75 1C14.1642 1 14.5 1.33579 14.5 1.75V2.20728C14.7373 2.26986 14.9626 2.35272 15.1795 2.46322C15.9791 2.87068 16.6293 3.52085 17.0368 4.32054C17.2904 4.81824 17.3984 5.36012 17.4498 5.99013C17.5 6.60439 17.5 7.36493 17.5 8.31737V12.1826C17.5 13.1351 17.5 13.8956 17.4498 14.5099C17.3984 15.1399 17.2904 15.6818 17.0368 16.1795C16.6293 16.9791 15.9791 17.6293 15.1795 18.0368C14.6818 18.2904 14.1399 18.3984 13.5099 18.4498C12.8956 18.5 12.1351 18.5 11.1826 18.5H8.81737C7.86493 18.5 7.10439 18.5 6.49013 18.4498C5.86012 18.3984 5.31824 18.2904 4.82054 18.0368C4.02085 17.6293 3.37068 16.9791 2.96322 16.1795C2.70963 15.6818 2.60165 15.1399 2.55018 14.5099C2.49999 13.8956 2.49999 13.1351 2.5 12.1826V8.31739C2.49999 7.36495 2.49999 6.60439 2.55018 5.99013C2.60165 5.36012 2.70963 4.81824 2.96322 4.32054C3.37068 3.52085 4.02085 2.87068 4.82054 2.46322C5.03742 2.35272 5.2627 2.26986 5.5 2.20728V1.75C5.5 1.33579 5.83579 1 6.25 1ZM11.15 3.5C11.9222 3.5 12.5169 3.50035 13 3.52152V3.75C13 4.16421 13.3358 4.5 13.75 4.5C14.1475 4.5 14.4728 4.19073 14.4984 3.79968C15.0158 4.06333 15.4366 4.48408 15.7003 5.00153C15.8282 5.25252 15.9109 5.57503 15.9548 6.11228C15.9994 6.65829 16 7.35753 16 8.35V12.15C16 13.1425 15.9994 13.8417 15.9548 14.3877C15.9109 14.925 15.8282 15.2475 15.7003 15.4985C15.4366 16.0159 15.0159 16.4366 14.4985 16.7003C14.2475 16.8282 13.925 16.9109 13.3877 16.9548C12.8417 16.9994 12.1425 17 11.15 17H8.85C7.85753 17 7.15829 16.9994 6.61228 16.9548C6.07503 16.9109 5.75252 16.8282 5.50153 16.7003C4.98408 16.4366 4.56338 16.0159 4.29973 15.4985C4.17184 15.2475 4.08909 14.925 4.04519 14.3877C4.00058 13.8417 4 13.1425 4 12.15V8.35C4 7.35753 4.00058 6.65829 4.04519 6.11228C4.08909 5.57503 4.17184 5.25252 4.29973 5.00153C4.56338 4.48408 4.98408 4.06338 5.50153 3.79973C5.5271 4.19078 5.85248 4.5 6.25 4.5C6.66421 4.5 7 4.16421 7 3.75V3.52152C7.48311 3.50035 8.0778 3.5 8.85 3.5H9.25V3.75C9.25 4.16421 9.58579 4.5 10 4.5C10.4142 4.5 10.75 4.16421 10.75 3.75V3.5H11.15Z" fill="#99A2AD"/>
</svg>
