<svg width="20" height="20" viewBox="0 0 20 20" fill="none" xmlns="http://www.w3.org/2000/svg">
<path fill-rule="evenodd" clip-rule="evenodd" d="M5.5 8C5.5 5.51472 7.51472 3.5 10 3.5C12.4825 3.5 14.4955 5.51019 14.5 7.99162V9.66584C14.5 9.96302 14.6059 10.2505 14.7986 10.4767L16.3215 12.2635C16.7365 12.7504 16.3905 13.5 15.7507 13.5H4.24927C3.6095 13.5 3.26347 12.7504 3.67846 12.2635L5.20135 10.4767C5.39411 10.2505 5.49999 9.96302 5.49999 9.66584V8.00342C5.5 8.00228 5.5 8.00114 5.5 8ZM4.01218 7.61463C4.21084 4.4805 6.81575 2 10 2C13.1843 2 15.7892 4.48057 15.9878 7.61476C15.9958 7.65863 16 7.70383 16 7.75V7.99033C16 7.99355 16 7.99678 16 8C16 8.00114 16 8.00228 16 8.00342V9.57376L17.4632 11.2905C18.7081 12.7513 17.67 15 15.7507 15H13.675C13.3275 16.7117 11.8142 18 9.99999 18C8.18577 18 6.67246 16.7117 6.32501 15H4.24927C2.32995 15 1.29186 12.7513 2.53683 11.2905L3.99999 9.57376V7.75C3.99999 7.70378 4.00417 7.65854 4.01218 7.61463ZM9.99999 16.5C9.02033 16.5 8.1869 15.8739 7.87802 15H12.122C11.8131 15.8739 10.9797 16.5 9.99999 16.5Z" fill="#99A2AD"/>
</svg>
