<svg width="20" height="20" viewBox="0 0 20 20" fill="none" xmlns="http://www.w3.org/2000/svg">
<path d="M10 3.5C9.25269 3.5 8.55 3.68181 7.9316 4.00299C7.5642 4.19381 7.11176 4.05047 6.92106 3.68283C6.73036 3.31519 6.8736 2.86247 7.24101 2.67164C8.06772 2.24228 9.00668 2 10 2C13.1823 2 15.7856 4.48057 15.9841 7.61476C16.007 7.74072 15.9962 7.8727 15.9962 8L15.9962 9.57376L17.4584 11.2905C17.8862 11.7927 18.109 12.5127 17.9503 13.1629C17.8525 13.5663 17.4453 13.8129 17.0428 13.7125C16.6482 13.6141 16.4058 13.2187 16.494 12.8238C16.5139 12.6337 16.4617 12.4327 16.3175 12.2635L14.7956 10.4767C14.603 10.2505 14.4972 9.96302 14.4972 9.66584V7.99162C14.4926 5.51019 12.4809 3.5 10 3.5Z" fill="#99A2AD"/>
<path fill-rule="evenodd" clip-rule="evenodd" d="M4.51512 5.5723L2.22459 3.28033C1.93189 2.98744 1.93189 2.51256 2.22459 2.21967C2.5173 1.92678 2.99188 1.92678 3.28458 2.21967L17.7754 16.7197C18.0681 17.0126 18.0681 17.4874 17.7754 17.7803C17.4827 18.0732 17.0081 18.0732 16.7154 17.7803L13.9369 15H13.6727C13.3254 16.7117 11.8131 18 10 18C8.18693 18 6.67457 16.7117 6.32734 15H4.25291C2.33481 15 1.29737 12.7513 2.54155 11.2905L4.00379 9.57376V7.75C4.00379 7.70371 4.00798 7.6584 4.016 7.61443C4.06186 6.89218 4.23564 6.20373 4.51512 5.5723ZM12.4378 13.5L5.68149 6.73941C5.56523 7.13899 5.50285 7.56185 5.50285 8L5.50284 9.66584C5.50284 9.96302 5.39703 10.2505 5.20439 10.4767L3.68246 12.2635C3.26773 12.7504 3.61354 13.5 4.25291 13.5H12.4378ZM7.87937 15C8.18805 15.8739 9.02096 16.5 10 16.5C10.979 16.5 11.8119 15.8739 12.1206 15H7.87937Z" fill="#99A2AD"/>
</svg>
