<svg width="20" height="20" viewBox="0 0 20 20" fill="none" xmlns="http://www.w3.org/2000/svg">
<path d="M10.8 6.04999C10.8 5.35963 11.3596 4.79999 12.05 4.79999C12.7403 4.79999 13.3 5.35963 13.3 6.04999C13.3 6.74034 12.7403 7.29999 12.05 7.29999C11.3596 7.29999 10.8 6.74034 10.8 6.04999Z" fill="#99A2AD"/>
<path d="M14.45 8.20001C13.7597 8.20001 13.2 8.75966 13.2 9.45001C13.2 10.1404 13.7597 10.7 14.45 10.7C15.1404 10.7 15.7 10.1404 15.7 9.45001C15.7 8.75966 15.1404 8.20001 14.45 8.20001Z" fill="#99A2AD"/>
<path d="M4.29999 9.45001C4.29999 8.75966 4.85963 8.20001 5.54999 8.20001C6.24034 8.20001 6.79999 8.75966 6.79999 9.45001C6.79999 10.1404 6.24034 10.7 5.54999 10.7C4.85963 10.7 4.29999 10.1404 4.29999 9.45001Z" fill="#99A2AD"/>
<path d="M7.84998 4.79999C7.15962 4.79999 6.59998 5.35963 6.59998 6.04999C6.59998 6.74034 7.15962 7.29999 7.84998 7.29999C8.54033 7.29999 9.09998 6.74034 9.09998 6.04999C9.09998 5.35963 8.54033 4.79999 7.84998 4.79999Z" fill="#99A2AD"/>
<path fill-rule="evenodd" clip-rule="evenodd" d="M14.1773 14.0372C16.3185 14.2668 18.5 13.2942 18.5 10C18.5 7.65279 17.5486 5.52779 16.0104 3.98959C14.4722 2.45139 12.3472 1.5 10 1.5C7.65279 1.5 5.52779 2.45139 3.98959 3.98959C2.45139 5.52779 1.5 7.65279 1.5 10C1.5 12.3472 2.45139 14.4722 3.98959 16.0104C5.52779 17.5486 7.65279 18.5 10 18.5C11.1294 18.5 12.2549 17.4934 11.977 16.0747C11.9299 15.8341 11.8675 15.6032 11.8092 15.3874C11.5552 14.4472 11.3794 13.7962 12.8853 13.9C12.9211 13.9025 13.3399 13.9474 14.1773 14.0372ZM14.3371 12.5457L14.0914 12.5194C13.4381 12.4493 13.0542 12.4081 12.9884 12.4035C12.4626 12.3673 11.8163 12.3788 11.2483 12.6669C10.9279 12.8294 10.6372 13.0775 10.4315 13.4202C10.233 13.7509 10.1639 14.0858 10.1456 14.354C10.1131 14.8299 10.2345 15.2979 10.3003 15.5507C10.3262 15.6503 10.3501 15.7388 10.3723 15.821C10.4255 16.0179 10.4687 16.1779 10.505 16.3631C10.5303 16.4922 10.5189 16.5806 10.502 16.6396C10.4844 16.7013 10.4522 16.7596 10.4035 16.8134C10.2949 16.9335 10.133 17 10 17C8.06659 17 6.31865 16.2181 5.05025 14.9497C3.78186 13.6814 3 11.9334 3 10C3 8.06659 3.78186 6.31865 5.05025 5.05025C6.31865 3.78186 8.06659 3 10 3C11.9334 3 13.6814 3.78186 14.9497 5.05025C16.2181 6.31865 17 8.06659 17 10C17 11.2974 16.5878 11.8732 16.2263 12.1517C15.8138 12.4694 15.1613 12.6341 14.3371 12.5457Z" fill="#99A2AD"/>
</svg>
