<svg width="20" height="20" viewBox="0 0 20 20" fill="none" xmlns="http://www.w3.org/2000/svg">
<path fill-rule="evenodd" clip-rule="evenodd" d="M7.70787 4.87632C7.61746 4.39216 7.40185 4.00574 7.16175 3.76735C6.91845 3.5258 6.70937 3.48389 6.58088 3.50527C6.45728 3.52585 6.28629 3.62549 6.15062 3.91923C6.01543 4.21196 5.95172 4.63918 6.04221 5.12369C6.13263 5.60785 6.34823 5.99427 6.58833 6.23266C6.83163 6.47422 7.04072 6.51613 7.1692 6.49474C7.2928 6.47416 7.46379 6.37453 7.59946 6.08078C7.73466 5.78806 7.79836 5.36084 7.70787 4.87632ZM6.33457 2.02564C7.07322 1.90267 7.7426 2.2303 8.2186 2.70289C8.69779 3.17866 9.04232 3.851 9.18238 4.60095C9.32237 5.35054 9.24326 6.09911 8.96123 6.70973C8.67968 7.31933 8.15904 7.8506 7.41551 7.97438C6.67686 8.09734 6.00749 7.76971 5.53149 7.29712C5.05229 6.82136 4.70776 6.14902 4.5677 5.39906C4.42771 4.64947 4.50683 3.90091 4.78885 3.29028C5.0704 2.68068 5.59104 2.14941 6.33457 2.02564ZM12.8384 3.76735C12.5983 4.00574 12.3827 4.39216 12.2922 4.87632C12.2018 5.36084 12.2655 5.78806 12.4007 6.08078C12.5363 6.37453 12.7073 6.47416 12.8309 6.49474C12.9594 6.51613 13.1685 6.47422 13.4118 6.23266C13.6519 5.99427 13.8675 5.60785 13.9579 5.12369C14.0484 4.63918 13.9847 4.21196 13.8495 3.91923C13.7138 3.62549 13.5428 3.52585 13.4192 3.50527C13.2908 3.48389 13.0817 3.5258 12.8384 3.76735ZM11.7815 2.70289C12.2575 2.2303 12.9269 1.90267 13.6656 2.02564C14.4091 2.14941 14.9297 2.68068 15.2113 3.29028C15.4933 3.90091 15.5724 4.64947 15.4324 5.39906C15.2924 6.14902 14.9478 6.82136 14.4686 7.29712C13.9926 7.76971 13.3233 8.09734 12.5846 7.97438C11.8411 7.8506 11.3204 7.31933 11.0389 6.70973C10.7569 6.09911 10.6778 5.35054 10.8177 4.60095C10.9578 3.851 11.3023 3.17866 11.7815 2.70289ZM10.0001 10.5C9.52959 10.5 9.21476 10.6957 8.8985 11.1137C8.61474 11.4887 8.3882 11.9615 8.11026 12.5417C8.03785 12.6928 7.96195 12.8512 7.88064 13.0171C7.59452 13.6008 7.29888 14.0912 7.06328 14.482C6.98622 14.6098 6.91558 14.727 6.8538 14.8333C6.57964 15.305 6.50003 15.5322 6.50006 15.7093C6.50011 15.9783 6.56005 16.1163 6.60682 16.1873C6.65366 16.2584 6.72476 16.3189 6.84192 16.3701C7.11565 16.4896 7.4862 16.5 7.87506 16.5C8.13475 16.5 8.3874 16.4498 8.64149 16.4022C8.97013 16.3413 9.36817 16.2794 10.0001 16.2794C10.6319 16.2794 11.03 16.3413 11.3586 16.4022C11.6127 16.4498 11.8654 16.5 12.1251 16.5C12.5139 16.5 12.8845 16.4896 13.1582 16.3701C13.2754 16.3189 13.3465 16.2584 13.3933 16.1873C13.4401 16.1163 13.5 15.9783 13.5001 15.7093C13.5001 15.5322 13.4205 15.305 13.1463 14.8333C13.0845 14.727 13.0139 14.6098 12.9368 14.482C12.7012 14.0912 12.4056 13.6008 12.1195 13.0171C12.0382 12.8512 11.9623 12.6928 11.8899 12.5417C11.6119 11.9615 11.3854 11.4887 11.1016 11.1137C10.7854 10.6957 10.4705 10.5 10.0001 10.5ZM10.0001 9C11.0667 9 11.784 9.52962 12.2978 10.2086C12.6826 10.7171 12.9935 11.369 13.2768 11.9629C13.3412 12.098 13.4042 12.2301 13.4664 12.3568C13.7211 12.8765 13.9669 13.2843 14.1961 13.6647C14.2808 13.8052 14.3634 13.9423 14.4432 14.0795C14.7155 14.5481 15.0002 15.0889 15.0001 15.7096C15 16.2109 14.8845 16.6505 14.6457 17.0128C14.407 17.375 14.0823 17.6033 13.7586 17.7447C13.1717 18.001 12.5067 18.0003 12.1612 18C11.7957 17.9997 11.4434 17.9435 11.0852 17.8771C10.8189 17.8277 10.5157 17.7794 10.0001 17.7794C9.48445 17.7794 9.18124 17.8277 8.91488 17.8771C8.55677 17.9435 8.20445 17.9997 7.83895 18C7.49338 18.0003 6.82845 18.001 6.24155 17.7447C5.91781 17.6033 5.59314 17.375 5.3544 17.0128C5.1156 16.6505 5.00015 16.2109 5.00006 15.7096C4.99994 15.0889 5.28462 14.5481 5.55693 14.0795C5.63668 13.9423 5.71907 13.8056 5.80372 13.6652C6.03299 13.2847 6.27905 12.8765 6.53376 12.3568C6.59788 12.2261 6.66022 12.0948 6.72308 11.9634C7.00634 11.3696 7.31757 10.7171 7.70234 10.2086C8.21608 9.52962 8.93339 9 10.0001 9ZM16.7363 8.8826C16.4701 9.04707 16.1799 9.36133 15.9752 9.80724C15.7706 10.2529 15.7187 10.6835 15.7666 11.0019C15.8158 11.3284 15.9458 11.4432 16.0148 11.4758C16.0805 11.507 16.2425 11.535 16.5138 11.3674C16.78 11.2029 17.0702 10.8886 17.2749 10.4427C17.4795 9.99707 17.5313 9.56643 17.4834 9.24804C17.4343 8.92154 17.3043 8.8068 17.2353 8.77413C17.1696 8.74299 17.0076 8.71497 16.7363 8.8826ZM15.9479 7.60651C16.4955 7.26816 17.2078 7.10134 17.8774 7.4185C18.5438 7.73414 18.871 8.38885 18.9667 9.02484C19.0636 9.66893 18.9479 10.3938 18.6381 11.0685C18.3285 11.743 17.855 12.3019 17.3022 12.6435C16.7545 12.9818 16.0423 13.1486 15.3727 12.8315C14.7063 12.5158 14.379 11.8611 14.2833 11.2251C14.1864 10.581 14.3022 9.85616 14.612 9.18142C14.9216 8.50692 15.3951 7.94802 15.9479 7.60651ZM4.02496 9.80724C3.82025 9.36133 3.53005 9.04707 3.26384 8.8826C2.99251 8.71497 2.83055 8.74299 2.76482 8.77413C2.69585 8.8068 2.56584 8.92154 2.51671 9.24804C2.4688 9.56643 2.52063 9.99707 2.72522 10.4427C2.92993 10.8886 3.22013 11.2029 3.48634 11.3674C3.75767 11.535 3.91963 11.507 3.98536 11.4758C4.05433 11.4432 4.18434 11.3284 4.23347 11.0019C4.28138 10.6835 4.22955 10.2529 4.02496 9.80724ZM2.12273 7.4185C2.79235 7.10134 3.50461 7.26816 4.05225 7.60651C4.60501 7.94802 5.07853 8.50692 5.38817 9.18142C5.69793 9.85616 5.81369 10.581 5.71677 11.2251C5.62107 11.8611 5.29383 12.5158 4.62745 12.8315C3.95783 13.1486 3.24557 12.9818 2.69793 12.6435C2.14517 12.3019 1.67165 11.743 1.36201 11.0685C1.05225 10.3938 0.936487 9.66893 1.03341 9.02484C1.12911 8.38885 1.45635 7.73414 2.12273 7.4185Z" fill="#99A2AD"/>
</svg>
