<svg width="20" height="20" viewBox="0 0 20 20" fill="none" xmlns="http://www.w3.org/2000/svg">
<path d="M7.78004 2.70081L8.48032 3.53322C9.8525 5.16069 9.7087 7.58671 8.18098 9.11464L7.88396 9.4113C8.10958 9.79033 8.51727 10.2892 9.11429 10.8863C9.64427 11.4164 10.0975 11.7977 10.4581 12.0348L10.5889 12.1169L10.8859 11.8199C12.4125 10.2931 14.8367 10.1479 16.4667 11.5183L17.2994 12.2198C18.7592 13.4485 18.901 15.6391 17.6449 17.114C17.0436 17.8097 16.2144 18.267 15.3547 18.4026L14.8485 18.4635C11.8439 18.7551 8.81165 17.3034 5.75463 14.2459C2.69919 11.1901 1.24527 8.15692 1.52907 5.22063L1.58959 4.70571C1.62358 4.47724 1.67685 4.25605 1.75077 4.03757C1.97329 3.38459 2.3665 2.80244 2.88934 2.35181L3.05677 2.217C4.5187 1.11011 6.59664 1.29317 7.78004 2.70081ZM3.86863 3.48804C3.54797 3.7644 3.30692 4.12138 3.17059 4.52142C3.11175 4.69535 3.07374 4.87565 3.05577 5.07288C2.71253 7.62098 3.95407 10.3237 6.81536 13.1854C9.67652 16.0469 12.378 17.2879 14.9391 16.9432C15.5482 16.8851 16.1115 16.5942 16.5101 16.1331C17.2286 15.2893 17.1461 14.0514 16.3335 13.3675L15.5003 12.6655L15.3576 12.5541C14.3374 11.8151 12.8867 11.9403 11.9467 12.8804L11.3495 13.4777L11.2624 13.5544C11.0192 13.7422 10.6939 13.7949 10.4001 13.6872C9.75214 13.4489 8.97529 12.8688 8.05356 11.9469C7.13092 11.0241 6.55118 10.2477 6.31428 9.60007C6.19301 9.27009 6.27433 8.89972 6.52302 8.65055L7.12096 8.05334L7.24969 7.91565C8.11192 6.92896 8.15624 5.47588 7.33354 4.50011L6.6322 3.66646L6.51983 3.54418C5.81969 2.84709 4.66748 2.80877 3.86863 3.48804Z" fill="#99A2AD"/>
</svg>
