<svg width="20" height="20" viewBox="0 0 20 20" fill="none" xmlns="http://www.w3.org/2000/svg">
<path d="M6 7.24998C6 6.55963 6.55964 5.99998 7.25 5.99998C7.94036 5.99998 8.5 6.55963 8.5 7.24998C8.5 7.94034 7.94036 8.49998 7.25 8.49998C6.55964 8.49998 6 7.94034 6 7.24998Z" fill="#99A2AD"/>
<path fill-rule="evenodd" clip-rule="evenodd" d="M7.08218 2C5.3068 2 4.66122 2.18037 4.01169 2.52774C3.37195 2.86988 2.86988 3.37195 2.52774 4.01169C2.18037 4.66122 2 5.3068 2 7.08218V12.9178C2 14.6932 2.18037 15.3388 2.52774 15.9883C2.86988 16.6281 3.37195 17.1301 4.01169 17.4723C4.66122 17.8196 5.3068 18 7.08218 18H12.9178C14.6932 18 15.3388 17.8196 15.9883 17.4723C16.628 17.1301 17.1301 16.6281 17.4723 15.9883C17.8196 15.3388 18 14.6932 18 12.9178V7.08218C18 5.3068 17.8196 4.66122 17.4723 4.01169C17.1301 3.37195 16.628 2.86988 15.9883 2.52774C15.3388 2.18037 14.6932 2 12.9178 2H7.08218ZM5.79306 12.2713C6.07261 11.9917 6.31378 11.7505 6.52865 11.5681C6.75545 11.3756 7.0018 11.2048 7.30471 11.1064C7.75661 10.9596 8.24339 10.9596 8.69529 11.1064C8.9982 11.2048 9.24456 11.3756 9.47135 11.5681C9.63126 11.7038 9.80572 11.8721 9.99974 12.0646L11.793 10.2713C12.0726 9.9917 12.3138 9.75051 12.5287 9.56809C12.7554 9.37556 13.0018 9.20485 13.3047 9.10642C13.7566 8.95959 14.2434 8.95959 14.6953 9.10642C14.9982 9.20485 15.2446 9.37556 15.4713 9.56809C15.6862 9.75051 15.9274 9.9917 16.207 10.2713L16.5 10.5643V7.08218C16.5 5.42212 16.3312 5.05884 16.1495 4.71909C15.9472 4.34075 15.6593 4.0528 15.2809 3.85046C14.9412 3.66876 14.5779 3.5 12.9178 3.5H7.08218C5.42212 3.5 5.05884 3.66876 4.71909 3.85046C4.34075 4.0528 4.0528 4.34075 3.85046 4.71909C3.66876 5.05884 3.5 5.42212 3.5 7.08218V12.9178C3.5 13.6578 3.53353 14.1401 3.58679 14.4775L5.79306 12.2713ZM6 7.24998C6 7.94034 6.55964 8.49998 7.25 8.49998C7.94036 8.49998 8.5 7.94034 8.5 7.24998C8.5 6.55963 7.94036 5.99998 7.25 5.99998C6.55964 5.99998 6 6.55963 6 7.24998ZM14.2318 10.533C14.0811 10.4841 13.9189 10.4841 13.7682 10.533C13.7287 10.5459 13.6553 10.5793 13.4994 10.7116C13.3369 10.8496 13.139 11.0466 12.8333 11.3524L10.5303 13.6553C10.3897 13.796 10.1989 13.875 10 13.875C9.80109 13.875 9.61032 13.796 9.46967 13.6553L9.16673 13.3524C8.86096 13.0466 8.66312 12.8496 8.50058 12.7116C8.34474 12.5793 8.27134 12.5459 8.23176 12.533C8.08113 12.4841 7.91887 12.4841 7.76824 12.533C7.72866 12.5459 7.65526 12.5793 7.49942 12.7116C7.33688 12.8496 7.13904 13.0466 6.83327 13.3524L4.31462 15.871C4.43568 15.9773 4.5704 16.07 4.71909 16.1495C5.05884 16.3312 5.42212 16.5 7.08218 16.5H12.9178C14.5779 16.5 14.9412 16.3312 15.2809 16.1495C15.6592 15.9472 15.9472 15.6593 16.1495 15.2809C16.3312 14.9412 16.5 14.5779 16.5 12.9178V12.684C16.5 12.684 15.609 11.795 15.1667 11.3524C14.861 11.0466 14.6631 10.8496 14.5006 10.7116C14.3447 10.5793 14.2713 10.5459 14.2318 10.533Z" fill="#99A2AD"/>
</svg>
