<svg width="20" height="20" viewBox="0 0 20 20" fill="none" xmlns="http://www.w3.org/2000/svg">
<path fill-rule="evenodd" clip-rule="evenodd" d="M17.9647 8.15046C17.8848 8.41514 17.6657 8.61438 17.3947 8.6689L15.8277 8.98414C15.7762 8.99449 15.7293 9.02076 15.6937 9.05924C15.4701 9.30031 15.2367 9.53106 15.0043 9.7636C14.7115 10.0566 14.2366 10.0567 13.9436 9.76394C13.6506 9.47114 13.6505 8.99627 13.9433 8.70328L14.5938 8.03933C14.8435 7.76997 15.1717 7.58604 15.5318 7.5136L15.7263 7.47447L12.5256 4.27571L12.4899 4.45804C12.4231 4.7995 12.256 5.11329 12.0099 5.35933L11.3023 6.06526C11.0085 6.35724 10.5336 6.35577 10.2416 6.06197C9.94965 5.76817 9.95113 5.2933 10.2449 5.00132L10.9493 4.29867C10.9844 4.26352 11.0083 4.21869 11.0178 4.16991L11.3239 2.60598C11.3772 2.33403 11.576 2.11359 11.8411 2.0327C12.1061 1.95182 12.3941 2.02366 12.5901 2.21955L17.7769 7.40314C17.9725 7.59859 18.0447 7.88578 17.9647 8.15046Z" fill="#99A2AD"/>
<path fill-rule="evenodd" clip-rule="evenodd" d="M7.996 13.065L11.135 16.2043C11.7417 16.8109 12.751 16.4348 12.8539 15.6186C12.9375 14.7845 12.9837 13.9448 13.0484 13.109L14.7197 14.7803C15.0126 15.0732 15.4874 15.0732 15.7803 14.7803C16.0732 14.4874 16.0732 14.0126 15.7803 13.7197L6.28033 4.21967C5.98744 3.92678 5.51256 3.92678 5.21967 4.21967C4.92678 4.51256 4.92678 4.98744 5.21967 5.28033L6.88953 6.95019C6.04497 7.01732 5.17192 7.02648 4.33482 7.15619C3.52493 7.31282 3.21863 8.2879 3.79633 8.8656L6.935 12.004L2.14705 16.8044C1.9292 17.098 1.9534 17.5147 2.21967 17.781C2.51256 18.0739 2.98744 18.0739 3.28033 17.781L7.996 13.065ZM11.4444 14.3944L11.652 11.7126L8.28347 8.34413L5.6121 8.55645L11.4444 14.3944Z" fill="#99A2AD"/>
</svg>
