<svg width="20" height="20" viewBox="0 0 20 20" fill="none" xmlns="http://www.w3.org/2000/svg">
<path d="M6.5 4C7.32843 4 8 3.32843 8 2.5C8 1.67157 7.32843 1 6.5 1C5.67157 1 5 1.67157 5 2.5C5 3.32843 5.67157 4 6.5 4Z" fill="#99A2AD"/>
<path fill-rule="evenodd" clip-rule="evenodd" d="M12.5981 2.22031C12.1745 1.79674 11.4498 2.01617 11.3323 2.60355L11.0243 4.14351C11.0128 4.201 10.9846 4.2538 10.9431 4.29526L8.47986 6.75852C8.42974 6.80864 8.36333 6.83919 8.29265 6.84462L4.43415 7.14143C3.55078 7.23438 3.19558 8.26485 3.79633 8.8656L6.935 12.004L2.14705 16.8044C1.9292 17.098 1.9534 17.5147 2.21967 17.781C2.51256 18.0739 2.98744 18.0739 3.28033 17.781L7.996 13.065L11.135 16.2043C11.7544 16.8237 12.7937 16.4185 12.8592 15.5665L13.156 11.708C13.1614 11.6373 13.192 11.5709 13.2421 11.5208L15.7054 9.05751C15.7468 9.01605 15.7996 8.98779 15.8571 8.9763L17.3971 8.66831C17.9845 8.55083 18.2039 7.82611 17.7803 7.40254L12.5981 2.22031ZM12.0038 5.35592C12.3359 5.01953 12.4472 4.68057 12.528 4.27164L15.728 7.47164C15.2891 7.53906 14.9467 7.69488 14.6447 7.99685L12.1815 10.4601C11.8902 10.7785 11.6941 11.1555 11.6604 11.5929L11.444 14.3926L5.607 8.55564L8.4077 8.34021C8.83539 8.30731 9.23721 8.1225 9.54052 7.81918L12.0038 5.35592Z" fill="#99A2AD"/>
</svg>
