<svg width="20" height="20" viewBox="0 0 20 20" fill="none" xmlns="http://www.w3.org/2000/svg">
<path d="M11.3323 2.60355C11.4498 2.01617 12.1745 1.79674 12.5981 2.22031L17.7803 7.40254C18.2039 7.82611 17.9845 8.55083 17.3971 8.66831L15.8571 8.9763C15.7996 8.98779 15.7468 9.01605 15.7054 9.05751L13.2421 11.5208C13.192 11.5709 13.1614 11.6373 13.156 11.708L12.8592 15.5665C12.7937 16.4185 11.7544 16.8237 11.135 16.2043L7.996 13.065L3.28033 17.781C2.98744 18.0739 2.51256 18.0739 2.21967 17.781C1.9534 17.5147 1.9292 17.098 2.14705 16.8044L6.935 12.004L3.79633 8.8656C3.19558 8.26485 3.55078 7.23438 4.43415 7.14143L8.29265 6.84462C8.36333 6.83919 8.42974 6.80864 8.47986 6.75852L10.9431 4.29526C10.9846 4.2538 11.0128 4.201 11.0243 4.14351L11.3323 2.60355ZM12.528 4.27164C12.4472 4.68057 12.3359 5.01953 12.0038 5.35592L9.54052 7.81918C9.23721 8.1225 8.83539 8.30731 8.4077 8.34021L5.607 8.55564L11.444 14.3926L11.6604 11.5929C11.6941 11.1555 11.8902 10.7785 12.1815 10.4601L14.6447 7.99685C14.9467 7.69488 15.2891 7.53906 15.728 7.47164L12.528 4.27164Z" fill="#99A2AD"/>
</svg>
