<svg width="20" height="20" viewBox="0 0 20 20" fill="none" xmlns="http://www.w3.org/2000/svg">
<path d="M10 1C14.148 1 17.5 4.43256 17.5 8.5C17.5 11.3504 15.6566 14.6715 12.0654 18.5948C12.0097 18.6556 11.9514 18.7139 11.8906 18.7696C10.7499 19.8138 8.97867 19.7355 7.9346 18.5948C4.34343 14.6715 2.5 11.3504 2.5 8.5C2.5 4.43256 5.85205 1 10 1ZM10 2.5C6.61818 2.5 4 5.32518 4 8.5C4 10.8832 5.68035 13.9105 9.04105 17.582C9.52582 18.1116 10.3481 18.1479 10.8778 17.6632C10.906 17.6373 10.9331 17.6102 10.9589 17.582C14.3196 13.9105 16 10.8832 16 8.5C16 5.32518 13.3818 2.5 10 2.5ZM10 5C11.9324 5 13.5 6.56757 13.5 8.5C13.5 10.4324 11.9324 12 10 12C8.06757 12 6.5 10.4324 6.5 8.5C6.5 6.56757 8.06757 5 10 5ZM10 6.5C8.896 6.5 8 7.396 8 8.5C8 9.604 8.896 10.5 10 10.5C11.104 10.5 12 9.604 12 8.5C12 7.396 11.104 6.5 10 6.5Z" fill="#99A2AD"/>
</svg>
