<svg width="20" height="20" viewBox="0 0 20 20" fill="none" xmlns="http://www.w3.org/2000/svg">
<path fill-rule="evenodd" clip-rule="evenodd" d="M13.0597 3.06454C14.0243 2.35212 15.214 1.74781 16.3988 2.10659C16.7569 2.21503 17.0763 2.44302 17.316 2.68295C17.5559 2.92305 17.7826 3.24181 17.8915 3.59746C18.254 4.78071 17.6499 5.96993 16.9378 6.93391C16.2744 7.83202 15.3678 8.73174 14.5058 9.54929L15.5008 14.6277C15.5914 15.09 15.4559 15.6149 15.2216 16.0139C14.9886 16.4108 14.6359 16.7238 14.214 16.908C13.7921 17.0921 13.3228 17.138 12.8732 17.0391C12.4203 16.9394 11.9342 16.6794 11.6606 16.2932L9.97235 13.9099L9.04501 14.5871L9.20972 15.76C9.25429 16.0834 9.21735 16.4129 9.10224 16.7185C8.98779 17.0223 8.79967 17.2929 8.55482 17.5061C8.34288 17.694 8.0927 17.8339 7.82149 17.916C7.54849 17.9986 7.26074 18.0206 6.97832 17.9806C6.69591 17.9406 6.42563 17.8394 6.18634 17.6842C5.94859 17.53 5.74712 17.3261 5.59579 17.0866L4.54307 15.4578L2.97142 14.4563C2.72488 14.3123 2.51271 14.1161 2.34983 13.8814C2.18305 13.6411 2.07217 13.3665 2.02531 13.0778C1.97846 12.7891 1.99681 12.4936 2.07903 12.2129C2.16065 11.9342 2.30317 11.6772 2.49625 11.4603C2.70935 11.2158 2.97983 11.028 3.28345 10.9136C3.5887 10.7987 3.91781 10.7617 4.24095 10.806C4.6296 10.8596 5.01861 10.9107 5.40743 10.963L6.0939 10.0175L3.68925 8.34237C3.27044 8.09219 2.99513 7.55716 2.894 7.09783C2.79504 6.64836 2.84095 6.1791 3.02515 5.75732C3.20935 5.33554 3.52237 4.98289 3.91936 4.74992C4.31871 4.51556 4.84519 4.37937 5.30771 4.47116L10.4487 5.49138C11.2637 4.63243 12.1619 3.72756 13.0597 3.06454ZM4.53371 7.11138L7.57184 9.22785C7.73633 9.34243 7.8478 9.51835 7.88116 9.716C7.91452 9.91364 7.86696 10.1164 7.74919 10.2786L6.35378 12.2006C6.19247 12.4228 5.92219 12.5385 5.65006 12.5018L4.04067 12.2852C3.81111 12.2539 3.57666 12.4111 3.51183 12.6324C3.44234 12.8696 3.56772 13.0663 3.76029 13.189L5.48287 14.2867C5.57337 14.3443 5.65037 14.4208 5.70862 14.5109L6.85739 16.2883C6.96592 16.4611 7.19361 16.5464 7.38904 16.4873C7.58298 16.4286 7.72561 16.2406 7.7343 16.0417C7.7363 15.9959 7.72895 15.9512 7.72261 15.9061L7.50435 14.3519C7.46608 14.0793 7.58096 13.8078 7.80327 13.6455L9.70341 12.2578C9.86481 12.1399 10.0668 12.0917 10.264 12.1239C10.4613 12.1561 10.6374 12.266 10.7529 12.4291L12.851 15.391C13.0453 15.5896 13.361 15.6516 13.6166 15.54C13.8735 15.4279 14.0429 15.152 14.0275 14.8731L12.9616 9.43255C12.9123 9.18077 12.9957 8.9213 13.1827 8.7455C14.1414 7.84375 15.0878 6.9258 15.7369 6.04716C16.1505 5.48719 16.9101 4.38881 16.2597 3.7378C15.6099 3.08737 14.5045 3.85322 13.9468 4.26515C13.0678 4.9143 12.1509 5.85962 11.252 6.8151C11.0757 7.00249 10.8153 7.0859 10.5629 7.03581L5.05967 5.94371C4.78097 5.92872 4.50544 6.09803 4.3934 6.3546C4.28345 6.60635 4.34174 6.91669 4.53371 7.11138Z" fill="#99A2AD"/>
</svg>
