<svg width="20" height="20" viewBox="0 0 20 20" fill="none" xmlns="http://www.w3.org/2000/svg">
<path d="M10 5C12.2091 5 14 6.79086 14 9V12C14 13.9526 12.6009 15.5784 10.7506 15.9297L10.75 17.25C10.75 17.6642 10.4142 18 10 18C9.58579 18 9.25 17.6642 9.25 17.25L9.25039 15.9299C7.39955 15.579 6 13.9529 6 12V9C6 6.79086 7.79086 5 10 5ZM10 6.5C8.61929 6.5 7.5 7.61929 7.5 9V12C7.5 13.3807 8.61929 14.5 10 14.5C10.8188 14.5 11.5457 14.1063 12.0017 13.4979C11.9657 13.4995 11.9229 13.5 11.8717 13.5H10.45C10.0358 13.5 9.7 13.1642 9.7 12.75C9.7 12.3358 10.0358 12 10.45 12H12.5V10.5H10.45C10.0358 10.5 9.7 10.1642 9.7 9.75C9.7 9.33579 10.0358 9 10.45 9H12.5C12.5 7.61929 11.3807 6.5 10 6.5ZM10 2C13.549 2 16.4811 4.64112 16.9381 8.06508C17.5529 8.2526 18 8.82409 18 9.5V12.5C18 13.3284 17.3284 14 16.5 14C15.6716 14 15 13.3284 15 12.5V9.5C15 9.07157 15.1796 8.6851 15.4676 8.41177C15.1833 5.72314 12.9596 3.61268 10.2212 3.50437L10 3.5C7.16103 3.5 4.82444 5.65097 4.53105 8.41212C4.82039 8.6851 5 9.07157 5 9.5V12.5C5 13.3284 4.32843 14 3.5 14C2.67157 14 2 13.3284 2 12.5V9.5C2 8.82409 2.44706 8.2526 3.06161 8.06508C3.51889 4.64112 6.45101 2 10 2Z" fill="#99A2AD"/>
</svg>
