<svg width="20" height="20" viewBox="0 0 20 20" fill="none" xmlns="http://www.w3.org/2000/svg">
<path d="M10.75 6.4126C10.75 5.99838 10.4142 5.6626 10 5.6626C9.58579 5.6626 9.25 5.99838 9.25 6.4126V13.5876C9.25 14.0018 9.58579 14.3376 10 14.3376C10.4142 14.3376 10.75 14.0018 10.75 13.5876V6.4126Z" fill="#99A2AD"/>
<path d="M6.5 8.2876C6.91421 8.2876 7.25 8.62338 7.25 9.0376V13.5876C7.25 14.0018 6.91421 14.3376 6.5 14.3376C6.08579 14.3376 5.75 14.0018 5.75 13.5876V9.0376C5.75 8.62338 6.08579 8.2876 6.5 8.2876Z" fill="#99A2AD"/>
<path d="M14.25 10.7876C14.25 10.3734 13.9142 10.0376 13.5 10.0376C13.0858 10.0376 12.75 10.3734 12.75 10.7876V13.5876C12.75 14.0018 13.0858 14.3376 13.5 14.3376C13.9142 14.3376 14.25 14.0018 14.25 13.5876V10.7876Z" fill="#99A2AD"/>
<path fill-rule="evenodd" clip-rule="evenodd" d="M3.75156 1.98313C4.54583 1.55835 5.32247 1.375 7.12777 1.375H12.8722C14.6775 1.375 15.4542 1.55835 16.2484 1.98313C17.0089 2.38982 17.6102 2.99111 18.0169 3.75156C18.4417 4.54583 18.625 5.32247 18.625 7.12777V12.8722C18.625 14.6775 18.4417 15.4542 18.0169 16.2484C17.6102 17.0089 17.0089 17.6102 16.2484 18.0169C15.4542 18.4417 14.6775 18.625 12.8722 18.625H7.12777C5.32247 18.625 4.54583 18.4417 3.75156 18.0169C2.99111 17.6102 2.38982 17.0089 1.98313 16.2484C1.55835 15.4542 1.375 14.6775 1.375 12.8722V7.12777C1.375 5.32247 1.55835 4.54583 1.98313 3.75156C2.38982 2.99111 2.99111 2.38982 3.75156 1.98313ZM7.12777 2.875C5.43779 2.875 4.94345 3.04674 4.45896 3.30585C3.95991 3.57274 3.57274 3.95991 3.30585 4.45896C3.04674 4.94345 2.875 5.43779 2.875 7.12777V12.8722C2.875 14.5622 3.04674 15.0566 3.30585 15.541C3.57274 16.0401 3.95991 16.4273 4.45896 16.6941C4.94345 16.9533 5.43779 17.125 7.12777 17.125H12.8722C14.5622 17.125 15.0566 16.9533 15.541 16.6941C16.0401 16.4273 16.4273 16.0401 16.6941 15.541C16.9533 15.0566 17.125 14.5622 17.125 12.8722V7.12777C17.125 5.43779 16.9533 4.94345 16.6941 4.45896C16.4273 3.95991 16.0401 3.57274 15.541 3.30585C15.0566 3.04674 14.5622 2.875 12.8722 2.875H7.12777Z" fill="#99A2AD"/>
</svg>
