<svg width="20" height="20" viewBox="0 0 20 20" fill="none" xmlns="http://www.w3.org/2000/svg">
<path fill-rule="evenodd" clip-rule="evenodd" d="M10.8999 2H9.10009C8.62153 1.99999 8.21759 1.99998 7.88669 2.02702C7.54016 2.05533 7.2082 2.11699 6.89233 2.27793C6.41251 2.52241 6.02241 2.91251 5.77793 3.39233C5.61699 3.7082 5.55533 4.04016 5.52702 4.38669C5.50189 4.69427 5.50012 5.06494 5.50001 5.50001C5.06494 5.50012 4.69427 5.50189 4.38669 5.52702C4.04016 5.55533 3.7082 5.61699 3.39233 5.77793C2.91251 6.02241 2.52241 6.41251 2.27793 6.89233C2.11699 7.2082 2.05533 7.54016 2.02702 7.88669C1.99998 8.21759 1.99999 8.62151 2 9.10007V10.8999C1.99999 11.3785 1.99998 11.7824 2.02702 12.1133C2.05533 12.4598 2.11699 12.7918 2.27793 13.1077C2.52241 13.5875 2.91251 13.9776 3.39233 14.2221C3.7082 14.383 4.04016 14.4447 4.38669 14.473C4.69427 14.4981 5.06494 14.4999 5.50001 14.5C5.50012 14.9351 5.50188 15.3057 5.52701 15.6133C5.55533 15.9598 5.61699 16.2918 5.77793 16.6077C6.02241 17.0875 6.41251 17.4776 6.89232 17.7221C7.20819 17.883 7.54015 17.9447 7.88669 17.973C8.2176 18 8.62152 18 9.10009 18H10.8999C11.3785 18 11.7824 18 12.1133 17.973C12.4598 17.9447 12.7918 17.883 13.1077 17.7221C13.5875 17.4776 13.9776 17.0875 14.2221 16.6077C14.383 16.2918 14.4447 15.9598 14.473 15.6133C14.4981 15.3057 14.4999 14.9351 14.5 14.5C14.9351 14.4999 15.3057 14.4981 15.6133 14.473C15.9598 14.4447 16.2918 14.383 16.6077 14.2221C17.0875 13.9776 17.4776 13.5875 17.7221 13.1077C17.883 12.7918 17.9447 12.4598 17.973 12.1133C18 11.7824 18 11.3785 18 10.9V9.10007C18 8.62155 18 8.21757 17.973 7.88669C17.9447 7.54016 17.883 7.2082 17.7221 6.89233C17.4776 6.41251 17.0875 6.02241 16.6077 5.77793C16.2918 5.61699 15.9598 5.55533 15.6133 5.52702C15.3057 5.50189 14.9351 5.50012 14.5 5.50001C14.4999 5.06495 14.4981 4.69427 14.473 4.38669C14.4447 4.04016 14.383 3.7082 14.2221 3.39233C13.9776 2.91251 13.5875 2.52241 13.1077 2.27793C12.7918 2.11699 12.4598 2.05533 12.1133 2.02702C11.7824 1.99998 11.3785 1.99999 10.8999 2ZM7 13.75L7 13.7521V14.37C7 14.8864 7.00058 15.2286 7.02203 15.4912C7.04277 15.7449 7.0792 15.8575 7.11444 15.9267C7.21511 16.1243 7.37574 16.2849 7.57331 16.3856C7.64248 16.4208 7.75506 16.4572 8.00884 16.478C8.27137 16.4994 8.61358 16.5 9.13 16.5H10.87C11.3864 16.5 11.7286 16.4994 11.9912 16.478C12.2449 16.4572 12.3575 16.4208 12.4267 16.3856C12.6243 16.2849 12.7849 16.1243 12.8856 15.9267C12.9208 15.8575 12.9572 15.7449 12.978 15.4912C12.9994 15.2286 13 14.8864 13 14.37L13 12.5H7V13.7479L7 13.75ZM4.50884 12.978C4.74869 12.9976 5.05505 12.9997 5.5 13V11.75C5.5 11.5511 5.57902 11.3603 5.71967 11.2197C5.86032 11.079 6.05109 11 6.25 11H13.75C14.1642 11 14.5 11.3358 14.5 11.75V13C14.945 12.9997 15.2513 12.9976 15.4912 12.978C15.7449 12.9572 15.8575 12.9208 15.9267 12.8856C16.1243 12.7849 16.2849 12.6243 16.3856 12.4267C16.4208 12.3575 16.4572 12.2449 16.478 11.9912C16.4994 11.7286 16.5 11.3864 16.5 10.87V9.13C16.5 8.61358 16.4994 8.27137 16.478 8.00884C16.4572 7.75507 16.4208 7.64248 16.3856 7.57331C16.2849 7.37574 16.1243 7.21511 15.9267 7.11444C15.8575 7.0792 15.7449 7.04277 15.4912 7.02203C15.2286 7.00058 14.8864 7 14.37 7H5.63C5.11358 7 4.77137 7.00058 4.50884 7.02203C4.25507 7.04277 4.14248 7.0792 4.07331 7.11444C3.87574 7.21511 3.71511 7.37574 3.61444 7.57331C3.5792 7.64248 3.54277 7.75507 3.52203 8.00884C3.50058 8.27137 3.5 8.61358 3.5 9.13V10.87C3.5 11.3864 3.50058 11.7286 3.52203 11.9912C3.54277 12.2449 3.5792 12.3575 3.61444 12.4267C3.71511 12.6243 3.87574 12.7849 4.07331 12.8856C4.14248 12.9208 4.25507 12.9572 4.50884 12.978ZM13 5.5C12.9997 5.05505 12.9976 4.74869 12.978 4.50884C12.9572 4.25507 12.9208 4.14248 12.8856 4.07331C12.7849 3.87574 12.6243 3.71511 12.4267 3.61444C12.3575 3.5792 12.2449 3.54277 11.9912 3.52203C11.7286 3.50058 11.3864 3.5 10.87 3.5H9.13C8.61358 3.5 8.27137 3.50058 8.00884 3.52203C7.75507 3.54277 7.64248 3.5792 7.57331 3.61444C7.37574 3.71511 7.21511 3.87574 7.11444 4.07331C7.0792 4.14248 7.04277 4.25507 7.02203 4.50884C7.00244 4.74869 7.00026 5.05505 7.00003 5.5H13Z" fill="#99A2AD"/>
<path fill-rule="evenodd" clip-rule="evenodd" d="M14.2463 9.75C14.6606 9.75 14.9963 9.41421 14.9963 9C14.9963 8.58579 14.6606 8.25 14.2463 8.25C13.8321 8.25 13.4963 8.58579 13.4963 9C13.4963 9.41421 13.8321 9.75 14.2463 9.75Z" fill="#99A2AD"/>
</svg>
