<svg width="20" height="20" viewBox="0 0 20 20" fill="none" xmlns="http://www.w3.org/2000/svg">
<path d="M4.8045 5.023C4.75 5.12996 4.75 5.26997 4.75 5.55V5.7C4.75 5.98003 4.75 6.12004 4.8045 6.227C4.85243 6.32108 4.92892 6.39757 5.023 6.4455C5.12996 6.5 5.26997 6.5 5.55 6.5H5.7C5.98003 6.5 6.12004 6.5 6.227 6.4455C6.32108 6.39757 6.39757 6.32108 6.4455 6.227C6.5 6.12004 6.5 5.98003 6.5 5.7V5.55C6.5 5.26997 6.5 5.12996 6.4455 5.023C6.39757 4.92892 6.32108 4.85243 6.227 4.8045C6.12004 4.75 5.98003 4.75 5.7 4.75H5.55C5.26997 4.75 5.12996 4.75 5.023 4.8045C4.92892 4.85243 4.85243 4.92892 4.8045 5.023Z" fill="#99A2AD"/>
<path fill-rule="evenodd" clip-rule="evenodd" d="M2.21799 3.09202C2 3.51984 2 4.0799 2 5.2V6.05C2 7.1701 2 7.73016 2.21799 8.15798C2.40973 8.53431 2.71569 8.84027 3.09202 9.03201C3.51984 9.25 4.0799 9.25 5.2 9.25H6.05C7.1701 9.25 7.73016 9.25 8.15798 9.03201C8.53431 8.84027 8.84027 8.53431 9.03201 8.15798C9.25 7.73016 9.25 7.1701 9.25 6.05V5.2C9.25 4.0799 9.25 3.51984 9.03201 3.09202C8.84027 2.71569 8.53431 2.40973 8.15798 2.21799C7.73016 2 7.1701 2 6.05 2H5.2C4.0799 2 3.51984 2 3.09202 2.21799C2.71569 2.40973 2.40973 2.71569 2.21799 3.09202ZM6.05 3.5H5.2C4.6152 3.5 4.26681 3.50117 4.00855 3.52227C3.85093 3.53514 3.78468 3.55214 3.76692 3.55765C3.67765 3.60469 3.60469 3.67765 3.55765 3.76692C3.55214 3.78468 3.53514 3.85093 3.52227 4.00855C3.50117 4.26681 3.5 4.6152 3.5 5.2V6.05C3.5 6.6348 3.50117 6.98319 3.52227 7.24145C3.53514 7.39907 3.55214 7.46532 3.55765 7.48308C3.60469 7.57235 3.67765 7.64531 3.76692 7.69235C3.78468 7.69786 3.85093 7.71486 4.00855 7.72773C4.26681 7.74883 4.6152 7.75 5.2 7.75H6.05C6.6348 7.75 6.98319 7.74883 7.24145 7.72773C7.39907 7.71486 7.46532 7.69786 7.48308 7.69235C7.57235 7.64531 7.64531 7.57235 7.69235 7.48308C7.69786 7.46532 7.71486 7.39907 7.72773 7.24145C7.74883 6.98319 7.75 6.6348 7.75 6.05V5.2C7.75 4.6152 7.74883 4.26681 7.72773 4.00855C7.71486 3.85094 7.69786 3.78468 7.69235 3.76693C7.64531 3.67765 7.57235 3.60469 7.48308 3.55765C7.46532 3.55214 7.39907 3.53514 7.24145 3.52227C6.98319 3.50117 6.6348 3.5 6.05 3.5Z" fill="#99A2AD"/>
<path d="M4.75 14.3C4.75 14.02 4.75 13.88 4.8045 13.773C4.85243 13.6789 4.92892 13.6024 5.023 13.5545C5.12996 13.5 5.26997 13.5 5.55 13.5H5.7C5.98003 13.5 6.12004 13.5 6.227 13.5545C6.32108 13.6024 6.39757 13.6789 6.4455 13.773C6.5 13.88 6.5 14.02 6.5 14.3V14.45C6.5 14.73 6.5 14.87 6.4455 14.977C6.39757 15.0711 6.32108 15.1476 6.227 15.1955C6.12004 15.25 5.98003 15.25 5.7 15.25H5.55C5.26997 15.25 5.12996 15.25 5.023 15.1955C4.92892 15.1476 4.85243 15.0711 4.8045 14.977C4.75 14.87 4.75 14.73 4.75 14.45V14.3Z" fill="#99A2AD"/>
<path fill-rule="evenodd" clip-rule="evenodd" d="M2.21799 11.842C2 12.2698 2 12.8299 2 13.95V14.8C2 15.9201 2 16.4802 2.21799 16.908C2.40973 17.2843 2.71569 17.5903 3.09202 17.782C3.51984 18 4.0799 18 5.2 18H6.05C7.1701 18 7.73016 18 8.15798 17.782C8.53431 17.5903 8.84027 17.2843 9.03201 16.908C9.25 16.4802 9.25 15.9201 9.25 14.8V13.95C9.25 12.8299 9.25 12.2698 9.03201 11.842C8.84027 11.4657 8.53431 11.1597 8.15798 10.968C7.73016 10.75 7.1701 10.75 6.05 10.75H5.2C4.0799 10.75 3.51984 10.75 3.09202 10.968C2.71569 11.1597 2.40973 11.4657 2.21799 11.842ZM6.05 12.25H5.2C4.6152 12.25 4.26681 12.2512 4.00855 12.2723C3.85093 12.2851 3.78468 12.3021 3.76692 12.3076C3.67765 12.3547 3.60469 12.4276 3.55765 12.5169C3.55214 12.5347 3.53514 12.6009 3.52227 12.7586C3.50117 13.0168 3.5 13.3652 3.5 13.95V14.8C3.5 15.3848 3.50117 15.7332 3.52227 15.9914C3.53514 16.1491 3.55214 16.2153 3.55765 16.2331C3.60469 16.3224 3.67765 16.3953 3.76692 16.4424C3.78468 16.4479 3.85093 16.4649 4.00855 16.4777C4.26681 16.4988 4.6152 16.5 5.2 16.5H6.05C6.6348 16.5 6.98319 16.4988 7.24145 16.4777C7.39907 16.4649 7.46532 16.4479 7.48308 16.4424C7.57235 16.3953 7.64531 16.3224 7.69235 16.2331C7.69786 16.2153 7.71486 16.1491 7.72773 15.9914C7.74883 15.7332 7.75 15.3848 7.75 14.8V13.95C7.75 13.3652 7.74883 13.0168 7.72773 12.7586C7.71486 12.6009 7.69786 12.5347 7.69235 12.5169C7.64531 12.4276 7.57235 12.3547 7.48308 12.3076C7.46532 12.3021 7.39907 12.2851 7.24145 12.2723C6.98319 12.2512 6.6348 12.25 6.05 12.25Z" fill="#99A2AD"/>
<path d="M13.5545 5.023C13.5 5.12996 13.5 5.26997 13.5 5.55V5.7C13.5 5.98003 13.5 6.12004 13.5545 6.227C13.6024 6.32108 13.6789 6.39757 13.773 6.4455C13.88 6.5 14.02 6.5 14.3 6.5H14.45C14.73 6.5 14.87 6.5 14.977 6.4455C15.0711 6.39757 15.1476 6.32108 15.1955 6.227C15.25 6.12004 15.25 5.98003 15.25 5.7V5.55C15.25 5.26997 15.25 5.12996 15.1955 5.023C15.1476 4.92892 15.0711 4.85243 14.977 4.8045C14.87 4.75 14.73 4.75 14.45 4.75H14.3C14.02 4.75 13.88 4.75 13.773 4.8045C13.6789 4.85243 13.6024 4.92892 13.5545 5.023Z" fill="#99A2AD"/>
<path fill-rule="evenodd" clip-rule="evenodd" d="M10.75 5.2C10.75 4.0799 10.75 3.51984 10.968 3.09202C11.1597 2.71569 11.4657 2.40973 11.842 2.21799C12.2698 2 12.8299 2 13.95 2H14.8C15.9201 2 16.4802 2 16.908 2.21799C17.2843 2.40973 17.5903 2.71569 17.782 3.09202C18 3.51984 18 4.0799 18 5.2V6.05C18 7.1701 18 7.73016 17.782 8.15798C17.5903 8.53431 17.2843 8.84027 16.908 9.03201C16.4802 9.25 15.9201 9.25 14.8 9.25H13.95C12.8299 9.25 12.2698 9.25 11.842 9.03201C11.4657 8.84027 11.1597 8.53431 10.968 8.15798C10.75 7.73016 10.75 7.1701 10.75 6.05V5.2ZM13.95 3.5H14.8C15.3848 3.5 15.7332 3.50117 15.9914 3.52227C16.1491 3.53514 16.2153 3.55214 16.2331 3.55765C16.3224 3.60469 16.3953 3.67765 16.4424 3.76693C16.4479 3.78468 16.4649 3.85094 16.4777 4.00855C16.4988 4.26681 16.5 4.6152 16.5 5.2V6.05C16.5 6.6348 16.4988 6.98319 16.4777 7.24145C16.4649 7.39907 16.4479 7.46532 16.4424 7.48308C16.3953 7.57235 16.3224 7.64531 16.2331 7.69235C16.2153 7.69786 16.1491 7.71486 15.9914 7.72773C15.7332 7.74883 15.3848 7.75 14.8 7.75H13.95C13.3652 7.75 13.0168 7.74883 12.7586 7.72773C12.6009 7.71486 12.5347 7.69786 12.5169 7.69235C12.4276 7.64531 12.3547 7.57235 12.3076 7.48308C12.3021 7.46532 12.2851 7.39907 12.2723 7.24145C12.2512 6.98319 12.25 6.6348 12.25 6.05V5.2C12.25 4.6152 12.2512 4.26681 12.2723 4.00855C12.2851 3.85093 12.3021 3.78468 12.3076 3.76692C12.3547 3.67765 12.4276 3.60469 12.5169 3.55765C12.5347 3.55214 12.6009 3.53514 12.7586 3.52227C13.0168 3.50117 13.3652 3.5 13.95 3.5Z" fill="#99A2AD"/>
<path d="M11.2154 11.4776C11.15 11.606 11.15 11.774 11.15 12.11V12.79C11.15 13.1261 11.15 13.2941 11.2154 13.4224C11.2729 13.5353 11.3647 13.6271 11.4776 13.6846C11.606 13.75 11.774 13.75 12.11 13.75H12.79C13.1261 13.75 13.2941 13.75 13.4224 13.6846C13.5353 13.6271 13.6271 13.5353 13.6846 13.4224C13.75 13.2941 13.75 13.1261 13.75 12.79V12.11C13.75 11.774 13.75 11.606 13.6846 11.4776C13.6271 11.3647 13.5353 11.2729 13.4224 11.2154C13.2941 11.15 13.1261 11.15 12.79 11.15H12.11C11.774 11.15 11.606 11.15 11.4776 11.2154C11.3647 11.2729 11.2729 11.3647 11.2154 11.4776Z" fill="#99A2AD"/>
<path d="M11.15 15.96C11.15 15.624 11.15 15.456 11.2154 15.3276C11.2729 15.2147 11.3647 15.1229 11.4776 15.0654C11.606 15 11.774 15 12.11 15H12.79C13.1261 15 13.2941 15 13.4224 15.0654C13.5353 15.1229 13.6271 15.2147 13.6846 15.3276C13.75 15.456 13.75 15.624 13.75 15.96V16.64C13.75 16.976 13.75 17.144 13.6846 17.2724C13.6271 17.3853 13.5353 17.4771 13.4224 17.5346C13.2941 17.6 13.1261 17.6 12.79 17.6H12.11C11.774 17.6 11.606 17.6 11.4776 17.5346C11.3647 17.4771 11.2729 17.3853 11.2154 17.2724C11.15 17.144 11.15 16.976 11.15 16.64V15.96Z" fill="#99A2AD"/>
<path d="M15.0654 15.3276C15 15.456 15 15.624 15 15.96V16.64C15 16.976 15 17.144 15.0654 17.2724C15.1229 17.3853 15.2147 17.4771 15.3276 17.5346C15.456 17.6 15.624 17.6 15.96 17.6H16.64C16.976 17.6 17.144 17.6 17.2724 17.5346C17.3853 17.4771 17.4771 17.3853 17.5346 17.2724C17.6 17.144 17.6 16.976 17.6 16.64V15.96C17.6 15.624 17.6 15.456 17.5346 15.3276C17.4771 15.2147 17.3853 15.1229 17.2724 15.0654C17.144 15 16.976 15 16.64 15H15.96C15.624 15 15.456 15 15.3276 15.0654C15.2147 15.1229 15.1229 15.2147 15.0654 15.3276Z" fill="#99A2AD"/>
<path d="M15 12.11C15 11.774 15 11.606 15.0654 11.4776C15.1229 11.3647 15.2147 11.2729 15.3276 11.2154C15.456 11.15 15.624 11.15 15.96 11.15H16.64C16.976 11.15 17.144 11.15 17.2724 11.2154C17.3853 11.2729 17.4771 11.3647 17.5346 11.4776C17.6 11.606 17.6 11.774 17.6 12.11V12.79C17.6 13.1261 17.6 13.2941 17.5346 13.4224C17.4771 13.5353 17.3853 13.6271 17.2724 13.6846C17.144 13.75 16.976 13.75 16.64 13.75H15.96C15.624 13.75 15.456 13.75 15.3276 13.6846C15.2147 13.6271 15.1229 13.5353 15.0654 13.4224C15 13.2941 15 13.1261 15 12.79V12.11Z" fill="#99A2AD"/>
</svg>
