<svg width="20" height="20" viewBox="0 0 20 20" fill="none" xmlns="http://www.w3.org/2000/svg">
<path d="M10 1.5C14.6944 1.5 18.5 5.30558 18.5 10C18.5 14.6944 14.6944 18.5 10 18.5C5.30558 18.5 1.5 14.6944 1.5 10C1.5 5.30558 5.30558 1.5 10 1.5ZM10 3C6.13401 3 3 6.13401 3 10C3 13.866 6.13401 17 10 17C13.866 17 17 13.866 17 10C17 6.13401 13.866 3 10 3ZM9.25 6C9.66421 6 10 6.33579 10 6.75V9.9849L12.7692 11.05C13.1558 11.1987 13.3487 11.6326 13.2 12.0192C13.0513 12.4058 12.6174 12.5987 12.2308 12.45L8.98077 11.2C8.69112 11.0886 8.5 10.8103 8.5 10.5V6.75C8.5 6.33579 8.83579 6 9.25 6Z" fill="#99A2AD"/>
</svg>
