<svg width="20" height="20" viewBox="0 0 20 20" fill="none" xmlns="http://www.w3.org/2000/svg">
<path fill-rule="evenodd" clip-rule="evenodd" d="M6.57744 4H13.4226C15.0807 4 15.4429 4.16887 15.7817 4.35043C16.1592 4.55275 16.4471 4.84092 16.6495 5.22012C16.8313 5.56089 17 5.92531 17 7.58756V12.4124C17 14.0747 16.8313 14.4391 16.6495 14.7799C16.4471 15.1591 16.1592 15.4473 15.7817 15.6496C15.4429 15.8311 15.0807 16 13.4226 16H11.0007V15.0876C11.0007 13.3103 10.8205 12.664 10.4735 12.0138C10.1317 11.3734 9.63006 10.8708 8.99092 10.5283C8.34199 10.1806 7.69702 10 5.92329 10H3V7.58756C3 5.92531 3.16867 5.56089 3.35055 5.22013C3.55295 4.84091 3.84076 4.55275 4.21831 4.35043C4.55712 4.16887 4.91935 4 6.57744 4ZM3 11.5V12.4124C3 14.0747 3.16867 14.4391 3.35055 14.7799C3.55295 15.1591 3.84076 15.4473 4.21831 15.6496C4.55712 15.8311 4.91934 16 6.57744 16H9.50073V15.0876C9.50073 13.4253 9.33206 13.0609 9.15018 12.7201C8.94778 12.3409 8.65998 12.0527 8.28242 11.8504C7.94361 11.6689 7.58139 11.5 5.92329 11.5H3ZM13.4226 2.5H6.57744C4.80372 2.5 4.15874 2.68056 3.50981 3.0283C2.87067 3.3708 2.36906 3.8734 2.02725 4.51382C1.6802 5.16404 1.5 5.8103 1.5 7.58756V12.4124C1.5 14.1897 1.6802 14.836 2.02725 15.4862C2.36906 16.1266 2.87067 16.6292 3.50981 16.9717C4.15874 17.3194 4.80372 17.5 6.57744 17.5H13.4226C15.1963 17.5 15.8413 17.3194 16.4902 16.9717C17.1293 16.6292 17.6309 16.1266 17.9728 15.4862C18.3198 14.836 18.5 14.1897 18.5 12.4124V7.58756C18.5 5.8103 18.3198 5.16404 17.9728 4.51382C17.6309 3.8734 17.1293 3.3708 16.4902 3.0283C15.8413 2.68056 15.1963 2.5 13.4226 2.5Z" fill="#99A2AD"/>
</svg>
