<svg width="20" height="20" viewBox="0 0 20 20" fill="none" xmlns="http://www.w3.org/2000/svg">
<path fill-rule="evenodd" clip-rule="evenodd" d="M11.1 3H8.9C7.75514 3 6.98671 3.00117 6.39496 3.04952C5.82071 3.09643 5.54615 3.1802 5.36502 3.27248C4.89462 3.51217 4.51217 3.89462 4.27248 4.36502C4.1802 4.54615 4.09643 4.82071 4.04952 5.39496C4.00117 5.98671 4 6.75514 4 7.9V12.1C4 13.2449 4.00117 14.0133 4.04952 14.605C4.09643 15.1793 4.1802 15.4539 4.27248 15.635C4.51217 16.1054 4.89462 16.4878 5.36502 16.7275C5.54615 16.8198 5.82071 16.9036 6.39496 16.9505C6.98671 16.9988 7.75514 17 8.9 17H11.1C12.2449 17 13.0133 16.9988 13.605 16.9505C14.1793 16.9036 14.4539 16.8198 14.635 16.7275C15.1054 16.4878 15.4878 16.1054 15.7275 15.635C15.8198 15.4539 15.9036 15.1793 15.9505 14.605C15.9988 14.0133 16 13.2449 16 12.1V7.9C16 6.75514 15.9988 5.98671 15.9505 5.39496C15.9036 4.82071 15.8198 4.54615 15.7275 4.36502C15.4878 3.89462 15.1054 3.51217 14.635 3.27248C14.4539 3.1802 14.1793 3.09643 13.605 3.04952C13.0133 3.00117 12.2449 3 11.1 3ZM2.93597 3.68404C2.5 4.53969 2.5 5.65979 2.5 7.9V12.1C2.5 14.3402 2.5 15.4603 2.93597 16.316C3.31947 17.0686 3.93139 17.6805 4.68404 18.064C5.53969 18.5 6.65979 18.5 8.9 18.5H11.1C13.3402 18.5 14.4603 18.5 15.316 18.064C16.0686 17.6805 16.6805 17.0686 17.064 16.316C17.5 15.4603 17.5 14.3402 17.5 12.1V7.9C17.5 5.65979 17.5 4.53969 17.064 3.68404C16.6805 2.93139 16.0686 2.31947 15.316 1.93597C14.4603 1.5 13.3402 1.5 11.1 1.5H8.9C6.65979 1.5 5.53969 1.5 4.68404 1.93597C3.93139 2.31947 3.31947 2.93139 2.93597 3.68404Z" fill="#99A2AD"/>
<path d="M12 7C12 8.10457 11.1046 9 10 9C8.89543 9 8 8.10457 8 7C8 5.89543 8.89543 5 10 5C11.1046 5 12 5.89543 12 7Z" fill="#99A2AD"/>
<path d="M6 11.25C6 10.8358 6.33579 10.5 6.75 10.5H13.25C13.6642 10.5 14 10.8358 14 11.25C14 11.6642 13.6642 12 13.25 12H6.75C6.33579 12 6 11.6642 6 11.25Z" fill="#99A2AD"/>
<path d="M6 14.25C6 13.8358 6.33579 13.5 6.75 13.5H13.25C13.6642 13.5 14 13.8358 14 14.25C14 14.6642 13.6642 15 13.25 15H6.75C6.33579 15 6 14.6642 6 14.25Z" fill="#99A2AD"/>
</svg>
