<svg width="20" height="20" viewBox="0 0 20 20" fill="none" xmlns="http://www.w3.org/2000/svg">
<path fill-rule="evenodd" clip-rule="evenodd" d="M10.2438 4.75263C10.2438 4.54383 10.0046 4.42816 9.84144 4.55516L3.10037 9.80181C2.97176 9.90191 2.97177 10.0967 3.10039 10.1968L9.84663 15.446C10.0098 15.573 10.249 15.4573 10.249 15.2485V12.1129C10.249 11.6987 10.5848 11.3629 10.999 11.3629C13.4551 11.3629 15.3409 12.2762 16.8311 13.56C16.565 12.1057 16.0066 10.9828 15.2605 10.1339C14.1951 8.92192 12.68 8.1925 10.876 7.90558C10.5118 7.84766 10.2438 7.53362 10.2438 7.16489V4.75263ZM8.92014 3.37144C10.0699 2.47658 11.7438 3.29709 11.7438 4.75263V6.54291C13.5537 6.93658 15.1782 7.76837 16.3871 9.14363C17.7387 10.6812 18.5039 12.8223 18.5039 15.588C18.5039 15.9047 18.3051 16.1872 18.0071 16.294C17.709 16.4009 17.376 16.3091 17.1748 16.0646C15.813 14.4097 14.1162 13.123 11.749 12.8979V15.2485C11.749 16.704 10.0753 17.5245 8.92548 16.6299L2.17924 11.3806C1.27889 10.68 1.2788 9.31877 2.17907 8.61809L8.92014 3.37144Z" fill="#99A2AD"/>
</svg>
