<svg width="20" height="20" viewBox="0 0 20 20" fill="none" xmlns="http://www.w3.org/2000/svg">
<path d="M10.0014 5.50005C9.58719 5.50005 9.25141 5.83584 9.25141 6.25005V10.7501C9.25141 11.1643 9.58719 11.5001 10.0014 11.5001C10.4156 11.5001 10.7514 11.1643 10.7514 10.7501V6.25005C10.7514 5.83584 10.4156 5.50005 10.0014 5.50005Z" fill="#99A2AD"/>
<path d="M9.10138 13.9001C9.10138 13.403 9.50433 13.0001 10.0014 13.0001C10.4984 13.0001 10.9014 13.403 10.9014 13.9001C10.9014 14.3971 10.4984 14.8001 10.0014 14.8001C9.50433 14.8001 9.10138 14.3971 9.10138 13.9001Z" fill="#99A2AD"/>
<path fill-rule="evenodd" clip-rule="evenodd" d="M17.326 14.8144L14.8124 17.3282C14.38 17.7607 14.1638 17.9769 13.9115 18.1315C13.6878 18.2686 13.4439 18.3696 13.1888 18.4309C12.9011 18.5 12.5953 18.5 11.9839 18.5L8.01316 18.5C7.40153 18.5 7.09568 18.5 6.8079 18.4309C6.55274 18.3696 6.30882 18.2685 6.0851 18.1314C5.83277 17.9767 5.61656 17.7604 5.18415 17.3278L2.67144 14.8141C2.23934 14.3818 2.02329 14.1657 1.86877 13.9135C1.73178 13.6899 1.63082 13.4461 1.5696 13.1911C1.50055 12.9035 1.50051 12.5979 1.50045 11.9867L1.5 8.0144C1.49994 7.40277 1.4999 7.09696 1.56898 6.80917C1.63022 6.55402 1.73125 6.31009 1.86835 6.08636C2.023 5.83402 2.23926 5.61779 2.67177 5.18533L5.18607 2.67138C5.61844 2.23907 5.83463 2.02291 6.08691 1.86833C6.31057 1.73128 6.55442 1.63029 6.80949 1.56906C7.09719 1.49999 7.4029 1.5 8.01433 1.5L11.9838 1.50002C12.5953 1.50003 12.9011 1.50003 13.1888 1.56911C13.4439 1.63036 13.6878 1.73139 13.9115 1.86847C14.1638 2.0231 14.38 2.23931 14.8124 2.67173L17.3259 5.18557C17.7583 5.61794 17.9744 5.83413 18.129 6.08641C18.2661 6.31008 18.3671 6.55393 18.4283 6.80901C18.4974 7.09671 18.4974 7.40243 18.4974 8.01386V11.9861C18.4974 12.5975 18.4974 12.9032 18.4283 13.1909C18.3671 13.446 18.2661 13.6899 18.129 13.9135C17.9745 14.1658 17.7583 14.382 17.326 14.8144ZM16.8518 13.1083C16.79 13.2092 16.7035 13.2957 16.5306 13.4686L13.4678 16.5314C13.2949 16.7043 13.2084 16.7908 13.1075 16.8526C13.018 16.9075 12.9205 16.9479 12.8184 16.9724C12.7033 17 12.581 17 12.3365 17L7.66209 17C7.41744 17 7.29512 17 7.18001 16.9724C7.07795 16.9479 6.98039 16.9074 6.89091 16.8526C6.78998 16.7907 6.7035 16.7042 6.53054 16.5312L3.46875 13.4684C3.29592 13.2956 3.2095 13.2091 3.14769 13.1082C3.09289 13.0188 3.05251 12.9213 3.02801 12.8193C3.00038 12.7043 3.00036 12.5821 3.00031 12.3376L2.99933 7.6631C2.99928 7.41838 2.99925 7.29602 3.02689 7.18087C3.05139 7.07878 3.09181 6.98118 3.14667 6.89167C3.20855 6.79071 3.29509 6.7042 3.46817 6.53119L6.53207 3.46842C6.70501 3.29554 6.79148 3.2091 6.89239 3.14728C6.98185 3.09248 7.07937 3.05209 7.18139 3.02761C7.29645 2.99999 7.41872 2.99999 7.66325 3L12.3365 3.00004C12.5811 3.00004 12.7033 3.00004 12.8184 3.02767C12.9205 3.05217 13.018 3.09257 13.1075 3.1474C13.2084 3.20924 13.2949 3.29571 13.4678 3.46866L16.5306 6.53136C16.7035 6.70431 16.79 6.79079 16.8518 6.89171C16.9067 6.98118 16.9471 7.07872 16.9716 7.18076C16.9992 7.29585 16.9992 7.41815 16.9992 7.66274V12.3372C16.9992 12.5818 16.9992 12.7041 16.9716 12.8192C16.9471 12.9213 16.9067 13.0188 16.8518 13.1083Z" fill="#99A2AD"/>
</svg>
