<svg width="20" height="20" viewBox="0 0 20 20" fill="none" xmlns="http://www.w3.org/2000/svg">
<path fill-rule="evenodd" clip-rule="evenodd" d="M9.2 9.5H6.8C5.93517 9.5 5.37676 9.50117 4.95175 9.53589C4.54426 9.56918 4.39318 9.6257 4.31901 9.66349C4.03677 9.8073 3.8073 10.0368 3.66349 10.319C3.6257 10.3932 3.56918 10.5443 3.53589 10.9518C3.50117 11.3768 3.5 11.9352 3.5 12.8V13.2C3.5 14.0648 3.50117 14.6232 3.53589 15.0482C3.56918 15.4557 3.6257 15.6068 3.66349 15.681C3.8073 15.9632 4.03677 16.1927 4.31901 16.3365C4.39318 16.3743 4.54426 16.4308 4.95175 16.4641C5.37676 16.4988 5.93517 16.5 6.8 16.5H9.2C10.0648 16.5 10.6232 16.4988 11.0482 16.4641C11.4557 16.4308 11.6068 16.3743 11.681 16.3365C11.9632 16.1927 12.1927 15.9632 12.3365 15.681C12.3743 15.6068 12.4308 15.4557 12.4641 15.0482C12.4988 14.6232 12.5 14.0648 12.5 13.2V12.8C12.5 11.9352 12.4988 11.3768 12.4641 10.9518C12.4308 10.5443 12.3743 10.3932 12.3365 10.319C12.1927 10.0368 11.9632 9.8073 11.681 9.66349C11.6068 9.6257 11.4557 9.56918 11.0482 9.53589C10.6232 9.50117 10.0648 9.5 9.2 9.5ZM2.32698 9.63803C2 10.2798 2 11.1198 2 12.8V13.2C2 14.8802 2 15.7202 2.32698 16.362C2.6146 16.9265 3.07354 17.3854 3.63803 17.673C4.27976 18 5.11984 18 6.8 18H9.2C10.8802 18 11.7202 18 12.362 17.673C12.9265 17.3854 13.3854 16.9265 13.673 16.362C14 15.7202 14 14.8802 14 13.2V12.8C14 11.1198 14 10.2798 13.673 9.63803C13.3854 9.07354 12.9265 8.6146 12.362 8.32698C11.7202 8 10.8802 8 9.2 8H6.8C5.11984 8 4.27976 8 3.63803 8.32698C3.07354 8.6146 2.6146 9.07354 2.32698 9.63803Z" fill="#99A2AD"/>
<path fill-rule="evenodd" clip-rule="evenodd" d="M13.5303 1.96967C13.8232 2.26256 13.8232 2.73744 13.5303 3.03033L12.8107 3.75H13C15.6234 3.75 17.75 5.87665 17.75 8.5V11C17.75 11.4142 17.4142 11.75 17 11.75C16.5858 11.75 16.25 11.4142 16.25 11V8.5C16.25 6.70507 14.7949 5.25 13 5.25H12.8107L13.5303 5.96967C13.8232 6.26256 13.8232 6.73744 13.5303 7.03033C13.2374 7.32322 12.7626 7.32322 12.4697 7.03033L10.4697 5.03033C10.1768 4.73744 10.1768 4.26256 10.4697 3.96967L12.4697 1.96967C12.7626 1.67678 13.2374 1.67678 13.5303 1.96967Z" fill="#99A2AD"/>
</svg>
