<svg width="20" height="20" viewBox="0 0 20 20" fill="none" xmlns="http://www.w3.org/2000/svg">
<path fill-rule="evenodd" clip-rule="evenodd" d="M13.2 9.5H10.8C9.93517 9.5 9.37676 9.50117 8.95175 9.53589C8.54426 9.56918 8.39318 9.6257 8.31901 9.66349C8.03677 9.8073 7.8073 10.0368 7.66349 10.319C7.6257 10.3932 7.56918 10.5443 7.53589 10.9518C7.50117 11.3768 7.5 11.9352 7.5 12.8V13.2C7.5 14.0648 7.50117 14.6232 7.53589 15.0482C7.56918 15.4557 7.6257 15.6068 7.66349 15.681C7.8073 15.9632 8.03677 16.1927 8.31901 16.3365C8.39318 16.3743 8.54426 16.4308 8.95175 16.4641C9.37676 16.4988 9.93517 16.5 10.8 16.5H13.2C14.0648 16.5 14.6232 16.4988 15.0482 16.4641C15.4557 16.4308 15.6068 16.3743 15.681 16.3365C15.9632 16.1927 16.1927 15.9632 16.3365 15.681C16.3743 15.6068 16.4308 15.4557 16.4641 15.0482C16.4988 14.6232 16.5 14.0648 16.5 13.2V12.8C16.5 11.9352 16.4988 11.3768 16.4641 10.9518C16.4308 10.5443 16.3743 10.3932 16.3365 10.319C16.1927 10.0368 15.9632 9.8073 15.681 9.66349C15.6068 9.6257 15.4557 9.56918 15.0482 9.53589C14.6232 9.50117 14.0648 9.5 13.2 9.5ZM6.32698 9.63803C6 10.2798 6 11.1198 6 12.8V13.2C6 14.8802 6 15.7202 6.32698 16.362C6.6146 16.9265 7.07354 17.3854 7.63803 17.673C8.27976 18 9.11984 18 10.8 18H13.2C14.8802 18 15.7202 18 16.362 17.673C16.9265 17.3854 17.3854 16.9265 17.673 16.362C18 15.7202 18 14.8802 18 13.2V12.8C18 11.1198 18 10.2798 17.673 9.63803C17.3854 9.07354 16.9265 8.6146 16.362 8.32698C15.7202 8 14.8802 8 13.2 8H10.8C9.11984 8 8.27976 8 7.63803 8.32698C7.07354 8.6146 6.6146 9.07354 6.32698 9.63803Z" fill="#99A2AD"/>
<path fill-rule="evenodd" clip-rule="evenodd" d="M6.46967 1.96967C6.76256 1.67678 7.23744 1.67678 7.53033 1.96967L9.53033 3.96967C9.82322 4.26256 9.82322 4.73744 9.53033 5.03033L7.53033 7.03033C7.23744 7.32322 6.76256 7.32322 6.46967 7.03033C6.17678 6.73744 6.17678 6.26256 6.46967 5.96967L7.18934 5.25H7C5.20507 5.25 3.75 6.70507 3.75 8.5V11C3.75 11.4142 3.41421 11.75 3 11.75C2.58579 11.75 2.25 11.4142 2.25 11V8.5C2.25 5.87665 4.37665 3.75 7 3.75H7.18934L6.46967 3.03033C6.17678 2.73744 6.17678 2.26256 6.46967 1.96967Z" fill="#99A2AD"/>
</svg>
