<svg width="20" height="20" viewBox="0 0 20 20" fill="none" xmlns="http://www.w3.org/2000/svg">
<path fill-rule="evenodd" clip-rule="evenodd" d="M6.00006 2.75C6.00006 2.33579 6.33585 2 6.75006 2H11.7501C14.3734 2 16.5001 4.12665 16.5001 6.75C16.5001 9.37335 14.3734 11.5 11.7501 11.5L7.50006 11.5V13.5L10.2501 13.5C10.6643 13.5 11.0001 13.8358 11.0001 14.25C11.0001 14.6642 10.6643 15 10.2501 15L7.50006 15V17.25C7.50006 17.6642 7.16427 18 6.75006 18C6.33585 18 6.00006 17.6642 6.00006 17.25V15L4.25006 15C3.83585 15 3.50006 14.6642 3.50006 14.25C3.50006 13.8358 3.83585 13.5 4.25006 13.5L6.00006 13.5V11.5L4.25006 11.5C3.83585 11.5 3.50006 11.1642 3.50006 10.75C3.50006 10.3358 3.83585 10 4.25006 10L6.00006 10V2.75ZM7.50006 3.5V10C7.7507 10 8.00134 9.99944 8.25197 10H11.7501C13.545 10 15.0001 8.54493 15.0001 6.75C15.0001 4.95507 13.545 3.5 11.7501 3.5H7.50006Z" fill="#99A2AD"/>
</svg>
