<svg width="20" height="20" viewBox="0 0 20 20" fill="none" xmlns="http://www.w3.org/2000/svg">
<path fill-rule="evenodd" clip-rule="evenodd" d="M2 4.74548C2 3.2267 3.23122 1.99548 4.75 1.99548H5.25C5.66421 1.99548 6 2.33127 6 2.74548C6 3.1597 5.66421 3.49548 5.25 3.49548H4.75C4.05964 3.49548 3.5 4.05513 3.5 4.74548V5.24548C3.5 5.6597 3.16421 5.99548 2.75 5.99548C2.33579 5.99548 2 5.6597 2 5.24548V4.74548ZM14 2.75C14 2.33579 14.3358 2 14.75 2L15.25 2C16.7688 2 18 3.23122 18 4.75V5.25C18 5.66421 17.6642 6 17.25 6C16.8358 6 16.5 5.66421 16.5 5.25V4.75C16.5 4.05964 15.9404 3.5 15.25 3.5H14.75C14.3358 3.5 14 3.16421 14 2.75ZM8.12111 5H11.8789C12.2743 4.99999 12.6154 4.99997 12.8963 5.02293C13.1928 5.04715 13.4877 5.10064 13.7715 5.24524C14.1949 5.46095 14.5391 5.80516 14.7548 6.22852C14.8994 6.51231 14.9529 6.80722 14.9771 7.10373C14.9977 7.35556 14.9998 7.65572 15 8H16.25C16.6642 8 17 8.33579 17 8.75C17 9.16421 16.6642 9.5 16.25 9.5H3.75002C3.33581 9.5 3.00002 9.16421 3.00002 8.75C3.00002 8.33579 3.33581 8 3.75002 8H5.00005C5.00025 7.65572 5.00238 7.35556 5.02295 7.10373C5.04718 6.80722 5.10066 6.51231 5.24526 6.22852C5.46098 5.80516 5.80518 5.46095 6.22855 5.24524C6.51233 5.10064 6.80725 5.04715 7.10375 5.02293C7.38468 4.99997 7.72575 4.99999 8.12111 5ZM6.50008 8H13.5C13.4996 7.65117 13.4973 7.41274 13.4821 7.22588C13.4654 7.02213 13.4372 6.94659 13.4183 6.90951C13.3464 6.76839 13.2316 6.65365 13.0905 6.58175C13.0534 6.56285 12.9779 6.53459 12.7741 6.51795C12.5616 6.50058 12.2824 6.5 11.85 6.5H8.15002C7.71761 6.5 7.4384 6.50058 7.2259 6.51795C7.02215 6.53459 6.94661 6.56285 6.90953 6.58175C6.76841 6.65365 6.65368 6.76839 6.58177 6.90951C6.56288 6.94659 6.53462 7.02213 6.51797 7.22588C6.5027 7.41274 6.50041 7.65117 6.50008 8ZM5.75002 11C6.16424 11 6.50002 11.3358 6.50002 11.75V11.85C6.50002 12.2824 6.50061 12.5616 6.51797 12.7741C6.53462 12.9779 6.56288 13.0534 6.58177 13.0905C6.65368 13.2316 6.76841 13.3463 6.90953 13.4183C6.94661 13.4372 7.02215 13.4654 7.2259 13.4821C7.4384 13.4994 7.71761 13.5 8.15002 13.5H11.85C12.2824 13.5 12.5616 13.4994 12.7741 13.4821C12.9779 13.4654 13.0534 13.4372 13.0905 13.4183C13.2316 13.3463 13.3464 13.2316 13.4183 13.0905C13.4372 13.0534 13.4654 12.9779 13.4821 12.7741C13.4994 12.5616 13.5 12.2824 13.5 11.85V11.75C13.5 11.3358 13.8358 11 14.25 11C14.6642 11 15 11.3358 15 11.75V11.8789C15 12.2743 15.0001 12.6153 14.9771 12.8963C14.9529 13.1928 14.8994 13.4877 14.7548 13.7715C14.5391 14.1948 14.1949 14.539 13.7715 14.7548C13.4877 14.8994 13.1928 14.9528 12.8963 14.9771C12.6154 15 12.2743 15 11.8789 15H8.1211C7.72574 15 7.38468 15 7.10375 14.9771C6.80724 14.9528 6.51233 14.8994 6.22855 14.7548C5.80518 14.539 5.46098 14.1948 5.24526 13.7715C5.10066 13.4877 5.04718 13.1928 5.02295 12.8963C5 12.6153 5.00001 12.2743 5.00002 11.8789L5.00002 11.75C5.00002 11.3358 5.33581 11 5.75002 11ZM2.75 14C3.16421 14 3.5 14.3358 3.5 14.75V15.25C3.5 15.9404 4.05964 16.5 4.75 16.5H5.25C5.66421 16.5 6 16.8358 6 17.25C6 17.6642 5.66421 18 5.25 18H4.75C3.23122 18 2 16.7688 2 15.25V14.75C2 14.3358 2.33579 14 2.75 14ZM17.25 14C17.6642 14 18 14.3358 18 14.75V15.25C18 16.7688 16.7688 18 15.25 18H14.75C14.3358 18 14 17.6642 14 17.25C14 16.8358 14.3358 16.5 14.75 16.5H15.25C15.9404 16.5 16.5 15.9404 16.5 15.25V14.75C16.5 14.3358 16.8358 14 17.25 14Z" fill="#99A2AD"/>
</svg>
