<svg width="20" height="20" viewBox="0 0 20 20" fill="none" xmlns="http://www.w3.org/2000/svg">
<path fill-rule="evenodd" clip-rule="evenodd" d="M9.5 4.5C6.73858 4.5 4.5 6.73858 4.5 9.5C4.5 12.2614 6.73858 14.5 9.5 14.5C12.2614 14.5 14.5 12.2614 14.5 9.5C14.5 6.73858 12.2614 4.5 9.5 4.5ZM3 9.5C3 5.91015 5.91015 3 9.5 3C13.0899 3 16 5.91015 16 9.5C16 11.0247 15.475 12.4268 14.596 13.5353L17.7803 16.7197C18.0732 17.0126 18.0732 17.4874 17.7803 17.7803C17.4874 18.0732 17.0126 18.0732 16.7197 17.7803L13.5353 14.596C12.4268 15.475 11.0247 16 9.5 16C5.91015 16 3 13.0899 3 9.5Z" fill="#99A2AD"/>
</svg>
