<svg width="20" height="20" viewBox="0 0 20 20" fill="none" xmlns="http://www.w3.org/2000/svg">
<path fill-rule="evenodd" clip-rule="evenodd" d="M11.7572 7.70693L11.7572 7.70691L11.7572 7.7069L11.7571 7.70689C11.4776 7.42736 11.2364 7.18621 11.054 6.97135C10.8615 6.74456 10.6908 6.4982 10.5924 6.19529C10.4455 5.74339 10.4455 5.25661 10.5924 4.80472C10.6908 4.5018 10.8615 4.25545 11.054 4.02865C11.2365 3.81378 11.4981 3.55218 11.7776 3.27263L11.7776 3.27262L11.7777 3.27262L12.0251 3.02513L12.2726 2.77764L12.2726 2.77764C12.5522 2.49807 12.8138 2.23645 13.0287 2.05403C13.2555 1.8615 13.5018 1.69078 13.8047 1.59236C14.2566 1.44553 14.7434 1.44553 15.1953 1.59236C15.4982 1.69078 15.7446 1.8615 15.9714 2.05403C16.1862 2.23642 16.4273 2.47755 16.7068 2.75706L16.7069 2.75711L16.7069 2.75717L16.7069 2.75718L16.707 2.7572L16.9749 3.02513L17.2428 3.29306L17.2428 3.29308L17.2428 3.29309L17.2429 3.29312L17.2429 3.29315C17.5224 3.57266 17.7636 3.8138 17.946 4.02865C18.1385 4.25545 18.3092 4.5018 18.4077 4.80472C18.5545 5.25661 18.5545 5.74339 18.4077 6.19529C18.3092 6.4982 18.1385 6.74456 17.946 6.97135C17.7636 7.18623 17.5019 7.44784 17.2224 7.72739L16.9749 7.97488L16.7274 8.22236C16.4478 8.50194 16.1862 8.76356 15.9714 8.94598C15.7446 9.13851 15.4982 9.30922 15.1953 9.40765C14.7434 9.55448 14.2566 9.55448 13.8047 9.40765C13.5018 9.30922 13.2555 9.13851 13.0287 8.94598C12.8138 8.76357 12.5726 8.5224 12.2931 8.24284L12.2931 8.24283L12.2931 8.24281L12.0251 7.97488L11.7572 7.70695L11.7572 7.70693ZM16.1617 6.66673L15.9142 6.91422L15.6667 7.1617C15.361 7.46747 15.1631 7.66448 15.0006 7.80247C14.8448 7.93477 14.7714 7.9682 14.7318 7.98106C14.5811 8.03 14.4189 8.03 14.2682 7.98106C14.2287 7.9682 14.1553 7.93477 13.9994 7.80247C13.8369 7.66448 13.639 7.46747 13.3333 7.1617L13.0858 6.91422L12.8383 6.66673C12.5325 6.36097 12.3355 6.16313 12.1975 6.00059C12.0652 5.84474 12.0318 5.77135 12.019 5.73177C11.97 5.58113 11.97 5.41887 12.019 5.26824C12.0318 5.22866 12.0652 5.15526 12.1975 4.99942C12.3355 4.83688 12.5325 4.63904 12.8383 4.33328L13.0858 4.08579L13.3333 3.8383C13.639 3.53254 13.8369 3.33553 13.9994 3.19754C14.1553 3.06524 14.2287 3.03181 14.2682 3.01895C14.4189 2.97 14.5811 2.97 14.7318 3.01895C14.7714 3.03181 14.8448 3.06524 15.0006 3.19754C15.1631 3.33553 15.361 3.53254 15.6667 3.8383L15.9142 4.08579L16.1617 4.33328C16.4675 4.63904 16.6645 4.83688 16.8025 4.99942C16.9348 5.15526 16.9682 5.22866 16.9811 5.26824C17.03 5.41887 17.03 5.58113 16.9811 5.73177C16.9682 5.77135 16.9348 5.84474 16.8025 6.00059C16.6645 6.16313 16.4675 6.36097 16.1617 6.66673ZM11 14.1211V14.121C11 13.7257 11 13.3847 11.0229 13.1037C11.0472 12.8072 11.1006 12.5123 11.2452 12.2285C11.461 11.8052 11.8052 11.461 12.2285 11.2452C12.5123 11.1006 12.8072 11.0472 13.1037 11.0229C13.3847 11 13.7546 11 14.15 11H14.15H14.5H14.85H14.85C15.2454 11 15.6153 11 15.8963 11.0229C16.1928 11.0472 16.4877 11.1006 16.7715 11.2452C17.1948 11.461 17.5391 11.8052 17.7548 12.2285C17.8994 12.5123 17.9528 12.8072 17.9771 13.1037C18 13.3846 18 13.7257 18 14.121V14.1211V14.1211V14.5V14.8789V14.8789V14.879C18 15.2743 18 15.6154 17.9771 15.8963C17.9528 16.1928 17.8994 16.4877 17.7548 16.7715C17.5391 17.1948 17.1948 17.5391 16.7715 17.7548C16.4877 17.8994 16.1928 17.9529 15.8963 17.9771C15.6154 18 15.2454 18 14.8501 18H14.8501H14.85H14.85H14.5H14.15H14.15H14.1499H14.1499C13.7546 18 13.3846 18 13.1037 17.9771C12.8072 17.9529 12.5123 17.8994 12.2285 17.7548C11.8052 17.5391 11.461 17.1948 11.2452 16.7715C11.1006 16.4877 11.0472 16.1928 11.0229 15.8963C11 15.6154 11 15.2743 11 14.879V14.8789V14.8789V14.5V14.1211V14.1211ZM14.85 16.5L14.5 16.5L14.15 16.5C13.7176 16.5 13.4384 16.4994 13.2259 16.4821C13.0221 16.4654 12.9466 16.4372 12.9095 16.4183C12.7684 16.3464 12.6537 16.2316 12.5817 16.0905C12.5629 16.0534 12.5346 15.9779 12.5179 15.7741C12.5006 15.5616 12.5 15.2824 12.5 14.85L12.5 14.5L12.5 14.15C12.5 13.7176 12.5006 13.4384 12.5179 13.2259C12.5346 13.0221 12.5629 12.9466 12.5817 12.9095C12.6537 12.7684 12.7684 12.6537 12.9095 12.5818C12.9466 12.5629 13.0221 12.5346 13.2259 12.518C13.4384 12.5006 13.7176 12.5 14.15 12.5L14.5 12.5L14.85 12.5C15.2824 12.5 15.5616 12.5006 15.7741 12.518C15.9779 12.5346 16.0534 12.5629 16.0905 12.5818C16.2316 12.6537 16.3464 12.7684 16.4183 12.9095C16.4372 12.9466 16.4654 13.0221 16.4821 13.2259C16.4994 13.4384 16.5 13.7176 16.5 14.15L16.5 14.5L16.5 14.85C16.5 15.2824 16.4994 15.5616 16.4821 15.7741C16.4654 15.9779 16.4372 16.0534 16.4183 16.0905C16.3464 16.2316 16.2316 16.3464 16.0905 16.4183C16.0534 16.4372 15.9779 16.4654 15.7741 16.4821C15.5616 16.4994 15.2824 16.5 14.85 16.5ZM2 5.12104V5.12107V5.1211V5.5V5.87891V5.87894V5.87897V5.87899C1.99999 6.27432 1.99998 6.61537 2.02293 6.89627C2.04716 7.19278 2.10064 7.4877 2.24524 7.77148C2.46095 8.19485 2.80516 8.53905 3.22852 8.75477C3.51231 8.89936 3.80722 8.95285 4.10373 8.97708C4.38466 9.00003 4.75464 9.00002 5.15 9H5.5H5.85C6.24536 9.00002 6.61534 9.00003 6.89627 8.97708C7.19278 8.95285 7.48769 8.89936 7.77148 8.75477C8.19484 8.53905 8.53905 8.19485 8.75476 7.77148C8.89936 7.4877 8.95285 7.19278 8.97707 6.89627C9.00003 6.61535 9.00001 6.27429 9 5.87894V5.87891V5.5V5.1211V5.12107C9.00001 4.72572 9.00003 4.38466 8.97707 4.10373C8.95285 3.80723 8.89936 3.51231 8.75476 3.22853C8.53905 2.80516 8.19484 2.46096 7.77148 2.24524C7.48769 2.10065 7.19278 2.04716 6.89627 2.02293C6.61535 1.99998 6.24537 1.99999 5.85001 2H5.85001H5.85H5.5H5.15H5.14999H5.14999C4.75463 1.99999 4.38466 1.99998 4.10373 2.02293C3.80722 2.04716 3.51231 2.10065 3.22852 2.24524C2.80516 2.46096 2.46095 2.80516 2.24524 3.22853C2.10064 3.51231 2.04716 3.80723 2.02293 4.10373C1.99998 4.38464 1.99999 4.72569 2 5.12101V5.12104ZM5.5 7.5L5.85 7.5C6.28242 7.5 6.56162 7.49942 6.77412 7.48206C6.97787 7.46541 7.05341 7.43715 7.09049 7.41826C7.23161 7.34635 7.34635 7.23162 7.41825 7.0905C7.43715 7.05341 7.46541 6.97787 7.48205 6.77413C7.49942 6.56162 7.5 6.28242 7.5 5.85L7.5 5.5L7.5 5.15001C7.5 4.71759 7.49942 4.43839 7.48205 4.22588C7.46541 4.02214 7.43715 3.9466 7.41825 3.90951C7.34635 3.76839 7.23161 3.65366 7.09049 3.58175C7.05341 3.56286 6.97787 3.5346 6.77412 3.51795C6.56162 3.50059 6.28242 3.50001 5.85 3.50001L5.5 3.5L5.15 3.50001C4.71759 3.50001 4.43838 3.50059 4.22588 3.51795C4.02213 3.5346 3.94659 3.56286 3.90951 3.58175C3.76839 3.65366 3.65365 3.76839 3.58175 3.90951C3.56285 3.9466 3.5346 4.02214 3.51795 4.22588C3.50059 4.43839 3.5 4.71759 3.5 5.15001L3.5 5.5L3.5 5.85C3.5 6.28242 3.50059 6.56162 3.51795 6.77413C3.5346 6.97787 3.56285 7.05341 3.58175 7.0905C3.65365 7.23162 3.76839 7.34635 3.90951 7.41826C3.94659 7.43715 4.02213 7.46541 4.22588 7.48206C4.43838 7.49942 4.71759 7.5 5.15 7.5L5.5 7.5ZM2 14.1211V14.121V14.121C1.99999 13.7257 1.99998 13.3846 2.02293 13.1037C2.04716 12.8072 2.10064 12.5123 2.24524 12.2285C2.46095 11.8052 2.80516 11.461 3.22852 11.2452C3.51231 11.1006 3.80722 11.0472 4.10373 11.0229C4.38466 11 4.75464 11 5.14999 11H5.15H5.5H5.85H5.85001C6.24537 11 6.61534 11 6.89627 11.0229C7.19278 11.0472 7.48769 11.1006 7.77148 11.2452C8.19484 11.461 8.53905 11.8052 8.75476 12.2285C8.89936 12.5123 8.95285 12.8072 8.97707 13.1037C9.00003 13.3847 9.00001 13.7257 9 14.1211V14.1211V14.5V14.8789V14.8789C9.00001 15.2743 9.00003 15.6154 8.97707 15.8963C8.95285 16.1928 8.89936 16.4877 8.75476 16.7715C8.53905 17.1948 8.19484 17.5391 7.77148 17.7548C7.48769 17.8994 7.19278 17.9529 6.89627 17.9771C6.61535 18 6.24539 18 5.85004 18H5.85H5.5H5.15H5.14997C4.75462 18 4.38465 18 4.10373 17.9771C3.80722 17.9529 3.51231 17.8994 3.22852 17.7548C2.80516 17.5391 2.46095 17.1948 2.24524 16.7715C2.10064 16.4877 2.04716 16.1928 2.02293 15.8963C1.99998 15.6154 1.99999 15.2743 2 14.879V14.879V14.8789V14.8789V14.5V14.1211V14.1211ZM5.85 16.5L5.5 16.5L5.15 16.5C4.71759 16.5 4.43838 16.4994 4.22588 16.4821C4.02213 16.4654 3.94659 16.4372 3.90951 16.4183C3.76839 16.3464 3.65365 16.2316 3.58175 16.0905C3.56285 16.0534 3.5346 15.9779 3.51795 15.7741C3.50059 15.5616 3.5 15.2824 3.5 14.85L3.5 14.5L3.5 14.15C3.5 13.7176 3.50059 13.4384 3.51795 13.2259C3.5346 13.0221 3.56285 12.9466 3.58175 12.9095C3.65365 12.7684 3.76839 12.6537 3.90951 12.5818C3.94659 12.5629 4.02213 12.5346 4.22588 12.518C4.43838 12.5006 4.71759 12.5 5.15 12.5L5.5 12.5L5.85 12.5C6.28242 12.5 6.56162 12.5006 6.77412 12.518C6.97787 12.5346 7.05341 12.5629 7.09049 12.5818C7.23161 12.6537 7.34635 12.7684 7.41825 12.9095C7.43715 12.9466 7.46541 13.0221 7.48205 13.2259C7.49942 13.4384 7.5 13.7176 7.5 14.15L7.5 14.5L7.5 14.85C7.5 15.2824 7.49942 15.5616 7.48205 15.7741C7.46541 15.9779 7.43715 16.0534 7.41825 16.0905C7.34635 16.2316 7.23161 16.3464 7.09049 16.4183C7.05341 16.4372 6.97787 16.4654 6.77412 16.4821C6.56162 16.4994 6.28242 16.5 5.85 16.5Z" fill="#99A2AD"/>
</svg>
