<svg width="20" height="20" viewBox="0 0 20 20" fill="none" xmlns="http://www.w3.org/2000/svg">
<path fill-rule="evenodd" clip-rule="evenodd" d="M9.76401 4.75268C9.76401 4.54388 10.0032 4.42821 10.1664 4.55522L16.9075 9.80186C17.0361 9.90196 17.0361 10.0967 16.9074 10.1968L10.1612 15.4461C9.99802 15.573 9.75886 15.4574 9.75886 15.2486V12.113C9.75886 11.6988 9.42307 11.363 9.00886 11.363C6.55268 11.363 4.66689 12.2762 3.17672 13.56C3.44279 12.1058 4.00119 10.9829 4.74736 10.134C5.81274 8.92197 7.32786 8.19256 9.13182 7.90563C9.49598 7.84771 9.76401 7.53368 9.76401 7.16494V4.75268ZM11.0877 3.37149C9.93794 2.47663 8.26401 3.29714 8.26401 4.75268V6.54297C6.45413 6.93663 4.82961 7.76842 3.62074 9.14369C2.26916 10.6813 1.50391 12.8224 1.50391 15.5881C1.50391 15.9047 1.70273 16.1872 2.00077 16.2941C2.29881 16.4009 2.63185 16.3091 2.83303 16.0647C4.19484 14.4098 5.89158 13.1231 8.25886 12.898V15.2486C8.25886 16.704 9.93257 17.5246 11.0824 16.6299L17.8286 11.3807C18.7289 10.6801 18.729 9.31883 17.8288 8.61814L11.0877 3.37149Z" fill="#99A2AD"/>
</svg>
