<svg width="20" height="20" viewBox="0 0 20 20" fill="none" xmlns="http://www.w3.org/2000/svg">
<path fill-rule="evenodd" clip-rule="evenodd" d="M3.54497 4.03926C3.43417 4.00726 3.28428 4 2.67454 4H2.25C1.83579 4 1.5 3.66421 1.5 3.25C1.5 2.83579 1.83579 2.5 2.25 2.5C2.42245 2.5 2.5949 2.5001 2.76736 2.49995C3.23574 2.49953 3.61848 2.4992 3.96113 2.59814C4.67421 2.80407 5.26714 3.31131 5.55823 4L16.2514 4C16.4713 3.99999 16.6683 3.99999 16.8312 4.0097C17.0013 4.01985 17.1934 4.04285 17.3862 4.11718C18.0029 4.35495 18.433 4.91983 18.4981 5.57751C18.5185 5.78311 18.4895 5.97444 18.454 6.14108C18.4201 6.30065 18.3677 6.49055 18.3092 6.70245C17.9154 8.12903 17.5203 9.55523 17.128 10.9822C17.0329 11.3283 16.95 11.6301 16.7997 11.8868C16.5 12.3987 16.0102 12.7716 15.437 12.9243C15.1496 13.0008 14.8366 13.0005 14.4777 13.0001C12.2997 12.9978 10.1217 12.9977 7.94371 13.0002C7.54881 13.0006 7.20544 13.001 6.89645 12.9118C6.27957 12.7336 5.76819 12.3004 5.49106 11.7212C5.35225 11.4311 5.29618 11.0923 5.2317 10.7027C4.94025 8.94168 4.64486 7.18126 4.35141 5.42052C4.25116 4.81907 4.21936 4.67242 4.16959 4.56839C4.04642 4.31097 3.81913 4.11843 3.54497 4.03926ZM5.88534 5.5L6.69734 10.372C6.78442 10.8945 6.80964 11.0017 6.84415 11.0738C6.93652 11.2669 7.10699 11.4113 7.31261 11.4707C7.38942 11.4928 7.49928 11.5001 8.02897 11.5001H14.4011C14.8807 11.5001 14.9792 11.4939 15.0509 11.4748C15.242 11.4239 15.4053 11.2996 15.5052 11.129C15.5427 11.0649 15.5748 10.9716 15.7024 10.5093L16.8578 6.32294C16.9234 6.0855 16.9634 5.93927 16.9869 5.82883C17.0018 5.75904 17.0043 5.72776 17.0048 5.7198C16.9939 5.63008 16.9353 5.5532 16.8518 5.51881C16.8439 5.51715 16.8131 5.51129 16.7419 5.50704C16.6292 5.50032 16.4776 5.5 16.2313 5.5H5.88534Z" fill="#99A2AD"/>
<path d="M6.5 16.25C6.5 15.5596 7.05964 15 7.75 15C8.44036 15 9 15.5596 9 16.25C9 16.9404 8.44036 17.5 7.75 17.5C7.05964 17.5 6.5 16.9404 6.5 16.25Z" fill="#99A2AD"/>
<path d="M13 16.25C13 15.5596 13.5596 15 14.25 15C14.9404 15 15.5 15.5596 15.5 16.25C15.5 16.9404 14.9404 17.5 14.25 17.5C13.5596 17.5 13 16.9404 13 16.25Z" fill="#99A2AD"/>
</svg>
