<svg width="20" height="20" viewBox="0 0 20 20" fill="none" xmlns="http://www.w3.org/2000/svg">
<path fill-rule="evenodd" clip-rule="evenodd" d="M16.5 11.3167V10C16.5 8.81728 16.4993 7.99851 16.4595 7.35749C16.4205 6.72832 16.3479 6.3704 16.2478 6.10214C15.8424 5.0151 14.9849 4.15765 13.8979 3.7522C13.6296 3.65215 13.2717 3.57952 12.6425 3.54047C12.0015 3.50067 11.1827 3.5 10 3.5C8.81728 3.5 7.99851 3.50067 7.35749 3.54047C6.72832 3.57952 6.3704 3.65215 6.10214 3.7522C5.0151 4.15765 4.15765 5.0151 3.7522 6.10214C3.65215 6.3704 3.57952 6.72832 3.54047 7.35749C3.50067 7.99851 3.5 8.81728 3.5 10V11.3167C3.5 11.5356 3.5004 11.5954 3.50279 11.646C3.54355 12.5074 4.02534 13.2869 4.77753 13.7086C4.82171 13.7334 4.87508 13.7605 5.07082 13.8584L5.08053 13.8632C5.11423 13.88 5.16902 13.9073 5.22247 13.9373C5.66603 14.186 6.01557 14.5591 6.23608 15H13.7639C13.9844 14.5591 14.334 14.186 14.7775 13.9373C14.831 13.9074 14.8857 13.88 14.9194 13.8632L14.9195 13.8632L14.9292 13.8584C15.1249 13.7605 15.1783 13.7334 15.2225 13.7086C15.9747 13.2869 16.4564 12.5074 16.4972 11.646C16.4996 11.5954 16.5 11.5356 16.5 11.3167ZM15 16.1708C15 16.1199 15 16.0944 15.0011 16.0708C15.0174 15.7262 15.2101 15.4144 15.511 15.2457C15.5316 15.2342 15.5544 15.2228 15.6 15.2L15.6 15.2C15.7823 15.1088 15.8735 15.0633 15.956 15.017C17.1595 14.3424 17.9303 13.0951 17.9955 11.7169C18 11.6224 18 11.5205 18 11.3167V10C18 7.67179 18 6.50769 17.6532 5.57795C17.0957 4.08326 15.9167 2.90427 14.4221 2.34678C13.4923 2 12.3282 2 10 2C7.67179 2 6.50769 2 5.57795 2.34678C4.08326 2.90427 2.90427 4.08326 2.34678 5.57795C2 6.50769 2 7.67179 2 10V11.3167C2 11.5205 2 11.6224 2.00447 11.7169C2.06968 13.0951 2.84054 14.3424 4.04405 15.017C4.12655 15.0633 4.2177 15.1089 4.4 15.2C4.44557 15.2228 4.46836 15.2342 4.48899 15.2457C4.78987 15.4144 4.98258 15.7262 4.99888 16.0708C5 16.0944 5 16.1199 5 16.1708V16.5V17.75C5 18.1642 5.33579 18.5 5.75 18.5C6.16421 18.5 6.5 18.1642 6.5 17.75V16.5H9.25V17.75C9.25 18.1642 9.58579 18.5 10 18.5C10.4142 18.5 10.75 18.1642 10.75 17.75V16.5H13.5V17.75C13.5 18.1642 13.8358 18.5 14.25 18.5C14.6642 18.5 15 18.1642 15 17.75V16.5V16.1708ZM10 11.5C9.58579 11.5 9.25 11.8358 9.25 12.25V12.75C9.25 13.1642 9.58579 13.5 10 13.5C10.4142 13.5 10.75 13.1642 10.75 12.75V12.25C10.75 11.8358 10.4142 11.5 10 11.5ZM12.25 8.75C12.25 9.16421 12.5858 9.5 13 9.5C13.4142 9.5 13.75 9.16421 13.75 8.75C13.75 8.33579 13.4142 8 13 8C12.5858 8 12.25 8.33579 12.25 8.75ZM13 6.5C11.7574 6.5 10.75 7.50736 10.75 8.75C10.75 9.99264 11.7574 11 13 11C14.2426 11 15.25 9.99264 15.25 8.75C15.25 7.50736 14.2426 6.5 13 6.5ZM7 9.5C6.58579 9.5 6.25 9.16421 6.25 8.75C6.25 8.33579 6.58579 8 7 8C7.41421 8 7.75 8.33579 7.75 8.75C7.75 9.16421 7.41421 9.5 7 9.5ZM4.75 8.75C4.75 7.50736 5.75736 6.5 7 6.5C8.24264 6.5 9.25 7.50736 9.25 8.75C9.25 9.99264 8.24264 11 7 11C5.75736 11 4.75 9.99264 4.75 8.75Z" fill="#99A2AD"/>
</svg>
