<svg width="20" height="20" viewBox="0 0 20 20" fill="none" xmlns="http://www.w3.org/2000/svg">
<path d="M9.34998 14C8.93576 14 8.59998 14.3358 8.59998 14.75C8.59998 15.1642 8.93576 15.5 9.34998 15.5H10.65C11.0642 15.5 11.4 15.1642 11.4 14.75C11.4 14.3358 11.0642 14 10.65 14H9.34998Z" fill="#99A2AD"/>
<path fill-rule="evenodd" clip-rule="evenodd" d="M4 6.7166C4 4.89062 4 3.97763 4.35536 3.28019C4.66794 2.66672 5.16672 2.16794 5.78019 1.85536C6.47763 1.5 7.39062 1.5 9.2166 1.5H10.7834C12.6094 1.5 13.5224 1.5 14.2198 1.85536C14.8333 2.16794 15.3321 2.66672 15.6446 3.28019C16 3.97763 16 4.89062 16 6.7166V13.2834C16 15.1094 16 16.0224 15.6446 16.7198C15.3321 17.3333 14.8333 17.8321 14.2198 18.1446C13.5224 18.5 12.6094 18.5 10.7834 18.5H9.2166C7.39062 18.5 6.47763 18.5 5.78019 18.1446C5.16672 17.8321 4.66794 17.3333 4.35536 16.7198C4 16.0224 4 15.1094 4 13.2834V6.7166ZM9.2166 3H10.7834C11.7211 3 12.3342 3.00117 12.8027 3.03944C13.2536 3.07628 13.4368 3.13989 13.5388 3.19187C13.8701 3.36064 14.1394 3.62995 14.3081 3.96118C14.3601 4.06319 14.4237 4.24643 14.4606 4.69734C14.4988 5.16576 14.5 5.77886 14.5 6.7166V13.2834C14.5 14.2211 14.4988 14.8342 14.4606 15.3027C14.4237 15.7536 14.3601 15.9368 14.3081 16.0388C14.1394 16.3701 13.8701 16.6394 13.5388 16.8081C13.4368 16.8601 13.2536 16.9237 12.8027 16.9606C12.3342 16.9988 11.7211 17 10.7834 17H9.2166C8.27886 17 7.66576 16.9988 7.19734 16.9606C6.74643 16.9237 6.56319 16.8601 6.46118 16.8081C6.12995 16.6394 5.86064 16.3701 5.69187 16.0388C5.63989 15.9368 5.57628 15.7536 5.53944 15.3027C5.50117 14.8342 5.5 14.2211 5.5 13.2834V6.7166C5.5 5.77885 5.50117 5.16576 5.53944 4.69734C5.57628 4.24643 5.63989 4.06319 5.69187 3.96118C5.86064 3.62995 6.12995 3.36064 6.46118 3.19187C6.56319 3.13989 6.74643 3.07628 7.19734 3.03944C7.66576 3.00117 8.27886 3 9.2166 3Z" fill="#99A2AD"/>
</svg>
