<svg width="20" height="20" viewBox="0 0 20 20" fill="none" xmlns="http://www.w3.org/2000/svg">
<path d="M10 1.5C14.6944 1.5 18.5 5.30558 18.5 10C18.5 14.6944 14.6944 18.5 10 18.5C5.30558 18.5 1.5 14.6944 1.5 10C1.5 5.30558 5.30558 1.5 10 1.5ZM10 3C6.13401 3 3 6.13401 3 10C3 13.866 6.13401 17 10 17C13.866 17 17 13.866 17 10C17 6.13401 13.866 3 10 3ZM13.0668 12.0565C13.367 12.3419 13.3789 12.8167 13.0935 13.1168C12.9243 13.2948 12.6368 13.5349 12.2388 13.7704C11.5759 14.1628 10.8244 14.4 10 14.4C9.17557 14.4 8.42412 14.1628 7.76121 13.7704C7.36321 13.5349 7.07573 13.2948 6.90651 13.1168C6.62108 12.8167 6.63302 12.3419 6.93318 12.0565C7.20606 11.797 7.6232 11.7833 7.91124 12.0085L8.10767 12.1884C8.20579 12.2707 8.34694 12.3741 8.52516 12.4796C8.97115 12.7435 9.46686 12.9 10 12.9C10.5331 12.9 11.0288 12.7435 11.4748 12.4796C11.6531 12.3741 11.7942 12.2706 11.8923 12.1884L12.0065 12.0832C12.2919 11.783 12.7667 11.7711 13.0668 12.0565ZM7.625 7.25C8.24632 7.25 8.75 7.75368 8.75 8.375C8.75 8.99632 8.24632 9.5 7.625 9.5C7.00368 9.5 6.5 8.99632 6.5 8.375C6.5 7.75368 7.00368 7.25 7.625 7.25ZM12.375 7.25C12.9963 7.25 13.5 7.75368 13.5 8.375C13.5 8.99632 12.9963 9.5 12.375 9.5C11.7537 9.5 11.25 8.99632 11.25 8.375C11.25 7.75368 11.7537 7.25 12.375 7.25Z" fill="#99A2AD"/>
</svg>
