<svg width="20" height="20" viewBox="0 0 20 20" fill="none" xmlns="http://www.w3.org/2000/svg">
<path fill-rule="evenodd" clip-rule="evenodd" d="M14.1211 9H14.121H14.121H14.121H14.121C13.7257 9.00001 13.3846 9.00002 13.1037 8.97707C12.8072 8.95285 12.5123 8.89936 12.2285 8.75476C11.8052 8.53905 11.461 8.19484 11.2452 7.77148C11.1006 7.48769 11.0472 7.19278 11.0229 6.89627C11 6.61535 11 6.24539 11 5.85005V5.85001V5.85V5.5V5.15V5.14999V5.14995C11 4.75461 11 4.38465 11.0229 4.10373C11.0472 3.80722 11.1006 3.51231 11.2452 3.22852C11.461 2.80516 11.8052 2.46095 12.2285 2.24524C12.5123 2.10064 12.8072 2.04716 13.1037 2.02293C13.3846 1.99998 13.7257 1.99999 14.121 2H14.1211H14.1211H14.5H14.8789H14.8789H14.879C15.2743 1.99999 15.6154 1.99998 15.8963 2.02293C16.1928 2.04716 16.4877 2.10064 16.7715 2.24524C17.1948 2.46095 17.5391 2.80516 17.7548 3.22852C17.8994 3.51231 17.9528 3.80722 17.9771 4.10373C18 4.38466 18 4.75464 18 5.15V5.5V5.85C18 6.24536 18 6.61534 17.9771 6.89627C17.9528 7.19278 17.8994 7.48769 17.7548 7.77148C17.5391 8.19484 17.1948 8.53905 16.7715 8.75476C16.4877 8.89936 16.1928 8.95285 15.8963 8.97707C15.6154 9.00002 15.2743 9.00001 14.879 9H14.8789H14.8789H14.5L14.1211 9H14.1211ZM16.5 5.15L16.5 5.5L16.5 5.85C16.5 6.28241 16.4994 6.56162 16.4821 6.77412C16.4654 6.97787 16.4372 7.05341 16.4183 7.09049C16.3463 7.23161 16.2316 7.34635 16.0905 7.41825C16.0534 7.43715 15.9779 7.46541 15.7741 7.48205C15.5616 7.49942 15.2824 7.5 14.85 7.5L14.5 7.5L14.15 7.5C13.7176 7.5 13.4384 7.49942 13.2259 7.48205C13.0221 7.46541 12.9466 7.43715 12.9095 7.41825C12.7684 7.34635 12.6537 7.23161 12.5817 7.09049C12.5629 7.05341 12.5346 6.97787 12.5179 6.77412C12.5006 6.56162 12.5 6.28241 12.5 5.85L12.5 5.5L12.5 5.15C12.5 4.71759 12.5006 4.43838 12.5179 4.22588C12.5346 4.02213 12.5629 3.94659 12.5817 3.90951C12.6537 3.76839 12.7684 3.65365 12.9095 3.58175C12.9466 3.56285 13.0221 3.5346 13.2259 3.51795C13.4384 3.50059 13.7176 3.5 14.15 3.5L14.5 3.5L14.85 3.5C15.2824 3.5 15.5616 3.50059 15.7741 3.51795C15.9779 3.53459 16.0534 3.56285 16.0905 3.58175C16.2316 3.65365 16.3463 3.76839 16.4183 3.90951C16.4372 3.94659 16.4654 4.02213 16.4821 4.22588C16.4994 4.43838 16.5 4.71759 16.5 5.15ZM11 14.1211V14.121C11 13.7257 11 13.3847 11.0229 13.1037C11.0472 12.8072 11.1006 12.5123 11.2452 12.2285C11.461 11.8052 11.8052 11.461 12.2285 11.2452C12.5123 11.1006 12.8072 11.0472 13.1037 11.0229C13.3847 11 13.7546 11 14.15 11H14.15H14.5H14.85H14.85C15.2454 11 15.6153 11 15.8963 11.0229C16.1928 11.0472 16.4877 11.1006 16.7715 11.2452C17.1948 11.461 17.5391 11.8052 17.7548 12.2285C17.8994 12.5123 17.9528 12.8072 17.9771 13.1037C18 13.3847 18 13.7257 18 14.1211V14.1211V14.5V14.8789V14.8789C18 15.2743 18 15.6154 17.9771 15.8963C17.9528 16.1928 17.8994 16.4877 17.7548 16.7715C17.5391 17.1948 17.1948 17.5391 16.7715 17.7548C16.4877 17.8994 16.1928 17.9528 15.8963 17.9771C15.6154 18 15.2454 18 14.8501 18H14.8501H14.85H14.85H14.5H14.15H14.15H14.1499H14.1499C13.7546 18 13.3846 18 13.1037 17.9771C12.8072 17.9528 12.5123 17.8994 12.2285 17.7548C11.8052 17.5391 11.461 17.1948 11.2452 16.7715C11.1006 16.4877 11.0472 16.1928 11.0229 15.8963C11 15.6154 11 15.2743 11 14.879V14.8789V14.8789V14.5V14.1211V14.1211ZM14.85 16.5L14.5 16.5L14.15 16.5C13.7176 16.5 13.4384 16.4994 13.2259 16.4821C13.0221 16.4654 12.9466 16.4372 12.9095 16.4183C12.7684 16.3464 12.6537 16.2316 12.5817 16.0905C12.5629 16.0534 12.5346 15.9779 12.5179 15.7741C12.5006 15.5616 12.5 15.2824 12.5 14.85L12.5 14.5L12.5 14.15C12.5 13.7176 12.5006 13.4384 12.5179 13.2259C12.5346 13.0221 12.5629 12.9466 12.5817 12.9095C12.6537 12.7684 12.7684 12.6537 12.9095 12.5817C12.9466 12.5629 13.0221 12.5346 13.2259 12.518C13.4384 12.5006 13.7176 12.5 14.15 12.5L14.5 12.5L14.85 12.5C15.2824 12.5 15.5616 12.5006 15.7741 12.518C15.9779 12.5346 16.0534 12.5629 16.0905 12.5817C16.2316 12.6537 16.3464 12.7684 16.4183 12.9095C16.4372 12.9466 16.4654 13.0221 16.4821 13.2259C16.4994 13.4384 16.5 13.7176 16.5 14.15L16.5 14.5L16.5 14.85C16.5 15.2824 16.4994 15.5616 16.4821 15.7741C16.4654 15.9779 16.4372 16.0534 16.4183 16.0905C16.3464 16.2316 16.2316 16.3464 16.0905 16.4183C16.0534 16.4372 15.9779 16.4654 15.7741 16.4821C15.5616 16.4994 15.2824 16.5 14.85 16.5ZM2 5.12104V5.12107V5.1211V5.5V5.87891V5.87894V5.87896V5.87899C1.99999 6.27432 1.99998 6.61536 2.02293 6.89627C2.04716 7.19278 2.10064 7.4877 2.24524 7.77148C2.46095 8.19485 2.80516 8.53905 3.22852 8.75477C3.51231 8.89936 3.80722 8.95285 4.10373 8.97708C4.38466 9.00003 4.75464 9.00002 5.15 9H5.5H5.85C6.24536 9.00002 6.61534 9.00003 6.89627 8.97708C7.19278 8.95285 7.48769 8.89936 7.77148 8.75477C8.19484 8.53905 8.53905 8.19485 8.75476 7.77148C8.89936 7.4877 8.95285 7.19278 8.97707 6.89627C9.00003 6.61535 9.00001 6.27429 9 5.87894V5.87891V5.5V5.1211V5.12107C9.00001 4.72572 9.00003 4.38466 8.97707 4.10373C8.95285 3.80722 8.89936 3.51231 8.75476 3.22853C8.53905 2.80516 8.19484 2.46096 7.77148 2.24524C7.48769 2.10064 7.19278 2.04716 6.89627 2.02293C6.61534 1.99998 6.24537 1.99999 5.85001 2H5.85H5.5H5.15H5.14999C4.75464 1.99999 4.38466 1.99998 4.10373 2.02293C3.80722 2.04716 3.51231 2.10064 3.22852 2.24524C2.80516 2.46096 2.46095 2.80516 2.24524 3.22853C2.10064 3.51231 2.04716 3.80722 2.02293 4.10373C1.99998 4.38464 1.99999 4.72569 2 5.12101V5.12104ZM5.5 7.5L5.85 7.5C6.28242 7.5 6.56162 7.49942 6.77412 7.48206C6.97787 7.46541 7.05341 7.43715 7.09049 7.41826C7.23161 7.34635 7.34635 7.23162 7.41825 7.0905C7.43715 7.05341 7.46541 6.97787 7.48205 6.77413C7.49942 6.56162 7.5 6.28242 7.5 5.85L7.5 5.5L7.5 5.15C7.5 4.71759 7.49942 4.43838 7.48205 4.22588C7.46541 4.02213 7.43715 3.94659 7.41825 3.90951C7.34635 3.76839 7.23161 3.65365 7.09049 3.58175C7.05341 3.56286 6.97787 3.5346 6.77412 3.51795C6.56162 3.50059 6.28242 3.5 5.85 3.5L5.5 3.5L5.15 3.5C4.71759 3.5 4.43838 3.50059 4.22588 3.51795C4.02213 3.5346 3.94659 3.56286 3.90951 3.58175C3.76839 3.65365 3.65365 3.76839 3.58175 3.90951C3.56285 3.94659 3.5346 4.02213 3.51795 4.22588C3.50059 4.43838 3.5 4.71759 3.5 5.15L3.5 5.5L3.5 5.85C3.5 6.28242 3.50059 6.56162 3.51795 6.77413C3.5346 6.97787 3.56285 7.05341 3.58175 7.0905C3.65365 7.23162 3.76839 7.34635 3.90951 7.41826C3.94659 7.43715 4.02213 7.46541 4.22588 7.48206C4.43838 7.49942 4.71759 7.5 5.15 7.5L5.5 7.5ZM2 14.1211V14.121V14.121C1.99999 13.7257 1.99998 13.3846 2.02293 13.1037C2.04716 12.8072 2.10064 12.5123 2.24524 12.2285C2.46095 11.8052 2.80516 11.461 3.22852 11.2452C3.51231 11.1006 3.80722 11.0472 4.10373 11.0229C4.38466 11 4.75464 11 5.14999 11H5.15H5.5H5.85H5.85001C6.24537 11 6.61534 11 6.89627 11.0229C7.19278 11.0472 7.48769 11.1006 7.77148 11.2452C8.19484 11.461 8.53905 11.8052 8.75476 12.2285C8.89936 12.5123 8.95285 12.8072 8.97707 13.1037C9.00003 13.3847 9.00001 13.7257 9 14.1211V14.1211V14.5V14.8789V14.8789C9.00001 15.2743 9.00003 15.6154 8.97707 15.8963C8.95285 16.1928 8.89936 16.4877 8.75476 16.7715C8.53905 17.1948 8.19484 17.5391 7.77148 17.7548C7.48769 17.8994 7.19278 17.9528 6.89627 17.9771C6.61535 18 6.24539 18 5.85004 18H5.85H5.5H5.15H5.14996C4.75462 18 4.38465 18 4.10373 17.9771C3.80722 17.9528 3.51231 17.8994 3.22852 17.7548C2.80516 17.5391 2.46095 17.1948 2.24524 16.7715C2.10064 16.4877 2.04716 16.1928 2.02293 15.8963C1.99998 15.6154 1.99999 15.2743 2 14.879V14.879V14.8789V14.8789V14.5V14.1211V14.1211ZM5.85 16.5L5.5 16.5L5.15 16.5C4.71759 16.5 4.43838 16.4994 4.22588 16.4821C4.02213 16.4654 3.94659 16.4372 3.90951 16.4183C3.76839 16.3464 3.65365 16.2316 3.58175 16.0905C3.56285 16.0534 3.5346 15.9779 3.51795 15.7741C3.50059 15.5616 3.5 15.2824 3.5 14.85L3.5 14.5L3.5 14.15C3.5 13.7176 3.50059 13.4384 3.51795 13.2259C3.5346 13.0221 3.56285 12.9466 3.58175 12.9095C3.65365 12.7684 3.76839 12.6537 3.90951 12.5817C3.94659 12.5629 4.02213 12.5346 4.22588 12.518C4.43838 12.5006 4.71759 12.5 5.15 12.5L5.5 12.5L5.85 12.5C6.28242 12.5 6.56162 12.5006 6.77412 12.518C6.97787 12.5346 7.05341 12.5629 7.09049 12.5817C7.23161 12.6537 7.34635 12.7684 7.41825 12.9095C7.43715 12.9466 7.46541 13.0221 7.48205 13.2259C7.49942 13.4384 7.5 13.7176 7.5 14.15L7.5 14.5L7.5 14.85C7.5 15.2824 7.49942 15.5616 7.48205 15.7741C7.46541 15.9779 7.43715 16.0534 7.41825 16.0905C7.34635 16.2316 7.23161 16.3464 7.09049 16.4183C7.05341 16.4372 6.97787 16.4654 6.77412 16.4821C6.56162 16.4994 6.28242 16.5 5.85 16.5Z" fill="#99A2AD"/>
</svg>
