<svg width="20" height="20" viewBox="0 0 20 20" fill="none" xmlns="http://www.w3.org/2000/svg">
<path fill-rule="evenodd" clip-rule="evenodd" d="M12.0039 8.1301C11.6362 8.96478 11.1472 9.84719 10.4972 10.4972C9.84719 11.1472 8.96479 11.6362 8.1301 12.0039C8.96479 12.3715 9.84719 12.8605 10.4972 13.5105C11.1472 14.1605 11.6362 15.0429 12.0039 15.8776C12.3715 15.0429 12.8605 14.1605 13.5105 13.5105C14.1605 12.8605 15.0429 12.3715 15.8776 12.0039C15.0429 11.6362 14.1605 11.1472 13.5105 10.4972C12.8605 9.84719 12.3715 8.96478 12.0039 8.1301ZM11.219 5.95194C10.7976 7.26888 10.2048 8.66827 9.43652 9.43652C8.66827 10.2048 7.26888 10.7976 5.95194 11.219C5.86825 11.2458 5.78489 11.2719 5.70204 11.2973C5.47776 11.366 5.25726 11.4297 5.04417 11.4884C4.9581 11.5121 4.87323 11.5349 4.78982 11.557C4.40923 11.6576 4.40923 12.3501 4.78982 12.4507C4.87323 12.4728 4.9581 12.4956 5.04417 12.5193C5.25726 12.578 5.47776 12.6417 5.70204 12.7104C5.78489 12.7358 5.86825 12.7619 5.95194 12.7887C7.26888 13.2101 8.66827 13.8029 9.43652 14.5712C10.2048 15.3394 10.7976 16.7388 11.219 18.0558C11.2458 18.1395 11.2719 18.2228 11.2973 18.3057C11.366 18.5299 11.4297 18.7505 11.4884 18.9635C11.5121 19.0496 11.5349 19.1345 11.557 19.2179C11.6576 19.5985 12.3501 19.5985 12.4507 19.2179C12.4728 19.1345 12.4956 19.0496 12.5193 18.9635C12.578 18.7505 12.6417 18.5299 12.7104 18.3057C12.7358 18.2228 12.7619 18.1395 12.7887 18.0558C13.2101 16.7388 13.8029 15.3394 14.5712 14.5712C15.3394 13.8029 16.7388 13.2101 18.0558 12.7887C18.1395 12.7619 18.2228 12.7358 18.3057 12.7104C18.5299 12.6417 18.7505 12.578 18.9635 12.5193C19.0496 12.4956 19.1345 12.4728 19.2179 12.4507C19.5985 12.3501 19.5985 11.6576 19.2179 11.557C19.1345 11.5349 19.0496 11.5121 18.9635 11.4884C18.7505 11.4297 18.5299 11.366 18.3057 11.2973C18.2228 11.2719 18.1395 11.2458 18.0558 11.219C16.7388 10.7976 15.3394 10.2048 14.5712 9.43652C13.8029 8.66827 13.2101 7.26888 12.7887 5.95194C12.7619 5.86825 12.7358 5.78489 12.7104 5.70205C12.6417 5.47776 12.578 5.25726 12.5193 5.04417C12.4956 4.9581 12.4728 4.87323 12.4507 4.78982C12.3501 4.40923 11.6576 4.40923 11.557 4.78982C11.5349 4.87323 11.5121 4.9581 11.4884 5.04417C11.4297 5.25726 11.366 5.47776 11.2973 5.70205C11.2719 5.78489 11.2458 5.86825 11.219 5.95194Z" fill="#99A2AD"/>
<path d="M4.36537 0.763345C4.24833 0.412218 3.75167 0.412219 3.63463 0.763346L3.22128 2.00338C3.02961 2.5784 2.57839 3.02961 2.00338 3.22128L0.763345 3.63463C0.412218 3.75167 0.412218 4.24833 0.763345 4.36537L2.00338 4.77872C2.5784 4.97039 3.02961 5.42161 3.22128 5.99662L3.63463 7.23666C3.75167 7.58778 4.24833 7.58778 4.36537 7.23665L4.77872 5.99662C4.97039 5.4216 5.42161 4.97039 5.99662 4.77872L7.23666 4.36537C7.58778 4.24833 7.58778 3.75167 7.23665 3.63463L5.99662 3.22128C5.4216 3.02961 4.97039 2.57839 4.77871 2.00338L4.36537 0.763345Z" fill="#99A2AD"/>
</svg>
