<svg width="20" height="20" viewBox="0 0 20 20" fill="none" xmlns="http://www.w3.org/2000/svg">
<path fill-rule="evenodd" clip-rule="evenodd" d="M17 3.74994C17 3.55103 16.921 3.36026 16.7803 3.21961C16.6397 3.07896 16.4489 2.99994 16.25 2.99994L12.75 2.99996C12.3358 2.99996 12 3.33575 12 3.74996C12 4.16417 12.3358 4.49996 12.75 4.49996L14.4394 4.49995L10.5 8.43935L9.03033 6.96968C8.73744 6.67679 8.26256 6.67679 7.96967 6.96968L3.21967 11.7197C2.92678 12.0126 2.92678 12.4874 3.21967 12.7803C3.51256 13.0732 3.98744 13.0732 4.28033 12.7803L8.5 8.56067L9.96967 10.0303C10.1103 10.171 10.3011 10.25 10.5 10.25C10.6989 10.25 10.8897 10.171 11.0303 10.0303L15.5 5.56062V7.24995C15.5 7.66417 15.8358 7.99995 16.25 7.99995C16.6642 7.99995 17 7.66417 17 7.24995V3.74994ZM2 16.25C2 15.8358 2.33579 15.5 2.75 15.5H17.25C17.6642 15.5 18 15.8358 18 16.25C18 16.6642 17.6642 17 17.25 17H2.75C2.33579 17 2 16.6642 2 16.25Z" fill="#99A2AD"/>
</svg>
