<svg width="20" height="20" viewBox="0 0 20 20" fill="none" xmlns="http://www.w3.org/2000/svg">
<path d="M16.25 1.5C16.6642 1.5 17 1.83579 17 2.25V5.25C17 5.66421 16.6642 6 16.25 6H13.25C12.8358 6 12.5 5.66421 12.5 5.25C12.5 4.83579 12.8358 4.5 13.25 4.5H14.3314C13.0649 3.49991 11.5334 3 10.0001 3C8.20744 3 6.4173 3.68327 5.05031 5.05025C3.68333 6.41724 3.00006 8.20739 3.00006 10C3.00006 10.3498 3.02608 10.6996 3.07813 11.0461C3.15061 11.5287 2.80027 12 2.31228 12C1.97515 12 1.67858 11.7695 1.62184 11.4372C1.54066 10.9618 1.50006 10.4808 1.50006 10C1.50006 7.82582 2.33007 5.64918 3.98965 3.98959C5.64923 2.33001 7.82588 1.5 10.0001 1.5C11.9578 1.5 13.9176 2.17299 15.5 3.51865V2.25C15.5 1.83579 15.8358 1.5 16.25 1.5Z" fill="#99A2AD"/>
<path d="M3 14.75C3 14.3358 3.33579 14 3.75 14H6.75C7.16421 14 7.5 14.3358 7.5 14.75C7.5 15.1642 7.16421 15.5 6.75 15.5H5.66876C6.9352 16.5001 8.46673 17 10.0001 17C11.7927 17 13.5828 16.3167 14.9498 14.9497C16.3168 13.5828 17.0001 11.7926 17.0001 10C17.0001 9.65017 16.974 9.30043 16.922 8.9539C16.8495 8.47133 17.1999 8 17.6878 8C18.025 8 18.3215 8.23048 18.3783 8.56279C18.4595 9.03824 18.5001 9.51918 18.5001 10C18.5001 12.1742 17.67 14.3508 16.0105 16.0104C14.3509 17.67 12.1742 18.5 10.0001 18.5C8.04226 18.5 6.08246 17.827 4.5 16.4813V17.75C4.5 18.1642 4.16421 18.5 3.75 18.5C3.33579 18.5 3 18.1642 3 17.75V14.75Z" fill="#99A2AD"/>
</svg>
