<svg width="20" height="20" viewBox="0 0 20 20" fill="none" xmlns="http://www.w3.org/2000/svg">
<path fill-rule="evenodd" clip-rule="evenodd" d="M9.37074 3.5449C9.2307 3.50633 9.0685 3.50001 8.462 3.50001H5.95C5.37757 3.50001 4.99336 3.50059 4.69748 3.52477C4.41036 3.54823 4.27307 3.59011 4.18251 3.63625C3.94731 3.7561 3.75608 3.94732 3.63624 4.18252C3.5901 4.27308 3.54822 4.41037 3.52476 4.69749C3.50058 4.99337 3.5 5.37759 3.5 5.95001V14.0544C3.5 14.6268 3.50058 15.011 3.52476 15.3069C3.54822 15.594 3.5901 15.7313 3.63624 15.8218C3.75608 16.057 3.94731 16.2483 4.18251 16.3681C4.27307 16.4143 4.41036 16.4561 4.69748 16.4796C4.99336 16.5038 5.37757 16.5044 5.95 16.5044H14.05C14.6224 16.5044 15.0066 16.5038 15.3025 16.4796C15.5896 16.4561 15.7269 16.4143 15.8175 16.3681C16.0527 16.2483 16.2439 16.057 16.3638 15.8218C16.4099 15.7313 16.4518 15.594 16.4752 15.3069C16.4994 15.011 16.5 14.6268 16.5 14.0544V8.45001C16.5 7.87758 16.4994 7.49337 16.4752 7.19749C16.4518 6.91037 16.4099 6.77308 16.3638 6.68252C16.2439 6.44732 16.0527 6.25609 15.8175 6.13625C15.7269 6.09011 15.5896 6.04823 15.3025 6.02477C15.0066 6.0006 14.6224 6.00001 14.05 6.00001C13.6044 6.00001 13.1588 5.99919 12.7132 6.00009C12.4882 6.00054 12.2476 6.00102 12.0158 5.93716C11.8137 5.88148 11.6233 5.78994 11.4535 5.6669C11.2589 5.52579 11.1089 5.33761 10.9687 5.16164C10.7713 4.91389 10.573 4.66687 10.3751 4.41951C9.99625 3.94591 9.88999 3.8232 9.77239 3.73795C9.65115 3.65006 9.51511 3.58467 9.37074 3.5449ZM8.54616 1.99997C9.02875 1.99965 9.4084 1.9994 9.76913 2.09878C10.0867 2.18627 10.386 2.33012 10.6528 2.52347C10.9557 2.74307 11.1927 3.03969 11.4939 3.41673C11.6975 3.67162 11.9015 3.92625 12.1053 4.181C12.1981 4.29705 12.2505 4.36215 12.2925 4.40941C12.3456 4.46919 12.3982 4.49262 12.4737 4.49652C12.5368 4.49978 12.6204 4.50001 12.769 4.50001L14.0804 4.50001C14.6146 4.5 15.0604 4.49999 15.4247 4.52975C15.8046 4.56079 16.1612 4.6279 16.4985 4.79974C17.0159 5.0634 17.4366 5.48409 17.7003 6.00154C17.8721 6.3388 17.9392 6.69546 17.9703 7.07534C18 7.43957 18 7.88541 18 8.41956V14.0848C18 14.619 18 15.0648 17.9703 15.429C17.9392 15.8089 17.8721 16.1656 17.7003 16.5028C17.4366 17.0203 17.0159 17.441 16.4985 17.7046C16.1612 17.8765 15.8046 17.9436 15.4247 17.9746C15.0604 18.0044 14.6146 18.0044 14.0805 18.0044H5.91955C5.3854 18.0044 4.93956 18.0044 4.57533 17.9746C4.19545 17.9436 3.83879 17.8765 3.50153 17.7046C2.98408 17.441 2.56338 17.0203 2.29973 16.5028C2.12789 16.1656 2.06078 15.8089 2.02974 15.429C1.99998 15.0648 1.99999 14.6189 2 14.0848V5.91958C1.99999 5.38542 1.99998 4.93958 2.02974 4.57534C2.06078 4.19546 2.12789 3.8388 2.29973 3.50154C2.56338 2.98409 2.98408 2.5634 3.50153 2.29974C3.83879 2.1279 4.19545 2.06079 4.57533 2.02975C4.93956 1.99999 5.38541 2 5.91957 2.00001L8.462 2.00001C8.4904 2.00001 8.51845 1.99999 8.54616 1.99997Z" fill="#99A2AD"/>
<path d="M5.75 5.00001H8.75C9.16421 5.00001 9.5 5.3358 9.5 5.75001C9.5 6.16423 9.16421 6.50001 8.75 6.50001H5.75C5.33579 6.50001 5 6.16423 5 5.75001C5 5.3358 5.33579 5.00001 5.75 5.00001Z" fill="#99A2AD"/>
<path d="M9.24561 8.49708C9.24561 8.08287 9.58139 7.74708 9.99561 7.74708C10.4098 7.74708 10.7456 8.08287 10.7456 8.49708V10.4971H12.75C13.1642 10.4971 13.5 10.8329 13.5 11.2471C13.5 11.6613 13.1642 11.9971 12.75 11.9971H10.7456V13.9971C10.7456 14.4113 10.4098 14.7471 9.99561 14.7471C9.58139 14.7471 9.24561 14.4113 9.24561 13.9971V11.9971H7.25C6.83579 11.9971 6.5 11.6613 6.5 11.2471C6.5 10.8329 6.83579 10.4971 7.25 10.4971H9.24561L9.24561 8.49708Z" fill="#99A2AD"/>
</svg>
