<svg width="20" height="20" viewBox="0 0 20 20" fill="none" xmlns="http://www.w3.org/2000/svg">
<path fill-rule="evenodd" clip-rule="evenodd" d="M10.7545 1.74995C10.7545 1.33556 10.4186 0.999634 10.0042 0.999634C9.58984 0.999634 9.25391 1.33556 9.25391 1.74995V2.78401C5.84422 3.13254 3.13403 5.84382 2.78718 9.254H1.75002C1.33562 9.254 0.999695 9.58993 0.999695 10.0043C0.999695 10.4187 1.33562 10.7546 1.75002 10.7546H2.7888C3.14241 14.1574 5.84953 16.8609 9.25397 17.2088V18.2458C9.25397 18.6602 9.5899 18.9961 10.0043 18.9961C10.4187 18.9961 10.7546 18.6602 10.7546 18.2458V17.2079C14.155 16.8563 16.8578 14.1545 17.2111 10.7545H18.25C18.6644 10.7545 19.0003 10.4186 19.0003 10.0042C19.0003 9.58984 18.6644 9.25391 18.25 9.25391H17.2127C16.8661 5.84662 14.1602 3.13707 10.7545 2.78489V1.74995ZM5.25002 10.7546H4.29983C4.63879 13.3277 6.6792 15.3646 9.25397 15.6981V14.7458C9.25397 14.3314 9.5899 13.9955 10.0043 13.9955C10.4187 13.9955 10.7546 14.3314 10.7546 14.7458V15.697C13.3253 15.36 15.3615 13.3248 15.7001 10.7545H14.75C14.3356 10.7545 13.9997 10.4186 13.9997 10.0042C13.9997 9.58984 14.3356 9.25391 14.75 9.25391H15.7021C15.3698 6.67629 13.3305 4.63349 10.7545 4.29581V5.24995C10.7545 5.66435 10.4186 6.00028 10.0042 6.00028C9.58984 6.00028 9.25391 5.66435 9.25391 5.24995V4.29469C6.6739 4.62897 4.63044 6.67349 4.29777 9.254H5.25002C5.66441 9.254 6.00034 9.58993 6.00034 10.0043C6.00034 10.4187 5.66441 10.7546 5.25002 10.7546ZM9.99994 11.5C10.8284 11.5 11.4999 10.8284 11.4999 10C11.4999 9.17157 10.8284 8.5 9.99994 8.5C9.17151 8.5 8.49994 9.17157 8.49994 10C8.49994 10.8284 9.17151 11.5 9.99994 11.5Z" fill="#99A2AD"/>
</svg>
