<svg width="20" height="20" viewBox="0 0 20 20" fill="none" xmlns="http://www.w3.org/2000/svg">
<path fill-rule="evenodd" clip-rule="evenodd" d="M13.5 11H15.5C16.4306 11 16.896 11 17.2725 10.8776C18.0336 10.6303 18.6303 10.0336 18.8776 9.27254C19 8.89596 19 8.43064 19 7.5C19 6.56936 19 6.10404 18.8776 5.72746C18.6303 4.96636 18.0336 4.36965 17.2725 4.12236C16.896 4 16.4306 4 15.5 4C14.5694 4 14.104 4 13.7275 4.12236C12.9664 4.36965 12.3697 4.96636 12.1224 5.72746C12 6.10404 12 6.56936 12 7.5V9.5H8V7.5C8 6.56936 8 6.10404 7.87764 5.72746C7.63035 4.96636 7.03364 4.36965 6.27254 4.12236C5.89596 4 5.43064 4 4.5 4C3.56936 4 3.10404 4 2.72746 4.12236C1.96636 4.36965 1.36965 4.96636 1.12236 5.72746C1 6.10404 1 6.56936 1 7.5C1 8.43064 1 8.89596 1.12236 9.27254C1.36965 10.0336 1.96636 10.6303 2.72746 10.8776C3.10404 11 3.56936 11 4.5 11H6.5V13C6.5 13.9306 6.5 14.396 6.62236 14.7725C6.86965 15.5336 7.46636 16.1303 8.22746 16.3776C8.60404 16.5 9.06936 16.5 10 16.5C10.9306 16.5 11.396 16.5 11.7725 16.3776C12.5336 16.1303 13.1303 15.5336 13.3776 14.7725C13.5 14.396 13.5 13.9306 13.5 13V11ZM2.54894 6.19098C2.51851 6.28466 2.5 6.45261 2.5 7.5C2.5 8.54739 2.51851 8.71534 2.54894 8.80902C2.64786 9.11346 2.88655 9.35214 3.19098 9.45106C3.28466 9.48149 3.45261 9.5 4.5 9.5H6.5V7.5C6.5 6.45261 6.48149 6.28466 6.45106 6.19098C6.35214 5.88655 6.11346 5.64786 5.80902 5.54894C5.71534 5.51851 5.54739 5.5 4.5 5.5C3.45261 5.5 3.28466 5.51851 3.19098 5.54894C2.88655 5.64786 2.64786 5.88655 2.54894 6.19098ZM12 11H8V13C8 14.0474 8.01851 14.2153 8.04894 14.309C8.14786 14.6135 8.38654 14.8521 8.69098 14.9511C8.78466 14.9815 8.95261 15 10 15C11.0474 15 11.2153 14.9815 11.309 14.9511C11.6135 14.8521 11.8521 14.6135 11.9511 14.309C11.9815 14.2153 12 14.0474 12 13V11ZM13.5 7.5V9.5H15.5C16.5474 9.5 16.7153 9.48149 16.809 9.45106C17.1135 9.35214 17.3521 9.11346 17.4511 8.80902C17.4815 8.71534 17.5 8.54739 17.5 7.5C17.5 6.45261 17.4815 6.28466 17.4511 6.19098C17.3521 5.88654 17.1135 5.64786 16.809 5.54894C16.7153 5.51851 16.5474 5.5 15.5 5.5C14.4526 5.5 14.2847 5.51851 14.191 5.54894C13.8865 5.64786 13.6479 5.88654 13.5489 6.19098C13.5185 6.28466 13.5 6.45261 13.5 7.5Z" fill="#99A2AD"/>
</svg>
