<svg width="20" height="20" viewBox="0 0 20 20" fill="none" xmlns="http://www.w3.org/2000/svg">
<path fill-rule="evenodd" clip-rule="evenodd" d="M5 6.75C5 6.33579 5.33579 6 5.75 6H14.25C14.6642 6 15 6.33579 15 6.75C15 7.16421 14.6642 7.5 14.25 7.5H5.75C5.33579 7.5 5 7.16421 5 6.75Z" fill="#99A2AD"/>
<path fill-rule="evenodd" clip-rule="evenodd" d="M5 10.25C5 9.83579 5.33579 9.5 5.75 9.5H14.25C14.6642 9.5 15 9.83579 15 10.25C15 10.6642 14.6642 11 14.25 11H5.75C5.33579 11 5 10.6642 5 10.25Z" fill="#99A2AD"/>
<path fill-rule="evenodd" clip-rule="evenodd" d="M7.12777 2C5.51749 2 4.78763 2.1378 4.04631 2.53427C3.39639 2.88185 2.88185 3.39639 2.53427 4.04631C2.1378 4.78763 2 5.51749 2 7.12777V12.8722C2 14.4825 2.1378 15.2124 2.53427 15.9537C2.88185 16.6036 3.39639 17.1182 4.04631 17.4657C4.78763 17.8622 5.51749 18 7.12777 18H12.8722C14.4825 18 15.2124 17.8622 15.9537 17.4657C16.6036 17.1182 17.1182 16.6036 17.4657 15.9537C17.8622 15.2124 18 14.4825 18 12.8722V7.12777C18 5.51749 17.8622 4.78763 17.4657 4.04631C17.1182 3.39639 16.6036 2.88185 15.9537 2.53427C15.2124 2.1378 14.4825 2 12.8722 2H7.12777ZM4.75371 3.85699C5.16645 3.63625 5.59677 3.5 7.12777 3.5H12.8722C14.4032 3.5 14.8336 3.63625 15.2463 3.85699C15.6348 4.06477 15.9352 4.36519 16.143 4.75371C16.3637 5.16644 16.5 5.59677 16.5 7.12777V12.8722C16.5 14.4032 16.3637 14.8336 16.143 15.2463C15.9352 15.6348 15.6348 15.9352 15.2463 16.143C14.8965 16.3301 14.5341 16.4565 13.5 16.4907V13.75C13.5 13.3358 13.1642 13 12.75 13C12.3358 13 12 13.3358 12 13.75V16.5H8V13.75C8 13.3358 7.66421 13 7.25 13C6.83579 13 6.5 13.3358 6.5 13.75V16.4907C5.46586 16.4565 5.10347 16.3301 4.75371 16.143C4.36519 15.9352 4.06477 15.6348 3.85699 15.2463C3.63625 14.8336 3.5 14.4032 3.5 12.8722V7.12777C3.5 5.59677 3.63625 5.16644 3.85699 4.75371C4.06477 4.36519 4.36519 4.06477 4.75371 3.85699ZM5.75 6C5.33579 6 5 6.33579 5 6.75C5 7.16421 5.33579 7.5 5.75 7.5H14.25C14.6642 7.5 15 7.16421 15 6.75C15 6.33579 14.6642 6 14.25 6H5.75ZM5.75 9.5C5.33579 9.5 5 9.83579 5 10.25C5 10.6642 5.33579 11 5.75 11H14.25C14.6642 11 15 10.6642 15 10.25C15 9.83579 14.6642 9.5 14.25 9.5H5.75Z" fill="#99A2AD"/>
</svg>
