<svg width="20" height="20" viewBox="0 0 20 20" fill="none" xmlns="http://www.w3.org/2000/svg">
<path fill-rule="evenodd" clip-rule="evenodd" d="M9.60724 3.82288C9.72009 3.26317 10.2953 2.9266 10.8385 3.10242C11.2329 3.23005 11.5 3.5973 11.5 4.01178V7.24999C11.5 7.6642 11.8358 7.99999 12.25 7.99999H13.25C14.6668 7.99999 15.5589 8.29838 16.1061 8.82273C16.6468 9.3409 17 10.2244 17 11.75V12.25C17 13.7756 16.6468 14.6591 16.1061 15.1772C15.5589 15.7016 14.6668 16 13.25 16H10.7596H6.99975C7 15.9231 7 15.8391 7 15.7468V10.25C7 9.97682 7 9.77665 6.99355 9.61703L7.9485 8.95052C8.4153 8.62472 8.73856 8.13154 8.85106 7.57352L9.60724 3.82288ZM6.40684 8.1973L7.09001 7.72049C7.24033 7.61557 7.34442 7.45676 7.38065 7.27706L8.13683 3.52642C8.42677 2.08832 9.90466 1.22356 11.3004 1.67531C12.3136 2.00324 13 2.94683 13 4.01178V6.49999H13.25C14.8332 6.49999 16.1911 6.8266 17.1439 7.73975C18.1032 8.65908 18.5 10.0256 18.5 11.75V12.25C18.5 13.9744 18.1032 15.3409 17.1439 16.2602C16.1911 17.1734 14.8332 17.5 13.25 17.5H10.7596H6.6419C6.32445 17.9857 5.82056 18.3369 5.2292 18.4545C5.01668 18.4968 4.76112 18.4968 4.25 18.4968C3.73888 18.4968 3.48332 18.4968 3.2708 18.4545C2.39808 18.2809 1.71587 17.5987 1.54227 16.726C1.5 16.5134 1.5 16.2579 1.5 15.7468V10.25C1.5 9.73888 1.5 9.48331 1.54227 9.2708C1.71587 8.39808 2.39808 7.71586 3.2708 7.54227C3.48332 7.5 3.73888 7.5 4.25 7.5C4.76112 7.5 5.01668 7.5 5.2292 7.54227C5.6907 7.63407 6.09892 7.86809 6.40684 8.1973ZM5.5 10.25V15.7468C5.5 16.0125 5.4998 16.1743 5.49559 16.297C5.49225 16.3947 5.48721 16.4292 5.48645 16.4338C5.4311 16.7111 5.21434 16.9279 4.93704 16.9832C4.93243 16.984 4.89798 16.989 4.80025 16.9924C4.67752 16.9966 4.51573 16.9968 4.25 16.9968C3.98427 16.9968 3.82248 16.9966 3.69975 16.9924C3.60203 16.989 3.56757 16.984 3.56296 16.9832C3.28566 16.9279 3.0689 16.7111 3.01355 16.4338C3.01279 16.4292 3.00775 16.3947 3.00441 16.297C3.0002 16.1743 3 16.0125 3 15.7468V10.25C3 9.98426 3.0002 9.82248 3.00441 9.69974C3.00775 9.60207 3.01278 9.5676 3.01354 9.56296C3.0689 9.28566 3.28566 9.0689 3.56296 9.01354C3.56761 9.01278 3.60209 9.00774 3.69975 9.0044C3.82248 9.0002 3.98427 9 4.25 9C4.51573 9 4.67752 9.0002 4.80025 9.0044C4.8979 9.00774 4.93238 9.01278 4.93704 9.01354L4.93704 9.01354C5.21434 9.0689 5.4311 9.28566 5.48646 9.56296C5.48722 9.56762 5.49225 9.6021 5.49559 9.69974C5.4998 9.82248 5.5 9.98426 5.5 10.25Z" fill="#99A2AD"/>
</svg>
