<svg width="20" height="20" viewBox="0 0 20 20" fill="none" xmlns="http://www.w3.org/2000/svg">
<path fill-rule="evenodd" clip-rule="evenodd" d="M2 10C2 5.58172 5.58172 2 10 2C10.0939 2 10.1876 2.00162 10.2808 2.00484C10.6947 2.01915 11.0187 2.36633 11.0044 2.78029C10.9901 3.19426 10.6429 3.51825 10.229 3.50395C10.153 3.50132 10.0767 3.5 10 3.5C6.41015 3.5 3.5 6.41015 3.5 10V15.25C3.5 15.6642 3.16421 16 2.75 16C2.33579 16 2 15.6642 2 15.25V10ZM12.5227 3.15948C12.7055 2.78779 13.155 2.63468 13.5267 2.8175C16.1749 4.12004 18 6.84619 18 10V11.25C18 11.6642 17.6642 12 17.25 12C16.8358 12 16.5 11.6642 16.5 11.25V10C16.5 7.43953 15.0196 5.22342 12.8647 4.16349C12.493 3.98068 12.3399 3.53116 12.5227 3.15948ZM17.25 13.5C17.6642 13.5 18 13.8358 18 14.25V15.75C18 16.1642 17.6642 16.5 17.25 16.5C16.8358 16.5 16.5 16.1642 16.5 15.75V14.25C16.5 13.8358 16.8358 13.5 17.25 13.5Z" fill="#99A2AD"/>
<path fill-rule="evenodd" clip-rule="evenodd" d="M5.00391 10C5.00391 7.23858 7.24248 5 10.0039 5C10.3495 5 10.6876 5.03517 11.0147 5.10237C11.4204 5.18573 11.6817 5.58223 11.5984 5.98797C11.515 6.3937 11.1185 6.65504 10.7128 6.57168C10.4845 6.52477 10.2475 6.5 10.0039 6.5C8.07091 6.5 6.50391 8.067 6.50391 10V10.25C6.50391 10.6642 6.16812 11 5.75391 11C5.33969 11 5.00391 10.6642 5.00391 10.25V10ZM13.0514 6.94466C13.3903 6.70639 13.8581 6.78792 14.0963 7.12675C14.6681 7.93985 15.0039 8.93183 15.0039 10V15.25C15.0039 15.6642 14.6681 16 14.2539 16C13.8397 16 13.5039 15.6642 13.5039 15.25V10C13.5039 9.25061 13.2692 8.55827 12.8693 7.98957C12.6311 7.65074 12.7126 7.18292 13.0514 6.94466ZM5.75391 12.5C6.16812 12.5 6.50391 12.8358 6.50391 13.25V16.25C6.50391 16.6642 6.16812 17 5.75391 17C5.33969 17 5.00391 16.6642 5.00391 16.25V13.25C5.00391 12.8358 5.33969 12.5 5.75391 12.5Z" fill="#99A2AD"/>
<path fill-rule="evenodd" clip-rule="evenodd" d="M7.99854 10C7.99854 8.89543 8.89397 8 9.99854 8C11.1031 8 11.9985 8.89543 11.9985 10V11.25C11.9985 11.6642 11.6627 12 11.2485 12C10.8343 12 10.4985 11.6642 10.4985 11.25V10C10.4985 9.72386 10.2747 9.5 9.99854 9.5C9.72239 9.5 9.49854 9.72386 9.49854 10V16.25C9.49854 16.6642 9.16275 17 8.74854 17C8.33432 17 7.99854 16.6642 7.99854 16.25V10ZM11.2485 13.5C11.6627 13.5 11.9985 13.8358 11.9985 14.25V17.25C11.9985 17.6642 11.6627 18 11.2485 18C10.8343 18 10.4985 17.6642 10.4985 17.25V14.25C10.4985 13.8358 10.8343 13.5 11.2485 13.5Z" fill="#99A2AD"/>
</svg>
