<svg width="20" height="20" viewBox="0 0 20 20" fill="none" xmlns="http://www.w3.org/2000/svg">
<path fill-rule="evenodd" clip-rule="evenodd" d="M9.24949 1.25009L9.18238 1.25004C8.86022 1.24973 8.57736 1.24946 8.3084 1.31606C7.90929 1.41491 7.54489 1.62123 7.25478 1.91261C7.09007 2.07806 6.96099 2.2764 6.82544 2.50009H4.75C3.50736 2.50009 2.5 3.50744 2.5 4.75009C2.5 5.53019 2.89701 6.21757 3.5 6.6212V13.3501L3.5 13.3819C3.49999 14.125 3.49999 14.7281 3.53996 15.2174C3.58121 15.7223 3.66876 16.1716 3.88148 16.5891C4.21703 17.2476 4.75247 17.7831 5.41103 18.1186C5.82851 18.3313 6.27778 18.4189 6.78273 18.4601C7.27194 18.5001 7.87507 18.5001 8.61811 18.5001H8.61819H8.65H11.35H11.3818H11.3819C12.1249 18.5001 12.7281 18.5001 13.2173 18.4601C13.7222 18.4189 14.1715 18.3313 14.589 18.1186C15.2475 17.7831 15.783 17.2476 16.1185 16.5891C16.3312 16.1716 16.4188 15.7223 16.46 15.2174C16.5 14.7281 16.5 14.125 16.5 13.3819V13.3501V6.6212C17.103 6.21757 17.5 5.53019 17.5 4.75009C17.5 3.50744 16.4926 2.50009 15.25 2.50009H13.1746C13.039 2.2764 12.9099 2.07806 12.7452 1.91261C12.4551 1.62123 12.0907 1.41491 11.6916 1.31606C11.4226 1.24946 11.1398 1.24973 10.8176 1.25004L10.7505 1.25009H9.24949ZM8.66899 2.77208C8.73674 2.7553 8.82217 2.75009 9.24949 2.75009H10.7505C11.1778 2.75009 11.2633 2.7553 11.331 2.77208C11.464 2.80503 11.5855 2.8738 11.6822 2.97093C11.7315 3.02039 11.7799 3.09096 11.9997 3.45739L12.0045 3.46546L12.0045 3.46547L12.0045 3.46549C12.0254 3.50131 12.0903 3.61267 12.1829 3.70563C12.3118 3.83513 12.4738 3.92683 12.6512 3.97076C12.7785 4.0023 12.9075 4.00069 12.9489 4.00017L12.9582 4.00009H15.25C15.6642 4.00009 16 4.33587 16 4.75009C16 5.1643 15.6642 5.50008 15.25 5.50008H14H6H4.75C4.33579 5.50008 4 5.1643 4 4.75009C4 4.33587 4.33579 4.00009 4.75 4.00009H7.04175L7.05112 4.00017C7.09255 4.00069 7.22149 4.0023 7.34884 3.97076C7.52623 3.92683 7.68819 3.83513 7.81712 3.70563C7.90969 3.61265 7.97465 3.50126 7.99552 3.46546L8.00026 3.45739C8.22012 3.09096 8.26854 3.02039 8.31779 2.97093C8.41448 2.8738 8.53595 2.80503 8.66899 2.77208ZM6 7.00008H14H15V13.3501C15 14.1325 14.9994 14.6743 14.965 15.0952C14.9313 15.5074 14.869 15.7373 14.782 15.9081C14.5903 16.2844 14.2843 16.5904 13.908 16.7821C13.7372 16.8691 13.5073 16.9314 13.0951 16.9651C12.6742 16.9995 12.1324 17.0001 11.35 17.0001H8.65C7.86755 17.0001 7.32582 16.9995 6.90488 16.9651C6.49269 16.9314 6.2628 16.8691 6.09202 16.7821C5.71569 16.5904 5.40973 16.2844 5.21799 15.9081C5.13097 15.7373 5.06865 15.5074 5.03498 15.0952C5.00058 14.6743 5 14.1325 5 13.3501V7.00008H6ZM8 9.00008C7.44772 9.00008 7 9.4478 7 10.0001C7 10.5524 7.44772 11.0001 8 11.0001C8.55228 11.0001 9 10.5524 9 10.0001C9 9.4478 8.55228 9.00008 8 9.00008ZM8 12.5001C8.41421 12.5001 8.75 12.8359 8.75 13.2501C8.75 13.3882 8.86193 13.5001 9 13.5001H11.25C11.6642 13.5001 12 13.8359 12 14.2501C12 14.6643 11.6642 15.0001 11.25 15.0001H9C8.0335 15.0001 7.25 14.2166 7.25 13.2501C7.25 12.8359 7.58579 12.5001 8 12.5001ZM12 9.00008C11.4477 9.00008 11 9.4478 11 10.0001C11 10.5524 11.4477 11.0001 12 11.0001C12.5523 11.0001 13 10.5524 13 10.0001C13 9.4478 12.5523 9.00008 12 9.00008Z" fill="#99A2AD"/>
</svg>
