<svg width="20" height="20" viewBox="0 0 20 20" fill="none" xmlns="http://www.w3.org/2000/svg">
<path fill-rule="evenodd" clip-rule="evenodd" d="M3.61527 6.48864C3.05474 6.61951 2.50045 6.8096 2.12547 7.22665C1.60627 7.80412 1.39042 8.59312 1.54333 9.35461C1.65377 9.90458 2.03405 10.3506 2.44985 10.7487C2.87569 11.1566 3.47632 11.637 4.22174 12.2332L4.33315 12.3223L4.28919 12.554C4.07981 13.6573 3.91315 14.5355 3.84433 15.2058C3.77863 15.8457 3.77208 16.5056 4.08733 17.0227C4.51399 17.7225 5.26131 18.1635 6.07996 18.1986C6.68484 18.2244 7.25891 17.8995 7.78692 17.5324C8.34004 17.1479 9.02772 16.5771 9.89167 15.86L10 15.7701L10.1083 15.86C10.9723 16.5771 11.66 17.1479 12.2131 17.5324C12.7411 17.8995 13.3152 18.2244 13.92 18.1986C14.7387 18.1635 15.486 17.7225 15.9127 17.0227C16.0621 16.7775 16.1368 16.506 16.1696 16.2308L17.7197 17.7815C18.0126 18.0746 18.4874 18.0746 18.7803 17.7815C19.0732 17.4885 19.0732 17.0134 18.7803 16.7204L4.28032 2.21416C3.98743 1.92114 3.51256 1.92114 3.21966 2.21416C2.92677 2.50718 2.92677 2.98226 3.21966 3.27528L6.037 6.09384C5.22853 6.20786 4.41125 6.3028 3.61527 6.48864ZM6.14955 7.62943C5.15623 7.76964 4.46333 7.8682 3.96427 7.98471C3.44373 8.10625 3.30332 8.21384 3.26717 8.25405C3.07247 8.4706 2.99152 8.76647 3.04887 9.05203C3.05951 9.10506 3.12559 9.26919 3.51172 9.63897C3.88193 9.9935 4.42804 10.4313 5.2116 11.058L5.47064 11.265C5.51552 11.2997 5.65702 11.409 5.75477 11.5612C5.83506 11.6862 5.88722 11.8272 5.90759 11.9744C5.93238 12.1536 5.89609 12.3288 5.88458 12.3843L5.80522 12.8017C5.58684 13.9525 5.43319 14.7659 5.3719 15.3628C5.30668 15.998 5.37482 16.1842 5.39834 16.2227C5.55833 16.4852 5.83858 16.6505 6.14558 16.6637C6.1907 16.6656 6.38646 16.6352 6.91063 16.2708C7.40322 15.9284 8.04043 15.4004 8.94155 14.6525L9.2483 14.3979L9.40491 14.2742C9.47135 14.227 9.57705 14.1603 9.72003 14.1196C9.90305 14.0675 10.097 14.0675 10.28 14.1196C10.423 14.1603 10.5287 14.227 10.5951 14.2742L10.7517 14.3979L11.0585 14.6525C11.9596 15.4004 12.5968 15.9284 13.0894 16.2708C13.6135 16.6352 13.8093 16.6656 13.8544 16.6637C14.1614 16.6505 14.4417 16.4852 14.6017 16.2227C14.6107 16.208 14.6581 16.1126 14.6559 15.8084C14.6542 15.5784 14.6254 15.2831 14.5689 14.8981C14.5385 14.691 14.4398 14.5002 14.2917 14.3521L7.39619 7.45362L6.14955 7.62943Z" fill="#99A2AD"/>
<path d="M9.58721 3.13396C9.84701 3.00371 10.153 3.00371 10.4128 3.13396C10.4613 3.1583 10.6018 3.26485 10.8559 3.73186C11.0998 4.1799 11.3776 4.81845 11.775 5.73466C11.9357 6.10518 12.1023 6.47373 12.2572 6.84673C12.2776 6.89597 12.3418 7.05065 12.4534 7.17902C12.5452 7.28461 12.6576 7.37027 12.7838 7.43071C12.9372 7.50417 13.1033 7.52495 13.1562 7.53157C13.388 7.56059 13.6191 7.59677 13.8505 7.62943C14.8438 7.76965 15.5367 7.86819 16.0357 7.98471C16.5563 8.10625 16.6967 8.21384 16.7328 8.25405C16.9275 8.4706 17.0085 8.76647 16.9511 9.05204C16.9445 9.0849 16.908 9.1957 16.6963 9.42754C16.4875 9.65623 16.1713 9.93628 15.7072 10.3174C15.3794 10.5866 15.3318 11.0706 15.6009 11.3985C15.8699 11.7264 16.3537 11.774 16.6815 11.5049C17.1487 11.1212 17.5404 10.7809 17.8301 10.4637C18.1168 10.1497 18.3695 9.78897 18.4567 9.35461C18.6096 8.59312 18.3937 7.80412 17.8745 7.22666C17.4996 6.8096 16.9453 6.61951 16.3847 6.48864C15.8107 6.35461 15.0492 6.24714 14.1042 6.11375L13.5813 6.03995L13.1679 5.0868C12.79 4.2154 12.4853 3.51298 12.2046 2.9972C11.9303 2.49324 11.6008 2.01117 11.1008 1.7605C10.408 1.41317 9.59201 1.41317 8.89922 1.7605C8.43732 1.99207 8.12498 2.41824 7.86919 2.86496C7.65842 3.23308 7.78584 3.70243 8.15379 3.9133C8.52174 4.12416 8.9909 3.99669 9.20167 3.62858C9.42209 3.24363 9.54642 3.15441 9.58721 3.13396Z" fill="#99A2AD"/>
</svg>
