<svg width="20" height="20" viewBox="0 0 20 20" fill="none" xmlns="http://www.w3.org/2000/svg">
<path d="M10.75 11.5C10.75 11.0858 10.4142 10.75 10 10.75C9.58581 10.75 9.25002 11.0858 9.25002 11.5V13.5C9.25002 13.9142 9.58581 14.25 10 14.25C10.4142 14.25 10.75 13.9142 10.75 13.5V11.5Z" fill="#99A2AD"/>
<path fill-rule="evenodd" clip-rule="evenodd" d="M6.00003 4.95C6.00003 2.75756 7.80189 1 10 1C11.9036 1 13.499 2.30163 13.8961 4.08289C13.9862 4.48717 13.7316 4.88798 13.3273 4.97812C12.923 5.06826 12.5222 4.81359 12.4321 4.4093C12.1889 3.31853 11.2057 2.5 10 2.5C8.60831 2.5 7.50003 3.60782 7.50003 4.95L7.50003 7H12.7609C13.3507 6.99999 13.8385 6.99998 14.2361 7.03246C14.6493 7.06623 15.0306 7.13879 15.3893 7.32153C15.9444 7.60436 16.3957 8.05565 16.6785 8.61073C16.8612 8.96938 16.9338 9.35074 16.9676 9.76397C17 10.1615 17 10.6493 17 11.2391V13.7609C17 14.3507 17 14.8385 16.9676 15.236C16.9338 15.6493 16.8612 16.0306 16.6785 16.3893C16.3957 16.9444 15.9444 17.3956 15.3893 17.6785C15.0306 17.8612 14.6493 17.9338 14.2361 17.9675C13.8385 18 13.3507 18 12.7609 18H7.23913C6.64933 18 6.16155 18 5.76399 17.9675C5.35076 17.9338 4.96941 17.8612 4.61075 17.6785C4.05567 17.3956 3.60438 16.9444 3.32155 16.3893C3.13881 16.0306 3.06625 15.6493 3.03249 15.236C3.00001 14.8385 3.00001 14.3507 3.00002 13.7609V11.2391C3.00001 10.6493 3.00001 10.1615 3.03249 9.76397C3.06625 9.35074 3.13881 8.96938 3.32155 8.61073C3.60438 8.05565 4.05567 7.60436 4.61075 7.32153C4.96941 7.13879 5.35076 7.06623 5.76399 7.03246C5.8394 7.0263 5.91805 7.02131 6.00003 7.01727L6.00003 4.95ZM5.88614 8.52748C5.56567 8.55367 5.40369 8.601 5.29174 8.65804C5.0189 8.79706 4.79708 9.01888 4.65806 9.29171C4.60102 9.40367 4.55369 9.56565 4.52751 9.88612C4.50061 10.2153 4.50003 10.6416 4.50003 11.27V13.73C4.50003 14.3584 4.50061 14.7847 4.52751 15.1139C4.55369 15.4344 4.60102 15.5963 4.65806 15.7083C4.79708 15.9811 5.0189 16.2029 5.29174 16.342C5.40369 16.399 5.56567 16.4463 5.88614 16.4725C6.21537 16.4994 6.64159 16.5 7.27003 16.5H12.73C13.3585 16.5 13.7847 16.4994 14.1139 16.4725C14.4344 16.4463 14.5964 16.399 14.7083 16.342C14.9811 16.2029 15.203 15.9811 15.342 15.7083C15.399 15.5963 15.4464 15.4344 15.4725 15.1139C15.4994 14.7847 15.5 14.3584 15.5 13.73V11.27C15.5 10.6416 15.4994 10.2153 15.4725 9.88612C15.4464 9.56565 15.399 9.40367 15.342 9.29171C15.203 9.01888 14.9811 8.79706 14.7083 8.65804C14.5964 8.601 14.4344 8.55367 14.1139 8.52748C13.7847 8.50058 13.3585 8.5 12.73 8.5H7.27002C6.64159 8.5 6.21537 8.50058 5.88614 8.52748Z" fill="#99A2AD"/>
</svg>
