<svg width="20" height="20" viewBox="0 0 20 20" fill="none" xmlns="http://www.w3.org/2000/svg">
<path fill-rule="evenodd" clip-rule="evenodd" d="M5.83516 15.6268C6.99901 16.4896 8.4399 17 10 17C11.5601 17 13.001 16.4896 14.1648 15.6268C12.9428 14.9106 11.5203 14.5 10 14.5C8.47974 14.5 7.05719 14.9106 5.83516 15.6268ZM4.69565 14.5679C3.63892 13.3419 3 11.7456 3 10C3 6.13401 6.13401 3 10 3C13.866 3 17 6.13401 17 10C17 11.7456 16.3611 13.3419 15.3043 14.5679C13.7774 13.5761 11.9549 13 10 13C8.04513 13 6.22264 13.5761 4.69565 14.5679ZM10 1.5C5.30558 1.5 1.5 5.30558 1.5 10C1.5 14.6944 5.30558 18.5 10 18.5C14.6944 18.5 18.5 14.6944 18.5 10C18.5 5.30558 14.6944 1.5 10 1.5ZM8.5 8.5C8.5 9.32843 9.17157 10 10 10C10.8284 10 11.5 9.32843 11.5 8.5C11.5 7.67157 10.8284 7 10 7C9.17157 7 8.5 7.67157 8.5 8.5ZM10 5.5C8.34315 5.5 7 6.84315 7 8.5C7 10.1569 8.34315 11.5 10 11.5C11.6569 11.5 13 10.1569 13 8.5C13 6.84315 11.6569 5.5 10 5.5Z" fill="#99A2AD"/>
</svg>
