<svg width="20" height="20" viewBox="0 0 20 20" fill="none" xmlns="http://www.w3.org/2000/svg">
<path fill-rule="evenodd" clip-rule="evenodd" d="M12.5 8.5C11.1193 8.5 10 7.38071 10 6C10 4.61929 11.1193 3.5 12.5 3.5C13.8807 3.5 15 4.61929 15 6C15 7.38071 13.8807 8.5 12.5 8.5ZM8.5 6C8.5 3.79086 10.2909 2 12.5 2C14.7091 2 16.5 3.79086 16.5 6C16.5 8.20914 14.7091 10 12.5 10C10.2909 10 8.5 8.20914 8.5 6ZM4.50002 5.75C4.50002 5.33579 4.16424 5 3.75002 5C3.33581 5 3.00002 5.33579 3.00002 5.75V7.75H1C0.585786 7.75 0.25 8.08579 0.25 8.5C0.25 8.91421 0.585786 9.25 1 9.25H3.00002V11.25C3.00002 11.6642 3.33581 12 3.75002 12C4.16424 12 4.50002 11.6642 4.50002 11.25V9.25H6.5C6.91421 9.25 7.25 8.91421 7.25 8.5C7.25 8.08579 6.91421 7.75 6.5 7.75H4.50002V5.75ZM8.65478 12.9773C9.51977 12.5192 10.8492 12.25 12.5 12.25C14.1508 12.25 15.4802 12.5192 16.3452 12.9773C17.1394 13.3977 17.5 13.9358 17.5 14.6875C17.5 14.832 17.4736 14.9216 17.4492 14.9749C17.4252 15.0276 17.3942 15.0648 17.3584 15.0944C17.281 15.1582 17.0984 15.25 16.7593 15.25H8.24074C7.90161 15.25 7.71897 15.1582 7.64165 15.0944C7.6058 15.0648 7.57484 15.0276 7.5508 14.9749C7.52645 14.9216 7.5 14.832 7.5 14.6875C7.5 13.9358 7.86064 13.3977 8.65478 12.9773ZM12.5 10.75C10.7259 10.75 9.12061 11.0333 7.95287 11.6516C6.78334 12.2709 6 13.2605 6 14.6875C6 15.376 6.26777 15.9052 6.68651 16.251C7.09454 16.588 7.64276 16.75 8.24074 16.75H16.7593C17.3572 16.75 17.9055 16.588 18.3135 16.251C18.7322 15.9052 19 15.376 19 14.6875C19 13.2605 18.2167 12.2709 17.0471 11.6516C15.8794 11.0333 14.2741 10.75 12.5 10.75Z" fill="#99A2AD"/>
</svg>
