<svg width="20" height="20" viewBox="0 0 20 20" fill="none" xmlns="http://www.w3.org/2000/svg">
<path d="M16.5828 9.29327C16.9738 8.90224 17.6078 8.90224 17.9988 9.29327L18.7067 10.0013C19.0977 10.3923 19.0977 11.0263 18.7067 11.4173L17.9988 12.1254L15.8749 10.0013L16.5828 9.29327Z" fill="#99A2AD"/>
<path d="M14.8942 10.9814L17.0181 13.1054L12.6804 17.4434C12.2407 17.8831 11.7048 18.2144 11.1149 18.411L9.39587 18.9841C9.16106 19.0623 8.93766 18.8389 9.01593 18.6041L9.58895 16.8849C9.78557 16.295 10.1168 15.759 10.5564 15.3194L14.8942 10.9814Z" fill="#99A2AD"/>
<path fill-rule="evenodd" clip-rule="evenodd" d="M9.99994 2.5C8.63647 2.5 7.55696 3.60183 7.55696 5C7.55696 6.39817 8.63647 7.5 9.99994 7.5C11.3977 7.5 12.557 6.36388 12.557 5C12.557 3.63612 11.3977 2.5 9.99994 2.5ZM6.05696 5C6.05696 2.80832 7.77356 1 9.99994 1C12.192 1 14.057 2.77403 14.057 5C14.057 7.22597 12.192 9 9.99994 9C7.77356 9 6.05696 7.19168 6.05696 5ZM5.78283 12.8335C4.74245 13.3728 4.15254 14.1157 4.02251 15.0267C3.97288 15.3744 3.99932 15.7845 4.1431 16.0712C4.20871 16.202 4.29369 16.2985 4.40496 16.3662C4.51677 16.4343 4.69896 16.5 4.99991 16.5L6.99991 16.5C7.41412 16.5 7.74991 16.8358 7.74991 17.25C7.74991 17.6642 7.41412 18 6.99991 18L4.99991 18C4.47243 18 4.0101 17.8819 3.62495 17.6474C3.23926 17.4126 2.97484 17.0878 2.80225 16.7436C2.46966 16.0804 2.4646 15.3259 2.53757 14.8147C2.75376 13.3001 3.74667 12.1995 5.09242 11.5018C6.12179 10.9681 7.38454 10.6514 8.76154 10.535C9.1672 10.5006 9.58278 10.4837 10.0052 10.4837L11.2544 10.53C11.7227 10.53 12.0461 10.8917 12.0044 11.3364C11.9628 11.7811 11.6683 12.0699 11.2544 12.04L10.0052 11.9837C9.57454 11.9837 9.15904 12.0031 8.76154 12.041C7.58715 12.1527 6.56995 12.4254 5.78283 12.8335Z" fill="#99A2AD"/>
</svg>
