<svg width="20" height="20" viewBox="0 0 20 20" fill="none" xmlns="http://www.w3.org/2000/svg">
<path fill-rule="evenodd" clip-rule="evenodd" d="M4.89717 3.8218C5.30449 3.61574 5.76482 3.5 6.25 3.5C7.90685 3.5 9.25 4.84315 9.25 6.5C9.25 6.98516 9.13426 7.44547 8.92823 7.85278C8.74126 8.22239 8.29006 8.37046 7.92044 8.18349C7.55083 7.99652 7.40276 7.54532 7.58973 7.1757C7.69202 6.97349 7.75 6.7446 7.75 6.5C7.75 5.67157 7.07843 5 6.25 5C6.00539 5 5.77649 5.05798 5.57427 5.16028C5.20466 5.34726 4.75346 5.1992 4.56648 4.82959C4.37951 4.45998 4.52756 4.00877 4.89717 3.8218ZM10.75 6.5C10.75 4.84315 12.0931 3.5 13.75 3.5C15.4069 3.5 16.75 4.84315 16.75 6.5C16.75 8.15685 15.4069 9.5 13.75 9.5C12.0931 9.5 10.75 8.15685 10.75 6.5ZM13.75 5C12.9216 5 12.25 5.67157 12.25 6.5C12.25 7.32843 12.9216 8 13.75 8C14.5784 8 15.25 7.32843 15.25 6.5C15.25 5.67157 14.5784 5 13.75 5Z" fill="#99A2AD"/>
<path fill-rule="evenodd" clip-rule="evenodd" d="M13.75 12.25C13.3009 12.25 12.8743 12.2851 12.4805 12.3518C12.0721 12.4209 11.685 12.1459 11.6158 11.7375C11.5467 11.3291 11.8217 10.942 12.2301 10.8728C12.7132 10.791 13.2238 10.75 13.75 10.75C15.0863 10.75 16.3521 11.0152 17.3123 11.5691C18.2892 12.1327 19 13.037 19 14.25C19 14.9572 18.7245 15.5559 18.2185 15.9607C17.7351 16.3474 17.1144 16.5 16.5 16.5H16.3477C15.9334 16.5 15.5977 16.1642 15.5977 15.75C15.5977 15.3358 15.9334 15 16.3477 15H16.5C16.8856 15 17.1399 14.9026 17.2815 14.7893C17.4005 14.6941 17.5 14.5428 17.5 14.25C17.5 13.713 17.2108 13.2423 16.5627 12.8684C15.8979 12.4848 14.9137 12.25 13.75 12.25Z" fill="#99A2AD"/>
<path fill-rule="evenodd" clip-rule="evenodd" d="M9 16.5C9.61439 16.5 10.2351 16.3474 10.7185 15.9607C10.8464 15.8583 10.9596 15.7436 11.0573 15.6179L14.2197 18.7803C14.5126 19.0732 14.9874 19.0732 15.2803 18.7803C15.5732 18.4874 15.5732 18.0126 15.2803 17.7197L1.78033 4.21967C1.48744 3.92678 1.01256 3.92678 0.71967 4.21967C0.426777 4.51256 0.426777 4.98744 0.71967 5.28033L6.18952 10.7502C4.87556 10.7581 3.63337 11.0235 2.68771 11.5691C1.71083 12.1327 1 13.037 1 14.25C1 14.9572 1.27554 15.5559 1.78148 15.9607C2.26489 16.3474 2.88561 16.5 3.5 16.5H9ZM3.43729 12.8684C2.78917 13.2423 2.5 13.713 2.5 14.25C2.5 14.5428 2.59946 14.6941 2.71852 14.7893C2.86011 14.9026 3.11439 15 3.5 15H9C9.38561 15 9.63989 14.9026 9.78148 14.7893C9.85609 14.7297 9.923 14.648 9.96257 14.5232L7.85799 12.4186C7.37544 12.309 6.8323 12.25 6.25 12.25C5.08628 12.25 4.10214 12.4848 3.43729 12.8684Z" fill="#99A2AD"/>
</svg>
