<svg width="20" height="20" viewBox="0 0 20 20" fill="none" xmlns="http://www.w3.org/2000/svg">
<path d="M13.6738 18.0508L10.5514 15.5949C10.3799 15.4601 10.2942 15.3927 10.2373 15.3282C9.92089 14.9696 9.92089 14.4304 10.2373 14.0718C10.2942 14.0073 10.3799 13.9399 10.5514 13.8051L13.6738 11.3492C13.8783 11.1883 13.9806 11.1079 14.0562 11.072C14.487 10.8679 14.9953 11.1163 15.1009 11.5826C15.1195 11.6645 15.1195 11.7949 15.1195 12.0557V13.1043C17.6293 13.5011 18.5684 15.1705 18.9115 16.5377C18.9701 16.7712 18.9994 16.8879 19 16.9534C19.0035 17.3493 18.6543 17.6041 18.2803 17.4786C18.2183 17.4578 18.0473 17.35 17.7053 17.1345C17.0686 16.7334 16.2089 16.3954 15.1195 16.3954V17.3443C15.1195 17.6051 15.1195 17.7355 15.1009 17.8174C14.9953 18.2837 14.487 18.5321 14.0562 18.328C13.9806 18.2921 13.8783 18.2117 13.6738 18.0508Z" fill="#99A2AD"/>
<path fill-rule="evenodd" clip-rule="evenodd" d="M10 12C8.06271 12 6.49269 12.3579 5.46059 12.9786C4.51014 13.5502 4 14.3369 4 15.5C4 15.9603 4.14369 16.1676 4.24919 16.2666C4.37013 16.38 4.60343 16.5 5 16.5H9C9.41421 16.5 9.75 16.8358 9.75 17.25C9.75 17.6642 9.41421 18 9 18H5C4.29649 18 3.67181 17.7816 3.223 17.3606C2.77424 16.9397 2.5 16.315 2.5 15.5C2.5 13.7582 3.33279 12.5079 4.68752 11.6932C6.04168 10.8788 7.91666 10.5 10 10.5C10.0546 10.5 10.1091 10.5003 10.1634 10.5008C10.5776 10.5048 10.9101 10.8437 10.9061 11.2579C10.9022 11.6721 10.5632 12.0047 10.149 12.0007C10.0995 12.0002 10.0499 12 10 12Z" fill="#99A2AD"/>
<path fill-rule="evenodd" clip-rule="evenodd" d="M6 5C6 2.79086 7.79086 1 10 1C12.2091 1 14 2.79086 14 5C14 7.20914 12.2091 9 10 9C7.79086 9 6 7.20914 6 5ZM10 2.5C8.61929 2.5 7.5 3.61929 7.5 5C7.5 6.38071 8.61929 7.5 10 7.5C11.3807 7.5 12.5 6.38071 12.5 5C12.5 3.61929 11.3807 2.5 10 2.5Z" fill="#99A2AD"/>
</svg>
