<svg width="20" height="20" viewBox="0 0 20 20" fill="none" xmlns="http://www.w3.org/2000/svg">
<path fill-rule="evenodd" clip-rule="evenodd" d="M10 7.75C9.30965 7.75 8.75 7.19036 8.75 6.5C8.75 5.80964 9.30965 5.25 10 5.25C10.6904 5.25 11.25 5.80964 11.25 6.5C11.25 7.19036 10.6904 7.75 10 7.75ZM7.25 6.5C7.25 4.98122 8.48122 3.75 10 3.75C11.5188 3.75 12.75 4.98122 12.75 6.5C12.75 8.01878 11.5188 9.25 10 9.25C8.48122 9.25 7.25 8.01878 7.25 6.5ZM6.75 13.75C6.75 13.334 6.98146 12.9219 7.54622 12.5781C8.11901 12.2295 8.97493 12 10 12C11.0251 12 11.881 12.2295 12.4538 12.5781C13.0186 12.9219 13.25 13.334 13.25 13.75C13.25 14.0428 13.1505 14.1941 13.0315 14.2893C12.8899 14.4026 12.6356 14.5 12.25 14.5H7.75C7.3644 14.5 7.11012 14.4026 6.96853 14.2893C6.84946 14.1941 6.75 14.0428 6.75 13.75ZM10 10.5C8.77508 10.5 7.631 10.7705 6.76629 11.2969C5.89355 11.8281 5.25 12.666 5.25 13.75C5.25 14.4572 5.52555 15.0559 6.03148 15.4607C6.51489 15.8474 7.13561 16 7.75 16H12.25C12.8644 16 13.4851 15.8474 13.9685 15.4607C14.4745 15.0559 14.75 14.4572 14.75 13.75C14.75 12.666 14.1065 11.8281 13.2337 11.2969C12.369 10.7705 11.2249 10.5 10 10.5ZM14.0059 4.91198C14.0642 4.50189 14.4439 4.21669 14.854 4.27498C16.0673 4.44743 17 5.48916 17 6.75001C17 8.13073 15.8807 9.25001 14.5 9.25001C14.0858 9.25001 13.75 8.91423 13.75 8.50001C13.75 8.0858 14.0858 7.75001 14.5 7.75001C15.0523 7.75001 15.5 7.3023 15.5 6.75001C15.5 6.24657 15.1273 5.82889 14.6429 5.76005C14.2328 5.70177 13.9476 5.32207 14.0059 4.91198ZM15.7488 10C15.3346 10 14.9988 10.3358 14.9988 10.75C14.9988 11.1642 15.3346 11.5 15.7488 11.5C16.9073 11.5 17.4999 12.1726 17.4999 12.75C17.4999 12.9664 17.4262 13.165 17.3144 13.2974C17.2144 13.4158 17.0714 13.5 16.85 13.5C16.4358 13.5 16.1 13.8358 16.1 14.25C16.1 14.6642 16.4358 15 16.85 15C18.2781 15 18.9999 13.7903 18.9999 12.75C18.9999 11.0384 17.3927 10 15.7488 10ZM5 10.75C5 10.3358 4.66422 10 4.25 10C2.60611 10 0.998901 11.0384 0.998901 12.75C0.998901 13.7903 1.72064 15 3.14878 15C3.563 15 3.89878 14.6642 3.89878 14.25C3.89878 13.8358 3.563 13.5 3.14878 13.5C2.92736 13.5 2.78439 13.4158 2.6844 13.2974C2.57256 13.165 2.4989 12.9664 2.4989 12.75C2.4989 12.1726 3.09146 11.5 4.25 11.5C4.66422 11.5 5 11.1642 5 10.75ZM5.14232 4.2755C5.55232 4.21661 5.93244 4.50123 5.99134 4.91124C6.05024 5.32124 5.76561 5.70136 5.35561 5.76026C4.87198 5.82974 4.5 6.24708 4.5 6.75001C4.5 7.3023 4.94772 7.75001 5.5 7.75001C5.91422 7.75001 6.25 8.0858 6.25 8.50001C6.25 8.91423 5.91422 9.25001 5.5 9.25001C4.11929 9.25001 3 8.13072 3 6.75001C3 5.49043 3.93081 4.44954 5.14232 4.2755Z" fill="#99A2AD"/>
</svg>
