<svg width="20" height="20" viewBox="0 0 20 20" fill="none" xmlns="http://www.w3.org/2000/svg">
<path fill-rule="evenodd" clip-rule="evenodd" d="M12.7325 11.4834C12.8521 11.0868 13.2705 10.8623 13.6671 10.9819C14.2682 11.1632 14.8227 11.3987 15.3125 11.6932C16.4909 12.4019 17.2919 13.4501 17.465 14.8981C17.5142 15.3094 17.2206 15.6827 16.8093 15.7319C16.398 15.781 16.0248 15.4875 15.9756 15.0762C15.8658 14.1573 15.3847 13.487 14.5394 12.9786C14.1741 12.7589 13.7376 12.5699 13.234 12.418C12.8374 12.2984 12.6129 11.88 12.7325 11.4834Z" fill="#99A2AD"/>
<path fill-rule="evenodd" clip-rule="evenodd" d="M6 5C6 2.79086 7.79086 1 10 1C12.2091 1 14 2.79086 14 5C14 7.20914 12.2091 9 10 9C9.58579 9 9.25 8.66421 9.25 8.25C9.25 7.83579 9.58579 7.5 10 7.5C11.3807 7.5 12.5 6.38071 12.5 5C12.5 3.61929 11.3807 2.5 10 2.5C8.61929 2.5 7.5 3.61929 7.5 5C7.5 5.41421 7.16421 5.75 6.75 5.75C6.33579 5.75 6 5.41421 6 5Z" fill="#99A2AD"/>
<path fill-rule="evenodd" clip-rule="evenodd" d="M3.223 17.3606C3.67181 17.7816 4.29649 18 5 18H14.4393L15.2197 18.7803C15.5126 19.0732 15.9874 19.0732 16.2803 18.7803C16.5732 18.4874 16.5732 18.0126 16.2803 17.7197L3.78033 5.21967C3.48744 4.92678 3.01256 4.92678 2.71967 5.21967C2.42678 5.51256 2.42678 5.98744 2.71967 6.28033L7.2025 10.7632C6.25436 10.9582 5.39994 11.2647 4.68752 11.6932C3.33279 12.5079 2.5 13.7582 2.5 15.5C2.5 16.315 2.77424 16.9397 3.223 17.3606ZM5.46059 12.9786C4.51014 13.5502 4 14.3369 4 15.5C4 15.9603 4.14369 16.1676 4.24919 16.2666C4.37013 16.38 4.60343 16.5 5 16.5H12.9393L8.51564 12.0763C7.24722 12.2131 6.20974 12.5281 5.46059 12.9786Z" fill="#99A2AD"/>
</svg>
