<svg width="20" height="20" viewBox="0 0 20 20" fill="none" xmlns="http://www.w3.org/2000/svg">
<path fill-rule="evenodd" clip-rule="evenodd" d="M10 17C6.13401 17 3 13.866 3 10C3 6.13401 6.13401 3 10 3C13.866 3 17 6.13401 17 10C17 13.866 13.866 17 10 17ZM1.5 10C1.5 5.30558 5.30558 1.5 10 1.5C14.6944 1.5 18.5 5.30558 18.5 10C18.5 14.6944 14.6944 18.5 10 18.5C5.30558 18.5 1.5 14.6944 1.5 10ZM10.15 13.3775L12.85 11.8187C14.25 11.0104 14.25 8.98964 12.85 8.18135L10.15 6.6225C8.75 5.81421 7 6.82457 7 8.44115L7 11.5588C7 13.1754 8.75 14.1858 10.15 13.3775ZM12.1 9.48039C12.5 9.71132 12.5 10.2887 12.1 10.5196L9.4 12.0785C9 12.3094 8.5 12.0207 8.5 11.5588L8.5 8.44115C8.5 7.97927 9 7.6906 9.4 7.92154L12.1 9.48039Z" fill="#99A2AD"/>
</svg>
