<svg width="20" height="20" viewBox="0 0 20 20" fill="none" xmlns="http://www.w3.org/2000/svg">
<path fill-rule="evenodd" clip-rule="evenodd" d="M12.0556 1.5C12.708 1.49997 13.2856 1.49995 13.7641 1.53905C14.2738 1.58069 14.8019 1.67404 15.316 1.93598C16.0686 2.31947 16.6805 2.93139 17.064 3.68404C17.326 4.19813 17.4193 4.72622 17.461 5.23586C17.5001 5.71446 17.5 6.29194 17.5 6.94446V13.0556C17.5 13.7081 17.5001 14.2856 17.461 14.7641C17.4193 15.2738 17.326 15.8019 17.064 16.316C16.6805 17.0686 16.0686 17.6805 15.316 18.064C14.8019 18.326 14.2738 18.4193 13.7641 18.461C13.2856 18.5001 12.7081 18.5 12.0556 18.5H7.94446C7.29194 18.5 6.71446 18.5001 6.23586 18.461C5.72622 18.4193 5.19813 18.326 4.68404 18.064C3.93139 17.6805 3.31947 17.0686 2.93598 16.316C2.67404 15.8019 2.58069 15.2738 2.53905 14.7641C2.49995 14.2856 2.49997 13.7081 2.5 13.0556V6.94445C2.49997 6.29197 2.49995 5.71444 2.53905 5.23586C2.58069 4.72622 2.67404 4.19813 2.93598 3.68404C3.31947 2.93139 3.93139 2.31947 4.68404 1.93598C5.19813 1.67404 5.72622 1.58069 6.23586 1.53905C6.71444 1.49995 7.29189 1.49997 7.94437 1.5H12.0556ZM4.27249 4.36503C4.00001 4.89981 4.00001 5.59987 4.00001 7V13C4.00001 14.4001 4.00001 15.1002 4.27249 15.635C4.51217 16.1054 4.89462 16.4878 5.36503 16.7275C5.89981 17 6.59987 17 8 17H12C13.4001 17 14.1002 17 14.635 16.7275C15.1054 16.4878 15.4878 16.1054 15.7275 15.635C16 15.1002 16 14.4001 16 13V7C16 5.59987 16 4.89981 15.7275 4.36503C15.4878 3.89462 15.1054 3.51217 14.635 3.27249C14.1002 3.00001 13.4001 3.00001 12 3.00001H8C6.59987 3.00001 5.89981 3.00001 5.36503 3.27249C4.89462 3.51217 4.51217 3.89462 4.27249 4.36503ZM6 14C6 13.6736 6 13.5105 6.05727 13.3832C6.12245 13.2384 6.2384 13.1224 6.38323 13.0573C6.51047 13 6.67365 13 7 13C7.32635 13 7.48953 13 7.61677 13.0573C7.7616 13.1224 7.87755 13.2384 7.94274 13.3832C8 13.5105 8 13.6736 8 14C8 14.3264 8 14.4895 7.94274 14.6168C7.87755 14.7616 7.7616 14.8776 7.61677 14.9427C7.48953 15 7.32635 15 7 15C6.67365 15 6.51047 15 6.38323 14.9427C6.2384 14.8776 6.12245 14.7616 6.05727 14.6168C6 14.4895 6 14.3264 6 14ZM6.05727 9.38323C6 9.51047 6 9.67365 6 10C6 10.3264 6 10.4895 6.05727 10.6168C6.12245 10.7616 6.2384 10.8776 6.38323 10.9427C6.51047 11 6.67365 11 7 11C7.32635 11 7.48953 11 7.61677 10.9427C7.7616 10.8776 7.87755 10.7616 7.94274 10.6168C8 10.4895 8 10.3264 8 10C8 9.67365 8 9.51047 7.94274 9.38323C7.87755 9.2384 7.7616 9.12245 7.61677 9.05727C7.48953 9 7.32635 9 7 9C6.67365 9 6.51047 9 6.38323 9.05727C6.2384 9.12245 6.12245 9.2384 6.05727 9.38323ZM12 6C12 5.67365 12 5.51047 12.0573 5.38323C12.1224 5.2384 12.2384 5.12245 12.3832 5.05727C12.5105 5 12.6736 5 13 5C13.3264 5 13.4895 5 13.6168 5.05727C13.7616 5.12245 13.8776 5.2384 13.9427 5.38323C14 5.51047 14 5.67365 14 6C14 6.32635 14 6.48953 13.9427 6.61677C13.8776 6.7616 13.7616 6.87755 13.6168 6.94274C13.4895 7 13.3264 7 13 7C12.6736 7 12.5105 7 12.3832 6.94274C12.2384 6.87755 12.1224 6.7616 12.0573 6.61677C12 6.48953 12 6.32635 12 6ZM12.0573 13.3832C12 13.5105 12 13.6736 12 14C12 14.3264 12 14.4895 12.0573 14.6168C12.1224 14.7616 12.2384 14.8776 12.3832 14.9427C12.5105 15 12.6736 15 13 15C13.3264 15 13.4895 15 13.6168 14.9427C13.7616 14.8776 13.8776 14.7616 13.9427 14.6168C14 14.4895 14 14.3264 14 14C14 13.6736 14 13.5105 13.9427 13.3832C13.8776 13.2384 13.7616 13.1224 13.6168 13.0573C13.4895 13 13.3264 13 13 13C12.6736 13 12.5105 13 12.3832 13.0573C12.2384 13.1224 12.1224 13.2384 12.0573 13.3832ZM12 10C12 9.67365 12 9.51047 12.0573 9.38323C12.1224 9.2384 12.2384 9.12245 12.3832 9.05727C12.5105 9 12.6736 9 13 9C13.3264 9 13.4895 9 13.6168 9.05727C13.7616 9.12245 13.8776 9.2384 13.9427 9.38323C14 9.51047 14 9.67365 14 10C14 10.3264 14 10.4895 13.9427 10.6168C13.8776 10.7616 13.7616 10.8776 13.6168 10.9427C13.4895 11 13.3264 11 13 11C12.6736 11 12.5105 11 12.3832 10.9427C12.2384 10.8776 12.1224 10.7616 12.0573 10.6168C12 10.4895 12 10.3264 12 10ZM6.05727 5.38323C6 5.51047 6 5.67365 6 6C6 6.32635 6 6.48953 6.05727 6.61677C6.12245 6.7616 6.2384 6.87755 6.38323 6.94274C6.51047 7 6.67365 7 7 7C7.32635 7 7.48953 7 7.61677 6.94274C7.7616 6.87755 7.87755 6.7616 7.94274 6.61677C8 6.48953 8 6.32635 8 6C8 5.67365 8 5.51047 7.94274 5.38323C7.87755 5.2384 7.7616 5.12245 7.61677 5.05727C7.48953 5 7.32635 5 7 5C6.67365 5 6.51047 5 6.38323 5.05727C6.2384 5.12245 6.12245 5.2384 6.05727 5.38323Z" fill="#99A2AD"/>
</svg>
