<svg width="20" height="20" viewBox="0 0 20 20" fill="none" xmlns="http://www.w3.org/2000/svg">
<path fill-rule="evenodd" clip-rule="evenodd" d="M10 7.5C9.30964 7.5 8.68464 7.77982 8.23223 8.23223C7.77982 8.68464 7.5 9.30964 7.5 10C7.5 10.6904 7.77982 11.3154 8.23223 11.7678C8.68464 12.2202 9.30964 12.5 10 12.5C10.6904 12.5 11.3154 12.2202 11.7678 11.7678C12.2202 11.3154 12.5 10.6904 12.5 10C12.5 9.30964 12.2202 8.68464 11.7678 8.23223C11.3154 7.77982 10.6904 7.5 10 7.5ZM9.29289 9.29289C9.4755 9.11029 9.72344 9 10 9C10.2766 9 10.5245 9.11029 10.7071 9.29289C10.8897 9.4755 11 9.72344 11 10C11 10.2766 10.8897 10.5245 10.7071 10.7071C10.5245 10.8897 10.2766 11 10 11C9.72344 11 9.4755 10.8897 9.29289 10.7071C9.11029 10.5245 9 10.2766 9 10C9 9.72344 9.11029 9.4755 9.29289 9.29289Z" fill="#99A2AD"/>
<path d="M10.2093 6.00548C9.64991 5.97616 9.09055 6.06468 8.56751 6.2653C8.04446 6.46593 7.56939 6.77418 7.17306 7.17009C6.77672 7.56601 6.46798 8.04076 6.26681 8.5636C6.06564 9.08643 5.97653 9.64569 6.00527 10.2052C6.02651 10.6188 5.70839 10.9714 5.29472 10.9926C4.88105 11.0139 4.52848 10.6958 4.50724 10.2821C4.46773 9.51283 4.59025 8.74384 4.86686 8.02494C5.14347 7.30604 5.568 6.65326 6.11295 6.10888C6.65791 5.56449 7.31113 5.14065 8.03032 4.86479C8.74951 4.58894 9.51863 4.46722 10.2878 4.50754C10.7015 4.52922 11.0192 4.88212 10.9976 5.29576C10.9759 5.70941 10.623 6.02716 10.2093 6.00548Z" fill="#99A2AD"/>
<path d="M15.4928 9.7179C15.4715 9.30423 15.119 8.98611 14.7053 9.00735C14.2916 9.0286 13.9735 9.38116 13.9948 9.79483C14.0235 10.3543 13.9344 10.9136 13.7332 11.4364C13.532 11.9592 13.2233 12.434 12.827 12.8299C12.4306 13.2258 11.9556 13.5341 11.4325 13.7347C10.9095 13.9353 10.3501 14.0238 9.79067 13.9945C9.37703 13.9728 9.02413 14.2906 9.00245 14.7042C8.98077 15.1179 9.29852 15.4708 9.71217 15.4925C10.4814 15.5328 11.2505 15.4111 11.9697 15.1352C12.6889 14.8593 13.3421 14.4355 13.8871 13.8911C14.432 13.3467 14.8566 12.694 15.1332 11.975C15.4098 11.2561 15.5323 10.4872 15.4928 9.7179Z" fill="#99A2AD"/>
<path fill-rule="evenodd" clip-rule="evenodd" d="M10 1.5C7.65279 1.5 5.52779 2.45139 3.98959 3.98959C2.45139 5.52779 1.5 7.65279 1.5 10C1.5 12.3472 2.45139 14.4722 3.98959 16.0104C5.52779 17.5486 7.65279 18.5 10 18.5C12.3472 18.5 14.4722 17.5486 16.0104 16.0104C17.5486 14.4722 18.5 12.3472 18.5 10C18.5 7.65279 17.5486 5.52779 16.0104 3.98959C14.4722 2.45139 12.3472 1.5 10 1.5ZM5.05025 5.05025C6.31865 3.78186 8.06659 3 10 3C11.9334 3 13.6814 3.78186 14.9497 5.05025C16.2181 6.31865 17 8.06659 17 10C17 11.9334 16.2181 13.6814 14.9497 14.9497C13.6814 16.2181 11.9334 17 10 17C8.06659 17 6.31865 16.2181 5.05025 14.9497C3.78186 13.6814 3 11.9334 3 10C3 8.06659 3.78186 6.31865 5.05025 5.05025Z" fill="#99A2AD"/>
</svg>
