<svg width="20" height="20" viewBox="0 0 20 20" fill="none" xmlns="http://www.w3.org/2000/svg">
<path fill-rule="evenodd" clip-rule="evenodd" d="M11.15 17.35C11.15 17.0014 10.9949 16.6891 10.75 16.4782V15.4493C11.1639 15.3929 11.5632 15.2904 11.9424 15.1472L12.4332 16.0506C12.3186 16.3528 12.3314 16.7013 12.4978 17.0076C12.801 17.5657 13.4992 17.7724 14.0573 17.4692C14.6154 17.166 14.822 16.4679 14.5189 15.9097C14.3525 15.6035 14.0671 15.403 13.7513 15.3346L13.26 14.4302C13.6679 14.1295 14.0329 13.7738 14.3439 13.374L15.2353 13.8887C15.2955 14.2062 15.4884 14.4967 15.7903 14.671C16.3403 14.9885 17.0436 14.8001 17.3612 14.25C17.6788 13.7 17.4903 12.9967 16.9403 12.6791C16.6384 12.5048 16.2904 12.483 15.9853 12.5896L15.0949 12.0756C15.2656 11.657 15.3862 11.2126 15.4493 10.75H16.4782C16.6891 10.9949 17.0014 11.15 17.35 11.15C17.9851 11.15 18.5 10.6351 18.5 10C18.5 9.36488 17.9851 8.85001 17.35 8.85001C17.0014 8.85001 16.6891 9.00508 16.4782 9.25001H15.4493C15.3862 8.78739 15.2656 8.34307 15.0949 7.92451L15.9853 7.41046C16.2904 7.51712 16.6384 7.49525 16.9403 7.32097C17.4903 7.0034 17.6788 6.30007 17.3612 5.75004C17.0436 5.2 16.3403 5.01154 15.7903 5.32911C15.4884 5.50339 15.2955 5.79386 15.2353 6.11142L14.3439 6.62607C14.0622 6.26389 13.7361 5.93787 13.374 5.65615L13.8886 4.76476C14.2062 4.70458 14.4966 4.51162 14.6709 4.20975C14.9885 3.65971 14.8 2.95639 14.25 2.63882C13.7 2.32126 12.9966 2.50971 12.6791 3.05975C12.5048 3.36162 12.4829 3.70965 12.5896 4.01476L12.0755 4.9051C11.657 4.7344 11.2126 4.6138 10.75 4.55072V3.5218C10.9949 3.31091 11.15 2.99856 11.15 2.65C11.15 2.01487 10.6351 1.5 10 1.5C9.36487 1.5 8.85 2.01487 8.85 2.65C8.85 2.99856 9.00507 3.31091 9.25 3.5218V4.55072C8.83608 4.60715 8.43682 4.70964 8.05754 4.85285L7.56683 3.94948C7.68139 3.64726 7.66857 3.29877 7.50219 2.99248C7.19902 2.43437 6.50083 2.2277 5.94273 2.53087C5.38462 2.83403 5.17795 3.53222 5.48112 4.09033C5.6475 4.39662 5.93286 4.59706 6.24874 4.66547L6.74 5.56984C6.33202 5.87056 5.96708 6.22628 5.65612 6.62607L4.76472 6.11142C4.70454 5.79386 4.51158 5.50339 4.20971 5.32911C3.65968 5.01154 2.95635 5.2 2.63878 5.75004C2.32122 6.30007 2.50968 7.0034 3.05971 7.32097C3.36158 7.49525 3.70962 7.51712 4.01472 7.41046L4.90507 7.92451C4.73439 8.34307 4.61379 8.78739 4.55071 9.25001H3.52181C3.31091 9.00508 2.99857 8.85001 2.65 8.85001C2.01487 8.85001 1.5 9.36488 1.5 10C1.5 10.6351 2.01487 11.15 2.65 11.15C2.99857 11.15 3.31091 10.9949 3.52181 10.75H4.55071C4.61379 11.2126 4.7344 11.657 4.90509 12.0756L4.01472 12.5896C3.70962 12.483 3.36158 12.5048 3.05971 12.6791C2.50968 12.9967 2.32122 13.7 2.63878 14.25C2.95635 14.8001 3.65968 14.9885 4.20971 14.671C4.51158 14.4967 4.70454 14.2062 4.76472 13.8887L5.65615 13.374C5.93786 13.7362 6.26388 14.0622 6.62605 14.3439L6.11138 15.2353C5.79383 15.2955 5.50335 15.4885 5.32907 15.7903C5.01151 16.3404 5.19996 17.0437 5.75 17.3613C6.30004 17.6788 7.00336 17.4904 7.32093 16.9403C7.49521 16.6385 7.51708 16.2904 7.41042 15.9853L7.92449 15.0949C8.34306 15.2656 8.78738 15.3862 9.25 15.4493V16.4782C9.00507 16.6891 8.85 17.0014 8.85 17.35C8.85 17.9851 9.36487 18.5 10 18.5C10.6351 18.5 11.15 17.9851 11.15 17.35ZM10.0093 14H9.99074C9.29242 13.9984 8.63614 13.8179 8.06531 13.5018L7.94112 13.4301C7.37967 13.0924 6.90794 12.6207 6.57014 12.0594L6.4979 11.9342C6.18062 11.361 6 10.7016 6 10C6 9.29901 6.18032 8.64013 6.49711 8.06722L6.57099 7.93926C6.92524 7.35106 7.42656 6.86145 8.02405 6.52134L8.16358 6.44554C8.71353 6.16083 9.33798 6.00001 10 6.00001C10.7008 6.00001 11.3595 6.18023 11.9323 6.49686L12.0612 6.57127C12.6212 6.90861 13.0917 7.37925 13.429 7.93926L13.5029 8.06722C13.8197 8.64013 14 9.29901 14 10C14 10.7016 13.8194 11.361 13.5021 11.9342L13.4299 12.0594C13.0751 12.649 12.5726 13.1396 11.9735 13.4801L11.8389 13.5532C11.2909 13.8374 10.6688 13.9985 10.0093 14Z" fill="#99A2AD"/>
</svg>
