<svg width="20" height="20" viewBox="0 0 20 20" fill="none" xmlns="http://www.w3.org/2000/svg">
<path d="M11.5417 3C12.2934 3 13 3.5784 13 4.40741V14.9259C13 15.7549 12.2934 16.3333 11.5417 16.3333C10.9065 16.3333 10.2872 16.0997 9.82225 15.6682L6.28892 12.3889H4.78298C3.85195 12.3889 3 11.6756 3 10.6802V8.65317C3 7.65775 3.85195 6.94444 4.78298 6.94444H6.28892L9.82225 3.66513C10.2872 3.23365 10.9065 3 11.5417 3ZM11.5 4.50079C11.2442 4.5105 11.0101 4.60918 10.8427 4.76458L7.09353 8.24417C6.95482 8.37292 6.77258 8.44442 6.58333 8.44442H4.78298C4.66676 8.44442 4.5 8.51533 4.5 8.65317V10.6802C4.5 10.818 4.66676 10.8889 4.78298 10.8889H6.58333C6.77258 10.8889 6.95482 10.9604 7.09353 11.0892L10.8427 14.5687C11.0101 14.7242 11.2442 14.8228 11.5 14.8326V4.50079ZM17.615 4.88765C18.8811 6.16005 19.6667 7.82641 19.6667 9.66667C19.6667 11.5069 18.8811 13.1732 17.615 14.4457C17.3228 14.7393 16.8479 14.7405 16.5543 14.4483C16.2607 14.1562 16.2595 13.6812 16.5517 13.3877C17.5742 12.36 18.1667 11.0619 18.1667 9.66667C18.1667 8.27142 17.5742 6.97335 16.5517 5.94568C16.2595 5.65207 16.2607 5.17719 16.5543 4.88502C16.8479 4.59286 17.3228 4.59403 17.615 4.88765ZM15.489 7.43193C16.0107 8.04792 16.3333 8.81908 16.3333 9.66667C16.3333 10.5142 16.0107 11.2854 15.489 11.9014C15.2212 12.2175 14.748 12.2567 14.4319 11.989C14.1158 11.7212 14.0767 11.248 14.3443 10.9319C14.6631 10.5556 14.8333 10.1202 14.8333 9.66667C14.8333 9.21308 14.6631 8.77775 14.3443 8.40142C14.0767 8.08533 14.1158 7.61207 14.4319 7.34436C14.748 7.07665 15.2212 7.11586 15.489 7.43193Z" fill="#99A2AD"/>
</svg>
