<svg width="20" height="20" viewBox="0 0 20 20" fill="none" xmlns="http://www.w3.org/2000/svg">
<path d="M11 14C11 14.5523 10.5523 15 10 15C9.44772 15 9 14.5523 9 14C9 13.4477 9.44772 13 10 13C10.5523 13 11 13.4477 11 14Z" fill="#99A2AD"/>
<path fill-rule="evenodd" clip-rule="evenodd" d="M12.3757 3.36327C12.2181 3.09234 11.4897 2.00101 9.99924 2.00101C8.50879 2.00101 7.79028 3.07794 7.62431 3.36327L1.52311 13.8521C1.11213 14.5586 1.03548 15.4106 1.31378 16.179C1.70981 17.2725 2.74912 18.001 3.91316 18.001H16.0868C17.2509 18.001 18.2902 17.2725 18.6862 16.179C18.9645 15.4106 18.8879 14.5586 18.4769 13.8521L12.3757 3.36327ZM16.0868 16.5025C16.6192 16.5025 17.0946 16.1693 17.2757 15.6692C17.403 15.3178 17.3679 14.9281 17.18 14.6049L11.0788 4.11615C11.0788 4.11615 10.7499 3.49487 9.99921 3.49487C9.24848 3.49487 8.92124 4.11615 8.92124 4.11615L2.82003 14.6049C2.63207 14.9281 2.59701 15.3178 2.72429 15.6692C2.90543 16.1693 3.38077 16.5025 3.91316 16.5025H16.0868Z" fill="#99A2AD"/>
<path fill-rule="evenodd" clip-rule="evenodd" d="M9.99994 6.00003C10.4142 6.00003 10.7499 6.33582 10.7499 6.75003V11.25C10.7499 11.6642 10.4142 12 9.99994 12C9.58573 12 9.24994 11.6642 9.24994 11.25V6.75003C9.24994 6.33582 9.58573 6.00003 9.99994 6.00003Z" fill="#99A2AD"/>
</svg>
