<svg width="20" height="20" viewBox="0 0 20 20" fill="none" xmlns="http://www.w3.org/2000/svg">
<path fill-rule="evenodd" clip-rule="evenodd" d="M5.39955 8.68306C4.98138 9.53322 4.75 10.3298 4.75 11C4.75 13.8995 7.10051 16.25 10 16.25C12.8995 16.25 15.25 13.8995 15.25 11C15.25 10.3298 15.0186 9.53322 14.6004 8.68306C14.1862 7.8409 13.6119 6.99336 12.9847 6.23556C12.3571 5.4772 11.6926 4.82829 11.1105 4.37651C10.8189 4.15022 10.5613 3.98383 10.3504 3.87733C10.2456 3.82442 10.1609 3.79064 10.0961 3.7709C10.0311 3.75111 10.0012 3.75004 10 3.75C9.99888 3.75004 9.96892 3.75111 9.90393 3.7709C9.83912 3.79064 9.75437 3.82442 9.64957 3.87733C9.43866 3.98383 9.1811 4.15022 8.88952 4.37651C8.30739 4.82829 7.64294 5.4772 7.01527 6.23556C6.38807 6.99336 5.81379 7.8409 5.39955 8.68306ZM8.97348 2.53834C9.28083 2.38315 9.63979 2.25 10 2.25C10.3602 2.25 10.7192 2.38315 11.0265 2.53834C11.3488 2.70107 11.6889 2.92669 12.0301 3.19151C12.7136 3.72196 13.4554 4.45173 14.1403 5.27916C14.8256 6.10715 15.47 7.0525 15.9464 8.021C16.4189 8.9815 16.75 10.0133 16.75 11C16.75 14.7279 13.7279 17.75 10 17.75C6.27208 17.75 3.25 14.7279 3.25 11C3.25 10.0133 3.58112 8.9815 4.05357 8.021C4.52996 7.0525 5.17443 6.10715 5.85973 5.27916C6.54456 4.45173 7.28636 3.72196 7.96986 3.19151C8.31109 2.92669 8.65119 2.70107 8.97348 2.53834Z" fill="#99A2AD"/>
</svg>
