<svg width="20" height="20" viewBox="0 0 20 20" fill="none" xmlns="http://www.w3.org/2000/svg">
<path fill-rule="evenodd" clip-rule="evenodd" d="M17.7036 6.40773C19.6876 10.6623 17.8468 15.7197 13.5923 17.7036C9.33767 19.6875 4.28033 17.8468 2.29639 13.5922C0.312439 9.33765 2.15316 4.28032 6.40775 2.29637C10.6623 0.31242 15.7197 2.15314 17.7036 6.40773ZM12.2618 16.6251L9.63724 10.9967L4.0088 13.6213C5.70484 16.435 9.15392 17.6904 12.2618 16.6251ZM3.37487 12.2618L9.00331 9.63722L6.37873 4.00878C3.56495 5.70482 2.30959 9.1539 3.37487 12.2618ZM16.6251 7.73817C17.6904 10.8461 16.4351 14.2951 13.6213 15.9912L10.9967 10.3628L16.6251 7.73817ZM15.9912 6.37871L10.3628 9.00329L7.73819 3.37485C10.8461 2.30957 14.2952 3.56494 15.9912 6.37871Z" fill="#99A2AD"/>
</svg>
