<svg width="20" height="20" viewBox="0 0 20 20" fill="none" xmlns="http://www.w3.org/2000/svg">
<path d="M10.7951 2C11.9095 2 12.3136 2.11603 12.7211 2.33392C13.1285 2.5518 13.4482 2.87154 13.6661 3.27894C13.8694 3.65919 13.9841 4.03656 13.9985 4.99124L14 5.5H15.3635C16.3959 5.5 16.8137 5.61603 17.2211 5.83392C17.6285 6.0518 17.9482 6.37154 18.1661 6.77894C18.384 7.18635 18.5 7.60413 18.5 8.63651V10.4361C18.5 11.3276 18.4072 11.6509 18.2329 11.9768C18.063 12.2945 17.8158 12.5455 17.5016 12.7194L17.5 14.25C17.5 15.983 16.1435 17.3992 14.4344 17.4949L14.25 17.5H5.75C4.01697 17.5 2.60075 16.1435 2.50514 14.4344L2.5 14.25V12.718L2.36609 12.639C2.11423 12.4713 1.91239 12.2485 1.76713 11.9768C1.60623 11.676 1.51476 11.3774 1.50164 10.632L1.5 8.63651C1.5 7.60413 1.61603 7.18635 1.83392 6.77894C2.0518 6.37154 2.37154 6.0518 2.77894 5.83392C3.15725 5.63159 3.5445 5.5171 4.42447 5.50177L6 5.501V5.20486C6 4.09046 6.11603 3.68635 6.33392 3.27894C6.5518 2.87154 6.87154 2.5518 7.27894 2.33392C7.65919 2.13056 8.03656 2.01592 8.99124 2.00154L10.7951 2ZM16.0022 12.9998L4 12.999V14.25C4 15.1682 4.70711 15.9212 5.60647 15.9942L5.75 16H14.25C15.1682 16 15.9212 15.2929 15.9942 14.3935L16 14.25L16.0022 12.9998ZM15.5334 7.00091H4.46658L4.15804 7.00968C3.80056 7.02792 3.64228 7.07324 3.48634 7.15664C3.34034 7.23472 3.23472 7.34034 3.15664 7.48634C3.05239 7.68126 3.00764 7.87985 3.00091 8.46658L3.00061 10.5849L3.0057 10.822C3.01354 11.0229 3.02996 11.1237 3.05793 11.1993L3.08985 11.2694C3.12436 11.334 3.16603 11.3756 3.23055 11.4101L3.30065 11.4421C3.41418 11.484 3.58413 11.5 4.06389 11.5H15.9361C16.4159 11.5 16.5858 11.484 16.6993 11.4421L16.7694 11.4101C16.834 11.3756 16.8756 11.334 16.9101 11.2694L16.9421 11.1993C16.984 11.0858 17 10.9159 17 10.4361V8.63651C17 7.91599 16.9571 7.69899 16.8434 7.48634C16.7653 7.34034 16.6597 7.23472 16.5137 7.15664C16.3187 7.05239 16.1201 7.00764 15.5334 7.00091ZM10.9674 3.50075H9.03262L8.71519 3.50809C8.39251 3.52151 8.2248 3.5526 8.08792 3.60848L7.98634 3.65664C7.84034 3.73472 7.73472 3.84034 7.65664 3.98634L7.60848 4.08792C7.53663 4.2639 7.50576 4.49086 7.50075 5.03262L7.5 5.5H12.5L12.4993 5.03262L12.4919 4.71519C12.4785 4.39251 12.4474 4.2248 12.3915 4.08792L12.3434 3.98634C12.2653 3.84034 12.1597 3.73472 12.0137 3.65664L11.9121 3.60848C11.7361 3.53663 11.5091 3.50576 10.9674 3.50075Z" fill="#99A2AD"/>
</svg>
