<svg width="20" height="20" viewBox="0 0 20 20" fill="none" xmlns="http://www.w3.org/2000/svg">
<path fill-rule="evenodd" clip-rule="evenodd" d="M7.92392 3.73434C8.06761 3.66113 8.29895 3.5869 8.81484 3.54475C9.07916 3.52316 9.38316 3.51198 9.75 3.50619V3.5H10.25V3.50619C10.6168 3.51198 10.9208 3.52316 11.1852 3.54475C11.701 3.5869 11.9324 3.66113 12.0761 3.73434C12.4806 3.94047 12.8095 4.26938 13.0157 4.67393C13.0889 4.81761 13.1631 5.04896 13.2053 5.56484C13.2269 5.82918 13.238 6.13318 13.2438 6.50003L13 6.5H6.99998L6.75618 6.50003C6.76197 6.13318 6.77315 5.82918 6.79475 5.56484C6.8369 5.04896 6.91112 4.81761 6.98434 4.67393C7.19046 4.26938 7.51937 3.94047 7.92392 3.73434ZM9.75 2C8.55539 2.00002 7.83077 2.09832 7.24293 2.39783C6.55614 2.74777 5.99776 3.30615 5.64783 3.99294C5.34033 4.59644 5.27051 5.29035 5.25466 6.51835C4.46355 6.54887 3.93091 6.63014 3.48142 6.8466C2.76703 7.19063 2.19063 7.76703 1.8466 8.48142C1.5 9.20115 1.5 10.1341 1.5 12C1.5 13.8659 1.5 14.7988 1.8466 15.5186C2.19063 16.2329 2.76703 16.8093 3.48142 17.1534C4.20115 17.5 5.1341 17.5 6.99998 17.5H13C14.8659 17.5 15.7988 17.5 16.5186 17.1534C17.233 16.8093 17.8094 16.2329 18.1534 15.5186C18.5 14.7988 18.5 13.8659 18.5 12C18.5 10.1341 18.5 9.20115 18.1534 8.48142C17.8094 7.76703 17.233 7.19063 16.5186 6.8466C16.0691 6.63014 15.5365 6.54887 14.7453 6.51835C14.7295 5.29035 14.6597 4.59644 14.3522 3.99294C14.0022 3.30615 13.4439 2.74777 12.7571 2.39783C12.1692 2.09832 11.4446 2.00002 10.25 2H9.75ZM13 8H6.99998C6.0435 8 5.41204 8.00106 4.92734 8.0388C4.45891 8.07527 4.2545 8.13918 4.13224 8.19806C3.72402 8.39465 3.39465 8.72402 3.19806 9.13224C3.13918 9.2545 3.07527 9.45891 3.0388 9.92734C3.00106 10.412 3 11.0435 3 12C3 12.9565 3.00106 13.5879 3.0388 14.0726C3.07527 14.5411 3.13918 14.7455 3.19806 14.8677C3.39465 15.276 3.72402 15.6053 4.13224 15.8019C4.2545 15.8608 4.45891 15.9247 4.92734 15.9612C5.41204 15.9989 6.0435 16 6.99998 16H13C13.9565 16 14.588 15.9989 15.0727 15.9612C15.5411 15.9247 15.7455 15.8608 15.8678 15.8019C16.276 15.6053 16.6054 15.276 16.8019 14.8677C16.8608 14.7455 16.9247 14.5411 16.9612 14.0726C16.9989 13.5879 17 12.9565 17 12C17 11.0435 16.9989 10.412 16.9612 9.92734C16.9247 9.45891 16.8608 9.2545 16.8019 9.13224C16.6054 8.72402 16.276 8.39465 15.8678 8.19806C15.7455 8.13918 15.5411 8.07527 15.0727 8.0388C14.588 8.00106 13.9565 8 13 8Z" fill="#99A2AD"/>
</svg>
