<svg width="20" height="20" viewBox="0 0 20 20" fill="none" xmlns="http://www.w3.org/2000/svg">
<path fill-rule="evenodd" clip-rule="evenodd" d="M13.0764 2.64883C13.5094 2.2164 14.0783 1.99997 14.6448 1.99997C15.2113 1.99997 15.7802 2.2164 16.2132 2.64883L17.3504 3.78463C17.7833 4.21706 18 4.78533 18 5.35112C18 5.91692 17.7833 6.48518 17.3504 6.91761L16.4086 7.8582L7.23857 17.0365C6.6209 17.6534 5.78317 18 4.90967 18H3.00004C2.44775 18 2.00003 17.5523 2.00004 17L2.00003 15.1073C1.99645 14.2299 2.34387 13.3877 2.96477 12.7676L11.0882 4.63512L13.0764 2.64883ZM15.3619 6.7836L16.2891 5.85758C16.4292 5.71758 16.4991 5.53559 16.4991 5.35112C16.4991 5.16666 16.4292 4.98467 16.2891 4.84466L15.1519 3.70886C15.0117 3.56886 14.8295 3.49908 14.6448 3.49908C14.4601 3.49908 14.2779 3.56886 14.1377 3.70886L13.2106 4.63488L15.3619 6.7836ZM12.135 5.70972L4.02604 13.8277C3.68981 14.1635 3.50091 14.619 3.50091 15.0939L3.50019 16.2007C3.50009 16.3664 3.63443 16.5009 3.80019 16.5009H4.90967C5.38512 16.5009 5.8411 16.3122 6.1773 15.9765L14.2863 7.85844L12.135 5.70972Z" fill="#99A2AD"/>
</svg>
